<svg xmlns="http://www.w3.org/2000/svg" xmlns:xlink="http://www.w3.org/1999/xlink" width="247" zoomAndPan="magnify" viewBox="0 0 185.25 112.499997" height="150" preserveAspectRatio="xMidYMid meet" version="1.0"><defs><clipPath id="0599f37d9c"><path d="M 129 77.648438 L 136.933594 77.648438 L 136.933594 88.851562 L 129 88.851562 Z M 129 77.648438 " clip-rule="nonzero"/></clipPath><clipPath id="abf814137d"><path d="M 123.492188 79 L 128 79 L 128 87 L 123.492188 87 Z M 123.492188 79 " clip-rule="nonzero"/></clipPath><clipPath id="7adbe80d31"><path d="M 12 8 L 178.605469 8 L 178.605469 107.476562 L 12 107.476562 Z M 12 8 " clip-rule="nonzero"/></clipPath><clipPath id="6f747bb64e"><path d="M 9.109375 4.433594 L 176 4.433594 L 176 104 L 9.109375 104 Z M 9.109375 4.433594 " clip-rule="nonzero"/></clipPath><clipPath id="0b86d7c50d"><path d="M 9.109375 4.433594 L 176 4.433594 L 176 105 L 9.109375 105 Z M 9.109375 4.433594 " clip-rule="nonzero"/></clipPath><clipPath id="06feca5ed8"><path d="M 9.109375 4.433594 L 176 4.433594 L 176 23 L 9.109375 23 Z M 9.109375 4.433594 " clip-rule="nonzero"/></clipPath></defs><g clip-path="url(#0599f37d9c)"><path fill="#fe69c9" d="M 130.113281 85.621094 C 130.015625 85.691406 129.882812 85.722656 129.753906 85.722656 C 129.636719 85.722656 129.523438 85.699219 129.433594 85.660156 C 129.21875 85.570312 129.183594 85.414062 129.179688 85.351562 C 129.171875 85.25 129.203125 85.109375 129.402344 84.988281 C 129.609375 84.863281 129.65625 84.832031 129.851562 84.632812 C 130.238281 84.234375 130.378906 83.832031 130.332031 83.25 C 130.265625 82.378906 129.929688 81.796875 129.339844 81.523438 C 129.128906 81.425781 129.085938 81.246094 129.117188 81.125 C 129.164062 80.917969 129.382812 80.804688 129.566406 80.800781 C 130.035156 80.789062 130.460938 81.015625 130.800781 81.453125 C 131.101562 81.84375 131.273438 82.3125 131.367188 82.636719 C 131.550781 83.277344 131.472656 83.953125 131.152344 84.535156 C 130.894531 85 130.484375 85.34375 130.113281 85.621094 Z M 133.738281 81.65625 C 133.53125 80.800781 133.171875 80.101562 132.671875 79.578125 C 132.324219 79.207031 131.972656 78.988281 131.839844 78.914062 C 131.703125 78.832031 131.632812 78.804688 131.597656 78.792969 L 131.59375 78.792969 C 131.589844 78.789062 131.582031 78.785156 131.578125 78.785156 C 131.558594 78.777344 131.539062 78.769531 131.519531 78.761719 C 131.429688 78.722656 131.316406 78.679688 131.1875 78.671875 C 130.972656 78.640625 130.640625 78.734375 130.542969 78.96875 C 130.488281 79.105469 130.507812 79.296875 130.738281 79.4375 C 130.75 79.445312 130.761719 79.453125 130.773438 79.457031 L 130.855469 79.492188 C 130.886719 79.503906 130.921875 79.519531 130.929688 79.523438 C 130.933594 79.527344 130.949219 79.539062 130.960938 79.550781 C 130.980469 79.5625 131 79.582031 131.03125 79.605469 C 131.160156 79.707031 131.296875 79.8125 131.417969 79.9375 C 131.421875 79.941406 131.421875 79.941406 131.425781 79.945312 C 132.113281 80.578125 132.546875 81.691406 132.59375 82.921875 C 132.574219 83.644531 132.480469 84.117188 132.238281 84.726562 C 132.027344 85.246094 131.757812 85.726562 131.433594 86.160156 C 131.339844 86.285156 131.222656 86.417969 131.097656 86.558594 C 130.980469 86.699219 130.855469 86.839844 130.75 86.980469 C 130.695312 87.050781 130.679688 87.070312 130.664062 87.089844 C 130.652344 87.105469 130.640625 87.121094 130.613281 87.152344 C 130.558594 87.203125 130.523438 87.265625 130.507812 87.332031 C 130.460938 87.484375 130.535156 87.65625 130.691406 87.746094 C 130.804688 87.820312 130.945312 87.859375 131.09375 87.859375 C 131.175781 87.859375 131.257812 87.847656 131.339844 87.824219 C 131.488281 87.789062 131.582031 87.699219 131.648438 87.632812 L 131.667969 87.613281 C 131.757812 87.53125 131.84375 87.449219 131.933594 87.363281 C 133.070312 86.246094 133.789062 84.769531 133.898438 83.3125 C 133.941406 82.816406 133.890625 82.273438 133.738281 81.65625 Z M 136.738281 82.121094 C 136.433594 80.910156 135.773438 79.753906 134.828125 78.78125 C 134.601562 78.546875 134.351562 78.320312 134.082031 78.109375 C 134.078125 78.109375 134.074219 78.105469 134.074219 78.105469 C 134.042969 78.082031 134.015625 78.0625 133.988281 78.039062 C 133.816406 77.914062 133.625 77.769531 133.382812 77.699219 C 133.378906 77.695312 133.375 77.695312 133.371094 77.695312 C 133.207031 77.652344 133.027344 77.671875 132.875 77.742188 C 132.875 77.746094 132.871094 77.746094 132.871094 77.746094 C 132.730469 77.820312 132.648438 77.945312 132.648438 78.082031 C 132.648438 78.21875 132.730469 78.34375 132.871094 78.414062 C 133.03125 78.496094 133.21875 78.664062 133.433594 78.851562 C 133.484375 78.898438 133.539062 78.945312 133.59375 78.992188 C 133.8125 79.191406 134.03125 79.425781 134.28125 79.722656 C 134.507812 80.011719 134.824219 80.457031 135.03125 80.847656 C 135.226562 81.210938 135.378906 81.570312 135.492188 81.921875 C 135.605469 82.277344 135.652344 82.472656 135.695312 82.859375 C 135.757812 83.695312 135.578125 84.425781 135.375 85.09375 C 135.007812 86.128906 134.472656 86.992188 133.78125 87.652344 C 133.746094 87.683594 133.710938 87.714844 133.675781 87.746094 C 133.535156 87.867188 133.390625 87.992188 133.261719 88.140625 C 133.261719 88.140625 133.261719 88.144531 133.257812 88.144531 C 133.246094 88.160156 133.234375 88.171875 133.21875 88.1875 C 133.203125 88.203125 133.183594 88.222656 133.164062 88.246094 C 133.105469 88.296875 133.066406 88.363281 133.058594 88.4375 C 133.039062 88.558594 133.085938 88.671875 133.183594 88.75 C 133.28125 88.824219 133.410156 88.851562 133.523438 88.851562 C 133.59375 88.851562 133.65625 88.839844 133.703125 88.824219 C 133.738281 88.816406 133.773438 88.800781 133.808594 88.78125 C 133.832031 88.765625 133.855469 88.753906 133.875 88.742188 L 133.957031 88.699219 C 134.160156 88.585938 134.199219 88.5625 134.398438 88.421875 L 134.410156 88.414062 C 134.417969 88.410156 134.425781 88.402344 134.433594 88.398438 C 134.5 88.355469 134.574219 88.300781 134.644531 88.238281 C 135.171875 87.753906 135.625 87.15625 136 86.460938 C 136.183594 86.117188 136.332031 85.789062 136.449219 85.460938 C 136.535156 85.230469 136.59375 84.992188 136.652344 84.765625 L 136.675781 84.6875 C 136.914062 83.730469 136.933594 82.871094 136.738281 82.121094 Z M 136.738281 82.121094 " fill-opacity="1" fill-rule="nonzero"/></g><g clip-path="url(#abf814137d)"><path fill="#24a9c5" d="M 127.828125 86.46875 C 127.839844 86.152344 127.832031 85.835938 127.839844 85.519531 C 127.851562 84.796875 127.882812 84.074219 127.882812 83.347656 C 127.875 82.625 127.84375 81.902344 127.839844 81.179688 C 127.835938 80.714844 127.867188 80.25 127.847656 79.785156 C 127.847656 79.707031 127.851562 79.640625 127.800781 79.609375 C 127.753906 79.582031 127.644531 79.472656 127.355469 79.769531 C 127.214844 79.910156 127.085938 80.0625 126.949219 80.207031 C 126.195312 81 125.921875 81.253906 125.902344 81.261719 C 125.898438 81.261719 125.890625 81.261719 125.886719 81.265625 C 125.890625 81.265625 125.722656 81.28125 125.640625 81.285156 C 125.183594 81.320312 124.992188 81.332031 124.535156 81.367188 C 124.238281 81.398438 123.9375 81.417969 123.640625 81.445312 C 123.585938 81.449219 123.550781 81.457031 123.550781 81.492188 C 123.550781 81.519531 123.566406 83.121094 123.523438 84.75 C 123.519531 84.921875 123.492188 85.109375 123.519531 85.28125 C 123.574219 85.378906 123.710938 85.386719 123.816406 85.386719 C 123.898438 85.386719 123.984375 85.386719 124.066406 85.386719 C 124.683594 85.390625 125.46875 85.386719 125.796875 85.335938 C 125.796875 85.335938 125.796875 85.339844 125.796875 85.339844 C 125.800781 85.335938 125.808594 85.335938 125.8125 85.335938 C 126.019531 85.542969 126.347656 85.859375 127.476562 86.800781 C 127.519531 86.835938 127.644531 87 127.742188 86.945312 C 127.761719 86.933594 127.78125 86.921875 127.78125 86.902344 C 127.785156 86.886719 127.789062 86.875 127.789062 86.859375 C 127.8125 86.730469 127.824219 86.601562 127.828125 86.46875 " fill-opacity="1" fill-rule="nonzero"/></g><g clip-path="url(#7adbe80d31)"><path fill="#151515" d="M 173.433594 107.53125 L 18.203125 107.53125 C 17.859375 107.53125 17.515625 107.496094 17.179688 107.429688 C 16.839844 107.359375 16.511719 107.261719 16.191406 107.128906 C 15.875 106.996094 15.570312 106.835938 15.285156 106.644531 C 14.996094 106.453125 14.730469 106.234375 14.488281 105.992188 C 14.242188 105.746094 14.027344 105.480469 13.835938 105.195312 C 13.644531 104.90625 13.480469 104.605469 13.347656 104.285156 C 13.21875 103.96875 13.117188 103.636719 13.050781 103.300781 C 12.984375 102.960938 12.949219 102.621094 12.949219 102.273438 L 12.949219 15.511719 C 12.949219 15.050781 12.992188 14.59375 13.082031 14.140625 C 13.175781 13.691406 13.308594 13.25 13.484375 12.824219 C 13.660156 12.398438 13.875 11.992188 14.132812 11.609375 C 14.390625 11.226562 14.679688 10.871094 15.007812 10.546875 C 15.332031 10.21875 15.6875 9.929688 16.070312 9.671875 C 16.453125 9.414062 16.859375 9.199219 17.285156 9.023438 C 17.710938 8.847656 18.152344 8.710938 18.605469 8.621094 C 19.054688 8.53125 19.511719 8.488281 19.972656 8.488281 L 171.667969 8.488281 C 172.128906 8.488281 172.585938 8.53125 173.039062 8.621094 C 173.492188 8.710938 173.929688 8.847656 174.355469 9.023438 C 174.78125 9.199219 175.1875 9.414062 175.570312 9.671875 C 175.953125 9.929688 176.308594 10.21875 176.636719 10.546875 C 176.960938 10.871094 177.253906 11.226562 177.507812 11.609375 C 177.765625 11.992188 177.980469 12.398438 178.160156 12.824219 C 178.335938 13.25 178.46875 13.691406 178.558594 14.140625 C 178.648438 14.59375 178.695312 15.050781 178.695312 15.511719 L 178.695312 102.273438 C 178.695312 102.621094 178.660156 102.960938 178.59375 103.300781 C 178.523438 103.640625 178.425781 103.96875 178.292969 104.289062 C 178.160156 104.605469 178 104.910156 177.808594 105.195312 C 177.613281 105.484375 177.398438 105.75 177.152344 105.992188 C 176.90625 106.238281 176.640625 106.453125 176.355469 106.644531 C 176.066406 106.839844 175.765625 107 175.445312 107.132812 C 175.125 107.261719 174.796875 107.363281 174.457031 107.429688 C 174.121094 107.496094 173.777344 107.53125 173.433594 107.53125 Z M 173.433594 107.53125 " fill-opacity="1" fill-rule="nonzero"/></g><g clip-path="url(#6f747bb64e)"><path fill="#fffbea" d="M 16.640625 4.796875 L 168.339844 4.796875 C 168.800781 4.796875 169.257812 4.84375 169.710938 4.933594 C 170.164062 5.023438 170.601562 5.15625 171.027344 5.332031 C 171.457031 5.507812 171.859375 5.726562 172.242188 5.980469 C 172.628906 6.238281 172.980469 6.527344 173.308594 6.855469 C 173.632812 7.179688 173.925781 7.535156 174.183594 7.917969 C 174.4375 8.304688 174.65625 8.707031 174.832031 9.132812 C 175.007812 9.5625 175.140625 10 175.230469 10.453125 C 175.320312 10.90625 175.367188 11.363281 175.367188 11.824219 L 175.367188 98.578125 C 175.367188 98.921875 175.332031 99.265625 175.265625 99.601562 C 175.199219 99.941406 175.097656 100.269531 174.964844 100.589844 C 174.832031 100.90625 174.671875 101.210938 174.480469 101.496094 C 174.289062 101.785156 174.070312 102.050781 173.828125 102.292969 C 173.582031 102.535156 173.316406 102.753906 173.03125 102.945312 C 172.742188 103.136719 172.441406 103.300781 172.121094 103.433594 C 171.804688 103.5625 171.476562 103.664062 171.136719 103.730469 C 170.796875 103.796875 170.457031 103.832031 170.113281 103.832031 L 14.875 103.832031 C 14.53125 103.832031 14.1875 103.796875 13.851562 103.730469 C 13.511719 103.664062 13.183594 103.5625 12.863281 103.433594 C 12.546875 103.300781 12.242188 103.136719 11.957031 102.945312 C 11.667969 102.753906 11.402344 102.535156 11.160156 102.292969 C 10.917969 102.050781 10.699219 101.785156 10.507812 101.496094 C 10.316406 101.210938 10.152344 100.90625 10.019531 100.589844 C 9.890625 100.269531 9.789062 99.941406 9.722656 99.601562 C 9.65625 99.265625 9.621094 98.921875 9.621094 98.578125 L 9.621094 11.816406 C 9.621094 11.355469 9.667969 10.898438 9.757812 10.445312 C 9.847656 9.996094 9.980469 9.554688 10.15625 9.132812 C 10.332031 8.707031 10.550781 8.300781 10.804688 7.917969 C 11.0625 7.535156 11.351562 7.179688 11.679688 6.855469 C 12.003906 6.53125 12.359375 6.238281 12.742188 5.984375 C 13.125 5.726562 13.527344 5.511719 13.953125 5.332031 C 14.378906 5.15625 14.820312 5.023438 15.269531 4.933594 C 15.722656 4.84375 16.179688 4.796875 16.640625 4.796875 Z M 16.640625 4.796875 " fill-opacity="1" fill-rule="nonzero"/></g><g clip-path="url(#0b86d7c50d)"><path fill="#151515" d="M 170.105469 104.203125 L 14.875 104.203125 C 14.507812 104.203125 14.140625 104.164062 13.777344 104.09375 C 13.417969 104.019531 13.066406 103.914062 12.722656 103.773438 C 12.382812 103.632812 12.058594 103.457031 11.75 103.253906 C 11.445312 103.046875 11.160156 102.8125 10.898438 102.554688 C 10.636719 102.292969 10.40625 102.007812 10.199219 101.703125 C 9.996094 101.394531 9.820312 101.070312 9.679688 100.730469 C 9.539062 100.386719 9.433594 100.035156 9.359375 99.675781 C 9.289062 99.3125 9.25 98.945312 9.25 98.578125 L 9.25 11.816406 C 9.25 11.328125 9.296875 10.847656 9.394531 10.371094 C 9.488281 9.898438 9.628906 9.433594 9.8125 8.984375 C 10 8.535156 10.226562 8.109375 10.496094 7.707031 C 10.765625 7.304688 11.074219 6.929688 11.417969 6.585938 C 11.761719 6.242188 12.132812 5.9375 12.539062 5.667969 C 12.941406 5.398438 13.367188 5.167969 13.816406 4.984375 C 14.265625 4.796875 14.726562 4.65625 15.203125 4.5625 C 15.679688 4.46875 16.160156 4.421875 16.644531 4.421875 L 168.339844 4.421875 C 168.828125 4.421875 169.308594 4.46875 169.785156 4.5625 C 170.257812 4.65625 170.722656 4.796875 171.171875 4.984375 C 171.621094 5.167969 172.046875 5.398438 172.449219 5.667969 C 172.851562 5.9375 173.226562 6.242188 173.570312 6.585938 C 173.914062 6.929688 174.21875 7.304688 174.488281 7.707031 C 174.757812 8.109375 174.988281 8.535156 175.171875 8.984375 C 175.359375 9.433594 175.5 9.898438 175.59375 10.371094 C 175.6875 10.847656 175.734375 11.328125 175.734375 11.816406 L 175.734375 98.578125 C 175.734375 98.945312 175.699219 99.3125 175.625 99.675781 C 175.554688 100.039062 175.449219 100.390625 175.304688 100.730469 C 175.164062 101.074219 174.992188 101.398438 174.785156 101.703125 C 174.578125 102.011719 174.347656 102.292969 174.085938 102.554688 C 173.824219 102.816406 173.539062 103.050781 173.230469 103.253906 C 172.925781 103.460938 172.601562 103.632812 172.257812 103.773438 C 171.917969 103.914062 171.566406 104.023438 171.203125 104.09375 C 170.839844 104.167969 170.472656 104.203125 170.105469 104.203125 Z M 16.65625 5.167969 C 16.21875 5.167969 15.789062 5.210938 15.359375 5.296875 C 14.929688 5.378906 14.515625 5.507812 14.109375 5.675781 C 13.707031 5.839844 13.324219 6.046875 12.960938 6.289062 C 12.597656 6.53125 12.261719 6.808594 11.953125 7.117188 C 11.640625 7.425781 11.367188 7.761719 11.125 8.125 C 10.882812 8.488281 10.675781 8.871094 10.507812 9.277344 C 10.339844 9.679688 10.214844 10.097656 10.128906 10.523438 C 10.042969 10.953125 10.003906 11.386719 10.003906 11.824219 L 10.003906 98.578125 C 10.003906 98.898438 10.035156 99.214844 10.097656 99.53125 C 10.160156 99.84375 10.253906 100.148438 10.375 100.445312 C 10.496094 100.742188 10.648438 101.023438 10.828125 101.289062 C 11.003906 101.558594 11.207031 101.804688 11.433594 102.03125 C 11.660156 102.257812 11.90625 102.460938 12.171875 102.636719 C 12.441406 102.816406 12.722656 102.964844 13.019531 103.089844 C 13.3125 103.210938 13.621094 103.304688 13.933594 103.367188 C 14.25 103.429688 14.566406 103.460938 14.886719 103.460938 L 170.105469 103.460938 C 170.425781 103.460938 170.742188 103.429688 171.058594 103.367188 C 171.371094 103.304688 171.675781 103.210938 171.972656 103.089844 C 172.269531 102.964844 172.550781 102.816406 172.816406 102.636719 C 173.082031 102.460938 173.332031 102.257812 173.558594 102.03125 C 173.785156 101.804688 173.988281 101.558594 174.164062 101.289062 C 174.34375 101.023438 174.492188 100.742188 174.617188 100.445312 C 174.738281 100.148438 174.832031 99.84375 174.894531 99.53125 C 174.957031 99.214844 174.988281 98.898438 174.988281 98.578125 L 174.988281 11.816406 C 174.988281 11.378906 174.945312 10.945312 174.859375 10.515625 C 174.777344 10.089844 174.648438 9.671875 174.480469 9.269531 C 174.316406 8.863281 174.109375 8.480469 173.867188 8.117188 C 173.625 7.753906 173.347656 7.417969 173.039062 7.109375 C 172.730469 6.800781 172.394531 6.523438 172.03125 6.28125 C 171.667969 6.039062 171.285156 5.832031 170.878906 5.667969 C 170.476562 5.5 170.058594 5.375 169.632812 5.289062 C 169.203125 5.203125 168.769531 5.160156 168.332031 5.160156 Z M 16.65625 5.167969 " fill-opacity="1" fill-rule="nonzero"/></g><g clip-path="url(#06feca5ed8)"><path fill="#ff6b1b" d="M 175.359375 22.558594 L 9.621094 22.558594 L 9.621094 11.671875 C 9.621094 11.21875 9.664062 10.773438 9.753906 10.332031 C 9.839844 9.886719 9.972656 9.457031 10.144531 9.039062 C 10.316406 8.625 10.527344 8.226562 10.78125 7.851562 C 11.03125 7.476562 11.316406 7.128906 11.632812 6.8125 C 11.953125 6.492188 12.300781 6.207031 12.675781 5.957031 C 13.050781 5.707031 13.449219 5.492188 13.863281 5.320312 C 14.28125 5.148438 14.710938 5.019531 15.152344 4.929688 C 15.597656 4.839844 16.042969 4.796875 16.496094 4.796875 L 168.484375 4.796875 C 168.9375 4.796875 169.382812 4.839844 169.824219 4.929688 C 170.269531 5.019531 170.699219 5.148438 171.117188 5.320312 C 171.53125 5.492188 171.929688 5.707031 172.304688 5.957031 C 172.679688 6.207031 173.027344 6.492188 173.34375 6.8125 C 173.664062 7.128906 173.949219 7.476562 174.199219 7.851562 C 174.449219 8.226562 174.664062 8.625 174.835938 9.039062 C 175.007812 9.457031 175.136719 9.886719 175.226562 10.332031 C 175.316406 10.773438 175.359375 11.21875 175.359375 11.671875 Z M 175.359375 22.558594 " fill-opacity="1" fill-rule="nonzero"/><path fill="#151515" d="M 175.359375 22.925781 L 9.621094 22.925781 C 9.519531 22.925781 9.433594 22.890625 9.359375 22.816406 C 9.289062 22.746094 9.25 22.660156 9.25 22.558594 L 9.25 11.671875 C 9.25 11.195312 9.296875 10.726562 9.390625 10.257812 C 9.484375 9.792969 9.621094 9.339844 9.804688 8.902344 C 9.988281 8.460938 10.210938 8.042969 10.472656 7.648438 C 10.738281 7.253906 11.039062 6.886719 11.375 6.550781 C 11.710938 6.214844 12.078125 5.914062 12.472656 5.652344 C 12.867188 5.386719 13.285156 5.164062 13.722656 4.980469 C 14.164062 4.800781 14.617188 4.660156 15.082031 4.566406 C 15.546875 4.476562 16.019531 4.429688 16.496094 4.429688 L 168.484375 4.429688 C 168.960938 4.429688 169.429688 4.476562 169.898438 4.566406 C 170.363281 4.660156 170.816406 4.800781 171.253906 4.980469 C 171.695312 5.164062 172.113281 5.386719 172.507812 5.652344 C 172.902344 5.914062 173.269531 6.214844 173.605469 6.550781 C 173.941406 6.886719 174.242188 7.253906 174.503906 7.648438 C 174.769531 8.042969 174.992188 8.460938 175.175781 8.902344 C 175.355469 9.339844 175.496094 9.792969 175.589844 10.257812 C 175.679688 10.726562 175.726562 11.195312 175.726562 11.671875 L 175.726562 22.558594 C 175.726562 22.660156 175.691406 22.746094 175.621094 22.816406 C 175.546875 22.890625 175.460938 22.925781 175.359375 22.925781 Z M 9.992188 22.1875 L 174.988281 22.1875 L 174.988281 11.671875 C 174.988281 11.246094 174.945312 10.820312 174.863281 10.402344 C 174.777344 9.984375 174.65625 9.578125 174.492188 9.183594 C 174.328125 8.789062 174.128906 8.414062 173.890625 8.058594 C 173.652344 7.703125 173.382812 7.375 173.082031 7.074219 C 172.78125 6.773438 172.453125 6.503906 172.097656 6.265625 C 171.742188 6.027344 171.367188 5.828125 170.972656 5.664062 C 170.578125 5.5 170.171875 5.378906 169.753906 5.292969 C 169.335938 5.210938 168.910156 5.167969 168.484375 5.167969 L 16.496094 5.167969 C 16.066406 5.167969 15.644531 5.210938 15.226562 5.292969 C 14.808594 5.378906 14.402344 5.5 14.007812 5.664062 C 13.613281 5.828125 13.238281 6.027344 12.882812 6.265625 C 12.527344 6.503906 12.199219 6.773438 11.898438 7.074219 C 11.597656 7.375 11.328125 7.703125 11.089844 8.058594 C 10.851562 8.414062 10.652344 8.789062 10.488281 9.183594 C 10.324219 9.578125 10.199219 9.984375 10.117188 10.402344 C 10.035156 10.820312 9.992188 11.246094 9.992188 11.671875 Z M 9.992188 22.1875 " fill-opacity="1" fill-rule="nonzero"/></g><path fill="#151515" d="M 34.304688 13.789062 L 26.699219 13.789062 C 26.597656 13.789062 26.511719 13.753906 26.4375 13.679688 C 26.367188 13.609375 26.332031 13.523438 26.332031 13.421875 C 26.332031 13.316406 26.367188 13.230469 26.4375 13.160156 C 26.511719 13.085938 26.597656 13.050781 26.699219 13.050781 L 34.304688 13.050781 C 34.40625 13.050781 34.496094 13.085938 34.566406 13.160156 C 34.640625 13.230469 34.675781 13.316406 34.675781 13.421875 C 34.675781 13.523438 34.640625 13.609375 34.566406 13.679688 C 34.496094 13.753906 34.40625 13.789062 34.304688 13.789062 Z M 34.304688 13.789062 " fill-opacity="1" fill-rule="nonzero"/><path fill="#151515" d="M 31.5 16.746094 C 31.324219 16.746094 31.210938 16.664062 31.152344 16.5 C 31.09375 16.335938 31.128906 16.199219 31.261719 16.089844 L 34.4375 13.457031 L 31.296875 11.289062 C 31.207031 11.234375 31.148438 11.15625 31.128906 11.050781 C 31.109375 10.949219 31.125 10.851562 31.1875 10.765625 C 31.246094 10.679688 31.332031 10.625 31.433594 10.609375 C 31.539062 10.59375 31.632812 10.621094 31.71875 10.683594 L 35.261719 13.125 C 35.363281 13.195312 35.417969 13.289062 35.421875 13.414062 C 35.425781 13.535156 35.382812 13.632812 35.289062 13.710938 L 31.742188 16.671875 C 31.671875 16.726562 31.589844 16.75 31.5 16.746094 Z M 31.5 16.746094 " fill-opacity="1" fill-rule="nonzero"/><path fill="#151515" d="M 42.410156 17.300781 C 42.167969 17.304688 41.925781 17.289062 41.6875 17.25 C 41.449219 17.207031 41.214844 17.144531 40.988281 17.058594 C 40.761719 16.96875 40.546875 16.859375 40.34375 16.730469 C 40.136719 16.597656 39.949219 16.449219 39.773438 16.28125 C 39.597656 16.109375 39.445312 15.925781 39.304688 15.726562 C 39.167969 15.527344 39.054688 15.3125 38.957031 15.089844 C 38.863281 14.867188 38.792969 14.636719 38.742188 14.398438 C 38.695312 14.160156 38.671875 13.921875 38.671875 13.675781 C 38.671875 13.433594 38.695312 13.195312 38.742188 12.957031 C 38.792969 12.71875 38.863281 12.488281 38.957031 12.265625 C 39.054688 12.039062 39.167969 11.828125 39.304688 11.628906 C 39.445312 11.429688 39.597656 11.242188 39.773438 11.074219 C 39.949219 10.90625 40.136719 10.753906 40.34375 10.625 C 40.546875 10.492188 40.761719 10.382812 40.988281 10.296875 C 41.214844 10.210938 41.449219 10.144531 41.6875 10.105469 C 41.925781 10.0625 42.167969 10.046875 42.410156 10.054688 C 42.472656 10.054688 44.511719 9.941406 45.257812 11.535156 C 45.304688 11.628906 45.308594 11.722656 45.273438 11.820312 C 45.242188 11.917969 45.175781 11.988281 45.082031 12.03125 C 44.988281 12.078125 44.894531 12.082031 44.796875 12.042969 C 44.699219 12.007812 44.628906 11.941406 44.589844 11.847656 C 44.054688 10.707031 42.449219 10.789062 42.433594 10.789062 C 42.042969 10.773438 41.664062 10.832031 41.296875 10.972656 C 40.929688 11.109375 40.605469 11.316406 40.324219 11.585938 C 40.042969 11.855469 39.824219 12.171875 39.667969 12.53125 C 39.515625 12.890625 39.4375 13.265625 39.433594 13.660156 C 39.433594 14.050781 39.507812 14.425781 39.660156 14.785156 C 39.8125 15.148438 40.027344 15.464844 40.308594 15.738281 C 40.589844 16.011719 40.910156 16.21875 41.277344 16.359375 C 41.640625 16.5 42.019531 16.5625 42.410156 16.550781 C 43.238281 16.496094 43.953125 16.179688 44.554688 15.609375 C 45.027344 15.054688 45.222656 14.414062 45.148438 13.691406 C 45.140625 13.589844 45.171875 13.5 45.242188 13.421875 C 45.308594 13.347656 45.394531 13.304688 45.496094 13.300781 C 45.597656 13.296875 45.6875 13.328125 45.761719 13.394531 C 45.839844 13.460938 45.878906 13.546875 45.886719 13.648438 C 45.980469 14.585938 45.71875 15.40625 45.097656 16.113281 C 44.355469 16.839844 43.464844 17.230469 42.429688 17.292969 Z M 42.410156 17.300781 " fill-opacity="1" fill-rule="nonzero"/><path fill="#151515" d="M 45.457031 10.761719 L 45.308594 12.242188 C 45.300781 12.339844 45.25 12.414062 45.160156 12.460938 C 45.070312 12.507812 44.984375 12.507812 44.894531 12.457031 L 43.449219 11.675781 C 43.347656 11.617188 43.300781 11.53125 43.304688 11.417969 C 43.308594 11.300781 43.367188 11.21875 43.472656 11.171875 L 45.066406 10.480469 C 45.164062 10.441406 45.253906 10.453125 45.339844 10.511719 C 45.425781 10.574219 45.464844 10.65625 45.457031 10.761719 Z M 45.457031 10.761719 " fill-opacity="1" fill-rule="nonzero"/><path fill="#fffbea" d="M 56.152344 7.566406 L 143.855469 7.566406 C 144.257812 7.566406 144.652344 7.605469 145.046875 7.683594 C 145.441406 7.761719 145.824219 7.878906 146.191406 8.03125 C 146.5625 8.183594 146.914062 8.375 147.25 8.597656 C 147.582031 8.820312 147.890625 9.074219 148.175781 9.355469 C 148.457031 9.640625 148.710938 9.949219 148.933594 10.28125 C 149.15625 10.613281 149.34375 10.96875 149.5 11.335938 C 149.652344 11.707031 149.769531 12.089844 149.847656 12.484375 C 149.925781 12.878906 149.964844 13.273438 149.964844 13.675781 L 149.964844 13.679688 C 149.964844 14.082031 149.925781 14.476562 149.847656 14.871094 C 149.769531 15.265625 149.652344 15.644531 149.5 16.015625 C 149.34375 16.386719 149.15625 16.738281 148.933594 17.074219 C 148.710938 17.40625 148.457031 17.714844 148.175781 18 C 147.890625 18.28125 147.582031 18.535156 147.25 18.757812 C 146.914062 18.980469 146.5625 19.167969 146.191406 19.324219 C 145.824219 19.476562 145.441406 19.589844 145.046875 19.671875 C 144.652344 19.75 144.257812 19.789062 143.855469 19.789062 L 56.152344 19.789062 C 55.75 19.789062 55.351562 19.75 54.960938 19.671875 C 54.566406 19.589844 54.183594 19.476562 53.8125 19.324219 C 53.441406 19.167969 53.089844 18.980469 52.757812 18.757812 C 52.421875 18.535156 52.113281 18.28125 51.832031 18 C 51.546875 17.714844 51.292969 17.40625 51.070312 17.074219 C 50.847656 16.738281 50.660156 16.386719 50.507812 16.015625 C 50.355469 15.644531 50.238281 15.265625 50.160156 14.871094 C 50.082031 14.476562 50.042969 14.082031 50.042969 13.679688 L 50.042969 13.675781 C 50.042969 13.273438 50.082031 12.878906 50.160156 12.484375 C 50.238281 12.089844 50.355469 11.707031 50.507812 11.335938 C 50.660156 10.96875 50.847656 10.613281 51.070312 10.28125 C 51.292969 9.949219 51.546875 9.640625 51.832031 9.355469 C 52.113281 9.074219 52.421875 8.820312 52.757812 8.597656 C 53.089844 8.375 53.441406 8.183594 53.8125 8.03125 C 54.183594 7.878906 54.566406 7.761719 54.960938 7.683594 C 55.351562 7.605469 55.75 7.566406 56.152344 7.566406 Z M 56.152344 7.566406 " fill-opacity="1" fill-rule="nonzero"/><path fill="#151515" d="M 143.855469 20.15625 L 56.15625 20.15625 C 55.722656 20.167969 55.292969 20.136719 54.867188 20.058594 C 54.441406 19.984375 54.027344 19.867188 53.625 19.710938 C 53.226562 19.550781 52.84375 19.355469 52.480469 19.121094 C 52.117188 18.886719 51.78125 18.617188 51.472656 18.316406 C 51.164062 18.011719 50.886719 17.683594 50.644531 17.328125 C 50.398438 16.96875 50.195312 16.589844 50.027344 16.191406 C 49.859375 15.796875 49.730469 15.382812 49.644531 14.960938 C 49.5625 14.535156 49.519531 14.109375 49.519531 13.675781 C 49.519531 13.246094 49.5625 12.816406 49.644531 12.394531 C 49.730469 11.96875 49.859375 11.558594 50.027344 11.160156 C 50.195312 10.761719 50.398438 10.386719 50.644531 10.027344 C 50.886719 9.671875 51.164062 9.339844 51.472656 9.039062 C 51.78125 8.738281 52.117188 8.46875 52.480469 8.234375 C 52.84375 8 53.226562 7.804688 53.625 7.644531 C 54.027344 7.488281 54.441406 7.371094 54.867188 7.296875 C 55.292969 7.21875 55.722656 7.1875 56.15625 7.199219 L 143.855469 7.199219 C 144.273438 7.207031 144.6875 7.257812 145.097656 7.347656 C 145.507812 7.4375 145.902344 7.566406 146.289062 7.734375 C 146.671875 7.902344 147.035156 8.105469 147.382812 8.34375 C 147.726562 8.582031 148.046875 8.847656 148.339844 9.148438 C 148.632812 9.449219 148.894531 9.773438 149.121094 10.125 C 149.351562 10.476562 149.546875 10.84375 149.703125 11.234375 C 149.863281 11.621094 149.980469 12.019531 150.0625 12.429688 C 150.140625 12.84375 150.183594 13.257812 150.183594 13.675781 C 150.183594 14.097656 150.140625 14.511719 150.0625 14.921875 C 149.980469 15.332031 149.863281 15.734375 149.703125 16.121094 C 149.546875 16.511719 149.351562 16.878906 149.121094 17.230469 C 148.894531 17.582031 148.632812 17.90625 148.339844 18.207031 C 148.046875 18.503906 147.726562 18.773438 147.382812 19.011719 C 147.039062 19.25 146.671875 19.453125 146.289062 19.621094 C 145.902344 19.789062 145.507812 19.917969 145.097656 20.007812 C 144.6875 20.097656 144.273438 20.148438 143.855469 20.15625 Z M 56.15625 7.9375 C 55.769531 7.925781 55.390625 7.957031 55.015625 8.023438 C 54.636719 8.089844 54.269531 8.191406 53.914062 8.332031 C 53.554688 8.472656 53.214844 8.644531 52.894531 8.851562 C 52.574219 9.058594 52.273438 9.296875 52 9.566406 C 51.726562 9.832031 51.480469 10.125 51.265625 10.441406 C 51.046875 10.757812 50.867188 11.09375 50.71875 11.445312 C 50.570312 11.800781 50.457031 12.164062 50.378906 12.539062 C 50.304688 12.914062 50.265625 13.292969 50.265625 13.675781 C 50.265625 14.058594 50.304688 14.441406 50.378906 14.816406 C 50.457031 15.191406 50.570312 15.554688 50.71875 15.910156 C 50.867188 16.261719 51.046875 16.597656 51.265625 16.914062 C 51.480469 17.230469 51.726562 17.519531 52 17.789062 C 52.273438 18.054688 52.574219 18.292969 52.894531 18.5 C 53.214844 18.710938 53.554688 18.882812 53.914062 19.023438 C 54.269531 19.164062 54.636719 19.265625 55.015625 19.332031 C 55.390625 19.398438 55.769531 19.425781 56.15625 19.417969 L 143.855469 19.417969 C 144.226562 19.40625 144.59375 19.363281 144.953125 19.28125 C 145.316406 19.203125 145.667969 19.089844 146.007812 18.941406 C 146.347656 18.792969 146.671875 18.613281 146.976562 18.402344 C 147.28125 18.191406 147.5625 17.953125 147.820312 17.6875 C 148.082031 17.421875 148.3125 17.132812 148.515625 16.820312 C 148.71875 16.511719 148.890625 16.183594 149.027344 15.839844 C 149.167969 15.496094 149.273438 15.144531 149.34375 14.78125 C 149.417969 14.414062 149.453125 14.046875 149.453125 13.675781 C 149.453125 13.304688 149.417969 12.9375 149.34375 12.574219 C 149.273438 12.210938 149.167969 11.855469 149.027344 11.511719 C 148.890625 11.167969 148.71875 10.84375 148.515625 10.53125 C 148.3125 10.222656 148.082031 9.933594 147.820312 9.667969 C 147.5625 9.402344 147.28125 9.164062 146.976562 8.953125 C 146.671875 8.742188 146.347656 8.5625 146.007812 8.414062 C 145.667969 8.265625 145.316406 8.152344 144.953125 8.070312 C 144.59375 7.992188 144.226562 7.945312 143.855469 7.9375 Z M 56.15625 7.9375 " fill-opacity="1" fill-rule="nonzero"/><path fill="#151515" d="M 170.078125 10.609375 C 170.078125 10.855469 169.992188 11.066406 169.816406 11.238281 C 169.644531 11.414062 169.433594 11.5 169.1875 11.5 C 168.941406 11.5 168.730469 11.414062 168.558594 11.238281 C 168.382812 11.066406 168.296875 10.855469 168.296875 10.609375 C 168.296875 10.363281 168.382812 10.152344 168.558594 9.980469 C 168.730469 9.804688 168.941406 9.71875 169.1875 9.71875 C 169.433594 9.71875 169.644531 9.804688 169.816406 9.980469 C 169.992188 10.152344 170.078125 10.363281 170.078125 10.609375 Z M 170.078125 10.609375 " fill-opacity="1" fill-rule="nonzero"/><path fill="#151515" d="M 170.078125 13.699219 C 170.078125 13.945312 169.992188 14.152344 169.816406 14.328125 C 169.644531 14.5 169.433594 14.589844 169.1875 14.589844 C 168.941406 14.589844 168.730469 14.5 168.558594 14.328125 C 168.382812 14.152344 168.296875 13.945312 168.296875 13.699219 C 168.296875 13.453125 168.382812 13.242188 168.558594 13.066406 C 168.730469 12.894531 168.941406 12.804688 169.1875 12.804688 C 169.433594 12.804688 169.644531 12.894531 169.816406 13.066406 C 169.992188 13.242188 170.078125 13.453125 170.078125 13.699219 Z M 170.078125 13.699219 " fill-opacity="1" fill-rule="nonzero"/><path fill="#151515" d="M 170.078125 16.746094 C 170.078125 16.992188 169.992188 17.199219 169.816406 17.375 C 169.644531 17.546875 169.433594 17.636719 169.1875 17.636719 C 168.941406 17.636719 168.730469 17.546875 168.558594 17.375 C 168.382812 17.199219 168.296875 16.992188 168.296875 16.746094 C 168.296875 16.5 168.382812 16.289062 168.558594 16.113281 C 168.730469 15.941406 168.941406 15.851562 169.1875 15.851562 C 169.433594 15.851562 169.644531 15.941406 169.816406 16.113281 C 169.992188 16.289062 170.078125 16.5 170.078125 16.746094 Z M 170.078125 16.746094 " fill-opacity="1" fill-rule="nonzero"/><path fill="#151515" d="M 157.730469 18.78125 C 157.351562 18.78125 156.980469 18.742188 156.613281 18.660156 C 156.242188 18.578125 155.890625 18.457031 155.546875 18.292969 C 155.207031 18.132812 154.886719 17.9375 154.589844 17.707031 C 154.292969 17.472656 154.027344 17.210938 153.785156 16.921875 C 153.546875 16.628906 153.34375 16.316406 153.175781 15.976562 C 153.003906 15.640625 152.875 15.289062 152.785156 14.921875 C 152.691406 14.558594 152.640625 14.1875 152.632812 13.808594 C 152.625 13.433594 152.65625 13.058594 152.734375 12.691406 C 152.808594 12.320312 152.921875 11.964844 153.074219 11.621094 C 153.226562 11.273438 153.417969 10.953125 153.644531 10.648438 C 153.867188 10.347656 154.125 10.074219 154.410156 9.828125 C 154.699219 9.582031 155.007812 9.371094 155.339844 9.195312 C 155.675781 9.019531 156.023438 8.882812 156.386719 8.785156 C 156.75 8.683594 157.121094 8.628906 157.496094 8.609375 C 157.875 8.59375 158.246094 8.621094 158.617188 8.6875 C 158.988281 8.753906 159.347656 8.859375 159.695312 9.003906 C 160.042969 9.152344 160.371094 9.335938 160.675781 9.554688 C 160.984375 9.773438 161.261719 10.023438 161.515625 10.304688 C 161.765625 10.585938 161.984375 10.890625 162.167969 11.21875 C 162.347656 11.550781 162.496094 11.894531 162.601562 12.257812 C 162.707031 12.617188 162.773438 12.988281 162.796875 13.363281 C 162.820312 13.738281 162.804688 14.113281 162.746094 14.484375 C 162.6875 14.859375 162.589844 15.21875 162.449219 15.570312 C 162.308594 15.921875 162.132812 16.25 161.921875 16.5625 C 161.449219 17.257812 160.84375 17.800781 160.101562 18.195312 C 159.359375 18.585938 158.570312 18.78125 157.730469 18.78125 Z M 157.730469 9.347656 C 157.542969 9.347656 157.355469 9.359375 157.171875 9.382812 C 156.984375 9.40625 156.804688 9.441406 156.621094 9.488281 C 156.441406 9.539062 156.265625 9.597656 156.09375 9.664062 C 155.917969 9.734375 155.75 9.816406 155.589844 9.90625 C 155.425781 10 155.269531 10.101562 155.121094 10.210938 C 154.96875 10.324219 154.828125 10.445312 154.695312 10.574219 C 154.558594 10.703125 154.433594 10.84375 154.320312 10.988281 C 154.203125 11.132812 154.097656 11.289062 154 11.449219 C 153.902344 11.605469 153.816406 11.773438 153.742188 11.941406 C 153.667969 12.113281 153.601562 12.289062 153.550781 12.46875 C 153.496094 12.648438 153.457031 12.828125 153.425781 13.011719 C 153.398438 13.199219 153.378906 13.382812 153.375 13.570312 C 153.367188 13.757812 153.375 13.941406 153.394531 14.128906 C 153.410156 14.3125 153.441406 14.496094 153.484375 14.679688 C 153.527344 14.859375 153.582031 15.039062 153.644531 15.214844 C 153.710938 15.390625 153.785156 15.558594 153.875 15.722656 C 153.960938 15.890625 154.058594 16.046875 154.164062 16.199219 C 154.273438 16.355469 154.390625 16.5 154.515625 16.636719 C 154.640625 16.773438 154.777344 16.902344 154.917969 17.023438 C 155.0625 17.144531 155.210938 17.253906 155.367188 17.355469 C 155.527344 17.457031 155.6875 17.546875 155.855469 17.625 C 156.027344 17.707031 156.199219 17.773438 156.375 17.832031 C 156.554688 17.890625 156.734375 17.9375 156.917969 17.972656 C 157.101562 18.003906 157.285156 18.027344 157.472656 18.039062 C 157.660156 18.050781 157.84375 18.046875 158.03125 18.035156 C 158.21875 18.019531 158.402344 17.996094 158.585938 17.957031 C 158.769531 17.921875 158.949219 17.875 159.125 17.8125 C 159.300781 17.753906 159.472656 17.679688 159.640625 17.597656 C 159.808594 17.515625 159.96875 17.421875 160.125 17.320312 C 160.28125 17.21875 160.429688 17.105469 160.570312 16.980469 C 160.710938 16.859375 160.84375 16.730469 160.96875 16.589844 C 161.089844 16.449219 161.207031 16.304688 161.3125 16.148438 C 161.824219 15.410156 162.078125 14.59375 162.074219 13.695312 C 162.074219 13.410156 162.046875 13.125 161.988281 12.847656 C 161.933594 12.566406 161.851562 12.296875 161.742188 12.03125 C 161.632812 11.769531 161.5 11.519531 161.339844 11.28125 C 161.179688 11.042969 161 10.824219 160.800781 10.621094 C 160.597656 10.421875 160.378906 10.242188 160.140625 10.082031 C 159.90625 9.925781 159.652344 9.789062 159.390625 9.679688 C 159.128906 9.570312 158.855469 9.488281 158.574219 9.433594 C 158.296875 9.378906 158.015625 9.347656 157.730469 9.347656 Z M 157.730469 9.347656 " fill-opacity="1" fill-rule="nonzero"/><path fill="#151515" d="M 157.730469 18.78125 L 157.730469 18.042969 C 158.375 18.042969 158.992188 17.902344 159.578125 17.628906 C 160.164062 17.351562 160.664062 16.964844 161.074219 16.464844 C 158.675781 15.085938 156.269531 15.085938 153.871094 16.464844 L 153.503906 15.824219 C 155.394531 14.734375 158.375 13.890625 161.816406 16.054688 L 162.140625 16.261719 L 161.921875 16.574219 C 161.449219 17.265625 160.839844 17.804688 160.097656 18.195312 C 159.355469 18.585938 158.566406 18.78125 157.730469 18.78125 Z M 157.730469 18.78125 " fill-opacity="1" fill-rule="nonzero"/><path fill="#151515" d="M 157.730469 15.4375 C 157.433594 15.441406 157.148438 15.386719 156.878906 15.277344 C 156.605469 15.164062 156.363281 15.007812 156.152344 14.800781 C 155.941406 14.59375 155.78125 14.355469 155.667969 14.082031 C 155.550781 13.8125 155.492188 13.527344 155.492188 13.234375 C 155.488281 12.9375 155.546875 12.65625 155.65625 12.382812 C 155.769531 12.109375 155.925781 11.867188 156.136719 11.660156 C 156.34375 11.449219 156.582031 11.289062 156.855469 11.175781 C 157.125 11.058594 157.410156 11.003906 157.703125 11.003906 C 158 11 158.28125 11.058594 158.554688 11.167969 C 158.828125 11.28125 159.066406 11.441406 159.277344 11.648438 C 159.484375 11.859375 159.644531 12.097656 159.757812 12.371094 C 159.871094 12.640625 159.929688 12.925781 159.929688 13.21875 C 159.929688 13.511719 159.875 13.792969 159.761719 14.066406 C 159.648438 14.335938 159.492188 14.574219 159.285156 14.78125 C 159.078125 14.992188 158.839844 15.152344 158.570312 15.265625 C 158.300781 15.378906 158.019531 15.4375 157.730469 15.4375 Z M 157.730469 11.773438 C 157.53125 11.773438 157.34375 11.808594 157.160156 11.882812 C 156.976562 11.953125 156.816406 12.058594 156.675781 12.195312 C 156.535156 12.335938 156.425781 12.492188 156.347656 12.675781 C 156.273438 12.855469 156.234375 13.042969 156.230469 13.242188 C 156.230469 13.4375 156.265625 13.628906 156.339844 13.808594 C 156.414062 13.992188 156.519531 14.152344 156.65625 14.292969 C 156.796875 14.433594 156.957031 14.539062 157.136719 14.617188 C 157.320312 14.691406 157.507812 14.730469 157.703125 14.734375 C 157.902344 14.734375 158.089844 14.695312 158.273438 14.621094 C 158.453125 14.546875 158.613281 14.441406 158.753906 14.300781 C 158.894531 14.164062 159 14.003906 159.074219 13.820312 C 159.152344 13.640625 159.1875 13.449219 159.1875 13.253906 C 159.1875 13.058594 159.152344 12.871094 159.078125 12.691406 C 159.003906 12.511719 158.898438 12.351562 158.761719 12.214844 C 158.625 12.074219 158.46875 11.96875 158.289062 11.894531 C 158.109375 11.816406 157.921875 11.777344 157.730469 11.773438 Z M 157.730469 11.773438 " fill-opacity="1" fill-rule="nonzero"/><path fill="#151515" d="M 57.691406 17.082031 L 55.949219 17.082031 C 55.667969 17.082031 55.398438 17.027344 55.140625 16.921875 C 54.882812 16.8125 54.65625 16.660156 54.460938 16.464844 C 54.261719 16.265625 54.109375 16.039062 54.003906 15.78125 C 53.898438 15.523438 53.84375 15.253906 53.84375 14.976562 L 53.84375 13.296875 C 53.84375 13.019531 53.898438 12.75 54.003906 12.496094 C 54.113281 12.238281 54.265625 12.011719 54.460938 11.8125 C 54.65625 11.617188 54.886719 11.464844 55.144531 11.359375 C 55.402344 11.25 55.667969 11.199219 55.949219 11.199219 L 57.691406 11.199219 C 57.972656 11.199219 58.238281 11.25 58.496094 11.359375 C 58.753906 11.464844 58.980469 11.617188 59.179688 11.8125 C 59.375 12.007812 59.527344 12.238281 59.636719 12.496094 C 59.742188 12.75 59.796875 13.019531 59.796875 13.296875 L 59.796875 14.976562 C 59.796875 15.253906 59.742188 15.523438 59.636719 15.78125 C 59.53125 16.039062 59.378906 16.265625 59.179688 16.464844 C 58.984375 16.660156 58.753906 16.8125 58.496094 16.921875 C 58.238281 17.027344 57.972656 17.082031 57.691406 17.082031 Z M 55.949219 11.9375 C 55.765625 11.9375 55.59375 11.972656 55.425781 12.039062 C 55.257812 12.109375 55.113281 12.207031 54.984375 12.335938 C 54.855469 12.464844 54.757812 12.609375 54.6875 12.777344 C 54.617188 12.945312 54.582031 13.117188 54.582031 13.296875 L 54.582031 14.976562 C 54.582031 15.15625 54.617188 15.332031 54.6875 15.5 C 54.757812 15.667969 54.855469 15.8125 54.984375 15.941406 C 55.109375 16.070312 55.257812 16.167969 55.425781 16.238281 C 55.59375 16.304688 55.765625 16.339844 55.949219 16.339844 L 57.691406 16.339844 C 57.875 16.339844 58.046875 16.304688 58.214844 16.238281 C 58.382812 16.167969 58.53125 16.070312 58.65625 15.941406 C 58.785156 15.8125 58.882812 15.667969 58.953125 15.5 C 59.023438 15.332031 59.058594 15.15625 59.058594 14.976562 L 59.058594 13.296875 C 59.054688 13.117188 59.019531 12.945312 58.953125 12.777344 C 58.882812 12.609375 58.785156 12.464844 58.65625 12.335938 C 58.527344 12.207031 58.378906 12.109375 58.214844 12.039062 C 58.046875 11.972656 57.875 11.9375 57.691406 11.9375 Z M 55.949219 11.9375 " fill-opacity="1" fill-rule="nonzero"/><path fill="#151515" d="M 58.515625 11.949219 C 58.414062 11.949219 58.328125 11.914062 58.253906 11.839844 C 58.183594 11.769531 58.148438 11.679688 58.148438 11.578125 L 58.148438 11.042969 C 58.132812 10.785156 58.019531 10.582031 57.808594 10.433594 C 57.527344 10.226562 57.214844 10.128906 56.867188 10.132812 C 56.171875 10.132812 55.585938 10.550781 55.585938 11.042969 L 55.585938 11.566406 C 55.585938 11.667969 55.550781 11.757812 55.476562 11.828125 C 55.40625 11.902344 55.316406 11.9375 55.214844 11.9375 C 55.113281 11.9375 55.027344 11.902344 54.953125 11.828125 C 54.882812 11.757812 54.84375 11.667969 54.84375 11.566406 L 54.84375 11.042969 C 54.84375 10.132812 55.75 9.394531 56.867188 9.394531 C 57.382812 9.386719 57.847656 9.539062 58.257812 9.847656 C 58.667969 10.140625 58.878906 10.539062 58.886719 11.042969 L 58.886719 11.578125 C 58.886719 11.679688 58.851562 11.769531 58.777344 11.839844 C 58.707031 11.914062 58.621094 11.949219 58.515625 11.949219 Z M 58.515625 11.949219 " fill-opacity="1" fill-rule="nonzero"/><path fill="#151515" d="M 22.453125 13.789062 L 14.84375 13.789062 C 14.738281 13.789062 14.652344 13.753906 14.582031 13.679688 C 14.507812 13.609375 14.472656 13.523438 14.472656 13.421875 C 14.472656 13.316406 14.507812 13.230469 14.582031 13.160156 C 14.652344 13.085938 14.738281 13.050781 14.84375 13.050781 L 22.453125 13.050781 C 22.554688 13.050781 22.640625 13.085938 22.714844 13.160156 C 22.785156 13.230469 22.820312 13.316406 22.820312 13.421875 C 22.820312 13.523438 22.785156 13.609375 22.714844 13.679688 C 22.640625 13.753906 22.554688 13.789062 22.453125 13.789062 Z M 22.453125 13.789062 " fill-opacity="1" fill-rule="nonzero"/><path fill="#151515" d="M 17.652344 16.746094 C 17.5625 16.746094 17.484375 16.714844 17.414062 16.660156 L 13.871094 13.703125 C 13.777344 13.621094 13.734375 13.523438 13.738281 13.398438 C 13.746094 13.277344 13.796875 13.183594 13.898438 13.113281 L 17.441406 10.671875 C 17.523438 10.609375 17.621094 10.582031 17.722656 10.601562 C 17.828125 10.617188 17.910156 10.667969 17.972656 10.753906 C 18.03125 10.839844 18.050781 10.9375 18.03125 11.039062 C 18.007812 11.144531 17.953125 11.222656 17.863281 11.28125 L 14.71875 13.457031 L 17.890625 16.097656 C 17.96875 16.164062 18.011719 16.246094 18.019531 16.347656 C 18.03125 16.449219 18.003906 16.539062 17.9375 16.617188 C 17.863281 16.703125 17.765625 16.746094 17.652344 16.746094 Z M 17.652344 16.746094 " fill-opacity="1" fill-rule="nonzero"/></svg>