<svg xmlns="http://www.w3.org/2000/svg" xmlns:xlink="http://www.w3.org/1999/xlink" width="500" zoomAndPan="magnify" viewBox="0 0 375 374.999991" height="500" preserveAspectRatio="xMidYMid meet" version="1.0"><defs><clipPath id="1db6e0d6e8"><path d="M 146 115.089844 L 240 115.089844 L 240 226 L 146 226 Z M 146 115.089844 " clip-rule="nonzero"/></clipPath><clipPath id="535083793c"><path d="M 146 115.089844 L 233 115.089844 L 233 223 L 146 223 Z M 146 115.089844 " clip-rule="nonzero"/></clipPath><clipPath id="946d65aab4"><path d="M 114 162 L 272 162 L 272 268.839844 L 114 268.839844 Z M 114 162 " clip-rule="nonzero"/></clipPath></defs><g clip-path="url(#1db6e0d6e8)"><path fill="#238ed5" d="M 208.0625 115.640625 C 208.316406 115.601562 208.574219 115.5625 208.828125 115.519531 C 211.640625 115.09375 214.78125 117.109375 215.792969 119.957031 C 221.136719 134.980469 225.832031 150.246094 229.988281 165.636719 C 233.097656 177.148438 235.648438 188.757812 238.328125 200.375 C 239.445312 205.230469 240.414062 209.84375 234.851562 212.367188 C 232.082031 213.628906 228.609375 214.175781 226.183594 214.855469 C 220.542969 216.4375 214.859375 217.882812 209.140625 219.152344 C 197.867188 221.648438 186.644531 224.078125 174.601562 225.644531 C 170.535156 226.171875 164.105469 225.863281 161.460938 222.167969 C 161.457031 222.167969 161.453125 222.167969 161.449219 222.171875 C 161.066406 221.636719 160.773438 220.996094 160.578125 220.238281 C 153.863281 193.375 149.007812 166.042969 146.03125 138.238281 C 145.738281 135.398438 147.675781 132.1875 150.347656 131.148438 C 169.109375 123.882812 188.339844 118.71875 208.054688 115.648438 " fill-opacity="1" fill-rule="nonzero"/></g><g clip-path="url(#535083793c)"><path fill="#f46bbd" d="M 231.699219 202.894531 C 230.523438 206.902344 226.847656 207.269531 222.644531 208.757812 C 218.53125 210.214844 214.257812 211.152344 210.011719 212.128906 C 202.726562 213.808594 195.335938 214.953125 188.015625 216.46875 C 178.855469 218.359375 170.570312 220.429688 161.449219 222.171875 C 161.066406 221.636719 160.773438 220.996094 160.578125 220.238281 C 153.863281 193.375 149.007812 166.042969 146.03125 138.238281 C 145.738281 135.398438 147.675781 132.1875 150.347656 131.148438 C 169.109375 123.882812 188.339844 118.71875 208.054688 115.648438 C 213.730469 130.324219 218.667969 145.277344 222.855469 160.4375 C 224.664062 166.96875 226.160156 173.582031 227.765625 180.164062 C 228.671875 183.867188 229.714844 187.539062 230.722656 191.210938 C 231.636719 194.5 232.703125 199.464844 231.699219 202.894531 Z M 161.511719 153.828125 C 162.234375 155.480469 163.3125 157.113281 164.988281 157.792969 C 167.605469 158.851562 170.742188 157.507812 173.335938 156.953125 C 182.242188 155.050781 190.753906 151.449219 199.367188 148.566406 C 200.480469 148.191406 201.613281 147.8125 202.574219 147.136719 C 204.144531 146.035156 204.714844 144.191406 204.679688 142.347656 C 204.59375 137.785156 204.0625 129.128906 198.195312 128.179688 C 196.46875 127.894531 194.707031 128.289062 193 128.6875 C 184.265625 130.710938 175.6875 133.382812 167.085938 135.890625 C 163.25 137.007812 161.148438 139.789062 160.339844 143.101562 C 159.511719 146.523438 160.0625 150.511719 161.511719 153.828125 Z M 161.511719 153.828125 " fill-opacity="1" fill-rule="nonzero"/></g><g clip-path="url(#946d65aab4)"><path fill="#008c53" d="M 271.285156 203.753906 C 268.800781 216.070312 265.921875 228.300781 262.664062 240.433594 C 261.03125 246.5 259.304688 252.539062 257.488281 258.554688 C 256.390625 262.175781 255.738281 266.742188 251.769531 268.328125 C 250.449219 268.851562 249.011719 268.761719 247.582031 268.476562 C 246.253906 268.214844 244.929688 267.785156 243.699219 267.527344 C 232.46875 265.167969 221.230469 262.828125 209.992188 260.488281 C 204.957031 259.433594 199.925781 258.359375 194.871094 257.410156 C 191.519531 256.78125 187.429688 255.804688 186.628906 251.9375 C 186.550781 251.546875 186.527344 251.15625 186.53125 250.765625 C 186.53125 250.765625 186.535156 250.765625 186.535156 250.765625 C 186.542969 250.003906 186.667969 249.246094 186.796875 248.496094 C 188.453125 238.679688 190.113281 228.878906 192.1875 219.144531 C 194.332031 209.089844 197.308594 199.289062 199.726562 189.316406 C 200.496094 186.714844 200.996094 182.722656 202.75 180.648438 C 206.027344 176.78125 211.707031 178.070312 216.09375 178.472656 C 221.554688 178.980469 226.992188 179.796875 232.359375 180.925781 C 244.265625 183.425781 255.78125 187.507812 266.726562 192.789062 C 267.261719 193.046875 267.746094 193.332031 268.183594 193.644531 C 268.183594 193.644531 268.183594 193.644531 268.183594 193.640625 C 271.46875 195.980469 272.101562 199.742188 271.285156 203.753906 Z M 183.214844 250.039062 C 183 250.363281 182.757812 250.671875 182.484375 250.960938 C 181.074219 252.472656 179.03125 252.953125 177.03125 252.824219 C 176.425781 252.785156 175.820312 252.726562 175.21875 252.65625 C 173.699219 252.476562 172.195312 252.195312 170.714844 251.816406 C 168.628906 251.273438 166.625 250.511719 164.558594 249.9375 C 159.652344 248.582031 154.695312 247.4375 149.753906 246.226562 C 144.351562 244.90625 138.941406 243.632812 133.523438 242.386719 C 128.679688 241.273438 122.21875 240.875 117.867188 238.398438 C 112.652344 235.4375 114.949219 228.855469 115.597656 224.085938 C 116.457031 217.738281 117.449219 211.410156 118.578125 205.105469 C 120.832031 192.488281 123.628906 179.960938 127.050781 167.601562 C 127.726562 165.175781 129.609375 163.832031 131.820312 163.105469 C 133.828125 162.449219 136.097656 162.304688 137.984375 162.320312 C 149.214844 162.425781 160.445312 163.710938 171.375 166.304688 C 176.90625 167.617188 182.359375 169.261719 187.6875 171.25 C 191.96875 172.84375 197.121094 174.414062 198.125 179.542969 C 199.546875 186.769531 196.308594 195.507812 194.867188 202.578125 C 193.230469 210.589844 191.464844 218.621094 189.519531 226.558594 C 188.09375 232.367188 187.757812 238.40625 185.625 244.058594 C 184.878906 246.027344 184.40625 248.257812 183.214844 250.039062 " fill-opacity="1" fill-rule="nonzero"/></g><path fill="#f7de46" d="M 185.625 244.058594 C 184.878906 246.027344 184.40625 248.257812 183.214844 250.039062 C 181.949219 249.703125 164.105469 244.976562 154.25 242.601562 C 151.890625 242.03125 149.53125 241.484375 147.167969 240.917969 C 139.265625 239.039062 130.628906 237.523438 123.253906 234 C 122.394531 233.589844 121.535156 233.125 120.875 232.433594 C 119.699219 231.191406 119.765625 229.449219 119.996094 227.871094 C 122.945312 207.792969 126.804688 187.878906 130.824219 167.992188 C 131.152344 166.367188 131.484375 164.734375 131.816406 163.109375 C 133.820312 162.449219 136.09375 162.304688 137.984375 162.320312 C 149.214844 162.425781 160.445312 163.710938 171.375 166.304688 C 176.90625 167.617188 182.359375 169.261719 187.6875 171.25 C 191.96875 172.84375 197.121094 174.414062 198.125 179.542969 C 199.546875 186.769531 196.308594 195.507812 194.867188 202.578125 C 193.230469 210.589844 191.464844 218.621094 189.519531 226.558594 C 188.09375 232.367188 187.757812 238.40625 185.625 244.058594 Z M 255.550781 246.011719 C 254.664062 249.503906 253.730469 252.988281 252.730469 256.449219 C 251.84375 259.511719 250.472656 262.683594 246.976562 263.21875 C 243.734375 263.710938 240.304688 262.3125 237.167969 261.683594 C 220.386719 258.296875 203.789062 254.132812 186.535156 250.765625 C 186.542969 250.007812 186.667969 249.246094 186.796875 248.496094 C 188.453125 238.679688 190.113281 228.878906 192.1875 219.144531 C 194.332031 209.089844 197.308594 199.289062 199.726562 189.316406 C 200.496094 186.714844 200.996094 182.722656 202.75 180.648438 C 206.027344 176.78125 211.707031 178.070312 216.09375 178.472656 C 221.554688 178.980469 226.992188 179.796875 232.359375 180.925781 C 244.265625 183.425781 255.78125 187.507812 266.726562 192.789062 C 267.265625 193.046875 267.753906 193.335938 268.191406 193.648438 C 264.140625 211.140625 259.96875 228.609375 255.550781 246.011719 Z M 255.550781 246.011719 " fill-opacity="1" fill-rule="nonzero"/><path fill="#1d1d1b" d="M 146.011719 141.144531 C 145.984375 141.144531 145.953125 141.144531 145.925781 141.144531 C 143.339844 140.875 141.480469 139.386719 141.410156 137.519531 C 141.320312 135.34375 143.664062 133.542969 146.734375 133.421875 C 149.808594 133.300781 152.285156 134.90625 152.375 137.082031 C 152.394531 137.523438 152.050781 137.902344 151.605469 137.917969 C 151.164062 137.933594 150.785156 137.589844 150.769531 137.148438 C 150.71875 135.914062 148.902344 134.949219 146.800781 135.027344 C 144.703125 135.109375 142.972656 136.222656 143.019531 137.457031 C 143.0625 138.46875 144.378906 139.371094 146.09375 139.546875 C 146.535156 139.59375 146.859375 139.984375 146.8125 140.425781 C 146.765625 140.839844 146.417969 141.144531 146.011719 141.144531 Z M 147.570312 151.519531 C 148.011719 151.484375 148.34375 151.09375 148.304688 150.652344 C 148.269531 150.210938 147.878906 149.878906 147.433594 149.917969 C 145.527344 150.078125 143.871094 149.332031 143.667969 148.21875 C 143.4375 146.953125 145.058594 145.546875 147.210938 145.15625 C 148.3125 144.957031 149.433594 145.046875 150.285156 145.40625 C 150.71875 145.59375 151.46875 146.011719 151.609375 146.773438 C 151.6875 147.210938 152.105469 147.5 152.546875 147.417969 C 152.984375 147.339844 153.273438 146.921875 153.195312 146.484375 C 152.992188 145.375 152.179688 144.464844 150.914062 143.929688 C 149.761719 143.441406 148.34375 143.316406 146.921875 143.574219 C 143.808594 144.144531 141.683594 146.308594 142.085938 148.507812 C 142.417969 150.332031 144.394531 151.550781 146.90625 151.550781 C 147.117188 151.550781 147.34375 151.539062 147.570312 151.519531 Z M 149.105469 161.800781 C 149.535156 161.691406 149.800781 161.257812 149.695312 160.828125 C 149.585938 160.398438 149.148438 160.132812 148.71875 160.238281 C 146.632812 160.757812 144.699219 160.210938 144.304688 158.996094 C 143.882812 157.6875 145.398438 155.980469 147.605469 155.273438 C 148.746094 154.90625 149.90625 154.851562 150.867188 155.121094 C 151.351562 155.257812 152.207031 155.605469 152.457031 156.390625 C 152.59375 156.816406 153.046875 157.046875 153.472656 156.914062 C 153.898438 156.777344 154.128906 156.328125 153.996094 155.902344 C 153.636719 154.785156 152.679688 153.960938 151.300781 153.574219 C 150.039062 153.222656 148.550781 153.28125 147.109375 153.742188 C 143.964844 154.753906 142.058594 157.277344 142.769531 159.488281 C 143.285156 161.085938 145.046875 162.042969 147.195312 162.042969 C 147.808594 162.039062 148.449219 161.960938 149.105469 161.800781 Z M 224.152344 155.476562 C 224.585938 155.371094 224.851562 154.9375 224.75 154.507812 C 224.605469 153.914062 224.414062 153.332031 224.210938 152.71875 C 224.050781 152.238281 223.886719 151.742188 223.746094 151.234375 C 223.621094 150.785156 223.527344 150.308594 223.429688 149.800781 C 223.304688 149.1875 223.179688 148.550781 222.988281 147.902344 C 222.8125 147.320312 222.566406 146.757812 222.328125 146.21875 C 222.101562 145.710938 221.890625 145.226562 221.730469 144.726562 C 221.582031 144.242188 221.460938 143.746094 221.335938 143.21875 C 221.195312 142.632812 221.050781 142.03125 220.855469 141.433594 C 220.660156 140.832031 220.449219 140.230469 220.238281 139.648438 C 220.070312 139.175781 219.902344 138.699219 219.742188 138.222656 C 219.574219 137.71875 219.425781 137.183594 219.28125 136.671875 C 219.128906 136.109375 218.96875 135.527344 218.773438 134.964844 C 218.566406 134.367188 218.347656 133.78125 218.132812 133.210938 C 217.953125 132.730469 217.773438 132.25 217.605469 131.769531 C 217.367188 131.097656 217.128906 130.4375 216.898438 129.792969 C 216.746094 129.378906 216.601562 128.972656 216.460938 128.574219 C 216.234375 127.949219 215.988281 127.367188 215.746094 126.804688 C 215.535156 126.324219 215.339844 125.863281 215.175781 125.421875 C 214.957031 124.8125 214.773438 124.234375 214.597656 123.667969 C 214.433594 123.144531 214.28125 122.652344 214.113281 122.195312 C 213.730469 121.152344 213.394531 120.335938 213.179688 119.835938 C 212.730469 118.792969 212.546875 118.359375 211.855469 118.542969 C 211.496094 118.746094 211.285156 119.144531 211.332031 119.558594 L 211.347656 119.679688 C 211.351562 119.6875 211.886719 120.804688 212.601562 122.75 C 212.757812 123.164062 212.90625 123.644531 213.0625 124.144531 C 213.234375 124.699219 213.429688 125.324219 213.664062 125.964844 C 213.839844 126.453125 214.046875 126.933594 214.265625 127.4375 C 214.496094 127.972656 214.738281 128.53125 214.941406 129.105469 C 215.085938 129.507812 215.230469 129.917969 215.382812 130.335938 C 215.613281 130.972656 215.847656 131.628906 216.085938 132.296875 C 216.253906 132.785156 216.4375 133.273438 216.621094 133.769531 C 216.832031 134.328125 217.046875 134.90625 217.246094 135.480469 C 217.425781 136 217.570312 136.53125 217.726562 137.09375 C 217.875 137.628906 218.03125 138.183594 218.210938 138.730469 C 218.375 139.214844 218.546875 139.699219 218.71875 140.183594 C 218.925781 140.757812 219.136719 141.351562 219.324219 141.929688 C 219.5 142.464844 219.628906 143.011719 219.765625 143.585938 C 219.890625 144.121094 220.023438 144.671875 220.191406 145.207031 C 220.375 145.789062 220.617188 146.335938 220.851562 146.863281 C 221.082031 147.382812 221.296875 147.875 221.441406 148.359375 C 221.613281 148.933594 221.730469 149.53125 221.847656 150.113281 C 221.949219 150.625 222.054688 151.152344 222.195312 151.660156 C 222.347656 152.207031 222.515625 152.71875 222.683594 153.21875 C 222.875 153.804688 223.058594 154.355469 223.183594 154.878906 C 223.273438 155.25 223.601562 155.496094 223.96875 155.496094 C 224.027344 155.496094 224.089844 155.492188 224.152344 155.476562 Z M 212.3125 120.085938 Z M 226.175781 164.246094 C 226.613281 164.148438 226.882812 163.71875 226.785156 163.289062 C 226.625 162.582031 226.519531 162.230469 226.414062 161.886719 C 226.3125 161.558594 226.21875 161.246094 226.070312 160.597656 C 225.910156 159.886719 225.800781 159.535156 225.691406 159.195312 C 225.59375 158.867188 225.496094 158.558594 225.351562 157.910156 C 225.253906 157.476562 224.820312 157.207031 224.386719 157.304688 C 223.953125 157.402344 223.679688 157.835938 223.777344 158.265625 C 223.9375 158.972656 224.050781 159.328125 224.152344 159.667969 C 224.253906 159.996094 224.351562 160.304688 224.5 160.957031 C 224.660156 161.660156 224.765625 162.011719 224.871094 162.351562 C 224.972656 162.679688 225.066406 162.992188 225.214844 163.644531 C 225.300781 164.019531 225.632812 164.269531 226 164.269531 C 226.058594 164.265625 226.117188 164.261719 226.175781 164.246094 Z M 206.203125 187.308594 C 206.578125 185.769531 206.171875 184.15625 205.066406 182.765625 C 204.003906 181.429688 202.410156 180.449219 200.582031 180.011719 C 196.734375 179.085938 192.988281 180.851562 192.238281 183.945312 C 192.136719 184.375 192.398438 184.808594 192.835938 184.914062 C 193.269531 185.015625 193.703125 184.753906 193.808594 184.320312 C 194.347656 182.089844 197.21875 180.855469 200.203125 181.570312 C 201.6875 181.925781 202.964844 182.703125 203.804688 183.757812 C 204.597656 184.757812 204.890625 185.878906 204.636719 186.925781 C 204.535156 187.355469 204.796875 187.792969 205.230469 187.894531 C 205.296875 187.910156 205.363281 187.917969 205.421875 187.917969 C 205.785156 187.921875 206.113281 187.675781 206.203125 187.308594 Z M 204.179688 197.488281 C 204.554688 196.039062 204.199219 194.511719 203.175781 193.179688 C 202.199219 191.90625 200.714844 190.964844 199 190.523438 C 197.285156 190.078125 195.53125 190.191406 194.054688 190.828125 C 192.511719 191.5 191.457031 192.664062 191.078125 194.113281 C 190.96875 194.542969 191.226562 194.980469 191.65625 195.089844 C 192.089844 195.203125 192.527344 194.945312 192.640625 194.515625 C 192.886719 193.558594 193.617188 192.773438 194.695312 192.304688 C 195.839844 191.804688 197.222656 191.726562 198.59375 192.082031 C 199.960938 192.433594 201.132812 193.171875 201.894531 194.160156 C 202.609375 195.089844 202.867188 196.128906 202.621094 197.085938 C 202.507812 197.519531 202.765625 197.957031 203.199219 198.066406 C 203.269531 198.085938 203.335938 198.09375 203.398438 198.09375 C 203.761719 198.089844 204.085938 197.847656 204.179688 197.488281 Z M 200.140625 207.035156 C 200.523438 205.769531 200.261719 204.40625 199.40625 203.195312 C 198.589844 202.046875 197.324219 201.167969 195.839844 200.726562 C 192.707031 199.785156 189.53125 201.085938 188.765625 203.621094 C 188.636719 204.046875 188.878906 204.496094 189.300781 204.621094 C 189.730469 204.75 190.175781 204.511719 190.304688 204.085938 C 190.816406 202.398438 193.089844 201.582031 195.375 202.265625 C 196.515625 202.609375 197.476562 203.265625 198.085938 204.125 C 198.648438 204.921875 198.832031 205.789062 198.597656 206.570312 C 198.46875 206.996094 198.710938 207.445312 199.132812 207.574219 C 199.214844 207.59375 199.292969 207.609375 199.367188 207.609375 C 199.714844 207.609375 200.039062 207.382812 200.140625 207.035156 Z M 197.636719 216.90625 C 197.972656 215.46875 197.585938 213.96875 196.542969 212.679688 C 195.546875 211.445312 194.0625 210.550781 192.359375 210.152344 C 190.65625 209.757812 188.925781 209.90625 187.484375 210.570312 C 185.976562 211.265625 184.964844 212.445312 184.628906 213.878906 C 184.527344 214.3125 184.792969 214.742188 185.226562 214.84375 C 185.664062 214.945312 186.09375 214.675781 186.199219 214.246094 C 186.417969 213.300781 187.117188 212.511719 188.164062 212.03125 C 189.28125 211.515625 190.640625 211.40625 191.992188 211.71875 C 193.347656 212.035156 194.519531 212.734375 195.289062 213.6875 C 196.015625 214.585938 196.292969 215.597656 196.070312 216.542969 C 195.96875 216.976562 196.238281 217.40625 196.671875 217.507812 C 196.734375 217.523438 196.796875 217.53125 196.859375 217.53125 C 197.21875 217.527344 197.546875 217.277344 197.636719 216.90625 Z M 196.375 227.023438 C 197.007812 223.957031 194.425781 220.820312 190.613281 220.039062 C 186.800781 219.253906 183.183594 221.113281 182.550781 224.179688 C 182.460938 224.613281 182.746094 225.039062 183.179688 225.125 C 183.613281 225.21875 184.042969 224.933594 184.128906 224.5 C 184.582031 222.304688 187.347656 221.007812 190.289062 221.609375 C 193.226562 222.21875 195.25 224.496094 194.796875 226.695312 C 194.703125 227.132812 194.988281 227.554688 195.421875 227.644531 C 195.480469 227.65625 195.53125 227.660156 195.585938 227.660156 C 195.964844 227.664062 196.300781 227.402344 196.375 227.023438 Z M 195.121094 237.355469 C 195.417969 235.75 194.902344 234.109375 193.679688 232.734375 C 192.503906 231.414062 190.800781 230.496094 188.878906 230.148438 C 186.964844 229.796875 185.042969 230.054688 183.476562 230.871094 C 181.84375 231.726562 180.78125 233.082031 180.488281 234.6875 C 180.40625 235.125 180.699219 235.546875 181.136719 235.625 C 181.574219 235.707031 181.996094 235.414062 182.074219 234.976562 C 182.277344 233.867188 183.042969 232.914062 184.226562 232.296875 C 185.476562 231.644531 187.027344 231.445312 188.59375 231.730469 C 190.160156 232.015625 191.539062 232.75 192.476562 233.804688 C 193.363281 234.796875 193.742188 235.960938 193.535156 237.070312 C 193.453125 237.507812 193.746094 237.925781 194.183594 238.007812 C 194.234375 238.015625 194.28125 238.019531 194.328125 238.019531 C 194.710938 238.015625 195.050781 237.742188 195.121094 237.355469 Z M 192.851562 245.640625 C 193.109375 244.234375 192.660156 242.800781 191.59375 241.605469 C 190.578125 240.464844 189.101562 239.667969 187.441406 239.363281 C 185.78125 239.0625 184.121094 239.285156 182.761719 239.996094 C 181.339844 240.738281 180.414062 241.921875 180.15625 243.328125 C 180.078125 243.765625 180.367188 244.183594 180.804688 244.265625 C 181.242188 244.347656 181.660156 244.054688 181.742188 243.617188 C 181.910156 242.710938 182.535156 241.929688 183.511719 241.421875 C 184.550781 240.878906 185.84375 240.707031 187.152344 240.945312 C 188.457031 241.183594 189.609375 241.796875 190.386719 242.671875 C 191.117188 243.492188 191.429688 244.441406 191.261719 245.351562 C 191.183594 245.785156 191.472656 246.207031 191.914062 246.285156 C 191.960938 246.292969 192.011719 246.296875 192.058594 246.296875 C 192.441406 246.296875 192.78125 246.023438 192.851562 245.640625 Z M 183.101562 181.664062 C 183.292969 181.261719 183.117188 180.78125 182.714844 180.59375 C 182.390625 180.449219 182.074219 180.296875 181.757812 180.148438 C 180.945312 179.765625 180.109375 179.371094 179.261719 179.015625 C 178.914062 178.871094 178.566406 178.726562 178.21875 178.574219 C 177.421875 178.230469 176.59375 177.878906 175.753906 177.566406 C 174.984375 177.28125 174.195312 177.039062 173.4375 176.804688 C 173.007812 176.671875 172.574219 176.539062 172.144531 176.394531 C 171.746094 176.265625 171.355469 176.128906 170.960938 175.996094 C 170.175781 175.726562 169.363281 175.445312 168.539062 175.210938 C 167.773438 174.992188 167 174.824219 166.246094 174.667969 C 165.777344 174.566406 165.304688 174.464844 164.835938 174.351562 C 164.335938 174.230469 163.824219 174.085938 163.328125 173.941406 C 162.628906 173.742188 161.90625 173.535156 161.164062 173.378906 C 160.335938 173.214844 159.492188 173.089844 158.675781 172.964844 C 158.253906 172.902344 157.835938 172.839844 157.414062 172.769531 C 156.890625 172.6875 156.375 172.566406 155.832031 172.441406 C 155.136719 172.28125 154.417969 172.117188 153.679688 172.023438 C 152.945312 171.933594 152.21875 171.929688 151.511719 171.925781 C 150.941406 171.925781 150.402344 171.921875 149.871094 171.878906 C 149.363281 171.832031 148.84375 171.765625 148.335938 171.703125 C 147.605469 171.613281 146.851562 171.515625 146.089844 171.480469 C 145.273438 171.445312 144.457031 171.457031 143.667969 171.472656 C 143.210938 171.476562 142.746094 171.488281 142.285156 171.484375 C 141.457031 171.480469 140.628906 171.523438 139.828125 171.5625 C 139.382812 171.585938 138.941406 171.605469 138.492188 171.621094 C 138.050781 171.636719 137.699219 172.007812 137.714844 172.453125 C 137.730469 172.894531 138.101562 173.242188 138.546875 173.226562 C 139 173.210938 139.453125 173.1875 139.910156 173.164062 C 140.691406 173.121094 141.492188 173.085938 142.28125 173.089844 C 142.753906 173.089844 143.226562 173.082031 143.695312 173.074219 C 144.460938 173.0625 145.253906 173.050781 146.015625 173.085938 C 146.714844 173.117188 147.402344 173.203125 148.136719 173.296875 C 148.65625 173.363281 149.195312 173.425781 149.730469 173.472656 C 150.328125 173.523438 150.925781 173.527344 151.5 173.53125 C 152.191406 173.535156 152.839844 173.539062 153.480469 173.617188 C 154.132812 173.699219 154.777344 173.84375 155.460938 174.003906 C 156.007812 174.128906 156.574219 174.261719 157.148438 174.355469 C 157.574219 174.425781 158.003906 174.492188 158.429688 174.554688 C 159.226562 174.671875 160.050781 174.796875 160.835938 174.957031 C 161.515625 175.09375 162.175781 175.285156 162.875 175.484375 C 163.386719 175.632812 163.914062 175.785156 164.449219 175.914062 C 164.9375 176.03125 165.429688 176.136719 165.90625 176.234375 C 166.664062 176.394531 167.382812 176.546875 168.089844 176.753906 C 168.875 176.976562 169.664062 177.25 170.429688 177.511719 C 170.828125 177.652344 171.230469 177.789062 171.632812 177.921875 C 172.070312 178.066406 172.515625 178.199219 172.957031 178.339844 C 173.695312 178.566406 174.460938 178.804688 175.1875 179.074219 C 175.992188 179.371094 176.800781 179.714844 177.582031 180.050781 C 177.933594 180.203125 178.285156 180.355469 178.636719 180.5 C 179.449219 180.839844 180.269531 181.226562 181.058594 181.601562 C 181.382812 181.75 181.707031 181.902344 182.027344 182.050781 C 182.136719 182.101562 182.253906 182.128906 182.367188 182.128906 C 182.675781 182.128906 182.964844 181.953125 183.101562 181.664062 Z M 179.46875 193.246094 C 179.660156 192.84375 179.484375 192.367188 179.078125 192.179688 C 178.617188 191.960938 178.144531 191.722656 177.691406 191.488281 C 177.003906 191.136719 176.292969 190.777344 175.558594 190.46875 C 174.304688 189.945312 173.078125 189.460938 171.914062 189.027344 C 170.625 188.546875 169.316406 188.113281 168.210938 187.75 C 167.367188 187.476562 166.503906 187.242188 165.671875 187.015625 C 165.257812 186.90625 164.847656 186.792969 164.4375 186.675781 C 163.582031 186.4375 162.710938 186.234375 161.867188 186.039062 C 161.457031 185.945312 161.042969 185.851562 160.632812 185.75 C 160.097656 185.625 159.570312 185.449219 159.011719 185.273438 C 158.320312 185.046875 157.605469 184.8125 156.863281 184.664062 C 156.117188 184.519531 155.367188 184.453125 154.644531 184.390625 C 154.0625 184.339844 153.511719 184.292969 152.96875 184.203125 C 152.425781 184.117188 151.894531 183.992188 151.328125 183.859375 C 150.613281 183.691406 149.878906 183.519531 149.117188 183.429688 C 147.996094 183.292969 146.792969 183.179688 145.214844 183.054688 C 144.441406 182.988281 143.679688 183.003906 142.933594 183.019531 C 142.367188 183.027344 141.828125 183.039062 141.289062 183.015625 C 140.117188 182.96875 138.875 182.945312 137.375 182.945312 C 136.929688 182.945312 136.570312 183.308594 136.570312 183.75 C 136.570312 184.191406 136.929688 184.554688 137.375 184.554688 C 138.851562 184.554688 140.078125 184.574219 141.226562 184.617188 C 141.8125 184.644531 142.398438 184.632812 142.964844 184.621094 C 143.699219 184.609375 144.394531 184.597656 145.085938 184.652344 C 146.644531 184.777344 147.828125 184.890625 148.925781 185.023438 C 149.597656 185.105469 150.257812 185.257812 150.960938 185.425781 C 151.527344 185.558594 152.117188 185.695312 152.714844 185.792969 C 153.316406 185.890625 153.921875 185.941406 154.507812 185.992188 C 155.21875 186.054688 155.894531 186.113281 156.550781 186.246094 C 157.203125 186.375 157.84375 186.582031 158.519531 186.804688 C 159.082031 186.984375 159.660156 187.171875 160.261719 187.316406 C 160.679688 187.417969 161.097656 187.515625 161.515625 187.609375 C 162.335938 187.796875 163.1875 187.992188 164.003906 188.226562 C 164.421875 188.34375 164.839844 188.457031 165.257812 188.566406 C 166.070312 188.785156 166.910156 189.007812 167.714844 189.277344 C 168.808594 189.632812 170.09375 190.0625 171.359375 190.53125 C 172.507812 190.957031 173.710938 191.433594 174.945312 191.945312 C 175.625 192.230469 176.277344 192.5625 176.96875 192.917969 C 177.4375 193.15625 177.917969 193.402344 178.410156 193.632812 C 178.519531 193.683594 178.636719 193.707031 178.75 193.707031 C 179.042969 193.710938 179.335938 193.539062 179.46875 193.246094 Z M 178.339844 205.0625 C 178.464844 204.636719 178.222656 204.191406 177.796875 204.0625 C 176.625 203.71875 175.261719 203.316406 173.921875 202.949219 C 173.148438 202.738281 172.367188 202.558594 171.609375 202.386719 C 171.070312 202.261719 170.535156 202.136719 169.996094 202.003906 C 169.441406 201.859375 168.886719 201.707031 168.332031 201.554688 C 167.605469 201.351562 166.855469 201.140625 166.101562 200.96875 C 165.351562 200.792969 164.589844 200.652344 163.847656 200.519531 C 163.285156 200.417969 162.707031 200.3125 162.140625 200.191406 C 161.605469 200.078125 161.074219 199.953125 160.539062 199.828125 C 159.777344 199.648438 158.992188 199.464844 158.203125 199.3125 C 157.464844 199.167969 156.714844 199.066406 155.992188 198.972656 C 155.410156 198.890625 154.804688 198.808594 154.21875 198.707031 C 153.699219 198.617188 153.183594 198.519531 152.667969 198.417969 C 151.878906 198.269531 151.0625 198.113281 150.25 197.988281 C 149.449219 197.863281 148.636719 197.765625 147.847656 197.675781 C 147.316406 197.613281 146.785156 197.550781 146.253906 197.476562 C 145.65625 197.394531 145.066406 197.261719 144.441406 197.117188 C 143.746094 196.960938 143.027344 196.796875 142.285156 196.710938 C 141.527344 196.621094 140.757812 196.574219 140.015625 196.523438 C 139.4375 196.484375 138.84375 196.449219 138.261719 196.390625 C 137.820312 196.351562 137.425781 196.671875 137.382812 197.113281 C 137.335938 197.554688 137.660156 197.949219 138.105469 197.992188 C 138.710938 198.050781 139.324219 198.09375 139.914062 198.128906 C 140.636719 198.175781 141.382812 198.222656 142.101562 198.308594 C 142.753906 198.386719 143.402344 198.535156 144.089844 198.6875 C 144.71875 198.832031 145.371094 198.980469 146.039062 199.070312 C 146.582031 199.144531 147.121094 199.210938 147.664062 199.273438 C 148.433594 199.363281 149.234375 199.457031 150.007812 199.578125 C 150.789062 199.703125 151.59375 199.855469 152.367188 200.003906 C 152.894531 200.105469 153.414062 200.203125 153.941406 200.296875 C 154.554688 200.402344 155.179688 200.488281 155.777344 200.566406 C 156.480469 200.664062 157.203125 200.761719 157.898438 200.894531 C 158.65625 201.042969 159.425781 201.222656 160.171875 201.398438 C 160.714844 201.527344 161.257812 201.652344 161.800781 201.765625 C 162.386719 201.894531 162.984375 202 163.558594 202.101562 C 164.277344 202.230469 165.019531 202.367188 165.730469 202.53125 C 166.453125 202.703125 167.1875 202.90625 167.898438 203.105469 C 168.464844 203.261719 169.03125 203.417969 169.601562 203.5625 C 170.144531 203.699219 170.695312 203.824219 171.242188 203.953125 C 171.984375 204.128906 172.753906 204.304688 173.492188 204.503906 C 174.820312 204.867188 176.171875 205.261719 177.335938 205.609375 C 177.410156 205.628906 177.488281 205.644531 177.566406 205.644531 C 177.914062 205.640625 178.234375 205.414062 178.339844 205.0625 Z M 175.082031 217.011719 C 175.207031 216.582031 174.957031 216.136719 174.535156 216.015625 C 173.828125 215.8125 173.109375 215.664062 172.417969 215.523438 C 171.832031 215.402344 171.28125 215.289062 170.734375 215.144531 C 169.636719 214.851562 168.472656 214.554688 166.957031 214.1875 C 166.496094 214.074219 166.035156 213.957031 165.578125 213.839844 C 164.792969 213.644531 163.984375 213.4375 163.175781 213.257812 C 162.628906 213.136719 162.074219 212.988281 161.535156 212.847656 C 160.835938 212.667969 160.113281 212.476562 159.382812 212.335938 C 158.65625 212.191406 157.921875 212.085938 157.210938 211.988281 C 156.65625 211.910156 156.082031 211.832031 155.53125 211.734375 C 155.019531 211.644531 154.503906 211.542969 153.992188 211.441406 C 153.246094 211.292969 152.472656 211.136719 151.699219 211.019531 C 151.140625 210.933594 150.574219 210.820312 150.023438 210.714844 C 149.320312 210.578125 148.59375 210.4375 147.859375 210.339844 C 147.136719 210.242188 146.40625 210.210938 145.707031 210.179688 C 145.101562 210.148438 144.535156 210.125 143.964844 210.0625 C 143.425781 210.003906 142.890625 209.929688 142.355469 209.859375 C 141.617188 209.765625 140.855469 209.660156 140.09375 209.589844 C 139.347656 209.523438 138.597656 209.5 137.871094 209.476562 C 137.320312 209.460938 136.746094 209.445312 136.195312 209.40625 C 135.640625 209.367188 135.070312 209.3125 134.519531 209.253906 C 133.800781 209.183594 133.058594 209.109375 132.3125 209.074219 C 131.867188 209.054688 131.492188 209.394531 131.46875 209.839844 C 131.445312 210.28125 131.789062 210.65625 132.238281 210.679688 C 132.9375 210.714844 133.660156 210.785156 134.359375 210.855469 C 134.921875 210.914062 135.503906 210.972656 136.085938 211.007812 C 136.671875 211.050781 137.253906 211.066406 137.824219 211.085938 C 138.523438 211.105469 139.25 211.128906 139.949219 211.191406 C 140.679688 211.257812 141.425781 211.355469 142.140625 211.453125 C 142.691406 211.523438 143.238281 211.601562 143.789062 211.660156 C 144.410156 211.726562 145.027344 211.757812 145.632812 211.785156 C 146.332031 211.816406 146.992188 211.847656 147.648438 211.933594 C 148.335938 212.027344 149.035156 212.160156 149.714844 212.292969 C 150.28125 212.402344 150.867188 212.515625 151.457031 212.605469 C 152.195312 212.71875 152.953125 212.871094 153.683594 213.015625 C 154.207031 213.117188 154.730469 213.222656 155.253906 213.316406 C 155.832031 213.421875 156.421875 213.5 156.988281 213.578125 C 157.679688 213.675781 158.394531 213.777344 159.074219 213.910156 C 159.757812 214.042969 160.453125 214.226562 161.128906 214.402344 C 161.683594 214.546875 162.253906 214.699219 162.828125 214.824219 C 163.617188 214.996094 164.414062 215.199219 165.183594 215.394531 C 165.648438 215.511719 166.113281 215.628906 166.582031 215.742188 C 168.085938 216.109375 169.242188 216.402344 170.324219 216.691406 C 170.917969 216.847656 171.519531 216.96875 172.101562 217.089844 C 172.792969 217.230469 173.449219 217.363281 174.089844 217.554688 C 174.164062 217.574219 174.242188 217.585938 174.316406 217.585938 C 174.65625 217.589844 174.976562 217.363281 175.082031 217.011719 Z M 169.742188 230.695312 C 169.871094 230.273438 169.632812 229.824219 169.203125 229.695312 L 168.792969 229.574219 C 167.699219 229.242188 166.566406 228.898438 165.445312 228.582031 C 164.921875 228.433594 164.40625 228.269531 163.890625 228.109375 C 163.175781 227.886719 162.433594 227.660156 161.691406 227.464844 C 160.855469 227.246094 160 227.039062 159.175781 226.84375 C 158.75 226.738281 158.316406 226.640625 157.890625 226.53125 C 157.054688 226.328125 156.210938 226.144531 155.394531 225.964844 C 154.953125 225.867188 154.511719 225.773438 154.070312 225.671875 C 153.074219 225.449219 152.0625 225.246094 151.082031 225.046875 L 150.242188 224.875 C 149.730469 224.773438 149.222656 224.660156 148.710938 224.546875 C 147.960938 224.378906 147.1875 224.210938 146.414062 224.066406 C 145.695312 223.929688 144.96875 223.839844 144.265625 223.75 C 143.695312 223.679688 143.109375 223.605469 142.539062 223.511719 C 141.390625 223.320312 140.222656 223.148438 139.097656 222.984375 L 138.671875 222.917969 C 138.097656 222.835938 137.507812 222.71875 136.9375 222.605469 C 136.25 222.472656 135.539062 222.328125 134.820312 222.234375 C 134.375 222.183594 133.972656 222.488281 133.914062 222.929688 C 133.859375 223.367188 134.171875 223.773438 134.609375 223.828125 C 135.277344 223.917969 135.933594 224.046875 136.625 224.179688 C 137.214844 224.296875 137.824219 224.417969 138.4375 224.507812 L 138.863281 224.570312 C 139.984375 224.738281 141.144531 224.90625 142.273438 225.09375 C 142.875 225.195312 143.480469 225.273438 144.066406 225.347656 C 144.746094 225.429688 145.449219 225.523438 146.117188 225.644531 C 146.863281 225.78125 147.625 225.953125 148.363281 226.113281 C 148.882812 226.226562 149.398438 226.34375 149.917969 226.449219 L 150.761719 226.625 C 151.734375 226.820312 152.738281 227.023438 153.714844 227.242188 C 154.160156 227.34375 154.601562 227.4375 155.046875 227.535156 C 155.855469 227.710938 156.691406 227.894531 157.503906 228.09375 C 157.9375 228.203125 158.367188 228.300781 158.800781 228.40625 C 159.617188 228.601562 160.460938 228.800781 161.28125 229.019531 C 161.992188 229.207031 162.710938 229.429688 163.410156 229.644531 C 163.941406 229.808594 164.46875 229.976562 165.003906 230.125 C 166.113281 230.441406 167.238281 230.777344 168.324219 231.109375 L 168.734375 231.234375 C 168.8125 231.257812 168.890625 231.269531 168.972656 231.269531 C 169.316406 231.269531 169.636719 231.042969 169.742188 230.695312 Z M 255.257812 202.621094 C 255.488281 202.242188 255.363281 201.746094 254.976562 201.519531 C 253.925781 200.890625 252.699219 200.167969 251.460938 199.523438 C 250.234375 198.882812 248.988281 198.300781 247.820312 197.765625 C 246.746094 197.273438 245.464844 196.695312 244.117188 196.160156 C 243.660156 195.980469 243.195312 195.777344 242.746094 195.582031 C 241.980469 195.246094 241.191406 194.898438 240.371094 194.625 C 239.597656 194.363281 238.804688 194.183594 238.039062 194.011719 C 237.484375 193.886719 236.964844 193.769531 236.445312 193.621094 C 235.226562 193.28125 233.980469 193 232.777344 192.726562 L 232.523438 192.667969 C 232.191406 192.59375 231.859375 192.515625 231.53125 192.4375 C 230.574219 192.210938 229.582031 191.976562 228.578125 191.804688 C 228.050781 191.714844 227.53125 191.59375 226.980469 191.46875 C 226.214844 191.292969 225.421875 191.105469 224.609375 191.007812 C 223.644531 190.890625 222.664062 190.835938 221.71875 190.78125 C 221.335938 190.761719 220.953125 190.738281 220.570312 190.714844 L 219.777344 190.65625 C 218.714844 190.582031 217.617188 190.503906 216.527344 190.484375 C 216.523438 190.484375 216.519531 190.484375 216.515625 190.484375 C 216.078125 190.484375 215.714844 190.835938 215.710938 191.277344 C 215.703125 191.71875 216.054688 192.085938 216.503906 192.089844 C 217.550781 192.109375 218.625 192.1875 219.664062 192.257812 L 220.464844 192.3125 C 220.851562 192.339844 221.242188 192.363281 221.632812 192.386719 C 222.550781 192.441406 223.503906 192.492188 224.417969 192.601562 C 225.144531 192.691406 225.863281 192.855469 226.621094 193.03125 C 227.167969 193.15625 227.734375 193.289062 228.308594 193.386719 C 229.261719 193.554688 230.230469 193.78125 231.164062 194 C 231.5 194.078125 231.835938 194.15625 232.171875 194.234375 L 232.421875 194.292969 C 233.609375 194.5625 234.832031 194.835938 236.011719 195.171875 C 236.574219 195.332031 237.140625 195.457031 237.691406 195.578125 C 238.449219 195.746094 239.167969 195.90625 239.859375 196.144531 C 240.613281 196.398438 241.339844 196.714844 242.109375 197.050781 C 242.566406 197.25 243.046875 197.460938 243.527344 197.652344 C 244.84375 198.171875 246.101562 198.738281 247.15625 199.226562 C 248.300781 199.75 249.523438 200.324219 250.722656 200.945312 C 251.921875 201.574219 253.074219 202.253906 254.160156 202.898438 C 254.289062 202.976562 254.429688 203.011719 254.570312 203.011719 C 254.839844 203.011719 255.105469 202.871094 255.257812 202.621094 Z M 251.269531 212.574219 C 251.421875 212.160156 251.210938 211.695312 250.792969 211.542969 C 250.382812 211.390625 249.976562 211.234375 249.566406 211.078125 C 248.789062 210.785156 247.984375 210.476562 247.179688 210.199219 C 246.5 209.96875 245.808594 209.8125 245.136719 209.65625 C 244.546875 209.523438 243.992188 209.394531 243.445312 209.222656 C 243.003906 209.085938 242.566406 208.941406 242.132812 208.796875 C 241.367188 208.542969 240.574219 208.28125 239.773438 208.054688 C 238.875 207.792969 237.957031 207.558594 237.070312 207.328125 C 236.730469 207.242188 236.390625 207.152344 236.050781 207.066406 C 235.535156 206.929688 235.003906 206.773438 234.5 206.625 C 233.796875 206.417969 233.074219 206.203125 232.335938 206.03125 C 231.785156 205.902344 231.246094 205.746094 230.675781 205.582031 C 230.007812 205.386719 229.316406 205.183594 228.609375 205.035156 C 227.835938 204.867188 227.050781 204.738281 226.289062 204.609375 C 225.796875 204.527344 225.300781 204.449219 224.8125 204.351562 C 223.6875 204.140625 222.355469 203.890625 221.015625 203.675781 C 220.191406 203.539062 219.359375 203.4375 218.550781 203.335938 C 218.097656 203.28125 217.644531 203.222656 217.1875 203.160156 C 216.75 203.101562 216.34375 203.410156 216.28125 203.847656 C 216.222656 204.289062 216.53125 204.691406 216.972656 204.75 C 217.433594 204.816406 217.894531 204.875 218.355469 204.929688 C 219.144531 205.03125 219.964844 205.132812 220.757812 205.261719 C 222.078125 205.476562 223.398438 205.722656 224.515625 205.933594 C 225.019531 206.027344 225.523438 206.109375 226.027344 206.191406 C 226.769531 206.316406 227.539062 206.441406 228.273438 206.601562 C 228.921875 206.738281 229.554688 206.921875 230.226562 207.117188 C 230.789062 207.285156 231.375 207.453125 231.964844 207.59375 C 232.65625 207.757812 233.363281 207.960938 234.042969 208.164062 C 234.5625 208.316406 235.101562 208.472656 235.640625 208.613281 C 235.984375 208.707031 236.324219 208.792969 236.667969 208.882812 C 237.542969 209.109375 238.449219 209.339844 239.328125 209.59375 C 240.097656 209.8125 240.875 210.070312 241.621094 210.320312 C 242.066406 210.464844 242.511719 210.609375 242.953125 210.753906 C 243.558594 210.945312 244.175781 211.085938 244.773438 211.21875 C 245.433594 211.371094 246.054688 211.511719 246.652344 211.714844 C 247.433594 211.984375 248.222656 212.285156 248.988281 212.574219 C 249.402344 212.734375 249.816406 212.894531 250.230469 213.046875 C 250.320312 213.082031 250.417969 213.097656 250.511719 213.097656 C 250.839844 213.101562 251.148438 212.898438 251.269531 212.574219 Z M 250.140625 223.652344 C 250.269531 223.226562 250.03125 222.777344 249.605469 222.648438 C 248.972656 222.453125 248.324219 222.296875 247.695312 222.148438 C 247.105469 222.007812 246.550781 221.871094 246 221.707031 C 245.351562 221.515625 244.695312 221.34375 244.058594 221.179688 C 243.515625 221.035156 242.953125 220.890625 242.40625 220.730469 C 241.859375 220.574219 241.316406 220.402344 240.777344 220.238281 C 240.144531 220.042969 239.496094 219.839844 238.839844 219.65625 C 238.183594 219.472656 237.519531 219.3125 236.878906 219.152344 C 236.328125 219.015625 235.777344 218.878906 235.230469 218.730469 C 234.679688 218.578125 234.144531 218.386719 233.574219 218.183594 C 232.964844 217.96875 232.339844 217.746094 231.6875 217.570312 C 231.027344 217.398438 230.351562 217.238281 229.703125 217.089844 C 229.15625 216.960938 228.609375 216.832031 228.066406 216.691406 C 227.539062 216.558594 227.019531 216.421875 226.492188 216.28125 C 225.816406 216.101562 225.140625 215.925781 224.460938 215.753906 C 223.910156 215.617188 223.347656 215.460938 222.800781 215.308594 C 222.171875 215.132812 221.519531 214.953125 220.863281 214.792969 C 220.1875 214.632812 219.496094 214.480469 218.828125 214.335938 C 218.292969 214.21875 217.761719 214.105469 217.230469 213.980469 C 216.578125 213.832031 215.917969 213.707031 215.277344 213.585938 C 214.71875 213.480469 214.136719 213.371094 213.574219 213.246094 C 213.140625 213.148438 212.710938 213.421875 212.613281 213.855469 C 212.515625 214.289062 212.789062 214.71875 213.222656 214.816406 C 213.808594 214.949219 214.402344 215.058594 214.980469 215.167969 C 215.601562 215.285156 216.246094 215.40625 216.863281 215.546875 C 217.402344 215.671875 217.945312 215.789062 218.488281 215.910156 C 219.144531 216.054688 219.824219 216.199219 220.484375 216.359375 C 221.113281 216.507812 221.75 216.6875 222.367188 216.859375 C 222.921875 217.011719 223.5 217.175781 224.074219 217.316406 C 224.746094 217.484375 225.414062 217.660156 226.078125 217.839844 C 226.609375 217.980469 227.136719 218.117188 227.667969 218.253906 C 228.222656 218.394531 228.773438 218.523438 229.332031 218.65625 C 229.972656 218.804688 230.632812 218.960938 231.273438 219.128906 C 231.855469 219.28125 232.425781 219.484375 233.027344 219.699219 C 233.601562 219.902344 234.195312 220.117188 234.808594 220.28125 C 235.367188 220.429688 235.925781 220.574219 236.492188 220.710938 C 237.121094 220.863281 237.773438 221.027344 238.402344 221.203125 C 239.03125 221.378906 239.675781 221.578125 240.292969 221.769531 C 240.847656 221.945312 241.398438 222.113281 241.957031 222.273438 C 242.519531 222.4375 243.09375 222.585938 243.648438 222.730469 C 244.269531 222.894531 244.914062 223.0625 245.535156 223.25 C 246.128906 223.425781 246.734375 223.570312 247.316406 223.707031 C 247.917969 223.851562 248.542969 224.003906 249.132812 224.179688 C 249.210938 224.207031 249.289062 224.214844 249.367188 224.214844 C 249.71875 224.222656 250.035156 223.996094 250.140625 223.652344 Z M 246.492188 235.617188 C 246.601562 235.1875 246.335938 234.75 245.90625 234.644531 C 245.285156 234.492188 244.679688 234.304688 244.039062 234.097656 C 243.417969 233.902344 242.773438 233.699219 242.113281 233.535156 C 241.472656 233.375 240.828125 233.226562 240.1875 233.074219 C 239.546875 232.929688 238.910156 232.777344 238.265625 232.621094 C 237.644531 232.46875 237.015625 232.324219 236.394531 232.183594 C 235.746094 232.035156 235.074219 231.886719 234.421875 231.722656 C 233.769531 231.558594 233.105469 231.421875 232.46875 231.285156 C 231.839844 231.15625 231.191406 231.015625 230.570312 230.863281 C 230.003906 230.722656 229.4375 230.578125 228.871094 230.433594 C 228.160156 230.253906 227.453125 230.074219 226.738281 229.898438 C 226.089844 229.738281 225.429688 229.554688 224.785156 229.378906 C 224.179688 229.210938 223.550781 229.039062 222.921875 228.882812 C 222.28125 228.722656 221.636719 228.570312 220.996094 228.414062 C 220.355469 228.261719 219.71875 228.109375 219.085938 227.949219 C 218.449219 227.792969 217.816406 227.628906 217.179688 227.46875 C 216.539062 227.308594 215.898438 227.144531 215.257812 226.984375 C 214.648438 226.832031 214.058594 226.632812 213.429688 226.417969 C 212.800781 226.207031 212.148438 225.984375 211.476562 225.816406 C 211.042969 225.710938 210.605469 225.96875 210.496094 226.398438 C 210.390625 226.832031 210.652344 227.265625 211.082031 227.375 C 211.6875 227.527344 212.28125 227.726562 212.90625 227.941406 C 213.539062 228.15625 214.1875 228.378906 214.863281 228.542969 C 215.5 228.703125 216.140625 228.867188 216.78125 229.027344 C 217.417969 229.191406 218.054688 229.351562 218.691406 229.511719 C 219.332031 229.671875 219.976562 229.824219 220.617188 229.976562 C 221.257812 230.132812 221.894531 230.28125 222.527344 230.441406 C 223.136719 230.59375 223.757812 230.761719 224.359375 230.929688 C 225.007812 231.109375 225.675781 231.289062 226.351562 231.457031 C 227.058594 231.632812 227.765625 231.8125 228.46875 231.988281 C 229.039062 232.132812 229.605469 232.277344 230.175781 232.417969 C 230.828125 232.582031 231.492188 232.722656 232.132812 232.855469 C 232.757812 232.988281 233.40625 233.125 234.03125 233.28125 C 234.699219 233.445312 235.375 233.601562 236.035156 233.746094 C 236.648438 233.886719 237.265625 234.027344 237.875 234.175781 C 238.523438 234.335938 239.171875 234.484375 239.820312 234.636719 C 240.453125 234.78125 241.085938 234.929688 241.71875 235.085938 C 242.328125 235.238281 242.921875 235.425781 243.554688 235.625 C 244.1875 235.824219 244.847656 236.03125 245.515625 236.195312 C 245.582031 236.210938 245.644531 236.21875 245.710938 236.21875 C 246.070312 236.230469 246.402344 235.984375 246.492188 235.617188 Z M 244.203125 248.300781 C 244.289062 247.863281 244.007812 247.441406 243.574219 247.351562 C 242.976562 247.230469 242.375 247.164062 241.792969 247.101562 C 241.117188 247.027344 240.480469 246.960938 239.871094 246.808594 C 239.285156 246.664062 238.703125 246.4375 238.089844 246.191406 C 237.527344 245.96875 236.941406 245.734375 236.332031 245.566406 C 235.804688 245.421875 235.273438 245.289062 234.742188 245.152344 C 234.070312 244.984375 233.375 244.808594 232.703125 244.609375 C 232.085938 244.425781 231.457031 244.292969 230.851562 244.15625 C 230.222656 244.019531 229.632812 243.890625 229.046875 243.714844 C 228.34375 243.5 227.636719 243.300781 226.929688 243.097656 C 226.429688 242.953125 225.929688 242.8125 225.429688 242.664062 C 224.394531 242.355469 223.339844 242.0625 222.324219 241.777344 L 221.800781 241.632812 C 221.324219 241.5 220.851562 241.355469 220.375 241.214844 C 219.65625 240.996094 218.914062 240.773438 218.164062 240.585938 C 217.300781 240.371094 216.421875 240.195312 215.570312 240.023438 C 215.199219 239.949219 214.828125 239.875 214.457031 239.796875 C 213.984375 239.699219 213.5 239.574219 213.03125 239.460938 C 212.292969 239.273438 211.527344 239.082031 210.75 238.957031 C 210.3125 238.886719 209.878906 238.804688 209.445312 238.722656 C 208.648438 238.570312 207.820312 238.414062 206.984375 238.328125 C 206.542969 238.28125 206.144531 238.605469 206.101562 239.046875 C 206.058594 239.492188 206.378906 239.882812 206.820312 239.925781 C 207.589844 240.003906 208.378906 240.152344 209.140625 240.296875 C 209.59375 240.382812 210.039062 240.464844 210.488281 240.539062 C 211.203125 240.65625 211.898438 240.828125 212.632812 241.011719 C 213.117188 241.136719 213.617188 241.261719 214.121094 241.367188 C 214.5 241.445312 214.875 241.519531 215.253906 241.597656 C 216.085938 241.761719 216.945312 241.933594 217.769531 242.140625 C 218.480469 242.316406 219.207031 242.539062 219.90625 242.75 C 220.390625 242.894531 220.875 243.039062 221.359375 243.175781 L 221.882812 243.324219 C 222.898438 243.605469 223.941406 243.898438 224.96875 244.203125 C 225.472656 244.347656 225.976562 244.492188 226.480469 244.636719 C 227.179688 244.839844 227.878906 245.035156 228.578125 245.25 C 229.222656 245.441406 229.875 245.585938 230.507812 245.722656 C 231.109375 245.855469 231.683594 245.980469 232.246094 246.148438 C 232.945312 246.351562 233.65625 246.53125 234.34375 246.707031 C 234.863281 246.835938 235.378906 246.96875 235.894531 247.109375 C 236.425781 247.257812 236.941406 247.460938 237.488281 247.679688 C 238.125 247.929688 238.78125 248.195312 239.480469 248.363281 C 240.195312 248.539062 240.917969 248.617188 241.613281 248.691406 C 242.183594 248.753906 242.722656 248.8125 243.246094 248.917969 C 243.296875 248.929688 243.355469 248.933594 243.40625 248.933594 C 243.785156 248.945312 244.121094 248.679688 244.203125 248.300781 Z M 124.804688 188.039062 C 124.988281 187.328125 125.148438 186.605469 125.296875 185.90625 C 125.425781 185.335938 125.554688 184.742188 125.695312 184.15625 C 126.011719 182.878906 126.328125 181.597656 126.628906 180.3125 C 126.796875 179.605469 126.933594 178.882812 127.066406 178.183594 C 127.175781 177.605469 127.289062 177.003906 127.414062 176.425781 C 127.585938 175.660156 127.746094 174.875 127.894531 174.117188 C 128 173.59375 128.105469 173.066406 128.21875 172.546875 C 128.34375 171.953125 128.503906 171.371094 128.671875 170.757812 C 128.859375 170.089844 129.050781 169.398438 129.191406 168.695312 C 129.304688 168.125 129.425781 167.558594 129.550781 166.992188 C 129.707031 166.28125 129.867188 165.542969 130.003906 164.8125 C 130.085938 164.375 129.800781 163.957031 129.363281 163.875 C 128.925781 163.792969 128.503906 164.078125 128.421875 164.515625 C 128.285156 165.222656 128.128906 165.949219 127.976562 166.648438 C 127.851562 167.226562 127.726562 167.804688 127.613281 168.378906 C 127.484375 169.027344 127.308594 169.65625 127.121094 170.328125 C 126.953125 170.9375 126.773438 171.570312 126.640625 172.210938 C 126.527344 172.742188 126.417969 173.273438 126.316406 173.804688 C 126.164062 174.550781 126.011719 175.324219 125.839844 176.078125 C 125.703125 176.683594 125.589844 177.300781 125.476562 177.894531 C 125.347656 178.574219 125.21875 179.273438 125.058594 179.949219 C 124.757812 181.226562 124.441406 182.5 124.128906 183.789062 C 123.980469 184.382812 123.851562 184.984375 123.722656 185.570312 C 123.574219 186.253906 123.417969 186.960938 123.242188 187.640625 C 123.132812 188.070312 123.390625 188.511719 123.820312 188.621094 C 123.890625 188.640625 123.957031 188.644531 124.023438 188.644531 C 124.382812 188.640625 124.710938 188.402344 124.804688 188.039062 Z M 122.183594 196.671875 C 122.625 196.667969 122.984375 196.304688 122.976562 195.859375 C 122.964844 194.800781 123.210938 193.75 123.472656 192.632812 L 123.578125 192.1875 C 123.675781 191.753906 123.402344 191.324219 122.972656 191.222656 C 122.539062 191.121094 122.105469 191.394531 122.003906 191.824219 L 121.902344 192.265625 C 121.632812 193.421875 121.351562 194.625 121.363281 195.875 C 121.371094 196.316406 121.730469 196.671875 122.167969 196.671875 C 122.175781 196.671875 122.179688 196.671875 122.183594 196.671875 Z M 218.128906 259.761719 C 218.222656 259.328125 217.941406 258.902344 217.507812 258.8125 C 216.539062 258.605469 216.039062 258.539062 215.550781 258.46875 C 215.074219 258.402344 214.621094 258.339844 213.703125 258.148438 C 212.738281 257.945312 212.242188 257.871094 211.757812 257.800781 C 211.28125 257.726562 210.828125 257.660156 209.90625 257.46875 C 208.988281 257.277344 208.546875 257.15625 208.078125 257.03125 C 207.609375 256.902344 207.125 256.769531 206.15625 256.570312 C 205.214844 256.371094 204.742188 256.261719 204.285156 256.15625 C 203.820312 256.046875 203.339844 255.9375 202.390625 255.734375 C 201.46875 255.539062 201.023438 255.425781 200.550781 255.300781 C 200.082031 255.179688 199.597656 255.054688 198.632812 254.851562 C 197.640625 254.644531 197.121094 254.609375 196.621094 254.570312 C 196.148438 254.535156 195.707031 254.5 194.808594 254.3125 C 193.898438 254.121094 193.464844 253.992188 193 253.859375 C 192.527344 253.71875 192.042969 253.574219 191.070312 253.367188 C 190.109375 253.167969 189.613281 253.085938 189.136719 253.011719 C 188.652344 252.933594 188.199219 252.859375 187.273438 252.664062 C 186.835938 252.574219 186.414062 252.855469 186.320312 253.285156 C 186.230469 253.71875 186.507812 254.148438 186.945312 254.238281 C 187.90625 254.4375 188.398438 254.519531 188.878906 254.597656 C 189.359375 254.675781 189.8125 254.746094 190.738281 254.941406 C 191.648438 255.132812 192.082031 255.261719 192.546875 255.394531 C 193.015625 255.539062 193.503906 255.679688 194.476562 255.886719 C 195.476562 256.097656 195.996094 256.132812 196.5 256.171875 C 196.96875 256.207031 197.414062 256.242188 198.304688 256.425781 C 199.230469 256.621094 199.671875 256.734375 200.144531 256.859375 C 200.613281 256.980469 201.09375 257.105469 202.058594 257.308594 C 202.992188 257.5 203.457031 257.613281 203.917969 257.71875 C 204.386719 257.828125 204.871094 257.9375 205.824219 258.140625 C 206.742188 258.332031 207.183594 258.453125 207.652344 258.578125 C 208.121094 258.707031 208.605469 258.839844 209.574219 259.039062 C 210.539062 259.242188 211.039062 259.316406 211.519531 259.386719 C 211.996094 259.460938 212.453125 259.527344 213.371094 259.71875 C 214.339844 259.921875 214.839844 259.992188 215.324219 260.058594 C 215.804688 260.125 216.257812 260.1875 217.171875 260.378906 C 217.230469 260.390625 217.285156 260.398438 217.339844 260.398438 C 217.714844 260.398438 218.050781 260.136719 218.128906 259.761719 Z M 225.78125 261.777344 C 225.886719 261.34375 225.617188 260.910156 225.1875 260.804688 C 224.269531 260.585938 223.832031 260.449219 223.371094 260.300781 C 222.902344 260.152344 222.417969 259.996094 221.441406 259.761719 C 221.007812 259.65625 220.574219 259.925781 220.46875 260.355469 C 220.367188 260.789062 220.632812 261.222656 221.066406 261.324219 C 221.980469 261.542969 222.417969 261.683594 222.878906 261.828125 C 223.347656 261.980469 223.832031 262.132812 224.808594 262.371094 C 224.871094 262.386719 224.933594 262.390625 224.996094 262.390625 C 225.363281 262.390625 225.691406 262.144531 225.78125 261.777344 Z M 265.589844 217.828125 C 265.796875 216.964844 265.957031 216.554688 266.121094 216.125 C 266.304688 215.660156 266.492188 215.183594 266.71875 214.210938 C 266.945312 213.273438 267.03125 212.789062 267.117188 212.320312 C 267.203125 211.855469 267.285156 211.410156 267.496094 210.511719 C 267.707031 209.609375 267.839844 209.179688 267.972656 208.726562 C 268.113281 208.269531 268.253906 207.800781 268.476562 206.863281 L 268.902344 205.078125 C 269.015625 204.601562 269.125 204.144531 269.351562 203.1875 C 269.574219 202.234375 269.644531 201.734375 269.710938 201.253906 C 269.773438 200.792969 269.835938 200.355469 270.042969 199.472656 C 270.253906 198.574219 270.378906 198.144531 270.515625 197.691406 C 270.648438 197.234375 270.789062 196.761719 271.007812 195.820312 C 271.109375 195.386719 270.839844 194.957031 270.40625 194.851562 C 269.972656 194.753906 269.542969 195.019531 269.4375 195.453125 C 269.226562 196.351562 269.101562 196.78125 268.964844 197.234375 C 268.828125 197.691406 268.691406 198.164062 268.472656 199.105469 C 268.246094 200.0625 268.179688 200.558594 268.113281 201.039062 C 268.050781 201.503906 267.988281 201.941406 267.78125 202.820312 C 267.554688 203.773438 267.449219 204.230469 267.335938 204.703125 L 266.910156 206.492188 C 266.699219 207.382812 266.570312 207.808594 266.429688 208.261719 C 266.292969 208.71875 266.148438 209.191406 265.925781 210.144531 C 265.699219 211.085938 265.613281 211.566406 265.527344 212.035156 C 265.441406 212.503906 265.359375 212.945312 265.148438 213.84375 C 264.945312 214.707031 264.789062 215.113281 264.617188 215.542969 C 264.433594 216.007812 264.25 216.484375 264.015625 217.460938 C 263.914062 217.894531 264.183594 218.328125 264.613281 218.429688 C 264.675781 218.445312 264.742188 218.449219 264.800781 218.449219 C 265.171875 218.445312 265.503906 218.195312 265.589844 217.828125 Z M 259.382812 243.859375 C 259.535156 243.222656 259.628906 242.917969 259.726562 242.59375 C 259.824219 242.265625 259.929688 241.921875 260.09375 241.246094 C 260.199219 240.816406 259.933594 240.378906 259.5 240.273438 C 259.066406 240.171875 258.628906 240.433594 258.527344 240.867188 C 258.371094 241.503906 258.28125 241.808594 258.183594 242.132812 C 258.082031 242.460938 257.976562 242.804688 257.8125 243.484375 C 257.710938 243.917969 257.976562 244.351562 258.410156 244.457031 C 258.472656 244.472656 258.535156 244.476562 258.597656 244.476562 C 258.964844 244.472656 259.292969 244.226562 259.382812 243.859375 Z M 251.039062 265.449219 C 251.792969 264.902344 252.394531 264.082031 253.035156 263.214844 C 253.136719 263.074219 253.242188 262.929688 253.351562 262.785156 C 253.992188 261.925781 254.703125 260.472656 255.253906 258.914062 C 255.511719 258.179688 255.71875 257.371094 255.914062 256.589844 C 256.050781 256.039062 256.191406 255.472656 256.351562 254.929688 C 256.511719 254.398438 256.675781 253.871094 256.835938 253.351562 C 257.09375 252.523438 257.339844 251.738281 257.539062 250.988281 L 257.792969 250.046875 C 258.140625 248.753906 258.164062 248.679688 258.566406 247.007812 C 258.671875 246.578125 258.402344 246.140625 257.972656 246.039062 C 257.539062 245.933594 257.101562 246.199219 257 246.628906 C 256.597656 248.28125 256.585938 248.332031 256.238281 249.628906 L 255.980469 250.570312 C 255.789062 251.289062 255.550781 252.058594 255.296875 252.871094 C 255.132812 253.394531 254.964844 253.925781 254.808594 254.46875 C 254.632812 255.042969 254.488281 255.628906 254.347656 256.191406 C 254.152344 256.976562 253.96875 257.710938 253.734375 258.375 C 253.140625 260.042969 252.476562 261.253906 252.054688 261.824219 C 251.941406 261.972656 251.839844 262.117188 251.734375 262.257812 C 251.148438 263.054688 250.644531 263.742188 250.097656 264.136719 C 249.425781 264.621094 248.671875 264.734375 247.582031 264.527344 C 247.140625 264.445312 246.722656 264.726562 246.636719 265.164062 C 246.554688 265.597656 246.839844 266.019531 247.277344 266.105469 C 247.714844 266.1875 248.128906 266.230469 248.515625 266.230469 C 249.476562 266.238281 250.296875 265.980469 251.039062 265.449219 Z M 143.136719 242.347656 C 143.242188 241.917969 142.976562 241.480469 142.542969 241.375 C 141.648438 241.164062 141.226562 241.007812 140.777344 240.847656 C 140.3125 240.679688 139.828125 240.507812 138.851562 240.273438 C 137.882812 240.035156 137.378906 239.964844 136.890625 239.890625 C 136.417969 239.824219 135.972656 239.757812 135.074219 239.539062 C 134.167969 239.320312 133.734375 239.1875 133.28125 239.039062 C 132.8125 238.890625 132.335938 238.738281 131.375 238.503906 C 130.453125 238.28125 129.988281 238.15625 129.535156 238.035156 C 129.074219 237.910156 128.59375 237.78125 127.652344 237.554688 C 126.703125 237.324219 126.21875 237.226562 125.75 237.128906 C 125.269531 237.03125 124.820312 236.9375 123.902344 236.714844 C 123.46875 236.609375 123.03125 236.875 122.929688 237.304688 C 122.824219 237.734375 123.089844 238.171875 123.523438 238.277344 C 124.46875 238.503906 124.957031 238.605469 125.425781 238.703125 C 125.902344 238.800781 126.351562 238.894531 127.273438 239.117188 C 128.199219 239.339844 128.640625 239.460938 129.113281 239.589844 C 129.578125 239.714844 130.050781 239.84375 130.996094 240.066406 C 131.902344 240.289062 132.335938 240.421875 132.792969 240.570312 C 133.257812 240.71875 133.734375 240.871094 134.699219 241.105469 C 135.667969 241.335938 136.171875 241.410156 136.660156 241.484375 C 137.132812 241.550781 137.578125 241.617188 138.476562 241.835938 C 139.367188 242.046875 139.785156 242.203125 140.234375 242.363281 C 140.703125 242.53125 141.1875 242.703125 142.167969 242.941406 C 142.230469 242.957031 142.292969 242.960938 142.355469 242.960938 C 142.71875 242.960938 143.046875 242.714844 143.136719 242.347656 Z M 148.449219 243.355469 C 148.554688 242.925781 148.289062 242.488281 147.859375 242.382812 C 147.101562 242.199219 146.679688 242.179688 146.304688 242.160156 C 145.960938 242.144531 145.664062 242.128906 145.058594 241.984375 C 144.625 241.882812 144.1875 242.148438 144.085938 242.578125 C 143.980469 243.011719 144.246094 243.445312 144.679688 243.546875 C 145.433594 243.730469 145.855469 243.75 146.226562 243.769531 C 146.566406 243.785156 146.863281 243.800781 147.476562 243.945312 C 147.539062 243.960938 147.605469 243.96875 147.667969 243.96875 C 148.03125 243.964844 148.363281 243.722656 148.449219 243.355469 Z M 148.449219 243.355469 " fill-opacity="1" fill-rule="nonzero"/></svg>