<svg xmlns="http://www.w3.org/2000/svg" xmlns:xlink="http://www.w3.org/1999/xlink" width="247" zoomAndPan="magnify" viewBox="0 0 185.25 112.499997" height="150" preserveAspectRatio="xMidYMid meet" version="1.2"><g id="ca54ce5589"><path style=" stroke:none;fill-rule:nonzero;fill:#100f0d;fill-opacity:1;" d="M 21.984375 46.867188 C 29.105469 49.109375 37.054688 45.757812 42.226562 40.378906 C 47.402344 34.996094 50.34375 27.898438 53.011719 20.925781 C 52.453125 44.054688 50.417969 67.144531 46.933594 90.011719 C 44.542969 77.777344 32.71875 68.09375 20.253906 68.167969 C 19.34375 60.851562 20.054688 53.335938 22.328125 46.320312 "/><path style=" stroke:none;fill-rule:nonzero;fill:#100f0d;fill-opacity:1;" d="M 21.605469 48.25 C 27.253906 49.957031 33.324219 48.539062 38.238281 45.449219 C 43.527344 42.125 47.277344 36.972656 50.058594 31.464844 C 51.714844 28.175781 53.078125 24.742188 54.390625 21.308594 C 53.453125 21.179688 52.515625 21.054688 51.578125 20.925781 C 51.136719 38.824219 49.832031 56.699219 47.640625 74.46875 C 47.015625 79.535156 46.316406 84.585938 45.550781 89.632812 L 48.3125 89.632812 C 45.703125 76.722656 33.398438 66.75 20.253906 66.738281 C 20.734375 67.214844 21.210938 67.691406 21.6875 68.167969 C 20.816406 60.933594 21.492188 53.648438 23.710938 46.699219 C 24.273438 44.941406 21.507812 44.183594 20.949219 45.9375 C 18.660156 53.101562 17.921875 60.707031 18.820312 68.167969 C 18.914062 68.941406 19.402344 69.601562 20.253906 69.601562 C 32.203125 69.613281 43.1875 78.710938 45.550781 90.394531 C 45.816406 91.726562 48.097656 91.796875 48.3125 90.394531 C 51.035156 72.492188 52.898438 54.46875 53.847656 36.386719 C 54.121094 31.238281 54.316406 26.082031 54.441406 20.925781 C 54.484375 19.214844 52.175781 19.113281 51.628906 20.546875 C 48.996094 27.425781 46.074219 34.597656 40.730469 39.859375 C 35.988281 44.515625 28.96875 47.484375 22.363281 45.484375 C 20.597656 44.949219 19.839844 47.714844 21.601562 48.25 "/><path style=" stroke:none;fill-rule:nonzero;fill:#100f0d;fill-opacity:1;" d="M 54.648438 22.011719 C 55.234375 17.628906 57.875 13.628906 61.589844 11.261719 C 61.011719 11.1875 60.433594 11.113281 59.855469 11.039062 C 61.625 12.960938 62.101562 15.621094 62.289062 18.140625 C 62.527344 21.316406 62.527344 24.527344 62.558594 27.710938 C 62.625 34.484375 62.464844 41.265625 62.078125 48.035156 C 61.695312 54.714844 61.097656 61.386719 60.265625 68.027344 C 59.542969 73.8125 58.570312 79.585938 57 85.207031 C 55.238281 91.503906 52.667969 97.539062 48.871094 102.890625 L 51.34375 102.890625 C 48.757812 98.496094 47.855469 93.285156 48.886719 88.285156 C 49.257812 86.488281 46.496094 85.71875 46.125 87.523438 C 44.9375 93.28125 45.886719 99.261719 48.871094 104.335938 C 49.453125 105.324219 50.734375 105.191406 51.34375 104.335938 C 58.421875 94.371094 61.222656 82.210938 62.832031 70.289062 C 64.703125 56.484375 65.523438 42.519531 65.433594 28.59375 C 65.40625 24.890625 65.449219 21.136719 65.097656 17.449219 C 64.800781 14.359375 64.035156 11.351562 61.878906 9.011719 C 61.464844 8.566406 60.660156 8.460938 60.144531 8.789062 C 55.492188 11.753906 52.511719 16.566406 51.785156 22.011719 C 51.679688 22.785156 52.519531 23.4375 53.21875 23.445312 C 54.074219 23.453125 54.546875 22.777344 54.648438 22.011719 "/><path style=" stroke:none;fill-rule:nonzero;fill:#100f0d;fill-opacity:1;" d="M 81.246094 25.207031 C 86.332031 22.027344 91.417969 18.851562 96.507812 15.671875 L 95.894531 24.699219 C 95.867188 25.101562 95.824219 25.535156 95.550781 25.824219 C 95.226562 26.164062 94.699219 26.1875 94.230469 26.1875 C 90.054688 26.175781 85.878906 26.164062 81.699219 26.15625 "/><path style=" stroke:none;fill-rule:nonzero;fill:#100f0d;fill-opacity:1;" d="M 81.96875 26.445312 C 87.054688 23.265625 92.144531 20.085938 97.230469 16.910156 C 96.511719 16.496094 95.792969 16.085938 95.074219 15.671875 C 94.945312 17.535156 94.820312 19.398438 94.695312 21.261719 C 94.625 22.265625 94.566406 23.269531 94.492188 24.269531 C 94.488281 24.453125 94.472656 24.632812 94.449219 24.8125 C 94.394531 25.019531 94.480469 24.988281 94.699219 24.71875 C 94.320312 24.746094 93.945312 24.753906 93.5625 24.753906 C 89.605469 24.742188 85.652344 24.730469 81.699219 24.722656 C 79.855469 24.71875 79.855469 27.582031 81.699219 27.589844 C 84.085938 27.59375 86.472656 27.597656 88.859375 27.605469 C 90.054688 27.609375 91.246094 27.609375 92.441406 27.613281 C 93.414062 27.617188 94.515625 27.757812 95.460938 27.480469 C 97.605469 26.859375 97.351562 24.3125 97.472656 22.550781 C 97.628906 20.257812 97.78125 17.964844 97.9375 15.671875 C 98.011719 14.589844 96.667969 13.882812 95.78125 14.4375 C 90.699219 17.613281 85.609375 20.792969 80.523438 23.972656 C 78.960938 24.945312 80.398438 27.425781 81.96875 26.445312 "/><path style=" stroke:none;fill-rule:nonzero;fill:#100f0d;fill-opacity:1;" d="M 83.457031 56.113281 C 89.074219 55.800781 94.726562 56.164062 100.253906 57.203125 C 99.378906 59.671875 98.332031 62.085938 97.125 64.414062 C 96.929688 64.796875 96.675781 65.214844 96.253906 65.300781 C 95.886719 65.371094 95.527344 65.152344 95.214844 64.949219 C 91.503906 62.5 87.792969 60.050781 84.085938 57.601562 "/><path style=" stroke:none;fill-rule:nonzero;fill:#100f0d;fill-opacity:1;" d="M 83.457031 57.542969 C 88.957031 57.253906 94.457031 57.585938 99.871094 58.582031 L 98.871094 56.820312 C 98.285156 58.457031 97.636719 60.070312 96.894531 61.648438 C 96.691406 62.085938 96.480469 62.519531 96.265625 62.953125 C 96.15625 63.175781 95.933594 63.902344 95.730469 63.976562 C 96.320312 63.757812 95.355469 63.324219 95.195312 63.222656 C 94.824219 62.976562 94.453125 62.730469 94.082031 62.484375 C 90.992188 60.445312 87.898438 58.40625 84.808594 56.363281 C 83.265625 55.347656 81.828125 57.824219 83.363281 58.835938 C 85.34375 60.144531 87.320312 61.449219 89.296875 62.757812 C 91.140625 63.972656 92.996094 65.511719 94.988281 66.457031 C 97.226562 67.511719 98.300781 65.324219 99.105469 63.65625 C 100.054688 61.675781 100.894531 59.644531 101.632812 57.582031 C 101.878906 56.898438 101.355469 55.953125 100.632812 55.820312 C 94.96875 54.777344 89.214844 54.378906 83.457031 54.683594 C 81.625 54.777344 81.613281 57.644531 83.457031 57.542969 "/><path style=" stroke:none;fill-rule:nonzero;fill:#100f0d;fill-opacity:1;" d="M 79.96875 78.21875 C 84.027344 79.542969 87.953125 81.269531 91.671875 83.371094 C 91.144531 85.289062 90.300781 87.125 89.179688 88.769531 C 86.941406 84.519531 83.652344 80.828125 79.679688 78.121094 "/><path style=" stroke:none;fill-rule:nonzero;fill:#100f0d;fill-opacity:1;" d="M 79.589844 79.597656 C 83.535156 80.898438 87.320312 82.574219 90.949219 84.605469 C 90.730469 84.066406 90.507812 83.527344 90.289062 82.988281 C 89.769531 84.808594 88.992188 86.46875 87.941406 88.046875 L 90.414062 88.046875 C 88.019531 83.5625 84.582031 79.773438 80.402344 76.886719 C 78.882812 75.835938 77.449219 78.316406 78.957031 79.359375 C 82.734375 81.96875 85.78125 85.449219 87.941406 89.496094 C 88.476562 90.492188 89.847656 90.34375 90.414062 89.496094 C 91.59375 87.726562 92.46875 85.792969 93.050781 83.75 C 93.222656 83.152344 92.941406 82.4375 92.394531 82.132812 C 88.558594 79.980469 84.527344 78.210938 80.351562 76.835938 C 78.59375 76.257812 77.84375 79.023438 79.589844 79.597656 "/><path style=" stroke:none;fill-rule:nonzero;fill:#100f0d;fill-opacity:1;" d="M 55.234375 62.902344 C 55.195312 57.984375 54.441406 53.570312 57.457031 49.6875 C 57.738281 49.324219 58.21875 48.953125 58.601562 49.203125 C 58.789062 49.332031 58.863281 49.574219 58.917969 49.796875 C 59.300781 51.457031 59.253906 53.183594 59.203125 54.886719 L 59.003906 61.941406 C 58.957031 63.574219 58.707031 65.527344 57.230469 66.21875 C 56.738281 66.449219 56.0625 66.445312 55.75 66 C 55.617188 65.8125 55.574219 65.578125 55.542969 65.351562 C 55.414062 64.492188 55.382812 63.621094 55.449219 62.753906 "/><path style=" stroke:none;fill-rule:nonzero;fill:#100f0d;fill-opacity:1;" d="M 56.667969 62.902344 C 56.636719 60.417969 56.375 57.878906 56.683594 55.402344 C 56.820312 54.265625 57.113281 53.113281 57.632812 52.085938 C 57.867188 51.621094 58.40625 51.070312 58.5625 50.597656 C 58.925781 50.242188 58.585938 50.101562 57.535156 50.179688 C 57.566406 50.316406 57.59375 50.457031 57.621094 50.597656 C 57.664062 51.035156 57.742188 51.457031 57.769531 51.902344 C 57.949219 54.859375 57.6875 57.878906 57.601562 60.839844 C 57.570312 61.921875 57.65625 63.164062 57.226562 64.1875 C 57.066406 64.558594 56.847656 64.675781 56.589844 64.933594 C 56.890625 65.03125 56.992188 64.953125 56.898438 64.707031 C 56.878906 64.488281 56.863281 64.269531 56.855469 64.054688 C 56.839844 63.621094 56.859375 63.1875 56.882812 62.753906 C 56.984375 60.914062 54.121094 60.917969 54.015625 62.753906 C 53.9375 64.171875 53.789062 66.347656 55.066406 67.3125 C 56.222656 68.183594 57.828125 67.773438 58.816406 66.847656 C 60.910156 64.886719 60.457031 61.210938 60.527344 58.636719 C 60.582031 56.816406 60.671875 54.996094 60.667969 53.179688 C 60.664062 51.761719 60.773438 49.5 59.765625 48.355469 C 58.742188 47.183594 57.167969 47.78125 56.332031 48.820312 C 55.414062 49.964844 54.742188 51.316406 54.324219 52.71875 C 53.339844 56.011719 53.765625 59.527344 53.800781 62.902344 C 53.820312 64.746094 56.6875 64.75 56.667969 62.902344 "/></g></svg>