<svg xmlns="http://www.w3.org/2000/svg" xmlns:xlink="http://www.w3.org/1999/xlink" width="247" zoomAndPan="magnify" viewBox="0 0 185.25 112.499997" height="150" preserveAspectRatio="xMidYMid meet" version="1.2"><defs><clipPath id="ace1655559"><path d="M 7.496094 2 L 170.273438 2 L 170.273438 110.265625 L 7.496094 110.265625 Z M 7.496094 2 "/></clipPath></defs><g id="95a53aa743"><g clip-rule="nonzero" clip-path="url(#ace1655559)"><path style=" stroke:none;fill-rule:nonzero;fill:#000000;fill-opacity:1;" d="M 166.90625 6.648438 L 164.402344 6.648438 L 164.402344 4.839844 C 164.402344 3.277344 163.136719 2.011719 161.582031 2.011719 L 10.316406 2.011719 C 8.761719 2.011719 7.496094 3.277344 7.496094 4.839844 L 7.496094 101.683594 C 7.496094 103.246094 8.761719 104.515625 10.316406 104.515625 L 12.273438 104.515625 L 12.273438 106.875 C 12.273438 108.738281 13.785156 110.253906 15.640625 110.253906 L 166.90625 110.253906 C 168.765625 110.253906 170.273438 108.738281 170.273438 106.875 L 170.273438 10.027344 C 170.273438 8.164062 168.765625 6.648438 166.90625 6.648438 Z M 8.59375 4.839844 C 8.59375 3.886719 9.363281 3.109375 10.316406 3.109375 L 161.582031 3.109375 C 162.53125 3.109375 163.304688 3.886719 163.304688 4.839844 L 163.304688 13.644531 L 8.59375 13.644531 Z M 8.59375 101.683594 L 8.59375 14.746094 L 163.304688 14.746094 L 163.304688 101.683594 C 163.304688 102.640625 162.53125 103.414062 161.582031 103.414062 L 10.316406 103.414062 C 9.363281 103.414062 8.59375 102.640625 8.59375 101.683594 Z M 169.175781 106.875 C 169.175781 108.132812 168.160156 109.152344 166.90625 109.152344 L 15.640625 109.152344 C 14.386719 109.152344 13.367188 108.132812 13.367188 106.875 L 13.367188 104.515625 L 161.582031 104.515625 C 163.136719 104.515625 164.402344 103.246094 164.402344 101.683594 L 164.402344 7.75 L 166.90625 7.75 C 168.160156 7.75 169.175781 8.769531 169.175781 10.027344 Z M 13.996094 5.941406 C 12.65625 5.941406 11.566406 7.03125 11.566406 8.378906 C 11.566406 9.722656 12.65625 10.8125 13.996094 10.8125 C 15.335938 10.8125 16.421875 9.722656 16.421875 8.378906 C 16.421875 7.03125 15.335938 5.941406 13.996094 5.941406 Z M 13.996094 9.714844 C 13.261719 9.714844 12.664062 9.113281 12.664062 8.378906 C 12.664062 7.640625 13.261719 7.042969 13.996094 7.042969 C 14.730469 7.042969 15.328125 7.640625 15.328125 8.378906 C 15.328125 9.113281 14.730469 9.714844 13.996094 9.714844 Z M 20.101562 5.941406 C 18.761719 5.941406 17.675781 7.03125 17.675781 8.378906 C 17.675781 9.722656 18.761719 10.8125 20.101562 10.8125 C 21.441406 10.8125 22.53125 9.722656 22.53125 8.378906 C 22.53125 7.03125 21.441406 5.941406 20.101562 5.941406 Z M 20.101562 9.714844 C 19.367188 9.714844 18.769531 9.113281 18.769531 8.378906 C 18.769531 7.640625 19.367188 7.042969 20.101562 7.042969 C 20.835938 7.042969 21.433594 7.640625 21.433594 8.378906 C 21.433594 9.113281 20.835938 9.714844 20.101562 9.714844 Z M 26.210938 5.941406 C 24.871094 5.941406 23.78125 7.03125 23.78125 8.378906 C 23.78125 9.722656 24.871094 10.8125 26.210938 10.8125 C 27.546875 10.8125 28.636719 9.722656 28.636719 8.378906 C 28.636719 7.03125 27.546875 5.941406 26.210938 5.941406 Z M 26.210938 9.714844 C 25.476562 9.714844 24.878906 9.113281 24.878906 8.378906 C 24.878906 7.640625 25.476562 7.042969 26.210938 7.042969 C 26.945312 7.042969 27.539062 7.640625 27.539062 8.378906 C 27.539062 9.113281 26.945312 9.714844 26.210938 9.714844 Z M 26.210938 9.714844 "/></g></g></svg>