<svg xmlns="http://www.w3.org/2000/svg" xmlns:xlink="http://www.w3.org/1999/xlink" width="150" zoomAndPan="magnify" viewBox="0 0 112.5 112.499997" height="150" preserveAspectRatio="xMidYMid meet" version="1.2"><defs><clipPath id="a3eac7f016"><path d="M 14 0.0117188 L 18 0.0117188 L 18 4 L 14 4 Z M 14 0.0117188 "/></clipPath><clipPath id="cb283b2f5b"><path d="M 11 0.0117188 L 15 0.0117188 L 15 4 L 11 4 Z M 11 0.0117188 "/></clipPath><clipPath id="c011055994"><path d="M 25 56 L 29 56 L 29 59.722656 L 25 59.722656 Z M 25 56 "/></clipPath><clipPath id="e87f532920"><path d="M 29 56 L 33 56 L 33 59.722656 L 29 59.722656 Z M 29 56 "/></clipPath><clipPath id="da88e67a54"><path d="M 14 0.0117188 L 18 0.0117188 L 18 4 L 14 4 Z M 14 0.0117188 "/></clipPath><clipPath id="79e24d98f4"><path d="M 11 0.0117188 L 15 0.0117188 L 15 4 L 11 4 Z M 11 0.0117188 "/></clipPath><clipPath id="33661c3073"><path d="M 66 0.0078125 L 70 0.0078125 L 70 3 L 66 3 Z M 66 0.0078125 "/></clipPath><clipPath id="39630aee48"><path d="M 62 0.0078125 L 66 0.0078125 L 66 3 L 62 3 Z M 62 0.0078125 "/></clipPath><clipPath id="4f1ad00150"><path d="M 76 53 L 80 53 L 80 56.390625 L 76 56.390625 Z M 76 53 "/></clipPath><clipPath id="d59c261ba3"><path d="M 79 53 L 83 53 L 83 56.390625 L 79 56.390625 Z M 79 53 "/></clipPath><clipPath id="796f5a50c7"><path d="M 65 0.0078125 L 69 0.0078125 L 69 4 L 65 4 Z M 65 0.0078125 "/></clipPath><clipPath id="fdfd736992"><path d="M 63 0.0078125 L 67 0.0078125 L 67 4 L 63 4 Z M 63 0.0078125 "/></clipPath><clipPath id="f95c743f9a"><path d="M 96 52 L 100 52 L 100 55.984375 L 96 55.984375 Z M 96 52 "/></clipPath><clipPath id="e698aa83e5"><path d="M 99 52 L 103 52 L 103 55.984375 L 99 55.984375 Z M 99 52 "/></clipPath><clipPath id="0d6ef7cdad"><path d="M 85 55.203125 L 89 55.203125 L 89 59 L 85 59 Z M 85 55.203125 "/></clipPath><clipPath id="85582091d2"><path d="M 82 55.203125 L 85 55.203125 L 85 59 L 82 59 Z M 82 55.203125 "/></clipPath><clipPath id="4de5e871d9"><path d="M 105 65 L 111.640625 65 L 111.640625 71 L 105 71 Z M 105 65 "/></clipPath><clipPath id="20ece9fee1"><path d="M 108 65 L 111.640625 65 L 111.640625 69 L 108 69 Z M 108 65 "/></clipPath><clipPath id="346ade8fd1"><path d="M 108 67 L 111.640625 67 L 111.640625 71 L 108 71 Z M 108 67 "/></clipPath><clipPath id="4e16b7e605"><path d="M 95 108 L 99 108 L 99 111.582031 L 95 111.582031 Z M 95 108 "/></clipPath><clipPath id="805be3cee2"><path d="M 99 108 L 103 108 L 103 111.582031 L 99 111.582031 Z M 99 108 "/></clipPath><clipPath id="0d806c0b86"><path d="M 84 55.203125 L 88 55.203125 L 88 59 L 84 59 Z M 84 55.203125 "/></clipPath><clipPath id="3ac38bfa24"><path d="M 82 55.203125 L 86 55.203125 L 86 59 L 82 59 Z M 82 55.203125 "/></clipPath><clipPath id="e4523a0d98"><path d="M 48 55.605469 L 52 55.605469 L 52 59 L 48 59 Z M 48 55.605469 "/></clipPath><clipPath id="b1252b3a46"><path d="M 44 55.605469 L 48 55.605469 L 48 59 L 44 59 Z M 44 55.605469 "/></clipPath><clipPath id="9c4bb11ee9"><path d="M 58 108 L 62 108 L 62 111.988281 L 58 111.988281 Z M 58 108 "/></clipPath><clipPath id="2844bf6cd0"><path d="M 61 108 L 65 108 L 65 111.988281 L 61 111.988281 Z M 61 108 "/></clipPath><clipPath id="92ec054d22"><path d="M 13 55.605469 L 17 55.605469 L 17 59 L 13 59 Z M 13 55.605469 "/></clipPath><clipPath id="6095306ea5"><path d="M 10 55.605469 L 14 55.605469 L 14 59 L 10 59 Z M 10 55.605469 "/></clipPath><clipPath id="4f4dfd8aa0"><path d="M 24 108 L 28 108 L 28 111.988281 L 24 111.988281 Z M 24 108 "/></clipPath><clipPath id="d4e1adfe51"><path d="M 27 108 L 31 108 L 31 111.988281 L 27 111.988281 Z M 27 108 "/></clipPath></defs><g id="a1309a3c81"><path style=" stroke:none;fill-rule:nonzero;fill:#000000;fill-opacity:1;" d="M 7.820312 28.269531 C 6.480469 28.390625 6.378906 28.492188 6.257812 29.832031 C 6.132812 28.492188 6.035156 28.390625 4.695312 28.269531 C 6.035156 28.144531 6.132812 28.046875 6.257812 26.707031 C 6.378906 28.046875 6.480469 28.144531 7.820312 28.269531 Z M 7.820312 28.269531 "/><path style=" stroke:none;fill-rule:nonzero;fill:#000000;fill-opacity:1;" d="M 38.242188 42.644531 C 36.035156 42.847656 35.871094 43.011719 35.667969 45.21875 C 35.464844 43.011719 35.300781 42.847656 33.09375 42.644531 C 35.300781 42.441406 35.464844 42.277344 35.667969 40.070312 C 35.871094 42.277344 36.035156 42.441406 38.242188 42.644531 Z M 38.242188 42.644531 "/><path style="fill:none;stroke-width:5;stroke-linecap:butt;stroke-linejoin:miter;stroke:#000000;stroke-opacity:1;stroke-miterlimit:4;" d="M 0.181612 -80.632177 C 44.975713 -80.632177 81.37092 -45.17018 81.37092 -0.376079 C 81.37092 44.418022 44.975713 80.813229 0.181612 80.813229 C -44.612489 80.813229 -81.007696 44.418022 -81.007696 -0.376079 C -81.007696 -45.17018 -44.612489 -80.632177 0.181612 -80.632177 Z M 0.181612 -80.632177 " transform="matrix(0.00418582,0,0,0.00418582,35.659396,42.638293)"/><path style="fill:none;stroke-width:5;stroke-linecap:butt;stroke-linejoin:miter;stroke:#000000;stroke-opacity:1;stroke-miterlimit:4;" d="M -175.956789 503.195348 C -175.956789 503.195348 -176.027445 503.266004 -176.027445 503.266004 " transform="matrix(0.0552859,0,0,0.0552859,22.321676,-22.585224)"/><g clip-rule="nonzero" clip-path="url(#a3eac7f016)"><path style="fill:none;stroke-width:5;stroke-linecap:butt;stroke-linejoin:miter;stroke:#000000;stroke-opacity:1;stroke-miterlimit:4;" d="M -163.844922 490.550852 C -163.774267 490.550852 -163.774267 490.480197 -163.774267 490.480197 " transform="matrix(0.0552859,0,0,0.0552859,25.417686,-25.667412)"/></g><path style="fill:none;stroke-width:5;stroke-linecap:butt;stroke-linejoin:miter;stroke:#000000;stroke-opacity:1;stroke-miterlimit:4;" d="M -107.844916 502.912726 C -107.77426 502.983382 -107.77426 502.983382 -107.77426 502.983382 " transform="matrix(0.0552859,0,0,0.0552859,22.321676,-22.585224)"/><g clip-rule="nonzero" clip-path="url(#cb283b2f5b)"><path style="fill:none;stroke-width:5;stroke-linecap:butt;stroke-linejoin:miter;stroke:#000000;stroke-opacity:1;stroke-miterlimit:4;" d="M -119.277431 488.800865 C -119.348086 488.800865 -119.348086 488.73021 -119.348086 488.73021 " transform="matrix(0.0552859,0,0,0.0552859,19.184202,-25.570662)"/></g><path style="fill:none;stroke-width:5;stroke-linecap:butt;stroke-linejoin:miter;stroke:#000000;stroke-opacity:1;stroke-miterlimit:4;" d="M -174.992521 502.221956 C -175.62842 502.857856 -175.981697 503.281789 -175.981697 503.281789 " transform="matrix(0.0552859,0,0,0.0552859,31.471491,-3.898596)"/><path style="fill:none;stroke-width:5;stroke-linecap:butt;stroke-linejoin:miter;stroke:#000000;stroke-opacity:1;stroke-miterlimit:4;" d="M -164.717661 491.485159 C -164.152418 490.919915 -163.728485 490.495983 -163.728485 490.495983 " transform="matrix(0.0552859,0,0,0.0552859,34.567499,-6.980784)"/><path style="fill:none;stroke-width:5;stroke-linecap:butt;stroke-linejoin:miter;stroke:#000000;stroke-opacity:1;stroke-miterlimit:4;" d="M -108.788345 501.939335 C -108.152446 502.575234 -107.728513 502.999167 -107.728513 502.999167 " transform="matrix(0.0552859,0,0,0.0552859,31.471491,-3.898596)"/><path style="fill:none;stroke-width:5;stroke-linecap:butt;stroke-linejoin:miter;stroke:#000000;stroke-opacity:1;stroke-miterlimit:4;" d="M -118.383818 489.805814 C -119.019717 489.169915 -119.372994 488.745982 -119.372994 488.745982 " transform="matrix(0.0552859,0,0,0.0552859,28.334016,-6.884034)"/><path style=" stroke:none;fill-rule:nonzero;fill:#000000;fill-opacity:1;" d="M 41.863281 13.453125 C 39.3125 13.6875 39.121094 13.878906 38.886719 16.429688 C 38.652344 13.878906 38.460938 13.6875 35.910156 13.453125 C 38.460938 13.21875 38.652344 13.027344 38.886719 10.476562 C 39.121094 13.027344 39.3125 13.21875 41.863281 13.453125 Z M 41.863281 13.453125 "/><path style="fill:none;stroke-width:5;stroke-linecap:butt;stroke-linejoin:miter;stroke:#000000;stroke-opacity:1;stroke-miterlimit:4;" d="M -164.272618 491.252254 C -164.272618 491.252254 -164.767206 491.817497 -165.685727 492.665363 " transform="matrix(0.0552859,0,0,0.0552859,46.730394,-12.467908)"/><path style="fill:none;stroke-width:5;stroke-linecap:butt;stroke-linejoin:miter;stroke:#000000;stroke-opacity:1;stroke-miterlimit:4;" d="M -175.406379 502.348 C -175.406379 502.348 -174.841135 501.853412 -173.993269 500.934891 " transform="matrix(0.0552859,0,0,0.0552859,49.826403,-15.550096)"/><path style="fill:none;stroke-width:5;stroke-linecap:butt;stroke-linejoin:miter;stroke:#000000;stroke-opacity:1;stroke-miterlimit:4;" d="M -119.759671 490.757665 C -119.759671 490.757665 -119.194428 491.322909 -118.346562 492.24143 " transform="matrix(0.0552859,0,0,0.0552859,46.730394,-12.467908)"/><path style="fill:none;stroke-width:5;stroke-linecap:butt;stroke-linejoin:miter;stroke:#000000;stroke-opacity:1;stroke-miterlimit:4;" d="M -107.522574 500.739289 C -107.522574 500.739289 -108.087817 500.174045 -108.935683 499.32618 " transform="matrix(0.0552859,0,0,0.0552859,43.592918,-15.453344)"/><path style=" stroke:none;fill-rule:nonzero;fill:#000000;fill-opacity:1;" d="M 29.363281 56.355469 C 29.066406 56.382812 29.042969 56.402344 29.015625 56.699219 C 28.992188 56.402344 28.96875 56.382812 28.671875 56.355469 C 28.96875 56.328125 28.992188 56.304688 29.015625 56.007812 C 29.042969 56.304688 29.066406 56.328125 29.363281 56.355469 Z M 29.363281 56.355469 "/><g clip-rule="nonzero" clip-path="url(#c011055994)"><path style="fill:none;stroke-width:5;stroke-linecap:butt;stroke-linejoin:miter;stroke:#000000;stroke-opacity:1;stroke-miterlimit:4;" d="M -171.172551 498.326828 C -173.716148 500.94108 -175.977123 503.272711 -175.977123 503.272711 " transform="matrix(0.0552859,0,0,0.0552859,36.861863,30.433937)"/></g><path style="fill:none;stroke-width:5;stroke-linecap:butt;stroke-linejoin:miter;stroke:#000000;stroke-opacity:1;stroke-miterlimit:4;" d="M -168.528482 495.362136 C -165.984885 492.818539 -163.72391 490.486908 -163.72391 490.486908 " transform="matrix(0.0552859,0,0,0.0552859,39.957871,27.351749)"/><g clip-rule="nonzero" clip-path="url(#e87f532920)"><path style="fill:none;stroke-width:5;stroke-linecap:butt;stroke-linejoin:miter;stroke:#000000;stroke-opacity:1;stroke-miterlimit:4;" d="M -112.669822 497.973551 C -110.055569 500.587803 -107.723939 502.990089 -107.723939 502.990089 " transform="matrix(0.0552859,0,0,0.0552859,36.861863,30.433937)"/></g><path style="fill:none;stroke-width:5;stroke-linecap:butt;stroke-linejoin:miter;stroke:#000000;stroke-opacity:1;stroke-miterlimit:4;" d="M -114.493227 493.682804 C -117.036824 491.068552 -119.368455 488.736921 -119.368455 488.736921 " transform="matrix(0.0552859,0,0,0.0552859,33.72439,27.448498)"/><path style=" stroke:none;fill-rule:nonzero;fill:#000000;fill-opacity:1;" d="M 20.742188 36.921875 C 18.191406 37.15625 18 37.347656 17.765625 39.898438 C 17.53125 37.347656 17.339844 37.15625 14.789062 36.921875 C 17.339844 36.6875 17.53125 36.496094 17.765625 33.945312 C 18 36.496094 18.191406 36.6875 20.742188 36.921875 Z M 20.742188 36.921875 "/><path style="fill:none;stroke-width:5;stroke-linecap:butt;stroke-linejoin:miter;stroke:#000000;stroke-opacity:1;stroke-miterlimit:4;" d="M -164.236086 491.25032 C -164.236086 491.25032 -166.497062 493.58195 -169.111314 496.196203 " transform="matrix(0.0552859,0,0,0.0552859,25.611187,11.000949)"/><path style="fill:none;stroke-width:5;stroke-linecap:butt;stroke-linejoin:miter;stroke:#000000;stroke-opacity:1;stroke-miterlimit:4;" d="M -175.369869 502.346066 C -175.369869 502.346066 -173.108894 500.085091 -170.565297 497.470839 " transform="matrix(0.0552859,0,0,0.0552859,28.707197,7.918761)"/><path style="fill:none;stroke-width:5;stroke-linecap:butt;stroke-linejoin:miter;stroke:#000000;stroke-opacity:1;stroke-miterlimit:4;" d="M -119.72314 490.755731 C -119.72314 490.755731 -117.39151 493.158017 -114.847913 495.77227 " transform="matrix(0.0552859,0,0,0.0552859,25.611187,11.000949)"/><path style="fill:none;stroke-width:5;stroke-linecap:butt;stroke-linejoin:miter;stroke:#000000;stroke-opacity:1;stroke-miterlimit:4;" d="M -107.486073 500.737372 C -107.486073 500.737372 -109.817703 498.405742 -112.3613 495.79149 " transform="matrix(0.0552859,0,0,0.0552859,22.473712,8.015511)"/><path style=" stroke:none;fill-rule:nonzero;fill:#000000;fill-opacity:1;" d="M 15.195312 3.335938 C 14.578125 3.390625 14.535156 3.4375 14.476562 4.054688 C 14.421875 3.4375 14.375 3.390625 13.757812 3.335938 C 14.375 3.277344 14.421875 3.234375 14.476562 2.617188 C 14.535156 3.234375 14.578125 3.277344 15.195312 3.335938 Z M 15.195312 3.335938 "/><path style="fill:none;stroke-width:5;stroke-linecap:butt;stroke-linejoin:miter;stroke:#000000;stroke-opacity:1;stroke-miterlimit:4;" d="M -164.227981 491.254574 C -164.227981 491.254574 -164.298637 491.325229 -164.369292 491.395885 " transform="matrix(0.0552859,0,0,0.0552859,22.321676,-22.585224)"/><g clip-rule="nonzero" clip-path="url(#da88e67a54)"><path style="fill:none;stroke-width:5;stroke-linecap:butt;stroke-linejoin:miter;stroke:#000000;stroke-opacity:1;stroke-miterlimit:4;" d="M -175.361764 502.350316 C -175.361764 502.350316 -175.291108 502.350316 -175.220453 502.209005 " transform="matrix(0.0552859,0,0,0.0552859,25.417686,-25.667412)"/></g><path style="fill:none;stroke-width:5;stroke-linecap:butt;stroke-linejoin:miter;stroke:#000000;stroke-opacity:1;stroke-miterlimit:4;" d="M -119.715035 490.759986 C -119.715035 490.759986 -119.715035 490.830641 -119.573724 490.901296 " transform="matrix(0.0552859,0,0,0.0552859,22.321676,-22.585224)"/><g clip-rule="nonzero" clip-path="url(#79e24d98f4)"><path style="fill:none;stroke-width:5;stroke-linecap:butt;stroke-linejoin:miter;stroke:#000000;stroke-opacity:1;stroke-miterlimit:4;" d="M -107.477967 500.74164 C -107.477967 500.74164 -107.548623 500.670984 -107.619278 500.600329 " transform="matrix(0.0552859,0,0,0.0552859,19.184202,-25.570662)"/></g><path style=" stroke:none;fill-rule:nonzero;fill:#000000;fill-opacity:1;" d="M 59.667969 26.691406 C 58.402344 26.804688 58.308594 26.902344 58.191406 28.164062 C 58.078125 26.902344 57.980469 26.804688 56.71875 26.691406 C 57.980469 26.574219 58.078125 26.480469 58.191406 25.214844 C 58.308594 26.480469 58.402344 26.574219 59.667969 26.691406 Z M 59.667969 26.691406 "/><path style=" stroke:none;fill-rule:nonzero;fill:#000000;fill-opacity:1;" d="M 88.398438 40.261719 C 86.3125 40.453125 86.15625 40.609375 85.964844 42.695312 C 85.773438 40.609375 85.617188 40.453125 83.535156 40.261719 C 85.617188 40.070312 85.773438 39.914062 85.964844 37.832031 C 86.15625 39.914062 86.3125 40.070312 88.398438 40.261719 Z M 88.398438 40.261719 "/><path style="fill:none;stroke-width:5;stroke-linecap:butt;stroke-linejoin:miter;stroke:#000000;stroke-opacity:1;stroke-miterlimit:4;" d="M 0.0805256 -81.115872 C 44.553792 -81.115872 81.1207 -44.548964 81.1207 -0.0756976 C 81.1207 44.397569 44.553792 80.964477 0.0805256 80.964477 C -44.392741 80.964477 -80.959649 44.397569 -80.959649 -0.0756976 C -80.959649 -44.548964 -44.392741 -81.115872 0.0805256 -81.115872 Z M 0.0805256 -81.115872 " transform="matrix(0.00395251,0,0,0.00395251,85.956713,40.258112)"/><path style="fill:none;stroke-width:5;stroke-linecap:butt;stroke-linejoin:miter;stroke:#000000;stroke-opacity:1;stroke-miterlimit:4;" d="M -175.973853 503.167227 C -175.973853 503.242053 -175.973853 503.242053 -175.973853 503.242053 " transform="matrix(0.0522044,0,0,0.0522044,73.362394,-21.330053)"/><g clip-rule="nonzero" clip-path="url(#33661c3073)"><path style="fill:none;stroke-width:5;stroke-linecap:butt;stroke-linejoin:miter;stroke:#000000;stroke-opacity:1;stroke-miterlimit:4;" d="M -163.807331 490.601058 C -163.807331 490.526232 -163.732505 490.526232 -163.732505 490.526232 " transform="matrix(0.0522044,0,0,0.0522044,76.285842,-24.24045)"/></g><path style="fill:none;stroke-width:5;stroke-linecap:butt;stroke-linejoin:miter;stroke:#000000;stroke-opacity:1;stroke-miterlimit:4;" d="M -107.807331 502.942749 C -107.807331 502.942749 -107.732505 503.017575 -107.732505 503.017575 " transform="matrix(0.0522044,0,0,0.0522044,73.362394,-21.330053)"/><g clip-rule="nonzero" clip-path="url(#39630aee48)"><path style="fill:none;stroke-width:5;stroke-linecap:butt;stroke-linejoin:miter;stroke:#000000;stroke-opacity:1;stroke-miterlimit:4;" d="M -119.298743 488.851067 C -119.373569 488.776241 -119.373569 488.776241 -119.373569 488.776241 " transform="matrix(0.0522044,0,0,0.0522044,70.399797,-24.149093)"/></g><path style="fill:none;stroke-width:5;stroke-linecap:butt;stroke-linejoin:miter;stroke:#000000;stroke-opacity:1;stroke-miterlimit:4;" d="M -174.985927 502.258527 C -175.584536 502.857135 -176.033492 503.231265 -176.033492 503.231265 " transform="matrix(0.0522044,0,0,0.0522044,82.002226,-3.684959)"/><path style="fill:none;stroke-width:5;stroke-linecap:butt;stroke-linejoin:miter;stroke:#000000;stroke-opacity:1;stroke-miterlimit:4;" d="M -164.764882 491.488168 C -164.091447 490.88956 -163.717317 490.51543 -163.717317 490.51543 " transform="matrix(0.0522044,0,0,0.0522044,84.925674,-6.595355)"/><path style="fill:none;stroke-width:5;stroke-linecap:butt;stroke-linejoin:miter;stroke:#000000;stroke-opacity:1;stroke-miterlimit:4;" d="M -108.764882 501.959223 C -108.166274 502.632657 -107.717318 503.006787 -107.717318 503.006787 " transform="matrix(0.0522044,0,0,0.0522044,82.002226,-3.684959)"/><path style="fill:none;stroke-width:5;stroke-linecap:butt;stroke-linejoin:miter;stroke:#000000;stroke-opacity:1;stroke-miterlimit:4;" d="M -118.385643 489.812994 C -118.984252 489.13956 -119.358382 488.76543 -119.358382 488.76543 " transform="matrix(0.0522044,0,0,0.0522044,79.039629,-6.503997)"/><path style=" stroke:none;fill-rule:nonzero;fill:#000000;fill-opacity:1;" d="M 91.8125 12.699219 C 89.40625 12.921875 89.226562 13.101562 89.003906 15.511719 C 88.78125 13.101562 88.601562 12.921875 86.191406 12.699219 C 88.601562 12.476562 88.78125 12.296875 89.003906 9.886719 C 89.226562 12.296875 89.40625 12.476562 91.8125 12.699219 Z M 91.8125 12.699219 "/><path style="fill:none;stroke-width:5;stroke-linecap:butt;stroke-linejoin:miter;stroke:#000000;stroke-opacity:1;stroke-miterlimit:4;" d="M -164.252545 491.219535 C -164.252545 491.219535 -164.776327 491.818143 -165.67424 492.716056 " transform="matrix(0.0522044,0,0,0.0522044,96.410646,-11.776643)"/><path style="fill:none;stroke-width:5;stroke-linecap:butt;stroke-linejoin:miter;stroke:#000000;stroke-opacity:1;stroke-miterlimit:4;" d="M -175.356921 502.373221 C -175.356921 502.373221 -174.833138 501.849438 -174.010052 500.951526 " transform="matrix(0.0522044,0,0,0.0522044,99.334094,-14.68704)"/><path style="fill:none;stroke-width:5;stroke-linecap:butt;stroke-linejoin:miter;stroke:#000000;stroke-opacity:1;stroke-miterlimit:4;" d="M -119.731051 490.770579 C -119.731051 490.770579 -119.207269 491.294361 -118.309356 492.192273 " transform="matrix(0.0522044,0,0,0.0522044,96.410646,-11.776643)"/><path style="fill:none;stroke-width:5;stroke-linecap:butt;stroke-linejoin:miter;stroke:#000000;stroke-opacity:1;stroke-miterlimit:4;" d="M -107.502609 500.772864 C -107.502609 500.772864 -108.026391 500.174256 -108.924303 499.276343 " transform="matrix(0.0522044,0,0,0.0522044,93.448049,-14.595682)"/><path style=" stroke:none;fill-rule:nonzero;fill:#000000;fill-opacity:1;" d="M 80.011719 53.210938 C 79.730469 53.234375 79.710938 53.257812 79.683594 53.535156 C 79.660156 53.257812 79.636719 53.234375 79.359375 53.210938 C 79.636719 53.183594 79.660156 53.164062 79.683594 52.882812 C 79.710938 53.164062 79.730469 53.183594 80.011719 53.210938 Z M 80.011719 53.210938 "/><g clip-rule="nonzero" clip-path="url(#4f1ad00150)"><path style="fill:none;stroke-width:5;stroke-linecap:butt;stroke-linejoin:miter;stroke:#000000;stroke-opacity:1;stroke-miterlimit:4;" d="M -171.171492 498.348906 C -173.715578 500.892991 -176.035185 503.212598 -176.035185 503.212598 " transform="matrix(0.0522044,0,0,0.0522044,87.092158,28.733984)"/></g><path style="fill:none;stroke-width:5;stroke-linecap:butt;stroke-linejoin:miter;stroke:#000000;stroke-opacity:1;stroke-miterlimit:4;" d="M -168.507831 495.36047 C -166.038572 492.816385 -163.718964 490.496778 -163.718964 490.496778 " transform="matrix(0.0522044,0,0,0.0522044,90.015604,25.823588)"/><g clip-rule="nonzero" clip-path="url(#d59c261ba3)"><path style="fill:none;stroke-width:5;stroke-linecap:butt;stroke-linejoin:miter;stroke:#000000;stroke-opacity:1;stroke-miterlimit:4;" d="M -112.657529 497.974776 C -110.113444 500.593687 -107.719011 502.98812 -107.719011 502.98812 " transform="matrix(0.0522044,0,0,0.0522044,87.092158,28.733984)"/></g><path style="fill:none;stroke-width:5;stroke-linecap:butt;stroke-linejoin:miter;stroke:#000000;stroke-opacity:1;stroke-miterlimit:4;" d="M -114.496245 493.685269 C -117.04033 491.066358 -119.359937 488.74675 -119.359937 488.74675 " transform="matrix(0.0522044,0,0,0.0522044,84.129554,25.914947)"/><path style=" stroke:none;fill-rule:nonzero;fill:#000000;fill-opacity:1;" d="M 71.871094 34.859375 C 69.464844 35.082031 69.285156 35.261719 69.0625 37.671875 C 68.839844 35.261719 68.660156 35.082031 66.25 34.859375 C 68.660156 34.636719 68.839844 34.457031 69.0625 32.050781 C 69.285156 34.457031 69.464844 34.636719 71.871094 34.859375 Z M 71.871094 34.859375 "/><path style="fill:none;stroke-width:5;stroke-linecap:butt;stroke-linejoin:miter;stroke:#000000;stroke-opacity:1;stroke-miterlimit:4;" d="M -164.239517 491.282497 C -164.239517 491.282497 -166.559125 493.602104 -169.10321 496.221016 " transform="matrix(0.0522044,0,0,0.0522044,76.46856,10.384132)"/><path style="fill:none;stroke-width:5;stroke-linecap:butt;stroke-linejoin:miter;stroke:#000000;stroke-opacity:1;stroke-miterlimit:4;" d="M -175.343847 502.361348 C -175.343847 502.361348 -173.099066 500.041741 -170.629807 497.497655 " transform="matrix(0.0522044,0,0,0.0522044,79.392005,7.473736)"/><path style="fill:none;stroke-width:5;stroke-linecap:butt;stroke-linejoin:miter;stroke:#000000;stroke-opacity:1;stroke-miterlimit:4;" d="M -119.718024 490.758715 C -119.718024 490.758715 -117.398417 493.153148 -114.779505 495.77206 " transform="matrix(0.0522044,0,0,0.0522044,76.46856,10.384132)"/><path style="fill:none;stroke-width:5;stroke-linecap:butt;stroke-linejoin:miter;stroke:#000000;stroke-opacity:1;stroke-miterlimit:4;" d="M -107.489444 500.761 C -107.489444 500.761 -109.809051 498.441393 -112.353137 495.822482 " transform="matrix(0.0522044,0,0,0.0522044,73.505955,7.565094)"/><path style=" stroke:none;fill-rule:nonzero;fill:#000000;fill-opacity:1;" d="M 66.632812 3.144531 C 66.050781 3.199219 66.007812 3.242188 65.957031 3.824219 C 65.902344 3.242188 65.859375 3.199219 65.277344 3.144531 C 65.859375 3.09375 65.902344 3.050781 65.957031 2.46875 C 66.007812 3.050781 66.050781 3.09375 66.632812 3.144531 Z M 66.632812 3.144531 "/><path style="fill:none;stroke-width:5;stroke-linecap:butt;stroke-linejoin:miter;stroke:#000000;stroke-opacity:1;stroke-miterlimit:4;" d="M -164.226165 491.269886 C -164.226165 491.269886 -164.300991 491.269886 -164.375817 491.419538 " transform="matrix(0.0522044,0,0,0.0522044,73.362394,-21.330053)"/><g clip-rule="nonzero" clip-path="url(#796f5a50c7)"><path style="fill:none;stroke-width:5;stroke-linecap:butt;stroke-linejoin:miter;stroke:#000000;stroke-opacity:1;stroke-miterlimit:4;" d="M -175.405367 502.348746 C -175.405367 502.348746 -175.330541 502.348746 -175.255715 502.199094 " transform="matrix(0.0522044,0,0,0.0522044,76.285842,-24.24045)"/></g><path style="fill:none;stroke-width:5;stroke-linecap:butt;stroke-linejoin:miter;stroke:#000000;stroke-opacity:1;stroke-miterlimit:4;" d="M -119.779497 490.746104 C -119.779497 490.746104 -119.704671 490.82093 -119.629845 490.895756 " transform="matrix(0.0522044,0,0,0.0522044,73.362394,-21.330053)"/><g clip-rule="nonzero" clip-path="url(#fdfd736992)"><path style="fill:none;stroke-width:5;stroke-linecap:butt;stroke-linejoin:miter;stroke:#000000;stroke-opacity:1;stroke-miterlimit:4;" d="M -107.476229 500.748408 C -107.476229 500.748408 -107.551055 500.673582 -107.625881 500.598756 " transform="matrix(0.0522044,0,0,0.0522044,70.399797,-24.149093)"/></g><path style=" stroke:none;fill-rule:nonzero;fill:#000000;fill-opacity:1;" d="M 79.691406 26.285156 C 78.425781 26.402344 78.332031 26.496094 78.214844 27.761719 C 78.101562 26.496094 78.007812 26.402344 76.742188 26.285156 C 78.007812 26.167969 78.101562 26.074219 78.214844 24.8125 C 78.332031 26.074219 78.425781 26.167969 79.691406 26.285156 Z M 79.691406 26.285156 "/><path style=" stroke:none;fill-rule:nonzero;fill:#000000;fill-opacity:1;" d="M 108.421875 39.859375 C 106.335938 40.050781 106.179688 40.207031 105.988281 42.289062 C 105.796875 40.207031 105.640625 40.050781 103.558594 39.859375 C 105.640625 39.667969 105.796875 39.511719 105.988281 37.429688 C 106.179688 39.511719 106.335938 39.667969 108.421875 39.859375 Z M 108.421875 39.859375 "/><path style="fill:none;stroke-width:5;stroke-linecap:butt;stroke-linejoin:miter;stroke:#000000;stroke-opacity:1;stroke-miterlimit:4;" d="M -0.001707 -80.73552 C 44.471559 -80.73552 81.038467 -45.156907 81.038467 0.304654 C 81.038467 44.777921 44.471559 81.344829 -0.001707 81.344829 C -44.474973 81.344829 -81.041881 44.777921 -81.041881 0.304654 C -81.041881 -45.156907 -44.474973 -80.73552 -0.001707 -80.73552 Z M -0.001707 -80.73552 " transform="matrix(0.00395251,0,0,0.00395251,105.980475,39.854265)"/><path style="fill:none;stroke-width:5;stroke-linecap:butt;stroke-linejoin:miter;stroke:#000000;stroke-opacity:1;stroke-miterlimit:4;" d="M -175.905253 503.196001 C -175.980079 503.196001 -175.980079 503.270827 -175.980079 503.270827 " transform="matrix(0.0522044,0,0,0.0522044,93.386157,-21.733899)"/><path style="fill:none;stroke-width:5;stroke-linecap:butt;stroke-linejoin:miter;stroke:#000000;stroke-opacity:1;stroke-miterlimit:4;" d="M -163.813557 490.555006 C -163.738731 490.555006 -163.738731 490.48018 -163.738731 490.48018 " transform="matrix(0.0522044,0,0,0.0522044,96.309604,-24.644296)"/><path style="fill:none;stroke-width:5;stroke-linecap:butt;stroke-linejoin:miter;stroke:#000000;stroke-opacity:1;stroke-miterlimit:4;" d="M -107.813557 502.896697 C -107.738731 502.971523 -107.738731 502.971523 -107.738731 502.971523 " transform="matrix(0.0522044,0,0,0.0522044,93.386157,-21.733899)"/><path style="fill:none;stroke-width:5;stroke-linecap:butt;stroke-linejoin:miter;stroke:#000000;stroke-opacity:1;stroke-miterlimit:4;" d="M -119.304969 488.805016 C -119.379795 488.805016 -119.379795 488.73019 -119.379795 488.73019 " transform="matrix(0.0522044,0,0,0.0522044,90.423559,-24.552939)"/><path style="fill:none;stroke-width:5;stroke-linecap:butt;stroke-linejoin:miter;stroke:#000000;stroke-opacity:1;stroke-miterlimit:4;" d="M -174.992153 502.212479 C -175.590762 502.885913 -175.964892 503.260043 -175.964892 503.260043 " transform="matrix(0.0522044,0,0,0.0522044,102.025989,-4.088805)"/><path style="fill:none;stroke-width:5;stroke-linecap:butt;stroke-linejoin:miter;stroke:#000000;stroke-opacity:1;stroke-miterlimit:4;" d="M -164.771108 491.516952 C -164.097673 490.918343 -163.723543 490.469387 -163.723543 490.469387 " transform="matrix(0.0522044,0,0,0.0522044,104.949436,-6.999201)"/><path style="fill:none;stroke-width:5;stroke-linecap:butt;stroke-linejoin:miter;stroke:#000000;stroke-opacity:1;stroke-miterlimit:4;" d="M -108.771108 501.988 C -108.1725 502.586609 -107.723544 503.035565 -107.723544 503.035565 " transform="matrix(0.0522044,0,0,0.0522044,102.025989,-4.088805)"/><path style="fill:none;stroke-width:5;stroke-linecap:butt;stroke-linejoin:miter;stroke:#000000;stroke-opacity:1;stroke-miterlimit:4;" d="M -118.391869 489.766952 C -118.990478 489.168344 -119.364608 488.719387 -119.364608 488.719387 " transform="matrix(0.0522044,0,0,0.0522044,99.063391,-6.907843)"/><path style=" stroke:none;fill-rule:nonzero;fill:#000000;fill-opacity:1;" d="M 111.839844 12.296875 C 109.429688 12.515625 109.25 12.695312 109.027344 15.105469 C 108.804688 12.695312 108.625 12.515625 106.214844 12.296875 C 108.625 12.074219 108.804688 11.894531 109.027344 9.484375 C 109.25 11.894531 109.429688 12.074219 111.839844 12.296875 Z M 111.839844 12.296875 "/><path style="fill:none;stroke-width:5;stroke-linecap:butt;stroke-linejoin:miter;stroke:#000000;stroke-opacity:1;stroke-miterlimit:4;" d="M -164.258771 491.248328 C -164.258771 491.248328 -164.782553 491.846936 -165.680466 492.670022 " transform="matrix(0.0522044,0,0,0.0522044,116.434409,-12.18049)"/><path style="fill:none;stroke-width:5;stroke-linecap:butt;stroke-linejoin:miter;stroke:#000000;stroke-opacity:1;stroke-miterlimit:4;" d="M -175.363147 502.402013 C -175.363147 502.402013 -174.839364 501.803405 -174.016278 500.980319 " transform="matrix(0.0522044,0,0,0.0522044,119.357856,-15.090887)"/><path style="fill:none;stroke-width:5;stroke-linecap:butt;stroke-linejoin:miter;stroke:#000000;stroke-opacity:1;stroke-miterlimit:4;" d="M -119.737277 490.724545 C -119.737277 490.724545 -119.213495 491.323154 -118.315582 492.221066 " transform="matrix(0.0522044,0,0,0.0522044,116.434409,-12.18049)"/><path style="fill:none;stroke-width:5;stroke-linecap:butt;stroke-linejoin:miter;stroke:#000000;stroke-opacity:1;stroke-miterlimit:4;" d="M -107.508835 500.726812 C -107.508835 500.726812 -108.032617 500.20303 -108.930529 499.305118 " transform="matrix(0.0522044,0,0,0.0522044,113.471811,-14.999528)"/><path style=" stroke:none;fill-rule:nonzero;fill:#000000;fill-opacity:1;" d="M 100.035156 52.804688 C 99.753906 52.832031 99.734375 52.851562 99.707031 53.132812 C 99.683594 52.851562 99.664062 52.832031 99.382812 52.804688 C 99.664062 52.78125 99.683594 52.757812 99.707031 52.480469 C 99.734375 52.757812 99.753906 52.78125 100.035156 52.804688 Z M 100.035156 52.804688 "/><g clip-rule="nonzero" clip-path="url(#f95c743f9a)"><path style="fill:none;stroke-width:5;stroke-linecap:butt;stroke-linejoin:miter;stroke:#000000;stroke-opacity:1;stroke-miterlimit:4;" d="M -171.177718 498.302859 C -173.721804 500.92177 -175.966585 503.241377 -175.966585 503.241377 " transform="matrix(0.0522044,0,0,0.0522044,107.115921,28.330138)"/></g><path style="fill:none;stroke-width:5;stroke-linecap:butt;stroke-linejoin:miter;stroke:#000000;stroke-opacity:1;stroke-miterlimit:4;" d="M -168.514103 495.389245 C -165.970017 492.770333 -163.725236 490.525552 -163.725236 490.525552 " transform="matrix(0.0522044,0,0,0.0522044,110.039368,25.419742)"/><g clip-rule="nonzero" clip-path="url(#e698aa83e5)"><path style="fill:none;stroke-width:5;stroke-linecap:butt;stroke-linejoin:miter;stroke:#000000;stroke-opacity:1;stroke-miterlimit:4;" d="M -112.663755 497.928729 C -110.044844 500.622466 -107.725237 503.016899 -107.725237 503.016899 " transform="matrix(0.0522044,0,0,0.0522044,107.115921,28.330138)"/></g><path style="fill:none;stroke-width:5;stroke-linecap:butt;stroke-linejoin:miter;stroke:#000000;stroke-opacity:1;stroke-miterlimit:4;" d="M -114.502471 493.714048 C -117.046556 491.095137 -119.366163 488.775529 -119.366163 488.775529 " transform="matrix(0.0522044,0,0,0.0522044,104.153316,25.511101)"/><path style=" stroke:none;fill-rule:nonzero;fill:#000000;fill-opacity:1;" d="M 91.894531 34.457031 C 89.488281 34.679688 89.308594 34.859375 89.085938 37.265625 C 88.863281 34.859375 88.683594 34.679688 86.273438 34.457031 C 88.683594 34.234375 88.863281 34.054688 89.085938 31.644531 C 89.308594 34.054688 89.488281 34.234375 91.894531 34.457031 Z M 91.894531 34.457031 "/><path style="fill:none;stroke-width:5;stroke-linecap:butt;stroke-linejoin:miter;stroke:#000000;stroke-opacity:1;stroke-miterlimit:4;" d="M -164.245743 491.236464 C -164.245743 491.236464 -166.565351 493.556071 -169.109436 496.174983 " transform="matrix(0.0522044,0,0,0.0522044,96.492323,9.980285)"/><path style="fill:none;stroke-width:5;stroke-linecap:butt;stroke-linejoin:miter;stroke:#000000;stroke-opacity:1;stroke-miterlimit:4;" d="M -175.350119 502.390132 C -175.350119 502.390132 -173.105338 500.070524 -170.561253 497.526439 " transform="matrix(0.0522044,0,0,0.0522044,99.41577,7.06989)"/><path style="fill:none;stroke-width:5;stroke-linecap:butt;stroke-linejoin:miter;stroke:#000000;stroke-opacity:1;stroke-miterlimit:4;" d="M -119.72425 490.712682 C -119.72425 490.712682 -117.404643 493.107115 -114.785731 495.800852 " transform="matrix(0.0522044,0,0,0.0522044,96.492323,9.980285)"/><path style="fill:none;stroke-width:5;stroke-linecap:butt;stroke-linejoin:miter;stroke:#000000;stroke-opacity:1;stroke-miterlimit:4;" d="M -107.49567 500.714958 C -107.49567 500.714958 -109.815277 498.395351 -112.359363 495.851265 " transform="matrix(0.0522044,0,0,0.0522044,93.529718,7.161247)"/><path style=" stroke:none;fill-rule:nonzero;fill:#000000;fill-opacity:1;" d="M 86.65625 2.742188 C 86.074219 2.796875 86.03125 2.839844 85.980469 3.421875 C 85.925781 2.839844 85.882812 2.796875 85.300781 2.742188 C 85.882812 2.6875 85.925781 2.644531 85.980469 2.0625 C 86.03125 2.644531 86.074219 2.6875 86.65625 2.742188 Z M 86.65625 2.742188 "/><path style="fill:none;stroke-width:5;stroke-linecap:butt;stroke-linejoin:miter;stroke:#000000;stroke-opacity:1;stroke-miterlimit:4;" d="M -164.232391 491.223835 C -164.232391 491.223835 -164.307217 491.298661 -164.382043 491.373487 " transform="matrix(0.0522044,0,0,0.0522044,93.386157,-21.733899)"/><path style="fill:none;stroke-width:5;stroke-linecap:butt;stroke-linejoin:miter;stroke:#000000;stroke-opacity:1;stroke-miterlimit:4;" d="M -175.411593 502.377521 C -175.411593 502.377521 -175.336767 502.302695 -175.261941 502.227869 " transform="matrix(0.0522044,0,0,0.0522044,96.309604,-24.644296)"/><path style="fill:none;stroke-width:5;stroke-linecap:butt;stroke-linejoin:miter;stroke:#000000;stroke-opacity:1;stroke-miterlimit:4;" d="M -119.785723 490.774879 C -119.785723 490.774879 -119.710897 490.774879 -119.636071 490.924531 " transform="matrix(0.0522044,0,0,0.0522044,93.386157,-21.733899)"/><path style="fill:none;stroke-width:5;stroke-linecap:butt;stroke-linejoin:miter;stroke:#000000;stroke-opacity:1;stroke-miterlimit:4;" d="M -107.482455 500.777182 C -107.482455 500.777182 -107.557281 500.702356 -107.632107 500.62753 " transform="matrix(0.0522044,0,0,0.0522044,90.423559,-24.552939)"/><path style=" stroke:none;fill-rule:nonzero;fill:#000000;fill-opacity:1;" d="M 78.984375 81.882812 C 77.71875 82 77.625 82.09375 77.507812 83.359375 C 77.390625 82.09375 77.296875 82 76.035156 81.882812 C 77.296875 81.765625 77.390625 81.671875 77.507812 80.410156 C 77.625 81.671875 77.71875 81.765625 78.984375 81.882812 Z M 78.984375 81.882812 "/><path style=" stroke:none;fill-rule:nonzero;fill:#000000;fill-opacity:1;" d="M 107.710938 95.457031 C 105.628906 95.648438 105.472656 95.804688 105.28125 97.886719 C 105.089844 95.804688 104.933594 95.648438 102.851562 95.457031 C 104.933594 95.265625 105.089844 95.109375 105.28125 93.027344 C 105.472656 95.109375 105.628906 95.265625 107.710938 95.457031 Z M 107.710938 95.457031 "/><path style="fill:none;stroke-width:5;stroke-linecap:butt;stroke-linejoin:miter;stroke:#000000;stroke-opacity:1;stroke-miterlimit:4;" d="M 0.207644 -80.633467 C 44.68091 -80.633467 81.247818 -45.054854 81.247818 0.406708 C 81.247818 44.879974 44.68091 81.446882 0.207644 81.446882 C -44.265623 81.446882 -80.83253 44.879974 -80.83253 0.406708 C -80.83253 -45.054854 -44.265623 -80.633467 0.207644 -80.633467 Z M 0.207644 -80.633467 " transform="matrix(0.00395251,0,0,0.00395251,105.272617,95.451517)"/><path style="fill:none;stroke-width:5;stroke-linecap:butt;stroke-linejoin:miter;stroke:#000000;stroke-opacity:1;stroke-miterlimit:4;" d="M -175.964183 503.203664 C -175.964183 503.203664 -175.964183 503.27849 -175.964183 503.27849 " transform="matrix(0.0522044,0,0,0.0522044,92.678296,33.863357)"/><g clip-rule="nonzero" clip-path="url(#0d6ef7cdad)"><path style="fill:none;stroke-width:5;stroke-linecap:butt;stroke-linejoin:miter;stroke:#000000;stroke-opacity:1;stroke-miterlimit:4;" d="M -163.79766 490.562632 C -163.79766 490.487806 -163.722834 490.487806 -163.722834 490.487806 " transform="matrix(0.0522044,0,0,0.0522044,95.601743,30.952962)"/></g><path style="fill:none;stroke-width:5;stroke-linecap:butt;stroke-linejoin:miter;stroke:#000000;stroke-opacity:1;stroke-miterlimit:4;" d="M -107.797661 502.90436 C -107.797661 502.979186 -107.722835 502.979186 -107.722835 502.979186 " transform="matrix(0.0522044,0,0,0.0522044,92.678296,33.863357)"/><g clip-rule="nonzero" clip-path="url(#85582091d2)"><path style="fill:none;stroke-width:5;stroke-linecap:butt;stroke-linejoin:miter;stroke:#000000;stroke-opacity:1;stroke-miterlimit:4;" d="M -119.289119 488.812674 C -119.363945 488.737848 -119.363945 488.737848 -119.363945 488.737848 " transform="matrix(0.0522044,0,0,0.0522044,89.715701,31.044318)"/></g><path style="fill:none;stroke-width:5;stroke-linecap:butt;stroke-linejoin:miter;stroke:#000000;stroke-opacity:1;stroke-miterlimit:4;" d="M -174.976303 502.220132 C -175.649737 502.893566 -176.023867 503.267697 -176.023867 503.267697 " transform="matrix(0.0522044,0,0,0.0522044,101.31813,51.508452)"/><path style="fill:none;stroke-width:5;stroke-linecap:butt;stroke-linejoin:miter;stroke:#000000;stroke-opacity:1;stroke-miterlimit:4;" d="M -164.755212 491.524569 C -164.156603 490.851134 -163.782473 490.477004 -163.782473 490.477004 " transform="matrix(0.0522044,0,0,0.0522044,104.241575,48.598057)"/><path style="fill:none;stroke-width:5;stroke-linecap:butt;stroke-linejoin:miter;stroke:#000000;stroke-opacity:1;stroke-miterlimit:4;" d="M -108.755258 501.920828 C -108.156649 502.594262 -107.782519 502.968392 -107.782519 502.968392 " transform="matrix(0.0522044,0,0,0.0522044,101.31813,51.508452)"/><path style="fill:none;stroke-width:5;stroke-linecap:butt;stroke-linejoin:miter;stroke:#000000;stroke-opacity:1;stroke-miterlimit:4;" d="M -118.376019 489.77461 C -118.974627 489.176002 -119.348757 488.727045 -119.348757 488.727045 " transform="matrix(0.0522044,0,0,0.0522044,98.355533,48.689413)"/><g clip-rule="nonzero" clip-path="url(#4de5e871d9)"><path style=" stroke:none;fill-rule:nonzero;fill:#000000;fill-opacity:1;" d="M 111.128906 67.894531 C 108.722656 68.113281 108.542969 68.292969 108.320312 70.703125 C 108.097656 68.292969 107.917969 68.113281 105.507812 67.894531 C 107.917969 67.671875 108.097656 67.492188 108.320312 65.082031 C 108.542969 67.492188 108.722656 67.671875 111.128906 67.894531 Z M 111.128906 67.894531 "/></g><path style="fill:none;stroke-width:5;stroke-linecap:butt;stroke-linejoin:miter;stroke:#000000;stroke-opacity:1;stroke-miterlimit:4;" d="M -164.24292 491.256008 C -164.24292 491.256008 -164.766703 491.779791 -165.664615 492.677703 " transform="matrix(0.0522044,0,0,0.0522044,115.72655,43.416765)"/><g clip-rule="nonzero" clip-path="url(#20ece9fee1)"><path style="fill:none;stroke-width:5;stroke-linecap:butt;stroke-linejoin:miter;stroke:#000000;stroke-opacity:1;stroke-miterlimit:4;" d="M -175.347296 502.409649 C -175.347296 502.409649 -174.823514 501.81104 -174.000427 500.987954 " transform="matrix(0.0522044,0,0,0.0522044,118.649998,40.506371)"/></g><g clip-rule="nonzero" clip-path="url(#346ade8fd1)"><path style="fill:none;stroke-width:5;stroke-linecap:butt;stroke-linejoin:miter;stroke:#000000;stroke-opacity:1;stroke-miterlimit:4;" d="M -119.721427 490.732226 C -119.721427 490.732226 -119.197644 491.330835 -118.299732 492.228747 " transform="matrix(0.0522044,0,0,0.0522044,115.72655,43.416765)"/></g><path style="fill:none;stroke-width:5;stroke-linecap:butt;stroke-linejoin:miter;stroke:#000000;stroke-opacity:1;stroke-miterlimit:4;" d="M -107.492984 500.734516 C -107.492984 500.734516 -108.016767 500.210734 -108.914679 499.312821 " transform="matrix(0.0522044,0,0,0.0522044,112.763953,40.597726)"/><path style=" stroke:none;fill-rule:nonzero;fill:#000000;fill-opacity:1;" d="M 99.328125 108.402344 C 99.046875 108.429688 99.027344 108.449219 99 108.730469 C 98.976562 108.449219 98.953125 108.429688 98.675781 108.402344 C 98.953125 108.378906 98.976562 108.355469 99 108.078125 C 99.027344 108.355469 99.046875 108.378906 99.328125 108.402344 Z M 99.328125 108.402344 "/><g clip-rule="nonzero" clip-path="url(#4e16b7e605)"><path style="fill:none;stroke-width:5;stroke-linecap:butt;stroke-linejoin:miter;stroke:#000000;stroke-opacity:1;stroke-miterlimit:4;" d="M -171.161822 498.310512 C -173.705907 500.929424 -176.025515 503.249031 -176.025515 503.249031 " transform="matrix(0.0522044,0,0,0.0522044,106.40806,83.927395)"/></g><path style="fill:none;stroke-width:5;stroke-linecap:butt;stroke-linejoin:miter;stroke:#000000;stroke-opacity:1;stroke-miterlimit:4;" d="M -168.498207 495.396857 C -166.028947 492.777945 -163.784166 490.533164 -163.784166 490.533164 " transform="matrix(0.0522044,0,0,0.0522044,109.331507,81.017001)"/><g clip-rule="nonzero" clip-path="url(#805be3cee2)"><path style="fill:none;stroke-width:5;stroke-linecap:butt;stroke-linejoin:miter;stroke:#000000;stroke-opacity:1;stroke-miterlimit:4;" d="M -112.722685 497.936382 C -110.103774 500.630119 -107.784166 503.024553 -107.784166 503.024553 " transform="matrix(0.0522044,0,0,0.0522044,106.40806,83.927395)"/></g><path style="fill:none;stroke-width:5;stroke-linecap:butt;stroke-linejoin:miter;stroke:#000000;stroke-opacity:1;stroke-miterlimit:4;" d="M -114.48662 493.721679 C -117.105532 491.102767 -119.350313 488.78316 -119.350313 488.78316 " transform="matrix(0.0522044,0,0,0.0522044,103.445458,81.108359)"/><path style=" stroke:none;fill-rule:nonzero;fill:#000000;fill-opacity:1;" d="M 91.1875 90.054688 C 88.777344 90.273438 88.597656 90.453125 88.378906 92.863281 C 88.15625 90.453125 87.976562 90.273438 85.566406 90.054688 C 87.976562 89.832031 88.15625 89.652344 88.378906 87.242188 C 88.597656 89.652344 88.777344 89.832031 91.1875 90.054688 Z M 91.1875 90.054688 "/><path style="fill:none;stroke-width:5;stroke-linecap:butt;stroke-linejoin:miter;stroke:#000000;stroke-opacity:1;stroke-miterlimit:4;" d="M -164.229847 491.244172 C -164.229847 491.244172 -166.549454 493.56378 -169.09354 496.182691 " transform="matrix(0.0522044,0,0,0.0522044,95.784461,65.577539)"/><path style="fill:none;stroke-width:5;stroke-linecap:butt;stroke-linejoin:miter;stroke:#000000;stroke-opacity:1;stroke-miterlimit:4;" d="M -175.409049 502.397812 C -175.409049 502.397812 -173.089442 500.078205 -170.620183 497.459294 " transform="matrix(0.0522044,0,0,0.0522044,98.707909,62.667145)"/><path style="fill:none;stroke-width:5;stroke-linecap:butt;stroke-linejoin:miter;stroke:#000000;stroke-opacity:1;stroke-miterlimit:4;" d="M -119.78318 490.72039 C -119.78318 490.72039 -117.388746 493.114823 -114.844661 495.808561 " transform="matrix(0.0522044,0,0,0.0522044,95.784461,65.577539)"/><path style="fill:none;stroke-width:5;stroke-linecap:butt;stroke-linejoin:miter;stroke:#000000;stroke-opacity:1;stroke-miterlimit:4;" d="M -107.479774 500.722588 C -107.479774 500.722588 -109.799381 498.402981 -112.418292 495.78407 " transform="matrix(0.0522044,0,0,0.0522044,92.821857,62.758505)"/><path style=" stroke:none;fill-rule:nonzero;fill:#000000;fill-opacity:1;" d="M 85.949219 58.339844 C 85.367188 58.394531 85.324219 58.4375 85.269531 59.015625 C 85.21875 58.4375 85.175781 58.394531 84.59375 58.339844 C 85.175781 58.285156 85.21875 58.242188 85.269531 57.660156 C 85.324219 58.242188 85.367188 58.285156 85.949219 58.339844 Z M 85.949219 58.339844 "/><path style="fill:none;stroke-width:5;stroke-linecap:butt;stroke-linejoin:miter;stroke:#000000;stroke-opacity:1;stroke-miterlimit:4;" d="M -164.216495 491.231497 C -164.216495 491.231497 -164.291321 491.306323 -164.366147 491.381149 " transform="matrix(0.0522044,0,0,0.0522044,92.678296,33.863357)"/><g clip-rule="nonzero" clip-path="url(#0d806c0b86)"><path style="fill:none;stroke-width:5;stroke-linecap:butt;stroke-linejoin:miter;stroke:#000000;stroke-opacity:1;stroke-miterlimit:4;" d="M -175.395697 502.385147 C -175.395697 502.385147 -175.320871 502.310321 -175.246045 502.235495 " transform="matrix(0.0522044,0,0,0.0522044,95.601743,30.952962)"/></g><path style="fill:none;stroke-width:5;stroke-linecap:butt;stroke-linejoin:miter;stroke:#000000;stroke-opacity:1;stroke-miterlimit:4;" d="M -119.769827 490.782541 C -119.769827 490.782541 -119.695001 490.782541 -119.620175 490.932193 " transform="matrix(0.0522044,0,0,0.0522044,92.678296,33.863357)"/><g clip-rule="nonzero" clip-path="url(#3ac38bfa24)"><path style="fill:none;stroke-width:5;stroke-linecap:butt;stroke-linejoin:miter;stroke:#000000;stroke-opacity:1;stroke-miterlimit:4;" d="M -107.466604 500.78484 C -107.466604 500.78484 -107.54143 500.710014 -107.616257 500.635188 " transform="matrix(0.0522044,0,0,0.0522044,89.715701,31.044318)"/></g><path style=" stroke:none;fill-rule:nonzero;fill:#000000;fill-opacity:1;" d="M 41.5 82.289062 C 40.234375 82.402344 40.140625 82.496094 40.023438 83.761719 C 39.910156 82.496094 39.816406 82.402344 38.550781 82.289062 C 39.816406 82.171875 39.910156 82.078125 40.023438 80.8125 C 40.140625 82.078125 40.234375 82.171875 41.5 82.289062 Z M 41.5 82.289062 "/><path style=" stroke:none;fill-rule:nonzero;fill:#000000;fill-opacity:1;" d="M 70.230469 95.859375 C 68.144531 96.050781 67.988281 96.207031 67.796875 98.292969 C 67.605469 96.207031 67.449219 96.050781 65.367188 95.859375 C 67.449219 95.667969 67.605469 95.511719 67.796875 93.429688 C 67.988281 95.511719 68.144531 95.667969 70.230469 95.859375 Z M 70.230469 95.859375 "/><path style="fill:none;stroke-width:5;stroke-linecap:butt;stroke-linejoin:miter;stroke:#000000;stroke-opacity:1;stroke-miterlimit:4;" d="M -0.0378913 -81.014725 C 44.435375 -81.014725 81.002283 -44.447817 81.002283 0.025449 C 81.002283 44.498715 44.435375 81.065623 -0.0378913 81.065623 C -44.511158 81.065623 -81.078066 44.498715 -81.078066 0.025449 C -81.078066 -44.447817 -44.511158 -81.014725 -0.0378913 -81.014725 Z M -0.0378913 -81.014725 " transform="matrix(0.00395251,0,0,0.00395251,67.789212,95.855368)"/><path style="fill:none;stroke-width:5;stroke-linecap:butt;stroke-linejoin:miter;stroke:#000000;stroke-opacity:1;stroke-miterlimit:4;" d="M -175.907947 503.174885 C -175.982773 503.249711 -175.982773 503.249711 -175.982773 503.249711 " transform="matrix(0.0522044,0,0,0.0522044,55.194891,34.267203)"/><g clip-rule="nonzero" clip-path="url(#e4523a0d98)"><path style="fill:none;stroke-width:5;stroke-linecap:butt;stroke-linejoin:miter;stroke:#000000;stroke-opacity:1;stroke-miterlimit:4;" d="M -163.816342 490.533927 C -163.741516 490.533927 -163.741516 490.533927 -163.741516 490.533927 " transform="matrix(0.0522044,0,0,0.0522044,58.118343,31.356805)"/></g><path style="fill:none;stroke-width:5;stroke-linecap:butt;stroke-linejoin:miter;stroke:#000000;stroke-opacity:1;stroke-miterlimit:4;" d="M -107.816251 502.950407 C -107.741425 502.950407 -107.741425 503.025233 -107.741425 503.025233 " transform="matrix(0.0522044,0,0,0.0522044,55.194891,34.267203)"/><g clip-rule="nonzero" clip-path="url(#b1252b3a46)"><path style="fill:none;stroke-width:5;stroke-linecap:butt;stroke-linejoin:miter;stroke:#000000;stroke-opacity:1;stroke-miterlimit:4;" d="M -119.307709 488.7839 C -119.382535 488.7839 -119.382535 488.7839 -119.382535 488.7839 " transform="matrix(0.0522044,0,0,0.0522044,52.232296,31.448164)"/></g><path style="fill:none;stroke-width:5;stroke-linecap:butt;stroke-linejoin:miter;stroke:#000000;stroke-opacity:1;stroke-miterlimit:4;" d="M -174.994893 502.191358 C -175.593501 502.864792 -175.967631 503.238922 -175.967631 503.238922 " transform="matrix(0.0522044,0,0,0.0522044,63.834726,51.912298)"/><path style="fill:none;stroke-width:5;stroke-linecap:butt;stroke-linejoin:miter;stroke:#000000;stroke-opacity:1;stroke-miterlimit:4;" d="M -164.773802 491.495886 C -164.100367 490.897277 -163.726237 490.523147 -163.726237 490.523147 " transform="matrix(0.0522044,0,0,0.0522044,66.758171,49.001899)"/><path style="fill:none;stroke-width:5;stroke-linecap:butt;stroke-linejoin:miter;stroke:#000000;stroke-opacity:1;stroke-miterlimit:4;" d="M -108.773848 501.966879 C -108.17524 502.640314 -107.726283 503.014444 -107.726283 503.014444 " transform="matrix(0.0522044,0,0,0.0522044,63.834726,51.912298)"/><path style="fill:none;stroke-width:5;stroke-linecap:butt;stroke-linejoin:miter;stroke:#000000;stroke-opacity:1;stroke-miterlimit:4;" d="M -118.394609 489.745836 C -118.993217 489.147227 -119.367347 488.773097 -119.367347 488.773097 " transform="matrix(0.0522044,0,0,0.0522044,60.872128,49.093259)"/><path style=" stroke:none;fill-rule:nonzero;fill:#000000;fill-opacity:1;" d="M 73.648438 68.296875 C 71.238281 68.519531 71.058594 68.699219 70.835938 71.109375 C 70.613281 68.699219 70.433594 68.519531 68.023438 68.296875 C 70.433594 68.074219 70.613281 67.894531 70.835938 65.484375 C 71.058594 67.894531 71.238281 68.074219 73.648438 68.296875 Z M 73.648438 68.296875 "/><path style="fill:none;stroke-width:5;stroke-linecap:butt;stroke-linejoin:miter;stroke:#000000;stroke-opacity:1;stroke-miterlimit:4;" d="M -164.26151 491.227234 C -164.26151 491.227234 -164.785293 491.825842 -165.683205 492.723755 " transform="matrix(0.0522044,0,0,0.0522044,78.243146,43.820611)"/><path style="fill:none;stroke-width:5;stroke-linecap:butt;stroke-linejoin:miter;stroke:#000000;stroke-opacity:1;stroke-miterlimit:4;" d="M -175.365886 502.38092 C -175.365886 502.38092 -174.842104 501.857138 -174.019017 500.959225 " transform="matrix(0.0522044,0,0,0.0522044,81.166593,40.910214)"/><path style="fill:none;stroke-width:5;stroke-linecap:butt;stroke-linejoin:miter;stroke:#000000;stroke-opacity:1;stroke-miterlimit:4;" d="M -119.740017 490.778278 C -119.740017 490.778278 -119.216234 491.30206 -118.318322 492.199973 " transform="matrix(0.0522044,0,0,0.0522044,78.243146,43.820611)"/><path style="fill:none;stroke-width:5;stroke-linecap:butt;stroke-linejoin:miter;stroke:#000000;stroke-opacity:1;stroke-miterlimit:4;" d="M -107.511574 500.780568 C -107.511574 500.780568 -108.035357 500.181959 -108.933269 499.284047 " transform="matrix(0.0522044,0,0,0.0522044,75.280548,41.001572)"/><path style=" stroke:none;fill-rule:nonzero;fill:#000000;fill-opacity:1;" d="M 61.84375 108.808594 C 61.5625 108.832031 61.542969 108.855469 61.515625 109.132812 C 61.492188 108.855469 61.472656 108.832031 61.191406 108.808594 C 61.472656 108.78125 61.492188 108.761719 61.515625 108.480469 C 61.542969 108.761719 61.5625 108.78125 61.84375 108.808594 Z M 61.84375 108.808594 "/><g clip-rule="nonzero" clip-path="url(#9c4bb11ee9)"><path style="fill:none;stroke-width:5;stroke-linecap:butt;stroke-linejoin:miter;stroke:#000000;stroke-opacity:1;stroke-miterlimit:4;" d="M -171.180412 498.281692 C -173.724497 500.900603 -175.969279 503.220211 -175.969279 503.220211 " transform="matrix(0.0522044,0,0,0.0522044,68.924655,84.331243)"/></g><path style="fill:none;stroke-width:5;stroke-linecap:butt;stroke-linejoin:miter;stroke:#000000;stroke-opacity:1;stroke-miterlimit:4;" d="M -168.516797 495.368174 C -165.972711 492.824089 -163.72793 490.504481 -163.72793 490.504481 " transform="matrix(0.0522044,0,0,0.0522044,71.848103,81.420842)"/><g clip-rule="nonzero" clip-path="url(#2844bf6cd0)"><path style="fill:none;stroke-width:5;stroke-linecap:butt;stroke-linejoin:miter;stroke:#000000;stroke-opacity:1;stroke-miterlimit:4;" d="M -112.666449 497.982388 C -110.047538 500.601299 -107.72793 502.995733 -107.72793 502.995733 " transform="matrix(0.0522044,0,0,0.0522044,68.924655,84.331243)"/></g><path style="fill:none;stroke-width:5;stroke-linecap:butt;stroke-linejoin:miter;stroke:#000000;stroke-opacity:1;stroke-miterlimit:4;" d="M -114.505211 493.69295 C -117.049296 491.074039 -119.368903 488.754431 -119.368903 488.754431 " transform="matrix(0.0522044,0,0,0.0522044,65.962053,81.512202)"/><path style=" stroke:none;fill-rule:nonzero;fill:#000000;fill-opacity:1;" d="M 53.703125 90.457031 C 51.296875 90.679688 51.117188 90.859375 50.894531 93.269531 C 50.671875 90.859375 50.492188 90.679688 48.082031 90.457031 C 50.492188 90.234375 50.671875 90.054688 50.894531 87.648438 C 51.117188 90.054688 51.296875 90.234375 53.703125 90.457031 Z M 53.703125 90.457031 "/><path style="fill:none;stroke-width:5;stroke-linecap:butt;stroke-linejoin:miter;stroke:#000000;stroke-opacity:1;stroke-miterlimit:4;" d="M -164.248437 491.215306 C -164.248437 491.215306 -166.568044 493.60974 -169.11213 496.153825 " transform="matrix(0.0522044,0,0,0.0522044,58.301057,65.98139)"/><path style="fill:none;stroke-width:5;stroke-linecap:butt;stroke-linejoin:miter;stroke:#000000;stroke-opacity:1;stroke-miterlimit:4;" d="M -175.352813 502.368947 C -175.352813 502.368947 -173.108032 500.049339 -170.563947 497.505254 " transform="matrix(0.0522044,0,0,0.0522044,61.224504,63.070996)"/><path style="fill:none;stroke-width:5;stroke-linecap:butt;stroke-linejoin:miter;stroke:#000000;stroke-opacity:1;stroke-miterlimit:4;" d="M -119.726944 490.76635 C -119.726944 490.76635 -117.407336 493.160783 -114.788425 495.779695 " transform="matrix(0.0522044,0,0,0.0522044,58.301057,65.98139)"/><path style="fill:none;stroke-width:5;stroke-linecap:butt;stroke-linejoin:miter;stroke:#000000;stroke-opacity:1;stroke-miterlimit:4;" d="M -107.498455 500.768732 C -107.498455 500.768732 -109.818063 498.449124 -112.362148 495.830213 " transform="matrix(0.0522044,0,0,0.0522044,55.338457,63.162346)"/><path style=" stroke:none;fill-rule:nonzero;fill:#000000;fill-opacity:1;" d="M 48.464844 58.742188 C 47.882812 58.796875 47.839844 58.839844 47.789062 59.421875 C 47.734375 58.839844 47.691406 58.796875 47.109375 58.742188 C 47.691406 58.691406 47.734375 58.644531 47.789062 58.066406 C 47.839844 58.644531 47.882812 58.691406 48.464844 58.742188 Z M 48.464844 58.742188 "/><path style="fill:none;stroke-width:5;stroke-linecap:butt;stroke-linejoin:miter;stroke:#000000;stroke-opacity:1;stroke-miterlimit:4;" d="M -164.235085 491.277544 C -164.235085 491.277544 -164.309911 491.277544 -164.384737 491.427197 " transform="matrix(0.0522044,0,0,0.0522044,55.194891,34.267203)"/><path style="fill:none;stroke-width:5;stroke-linecap:butt;stroke-linejoin:miter;stroke:#000000;stroke-opacity:1;stroke-miterlimit:4;" d="M -175.339552 502.356441 C -175.339552 502.356441 -175.339552 502.356441 -175.264726 502.206789 " transform="matrix(0.0522044,0,0,0.0522044,58.118343,31.356805)"/><path style="fill:none;stroke-width:5;stroke-linecap:butt;stroke-linejoin:miter;stroke:#000000;stroke-opacity:1;stroke-miterlimit:4;" d="M -119.713591 490.753762 C -119.713591 490.753762 -119.713591 490.828588 -119.563939 490.903414 " transform="matrix(0.0522044,0,0,0.0522044,55.194891,34.267203)"/><path style="fill:none;stroke-width:5;stroke-linecap:butt;stroke-linejoin:miter;stroke:#000000;stroke-opacity:1;stroke-miterlimit:4;" d="M -107.485194 500.756066 C -107.485194 500.756066 -107.560021 500.68124 -107.634847 500.606414 " transform="matrix(0.0522044,0,0,0.0522044,52.232296,31.448164)"/><path style=" stroke:none;fill-rule:nonzero;fill:#000000;fill-opacity:1;" d="M 7.382812 82.289062 C 6.117188 82.402344 6.023438 82.496094 5.90625 83.761719 C 5.792969 82.496094 5.699219 82.402344 4.433594 82.289062 C 5.699219 82.171875 5.792969 82.078125 5.90625 80.8125 C 6.023438 82.078125 6.117188 82.171875 7.382812 82.289062 Z M 7.382812 82.289062 "/><path style=" stroke:none;fill-rule:nonzero;fill:#000000;fill-opacity:1;" d="M 36.113281 95.859375 C 34.027344 96.050781 33.871094 96.207031 33.679688 98.292969 C 33.488281 96.207031 33.332031 96.050781 31.25 95.859375 C 33.332031 95.667969 33.488281 95.511719 33.679688 93.429688 C 33.871094 95.511719 34.027344 95.667969 36.113281 95.859375 Z M 36.113281 95.859375 "/><path style="fill:none;stroke-width:5;stroke-linecap:butt;stroke-linejoin:miter;stroke:#000000;stroke-opacity:1;stroke-miterlimit:4;" d="M 0.0056075 -81.014725 C 44.478874 -81.014725 81.045782 -44.447817 81.045782 0.025449 C 81.045782 44.498715 44.478874 81.065623 0.0056075 81.065623 C -44.467659 81.065623 -81.034567 44.498715 -81.034567 0.025449 C -81.034567 -44.447817 -44.467659 -81.014725 0.0056075 -81.014725 Z M 0.0056075 -81.014725 " transform="matrix(0.00395251,0,0,0.00395251,33.671853,95.855368)"/><path style="fill:none;stroke-width:5;stroke-linecap:butt;stroke-linejoin:miter;stroke:#000000;stroke-opacity:1;stroke-miterlimit:4;" d="M -175.904718 503.174885 C -175.979544 503.249711 -175.979544 503.249711 -175.979544 503.249711 " transform="matrix(0.0522044,0,0,0.0522044,21.077535,34.267203)"/><g clip-rule="nonzero" clip-path="url(#92ec054d22)"><path style="fill:none;stroke-width:5;stroke-linecap:butt;stroke-linejoin:miter;stroke:#000000;stroke-opacity:1;stroke-miterlimit:4;" d="M -163.813049 490.533927 C -163.738223 490.533927 -163.738223 490.533927 -163.738223 490.533927 " transform="matrix(0.0522044,0,0,0.0522044,24.000984,31.356805)"/></g><path style="fill:none;stroke-width:5;stroke-linecap:butt;stroke-linejoin:miter;stroke:#000000;stroke-opacity:1;stroke-miterlimit:4;" d="M -107.813022 502.950407 C -107.738196 502.950407 -107.738196 503.025233 -107.738196 503.025233 " transform="matrix(0.0522044,0,0,0.0522044,21.077535,34.267203)"/><g clip-rule="nonzero" clip-path="url(#6095306ea5)"><path style="fill:none;stroke-width:5;stroke-linecap:butt;stroke-linejoin:miter;stroke:#000000;stroke-opacity:1;stroke-miterlimit:4;" d="M -119.304374 488.7839 C -119.3792 488.7839 -119.3792 488.7839 -119.3792 488.7839 " transform="matrix(0.0522044,0,0,0.0522044,18.114934,31.448164)"/></g><path style="fill:none;stroke-width:5;stroke-linecap:butt;stroke-linejoin:miter;stroke:#000000;stroke-opacity:1;stroke-miterlimit:4;" d="M -174.991622 502.191358 C -175.590231 502.864792 -175.964361 503.238922 -175.964361 503.238922 " transform="matrix(0.0522044,0,0,0.0522044,29.717367,51.912298)"/><path style="fill:none;stroke-width:5;stroke-linecap:butt;stroke-linejoin:miter;stroke:#000000;stroke-opacity:1;stroke-miterlimit:4;" d="M -164.770536 491.495886 C -164.097101 490.897277 -163.722971 490.523147 -163.722971 490.523147 " transform="matrix(0.0522044,0,0,0.0522044,32.640813,49.001899)"/><path style="fill:none;stroke-width:5;stroke-linecap:butt;stroke-linejoin:miter;stroke:#000000;stroke-opacity:1;stroke-miterlimit:4;" d="M -108.770577 501.966879 C -108.171969 502.640314 -107.723013 503.014444 -107.723013 503.014444 " transform="matrix(0.0522044,0,0,0.0522044,29.717367,51.912298)"/><path style="fill:none;stroke-width:5;stroke-linecap:butt;stroke-linejoin:miter;stroke:#000000;stroke-opacity:1;stroke-miterlimit:4;" d="M -118.391283 489.745836 C -118.989892 489.147227 -119.364022 488.773097 -119.364022 488.773097 " transform="matrix(0.0522044,0,0,0.0522044,26.754767,49.093259)"/><path style=" stroke:none;fill-rule:nonzero;fill:#000000;fill-opacity:1;" d="M 39.53125 68.296875 C 37.121094 68.519531 36.941406 68.699219 36.71875 71.109375 C 36.496094 68.699219 36.316406 68.519531 33.90625 68.296875 C 36.316406 68.074219 36.496094 67.894531 36.71875 65.484375 C 36.941406 67.894531 37.121094 68.074219 39.53125 68.296875 Z M 39.53125 68.296875 "/><path style="fill:none;stroke-width:5;stroke-linecap:butt;stroke-linejoin:miter;stroke:#000000;stroke-opacity:1;stroke-miterlimit:4;" d="M -164.258203 491.227234 C -164.258203 491.227234 -164.781986 491.825842 -165.679898 492.723755 " transform="matrix(0.0522044,0,0,0.0522044,44.125785,43.820611)"/><path style="fill:none;stroke-width:5;stroke-linecap:butt;stroke-linejoin:miter;stroke:#000000;stroke-opacity:1;stroke-miterlimit:4;" d="M -175.362579 502.38092 C -175.362579 502.38092 -174.838797 501.857138 -174.01571 500.959225 " transform="matrix(0.0522044,0,0,0.0522044,47.049233,40.910214)"/><path style="fill:none;stroke-width:5;stroke-linecap:butt;stroke-linejoin:miter;stroke:#000000;stroke-opacity:1;stroke-miterlimit:4;" d="M -119.73671 490.778278 C -119.73671 490.778278 -119.212927 491.30206 -118.315015 492.199973 " transform="matrix(0.0522044,0,0,0.0522044,44.125785,43.820611)"/><path style="fill:none;stroke-width:5;stroke-linecap:butt;stroke-linejoin:miter;stroke:#000000;stroke-opacity:1;stroke-miterlimit:4;" d="M -107.508221 500.780568 C -107.508221 500.780568 -108.032004 500.181959 -108.929916 499.284047 " transform="matrix(0.0522044,0,0,0.0522044,41.163186,41.001572)"/><path style=" stroke:none;fill-rule:nonzero;fill:#000000;fill-opacity:1;" d="M 27.726562 108.808594 C 27.445312 108.832031 27.425781 108.855469 27.398438 109.132812 C 27.375 108.855469 27.355469 108.832031 27.074219 108.808594 C 27.355469 108.78125 27.375 108.761719 27.398438 108.480469 C 27.425781 108.761719 27.445312 108.78125 27.726562 108.808594 Z M 27.726562 108.808594 "/><g clip-rule="nonzero" clip-path="url(#4f4dfd8aa0)"><path style="fill:none;stroke-width:5;stroke-linecap:butt;stroke-linejoin:miter;stroke:#000000;stroke-opacity:1;stroke-miterlimit:4;" d="M -171.177142 498.281692 C -173.721227 500.900603 -175.966008 503.220211 -175.966008 503.220211 " transform="matrix(0.0522044,0,0,0.0522044,34.807297,84.331243)"/></g><path style="fill:none;stroke-width:5;stroke-linecap:butt;stroke-linejoin:miter;stroke:#000000;stroke-opacity:1;stroke-miterlimit:4;" d="M -168.513517 495.368174 C -166.044258 492.824089 -163.72465 490.504481 -163.72465 490.504481 " transform="matrix(0.0522044,0,0,0.0522044,37.730744,81.420842)"/><g clip-rule="nonzero" clip-path="url(#d4e1adfe51)"><path style="fill:none;stroke-width:5;stroke-linecap:butt;stroke-linejoin:miter;stroke:#000000;stroke-opacity:1;stroke-miterlimit:4;" d="M -112.663179 497.982388 C -110.044267 500.601299 -107.72466 502.995733 -107.72466 502.995733 " transform="matrix(0.0522044,0,0,0.0522044,34.807297,84.331243)"/></g><path style="fill:none;stroke-width:5;stroke-linecap:butt;stroke-linejoin:miter;stroke:#000000;stroke-opacity:1;stroke-miterlimit:4;" d="M -114.501972 493.69295 C -117.046057 491.074039 -119.365665 488.754431 -119.365665 488.754431 " transform="matrix(0.0522044,0,0,0.0522044,31.844697,81.512202)"/><path style=" stroke:none;fill-rule:nonzero;fill:#000000;fill-opacity:1;" d="M 19.585938 90.457031 C 17.179688 90.679688 17 90.859375 16.777344 93.269531 C 16.554688 90.859375 16.375 90.679688 13.964844 90.457031 C 16.375 90.234375 16.554688 90.054688 16.777344 87.648438 C 17 90.054688 17.179688 90.234375 19.585938 90.457031 Z M 19.585938 90.457031 "/><path style="fill:none;stroke-width:5;stroke-linecap:butt;stroke-linejoin:miter;stroke:#000000;stroke-opacity:1;stroke-miterlimit:4;" d="M -164.245162 491.215306 C -164.245162 491.215306 -166.564769 493.60974 -169.108855 496.153825 " transform="matrix(0.0522044,0,0,0.0522044,24.183698,65.98139)"/><path style="fill:none;stroke-width:5;stroke-linecap:butt;stroke-linejoin:miter;stroke:#000000;stroke-opacity:1;stroke-miterlimit:4;" d="M -175.349529 502.368947 C -175.349529 502.368947 -173.104748 500.049339 -170.560662 497.505254 " transform="matrix(0.0522044,0,0,0.0522044,27.107145,63.070996)"/><path style="fill:none;stroke-width:5;stroke-linecap:butt;stroke-linejoin:miter;stroke:#000000;stroke-opacity:1;stroke-miterlimit:4;" d="M -119.723669 490.76635 C -119.723669 490.76635 -117.404061 493.160783 -114.78515 495.779695 " transform="matrix(0.0522044,0,0,0.0522044,24.183698,65.98139)"/><path style="fill:none;stroke-width:5;stroke-linecap:butt;stroke-linejoin:miter;stroke:#000000;stroke-opacity:1;stroke-miterlimit:4;" d="M -107.495167 500.768732 C -107.495167 500.768732 -109.814774 498.449124 -112.358859 495.830213 " transform="matrix(0.0522044,0,0,0.0522044,21.221098,63.162346)"/><path style=" stroke:none;fill-rule:nonzero;fill:#000000;fill-opacity:1;" d="M 14.347656 58.742188 C 13.765625 58.796875 13.722656 58.839844 13.671875 59.421875 C 13.617188 58.839844 13.574219 58.796875 12.992188 58.742188 C 13.574219 58.691406 13.617188 58.644531 13.671875 58.066406 C 13.722656 58.644531 13.765625 58.691406 14.347656 58.742188 Z M 14.347656 58.742188 "/><path style="fill:none;stroke-width:5;stroke-linecap:butt;stroke-linejoin:miter;stroke:#000000;stroke-opacity:1;stroke-miterlimit:4;" d="M -164.231855 491.277544 C -164.231855 491.277544 -164.306682 491.277544 -164.381508 491.427197 " transform="matrix(0.0522044,0,0,0.0522044,21.077535,34.267203)"/><path style="fill:none;stroke-width:5;stroke-linecap:butt;stroke-linejoin:miter;stroke:#000000;stroke-opacity:1;stroke-miterlimit:4;" d="M -175.411085 502.356441 C -175.411085 502.356441 -175.336259 502.356441 -175.261433 502.206789 " transform="matrix(0.0522044,0,0,0.0522044,24.000984,31.356805)"/><path style="fill:none;stroke-width:5;stroke-linecap:butt;stroke-linejoin:miter;stroke:#000000;stroke-opacity:1;stroke-miterlimit:4;" d="M -119.785188 490.753762 C -119.785188 490.753762 -119.710362 490.828588 -119.635536 490.903414 " transform="matrix(0.0522044,0,0,0.0522044,21.077535,34.267203)"/><path style="fill:none;stroke-width:5;stroke-linecap:butt;stroke-linejoin:miter;stroke:#000000;stroke-opacity:1;stroke-miterlimit:4;" d="M -107.48186 500.756066 C -107.48186 500.756066 -107.556686 500.68124 -107.631512 500.606414 " transform="matrix(0.0522044,0,0,0.0522044,18.114934,31.448164)"/></g></svg>