<svg xmlns="http://www.w3.org/2000/svg" xmlns:xlink="http://www.w3.org/1999/xlink" width="500" zoomAndPan="magnify" viewBox="0 0 375 374.999991" height="500" preserveAspectRatio="xMidYMid meet" version="1.0"><defs><clipPath id="fbec5e2579"><path d="M 64 30.453125 L 331.742188 30.453125 L 331.742188 198.453125 L 64 198.453125 Z M 64 30.453125 " clip-rule="nonzero"/></clipPath><clipPath id="22c25a99b3"><path d="M 51 292.378906 L 91 292.378906 L 91 339 L 51 339 Z M 51 292.378906 " clip-rule="nonzero"/></clipPath><clipPath id="cdefaa3e86"><path d="M 51 292.378906 L 88 292.378906 L 88 338 L 51 338 Z M 51 292.378906 " clip-rule="nonzero"/></clipPath><clipPath id="f804270d45"><path d="M 38 312 L 104 312 L 104 356.878906 L 38 356.878906 Z M 38 312 " clip-rule="nonzero"/></clipPath></defs><path fill="#ffffff" d="M 329.597656 52.21875 L 84.417969 52.21875 L 84.417969 169.566406 C 84.417969 171.148438 85.070312 172.566406 86.109375 173.660156 C 87.144531 174.695312 88.617188 175.351562 90.199219 175.351562 L 323.816406 175.351562 C 325.398438 175.351562 326.871094 174.695312 327.90625 173.660156 C 328.945312 172.566406 329.601562 171.152344 329.601562 169.566406 L 329.601562 52.21875 Z M 329.597656 52.21875 " fill-opacity="1" fill-rule="nonzero"/><path fill="#99ffff" d="M 327.90625 34.054688 C 326.867188 33.015625 325.394531 32.363281 323.8125 32.363281 L 90.199219 32.363281 C 88.617188 32.363281 87.144531 33.015625 86.105469 34.054688 C 85.070312 35.089844 84.414062 36.5625 84.414062 38.144531 L 84.414062 50.257812 L 329.59375 50.257812 L 329.59375 38.144531 C 329.597656 36.5625 328.941406 35.089844 327.90625 34.054688 Z M 327.90625 34.054688 " fill-opacity="1" fill-rule="evenodd"/><path fill="#99ffff" d="M 84.742188 175.023438 C 83.324219 173.605469 82.507812 171.695312 82.507812 169.566406 L 82.507812 41.472656 L 81.523438 41.472656 C 80.652344 41.472656 79.777344 41.691406 78.960938 42.019531 C 78.140625 42.34375 77.378906 42.835938 76.777344 43.492188 C 76.121094 44.09375 75.632812 44.855469 75.304688 45.671875 C 74.976562 46.492188 74.757812 47.3125 74.757812 48.238281 L 74.757812 179.660156 C 74.757812 180.585938 74.976562 181.460938 75.304688 182.226562 C 75.632812 183.042969 76.121094 183.808594 76.777344 184.40625 C 77.378906 185.0625 78.140625 185.550781 78.960938 185.878906 C 79.777344 186.207031 80.652344 186.425781 81.523438 186.425781 L 315.140625 186.425781 C 316.066406 186.425781 316.9375 186.207031 317.703125 185.878906 C 318.578125 185.550781 319.285156 185.0625 319.941406 184.40625 C 320.539062 183.808594 321.03125 183.042969 321.414062 182.226562 C 321.742188 181.460938 321.90625 180.585938 321.90625 179.660156 L 321.90625 177.261719 L 90.199219 177.261719 C 88.070312 177.261719 86.160156 176.386719 84.742188 175.023438 Z M 84.742188 175.023438 " fill-opacity="1" fill-rule="evenodd"/><path fill="#99ffff" d="M 78.25 187.679688 C 77.160156 187.242188 76.234375 186.589844 75.414062 185.773438 C 74.597656 185.007812 73.941406 184.027344 73.503906 182.988281 C 73.125 181.953125 72.851562 180.808594 72.851562 179.664062 L 72.851562 51.621094 C 71.976562 51.621094 71.105469 51.785156 70.285156 52.113281 C 69.46875 52.441406 68.757812 52.929688 68.105469 53.585938 C 67.503906 54.183594 66.957031 54.949219 66.628906 55.765625 C 66.304688 56.585938 66.140625 57.460938 66.140625 58.332031 L 66.140625 189.753906 C 66.140625 190.679688 66.300781 191.554688 66.628906 192.316406 C 66.957031 193.136719 67.503906 193.898438 68.105469 194.554688 C 68.757812 195.15625 69.46875 195.644531 70.285156 196.027344 C 71.105469 196.355469 71.976562 196.519531 72.90625 196.519531 L 306.519531 196.519531 C 307.394531 196.519531 308.265625 196.355469 309.085938 196.027344 C 309.902344 195.648438 310.667969 195.15625 311.265625 194.554688 C 311.867188 193.898438 312.410156 193.136719 312.738281 192.316406 C 313.066406 191.554688 313.230469 190.679688 313.230469 189.753906 L 313.230469 188.335938 L 81.523438 188.335938 C 80.378906 188.335938 79.234375 188.117188 78.25 187.679688 Z M 78.25 187.679688 " fill-opacity="1" fill-rule="evenodd"/><g clip-path="url(#fbec5e2579)"><path fill="#003399" d="M 72.851562 51.621094 C 71.976562 51.621094 71.105469 51.785156 70.285156 52.113281 C 69.46875 52.4375 68.757812 52.929688 68.105469 53.585938 C 67.503906 54.183594 66.957031 54.949219 66.628906 55.765625 C 66.304688 56.585938 66.140625 57.460938 66.140625 58.332031 L 66.140625 189.753906 C 66.140625 190.679688 66.300781 191.554688 66.628906 192.316406 C 66.957031 193.136719 67.503906 193.898438 68.105469 194.554688 C 68.757812 195.15625 69.46875 195.644531 70.285156 196.027344 C 71.105469 196.355469 71.976562 196.519531 72.90625 196.519531 L 306.519531 196.519531 C 307.394531 196.519531 308.265625 196.355469 309.085938 196.027344 C 309.902344 195.648438 310.667969 195.15625 311.265625 194.554688 C 311.867188 193.898438 312.410156 193.136719 312.738281 192.316406 C 313.066406 191.554688 313.230469 190.679688 313.230469 189.753906 L 313.230469 188.335938 L 81.523438 188.335938 C 80.378906 188.335938 79.230469 188.117188 78.25 187.679688 C 77.15625 187.242188 76.230469 186.589844 75.414062 185.773438 C 74.59375 185.007812 73.9375 184.027344 73.503906 182.988281 C 73.121094 181.953125 72.847656 180.808594 72.847656 179.664062 L 72.847656 51.621094 Z M 299.589844 39.945312 L 299.589844 43.546875 L 300.191406 43.546875 L 300.191406 38.910156 L 295.609375 38.910156 L 295.609375 39.289062 L 299.589844 39.289062 Z M 274.875 41.089844 L 285.296875 41.089844 L 285.296875 43 L 274.875 43 Z M 311.703125 37.710938 L 314.703125 40.65625 L 317.703125 37.710938 L 319.066406 39.019531 L 316.066406 42.019531 L 319.066406 45.019531 L 317.703125 46.382812 L 314.703125 43.382812 L 311.703125 46.382812 L 310.335938 45.019531 L 313.339844 42.019531 L 310.335938 39.019531 Z M 299.589844 44.746094 L 299.589844 46.382812 L 292.496094 46.382812 L 292.496094 39.289062 L 294.351562 39.289062 L 294.351562 37.710938 L 301.445312 37.710938 L 301.445312 44.746094 Z M 298.335938 45.183594 L 298.335938 40.546875 L 293.753906 40.546875 L 293.753906 45.183594 Z M 90.199219 30.453125 L 323.8125 30.453125 C 325.941406 30.453125 327.851562 31.269531 329.269531 32.691406 C 330.6875 34.109375 331.5625 36.015625 331.5625 38.144531 L 331.5625 169.566406 C 331.5625 171.695312 330.6875 173.605469 329.269531 175.023438 C 327.851562 176.386719 325.941406 177.261719 323.8125 177.261719 L 323.8125 179.660156 C 323.8125 180.804688 323.59375 181.953125 323.15625 182.988281 C 322.722656 184.023438 322.066406 185.007812 321.300781 185.769531 C 320.484375 186.589844 319.5 187.242188 318.464844 187.679688 C 317.429688 188.117188 316.335938 188.335938 315.191406 188.335938 L 315.191406 189.753906 C 315.191406 190.953125 314.917969 192.042969 314.535156 193.082031 C 314.042969 194.117188 313.445312 195.101562 312.625 195.917969 C 311.808594 196.683594 310.882812 197.335938 309.789062 197.773438 C 308.753906 198.210938 307.664062 198.429688 306.515625 198.429688 L 72.902344 198.429688 C 71.703125 198.429688 70.613281 198.210938 69.578125 197.773438 C 68.484375 197.335938 67.558594 196.683594 66.738281 195.917969 C 65.976562 195.101562 65.320312 194.117188 64.882812 193.082031 C 64.449219 192.042969 64.175781 190.953125 64.175781 189.753906 L 64.175781 58.332031 C 64.175781 57.1875 64.449219 56.039062 64.882812 55.058594 C 65.320312 53.96875 65.976562 53.039062 66.738281 52.222656 C 67.558594 51.402344 68.484375 50.804688 69.578125 50.3125 C 70.613281 49.929688 71.703125 49.65625 72.851562 49.65625 L 72.851562 48.238281 C 72.851562 47.09375 73.125 45.945312 73.503906 44.964844 C 73.941406 43.875 74.597656 42.890625 75.414062 42.128906 C 76.234375 41.308594 77.160156 40.65625 78.25 40.21875 C 79.234375 39.78125 80.378906 39.5625 81.527344 39.5625 L 82.507812 39.5625 L 82.507812 38.144531 C 82.507812 36.019531 83.324219 34.109375 84.746094 32.691406 C 86.160156 31.269531 88.070312 30.453125 90.199219 30.453125 Z M 321.902344 177.261719 L 90.199219 177.261719 C 88.070312 177.261719 86.160156 176.386719 84.742188 175.023438 C 83.324219 173.605469 82.507812 171.695312 82.507812 169.566406 L 82.507812 41.472656 L 81.523438 41.472656 C 80.652344 41.472656 79.777344 41.691406 78.960938 42.019531 C 78.140625 42.34375 77.378906 42.835938 76.777344 43.492188 C 76.121094 44.09375 75.632812 44.855469 75.304688 45.671875 C 74.976562 46.492188 74.757812 47.3125 74.757812 48.238281 L 74.757812 179.660156 C 74.757812 180.585938 74.976562 181.460938 75.304688 182.226562 C 75.632812 183.042969 76.121094 183.808594 76.777344 184.40625 C 77.378906 185.0625 78.140625 185.550781 78.960938 185.878906 C 79.777344 186.207031 80.652344 186.425781 81.523438 186.425781 L 315.140625 186.425781 C 316.066406 186.425781 316.9375 186.207031 317.703125 185.878906 C 318.578125 185.554688 319.285156 185.0625 319.941406 184.40625 C 320.539062 183.808594 321.03125 183.042969 321.414062 182.226562 C 321.742188 181.460938 321.90625 180.585938 321.90625 179.660156 L 321.90625 177.261719 Z M 329.597656 52.21875 L 84.417969 52.21875 L 84.417969 169.566406 C 84.417969 171.148438 85.070312 172.566406 86.109375 173.660156 C 87.144531 174.695312 88.617188 175.351562 90.199219 175.351562 L 323.8125 175.351562 C 325.394531 175.351562 326.871094 174.695312 327.90625 173.660156 C 328.945312 172.566406 329.597656 171.152344 329.597656 169.566406 Z M 323.8125 32.363281 L 90.199219 32.363281 C 88.617188 32.363281 87.144531 33.015625 86.105469 34.054688 C 85.070312 35.089844 84.414062 36.5625 84.414062 38.144531 L 84.414062 50.257812 L 329.59375 50.257812 L 329.59375 38.144531 C 329.59375 36.5625 328.9375 35.089844 327.902344 34.054688 C 326.867188 33.015625 325.394531 32.363281 323.8125 32.363281 Z M 323.8125 32.363281 " fill-opacity="1" fill-rule="nonzero"/></g><g clip-path="url(#22c25a99b3)"><path fill="#238ed5" d="M 77.429688 292.609375 C 77.535156 292.59375 77.644531 292.578125 77.75 292.5625 C 78.925781 292.382812 80.238281 293.226562 80.660156 294.421875 C 82.894531 300.726562 84.855469 307.128906 86.589844 313.585938 C 87.890625 318.414062 88.957031 323.285156 90.078125 328.15625 C 90.542969 330.195312 90.949219 332.128906 88.625 333.191406 C 87.46875 333.71875 86.015625 333.949219 85 334.234375 C 82.644531 334.898438 80.269531 335.503906 77.878906 336.035156 C 73.171875 337.082031 68.480469 338.101562 63.449219 338.757812 C 61.75 338.980469 59.0625 338.851562 57.957031 337.300781 C 57.957031 337.300781 57.953125 337.300781 57.953125 337.304688 C 57.792969 337.078125 57.671875 336.808594 57.589844 336.492188 C 54.78125 325.222656 52.753906 313.753906 51.511719 302.089844 C 51.390625 300.898438 52.199219 299.554688 53.316406 299.117188 C 61.152344 296.070312 69.1875 293.902344 77.425781 292.613281 " fill-opacity="1" fill-rule="nonzero"/></g><g clip-path="url(#cdefaa3e86)"><path fill="#f46bbd" d="M 87.304688 329.214844 C 86.816406 330.894531 85.28125 331.050781 83.523438 331.675781 C 81.804688 332.285156 80.019531 332.679688 78.246094 333.089844 C 75.199219 333.792969 72.113281 334.273438 69.054688 334.910156 C 65.226562 335.703125 61.765625 336.570312 57.953125 337.304688 C 57.792969 337.078125 57.671875 336.808594 57.589844 336.492188 C 54.78125 325.222656 52.753906 313.753906 51.511719 302.089844 C 51.390625 300.898438 52.199219 299.554688 53.316406 299.117188 C 61.152344 296.070312 69.1875 293.902344 77.425781 292.613281 C 79.796875 298.769531 81.863281 305.042969 83.613281 311.402344 C 84.367188 314.144531 84.992188 316.917969 85.664062 319.679688 C 86.042969 321.234375 86.476562 322.773438 86.898438 324.3125 C 87.28125 325.695312 87.726562 327.777344 87.304688 329.214844 Z M 57.980469 308.632812 C 58.28125 309.324219 58.730469 310.011719 59.433594 310.292969 C 60.523438 310.738281 61.835938 310.175781 62.917969 309.941406 C 66.640625 309.144531 70.199219 307.632812 73.796875 306.421875 C 74.261719 306.265625 74.734375 306.109375 75.136719 305.824219 C 75.792969 305.363281 76.03125 304.589844 76.015625 303.816406 C 75.980469 301.902344 75.757812 298.269531 73.308594 297.871094 C 72.585938 297.753906 71.851562 297.917969 71.136719 298.085938 C 67.488281 298.933594 63.902344 300.054688 60.308594 301.105469 C 58.707031 301.574219 57.828125 302.742188 57.488281 304.132812 C 57.144531 305.566406 57.371094 307.238281 57.980469 308.632812 Z M 57.980469 308.632812 " fill-opacity="1" fill-rule="nonzero"/></g><g clip-path="url(#f804270d45)"><path fill="#008c53" d="M 103.847656 329.574219 C 102.808594 334.742188 101.605469 339.875 100.246094 344.964844 C 99.5625 347.507812 98.84375 350.042969 98.082031 352.566406 C 97.625 354.085938 97.351562 356 95.691406 356.664062 C 95.140625 356.882812 94.539062 356.847656 93.941406 356.726562 C 93.386719 356.617188 92.835938 356.4375 92.320312 356.332031 C 87.628906 355.339844 82.929688 354.359375 78.238281 353.375 C 76.132812 352.933594 74.03125 352.484375 71.917969 352.085938 C 70.515625 351.824219 68.808594 351.410156 68.472656 349.789062 C 68.441406 349.625 68.429688 349.460938 68.433594 349.296875 C 68.4375 348.976562 68.488281 348.660156 68.542969 348.34375 C 69.234375 344.226562 69.929688 340.117188 70.796875 336.03125 C 71.691406 331.8125 72.9375 327.703125 73.945312 323.519531 C 74.269531 322.429688 74.476562 320.753906 75.210938 319.882812 C 76.578125 318.261719 78.953125 318.800781 80.785156 318.96875 C 83.066406 319.183594 85.339844 319.523438 87.582031 320 C 92.554688 321.046875 97.367188 322.761719 101.941406 324.976562 C 102.167969 325.082031 102.367188 325.203125 102.550781 325.335938 C 102.550781 325.335938 102.550781 325.335938 102.550781 325.332031 C 103.921875 326.316406 104.1875 327.894531 103.847656 329.574219 Z M 67.046875 348.992188 C 66.957031 349.128906 66.855469 349.257812 66.742188 349.378906 C 66.152344 350.015625 65.300781 350.214844 64.464844 350.164062 C 64.210938 350.144531 63.957031 350.121094 63.707031 350.089844 C 63.070312 350.015625 62.441406 349.898438 61.824219 349.738281 C 60.953125 349.511719 60.117188 349.191406 59.25 348.949219 C 57.203125 348.382812 55.128906 347.902344 53.066406 347.394531 C 50.808594 346.839844 48.546875 346.304688 46.285156 345.78125 C 44.261719 345.316406 41.5625 345.148438 39.742188 344.109375 C 37.5625 342.867188 38.523438 340.105469 38.792969 338.105469 C 39.152344 335.441406 39.566406 332.785156 40.039062 330.144531 C 40.980469 324.847656 42.148438 319.59375 43.582031 314.410156 C 43.863281 313.390625 44.648438 312.828125 45.574219 312.523438 C 46.410156 312.25 47.359375 312.1875 48.148438 312.195312 C 52.839844 312.238281 57.535156 312.777344 62.097656 313.867188 C 64.410156 314.417969 66.691406 315.105469 68.917969 315.941406 C 70.707031 316.609375 72.855469 317.265625 73.277344 319.417969 C 73.871094 322.449219 72.519531 326.117188 71.914062 329.082031 C 71.234375 332.445312 70.496094 335.8125 69.683594 339.140625 C 69.085938 341.578125 68.945312 344.113281 68.054688 346.484375 C 67.742188 347.308594 67.546875 348.246094 67.046875 348.992188 " fill-opacity="1" fill-rule="nonzero"/></g><path fill="#f7de46" d="M 68.054688 346.484375 C 67.742188 347.308594 67.546875 348.246094 67.046875 348.992188 C 66.519531 348.851562 59.0625 346.871094 54.945312 345.871094 C 53.957031 345.632812 52.972656 345.402344 51.984375 345.167969 C 48.683594 344.378906 45.074219 343.742188 41.992188 342.265625 C 41.632812 342.09375 41.273438 341.898438 41 341.605469 C 40.507812 341.085938 40.535156 340.355469 40.632812 339.695312 C 41.863281 331.269531 43.476562 322.917969 45.15625 314.574219 C 45.292969 313.890625 45.433594 313.207031 45.570312 312.523438 C 46.410156 312.25 47.359375 312.1875 48.148438 312.195312 C 52.839844 312.238281 57.535156 312.777344 62.097656 313.867188 C 64.410156 314.417969 66.691406 315.105469 68.917969 315.941406 C 70.707031 316.609375 72.855469 317.265625 73.277344 319.417969 C 73.871094 322.449219 72.519531 326.117188 71.914062 329.082031 C 71.234375 332.445312 70.496094 335.8125 69.683594 339.140625 C 69.085938 341.578125 68.945312 344.113281 68.054688 346.484375 Z M 97.273438 347.304688 C 96.902344 348.769531 96.511719 350.230469 96.09375 351.683594 C 95.722656 352.964844 95.152344 354.296875 93.691406 354.519531 C 92.335938 354.730469 90.902344 354.140625 89.589844 353.878906 C 82.578125 352.457031 75.644531 350.710938 68.433594 349.296875 C 68.4375 348.980469 68.488281 348.660156 68.542969 348.34375 C 69.234375 344.226562 69.929688 340.117188 70.796875 336.03125 C 71.691406 331.8125 72.9375 327.703125 73.945312 323.519531 C 74.269531 322.429688 74.476562 320.753906 75.210938 319.882812 C 76.578125 318.261719 78.953125 318.800781 80.785156 318.96875 C 83.066406 319.183594 85.339844 319.523438 87.582031 320 C 92.554688 321.046875 97.367188 322.761719 101.941406 324.976562 C 102.167969 325.082031 102.371094 325.203125 102.554688 325.335938 C 100.863281 332.675781 99.117188 340.003906 97.273438 347.304688 Z M 97.273438 347.304688 " fill-opacity="1" fill-rule="nonzero"/><path fill="#1d1d1b" d="M 51.503906 303.3125 C 51.488281 303.3125 51.476562 303.3125 51.464844 303.308594 C 50.386719 303.199219 49.609375 302.574219 49.578125 301.789062 C 49.542969 300.875 50.519531 300.121094 51.804688 300.070312 C 53.089844 300.019531 54.125 300.695312 54.160156 301.605469 C 54.167969 301.792969 54.023438 301.949219 53.839844 301.957031 C 53.65625 301.964844 53.496094 301.820312 53.488281 301.632812 C 53.46875 301.117188 52.710938 300.710938 51.832031 300.742188 C 50.957031 300.777344 50.234375 301.246094 50.253906 301.761719 C 50.269531 302.1875 50.820312 302.566406 51.535156 302.640625 C 51.722656 302.660156 51.855469 302.824219 51.835938 303.007812 C 51.816406 303.183594 51.671875 303.3125 51.503906 303.3125 Z M 52.152344 307.664062 C 52.339844 307.648438 52.476562 307.484375 52.460938 307.300781 C 52.445312 307.113281 52.28125 306.976562 52.097656 306.992188 C 51.300781 307.058594 50.609375 306.746094 50.523438 306.277344 C 50.425781 305.746094 51.101562 305.15625 52.003906 304.992188 C 52.464844 304.910156 52.933594 304.949219 53.289062 305.097656 C 53.46875 305.175781 53.78125 305.351562 53.839844 305.671875 C 53.875 305.855469 54.046875 305.976562 54.234375 305.941406 C 54.414062 305.910156 54.535156 305.734375 54.503906 305.550781 C 54.417969 305.085938 54.082031 304.703125 53.550781 304.480469 C 53.070312 304.273438 52.476562 304.222656 51.882812 304.332031 C 50.582031 304.570312 49.691406 305.476562 49.863281 306.398438 C 50 307.164062 50.828125 307.675781 51.875 307.675781 C 51.964844 307.675781 52.058594 307.671875 52.152344 307.664062 Z M 52.796875 311.976562 C 52.976562 311.929688 53.085938 311.746094 53.042969 311.566406 C 52.996094 311.386719 52.8125 311.277344 52.632812 311.320312 C 51.761719 311.539062 50.953125 311.308594 50.789062 310.800781 C 50.613281 310.25 51.246094 309.535156 52.167969 309.238281 C 52.644531 309.082031 53.128906 309.0625 53.53125 309.175781 C 53.734375 309.230469 54.089844 309.375 54.195312 309.707031 C 54.253906 309.886719 54.441406 309.980469 54.621094 309.925781 C 54.796875 309.867188 54.894531 309.679688 54.839844 309.5 C 54.6875 309.03125 54.289062 308.6875 53.710938 308.523438 C 53.1875 308.378906 52.5625 308.402344 51.960938 308.597656 C 50.648438 309.019531 49.851562 310.078125 50.148438 311.007812 C 50.363281 311.675781 51.097656 312.078125 51.996094 312.078125 C 52.253906 312.074219 52.523438 312.042969 52.796875 311.976562 Z M 84.152344 309.324219 C 84.335938 309.277344 84.445312 309.097656 84.402344 308.914062 C 84.34375 308.667969 84.261719 308.421875 84.175781 308.164062 C 84.109375 307.964844 84.042969 307.757812 83.984375 307.542969 C 83.929688 307.355469 83.890625 307.152344 83.851562 306.941406 C 83.800781 306.683594 83.746094 306.417969 83.667969 306.144531 C 83.59375 305.902344 83.492188 305.664062 83.390625 305.4375 C 83.296875 305.226562 83.207031 305.023438 83.140625 304.8125 C 83.078125 304.609375 83.027344 304.402344 82.976562 304.179688 C 82.917969 303.933594 82.859375 303.683594 82.777344 303.433594 C 82.695312 303.179688 82.605469 302.925781 82.519531 302.683594 C 82.445312 302.484375 82.378906 302.285156 82.308594 302.085938 C 82.238281 301.875 82.175781 301.648438 82.117188 301.433594 C 82.054688 301.199219 81.988281 300.953125 81.90625 300.71875 C 81.820312 300.46875 81.726562 300.222656 81.636719 299.984375 C 81.5625 299.78125 81.488281 299.578125 81.417969 299.378906 C 81.320312 299.09375 81.21875 298.820312 81.121094 298.550781 C 81.058594 298.375 80.996094 298.203125 80.9375 298.035156 C 80.84375 297.773438 80.742188 297.53125 80.640625 297.296875 C 80.554688 297.09375 80.46875 296.902344 80.402344 296.714844 C 80.3125 296.460938 80.234375 296.214844 80.160156 295.980469 C 80.09375 295.757812 80.027344 295.550781 79.957031 295.363281 C 79.796875 294.921875 79.65625 294.582031 79.566406 294.371094 C 79.378906 293.933594 79.304688 293.75 79.015625 293.828125 C 78.863281 293.914062 78.777344 294.082031 78.796875 294.253906 L 78.800781 294.304688 C 78.804688 294.308594 79.027344 294.777344 79.328125 295.59375 C 79.390625 295.769531 79.453125 295.96875 79.519531 296.179688 C 79.589844 296.410156 79.671875 296.675781 79.769531 296.941406 C 79.84375 297.148438 79.929688 297.347656 80.023438 297.558594 C 80.117188 297.785156 80.21875 298.019531 80.304688 298.261719 C 80.363281 298.429688 80.425781 298.601562 80.488281 298.777344 C 80.585938 299.042969 80.683594 299.316406 80.78125 299.597656 C 80.851562 299.804688 80.929688 300.007812 81.007812 300.21875 C 81.09375 300.453125 81.183594 300.695312 81.265625 300.933594 C 81.34375 301.152344 81.402344 301.375 81.46875 301.613281 C 81.53125 301.835938 81.59375 302.066406 81.671875 302.296875 C 81.738281 302.5 81.808594 302.703125 81.882812 302.90625 C 81.96875 303.148438 82.054688 303.398438 82.136719 303.640625 C 82.210938 303.863281 82.261719 304.09375 82.320312 304.335938 C 82.371094 304.558594 82.425781 304.789062 82.5 305.015625 C 82.574219 305.257812 82.675781 305.488281 82.773438 305.710938 C 82.871094 305.925781 82.960938 306.132812 83.019531 306.339844 C 83.09375 306.578125 83.140625 306.828125 83.191406 307.074219 C 83.234375 307.289062 83.277344 307.507812 83.335938 307.722656 C 83.398438 307.949219 83.46875 308.167969 83.539062 308.375 C 83.621094 308.621094 83.695312 308.851562 83.75 309.074219 C 83.785156 309.226562 83.921875 309.332031 84.074219 309.332031 C 84.101562 309.332031 84.128906 309.328125 84.152344 309.324219 Z M 79.207031 294.476562 Z M 85 313.003906 C 85.179688 312.960938 85.292969 312.78125 85.253906 312.601562 C 85.1875 312.304688 85.140625 312.15625 85.097656 312.011719 C 85.054688 311.875 85.015625 311.742188 84.953125 311.472656 C 84.886719 311.171875 84.839844 311.027344 84.796875 310.882812 C 84.753906 310.746094 84.714844 310.617188 84.652344 310.34375 C 84.613281 310.164062 84.433594 310.050781 84.25 310.089844 C 84.070312 310.132812 83.957031 310.3125 83.996094 310.492188 C 84.0625 310.789062 84.109375 310.9375 84.152344 311.082031 C 84.195312 311.21875 84.234375 311.347656 84.296875 311.621094 C 84.363281 311.917969 84.410156 312.066406 84.453125 312.207031 C 84.496094 312.34375 84.535156 312.476562 84.597656 312.75 C 84.632812 312.90625 84.773438 313.011719 84.925781 313.011719 C 84.949219 313.011719 84.972656 313.007812 85 313.003906 Z M 76.652344 322.675781 C 76.808594 322.03125 76.640625 321.355469 76.175781 320.769531 C 75.734375 320.210938 75.070312 319.800781 74.304688 319.617188 C 72.695312 319.226562 71.132812 319.96875 70.820312 321.265625 C 70.773438 321.445312 70.886719 321.628906 71.066406 321.671875 C 71.25 321.714844 71.429688 321.605469 71.472656 321.421875 C 71.699219 320.488281 72.898438 319.96875 74.148438 320.269531 C 74.765625 320.417969 75.300781 320.746094 75.648438 321.1875 C 75.980469 321.605469 76.105469 322.078125 76 322.515625 C 75.957031 322.695312 76.066406 322.878906 76.246094 322.921875 C 76.273438 322.929688 76.300781 322.933594 76.328125 322.933594 C 76.476562 322.933594 76.617188 322.832031 76.652344 322.675781 Z M 75.808594 326.945312 C 75.964844 326.339844 75.816406 325.699219 75.386719 325.140625 C 74.980469 324.605469 74.359375 324.210938 73.644531 324.023438 C 72.925781 323.839844 72.191406 323.886719 71.574219 324.152344 C 70.929688 324.433594 70.492188 324.925781 70.332031 325.53125 C 70.285156 325.710938 70.394531 325.894531 70.574219 325.941406 C 70.753906 325.988281 70.941406 325.878906 70.984375 325.699219 C 71.089844 325.296875 71.394531 324.96875 71.84375 324.773438 C 72.324219 324.5625 72.902344 324.53125 73.472656 324.679688 C 74.046875 324.828125 74.535156 325.136719 74.851562 325.550781 C 75.152344 325.941406 75.257812 326.378906 75.15625 326.78125 C 75.109375 326.960938 75.21875 327.144531 75.398438 327.191406 C 75.425781 327.199219 75.453125 327.199219 75.480469 327.199219 C 75.632812 327.199219 75.769531 327.097656 75.808594 326.945312 Z M 74.121094 330.953125 C 74.28125 330.421875 74.171875 329.851562 73.8125 329.339844 C 73.472656 328.859375 72.941406 328.492188 72.324219 328.304688 C 71.011719 327.910156 69.6875 328.457031 69.367188 329.519531 C 69.3125 329.699219 69.414062 329.886719 69.589844 329.941406 C 69.769531 329.996094 69.957031 329.894531 70.011719 329.714844 C 70.222656 329.007812 71.171875 328.664062 72.128906 328.953125 C 72.605469 329.09375 73.007812 329.371094 73.261719 329.730469 C 73.496094 330.066406 73.574219 330.429688 73.472656 330.757812 C 73.421875 330.9375 73.523438 331.125 73.699219 331.179688 C 73.730469 331.1875 73.765625 331.191406 73.796875 331.191406 C 73.941406 331.191406 74.078125 331.097656 74.121094 330.953125 Z M 73.074219 335.09375 C 73.214844 334.492188 73.050781 333.863281 72.617188 333.320312 C 72.199219 332.804688 71.582031 332.425781 70.867188 332.261719 C 70.15625 332.09375 69.433594 332.15625 68.832031 332.433594 C 68.203125 332.726562 67.777344 333.222656 67.636719 333.824219 C 67.59375 334.003906 67.707031 334.183594 67.890625 334.230469 C 68.070312 334.269531 68.25 334.15625 68.292969 333.976562 C 68.386719 333.582031 68.679688 333.25 69.117188 333.046875 C 69.582031 332.832031 70.148438 332.785156 70.714844 332.917969 C 71.28125 333.050781 71.769531 333.34375 72.09375 333.742188 C 72.394531 334.121094 72.511719 334.542969 72.417969 334.941406 C 72.378906 335.121094 72.488281 335.304688 72.671875 335.347656 C 72.695312 335.351562 72.722656 335.355469 72.75 335.355469 C 72.898438 335.355469 73.035156 335.25 73.074219 335.09375 Z M 72.546875 339.335938 C 72.8125 338.050781 71.734375 336.734375 70.140625 336.40625 C 68.546875 336.078125 67.035156 336.859375 66.769531 338.144531 C 66.734375 338.328125 66.851562 338.503906 67.03125 338.542969 C 67.214844 338.578125 67.394531 338.460938 67.429688 338.28125 C 67.621094 337.359375 68.773438 336.816406 70.003906 337.066406 C 71.230469 337.320312 72.074219 338.277344 71.886719 339.199219 C 71.847656 339.382812 71.96875 339.5625 72.148438 339.597656 C 72.171875 339.601562 72.195312 339.605469 72.214844 339.605469 C 72.375 339.605469 72.515625 339.496094 72.546875 339.335938 Z M 72.023438 343.671875 C 72.144531 343 71.929688 342.308594 71.417969 341.734375 C 70.929688 341.179688 70.21875 340.792969 69.414062 340.648438 C 68.613281 340.5 67.8125 340.609375 67.15625 340.953125 C 66.476562 341.3125 66.03125 341.878906 65.90625 342.554688 C 65.875 342.738281 65.996094 342.914062 66.179688 342.945312 C 66.363281 342.980469 66.539062 342.859375 66.570312 342.675781 C 66.65625 342.207031 66.976562 341.808594 67.46875 341.550781 C 67.992188 341.277344 68.640625 341.191406 69.296875 341.3125 C 69.949219 341.433594 70.523438 341.738281 70.917969 342.183594 C 71.289062 342.597656 71.445312 343.085938 71.359375 343.554688 C 71.328125 343.734375 71.449219 343.914062 71.632812 343.945312 C 71.652344 343.949219 71.671875 343.949219 71.691406 343.949219 C 71.851562 343.949219 71.992188 343.835938 72.023438 343.671875 Z M 71.074219 347.148438 C 71.179688 346.558594 70.996094 345.957031 70.546875 345.457031 C 70.125 344.976562 69.507812 344.644531 68.8125 344.515625 C 68.121094 344.390625 67.425781 344.480469 66.859375 344.78125 C 66.265625 345.09375 65.878906 345.589844 65.769531 346.179688 C 65.738281 346.359375 65.859375 346.535156 66.039062 346.570312 C 66.222656 346.605469 66.398438 346.480469 66.433594 346.300781 C 66.503906 345.917969 66.765625 345.589844 67.171875 345.378906 C 67.605469 345.148438 68.148438 345.078125 68.691406 345.179688 C 69.238281 345.277344 69.71875 345.535156 70.046875 345.902344 C 70.351562 346.246094 70.480469 346.644531 70.410156 347.027344 C 70.378906 347.207031 70.5 347.386719 70.679688 347.417969 C 70.703125 347.421875 70.722656 347.421875 70.742188 347.421875 C 70.902344 347.421875 71.042969 347.308594 71.074219 347.148438 Z M 67 320.308594 C 67.078125 320.140625 67.007812 319.9375 66.835938 319.859375 C 66.703125 319.796875 66.570312 319.734375 66.4375 319.671875 C 66.101562 319.511719 65.75 319.347656 65.394531 319.199219 C 65.25 319.136719 65.105469 319.074219 64.960938 319.011719 C 64.625 318.871094 64.28125 318.71875 63.929688 318.589844 C 63.609375 318.46875 63.28125 318.367188 62.960938 318.269531 C 62.78125 318.214844 62.601562 318.160156 62.421875 318.097656 C 62.257812 318.042969 62.089844 317.988281 61.925781 317.929688 C 61.597656 317.816406 61.261719 317.699219 60.914062 317.601562 C 60.597656 317.507812 60.273438 317.4375 59.957031 317.375 C 59.761719 317.332031 59.5625 317.289062 59.367188 317.242188 C 59.160156 317.191406 58.945312 317.128906 58.738281 317.070312 C 58.445312 316.984375 58.144531 316.898438 57.832031 316.832031 C 57.488281 316.765625 57.136719 316.710938 56.792969 316.660156 C 56.617188 316.632812 56.441406 316.605469 56.265625 316.578125 C 56.046875 316.542969 55.832031 316.492188 55.605469 316.441406 C 55.316406 316.371094 55.015625 316.304688 54.707031 316.265625 C 54.398438 316.226562 54.097656 316.226562 53.800781 316.222656 C 53.5625 316.222656 53.335938 316.222656 53.113281 316.203125 C 52.902344 316.183594 52.6875 316.15625 52.472656 316.128906 C 52.167969 316.09375 51.851562 316.050781 51.535156 316.039062 C 51.195312 316.019531 50.851562 316.027344 50.523438 316.035156 C 50.332031 316.035156 50.136719 316.039062 49.945312 316.039062 C 49.597656 316.039062 49.253906 316.054688 48.917969 316.070312 C 48.734375 316.082031 48.546875 316.089844 48.359375 316.097656 C 48.175781 316.101562 48.027344 316.257812 48.035156 316.445312 C 48.042969 316.628906 48.199219 316.777344 48.382812 316.769531 C 48.574219 316.761719 48.761719 316.753906 48.953125 316.742188 C 49.277344 316.726562 49.613281 316.710938 49.941406 316.710938 C 50.140625 316.710938 50.335938 316.707031 50.535156 316.707031 C 50.855469 316.699219 51.183594 316.695312 51.503906 316.710938 C 51.796875 316.722656 52.082031 316.761719 52.390625 316.796875 C 52.605469 316.824219 52.832031 316.855469 53.058594 316.875 C 53.304688 316.894531 53.554688 316.894531 53.796875 316.898438 C 54.085938 316.898438 54.355469 316.898438 54.621094 316.933594 C 54.894531 316.964844 55.164062 317.027344 55.449219 317.097656 C 55.679688 317.148438 55.914062 317.203125 56.15625 317.242188 C 56.332031 317.273438 56.511719 317.300781 56.691406 317.328125 C 57.023438 317.375 57.367188 317.425781 57.695312 317.496094 C 57.980469 317.550781 58.257812 317.632812 58.550781 317.71875 C 58.761719 317.777344 58.984375 317.84375 59.207031 317.894531 C 59.410156 317.945312 59.617188 317.988281 59.816406 318.03125 C 60.132812 318.097656 60.429688 318.164062 60.726562 318.25 C 61.054688 318.34375 61.386719 318.457031 61.703125 318.566406 C 61.871094 318.625 62.039062 318.683594 62.207031 318.738281 C 62.390625 318.800781 62.578125 318.855469 62.761719 318.914062 C 63.070312 319.011719 63.390625 319.109375 63.695312 319.222656 C 64.027344 319.347656 64.367188 319.492188 64.695312 319.632812 C 64.839844 319.695312 64.988281 319.757812 65.132812 319.820312 C 65.472656 319.964844 65.816406 320.125 66.148438 320.28125 C 66.28125 320.34375 66.417969 320.410156 66.550781 320.472656 C 66.597656 320.492188 66.644531 320.503906 66.691406 320.503906 C 66.820312 320.503906 66.941406 320.429688 67 320.308594 Z M 65.484375 325.167969 C 65.5625 325 65.488281 324.800781 65.320312 324.71875 C 65.125 324.628906 64.929688 324.53125 64.738281 324.429688 C 64.453125 324.28125 64.15625 324.132812 63.847656 324.003906 C 63.324219 323.78125 62.8125 323.578125 62.324219 323.398438 C 61.785156 323.195312 61.242188 323.015625 60.777344 322.863281 C 60.425781 322.746094 60.0625 322.648438 59.71875 322.554688 C 59.542969 322.507812 59.371094 322.460938 59.203125 322.414062 C 58.84375 322.3125 58.480469 322.226562 58.128906 322.144531 C 57.957031 322.105469 57.785156 322.066406 57.609375 322.023438 C 57.386719 321.96875 57.167969 321.898438 56.933594 321.824219 C 56.644531 321.726562 56.347656 321.628906 56.035156 321.566406 C 55.726562 321.507812 55.410156 321.480469 55.109375 321.453125 C 54.867188 321.429688 54.636719 321.410156 54.410156 321.375 C 54.183594 321.335938 53.960938 321.285156 53.722656 321.230469 C 53.425781 321.160156 53.117188 321.085938 52.800781 321.050781 C 52.332031 320.992188 51.828125 320.945312 51.167969 320.890625 C 50.847656 320.863281 50.527344 320.871094 50.21875 320.878906 C 49.980469 320.882812 49.753906 320.886719 49.527344 320.875 C 49.039062 320.855469 48.519531 320.847656 47.894531 320.847656 C 47.707031 320.847656 47.558594 321 47.558594 321.183594 C 47.558594 321.371094 47.707031 321.519531 47.894531 321.519531 C 48.511719 321.519531 49.023438 321.53125 49.503906 321.546875 C 49.746094 321.558594 49.992188 321.554688 50.230469 321.550781 C 50.535156 321.542969 50.824219 321.539062 51.117188 321.5625 C 51.765625 321.613281 52.261719 321.664062 52.71875 321.71875 C 53 321.753906 53.277344 321.816406 53.570312 321.886719 C 53.808594 321.941406 54.050781 322 54.300781 322.039062 C 54.554688 322.082031 54.808594 322.105469 55.050781 322.125 C 55.351562 322.152344 55.632812 322.175781 55.90625 322.230469 C 56.179688 322.285156 56.445312 322.371094 56.726562 322.464844 C 56.964844 322.542969 57.207031 322.621094 57.457031 322.679688 C 57.628906 322.722656 57.804688 322.765625 57.980469 322.804688 C 58.324219 322.882812 58.679688 322.964844 59.019531 323.0625 C 59.195312 323.113281 59.371094 323.160156 59.542969 323.203125 C 59.882812 323.296875 60.234375 323.390625 60.570312 323.503906 C 61.027344 323.652344 61.566406 323.832031 62.09375 324.027344 C 62.574219 324.207031 63.078125 324.40625 63.59375 324.621094 C 63.875 324.742188 64.148438 324.878906 64.4375 325.03125 C 64.632812 325.128906 64.835938 325.234375 65.039062 325.328125 C 65.085938 325.351562 65.132812 325.363281 65.179688 325.363281 C 65.304688 325.363281 65.425781 325.289062 65.484375 325.167969 Z M 65.011719 330.125 C 65.0625 329.945312 64.960938 329.757812 64.78125 329.707031 C 64.292969 329.5625 63.722656 329.394531 63.164062 329.238281 C 62.839844 329.152344 62.515625 329.074219 62.199219 329 C 61.972656 328.949219 61.75 328.898438 61.523438 328.839844 C 61.292969 328.78125 61.058594 328.71875 60.828125 328.652344 C 60.523438 328.570312 60.210938 328.480469 59.898438 328.40625 C 59.582031 328.332031 59.265625 328.273438 58.957031 328.21875 C 58.71875 328.175781 58.476562 328.132812 58.242188 328.082031 C 58.019531 328.035156 57.796875 327.980469 57.574219 327.929688 C 57.253906 327.855469 56.925781 327.777344 56.597656 327.710938 C 56.289062 327.652344 55.976562 327.609375 55.671875 327.570312 C 55.429688 327.535156 55.175781 327.5 54.929688 327.457031 C 54.714844 327.421875 54.5 327.378906 54.28125 327.335938 C 53.953125 327.273438 53.613281 327.210938 53.273438 327.15625 C 52.9375 327.105469 52.597656 327.0625 52.269531 327.027344 C 52.046875 327 51.824219 326.972656 51.601562 326.941406 C 51.351562 326.910156 51.105469 326.851562 50.847656 326.792969 C 50.554688 326.726562 50.253906 326.65625 49.945312 326.621094 C 49.628906 326.582031 49.308594 326.5625 48.996094 326.542969 C 48.753906 326.527344 48.507812 326.511719 48.265625 326.488281 C 48.078125 326.46875 47.914062 326.605469 47.894531 326.789062 C 47.878906 326.976562 48.011719 327.140625 48.199219 327.160156 C 48.453125 327.183594 48.707031 327.199219 48.957031 327.214844 C 49.257812 327.234375 49.566406 327.257812 49.867188 327.292969 C 50.140625 327.324219 50.414062 327.386719 50.699219 327.449219 C 50.960938 327.511719 51.234375 327.574219 51.515625 327.613281 C 51.738281 327.640625 51.964844 327.667969 52.191406 327.695312 C 52.515625 327.734375 52.847656 327.773438 53.171875 327.824219 C 53.5 327.875 53.835938 327.941406 54.15625 328.003906 C 54.378906 328.042969 54.597656 328.085938 54.816406 328.125 C 55.070312 328.167969 55.332031 328.207031 55.582031 328.238281 C 55.875 328.277344 56.179688 328.320312 56.46875 328.375 C 56.785156 328.4375 57.105469 328.511719 57.417969 328.585938 C 57.644531 328.640625 57.871094 328.695312 58.101562 328.742188 C 58.34375 328.796875 58.59375 328.839844 58.835938 328.882812 C 59.132812 328.9375 59.445312 328.992188 59.742188 329.0625 C 60.042969 329.136719 60.351562 329.21875 60.648438 329.304688 C 60.882812 329.367188 61.121094 329.433594 61.359375 329.496094 C 61.585938 329.554688 61.816406 329.605469 62.046875 329.660156 C 62.355469 329.734375 62.675781 329.804688 62.984375 329.890625 C 63.539062 330.042969 64.105469 330.210938 64.589844 330.355469 C 64.621094 330.363281 64.65625 330.367188 64.6875 330.367188 C 64.832031 330.367188 64.96875 330.273438 65.011719 330.125 Z M 63.648438 335.136719 C 63.703125 334.957031 63.597656 334.769531 63.421875 334.71875 C 63.125 334.632812 62.824219 334.574219 62.535156 334.511719 C 62.292969 334.464844 62.0625 334.414062 61.832031 334.355469 C 61.375 334.230469 60.886719 334.109375 60.253906 333.953125 C 60.0625 333.90625 59.871094 333.855469 59.675781 333.808594 C 59.351562 333.722656 59.011719 333.636719 58.675781 333.5625 C 58.445312 333.511719 58.214844 333.449219 57.988281 333.390625 C 57.695312 333.316406 57.394531 333.234375 57.089844 333.175781 C 56.785156 333.113281 56.476562 333.070312 56.179688 333.03125 C 55.949219 332.996094 55.710938 332.964844 55.480469 332.925781 C 55.265625 332.886719 55.050781 332.84375 54.835938 332.800781 C 54.523438 332.738281 54.203125 332.671875 53.878906 332.625 C 53.644531 332.589844 53.40625 332.539062 53.179688 332.496094 C 52.882812 332.4375 52.582031 332.378906 52.273438 332.339844 C 51.972656 332.296875 51.667969 332.285156 51.375 332.269531 C 51.121094 332.257812 50.886719 332.25 50.648438 332.222656 C 50.421875 332.195312 50.199219 332.167969 49.976562 332.136719 C 49.667969 332.097656 49.347656 332.054688 49.027344 332.023438 C 48.71875 331.996094 48.402344 331.988281 48.101562 331.976562 C 47.871094 331.96875 47.628906 331.960938 47.398438 331.945312 C 47.167969 331.929688 46.929688 331.90625 46.699219 331.882812 C 46.402344 331.855469 46.089844 331.820312 45.777344 331.808594 C 45.59375 331.800781 45.433594 331.941406 45.425781 332.128906 C 45.417969 332.3125 45.558594 332.472656 45.746094 332.480469 C 46.039062 332.496094 46.339844 332.527344 46.632812 332.554688 C 46.867188 332.578125 47.113281 332.605469 47.355469 332.621094 C 47.597656 332.636719 47.84375 332.644531 48.082031 332.652344 C 48.375 332.660156 48.675781 332.667969 48.96875 332.695312 C 49.273438 332.722656 49.585938 332.765625 49.886719 332.804688 C 50.113281 332.835938 50.34375 332.867188 50.574219 332.890625 C 50.832031 332.921875 51.089844 332.933594 51.34375 332.945312 C 51.636719 332.957031 51.914062 332.972656 52.1875 333.007812 C 52.472656 333.046875 52.765625 333.101562 53.050781 333.160156 C 53.289062 333.203125 53.53125 333.25 53.777344 333.289062 C 54.085938 333.335938 54.402344 333.402344 54.707031 333.460938 C 54.925781 333.503906 55.144531 333.546875 55.363281 333.585938 C 55.605469 333.632812 55.851562 333.664062 56.089844 333.699219 C 56.378906 333.738281 56.675781 333.78125 56.960938 333.835938 C 57.246094 333.894531 57.535156 333.96875 57.820312 334.042969 C 58.050781 334.105469 58.289062 334.167969 58.527344 334.21875 C 58.859375 334.292969 59.191406 334.378906 59.511719 334.460938 C 59.707031 334.507812 59.902344 334.558594 60.097656 334.605469 C 60.726562 334.757812 61.207031 334.882812 61.660156 335.003906 C 61.910156 335.070312 62.160156 335.121094 62.402344 335.171875 C 62.691406 335.230469 62.964844 335.285156 63.234375 335.363281 C 63.265625 335.375 63.296875 335.378906 63.328125 335.378906 C 63.472656 335.378906 63.605469 335.285156 63.648438 335.136719 Z M 61.417969 340.878906 C 61.472656 340.699219 61.371094 340.511719 61.191406 340.457031 L 61.023438 340.40625 C 60.5625 340.269531 60.089844 340.125 59.621094 339.992188 C 59.402344 339.929688 59.1875 339.859375 58.972656 339.792969 C 58.675781 339.699219 58.363281 339.605469 58.054688 339.523438 C 57.703125 339.429688 57.347656 339.34375 57.003906 339.261719 C 56.824219 339.21875 56.644531 339.175781 56.464844 339.132812 C 56.117188 339.046875 55.765625 338.96875 55.421875 338.894531 C 55.238281 338.851562 55.054688 338.8125 54.871094 338.769531 C 54.453125 338.675781 54.03125 338.59375 53.621094 338.507812 L 53.269531 338.4375 C 53.058594 338.394531 52.84375 338.34375 52.628906 338.296875 C 52.316406 338.226562 51.992188 338.15625 51.671875 338.097656 C 51.371094 338.039062 51.066406 338.003906 50.773438 337.964844 C 50.535156 337.933594 50.289062 337.902344 50.050781 337.863281 C 49.570312 337.785156 49.085938 337.710938 48.613281 337.644531 L 48.4375 337.617188 C 48.195312 337.582031 47.949219 337.53125 47.710938 337.484375 C 47.425781 337.429688 47.125 337.367188 46.824219 337.328125 C 46.640625 337.308594 46.472656 337.4375 46.449219 337.621094 C 46.425781 337.804688 46.554688 337.972656 46.738281 338 C 47.019531 338.035156 47.292969 338.089844 47.582031 338.144531 C 47.828125 338.195312 48.082031 338.246094 48.339844 338.28125 L 48.515625 338.308594 C 48.984375 338.378906 49.46875 338.449219 49.941406 338.527344 C 50.191406 338.570312 50.445312 338.605469 50.6875 338.632812 C 50.972656 338.667969 51.265625 338.707031 51.546875 338.757812 C 51.859375 338.816406 52.175781 338.886719 52.484375 338.957031 C 52.703125 339.003906 52.917969 339.050781 53.132812 339.097656 L 53.488281 339.167969 C 53.894531 339.253906 54.3125 339.339844 54.722656 339.429688 C 54.90625 339.472656 55.09375 339.511719 55.277344 339.554688 C 55.617188 339.625 55.964844 339.703125 56.304688 339.789062 C 56.484375 339.832031 56.664062 339.875 56.847656 339.917969 C 57.1875 340 57.539062 340.082031 57.882812 340.175781 C 58.179688 340.253906 58.480469 340.347656 58.773438 340.4375 C 58.992188 340.507812 59.214844 340.574219 59.4375 340.640625 C 59.902344 340.769531 60.371094 340.914062 60.824219 341.050781 L 60.996094 341.105469 C 61.03125 341.113281 61.0625 341.117188 61.097656 341.117188 C 61.242188 341.117188 61.375 341.023438 61.417969 340.878906 Z M 97.148438 329.101562 C 97.246094 328.941406 97.195312 328.734375 97.03125 328.636719 C 96.59375 328.375 96.082031 328.074219 95.5625 327.800781 C 95.050781 327.53125 94.53125 327.289062 94.042969 327.0625 C 93.59375 326.855469 93.058594 326.613281 92.496094 326.390625 C 92.304688 326.316406 92.109375 326.230469 91.921875 326.148438 C 91.601562 326.007812 91.273438 325.863281 90.929688 325.746094 C 90.605469 325.636719 90.277344 325.5625 89.957031 325.488281 C 89.722656 325.4375 89.507812 325.386719 89.289062 325.324219 C 88.78125 325.183594 88.261719 325.0625 87.757812 324.949219 L 87.652344 324.925781 C 87.511719 324.894531 87.375 324.859375 87.234375 324.828125 C 86.835938 324.734375 86.421875 324.636719 86.003906 324.5625 C 85.78125 324.523438 85.566406 324.476562 85.335938 324.421875 C 85.015625 324.347656 84.683594 324.269531 84.34375 324.230469 C 83.941406 324.179688 83.53125 324.15625 83.136719 324.132812 C 82.976562 324.125 82.816406 324.117188 82.65625 324.105469 L 82.324219 324.082031 C 81.882812 324.050781 81.421875 324.015625 80.96875 324.007812 C 80.964844 324.007812 80.964844 324.007812 80.960938 324.007812 C 80.777344 324.007812 80.628906 324.15625 80.625 324.339844 C 80.621094 324.527344 80.769531 324.679688 80.957031 324.683594 C 81.394531 324.691406 81.84375 324.722656 82.277344 324.753906 L 82.613281 324.777344 C 82.773438 324.789062 82.9375 324.796875 83.101562 324.808594 C 83.484375 324.828125 83.882812 324.851562 84.265625 324.898438 C 84.566406 324.933594 84.867188 325.003906 85.183594 325.078125 C 85.414062 325.128906 85.652344 325.183594 85.890625 325.226562 C 86.289062 325.296875 86.691406 325.390625 87.082031 325.484375 C 87.222656 325.515625 87.363281 325.550781 87.503906 325.582031 L 87.609375 325.605469 C 88.105469 325.71875 88.617188 325.835938 89.109375 325.976562 C 89.34375 326.042969 89.578125 326.09375 89.808594 326.144531 C 90.125 326.21875 90.425781 326.285156 90.714844 326.382812 C 91.03125 326.488281 91.335938 326.621094 91.65625 326.761719 C 91.847656 326.847656 92.046875 326.9375 92.25 327.015625 C 92.796875 327.234375 93.324219 327.472656 93.765625 327.675781 C 94.242188 327.894531 94.753906 328.136719 95.253906 328.398438 C 95.753906 328.660156 96.238281 328.945312 96.691406 329.214844 C 96.746094 329.25 96.804688 329.265625 96.863281 329.265625 C 96.976562 329.265625 97.085938 329.207031 97.148438 329.101562 Z M 95.484375 333.277344 C 95.546875 333.101562 95.460938 332.90625 95.285156 332.84375 C 95.113281 332.777344 94.941406 332.714844 94.773438 332.648438 C 94.445312 332.523438 94.113281 332.394531 93.773438 332.28125 C 93.492188 332.183594 93.203125 332.117188 92.921875 332.050781 C 92.675781 331.996094 92.441406 331.941406 92.214844 331.871094 C 92.03125 331.8125 91.847656 331.753906 91.667969 331.691406 C 91.347656 331.585938 91.015625 331.476562 90.679688 331.378906 C 90.304688 331.269531 89.921875 331.171875 89.550781 331.074219 C 89.410156 331.039062 89.265625 331 89.125 330.964844 C 88.910156 330.910156 88.6875 330.84375 88.476562 330.78125 C 88.183594 330.695312 87.878906 330.605469 87.574219 330.53125 C 87.34375 330.476562 87.117188 330.410156 86.878906 330.34375 C 86.601562 330.261719 86.3125 330.175781 86.015625 330.113281 C 85.691406 330.042969 85.363281 329.988281 85.046875 329.933594 C 84.839844 329.902344 84.632812 329.867188 84.429688 329.828125 C 83.957031 329.738281 83.402344 329.632812 82.84375 329.542969 C 82.5 329.484375 82.148438 329.441406 81.8125 329.402344 C 81.621094 329.378906 81.433594 329.351562 81.242188 329.328125 C 81.058594 329.300781 80.890625 329.429688 80.863281 329.617188 C 80.839844 329.800781 80.96875 329.96875 81.152344 329.996094 C 81.34375 330.019531 81.539062 330.046875 81.730469 330.070312 C 82.058594 330.113281 82.402344 330.152344 82.734375 330.207031 C 83.285156 330.296875 83.835938 330.402344 84.304688 330.488281 C 84.515625 330.527344 84.726562 330.566406 84.9375 330.597656 C 85.246094 330.648438 85.566406 330.703125 85.875 330.769531 C 86.144531 330.828125 86.410156 330.90625 86.691406 330.988281 C 86.925781 331.058594 87.171875 331.128906 87.417969 331.1875 C 87.707031 331.253906 88 331.339844 88.285156 331.425781 C 88.503906 331.488281 88.726562 331.554688 88.953125 331.613281 C 89.097656 331.652344 89.238281 331.691406 89.382812 331.726562 C 89.75 331.820312 90.128906 331.917969 90.492188 332.027344 C 90.816406 332.117188 91.140625 332.226562 91.453125 332.332031 C 91.636719 332.390625 91.824219 332.453125 92.007812 332.511719 C 92.261719 332.59375 92.519531 332.652344 92.769531 332.707031 C 93.046875 332.769531 93.304688 332.832031 93.554688 332.917969 C 93.882812 333.027344 94.210938 333.15625 94.53125 333.277344 C 94.703125 333.34375 94.875 333.410156 95.050781 333.472656 C 95.085938 333.488281 95.128906 333.496094 95.167969 333.496094 C 95.304688 333.496094 95.433594 333.414062 95.484375 333.277344 Z M 95.011719 337.921875 C 95.066406 337.746094 94.964844 337.558594 94.789062 337.5 C 94.523438 337.421875 94.253906 337.355469 93.992188 337.292969 C 93.746094 337.234375 93.511719 337.175781 93.28125 337.109375 C 93.011719 337.027344 92.738281 336.957031 92.472656 336.886719 C 92.242188 336.828125 92.007812 336.765625 91.78125 336.699219 C 91.550781 336.632812 91.324219 336.558594 91.097656 336.492188 C 90.835938 336.410156 90.5625 336.324219 90.289062 336.246094 C 90.015625 336.171875 89.738281 336.101562 89.46875 336.035156 C 89.242188 335.976562 89.011719 335.921875 88.78125 335.859375 C 88.550781 335.796875 88.328125 335.714844 88.089844 335.628906 C 87.835938 335.539062 87.574219 335.445312 87.300781 335.371094 C 87.023438 335.300781 86.742188 335.234375 86.472656 335.171875 C 86.242188 335.117188 86.015625 335.0625 85.789062 335.003906 C 85.570312 334.949219 85.351562 334.890625 85.128906 334.832031 C 84.847656 334.757812 84.566406 334.679688 84.28125 334.609375 C 84.050781 334.550781 83.816406 334.488281 83.589844 334.421875 C 83.324219 334.351562 83.050781 334.273438 82.777344 334.207031 C 82.496094 334.140625 82.207031 334.074219 81.929688 334.015625 C 81.707031 333.964844 81.484375 333.917969 81.261719 333.867188 C 80.988281 333.804688 80.710938 333.75 80.445312 333.699219 C 80.210938 333.65625 79.96875 333.609375 79.734375 333.558594 C 79.550781 333.519531 79.371094 333.632812 79.332031 333.8125 C 79.289062 333.996094 79.40625 334.175781 79.585938 334.21875 C 79.832031 334.273438 80.078125 334.316406 80.320312 334.363281 C 80.582031 334.414062 80.847656 334.464844 81.109375 334.523438 C 81.332031 334.578125 81.558594 334.625 81.785156 334.675781 C 82.058594 334.734375 82.34375 334.796875 82.621094 334.863281 C 82.882812 334.925781 83.148438 335 83.40625 335.074219 C 83.640625 335.136719 83.878906 335.207031 84.121094 335.265625 C 84.402344 335.335938 84.679688 335.410156 84.957031 335.484375 C 85.179688 335.542969 85.402344 335.601562 85.621094 335.660156 C 85.851562 335.71875 86.085938 335.773438 86.316406 335.828125 C 86.585938 335.890625 86.859375 335.953125 87.128906 336.027344 C 87.371094 336.089844 87.609375 336.175781 87.863281 336.265625 C 88.101562 336.351562 88.351562 336.441406 88.605469 336.507812 C 88.839844 336.570312 89.074219 336.632812 89.308594 336.6875 C 89.570312 336.753906 89.84375 336.824219 90.105469 336.894531 C 90.371094 336.96875 90.636719 337.054688 90.898438 337.132812 C 91.128906 337.207031 91.359375 337.277344 91.59375 337.34375 C 91.828125 337.414062 92.066406 337.476562 92.296875 337.539062 C 92.558594 337.605469 92.828125 337.675781 93.089844 337.753906 C 93.335938 337.828125 93.589844 337.890625 93.832031 337.945312 C 94.082031 338.007812 94.34375 338.070312 94.589844 338.144531 C 94.625 338.15625 94.65625 338.160156 94.6875 338.160156 C 94.835938 338.164062 94.96875 338.066406 95.011719 337.921875 Z M 93.488281 342.941406 C 93.53125 342.761719 93.421875 342.578125 93.242188 342.535156 C 92.984375 342.46875 92.730469 342.390625 92.464844 342.304688 C 92.203125 342.222656 91.933594 342.140625 91.65625 342.070312 C 91.390625 342 91.121094 341.941406 90.851562 341.875 C 90.585938 341.816406 90.320312 341.75 90.050781 341.6875 C 89.789062 341.621094 89.527344 341.5625 89.269531 341.503906 C 88.996094 341.441406 88.714844 341.378906 88.445312 341.308594 C 88.171875 341.242188 87.894531 341.183594 87.628906 341.125 C 87.367188 341.070312 87.09375 341.011719 86.835938 340.949219 C 86.597656 340.890625 86.359375 340.828125 86.125 340.769531 C 85.828125 340.691406 85.53125 340.617188 85.234375 340.542969 C 84.960938 340.476562 84.6875 340.398438 84.417969 340.324219 C 84.164062 340.257812 83.902344 340.183594 83.640625 340.117188 C 83.371094 340.050781 83.101562 339.984375 82.832031 339.921875 C 82.566406 339.855469 82.300781 339.792969 82.035156 339.726562 C 81.769531 339.660156 81.503906 339.59375 81.238281 339.523438 C 80.972656 339.457031 80.703125 339.386719 80.4375 339.320312 C 80.183594 339.257812 79.933594 339.171875 79.671875 339.085938 C 79.410156 338.996094 79.136719 338.902344 78.855469 338.832031 C 78.675781 338.785156 78.492188 338.894531 78.445312 339.078125 C 78.402344 339.257812 78.511719 339.441406 78.691406 339.484375 C 78.945312 339.550781 79.191406 339.632812 79.453125 339.722656 C 79.71875 339.8125 79.988281 339.90625 80.269531 339.976562 C 80.539062 340.042969 80.804688 340.109375 81.074219 340.179688 C 81.339844 340.246094 81.605469 340.3125 81.871094 340.382812 C 82.140625 340.449219 82.40625 340.511719 82.675781 340.578125 C 82.941406 340.640625 83.207031 340.703125 83.472656 340.773438 C 83.726562 340.835938 83.988281 340.90625 84.238281 340.976562 C 84.511719 341.050781 84.789062 341.128906 85.070312 341.199219 C 85.367188 341.269531 85.664062 341.347656 85.957031 341.421875 C 86.195312 341.480469 86.433594 341.542969 86.667969 341.601562 C 86.941406 341.671875 87.21875 341.726562 87.488281 341.785156 C 87.75 341.839844 88.019531 341.898438 88.28125 341.960938 C 88.558594 342.03125 88.84375 342.097656 89.117188 342.160156 C 89.375 342.214844 89.632812 342.277344 89.886719 342.335938 C 90.15625 342.40625 90.429688 342.46875 90.699219 342.53125 C 90.964844 342.59375 91.230469 342.65625 91.492188 342.722656 C 91.746094 342.785156 91.996094 342.863281 92.257812 342.945312 C 92.523438 343.03125 92.800781 343.117188 93.078125 343.183594 C 93.105469 343.191406 93.132812 343.195312 93.160156 343.195312 C 93.3125 343.199219 93.449219 343.097656 93.488281 342.941406 Z M 92.53125 348.261719 C 92.566406 348.082031 92.449219 347.902344 92.269531 347.867188 C 92.019531 347.816406 91.765625 347.785156 91.523438 347.761719 C 91.242188 347.730469 90.976562 347.703125 90.722656 347.636719 C 90.476562 347.578125 90.234375 347.480469 89.976562 347.378906 C 89.742188 347.285156 89.496094 347.1875 89.242188 347.117188 C 89.023438 347.054688 88.800781 347 88.578125 346.941406 C 88.296875 346.871094 88.007812 346.796875 87.726562 346.714844 C 87.46875 346.640625 87.207031 346.582031 86.953125 346.527344 C 86.691406 346.46875 86.441406 346.414062 86.199219 346.339844 C 85.902344 346.25 85.609375 346.167969 85.3125 346.082031 C 85.105469 346.019531 84.894531 345.960938 84.6875 345.898438 C 84.253906 345.769531 83.8125 345.644531 83.390625 345.527344 L 83.171875 345.464844 C 82.972656 345.410156 82.773438 345.351562 82.574219 345.289062 C 82.273438 345.199219 81.964844 345.105469 81.652344 345.027344 C 81.289062 344.9375 80.921875 344.863281 80.566406 344.792969 C 80.414062 344.761719 80.257812 344.730469 80.101562 344.695312 C 79.90625 344.65625 79.703125 344.601562 79.503906 344.554688 C 79.199219 344.476562 78.878906 344.398438 78.550781 344.34375 C 78.371094 344.316406 78.1875 344.28125 78.007812 344.246094 C 77.675781 344.183594 77.328125 344.117188 76.980469 344.082031 C 76.792969 344.0625 76.628906 344.195312 76.609375 344.382812 C 76.59375 344.566406 76.726562 344.734375 76.910156 344.75 C 77.234375 344.785156 77.5625 344.84375 77.882812 344.90625 C 78.070312 344.941406 78.257812 344.976562 78.445312 345.007812 C 78.742188 345.054688 79.03125 345.128906 79.339844 345.207031 C 79.542969 345.257812 79.75 345.308594 79.960938 345.355469 C 80.121094 345.386719 80.277344 345.417969 80.433594 345.453125 C 80.78125 345.519531 81.140625 345.59375 81.484375 345.679688 C 81.78125 345.753906 82.085938 345.847656 82.378906 345.933594 C 82.582031 345.996094 82.785156 346.058594 82.988281 346.113281 L 83.203125 346.175781 C 83.628906 346.292969 84.066406 346.417969 84.492188 346.542969 C 84.703125 346.605469 84.914062 346.667969 85.125 346.726562 C 85.417969 346.8125 85.710938 346.894531 86.003906 346.984375 C 86.269531 347.0625 86.542969 347.125 86.808594 347.183594 C 87.0625 347.238281 87.300781 347.289062 87.535156 347.359375 C 87.828125 347.445312 88.125 347.523438 88.410156 347.59375 C 88.628906 347.648438 88.84375 347.707031 89.058594 347.765625 C 89.28125 347.828125 89.496094 347.910156 89.726562 348.003906 C 89.992188 348.109375 90.265625 348.21875 90.558594 348.289062 C 90.855469 348.363281 91.160156 348.398438 91.449219 348.429688 C 91.6875 348.453125 91.910156 348.476562 92.128906 348.523438 C 92.152344 348.527344 92.175781 348.53125 92.199219 348.53125 C 92.355469 348.535156 92.496094 348.421875 92.53125 348.261719 Z M 42.640625 322.984375 C 42.71875 322.683594 42.785156 322.382812 42.847656 322.089844 C 42.898438 321.847656 42.953125 321.601562 43.011719 321.355469 C 43.144531 320.816406 43.277344 320.28125 43.402344 319.742188 C 43.472656 319.445312 43.53125 319.140625 43.585938 318.847656 C 43.632812 318.605469 43.679688 318.351562 43.730469 318.113281 C 43.804688 317.789062 43.871094 317.460938 43.933594 317.144531 C 43.976562 316.921875 44.019531 316.703125 44.066406 316.484375 C 44.121094 316.234375 44.1875 315.992188 44.257812 315.734375 C 44.335938 315.453125 44.414062 315.164062 44.472656 314.867188 C 44.519531 314.628906 44.570312 314.390625 44.625 314.152344 C 44.6875 313.855469 44.757812 313.546875 44.8125 313.238281 C 44.847656 313.054688 44.730469 312.878906 44.546875 312.847656 C 44.363281 312.8125 44.1875 312.929688 44.152344 313.113281 C 44.097656 313.410156 44.03125 313.714844 43.96875 314.007812 C 43.914062 314.253906 43.863281 314.496094 43.8125 314.738281 C 43.761719 315.007812 43.6875 315.273438 43.609375 315.554688 C 43.539062 315.808594 43.464844 316.074219 43.40625 316.34375 C 43.359375 316.566406 43.316406 316.789062 43.273438 317.011719 C 43.210938 317.324219 43.144531 317.648438 43.074219 317.964844 C 43.015625 318.21875 42.96875 318.476562 42.921875 318.726562 C 42.867188 319.011719 42.8125 319.304688 42.746094 319.589844 C 42.621094 320.125 42.488281 320.660156 42.359375 321.199219 C 42.296875 321.449219 42.242188 321.703125 42.1875 321.949219 C 42.125 322.234375 42.0625 322.53125 41.988281 322.816406 C 41.941406 322.996094 42.050781 323.179688 42.230469 323.226562 C 42.257812 323.234375 42.289062 323.238281 42.316406 323.238281 C 42.464844 323.238281 42.601562 323.136719 42.640625 322.984375 Z M 41.546875 326.605469 C 41.730469 326.601562 41.878906 326.449219 41.878906 326.265625 C 41.871094 325.820312 41.976562 325.378906 42.085938 324.910156 L 42.128906 324.722656 C 42.171875 324.542969 42.054688 324.359375 41.875 324.320312 C 41.695312 324.277344 41.511719 324.390625 41.472656 324.570312 L 41.429688 324.753906 C 41.316406 325.242188 41.199219 325.746094 41.203125 326.269531 C 41.207031 326.457031 41.355469 326.605469 41.539062 326.605469 C 41.542969 326.605469 41.542969 326.605469 41.546875 326.605469 Z M 81.636719 353.070312 C 81.675781 352.890625 81.558594 352.710938 81.375 352.671875 C 80.972656 352.585938 80.761719 352.558594 80.558594 352.53125 C 80.359375 352.5 80.171875 352.476562 79.789062 352.394531 C 79.382812 352.308594 79.175781 352.277344 78.972656 352.25 C 78.773438 352.21875 78.585938 352.191406 78.199219 352.109375 C 77.816406 352.03125 77.632812 351.980469 77.4375 351.925781 C 77.242188 351.871094 77.039062 351.816406 76.632812 351.734375 C 76.242188 351.648438 76.042969 351.605469 75.851562 351.558594 C 75.65625 351.511719 75.457031 351.46875 75.058594 351.382812 C 74.675781 351.300781 74.488281 351.253906 74.292969 351.199219 C 74.09375 351.148438 73.894531 351.097656 73.488281 351.011719 C 73.074219 350.925781 72.859375 350.910156 72.648438 350.894531 C 72.453125 350.878906 72.265625 350.863281 71.890625 350.785156 C 71.511719 350.707031 71.332031 350.652344 71.136719 350.59375 C 70.941406 350.535156 70.738281 350.476562 70.328125 350.390625 C 69.929688 350.304688 69.722656 350.269531 69.519531 350.238281 C 69.320312 350.207031 69.128906 350.175781 68.742188 350.09375 C 68.5625 350.058594 68.382812 350.175781 68.34375 350.355469 C 68.308594 350.539062 68.421875 350.714844 68.605469 350.753906 C 69.007812 350.839844 69.214844 350.875 69.414062 350.90625 C 69.613281 350.9375 69.804688 350.96875 70.191406 351.050781 C 70.570312 351.128906 70.753906 351.183594 70.945312 351.242188 C 71.144531 351.300781 71.347656 351.359375 71.753906 351.445312 C 72.171875 351.535156 72.386719 351.550781 72.597656 351.566406 C 72.792969 351.582031 72.980469 351.59375 73.351562 351.671875 C 73.738281 351.753906 73.925781 351.800781 74.121094 351.855469 C 74.316406 351.90625 74.519531 351.957031 74.921875 352.042969 C 75.3125 352.125 75.503906 352.167969 75.699219 352.214844 C 75.894531 352.261719 76.097656 352.308594 76.496094 352.390625 C 76.878906 352.472656 77.0625 352.523438 77.257812 352.574219 C 77.453125 352.628906 77.65625 352.683594 78.0625 352.769531 C 78.464844 352.855469 78.671875 352.886719 78.875 352.914062 C 79.074219 352.945312 79.265625 352.972656 79.648438 353.054688 C 80.054688 353.140625 80.261719 353.167969 80.464844 353.195312 C 80.664062 353.222656 80.855469 353.25 81.238281 353.332031 C 81.261719 353.335938 81.285156 353.339844 81.308594 353.339844 C 81.464844 353.339844 81.601562 353.230469 81.636719 353.070312 Z M 84.832031 353.917969 C 84.875 353.734375 84.765625 353.554688 84.585938 353.511719 C 84.203125 353.417969 84.019531 353.359375 83.828125 353.296875 C 83.632812 353.234375 83.429688 353.171875 83.019531 353.070312 C 82.839844 353.027344 82.65625 353.140625 82.613281 353.320312 C 82.570312 353.503906 82.683594 353.683594 82.863281 353.726562 C 83.246094 353.820312 83.429688 353.878906 83.621094 353.9375 C 83.816406 354.003906 84.019531 354.066406 84.425781 354.164062 C 84.453125 354.171875 84.480469 354.175781 84.507812 354.175781 C 84.660156 354.175781 84.796875 354.070312 84.832031 353.917969 Z M 101.46875 335.480469 C 101.554688 335.117188 101.621094 334.945312 101.691406 334.765625 C 101.765625 334.570312 101.84375 334.371094 101.941406 333.960938 C 102.035156 333.570312 102.070312 333.367188 102.105469 333.171875 C 102.140625 332.972656 102.175781 332.789062 102.261719 332.410156 C 102.351562 332.03125 102.40625 331.851562 102.464844 331.660156 C 102.519531 331.46875 102.582031 331.273438 102.675781 330.878906 L 102.851562 330.132812 C 102.898438 329.929688 102.945312 329.738281 103.039062 329.339844 C 103.132812 328.9375 103.160156 328.730469 103.191406 328.527344 C 103.214844 328.332031 103.242188 328.148438 103.328125 327.78125 C 103.414062 327.402344 103.46875 327.222656 103.523438 327.03125 C 103.582031 326.839844 103.640625 326.640625 103.730469 326.246094 C 103.773438 326.066406 103.660156 325.886719 103.480469 325.84375 C 103.296875 325.800781 103.117188 325.910156 103.074219 326.09375 C 102.988281 326.46875 102.933594 326.648438 102.878906 326.839844 C 102.820312 327.03125 102.761719 327.230469 102.671875 327.625 C 102.578125 328.027344 102.550781 328.234375 102.519531 328.4375 C 102.496094 328.632812 102.46875 328.816406 102.382812 329.183594 C 102.289062 329.582031 102.242188 329.777344 102.195312 329.976562 L 102.019531 330.726562 C 101.929688 331.097656 101.875 331.277344 101.820312 331.464844 C 101.761719 331.660156 101.699219 331.859375 101.605469 332.257812 C 101.515625 332.652344 101.476562 332.855469 101.441406 333.050781 C 101.40625 333.246094 101.371094 333.433594 101.285156 333.808594 C 101.199219 334.171875 101.132812 334.34375 101.0625 334.523438 C 100.984375 334.714844 100.90625 334.917969 100.808594 335.328125 C 100.769531 335.507812 100.878906 335.691406 101.058594 335.730469 C 101.085938 335.738281 101.113281 335.742188 101.136719 335.742188 C 101.292969 335.738281 101.429688 335.636719 101.46875 335.480469 Z M 98.875 346.402344 C 98.9375 346.132812 98.976562 346.003906 99.015625 345.871094 C 99.058594 345.730469 99.101562 345.589844 99.171875 345.304688 C 99.214844 345.125 99.105469 344.941406 98.921875 344.898438 C 98.742188 344.855469 98.558594 344.964844 98.515625 345.144531 C 98.453125 345.414062 98.414062 345.539062 98.371094 345.675781 C 98.332031 345.816406 98.285156 345.957031 98.21875 346.242188 C 98.175781 346.425781 98.285156 346.605469 98.46875 346.652344 C 98.492188 346.65625 98.519531 346.660156 98.546875 346.660156 C 98.699219 346.660156 98.835938 346.554688 98.875 346.402344 Z M 95.386719 355.457031 C 95.703125 355.226562 95.953125 354.882812 96.222656 354.519531 C 96.261719 354.460938 96.308594 354.402344 96.351562 354.339844 C 96.621094 353.980469 96.917969 353.371094 97.148438 352.714844 C 97.257812 352.410156 97.34375 352.070312 97.425781 351.742188 C 97.480469 351.511719 97.539062 351.273438 97.609375 351.042969 C 97.671875 350.820312 97.742188 350.601562 97.808594 350.382812 C 97.917969 350.035156 98.019531 349.707031 98.101562 349.390625 L 98.210938 348.996094 C 98.355469 348.453125 98.363281 348.421875 98.53125 347.722656 C 98.578125 347.539062 98.464844 347.359375 98.285156 347.3125 C 98.101562 347.269531 97.921875 347.382812 97.878906 347.5625 C 97.710938 348.253906 97.707031 348.277344 97.558594 348.820312 L 97.453125 349.214844 C 97.371094 349.515625 97.273438 349.839844 97.167969 350.179688 C 97.097656 350.402344 97.027344 350.625 96.960938 350.851562 C 96.890625 351.09375 96.828125 351.335938 96.769531 351.574219 C 96.6875 351.902344 96.609375 352.210938 96.511719 352.488281 C 96.265625 353.191406 95.988281 353.695312 95.8125 353.9375 C 95.765625 354 95.722656 354.058594 95.679688 354.117188 C 95.433594 354.453125 95.222656 354.742188 94.996094 354.90625 C 94.710938 355.109375 94.398438 355.160156 93.941406 355.070312 C 93.757812 355.035156 93.585938 355.15625 93.546875 355.335938 C 93.511719 355.519531 93.632812 355.695312 93.816406 355.734375 C 94 355.769531 94.171875 355.785156 94.332031 355.785156 C 94.734375 355.789062 95.078125 355.679688 95.386719 355.457031 Z M 50.300781 345.765625 C 50.34375 345.585938 50.234375 345.402344 50.050781 345.359375 C 49.679688 345.269531 49.503906 345.207031 49.316406 345.136719 C 49.121094 345.066406 48.917969 344.996094 48.511719 344.894531 C 48.105469 344.796875 47.894531 344.765625 47.691406 344.738281 C 47.492188 344.707031 47.308594 344.679688 46.933594 344.589844 C 46.554688 344.496094 46.371094 344.441406 46.183594 344.378906 C 45.988281 344.316406 45.789062 344.25 45.386719 344.15625 C 45 344.0625 44.804688 344.007812 44.617188 343.957031 C 44.425781 343.90625 44.226562 343.851562 43.832031 343.753906 C 43.433594 343.660156 43.230469 343.617188 43.035156 343.578125 C 42.835938 343.535156 42.648438 343.496094 42.261719 343.402344 C 42.082031 343.359375 41.898438 343.46875 41.855469 343.652344 C 41.8125 343.832031 41.925781 344.015625 42.105469 344.058594 C 42.5 344.15625 42.703125 344.195312 42.898438 344.238281 C 43.101562 344.277344 43.289062 344.316406 43.671875 344.410156 C 44.058594 344.503906 44.246094 344.554688 44.441406 344.609375 C 44.636719 344.660156 44.832031 344.714844 45.230469 344.808594 C 45.605469 344.902344 45.789062 344.957031 45.976562 345.019531 C 46.171875 345.082031 46.371094 345.148438 46.777344 345.246094 C 47.179688 345.34375 47.390625 345.375 47.59375 345.402344 C 47.792969 345.433594 47.980469 345.460938 48.355469 345.550781 C 48.726562 345.640625 48.902344 345.707031 49.089844 345.773438 C 49.285156 345.84375 49.488281 345.917969 49.894531 346.015625 C 49.921875 346.019531 49.949219 346.023438 49.976562 346.023438 C 50.125 346.023438 50.261719 345.921875 50.300781 345.765625 Z M 52.523438 346.1875 C 52.566406 346.007812 52.453125 345.824219 52.273438 345.78125 C 51.957031 345.703125 51.78125 345.695312 51.625 345.6875 C 51.480469 345.683594 51.355469 345.675781 51.101562 345.613281 C 50.921875 345.570312 50.742188 345.683594 50.695312 345.863281 C 50.652344 346.046875 50.765625 346.226562 50.945312 346.269531 C 51.261719 346.347656 51.4375 346.355469 51.589844 346.363281 C 51.734375 346.367188 51.859375 346.375 52.113281 346.4375 C 52.140625 346.445312 52.167969 346.445312 52.195312 346.445312 C 52.347656 346.445312 52.484375 346.34375 52.523438 346.1875 Z M 52.523438 346.1875 " fill-opacity="1" fill-rule="nonzero"/></svg>