<svg xmlns="http://www.w3.org/2000/svg" xmlns:xlink="http://www.w3.org/1999/xlink" width="150" zoomAndPan="magnify" viewBox="0 0 113.04 120.96" height="150" preserveAspectRatio="xMidYMid meet" version="1.2"><defs><clipPath id="4e51ec00ae"><path d="M 0 0.488281 L 111.550781 0.488281 L 111.550781 112.042969 L 0 112.042969 Z M 0 0.488281 "/></clipPath><clipPath id="84120d0f7c"><path d="M 0 0.574219 L 78.832031 0.574219 L 78.832031 111.957031 L 0 111.957031 Z M 0 0.574219 "/></clipPath><clipPath id="3af7b95aa1"><path d="M 63.324219 108.171875 L 78.832031 108.171875 L 78.832031 111.289062 L 63.324219 111.289062 Z M 63.324219 108.171875 "/></clipPath><clipPath id="fd4fb43d53"><path d="M 0 0.488281 L 78.832031 0.488281 L 78.832031 111 L 0 111 Z M 0 0.488281 "/></clipPath></defs><g id="4c1aa4c6b0"><g clip-rule="nonzero" clip-path="url(#4e51ec00ae)"><path style=" stroke:none;fill-rule:nonzero;fill:#ffffff;fill-opacity:1;" d="M 0 0.488281 L 111.550781 0.488281 L 111.550781 112.042969 L 0 112.042969 Z M 0 0.488281 "/><path style=" stroke:none;fill-rule:nonzero;fill:#ffffff;fill-opacity:1;" d="M 0 0.488281 L 111.550781 0.488281 L 111.550781 112.042969 L 0 112.042969 Z M 0 0.488281 "/></g><g clip-rule="nonzero" clip-path="url(#84120d0f7c)"><path style=" stroke:none;fill-rule:nonzero;fill:#ffffff;fill-opacity:1;" d="M 57.414062 111.035156 L 57.414062 111.039062 Z M 78.703125 108.003906 C 78.703125 108.003906 78.371094 106.542969 78.261719 105.886719 C 77.992188 104.261719 76.46875 102.65625 76.296875 102.480469 L 76.273438 102.457031 L 76.257812 102.375 C 76.230469 102.230469 76.207031 102.089844 76.183594 101.945312 L 76.167969 101.847656 L 76.261719 101.820312 C 77.019531 101.589844 77.816406 101.328125 78.628906 101.035156 C 78.632812 101.03125 78.640625 101.027344 78.640625 101.015625 C 78.429688 93.613281 73.789062 65.617188 73.257812 62.449219 L 73.242188 62.347656 L 73.34375 62.324219 C 73.492188 62.289062 73.742188 62.21875 74.089844 62.078125 L 74.117188 62.054688 L 71.082031 37.101562 C 70.910156 35.214844 70.613281 33.078125 69.730469 31.546875 C 69.492188 31.140625 69.242188 30.800781 68.953125 30.515625 C 68.3125 29.875 67.464844 29.484375 66.71875 29.1875 C 66.695312 29.175781 66.585938 29.132812 66.5625 29.121094 L 66.429688 29.074219 C 66.019531 28.925781 65.59375 28.828125 65.1875 28.738281 L 64.949219 28.679688 C 64.457031 28.566406 64.105469 28.328125 63.910156 27.980469 C 63.847656 27.871094 63.796875 27.746094 63.765625 27.605469 L 63.757812 27.570312 C 63.753906 27.546875 63.75 27.527344 63.746094 27.503906 C 63.722656 27.371094 63.699219 27.167969 63.710938 26.96875 L 63.710938 26.9375 C 63.714844 26.894531 63.71875 26.847656 63.722656 26.828125 L 63.722656 26.804688 L 63.726562 26.796875 C 63.738281 26.691406 63.769531 26.597656 63.808594 26.515625 C 63.855469 26.410156 63.953125 26.304688 64.082031 26.210938 C 64.105469 26.191406 64.128906 26.175781 64.152344 26.160156 L 64.195312 26.128906 C 64.210938 26.121094 64.222656 26.109375 64.238281 26.097656 C 64.355469 26.007812 64.472656 25.914062 64.59375 25.8125 C 64.832031 25.660156 65.039062 25.511719 65.171875 25.398438 C 66.320312 24.441406 67.273438 23.460938 67.949219 22.554688 C 68.109375 22.40625 68.242188 22.265625 68.355469 22.128906 C 68.679688 21.738281 68.929688 21.253906 69.144531 20.597656 C 69.359375 19.949219 69.613281 19.117188 69.648438 18.441406 C 69.699219 17.605469 69.445312 16.652344 69.207031 15.828125 C 68.992188 15.089844 68.632812 14.414062 68.144531 13.824219 C 67.652344 13.234375 67.007812 12.792969 66.382812 12.402344 C 65.898438 12.097656 65.371094 11.804688 64.808594 11.691406 L 64.785156 11.683594 C 64.277344 11.464844 63.105469 11.113281 61.941406 11.046875 C 61.507812 10.960938 61.125 10.914062 60.773438 10.898438 C 60.570312 10.890625 60.367188 10.886719 60.15625 10.886719 C 59.964844 10.886719 59.765625 10.890625 59.570312 10.898438 L 59.542969 10.902344 L 59.566406 10.789062 L 59.566406 0.574219 L 0 0.574219 L 0 85.519531 L 15.050781 85.519531 L 15.050781 85.660156 L 44.167969 85.660156 L 44.1875 85.546875 L 44.289062 85.546875 L 42.8125 100.285156 C 42.828125 100.289062 44.382812 100.808594 45.230469 101.144531 C 45.863281 101.417969 46.511719 101.664062 47.164062 101.878906 L 47.238281 101.902344 L 47.242188 101.980469 C 47.300781 103.253906 47.359375 104.53125 47.421875 105.804688 L 47.4375 106.105469 L 47.339844 106.121094 C 45.640625 106.382812 43.996094 107.429688 42.941406 108.921875 C 42.667969 109.308594 42.074219 110.925781 42.074219 110.925781 L 42.015625 110.925781 C 41.945312 110.925781 41.886719 110.984375 41.886719 111.054688 C 41.886719 111.128906 41.945312 111.183594 42.015625 111.183594 C 42.015625 111.183594 42.074219 111.464844 42.054688 111.578125 L 42.046875 111.636719 L 42.082031 111.644531 C 42.132812 111.644531 42.328125 111.648438 42.640625 111.652344 C 43.359375 111.664062 44.699219 111.6875 46.304688 111.714844 L 46.378906 111.601562 L 46.453125 111.714844 C 48.949219 111.757812 54.851562 111.847656 57.269531 111.847656 L 57.285156 111.847656 L 57.414062 111.183594 C 57.484375 111.183594 57.542969 111.125 57.542969 111.054688 C 57.542969 110.984375 57.484375 110.929688 57.414062 110.925781 C 57.414062 110.925781 57.328125 109.480469 57.328125 108.769531 C 57.328125 107.179688 56.199219 105.589844 55.972656 105.285156 L 55.945312 105.25 L 55.949219 105.207031 L 55.957031 105.140625 L 56.164062 103.832031 C 56.195312 103.648438 56.347656 102.71875 56.347656 102.71875 L 56.425781 102.703125 C 58.027344 102.441406 59.605469 101.953125 61.105469 101.253906 C 61.117188 101.25 61.121094 101.242188 61.121094 101.234375 C 61.046875 96.996094 61.027344 90.332031 61.058594 81.433594 L 61.28125 81.425781 L 62.292969 101.703125 C 63.839844 102.359375 65.5 102.777344 67.226562 102.941406 L 67.324219 102.9375 L 67.324219 103.039062 C 67.4375 103.316406 67.550781 103.597656 67.664062 103.875 C 67.777344 104.15625 67.890625 104.433594 68.003906 104.710938 L 68.019531 104.730469 L 68.078125 104.851562 L 67.953125 104.890625 C 66.332031 105.429688 64.886719 106.726562 64.089844 108.359375 C 63.882812 108.785156 63.5625 110.484375 63.5625 110.484375 L 63.527344 110.492188 C 63.457031 110.503906 63.410156 110.570312 63.421875 110.640625 C 63.429688 110.703125 63.488281 110.746094 63.546875 110.746094 C 63.546875 110.75 63.546875 110.75 63.546875 110.75 C 63.546875 110.75 63.648438 111.007812 63.648438 111.117188 L 63.648438 111.136719 L 63.667969 111.136719 C 63.667969 111.136719 67.859375 110.503906 71.960938 109.871094 C 74.945312 109.417969 77.335938 109.042969 78.6875 108.820312 L 78.703125 108.816406 L 78.703125 108.796875 C 78.699219 108.785156 78.726562 108.257812 78.726562 108.257812 C 78.730469 108.253906 78.734375 108.253906 78.738281 108.25 C 78.800781 108.234375 78.839844 108.175781 78.828125 108.109375 C 78.820312 108.046875 78.765625 108.003906 78.703125 108.003906 "/></g><g clip-rule="nonzero" clip-path="url(#3af7b95aa1)"><path style=" stroke:none;fill-rule:nonzero;fill:#100f0d;fill-opacity:1;" d="M 78.828125 108.910156 L 78.707031 108.929688 C 77.480469 109.132812 75.214844 109.488281 71.980469 109.984375 C 67.878906 110.613281 63.6875 111.246094 63.6875 111.246094 L 63.535156 111.269531 L 63.539062 111.117188 C 63.539062 111 63.542969 110.875 63.546875 110.75 L 64.945312 110.519531 C 65 110.585938 65.078125 110.636719 65.171875 110.691406 C 65.21875 110.613281 65.261719 110.539062 65.308594 110.460938 L 78.726562 108.257812 C 78.730469 108.257812 78.734375 108.253906 78.742188 108.253906 C 78.785156 108.589844 78.8125 108.78125 78.8125 108.789062 L 78.828125 108.910156 "/></g><g clip-rule="nonzero" clip-path="url(#fd4fb43d53)"><path style=" stroke:none;fill-rule:nonzero;fill:#100f0d;fill-opacity:1;" d="M 72.5625 103.546875 C 72.554688 103.550781 71.902344 103.96875 71.15625 104.3125 C 70.707031 104.515625 70.316406 104.652344 70.003906 104.71875 C 69.671875 104.78125 69.324219 104.816406 68.980469 104.816406 C 68.59375 104.816406 68.304688 104.773438 68.179688 104.753906 C 67.953125 104.191406 67.722656 103.632812 67.496094 103.074219 C 67.980469 103.113281 68.460938 103.132812 68.9375 103.132812 C 71.445312 103.132812 73.855469 102.644531 76.042969 102 C 76.058594 102.117188 76.082031 102.230469 76.097656 102.347656 C 75.566406 102.40625 73.691406 102.675781 72.5625 103.546875 Z M 75.105469 104.796875 C 75.097656 104.800781 75.09375 104.804688 75.085938 104.8125 C 75.007812 104.792969 74.929688 104.773438 74.816406 104.746094 C 74.851562 104.632812 74.878906 104.550781 74.933594 104.382812 C 75.046875 104.53125 75.109375 104.621094 75.175781 104.707031 C 75.152344 104.738281 75.128906 104.765625 75.105469 104.796875 Z M 73.054688 107.136719 C 72.863281 107.042969 72.707031 106.9375 72.6875 106.707031 C 72.714844 106.6875 72.746094 106.667969 72.777344 106.648438 C 73.070312 106.722656 73.070312 106.757812 73.054688 107.136719 Z M 70.144531 105.917969 C 69.992188 105.828125 69.835938 105.738281 69.683594 105.648438 C 69.789062 105.53125 69.902344 105.53125 70.035156 105.621094 C 70.140625 105.691406 70.191406 105.785156 70.144531 105.917969 Z M 69.441406 107.082031 C 69.371094 107.175781 69.277344 107.320312 69.195312 107.320312 C 69.007812 107.3125 68.972656 107.148438 69.03125 106.9375 C 69.144531 106.921875 69.265625 106.910156 69.394531 106.898438 C 69.417969 106.980469 69.460938 107.058594 69.441406 107.082031 Z M 46.210938 51.734375 C 46.367188 51.546875 46.46875 51.425781 46.585938 51.28125 C 46.746094 51.746094 46.703125 51.808594 46.210938 51.734375 Z M 44.824219 52.28125 C 44.78125 52.195312 44.738281 52.144531 44.734375 52.097656 C 44.726562 51.855469 44.734375 51.613281 44.734375 51.292969 C 44.804688 51.28125 44.925781 51.265625 45.058594 51.25 C 45.070312 51.546875 45.082031 51.773438 45.097656 52.054688 C 45.035156 52.105469 44.9375 52.183594 44.824219 52.28125 Z M 43.554688 54.6875 C 43.96875 54.402344 44.042969 54.421875 44.191406 54.90625 C 43.9375 54.816406 43.769531 54.761719 43.554688 54.6875 Z M 43.566406 61.367188 C 43.667969 61.414062 43.773438 61.453125 43.894531 61.503906 C 43.671875 61.730469 43.671875 61.730469 43.566406 61.367188 Z M 42.445312 68.472656 C 42.449219 68.476562 42.449219 68.476562 42.449219 68.480469 C 42.445312 68.480469 42.445312 68.484375 42.441406 68.484375 C 42.492188 68.746094 42.414062 68.878906 42.125 68.863281 C 42.132812 68.578125 42.242188 68.480469 42.441406 68.484375 L 42.441406 68.472656 C 42.445312 68.472656 42.445312 68.472656 42.445312 68.472656 C 42.421875 68.34375 42.394531 68.210938 42.363281 68.0625 C 42.667969 67.882812 42.921875 67.890625 43.207031 68.140625 C 42.972656 68.375 42.75 68.523438 42.445312 68.472656 Z M 42.203125 70.300781 C 42.277344 70.144531 42.324219 70.058594 42.40625 69.890625 C 42.476562 70.046875 42.519531 70.132812 42.585938 70.265625 C 42.445312 70.28125 42.359375 70.289062 42.203125 70.300781 Z M 41.851562 64.339844 C 42.101562 64.308594 42.273438 64.289062 42.445312 64.265625 C 42.449219 64.320312 42.453125 64.375 42.460938 64.425781 C 42.289062 64.589844 42.117188 64.664062 41.851562 64.339844 Z M 41.707031 60.046875 C 41.675781 59.890625 41.65625 59.789062 41.617188 59.59375 C 41.785156 59.675781 41.882812 59.726562 42.046875 59.808594 C 41.90625 59.910156 41.828125 59.964844 41.707031 60.046875 Z M 41.3125 70.738281 C 41.136719 70.542969 41.015625 70.410156 40.894531 70.277344 C 40.925781 70.234375 40.957031 70.1875 40.988281 70.144531 C 41.144531 70.179688 41.300781 70.210938 41.503906 70.257812 C 41.457031 70.375 41.410156 70.492188 41.3125 70.738281 Z M 40.359375 62.398438 C 40.410156 62.058594 40.410156 62.058594 40.71875 62.074219 C 40.714844 62.335938 40.558594 62.382812 40.359375 62.398438 Z M 40.449219 71.855469 C 40.332031 71.742188 40.21875 71.628906 40.105469 71.519531 C 40.132812 71.484375 40.164062 71.449219 40.195312 71.414062 C 40.304688 71.53125 40.414062 71.652344 40.523438 71.765625 C 40.496094 71.796875 40.472656 71.824219 40.449219 71.855469 Z M 39.839844 61.957031 C 39.917969 61.863281 39.984375 61.785156 40.046875 61.707031 C 40.085938 61.730469 40.121094 61.753906 40.15625 61.773438 C 40.125 61.875 40.097656 61.972656 40.054688 62.09375 C 39.972656 62.039062 39.925781 62.011719 39.839844 61.957031 Z M 39.753906 63.695312 C 39.699219 63.570312 39.664062 63.488281 39.574219 63.28125 C 39.78125 63.355469 39.855469 63.386719 39.988281 63.429688 C 39.894531 63.539062 39.839844 63.597656 39.753906 63.695312 Z M 39.433594 72.691406 C 39.492188 72.667969 39.546875 72.648438 39.609375 72.625 C 39.644531 72.734375 39.679688 72.84375 39.726562 72.988281 C 39.4375 72.972656 39.398438 72.855469 39.433594 72.691406 Z M 38.691406 71.546875 C 38.621094 71.675781 38.546875 71.800781 38.433594 71.988281 C 38.324219 71.828125 38.265625 71.746094 38.183594 71.628906 C 38.332031 71.539062 38.441406 71.472656 38.554688 71.402344 C 38.597656 71.304688 38.640625 71.207031 38.695312 71.082031 C 38.933594 71.277344 38.875 71.417969 38.691406 71.546875 Z M 38.128906 73.8125 C 37.941406 73.664062 37.757812 73.515625 37.503906 73.308594 C 37.703125 73.15625 37.820312 73.0625 37.964844 72.957031 C 38.160156 73.015625 38.351562 73.070312 38.597656 73.140625 C 38.433594 73.375 38.304688 73.5625 38.128906 73.8125 Z M 37.15625 74.984375 C 37.035156 74.753906 37.0625 74.625 37.273438 74.53125 C 37.4375 74.777344 37.328125 74.875 37.15625 74.984375 Z M 37.007812 73.273438 C 37.117188 73.511719 37.167969 73.621094 37.234375 73.765625 C 37.105469 73.804688 37.027344 73.835938 36.789062 73.914062 C 36.878906 73.648438 36.921875 73.523438 37.007812 73.273438 Z M 36.550781 71.355469 C 36.882812 71.234375 37.019531 71.417969 37.113281 71.671875 C 36.851562 71.71875 36.636719 71.6875 36.550781 71.355469 Z M 36.492188 70.5 C 36.617188 70.484375 36.714844 70.476562 36.921875 70.460938 C 36.808594 70.65625 36.746094 70.765625 36.6875 70.871094 C 36.636719 70.851562 36.589844 70.832031 36.542969 70.816406 C 36.527344 70.722656 36.511719 70.632812 36.492188 70.5 Z M 36.222656 73.457031 C 36.332031 73.558594 36.414062 73.632812 36.523438 73.730469 C 36.21875 73.832031 36.21875 73.832031 36.222656 73.457031 Z M 35.828125 70.90625 C 35.667969 70.753906 35.507812 70.605469 35.355469 70.460938 C 35.507812 69.992188 35.792969 70.195312 36.085938 70.164062 C 36.140625 70.359375 36.175781 70.484375 36.21875 70.632812 C 36.089844 70.722656 35.984375 70.796875 35.828125 70.90625 Z M 35.613281 73.757812 C 35.507812 73.507812 35.261719 73.359375 35.324219 72.972656 C 35.5625 73.085938 35.707031 73.15625 35.917969 73.257812 C 35.800781 73.453125 35.707031 73.605469 35.613281 73.757812 Z M 35.75 74.21875 C 35.710938 74.214844 35.671875 74.210938 35.632812 74.207031 L 35.632812 73.890625 C 35.691406 73.898438 35.746094 73.90625 35.804688 73.914062 C 35.785156 74.019531 35.769531 74.117188 35.75 74.21875 Z M 35.566406 69.359375 L 35.566406 69.679688 C 35.460938 69.617188 35.402344 69.582031 35.347656 69.550781 C 35.390625 69.472656 35.4375 69.398438 35.484375 69.320312 C 35.511719 69.335938 35.539062 69.347656 35.566406 69.359375 Z M 34.945312 64.507812 C 35.339844 64.460938 35.730469 64.417969 36.125 64.375 C 36.136719 64.417969 36.148438 64.457031 36.164062 64.496094 C 35.945312 64.71875 35.722656 64.9375 35.496094 65.164062 C 35.277344 64.992188 35.085938 64.839844 34.890625 64.683594 C 34.910156 64.625 34.929688 64.566406 34.945312 64.507812 Z M 34.574219 73.753906 L 34.574219 73.757812 C 34.625 73.851562 34.679688 73.949219 34.746094 74.070312 C 34.625 74.167969 34.523438 74.246094 34.402344 74.34375 C 34.308594 74.273438 34.21875 74.207031 34.128906 74.140625 C 33.996094 74.253906 33.859375 74.367188 33.644531 74.554688 C 33.679688 74.113281 33.863281 74.074219 34.085938 74.089844 C 34.25 73.980469 34.410156 73.867188 34.574219 73.757812 C 34.570312 73.753906 34.570312 73.753906 34.566406 73.75 C 34.566406 73.75 34.566406 73.746094 34.570312 73.746094 C 34.507812 73.6875 34.4375 73.621094 34.300781 73.496094 C 34.476562 73.480469 34.585938 73.46875 34.800781 73.457031 C 34.675781 73.613281 34.625 73.679688 34.570312 73.746094 C 34.574219 73.75 34.574219 73.753906 34.574219 73.753906 Z M 34.042969 55.707031 C 34.085938 55.878906 34.117188 56.011719 34.171875 56.261719 C 33.964844 56.117188 33.851562 56.035156 33.664062 55.898438 C 33.832031 55.8125 33.914062 55.773438 34.042969 55.707031 Z M 33.757812 69.316406 C 33.867188 69.089844 33.949219 68.921875 34.078125 68.65625 C 34.171875 68.96875 34.238281 69.195312 34.308594 69.417969 C 34.273438 69.464844 34.238281 69.511719 34.203125 69.558594 C 34.0625 69.480469 33.917969 69.40625 33.757812 69.316406 Z M 34.492188 73.097656 C 34.234375 73.113281 34.160156 72.996094 34.144531 72.773438 C 34.425781 72.734375 34.492188 72.851562 34.492188 73.097656 Z M 34.355469 57.300781 C 34.617188 57.503906 34.566406 57.613281 34.253906 57.679688 C 34.285156 57.570312 34.3125 57.460938 34.355469 57.300781 Z M 34.640625 54.539062 C 34.785156 54.824219 34.691406 54.898438 34.417969 54.859375 C 34.511719 54.722656 34.574219 54.628906 34.640625 54.539062 Z M 36.503906 52.816406 C 36.316406 52.925781 36.230469 52.972656 36.125 53.035156 C 36.128906 52.71875 36.128906 52.71875 36.503906 52.816406 Z M 36.511719 66.65625 C 36.34375 66.765625 36.253906 66.824219 36.160156 66.886719 C 36.121094 66.816406 36.082031 66.78125 36.085938 66.753906 C 36.117188 66.519531 36.222656 66.460938 36.511719 66.65625 Z M 36.453125 62.796875 C 36.46875 62.746094 36.484375 62.695312 36.496094 62.640625 C 36.589844 62.675781 36.683594 62.707031 36.777344 62.738281 C 36.761719 62.789062 36.75 62.839844 36.738281 62.886719 C 36.640625 62.855469 36.546875 62.828125 36.453125 62.796875 Z M 37.066406 59.574219 C 37.035156 59.886719 36.820312 59.910156 36.558594 60.046875 C 36.542969 59.847656 36.539062 59.734375 36.53125 59.574219 Z M 37.683594 65.476562 C 37.5625 65.675781 37.492188 65.796875 37.367188 66 C 37.289062 65.796875 37.242188 65.671875 37.164062 65.476562 Z M 37.695312 67.476562 C 37.550781 67.378906 37.4375 67.300781 37.320312 67.222656 C 37.34375 67.027344 37.382812 66.867188 37.375 66.714844 C 37.367188 66.605469 37.296875 66.5 37.253906 66.390625 C 37.296875 66.363281 37.339844 66.332031 37.382812 66.300781 C 37.558594 66.507812 37.734375 66.722656 37.910156 66.925781 C 37.828125 67.128906 37.773438 67.277344 37.695312 67.476562 Z M 37.632812 71.921875 C 37.949219 72.238281 37.796875 72.503906 37.691406 72.84375 C 37.46875 72.648438 37.308594 72.5 37.09375 72.3125 C 37.289062 72.175781 37.457031 72.046875 37.632812 71.921875 Z M 36.808594 66.898438 C 37.25 66.988281 37.199219 67.492188 37.546875 67.734375 C 36.925781 67.671875 36.847656 67.578125 36.808594 66.898438 Z M 37.519531 68.40625 C 37.222656 68.488281 37.222656 68.488281 37.195312 68.160156 C 37.316406 68.25 37.402344 68.316406 37.519531 68.40625 Z M 38.363281 58.980469 C 38.226562 59.109375 38.167969 59.164062 38.054688 59.273438 C 37.992188 59.089844 37.96875 59.023438 37.910156 58.847656 C 38.082031 58.898438 38.144531 58.917969 38.363281 58.980469 Z M 38.519531 56.757812 C 38.359375 56.984375 38.359375 56.984375 38.105469 56.652344 C 38.324219 56.707031 38.414062 56.730469 38.519531 56.757812 Z M 39.707031 57.511719 C 39.734375 57.605469 39.761719 57.699219 39.789062 57.792969 C 39.757812 57.804688 39.726562 57.820312 39.695312 57.832031 C 39.652344 57.746094 39.609375 57.65625 39.5625 57.570312 C 39.613281 57.550781 39.65625 57.53125 39.707031 57.511719 Z M 40.960938 53.8125 C 40.859375 53.898438 40.753906 53.988281 40.605469 54.117188 C 40.625 53.789062 40.625 53.789062 40.960938 53.8125 Z M 41.316406 53.382812 C 41.511719 53.726562 41.449219 53.859375 41.21875 54 C 41.175781 53.953125 41.128906 53.902344 41.003906 53.761719 C 41.125 53.617188 41.199219 53.523438 41.316406 53.382812 Z M 41.746094 57.378906 C 41.828125 57.394531 41.910156 57.410156 41.992188 57.421875 C 41.984375 57.46875 41.980469 57.515625 41.96875 57.5625 C 41.886719 57.546875 41.804688 57.53125 41.722656 57.511719 C 41.730469 57.46875 41.738281 57.421875 41.746094 57.378906 Z M 42.410156 58.296875 C 42.277344 58.171875 42.195312 58.097656 42.117188 58.023438 C 42.398438 57.882812 42.414062 58.023438 42.410156 58.296875 Z M 42.644531 61.941406 C 42.394531 61.878906 42.316406 61.761719 42.382812 61.511719 C 42.636719 61.523438 42.722656 61.640625 42.644531 61.941406 Z M 43.035156 54.570312 C 42.878906 54.433594 42.789062 54.351562 42.699219 54.273438 C 42.984375 54.132812 43.03125 54.261719 43.035156 54.570312 Z M 33.210938 70.289062 C 33.285156 70.425781 33.355469 70.566406 33.449219 70.742188 C 33.101562 70.695312 33.101562 70.695312 33.210938 70.289062 Z M 32.710938 75.976562 C 32.96875 75.503906 33.011719 75.496094 33.351562 75.882812 C 33.117188 75.914062 32.941406 75.945312 32.710938 75.976562 Z M 32.167969 76.144531 C 32.152344 76.113281 32.136719 76.078125 32.117188 76.042969 C 32.199219 75.964844 32.285156 75.882812 32.425781 75.746094 C 32.464844 75.9375 32.480469 76.019531 32.503906 76.144531 Z M 31.605469 74.746094 C 31.371094 74.1875 31.882812 74.226562 31.964844 73.933594 C 32.140625 74.023438 32.265625 74.085938 32.421875 74.164062 C 32.398438 74.335938 32.378906 74.488281 32.355469 74.710938 C 32.1875 74.617188 32.066406 74.554688 31.9375 74.480469 C 31.855469 74.546875 31.753906 74.628906 31.605469 74.746094 Z M 31.472656 76.453125 C 31.363281 76.207031 31.421875 76.074219 31.664062 75.957031 C 31.84375 76.273438 31.71875 76.375 31.472656 76.453125 Z M 32.691406 60.128906 C 32.722656 60.183594 32.753906 60.238281 32.785156 60.289062 C 32.695312 60.421875 32.609375 60.554688 32.488281 60.746094 C 32.367188 60.582031 32.285156 60.472656 32.140625 60.273438 C 32.378906 60.214844 32.535156 60.167969 32.691406 60.128906 Z M 32.910156 70.535156 C 32.707031 70.601562 32.609375 70.628906 32.464844 70.679688 C 32.476562 70.496094 32.488281 70.371094 32.511719 70.160156 C 32.65625 70.296875 32.742188 70.375 32.910156 70.535156 Z M 33.335938 71.914062 C 33.226562 71.875 33.113281 71.835938 32.917969 71.765625 C 33.171875 71.578125 33.285156 71.617188 33.335938 71.914062 Z M 33.320312 60.855469 C 33.304688 60.980469 33.289062 61.09375 33.261719 61.289062 C 33.035156 61.152344 32.894531 61.066406 32.71875 60.960938 C 32.777344 60.84375 32.824219 60.75 32.886719 60.628906 C 33.046875 60.710938 33.175781 60.777344 33.320312 60.855469 Z M 30.738281 76.488281 C 30.667969 76.378906 30.621094 76.304688 30.527344 76.160156 L 31.25 76.160156 C 31.019531 76.308594 30.886719 76.390625 30.738281 76.488281 Z M 30.546875 77.210938 C 30.277344 76.996094 30.257812 76.828125 30.496094 76.609375 C 30.75 76.792969 30.816406 76.953125 30.546875 77.210938 Z M 30.136719 73.480469 C 30.234375 73.503906 30.328125 73.53125 30.421875 73.554688 C 30.417969 73.59375 30.410156 73.632812 30.40625 73.667969 C 30.3125 73.65625 30.210938 73.640625 30.117188 73.628906 C 30.125 73.578125 30.132812 73.53125 30.136719 73.480469 Z M 30.148438 68.246094 C 30.457031 68.269531 30.367188 68.457031 30.300781 68.753906 C 30.160156 68.585938 30.074219 68.484375 29.972656 68.359375 C 30.058594 68.300781 30.105469 68.242188 30.148438 68.246094 Z M 29.277344 79.546875 C 29.261719 79.230469 29.261719 79.230469 29.597656 79.117188 C 29.496094 79.253906 29.398438 79.386719 29.277344 79.546875 Z M 28.898438 80.523438 C 29.003906 80.320312 29.046875 80.238281 29.128906 80.078125 C 29.191406 80.234375 29.222656 80.3125 29.261719 80.417969 C 29.167969 80.445312 29.101562 80.464844 28.898438 80.523438 Z M 29.296875 78.597656 C 29.175781 78.660156 29.054688 78.722656 28.894531 78.800781 C 28.976562 78.484375 28.976562 78.484375 29.296875 78.597656 Z M 29.019531 77.5 C 28.953125 77.542969 28.890625 77.574219 28.820312 77.621094 C 28.839844 77.378906 28.839844 77.378906 29.019531 77.5 Z M 28.359375 76.363281 C 28.398438 76.320312 28.429688 76.242188 28.46875 76.238281 C 28.589844 76.222656 28.71875 76.234375 28.90625 76.234375 C 28.929688 76.402344 28.945312 76.53125 28.960938 76.640625 C 28.800781 76.773438 28.789062 76.769531 28.359375 76.363281 Z M 28.464844 70.929688 C 28.5 71.09375 28.527344 71.210938 28.5625 71.371094 C 28.304688 71.203125 28.304688 71.203125 28.464844 70.929688 Z M 28.074219 84.03125 C 28 83.828125 27.957031 83.722656 27.890625 83.558594 L 28.304688 83.558594 C 28.226562 83.726562 28.175781 83.832031 28.074219 84.03125 Z M 27.5 84.058594 C 27.445312 84.167969 27.390625 84.28125 27.300781 84.46875 C 27.214844 84.296875 27.171875 84.207031 27.105469 84.078125 C 27.253906 84.054688 27.359375 84.035156 27.460938 84.019531 C 27.5 83.902344 27.535156 83.789062 27.625 83.5 C 27.78125 83.664062 27.847656 83.730469 28.003906 83.894531 C 27.71875 83.988281 27.609375 84.023438 27.5 84.058594 Z M 26.921875 63.910156 C 27.097656 63.875 27.277344 63.835938 27.535156 63.78125 C 27.363281 64.179688 27.183594 64.222656 26.96875 64.140625 C 26.953125 64.066406 26.9375 63.988281 26.921875 63.910156 Z M 26.816406 78.039062 C 26.765625 78.023438 26.714844 78.011719 26.664062 78 C 26.691406 77.847656 26.722656 77.695312 26.769531 77.4375 C 27 77.742188 26.992188 77.898438 26.816406 78.039062 Z M 27.746094 56.800781 C 27.660156 56.851562 27.578125 56.90625 27.429688 56.996094 C 27.441406 56.703125 27.492188 56.585938 27.746094 56.800781 Z M 27.777344 75.277344 C 27.886719 75.140625 27.964844 75.046875 28.089844 74.894531 C 28.175781 75.242188 28.117188 75.355469 27.777344 75.277344 Z M 27.84375 81.207031 C 27.535156 81.449219 27.535156 81.449219 27.183594 81.007812 C 27.429688 81.082031 27.613281 81.136719 27.84375 81.207031 Z M 27.175781 74.234375 L 27.175781 73.855469 C 27.332031 74.042969 27.332031 74.042969 27.175781 74.234375 Z M 27.570312 73.886719 C 27.882812 73.855469 27.953125 74.070312 28.039062 74.320312 C 27.988281 74.457031 27.925781 74.617188 27.839844 74.84375 C 27.5 74.550781 27.5625 74.222656 27.570312 73.886719 Z M 27.542969 69.980469 C 27.492188 70 27.445312 70.015625 27.398438 70.03125 C 27.363281 69.898438 27.332031 69.769531 27.277344 69.585938 C 27.605469 69.648438 27.59375 69.804688 27.542969 69.980469 Z M 28.050781 69.949219 C 28.046875 69.945312 28.046875 69.941406 28.046875 69.9375 L 28.054688 69.9375 C 28.011719 69.765625 27.976562 69.589844 27.921875 69.347656 C 28.066406 69.199219 28.234375 69.019531 28.414062 68.835938 C 28.742188 69.050781 29.144531 69.019531 29.324219 69.421875 C 29.066406 69.574219 28.824219 69.71875 28.582031 69.863281 C 28.589844 69.886719 28.597656 69.914062 28.609375 69.9375 L 28.054688 69.9375 L 28.054688 69.945312 L 28.050781 69.949219 C 28.128906 70.164062 28.257812 70.382812 27.984375 70.558594 C 27.769531 70.148438 27.769531 70.144531 28.050781 69.949219 Z M 28.046875 61.046875 C 28.1875 61.152344 28.289062 61.230469 28.398438 61.308594 C 28.382812 61.34375 28.363281 61.375 28.347656 61.410156 C 28.230469 61.394531 28.113281 61.386719 27.964844 61.371094 C 27.992188 61.261719 28.011719 61.191406 28.046875 61.046875 Z M 28.75 59.644531 C 28.789062 59.765625 28.820312 59.867188 28.867188 60.003906 C 28.722656 60.0625 28.601562 60.105469 28.453125 60.160156 C 28.382812 59.855469 28.46875 59.71875 28.75 59.644531 Z M 28.699219 62.695312 C 28.859375 62.601562 28.957031 62.542969 29.078125 62.46875 C 29.019531 62.730469 29.019531 62.730469 28.699219 62.695312 Z M 29.269531 68.308594 C 29.253906 68.398438 29.234375 68.488281 29.207031 68.621094 C 29.050781 68.558594 28.921875 68.503906 28.765625 68.4375 C 28.914062 68.070312 29.074219 68.199219 29.269531 68.308594 Z M 28.292969 66.722656 C 28.339844 66.421875 28.421875 66.273438 28.707031 66.199219 C 28.738281 66.578125 28.535156 66.601562 28.292969 66.722656 Z M 28.605469 65.65625 C 28.589844 65.617188 28.570312 65.578125 28.554688 65.539062 C 28.640625 65.496094 28.730469 65.449219 28.816406 65.410156 C 28.828125 65.4375 28.84375 65.472656 28.859375 65.503906 C 28.777344 65.554688 28.691406 65.605469 28.605469 65.65625 Z M 30.265625 65.710938 C 30.277344 65.746094 30.289062 65.78125 30.296875 65.8125 C 30.210938 65.847656 30.125 65.878906 30.039062 65.914062 C 30.027344 65.871094 30.011719 65.824219 30 65.78125 C 30.089844 65.757812 30.179688 65.734375 30.265625 65.710938 Z M 30.359375 69.9375 C 30.300781 69.867188 30.253906 69.8125 30.1875 69.734375 C 30.273438 69.632812 30.351562 69.542969 30.449219 69.433594 C 30.644531 69.683594 30.554688 69.808594 30.359375 69.9375 Z M 30.664062 54.886719 C 30.679688 54.914062 30.695312 54.941406 30.710938 54.972656 C 30.613281 55.03125 30.519531 55.09375 30.425781 55.152344 C 30.410156 55.117188 30.390625 55.085938 30.375 55.054688 C 30.472656 55 30.566406 54.941406 30.664062 54.886719 Z M 25.6875 82.867188 C 25.613281 82.589844 25.617188 82.382812 25.96875 82.214844 C 25.992188 82.480469 26.007812 82.675781 26.03125 82.917969 C 25.867188 82.890625 25.78125 82.878906 25.6875 82.867188 Z M 25.671875 84.761719 C 25.558594 84.597656 25.445312 84.4375 25.300781 84.238281 C 25.324219 84.207031 25.386719 84.121094 25.507812 83.945312 C 25.621094 84.246094 25.699219 84.464844 25.785156 84.683594 C 25.75 84.707031 25.707031 84.734375 25.671875 84.761719 Z M 25.242188 81.089844 C 25.164062 81.054688 25.085938 81.019531 25.007812 80.988281 C 25.019531 80.953125 25.03125 80.914062 25.042969 80.878906 C 25.117188 80.894531 25.195312 80.914062 25.273438 80.929688 C 25.265625 80.980469 25.25 81.035156 25.242188 81.089844 Z M 24.925781 74.855469 C 24.949219 75.082031 24.964844 75.222656 24.984375 75.449219 C 24.734375 75.257812 24.679688 75.125 24.925781 74.855469 Z M 24.355469 69.738281 C 24.667969 69.703125 24.835938 69.855469 24.933594 70.113281 C 24.652344 70.148438 24.390625 70.160156 24.355469 69.738281 Z M 24.652344 84.601562 C 24.554688 84.714844 24.425781 84.800781 24.273438 84.929688 C 24.21875 84.800781 24.183594 84.71875 24.125 84.574219 C 24.320312 84.484375 24.453125 84.421875 24.617188 84.347656 C 24.636719 84.457031 24.679688 84.570312 24.652344 84.601562 Z M 23.820312 82.667969 C 24.039062 82.683594 24.167969 82.691406 24.296875 82.699219 C 24.121094 83.035156 23.988281 83.015625 23.820312 82.667969 Z M 23.902344 79.78125 C 24.023438 79.820312 24.128906 79.851562 24.371094 79.921875 C 23.996094 80.078125 24.203125 80.59375 23.71875 80.578125 C 23.789062 80.273438 23.839844 80.050781 23.902344 79.78125 Z M 23.324219 75.574219 C 23.289062 75.558594 23.25 75.542969 23.210938 75.53125 L 23.210938 75.066406 C 23.324219 75.246094 23.390625 75.308594 23.398438 75.378906 C 23.40625 75.4375 23.351562 75.507812 23.324219 75.574219 Z M 23.007812 74.699219 C 23.03125 74.496094 23.140625 74.449219 23.394531 74.542969 C 23.257812 74.671875 23.171875 74.761719 23.070312 74.859375 C 23.035156 74.769531 23.003906 74.730469 23.007812 74.699219 Z M 21.90625 67.128906 C 22.007812 67.191406 22.082031 67.238281 22.183594 67.304688 C 21.941406 67.40625 21.941406 67.40625 21.90625 67.128906 Z M 21.375 70.546875 C 21.042969 70.0625 21.585938 70.003906 21.691406 69.679688 C 21.804688 69.851562 21.878906 69.960938 21.960938 70.082031 C 21.757812 70.238281 21.578125 70.382812 21.375 70.546875 Z M 21.285156 77.445312 C 21.453125 77.378906 21.519531 77.355469 21.589844 77.328125 C 21.605469 77.394531 21.621094 77.457031 21.644531 77.578125 C 21.519531 77.535156 21.460938 77.511719 21.285156 77.445312 Z M 21.367188 80.59375 C 21.183594 80.621094 21.03125 80.601562 21.078125 80.210938 C 21.242188 80.335938 21.339844 80.410156 21.433594 80.484375 C 21.402344 80.539062 21.386719 80.589844 21.367188 80.59375 Z M 21.105469 83.152344 L 20.796875 83.152344 C 20.796875 83.101562 20.796875 83.054688 20.800781 83.007812 C 20.902344 83.023438 21.007812 83.039062 21.109375 83.054688 C 21.105469 83.085938 21.105469 83.117188 21.105469 83.152344 Z M 20.375 85.191406 C 20.449219 84.925781 20.5 84.75 20.554688 84.546875 C 20.742188 84.863281 20.742188 84.863281 20.375 85.191406 Z M 21.367188 68.882812 C 21.359375 68.972656 21.347656 69.058594 21.335938 69.148438 L 21.242188 69.148438 C 21.230469 69.0625 21.222656 68.976562 21.214844 68.890625 C 21.265625 68.886719 21.3125 68.882812 21.367188 68.882812 Z M 20.277344 69.667969 C 20.238281 69.753906 20.207031 69.84375 20.167969 69.929688 L 8.804688 69.929688 L 8.804688 62.453125 L 21.554688 62.453125 C 21.167969 64.886719 21.191406 67.363281 20.3125 69.574219 C 20.445312 69.589844 20.523438 69.601562 20.609375 69.609375 C 20.503906 69.875 20.492188 69.90625 20.277344 69.667969 Z M 20.121094 80.226562 C 19.925781 80.167969 19.753906 80.117188 19.621094 80.074219 C 19.4375 79.789062 19.570312 79.667969 19.769531 79.546875 C 19.933594 79.660156 20.101562 79.773438 20.300781 79.910156 C 20.238281 80.027344 20.1875 80.117188 20.121094 80.226562 Z M 19.28125 84.210938 C 19.1875 84.152344 19.050781 84.117188 19.007812 84.027344 C 18.96875 83.941406 19.027344 83.800781 19.042969 83.6875 C 19.109375 83.679688 19.175781 83.671875 19.242188 83.664062 C 19.292969 83.816406 19.34375 83.96875 19.394531 84.121094 C 19.355469 84.152344 19.320312 84.183594 19.28125 84.210938 Z M 18.679688 85.628906 C 18.761719 85.507812 18.847656 85.390625 18.976562 85.203125 C 19.132812 85.375 19.25 85.5 19.367188 85.628906 Z M 18.59375 75.839844 C 18.71875 75.902344 18.808594 75.949219 18.898438 75.996094 C 18.902344 76.046875 18.902344 76.097656 18.902344 76.148438 C 18.785156 76.183594 18.667969 76.214844 18.464844 76.269531 C 18.523438 76.074219 18.554688 75.976562 18.59375 75.839844 Z M 18.164062 73.285156 C 18.152344 73.34375 18.121094 73.394531 18.078125 73.492188 C 17.96875 73.421875 17.875 73.359375 17.65625 73.21875 C 17.902344 73.160156 18.015625 73.128906 18.136719 73.097656 C 18.152344 73.207031 18.171875 73.25 18.164062 73.285156 Z M 17.613281 75.832031 C 17.394531 75.949219 17.28125 75.875 17.269531 75.601562 C 17.160156 75.640625 17.046875 75.675781 16.941406 75.714844 C 16.917969 75.671875 16.894531 75.632812 16.871094 75.59375 C 17.011719 75.464844 17.152344 75.34375 17.328125 75.1875 C 17.382812 75.300781 17.414062 75.363281 17.445312 75.421875 C 17.589844 75.457031 17.660156 75.53125 17.660156 75.644531 C 17.660156 75.699219 17.644531 75.761719 17.613281 75.832031 Z M 15.050781 81.761719 C 14.855469 81.914062 14.753906 81.796875 14.589844 81.5625 C 14.757812 81.5625 14.847656 81.546875 14.925781 81.570312 C 14.964844 81.578125 15.003906 81.621094 15.050781 81.664062 C 15.066406 81.683594 15.085938 81.703125 15.105469 81.714844 C 15.089844 81.734375 15.070312 81.75 15.050781 81.761719 Z M 11.207031 82.164062 C 11.179688 82.152344 11.152344 82.140625 11.125 82.128906 C 11.167969 81.996094 11.21875 81.863281 11.261719 81.730469 C 11.304688 81.753906 11.34375 81.777344 11.382812 81.800781 C 11.324219 81.921875 11.265625 82.042969 11.207031 82.164062 Z M 23.753906 67.789062 C 23.617188 67.867188 23.523438 67.921875 23.324219 68.03125 C 23.394531 67.816406 23.425781 67.714844 23.488281 67.535156 C 23.609375 67.652344 23.660156 67.699219 23.753906 67.789062 Z M 24.066406 65.992188 C 24.007812 66.136719 23.964844 66.242188 23.875 66.46875 C 23.753906 66.074219 23.753906 66.074219 24.066406 65.992188 Z M 24.355469 75.785156 C 24.355469 75.792969 24.242188 75.816406 24.125 75.855469 C 24.164062 75.695312 24.183594 75.601562 24.207031 75.511719 C 24.234375 75.511719 24.265625 75.507812 24.296875 75.503906 C 24.316406 75.597656 24.347656 75.6875 24.355469 75.785156 Z M 18.386719 54.71875 L 25.347656 54.71875 C 23.785156 56.15625 22.902344 58.210938 22.144531 60.015625 C 21.894531 60.730469 21.726562 61.460938 21.597656 62.195312 L 18.386719 62.195312 Z M 24.375 68.425781 C 24.410156 68.40625 24.449219 68.382812 24.492188 68.359375 C 24.542969 68.457031 24.597656 68.550781 24.648438 68.648438 C 24.601562 68.671875 24.558594 68.699219 24.507812 68.730469 C 24.464844 68.628906 24.417969 68.527344 24.375 68.425781 Z M 25.316406 69.445312 C 25.019531 69.496094 24.71875 69.574219 24.453125 69.183594 C 24.773438 69.164062 25.023438 69.144531 25.324219 69.125 C 25.347656 69.183594 25.386719 69.265625 25.421875 69.347656 C 25.371094 69.398438 25.347656 69.4375 25.316406 69.445312 Z M 25.832031 75.542969 C 25.699219 75.640625 25.597656 75.714844 25.484375 75.800781 C 25.449219 75.710938 25.414062 75.667969 25.425781 75.640625 C 25.496094 75.472656 25.601562 75.382812 25.832031 75.542969 Z M 25.886719 74.882812 C 25.707031 75.089844 25.558594 75.269531 25.371094 75.488281 C 25.21875 75.097656 25.585938 74.988281 25.515625 74.605469 C 25.714844 74.753906 25.773438 74.796875 25.886719 74.882812 Z M 8.804688 39.25 L 8.804688 31.773438 L 36.667969 31.773438 C 36.707031 34.265625 36.707031 36.753906 36.738281 39.25 Z M 8.804688 23.777344 L 8.804688 16.300781 L 36.328125 16.300781 C 35.945312 18.625 36.109375 21.609375 36.28125 23.777344 Z M 36.453125 25.90625 C 36.574219 27.773438 36.628906 29.644531 36.660156 31.515625 L 18.386719 31.515625 L 18.386719 24.035156 L 36.300781 24.035156 C 36.359375 24.796875 36.421875 25.445312 36.453125 25.90625 Z M 36.890625 37.867188 C 36.941406 37.871094 36.992188 37.875 37.042969 37.882812 C 37.027344 37.96875 37.007812 38.050781 36.984375 38.132812 C 36.953125 38.128906 36.921875 38.125 36.890625 38.121094 Z M 37.796875 15.121094 C 37.964844 15.195312 38.136719 15.265625 38.304688 15.335938 C 38.292969 15.371094 38.28125 15.410156 38.265625 15.449219 C 38.089844 15.386719 37.914062 15.328125 37.734375 15.265625 C 37.757812 15.21875 37.777344 15.167969 37.796875 15.121094 Z M 38.003906 35.097656 C 37.753906 34.84375 37.84375 34.691406 38.164062 34.519531 C 38.097656 34.769531 38.050781 34.933594 38.003906 35.097656 Z M 38.769531 32.921875 C 38.8125 33 38.855469 33.078125 38.902344 33.15625 C 38.871094 33.179688 38.84375 33.203125 38.8125 33.226562 C 38.757812 33.15625 38.699219 33.085938 38.640625 33.015625 C 38.683594 32.984375 38.726562 32.953125 38.769531 32.921875 Z M 38.828125 20.050781 C 39.003906 20.175781 39.164062 20.292969 39.304688 20.394531 C 39.285156 20.730469 39.125 20.714844 38.894531 20.652344 C 38.789062 20.472656 38.664062 20.3125 38.828125 20.050781 Z M 39.714844 23.761719 C 39.75 23.988281 39.765625 24.113281 39.789062 24.238281 C 39.746094 24.257812 39.710938 24.277344 39.667969 24.300781 C 39.597656 24.25 39.527344 24.203125 39.421875 24.125 C 39.507812 24.019531 39.570312 23.9375 39.714844 23.761719 Z M 39.671875 17.453125 C 39.617188 17.339844 39.558594 17.226562 39.460938 17.035156 C 39.769531 17.101562 39.742188 17.269531 39.671875 17.453125 Z M 40.210938 20.539062 C 40.164062 20.433594 40.132812 20.355469 40.09375 20.25 C 40.324219 20.3125 40.324219 20.3125 40.210938 20.539062 Z M 40.730469 26.378906 C 40.765625 26.390625 40.800781 26.402344 40.835938 26.410156 C 40.808594 26.5 40.789062 26.589844 40.761719 26.675781 C 40.726562 26.667969 40.691406 26.652344 40.65625 26.644531 C 40.679688 26.554688 40.707031 26.464844 40.730469 26.378906 Z M 41.644531 25.390625 C 41.6875 25.414062 41.730469 25.4375 41.777344 25.460938 C 41.734375 25.527344 41.695312 25.597656 41.65625 25.667969 C 41.628906 25.652344 41.601562 25.636719 41.570312 25.621094 C 41.59375 25.542969 41.621094 25.46875 41.644531 25.390625 Z M 42.117188 23.230469 C 42.023438 23.414062 41.960938 23.53125 41.902344 23.652344 C 41.863281 23.621094 41.816406 23.59375 41.777344 23.5625 C 41.753906 23.382812 41.792969 23.246094 42.117188 23.230469 Z M 42.90625 27.699219 C 42.871094 28.160156 42.828125 28.175781 42.269531 27.957031 C 42.382812 27.5625 42.652344 27.667969 42.90625 27.699219 Z M 42.957031 24.132812 C 42.738281 24.367188 42.570312 24.253906 42.414062 24.132812 Z M 42.398438 23.351562 C 42.507812 23.535156 42.566406 23.632812 42.667969 23.804688 C 42.347656 23.785156 42.300781 23.679688 42.398438 23.351562 Z M 43.476562 40.484375 C 43.484375 40.546875 43.492188 40.605469 43.5 40.667969 C 43.414062 40.675781 43.328125 40.679688 43.242188 40.6875 C 43.234375 40.648438 43.226562 40.609375 43.21875 40.570312 C 43.304688 40.539062 43.390625 40.511719 43.476562 40.484375 Z M 43.84375 24.308594 C 43.871094 24.339844 43.898438 24.375 43.925781 24.410156 C 43.835938 24.484375 43.746094 24.558594 43.65625 24.632812 C 43.628906 24.59375 43.597656 24.554688 43.570312 24.511719 C 43.660156 24.445312 43.753906 24.375 43.84375 24.308594 Z M 43.851562 25.316406 C 43.945312 25.574219 44.003906 25.726562 44.070312 25.90625 C 43.644531 25.863281 43.644531 25.863281 43.851562 25.316406 Z M 45.582031 33.429688 C 45.582031 33.730469 45.492188 33.824219 45.242188 33.75 C 45.234375 33.523438 45.324219 33.425781 45.582031 33.429688 Z M 46.269531 32.539062 C 46.058594 32.363281 45.921875 32.253906 45.734375 32.097656 C 46.085938 32.011719 46.242188 32.105469 46.269531 32.539062 Z M 63.234375 19.160156 C 63.371094 18.953125 63.46875 18.808594 63.648438 18.535156 C 63.863281 18.855469 63.996094 19.050781 64.132812 19.25 C 64.109375 19.285156 64.089844 19.324219 64.070312 19.367188 C 63.820312 19.304688 63.570312 19.242188 63.234375 19.160156 Z M 63.425781 24.589844 C 63.386719 24.519531 63.347656 24.449219 63.3125 24.375 C 63.355469 24.359375 63.402344 24.339844 63.449219 24.324219 C 63.472656 24.398438 63.496094 24.472656 63.515625 24.546875 C 63.484375 24.558594 63.453125 24.574219 63.425781 24.589844 Z M 62.132812 23.535156 C 61.742188 23.386719 61.84375 23.203125 62.019531 22.976562 C 62.25 23.101562 62.273438 23.261719 62.132812 23.535156 Z M 62.148438 14.726562 C 62.1875 14.910156 62.226562 14.996094 62.21875 15.082031 C 62.210938 15.144531 62.148438 15.199219 62.082031 15.300781 C 61.914062 15.105469 61.871094 14.96875 62.148438 14.726562 Z M 61.121094 15.449219 C 60.957031 15.3125 60.835938 15.21875 60.714844 15.121094 C 60.726562 15.085938 60.734375 15.046875 60.742188 15.011719 L 61.230469 15.011719 C 61.183594 15.199219 61.160156 15.292969 61.121094 15.449219 Z M 60.683594 21.199219 C 60.648438 21.175781 60.617188 21.15625 60.585938 21.136719 C 60.621094 20.976562 60.660156 20.816406 60.722656 20.539062 C 60.882812 20.734375 60.941406 20.808594 61.035156 20.925781 C 60.898438 21.03125 60.789062 21.113281 60.683594 21.199219 Z M 59.558594 12.945312 C 59.660156 13.082031 59.730469 13.175781 59.804688 13.273438 C 59.480469 13.347656 59.390625 13.261719 59.558594 12.945312 Z M 55.402344 13.035156 C 54.882812 13.625 54.144531 14.53125 54.136719 15.394531 C 53.941406 14.882812 53.996094 14.277344 54.28125 13.679688 C 54.820312 12.550781 56.101562 11.765625 57.246094 11.386719 C 57.902344 11.171875 58.671875 11.070312 59.4375 11.039062 C 57.910156 11.304688 56.335938 11.96875 55.402344 13.035156 Z M 58.292969 20.355469 C 58.246094 20.25 58.199219 20.144531 58.152344 20.039062 C 58.191406 20.015625 58.230469 19.996094 58.269531 19.976562 C 58.316406 20.078125 58.367188 20.183594 58.417969 20.289062 C 58.375 20.3125 58.332031 20.332031 58.292969 20.355469 Z M 56.355469 13.945312 C 56.285156 14.007812 56.203125 14.058594 56.132812 14.105469 C 56.046875 14.300781 55.972656 14.476562 55.894531 14.660156 C 55.855469 14.644531 55.816406 14.625 55.777344 14.609375 C 55.8125 14.421875 55.847656 14.234375 55.886719 14.03125 C 56.027344 13.890625 56.179688 13.765625 56.332031 13.644531 C 56.394531 13.628906 56.460938 13.613281 56.523438 13.597656 C 56.539062 13.636719 56.558594 13.679688 56.574219 13.71875 C 56.5 13.796875 56.433594 13.878906 56.355469 13.945312 Z M 65.507812 12.941406 C 65.546875 13.082031 65.59375 13.15625 65.582031 13.21875 C 65.570312 13.285156 65.503906 13.339844 65.449219 13.421875 C 65.246094 13.25 65.238281 13.125 65.507812 12.941406 Z M 66.179688 19.6875 C 66.25 19.914062 66.28125 20.011719 66.339844 20.191406 C 66.160156 20.179688 66.039062 20.167969 65.824219 20.152344 C 65.960938 19.96875 66.03125 19.878906 66.179688 19.6875 Z M 66.054688 24.058594 C 66.015625 23.980469 65.984375 23.914062 65.949219 23.832031 C 66.015625 23.804688 66.085938 23.78125 66.152344 23.753906 C 66.191406 23.777344 66.226562 23.796875 66.265625 23.816406 C 66.183594 23.90625 66.140625 23.957031 66.054688 24.058594 Z M 65.84375 23.59375 C 65.839844 23.589844 65.835938 23.585938 65.835938 23.582031 C 65.84375 23.585938 65.847656 23.585938 65.851562 23.59375 C 65.851562 23.59375 65.84375 23.59375 65.84375 23.59375 Z M 68.046875 13.9375 C 68.597656 14.550781 68.902344 15.308594 69.128906 16.085938 C 69.351562 16.847656 69.597656 17.8125 69.480469 18.597656 C 69.4375 18.898438 69.382812 19.207031 69.3125 19.519531 C 69.472656 17.761719 68.917969 15.777344 68.179688 14.507812 C 67.734375 13.734375 67.136719 13.085938 66.445312 12.550781 C 67.070312 12.964844 67.636719 13.480469 68.046875 13.9375 Z M 68.238281 16.859375 C 68.421875 16.632812 68.421875 16.632812 68.652344 16.859375 Z M 68.027344 19.125 C 67.898438 19.117188 67.769531 19.105469 67.636719 19.097656 L 67.636719 18.988281 L 68.035156 18.988281 C 68.035156 19.035156 68.027344 19.082031 68.027344 19.125 Z M 66.679688 20.082031 C 66.828125 19.882812 66.914062 19.765625 67.070312 19.558594 C 67.125 19.949219 67.074219 20.097656 66.679688 20.082031 Z M 78.753906 101.011719 C 78.539062 93.441406 73.722656 64.558594 73.371094 62.433594 C 73.738281 62.347656 74.128906 62.183594 74.148438 62.175781 C 74.199219 62.152344 74.234375 62.097656 74.226562 62.042969 L 71.191406 37.09375 C 71.003906 35.050781 70.695312 33 69.824219 31.492188 C 69.601562 31.101562 69.34375 30.746094 69.035156 30.4375 C 68.398438 29.800781 67.574219 29.40625 66.761719 29.082031 C 66.707031 29.0625 66.652344 29.039062 66.597656 29.015625 C 66.554688 29.003906 66.511719 28.988281 66.46875 28.972656 C 66.054688 28.820312 65.628906 28.722656 65.214844 28.628906 L 64.976562 28.570312 C 64.511719 28.464844 64.1875 28.246094 64.007812 27.925781 C 63.945312 27.824219 63.902344 27.710938 63.875 27.585938 C 63.871094 27.554688 63.863281 27.523438 63.855469 27.488281 C 63.832031 27.34375 63.8125 27.15625 63.824219 26.972656 L 63.824219 26.953125 C 63.824219 26.910156 63.828125 26.867188 63.835938 26.828125 L 63.835938 26.8125 C 63.847656 26.722656 63.871094 26.636719 63.910156 26.5625 C 63.960938 26.453125 64.0625 26.363281 64.15625 26.296875 C 64.183594 26.273438 64.210938 26.257812 64.238281 26.238281 C 64.265625 26.21875 64.289062 26.203125 64.308594 26.1875 C 64.425781 26.09375 64.542969 26 64.65625 25.90625 C 64.878906 25.761719 65.097656 25.609375 65.246094 25.484375 C 66.3125 24.59375 67.304688 23.609375 68.023438 22.636719 C 68.171875 22.5 68.3125 22.355469 68.441406 22.199219 C 68.824219 21.738281 69.066406 21.191406 69.25 20.632812 C 69.46875 19.976562 69.722656 19.140625 69.761719 18.449219 C 69.8125 17.582031 69.554688 16.621094 69.3125 15.796875 C 69.09375 15.039062 68.734375 14.359375 68.230469 13.753906 C 67.738281 13.164062 67.089844 12.710938 66.441406 12.308594 C 65.945312 12 65.40625 11.695312 64.828125 11.582031 C 64.253906 11.332031 63.058594 11 61.964844 10.9375 C 61.574219 10.859375 61.175781 10.804688 60.777344 10.789062 C 59.269531 10.730469 57.582031 10.851562 56.222656 11.535156 C 55.109375 12.097656 54.078125 13.0625 53.789062 14.300781 C 53.632812 14.972656 53.8125 15.585938 54.214844 16.042969 L 51.394531 16.042969 L 51.644531 16.300781 L 54.226562 16.300781 C 54.085938 16.746094 53.980469 17.207031 53.878906 17.640625 C 53.878906 17.648438 53.875 17.65625 53.875 17.664062 L 53.832031 17.855469 C 53.785156 18.042969 53.75 18.242188 53.71875 18.441406 C 53.703125 18.550781 53.6875 18.65625 53.675781 18.765625 C 53.574219 19.617188 53.578125 20.558594 53.691406 21.578125 C 53.761719 22.222656 53.871094 22.890625 54.027344 23.617188 C 54.1875 24.355469 54.460938 25.03125 54.832031 25.601562 C 54.878906 25.675781 54.929688 25.746094 54.976562 25.8125 C 55.023438 25.871094 55.0625 25.929688 55.109375 25.988281 C 55.160156 26.054688 55.21875 26.121094 55.273438 26.183594 C 55.683594 26.648438 56.152344 27.023438 56.660156 27.292969 C 56.824219 27.378906 56.992188 27.457031 57.160156 27.523438 C 57.253906 27.554688 57.351562 27.589844 57.445312 27.621094 C 57.445312 27.621094 57.445312 27.621094 57.449219 27.621094 C 57.453125 27.625 57.453125 27.625 57.457031 27.625 C 57.632812 27.679688 57.808594 27.726562 57.984375 27.765625 C 57.984375 27.730469 57.984375 27.699219 57.980469 27.667969 C 57.976562 27.59375 58.03125 27.535156 58.105469 27.53125 C 58.1875 27.527344 58.238281 27.582031 58.238281 27.652344 C 58.253906 27.914062 58.242188 28.171875 58.101562 28.382812 C 58.144531 28.402344 58.191406 28.421875 58.238281 28.4375 L 58.390625 28.441406 C 58.628906 28.292969 58.839844 28.042969 58.953125 27.867188 C 59.09375 27.871094 59.234375 27.867188 59.378906 27.851562 C 59.449219 27.847656 59.503906 27.785156 59.5 27.714844 C 59.496094 27.703125 59.492188 27.695312 59.488281 27.6875 C 59.46875 27.632812 59.414062 27.589844 59.355469 27.597656 C 58.65625 27.65625 57.988281 27.554688 57.253906 27.28125 C 56.523438 27.007812 55.855469 26.507812 55.3125 25.828125 C 54.824219 25.21875 54.46875 24.4375 54.28125 23.5625 C 54.128906 22.847656 54.019531 22.1875 53.949219 21.550781 C 53.796875 20.175781 53.839844 18.957031 54.082031 17.914062 L 54.121094 17.75 C 54.226562 17.285156 54.34375 16.78125 54.496094 16.3125 C 54.578125 16.378906 54.664062 16.441406 54.761719 16.496094 C 54.949219 16.65625 55.160156 16.769531 55.359375 16.792969 C 55.164062 17.75 55.457031 19.550781 56.347656 20.410156 C 56.644531 20.699219 57.324219 21.09375 57.761719 21.105469 C 57.960938 21.160156 58.128906 21.269531 58.257812 21.425781 C 58.382812 21.585938 58.472656 21.789062 58.511719 22.023438 C 58.597656 22.570312 58.382812 23.132812 57.992188 23.390625 C 57.777344 23.53125 57.398438 23.566406 57.125 23.46875 C 57.066406 23.449219 57.003906 23.480469 56.984375 23.535156 C 56.964844 23.589844 56.992188 23.652344 57.050781 23.671875 C 57.078125 23.679688 57.105469 23.6875 57.132812 23.695312 C 57.601562 23.96875 58.132812 23.972656 58.671875 23.992188 C 58.867188 24 59.066406 24.121094 59.199219 24.257812 C 59.503906 24.5625 59.730469 24.894531 60.101562 25.132812 C 60.464844 25.363281 60.839844 25.570312 61.234375 25.742188 C 62.105469 26.121094 62.984375 26.289062 63.914062 26.160156 C 63.847656 26.210938 63.789062 26.28125 63.730469 26.355469 C 63.710938 26.386719 63.6875 26.417969 63.671875 26.453125 C 63.523438 26.765625 63.546875 27.21875 63.597656 27.511719 C 63.605469 27.5625 63.613281 27.605469 63.625 27.644531 C 63.648438 27.75 63.683594 27.847656 63.726562 27.941406 C 63.824219 28.152344 63.972656 28.335938 64.164062 28.480469 C 64.230469 28.453125 64.273438 28.433594 64.277344 28.429688 C 64.339844 28.398438 64.417969 28.425781 64.449219 28.488281 C 64.480469 28.542969 64.460938 28.605469 64.414062 28.644531 C 64.5625 28.71875 64.730469 28.78125 64.914062 28.824219 L 65.152344 28.878906 C 65.5625 28.972656 65.984375 29.070312 66.390625 29.214844 C 66.429688 29.230469 66.46875 29.246094 66.507812 29.261719 C 66.5625 29.28125 66.613281 29.300781 66.667969 29.320312 C 67.453125 29.640625 68.25 30.019531 68.851562 30.621094 C 69.117188 30.890625 69.355469 31.199219 69.558594 31.539062 C 70.441406 33.007812 70.746094 35.066406 70.933594 37.121094 L 73.957031 61.976562 C 73.800781 62.035156 73.476562 62.152344 73.199219 62.203125 C 73.167969 62.210938 73.140625 62.21875 73.109375 62.21875 C 72.242188 62.339844 71.378906 62.457031 70.515625 62.566406 C 67.90625 62.910156 65.3125 63.207031 62.722656 63.378906 C 61.574219 63.453125 60.425781 63.503906 59.269531 63.527344 C 59.125 63.53125 58.984375 63.527344 58.835938 63.53125 C 54.644531 63.546875 50.699219 62.816406 47.496094 62.050781 C 47.027344 61.941406 46.578125 61.832031 46.140625 61.71875 L 48.339844 50.199219 C 47.949219 50.578125 47.378906 50.878906 46.503906 51.082031 C 46.097656 51.175781 45.410156 51.214844 44.570312 51.214844 C 41.371094 51.214844 35.976562 50.667969 35.460938 50.613281 C 34.777344 51.722656 33.753906 52.585938 32.210938 52.980469 C 30.09375 53.511719 28.328125 52.804688 26.207031 54.039062 C 26.011719 54.171875 25.824219 54.3125 25.644531 54.460938 L 8.804688 54.460938 L 8.804688 46.984375 L 27.253906 46.984375 C 27.375 47.117188 27.539062 47.207031 27.660156 47.261719 C 27.757812 47.304688 27.851562 47.34375 27.949219 47.378906 C 27.851562 47.4375 27.777344 47.523438 27.738281 47.628906 C 27.644531 47.886719 27.820312 48.148438 28.21875 48.328125 C 29.351562 48.851562 30.804688 48.941406 30.855469 48.945312 C 31.054688 48.972656 31.25 48.984375 31.441406 48.984375 C 31.84375 48.984375 32.230469 48.933594 32.636719 48.882812 L 32.90625 48.847656 C 33.375 48.792969 33.757812 48.707031 34.121094 48.582031 C 34.09375 48.574219 34.078125 48.566406 34.074219 48.566406 C 34.007812 48.539062 33.976562 48.464844 34.003906 48.398438 C 34.019531 48.359375 34.046875 48.335938 34.085938 48.324219 C 34.082031 48.324219 34.082031 48.324219 34.078125 48.324219 C 33.726562 48.453125 33.34375 48.535156 32.875 48.59375 L 32.601562 48.625 C 32.023438 48.703125 31.476562 48.769531 30.878906 48.6875 C 30.863281 48.6875 29.417969 48.597656 28.328125 48.09375 C 28.171875 48.023438 27.925781 47.867188 27.980469 47.714844 C 28.003906 47.65625 28.046875 47.609375 28.113281 47.582031 C 28.21875 47.535156 28.355469 47.535156 28.472656 47.558594 C 28.507812 47.566406 28.542969 47.578125 28.582031 47.585938 C 28.582031 47.585938 28.582031 47.585938 28.585938 47.585938 C 28.859375 47.65625 29.148438 47.710938 29.503906 47.753906 C 29.726562 47.78125 30.183594 47.84375 30.183594 47.84375 L 30.21875 47.589844 C 30.21875 47.589844 29.757812 47.527344 29.535156 47.496094 C 29.179688 47.453125 28.886719 47.402344 28.613281 47.328125 C 28.601562 47.324219 28.589844 47.320312 28.574219 47.316406 C 28.308594 47.246094 28.050781 47.148438 27.761719 47.023438 C 27.664062 46.980469 27.347656 46.824219 27.347656 46.601562 C 27.347656 46.523438 27.375 46.464844 27.433594 46.410156 C 27.546875 46.308594 27.75 46.257812 27.910156 46.246094 C 27.78125 46.183594 27.664062 46.121094 27.5625 46.0625 C 27.558594 46.0625 27.558594 46.0625 27.550781 46.058594 C 27.445312 46.09375 27.34375 46.144531 27.257812 46.222656 C 27.144531 46.320312 27.089844 46.457031 27.089844 46.601562 C 27.089844 46.648438 27.09375 46.6875 27.105469 46.726562 L 18.386719 46.726562 L 18.386719 39.507812 L 36.742188 39.507812 C 36.757812 40.425781 36.773438 41.339844 36.804688 42.257812 C 36.804688 42.835938 36.808594 43.449219 36.796875 44.082031 L 38.40625 44.027344 C 38.402344 43.914062 38.449219 43.8125 38.65625 43.742188 C 38.628906 43.855469 38.609375 43.941406 38.59375 44.023438 L 42.726562 43.882812 C 43.039062 43.082031 45.300781 37.316406 47.347656 33.777344 C 47.339844 33.738281 47.324219 33.691406 47.3125 33.652344 C 47.371094 33.601562 47.425781 33.570312 47.480469 33.554688 C 48.066406 32.5625 48.632812 31.773438 49.125 31.347656 C 49.175781 31.300781 49.230469 31.261719 49.28125 31.21875 C 49.261719 31.210938 49.246094 31.195312 49.222656 31.1875 C 48.546875 30.871094 48.039062 31.1875 47.355469 31.308594 C 46.152344 31.53125 45.300781 30.625 44.964844 29.554688 C 44.417969 27.835938 45.171875 25.355469 43.773438 24.035156 L 47.753906 24.035156 C 47.703125 23.953125 47.65625 23.863281 47.609375 23.777344 L 43.453125 23.777344 C 43.40625 23.75 43.355469 23.714844 43.308594 23.6875 C 43.261719 23.734375 43.222656 23.785156 43.179688 23.832031 C 43.152344 23.808594 43.128906 23.785156 43.101562 23.765625 C 43.132812 23.71875 43.164062 23.671875 43.195312 23.625 C 43.160156 23.609375 43.128906 23.589844 43.097656 23.574219 C 42.449219 23.265625 41.707031 23.066406 41.328125 22.390625 C 40.976562 21.753906 41.148438 20.804688 41.117188 20.105469 C 41.058594 18.796875 41.085938 17.535156 40.832031 16.300781 L 45.746094 16.300781 C 45.613281 16.222656 45.484375 16.140625 45.359375 16.042969 L 40.773438 16.042969 C 40.671875 15.617188 40.535156 15.199219 40.339844 14.777344 C 40.25 14.585938 40.160156 14.414062 40.054688 14.257812 C 39.996094 14.171875 39.933594 14.089844 39.859375 14.011719 C 38.894531 14.003906 38 13.191406 37.957031 13.160156 C 37.933594 13.136719 37.921875 13.101562 37.921875 13.070312 C 37.835938 13.085938 37.757812 13.121094 37.6875 13.179688 C 37.683594 13.183594 37.683594 13.183594 37.679688 13.1875 C 37.007812 13.753906 36.605469 14.792969 36.371094 16.042969 L 18.386719 16.042969 L 18.386719 8.566406 L 59.566406 8.566406 L 59.566406 8.308594 L 8.804688 8.308594 L 8.804688 0.832031 L 59.566406 0.832031 L 59.566406 0.574219 L 0 0.574219 L 0 0.832031 L 8.546875 0.832031 L 8.546875 8.308594 L 0 8.308594 L 0 8.566406 L 18.128906 8.566406 L 18.128906 16.042969 L 0 16.042969 L 0 16.300781 L 8.546875 16.300781 L 8.546875 23.777344 L 0 23.777344 L 0 24.035156 L 18.128906 24.035156 L 18.128906 31.511719 L 0 31.511719 L 0 31.773438 L 8.546875 31.773438 L 8.546875 39.25 L 0 39.25 L 0 39.503906 L 18.128906 39.503906 L 18.128906 46.726562 L 0 46.726562 L 0 46.984375 L 8.546875 46.984375 L 8.546875 54.460938 L 0 54.460938 L 0 54.71875 L 18.128906 54.71875 L 18.128906 62.195312 L 0 62.195312 L 0 62.453125 L 8.546875 62.453125 L 8.546875 69.929688 L 0 69.929688 L 0 70.1875 L 20.039062 70.1875 C 19.976562 70.3125 19.921875 70.4375 19.851562 70.5625 C 18.742188 72.671875 17 73.460938 15.050781 73.949219 C 13.8125 74.257812 12.488281 74.441406 11.191406 74.769531 C 11.152344 74.792969 11.113281 74.816406 11.0625 74.84375 C 11.066406 74.824219 11.070312 74.8125 11.074219 74.796875 C 10.878906 74.847656 10.683594 74.902344 10.492188 74.957031 C 8.4375 75.675781 6.566406 76.414062 5.144531 77.664062 L 0 77.664062 L 0 77.921875 L 4.867188 77.921875 C 3.984375 78.789062 3.300781 79.882812 2.898438 81.351562 C 2.628906 82.246094 2.316406 83.707031 2.28125 85.402344 L 0 85.402344 L 0 85.660156 L 44.167969 85.660156 L 44.191406 85.402344 L 28.253906 85.402344 C 28.523438 82.972656 29.046875 80.832031 30.410156 79.179688 C 30.394531 79.09375 30.378906 79 30.359375 78.902344 C 30.464844 78.933594 30.535156 78.960938 30.578125 78.988281 C 30.8125 78.726562 31.070312 78.480469 31.351562 78.246094 C 31.21875 78.054688 31.304688 77.894531 31.515625 77.695312 C 31.609375 77.800781 31.664062 77.898438 31.683594 77.980469 C 31.710938 77.960938 31.738281 77.941406 31.761719 77.921875 L 44.949219 77.921875 L 44.976562 77.664062 L 32.136719 77.664062 C 32.328125 77.542969 32.53125 77.421875 32.742188 77.308594 C 33.160156 77.085938 33.601562 76.902344 34.058594 76.734375 C 33.808594 76.671875 33.683594 76.480469 33.515625 76.3125 C 33.566406 76.171875 33.617188 76.035156 33.667969 75.898438 C 33.722656 75.886719 33.777344 75.875 33.832031 75.863281 C 33.949219 76.113281 34.070312 76.367188 34.214844 76.675781 C 35.988281 76.050781 37.992188 75.699219 39.710938 74.9375 C 39.75 74.882812 39.796875 74.832031 39.859375 74.777344 C 39.878906 74.800781 39.894531 74.824219 39.910156 74.847656 C 40.316406 74.65625 40.707031 74.4375 41.070312 74.183594 C 41.054688 74.164062 41.039062 74.144531 41.023438 74.117188 C 41.109375 74.070312 41.179688 74.035156 41.378906 73.929688 C 41.367188 73.949219 41.363281 73.960938 41.351562 73.980469 C 41.484375 73.875 41.617188 73.765625 41.742188 73.652344 C 41.71875 73.636719 41.695312 73.621094 41.671875 73.609375 C 41.691406 73.566406 41.710938 73.523438 41.730469 73.480469 C 41.773438 73.5 41.816406 73.519531 41.859375 73.539062 C 41.972656 73.429688 42.085938 73.3125 42.191406 73.191406 C 42.328125 73.03125 42.453125 72.867188 42.570312 72.703125 C 42.5 72.640625 42.421875 72.578125 42.324219 72.496094 C 42.539062 72.371094 42.625 72.429688 42.683594 72.527344 C 43.144531 71.804688 43.414062 71.015625 43.570312 70.1875 L 45.730469 70.1875 L 45.757812 69.929688 L 43.613281 69.929688 C 43.789062 68.832031 43.78125 67.675781 43.765625 66.53125 C 43.753906 66.535156 43.734375 66.539062 43.722656 66.542969 C 43.738281 66.507812 43.753906 66.480469 43.765625 66.453125 C 43.75 65.421875 43.726562 64.410156 43.832031 63.453125 C 43.867188 63.117188 43.910156 62.785156 43.960938 62.453125 L 46.511719 62.453125 L 46.539062 62.195312 L 44 62.195312 C 44.402344 59.65625 45.226562 57.339844 47.050781 55.574219 L 45.867188 61.789062 C 45.851562 61.859375 45.894531 61.921875 45.960938 61.9375 C 46.152344 61.988281 46.351562 62.039062 46.550781 62.085938 C 46.632812 62.109375 46.71875 62.128906 46.800781 62.148438 C 46.921875 62.179688 47.042969 62.207031 47.164062 62.238281 C 47.554688 62.332031 47.953125 62.425781 48.363281 62.519531 C 51.117188 63.140625 54.339844 63.695312 57.773438 63.777344 C 58.074219 63.785156 58.375 63.789062 58.679688 63.789062 C 58.875 63.789062 59.074219 63.785156 59.273438 63.785156 C 60.429688 63.761719 61.582031 63.710938 62.734375 63.636719 C 65.335938 63.464844 67.925781 63.167969 70.53125 62.828125 C 71.390625 62.714844 72.25 62.597656 73.113281 62.480469 C 73.472656 64.628906 78.242188 93.238281 78.492188 100.925781 C 74.027344 102.527344 68.1875 104.023438 62.421875 101.597656 L 61.195312 76.605469 L 61.183594 76.414062 C 61.179688 76.34375 61.117188 76.285156 61.046875 76.292969 C 60.996094 76.292969 60.953125 76.324219 60.933594 76.371094 C 60.925781 76.386719 60.925781 76.40625 60.925781 76.425781 L 60.933594 76.605469 L 61.171875 81.433594 L 62.171875 101.691406 C 62.171875 101.742188 62.199219 101.785156 62.246094 101.804688 C 63.910156 102.515625 65.574219 102.898438 67.214844 103.054688 C 67.214844 103.0625 67.214844 103.070312 67.21875 103.082031 C 67.449219 103.636719 67.671875 104.195312 67.902344 104.753906 C 67.90625 104.765625 67.914062 104.773438 67.917969 104.785156 C 66.265625 105.335938 64.804688 106.640625 63.992188 108.3125 C 63.738281 108.824219 63.613281 109.691406 63.5625 110.484375 L 64.863281 110.273438 C 64.863281 110.210938 64.875 110.148438 64.898438 110.074219 C 64.996094 110.121094 65.085938 110.171875 65.183594 110.21875 L 78.679688 108.003906 C 78.6875 108.003906 78.695312 108.007812 78.703125 108.007812 C 78.628906 107.488281 78.515625 106.746094 78.371094 105.867188 C 78.101562 104.234375 76.625 102.660156 76.375 102.402344 C 76.347656 102.246094 76.316406 102.089844 76.292969 101.929688 C 77.117188 101.679688 77.914062 101.410156 78.667969 101.140625 C 78.71875 101.121094 78.753906 101.070312 78.753906 101.011719 "/></g><path style=" stroke:none;fill-rule:nonzero;fill:#100f0d;fill-opacity:1;" d="M 28.6875 44.171875 C 28.453125 44.398438 28.453125 44.398438 28.355469 44.105469 C 28.484375 44.132812 28.585938 44.152344 28.6875 44.171875 Z M 29.335938 44.195312 C 29.113281 44.1875 29.007812 44.078125 29.003906 43.835938 C 29.3125 43.839844 29.3125 43.839844 29.335938 44.195312 Z M 32.761719 41.054688 L 28.359375 41.054688 C 28 41.054688 27.710938 41.34375 27.710938 41.699219 L 27.710938 41.957031 C 27.710938 42.214844 27.871094 42.441406 28.089844 42.542969 C 27.855469 42.792969 27.710938 43.132812 27.710938 43.503906 L 27.710938 44.515625 C 27.722656 44.503906 27.730469 44.492188 27.738281 44.484375 C 27.941406 44.308594 28.296875 44.359375 28.53125 44.390625 C 28.570312 44.398438 28.605469 44.402344 28.628906 44.40625 C 29.089844 44.457031 29.527344 44.515625 29.980469 44.574219 C 30.4375 44.632812 30.898438 44.691406 31.402344 44.75 C 31.691406 44.78125 31.902344 44.785156 32.050781 44.75 C 31.871094 44.714844 31.695312 44.671875 31.527344 44.613281 C 30.859375 44.394531 30.316406 43.9375 29.660156 43.6875 C 29.070312 43.460938 28.523438 43.460938 27.972656 43.550781 C 27.972656 43.550781 27.972656 43.550781 27.96875 43.550781 L 27.96875 43.503906 C 27.96875 43.449219 27.980469 43.398438 27.984375 43.347656 C 27.988281 43.339844 27.988281 43.335938 27.988281 43.332031 C 27.992188 43.300781 27.996094 43.277344 28 43.25 C 28.0625 42.988281 28.207031 42.761719 28.414062 42.601562 L 31.804688 42.601562 C 31.824219 42.496094 31.867188 42.410156 31.921875 42.34375 L 28.359375 42.34375 C 28.148438 42.34375 27.96875 42.171875 27.96875 41.957031 L 27.96875 41.699219 C 27.96875 41.484375 28.148438 41.3125 28.359375 41.3125 L 32.761719 41.3125 C 32.976562 41.3125 33.148438 41.484375 33.148438 41.699219 L 33.148438 41.957031 C 33.148438 42.160156 32.992188 42.324219 32.789062 42.339844 C 32.820312 42.371094 32.851562 42.40625 32.882812 42.445312 C 32.914062 42.484375 32.949219 42.523438 32.980469 42.558594 L 32.988281 42.558594 C 32.984375 42.558594 32.980469 42.558594 32.980469 42.5625 C 33.0625 42.664062 33.15625 42.765625 33.261719 42.875 C 33.199219 42.753906 33.121094 42.640625 33.027344 42.542969 C 33.253906 42.441406 33.410156 42.214844 33.410156 41.957031 L 33.410156 41.699219 C 33.410156 41.34375 33.117188 41.054688 32.761719 41.054688 "/><path style=" stroke:none;fill-rule:nonzero;fill:#100f0d;fill-opacity:1;" d="M 33.019531 41.699219 C 33.019531 41.625 32.960938 41.570312 32.890625 41.570312 L 28.230469 41.570312 C 28.15625 41.570312 28.101562 41.625 28.101562 41.699219 C 28.101562 41.769531 28.15625 41.828125 28.230469 41.828125 L 32.890625 41.828125 C 32.960938 41.828125 33.019531 41.769531 33.019531 41.699219 "/><path style=" stroke:none;fill-rule:nonzero;fill:#100f0d;fill-opacity:1;" d="M 50.617188 15.882812 C 50.53125 15.898438 50.429688 15.917969 50.324219 15.933594 L 49.648438 15.144531 C 49.785156 15.171875 49.917969 15.195312 50.046875 15.214844 L 50.617188 15.882812 "/><path style=" stroke:none;fill-rule:nonzero;fill:#100f0d;fill-opacity:1;" d="M 57.414062 111.183594 C 57.402344 111.554688 57.398438 111.773438 57.398438 111.777344 L 57.394531 111.957031 L 57.269531 111.957031 C 55.101562 111.957031 50.074219 111.886719 46.390625 111.828125 C 46.386719 111.820312 46.382812 111.8125 46.378906 111.804688 C 46.375 111.8125 46.371094 111.816406 46.367188 111.828125 C 43.949219 111.789062 42.117188 111.753906 42.070312 111.753906 L 41.917969 111.722656 L 41.945312 111.5625 C 41.964844 111.441406 41.992188 111.3125 42.015625 111.183594 L 57.414062 111.183594 "/><path style=" stroke:none;fill-rule:nonzero;fill:#100f0d;fill-opacity:1;" d="M 55.632812 106.125 C 55.535156 106.039062 55.4375 105.953125 55.339844 105.867188 C 55.363281 105.828125 55.386719 105.792969 55.410156 105.753906 C 55.523438 105.820312 55.632812 105.890625 55.742188 105.957031 C 55.707031 106.011719 55.671875 106.070312 55.632812 106.125 Z M 53.023438 109.949219 C 52.867188 109.710938 52.957031 109.566406 53.199219 109.359375 C 53.261719 109.652344 53.339844 109.855469 53.023438 109.949219 Z M 49.519531 110.035156 C 49.636719 110.109375 49.714844 110.132812 49.753906 110.191406 C 49.804688 110.265625 49.820312 110.367188 49.851562 110.460938 C 49.484375 110.546875 49.484375 110.546875 49.519531 110.035156 Z M 47.476562 107.917969 C 47.441406 107.882812 47.40625 107.84375 47.371094 107.804688 C 47.445312 107.640625 47.519531 107.472656 47.628906 107.234375 C 47.792969 107.402344 47.890625 107.5 48.050781 107.664062 C 47.8125 107.769531 47.644531 107.84375 47.476562 107.917969 Z M 43.371094 109.210938 C 43.644531 109.292969 43.804688 109.339844 44.054688 109.417969 C 43.65625 109.558594 43.65625 109.558594 43.371094 109.210938 Z M 56.0625 105.222656 C 56.0625 105.199219 56.0625 105.179688 56.066406 105.160156 C 56.136719 104.722656 56.207031 104.289062 56.277344 103.851562 C 56.335938 103.507812 56.386719 103.160156 56.445312 102.816406 C 56.355469 102.828125 56.265625 102.839844 56.179688 102.851562 C 56.148438 103.027344 56.121094 103.203125 56.09375 103.382812 C 55.996094 103.980469 55.898438 104.539062 55.851562 105.113281 C 55.664062 105.089844 55.203125 105.035156 54.621094 105.035156 C 53.890625 105.035156 52.859375 105.121094 52.085938 105.539062 C 52.070312 105.546875 50.4375 106.242188 49.371094 106.277344 C 49.3125 106.28125 49.257812 106.28125 49.199219 106.28125 C 48.804688 106.28125 48.453125 106.234375 48.171875 106.175781 C 47.894531 106.125 47.6875 106.058594 47.582031 106.023438 C 47.515625 104.707031 47.453125 103.386719 47.390625 102.070312 C 47.300781 102.042969 47.214844 102.015625 47.128906 101.984375 C 47.191406 103.324219 47.257812 104.667969 47.320312 106.007812 C 45.59375 106.277344 43.929688 107.335938 42.847656 108.859375 C 42.523438 109.320312 42.253906 110.152344 42.074219 110.925781 L 57.417969 110.925781 C 57.429688 110.390625 57.4375 109.640625 57.4375 108.769531 C 57.4375 107.128906 56.28125 105.515625 56.0625 105.222656 "/><path style=" stroke:none;fill-rule:nonzero;fill:#100f0d;fill-opacity:1;" d="M 61.238281 69.546875 C 61.238281 69.472656 61.183594 69.417969 61.113281 69.414062 C 61.109375 69.414062 61.109375 69.414062 61.109375 69.414062 C 61.0625 69.414062 61.019531 69.445312 60.996094 69.484375 C 60.988281 69.503906 60.980469 69.523438 60.980469 69.542969 C 60.980469 69.621094 60.957031 72.382812 60.9375 76.371094 C 60.953125 76.328125 60.996094 76.292969 61.046875 76.289062 C 61.113281 76.28125 61.179688 76.34375 61.183594 76.414062 L 61.195312 76.605469 C 61.214844 72.492188 61.238281 69.625 61.238281 69.546875 "/><path style=" stroke:none;fill-rule:nonzero;fill:#100f0d;fill-opacity:1;" d="M 61.234375 101.234375 C 61.234375 101.285156 61.207031 101.332031 61.15625 101.355469 C 59.636719 102.0625 58.058594 102.550781 56.445312 102.816406 C 56.355469 102.828125 56.265625 102.839844 56.175781 102.851562 C 55.292969 102.984375 54.402344 103.054688 53.5 103.054688 C 51.492188 103.054688 49.445312 102.726562 47.390625 102.070312 C 47.300781 102.042969 47.214844 102.015625 47.128906 101.984375 C 46.480469 101.769531 45.832031 101.527344 45.183594 101.246094 C 44.335938 100.910156 42.792969 100.398438 42.777344 100.390625 C 42.722656 100.375 42.6875 100.316406 42.691406 100.257812 L 44.167969 85.660156 L 44.191406 85.402344 L 44.949219 77.925781 L 44.976562 77.667969 L 45.730469 70.1875 L 45.757812 69.929688 L 46.511719 62.453125 L 46.539062 62.195312 L 46.550781 62.089844 C 46.632812 62.109375 46.71875 62.128906 46.804688 62.148438 L 42.957031 100.179688 C 43.316406 100.300781 44.550781 100.71875 45.285156 101.011719 C 50.683594 103.339844 56.109375 103.390625 60.972656 101.160156 C 60.867188 94.664062 60.898438 83.757812 60.9375 76.605469 L 61.171875 81.433594 C 61.148438 88.097656 61.144531 96.082031 61.234375 101.234375 "/><path style=" stroke:none;fill-rule:nonzero;fill:#100f0d;fill-opacity:1;" d="M 43.96875 13.675781 C 43.9375 13.71875 43.925781 13.777344 43.933594 13.839844 C 42.761719 13.644531 41.554688 13.4375 41.195312 13.28125 C 41.25 13.273438 41.335938 13.265625 41.460938 13.265625 C 42 13.265625 42.984375 13.386719 44.09375 13.539062 C 44.050781 13.582031 44.007812 13.621094 43.96875 13.675781 Z M 44.183594 12.878906 C 44.355469 12.726562 44.492188 12.605469 44.546875 12.539062 C 44.621094 12.445312 44.714844 12.390625 44.824219 12.382812 C 45.082031 12.355469 45.445312 12.53125 45.90625 12.910156 C 46.035156 13.015625 46.152344 13.121094 46.25 13.210938 C 46.257812 13.21875 46.273438 13.230469 46.28125 13.238281 L 46.324219 13.277344 C 46.378906 13.324219 46.460938 13.324219 46.507812 13.269531 C 46.558594 13.21875 46.550781 13.136719 46.5 13.089844 L 46.457031 13.046875 C 46.4375 13.03125 46.410156 13.007812 46.390625 12.988281 C 46.296875 12.90625 46.191406 12.808594 46.066406 12.710938 C 45.933594 12.597656 45.804688 12.503906 45.683594 12.425781 C 45.824219 12.316406 45.976562 12.261719 46.125 12.261719 L 46.128906 12.261719 C 46.46875 12.261719 46.730469 12.519531 46.734375 12.519531 C 46.855469 12.640625 46.996094 12.769531 47.121094 12.878906 C 47.195312 12.945312 47.265625 13.007812 47.316406 13.058594 C 47.339844 13.082031 47.371094 13.089844 47.402344 13.089844 C 47.441406 13.089844 47.472656 13.078125 47.5 13.050781 C 47.550781 13 47.546875 12.917969 47.496094 12.867188 C 47.441406 12.820312 47.371094 12.757812 47.292969 12.6875 C 47.226562 12.628906 47.15625 12.5625 47.082031 12.496094 C 47.707031 12.382812 48.042969 12.84375 48.058594 12.863281 C 48.015625 12.804688 48.027344 12.734375 48.082031 12.6875 C 48.140625 12.644531 48.21875 12.65625 48.265625 12.710938 L 48.410156 12.894531 C 48.539062 12.90625 48.664062 12.945312 48.777344 13.03125 C 48.957031 13.15625 49.222656 13.445312 49.371094 14.105469 C 48.917969 14.019531 48.40625 13.933594 47.824219 13.835938 C 47.234375 13.738281 46.578125 13.640625 45.835938 13.53125 C 45.554688 13.488281 45.269531 13.445312 44.984375 13.40625 C 44.578125 13.347656 44.175781 13.289062 43.789062 13.238281 C 43.929688 13.105469 44.082031 12.972656 44.183594 12.878906 Z M 52.105469 15.164062 C 52.070312 15.171875 52.003906 15.183594 51.890625 15.183594 C 51.152344 15.183594 49.335938 14.835938 47.410156 14.472656 C 46.949219 14.382812 46.480469 14.292969 46.015625 14.207031 C 45.757812 13.949219 45.449219 13.75 45.414062 13.730469 C 45.414062 13.730469 45.410156 13.730469 45.410156 13.726562 C 45.539062 13.75 45.667969 13.765625 45.796875 13.785156 C 50.917969 14.539062 51.976562 14.960938 52.105469 15.164062 Z M 40.917969 13.292969 C 40.628906 13.691406 40.097656 13.742188 39.941406 13.75 C 39.917969 13.753906 39.894531 13.753906 39.871094 13.753906 C 39.65625 13.753906 39.441406 13.703125 39.242188 13.628906 C 39.238281 13.675781 39.234375 13.714844 39.234375 13.757812 C 38.574219 13.53125 38.054688 13.0625 38.054688 13.0625 C 38.054688 13.0625 38.996094 12.566406 39.664062 12.429688 C 39.832031 12.394531 40.007812 12.421875 40.175781 12.480469 C 40.15625 12.527344 40.132812 12.574219 40.101562 12.613281 C 40.480469 12.765625 40.816406 13.113281 40.917969 13.226562 Z M 64.449219 28.488281 C 64.417969 28.425781 64.339844 28.398438 64.277344 28.429688 C 64.273438 28.433594 64.230469 28.453125 64.164062 28.480469 C 64.125 28.5 64.074219 28.515625 64.015625 28.539062 C 63.269531 28.828125 60.96875 29.523438 58.238281 28.4375 C 58.191406 28.417969 58.144531 28.402344 58.101562 28.378906 C 58.242188 28.171875 58.253906 27.910156 58.238281 27.652344 C 58.238281 27.582031 58.1875 27.527344 58.105469 27.53125 C 58.03125 27.535156 57.976562 27.59375 57.980469 27.664062 C 57.984375 27.699219 57.984375 27.730469 57.984375 27.765625 C 57.984375 27.832031 57.980469 27.894531 57.976562 27.957031 C 57.957031 28.113281 57.910156 28.242188 57.804688 28.332031 C 57.800781 28.335938 57.800781 28.335938 57.800781 28.335938 C 57.453125 28.625 56.910156 28.644531 56.433594 28.660156 L 56.25 28.667969 C 55.894531 28.683594 55.542969 28.714844 55.199219 28.753906 C 54.472656 28.84375 53.777344 28.988281 53.113281 29.183594 C 52.394531 28.75 51.71875 28.292969 51.375 28.023438 C 47.226562 24.753906 45.796875 18.554688 45.664062 17.925781 C 46.449219 16.816406 50.5 16.160156 51.066406 16.070312 L 53.675781 18.765625 C 53.6875 18.65625 53.703125 18.550781 53.71875 18.441406 L 51.644531 16.300781 L 51.394531 16.042969 L 51.207031 15.84375 C 51.175781 15.816406 51.132812 15.800781 51.089844 15.808594 C 51.058594 15.8125 50.882812 15.839844 50.617188 15.882812 C 50.53125 15.898438 50.429688 15.917969 50.324219 15.933594 C 49.421875 16.101562 47.914062 16.421875 46.78125 16.894531 C 46.667969 16.605469 46.597656 16.433594 46.597656 16.425781 C 46.582031 16.382812 46.546875 16.359375 46.503906 16.347656 L 46.507812 16.34375 C 46.488281 16.339844 46.46875 16.332031 46.449219 16.328125 C 45.789062 16.132812 44.960938 15.523438 44.785156 14.917969 C 44.753906 14.816406 44.667969 14.671875 44.519531 14.441406 C 44.40625 14.257812 44.199219 13.921875 44.191406 13.8125 C 44.351562 13.605469 44.503906 13.597656 44.605469 13.613281 C 44.785156 13.636719 44.960938 13.753906 45.105469 13.847656 C 45.1875 13.898438 45.257812 13.949219 45.296875 13.960938 C 45.304688 13.964844 45.777344 14.265625 46.007812 14.589844 L 46.109375 14.515625 L 46.144531 14.492188 C 46.550781 14.570312 46.957031 14.644531 47.359375 14.722656 C 48.164062 14.875 48.949219 15.023438 49.648438 15.144531 C 49.785156 15.171875 49.917969 15.195312 50.046875 15.214844 C 50.851562 15.351562 51.503906 15.441406 51.890625 15.441406 C 52.03125 15.441406 52.359375 15.441406 52.378906 15.214844 C 52.402344 14.90625 51.871094 14.597656 49.644531 14.160156 C 49.496094 13.386719 49.191406 13.003906 48.933594 12.820312 C 48.707031 12.664062 48.453125 12.605469 48.210938 12.648438 C 48.054688 12.476562 47.585938 12.058594 46.855469 12.285156 C 46.738281 12.1875 46.46875 12.003906 46.128906 12.003906 C 46.128906 12.003906 46.128906 12.003906 46.125 12.003906 C 45.882812 12.003906 45.660156 12.101562 45.449219 12.289062 C 45.203125 12.160156 44.988281 12.105469 44.796875 12.125 C 44.617188 12.144531 44.464844 12.230469 44.347656 12.375 C 44.304688 12.425781 44.160156 12.554688 44.011719 12.6875 C 43.773438 12.898438 43.597656 13.0625 43.460938 13.195312 C 42.621094 13.085938 41.902344 13.007812 41.460938 13.007812 C 41.4375 13.007812 41.417969 13.011719 41.394531 13.011719 C 41.28125 13.015625 41.179688 13.019531 41.097656 13.035156 C 40.929688 12.855469 40.367188 12.285156 39.789062 12.285156 C 39.730469 12.285156 39.671875 12.292969 39.617188 12.300781 C 38.941406 12.441406 38.023438 12.929688 37.984375 12.949219 C 37.949219 12.96875 37.921875 13.007812 37.917969 13.046875 C 37.917969 13.054688 37.921875 13.0625 37.921875 13.070312 C 37.921875 13.101562 37.933594 13.136719 37.957031 13.15625 C 37.996094 13.191406 38.894531 14.003906 39.859375 14.011719 L 39.871094 14.011719 C 39.898438 14.011719 39.925781 14.011719 39.953125 14.007812 C 40.132812 14 40.710938 13.933594 41.074219 13.503906 C 41.144531 13.535156 41.230469 13.566406 41.335938 13.597656 C 41.78125 13.730469 42.578125 13.871094 43.898438 14.097656 C 43.941406 14.105469 43.988281 14.113281 44.03125 14.121094 C 44.097656 14.246094 44.191406 14.398438 44.304688 14.578125 C 44.402344 14.738281 44.511719 14.917969 44.535156 14.992188 C 44.648438 15.375 44.96875 15.746094 45.359375 16.042969 C 45.484375 16.136719 45.613281 16.222656 45.746094 16.300781 C 45.957031 16.421875 46.171875 16.515625 46.375 16.574219 C 46.402344 16.648438 46.460938 16.792969 46.542969 17.003906 C 46.027344 17.242188 45.613281 17.519531 45.414062 17.832031 C 45.398438 17.859375 45.390625 17.890625 45.398438 17.925781 C 45.40625 17.96875 45.988281 20.824219 47.609375 23.777344 C 47.65625 23.863281 47.703125 23.949219 47.753906 24.035156 C 48.613281 25.550781 49.746094 27.066406 51.214844 28.226562 C 51.484375 28.4375 52.097656 28.855469 52.789062 29.285156 C 51.484375 29.710938 50.316406 30.359375 49.28125 31.21875 C 49.230469 31.261719 49.175781 31.300781 49.125 31.347656 C 48.632812 31.773438 48.066406 32.5625 47.480469 33.554688 C 47.4375 33.625 47.394531 33.703125 47.351562 33.777344 C 45.300781 37.316406 43.039062 43.078125 42.730469 43.882812 L 38.59375 44.023438 L 38.40625 44.027344 L 36.800781 44.082031 L 34.824219 44.152344 C 34.777344 44.152344 34.730469 44.1875 34.710938 44.234375 C 34.695312 44.269531 34.625 44.453125 34.535156 44.742188 C 34.507812 44.824219 34.480469 44.910156 34.453125 45.003906 C 34.21875 45.808594 33.929688 47.117188 34.085938 48.324219 C 34.046875 48.335938 34.019531 48.359375 34.003906 48.398438 C 33.980469 48.464844 34.007812 48.539062 34.078125 48.566406 C 34.078125 48.566406 34.09375 48.574219 34.121094 48.582031 C 34.125 48.582031 34.125 48.585938 34.132812 48.585938 C 34.28125 49.375 34.644531 50.105469 35.371094 50.589844 C 35.390625 50.597656 35.410156 50.605469 35.429688 50.609375 C 35.4375 50.609375 35.449219 50.609375 35.460938 50.613281 C 35.976562 50.667969 41.371094 51.214844 44.570312 51.214844 C 45.410156 51.214844 46.097656 51.175781 46.503906 51.082031 C 47.378906 50.878906 47.949219 50.578125 48.339844 50.199219 C 48.984375 49.574219 49.136719 48.742188 49.308594 47.78125 C 49.371094 47.441406 49.433594 47.085938 49.527344 46.714844 C 49.511719 46.777344 49.457031 46.816406 49.398438 46.816406 C 49.390625 46.816406 49.382812 46.8125 49.375 46.8125 C 49.3125 46.804688 49.269531 46.75 49.269531 46.683594 C 49.269531 46.675781 49.269531 46.671875 49.273438 46.664062 C 49.183594 47.039062 49.117188 47.390625 49.054688 47.734375 C 48.78125 49.246094 48.585938 50.335938 46.445312 50.832031 C 44.550781 51.269531 36.085938 50.417969 35.488281 50.355469 C 33.382812 48.914062 34.703125 45.007812 34.921875 44.40625 L 42.824219 44.136719 C 42.875 44.136719 42.921875 44.105469 42.941406 44.054688 C 42.980469 43.949219 47.023438 33.507812 49.296875 31.542969 C 51.15625 29.933594 53.503906 29.054688 56.261719 28.925781 L 56.445312 28.917969 C 56.828125 28.90625 57.253906 28.890625 57.617188 28.742188 C 57.71875 28.699219 57.8125 28.644531 57.902344 28.578125 C 59.136719 29.109375 60.292969 29.285156 61.277344 29.285156 C 63.128906 29.285156 64.375 28.667969 64.394531 28.664062 C 64.402344 28.65625 64.410156 28.648438 64.414062 28.644531 C 64.460938 28.605469 64.480469 28.542969 64.449219 28.488281 "/><path style=" stroke:none;fill-rule:nonzero;fill:#100f0d;fill-opacity:1;" d="M 39.664062 12.429688 C 38.996094 12.566406 38.054688 13.0625 38.054688 13.0625 C 38.054688 13.0625 38.578125 13.53125 39.234375 13.757812 C 39.238281 13.714844 39.238281 13.671875 39.242188 13.628906 C 39.253906 13.40625 39.273438 13.1875 39.449219 13.101562 C 39.710938 12.964844 39.964844 12.824219 40.105469 12.613281 C 40.132812 12.570312 40.15625 12.527344 40.175781 12.480469 C 40.007812 12.421875 39.832031 12.394531 39.664062 12.429688 "/><path style=" stroke:none;fill-rule:nonzero;fill:#100f0d;fill-opacity:1;" d="M 48.058594 12.867188 C 48.058594 12.867188 48.058594 12.867188 48.0625 12.871094 L 48.335938 13.214844 C 48.363281 13.246094 48.398438 13.265625 48.4375 13.265625 C 48.464844 13.265625 48.496094 13.253906 48.519531 13.238281 C 48.574219 13.191406 48.582031 13.109375 48.539062 13.054688 L 48.414062 12.894531 L 48.265625 12.710938 C 48.21875 12.652344 48.140625 12.644531 48.082031 12.691406 C 48.027344 12.734375 48.019531 12.8125 48.058594 12.867188 "/><path style=" stroke:none;fill-rule:nonzero;fill:#100f0d;fill-opacity:1;" d="M 34.230469 44.867188 C 34.238281 44.9375 34.183594 45 34.113281 45.007812 C 34.105469 45.007812 34.09375 45.003906 34.085938 45.003906 C 34.089844 45.003906 34.09375 45.007812 34.101562 45.007812 L 34.453125 45.003906 C 34.480469 44.910156 34.507812 44.820312 34.53125 44.742188 L 34.210938 44.746094 C 34.21875 44.785156 34.226562 44.824219 34.230469 44.867188 "/><path style=" stroke:none;fill-rule:nonzero;fill:#100f0d;fill-opacity:1;" d="M 34.015625 44.972656 C 34.007812 44.96875 34.003906 44.957031 33.996094 44.949219 C 34.003906 44.957031 34.007812 44.964844 34.015625 44.972656 "/><path style=" stroke:none;fill-rule:nonzero;fill:#100f0d;fill-opacity:1;" d="M 33.980469 44.914062 C 33.980469 44.921875 33.984375 44.929688 33.988281 44.933594 C 33.984375 44.929688 33.984375 44.921875 33.980469 44.914062 "/><path style=" stroke:none;fill-rule:nonzero;fill:#100f0d;fill-opacity:1;" d="M 34.058594 44.996094 C 34.050781 44.996094 34.042969 44.992188 34.035156 44.984375 C 34.042969 44.992188 34.050781 44.996094 34.058594 44.996094 "/><path style=" stroke:none;fill-rule:nonzero;fill:#100f0d;fill-opacity:1;" d="M 29.503906 46.722656 C 29.730469 46.746094 30.183594 46.8125 30.183594 46.8125 L 30.203125 46.6875 L 30.222656 46.558594 C 30.222656 46.558594 30.121094 46.542969 29.992188 46.527344 C 29.84375 46.503906 29.65625 46.480469 29.535156 46.464844 C 28.882812 46.398438 28.125 46.09375 27.695312 45.84375 C 27.582031 45.777344 27.488281 45.707031 27.40625 45.636719 C 27.371094 45.605469 27.351562 45.574219 27.359375 45.496094 C 27.359375 45.472656 27.371094 45.449219 27.386719 45.425781 C 27.472656 45.316406 27.636719 45.25 27.808594 45.21875 C 27.925781 45.328125 28.070312 45.40625 28.175781 45.453125 C 28.460938 45.578125 28.710938 45.667969 28.96875 45.742188 C 29.28125 45.832031 29.609375 45.898438 30.019531 45.949219 C 30.089844 45.957031 30.15625 45.964844 30.226562 45.972656 C 30.382812 45.988281 30.542969 46.003906 30.691406 46.039062 C 30.703125 46.039062 30.710938 46.039062 30.71875 46.039062 C 30.78125 46.039062 30.832031 46 30.847656 45.941406 C 30.851562 45.917969 30.847656 45.894531 30.84375 45.875 C 30.828125 45.832031 30.796875 45.796875 30.75 45.785156 C 30.585938 45.75 30.417969 45.730469 30.253906 45.714844 C 30.1875 45.707031 30.121094 45.699219 30.054688 45.691406 C 29.332031 45.601562 28.886719 45.480469 28.28125 45.21875 C 28.183594 45.175781 27.867188 45.019531 27.867188 44.796875 C 27.867188 44.722656 27.890625 44.695312 27.910156 44.679688 C 28.023438 44.582031 28.328125 44.625 28.496094 44.648438 C 28.539062 44.652344 28.578125 44.660156 28.605469 44.660156 C 29.058594 44.714844 29.496094 44.769531 29.945312 44.828125 C 30.402344 44.886719 30.871094 44.945312 31.375 45.003906 C 31.949219 45.074219 32.265625 45.015625 32.433594 44.820312 C 32.621094 44.597656 32.550781 44.246094 32.457031 43.933594 C 32.417969 43.804688 32.355469 43.660156 32.289062 43.507812 C 32.183594 43.269531 32.074219 43.015625 32.050781 42.804688 C 32.03125 42.59375 32.101562 42.46875 32.28125 42.390625 C 32.433594 42.324219 32.59375 42.496094 32.679688 42.605469 C 32.820312 42.78125 32.972656 42.953125 33.164062 43.148438 C 33.378906 43.367188 33.886719 43.980469 33.972656 44.890625 C 33.976562 44.898438 33.980469 44.90625 33.980469 44.914062 C 33.984375 44.921875 33.984375 44.929688 33.988281 44.9375 C 33.992188 44.941406 33.996094 44.945312 33.996094 44.949219 C 34.003906 44.957031 34.007812 44.96875 34.015625 44.972656 C 34.023438 44.980469 34.027344 44.980469 34.035156 44.984375 C 34.042969 44.992188 34.050781 44.996094 34.058594 45 C 34.066406 45 34.074219 45.003906 34.085938 45.003906 C 34.09375 45.003906 34.105469 45.007812 34.117188 45.007812 C 34.1875 45 34.238281 44.9375 34.230469 44.867188 C 34.226562 44.824219 34.21875 44.785156 34.214844 44.746094 C 34.085938 43.820312 33.574219 43.199219 33.347656 42.96875 C 33.316406 42.9375 33.292969 42.90625 33.261719 42.875 C 33.15625 42.765625 33.066406 42.660156 32.980469 42.5625 C 32.980469 42.5625 32.980469 42.558594 32.980469 42.558594 C 32.949219 42.523438 32.914062 42.484375 32.882812 42.445312 C 32.851562 42.40625 32.824219 42.371094 32.792969 42.339844 C 32.589844 42.132812 32.378906 42.066406 32.179688 42.152344 C 32.089844 42.191406 31.996094 42.253906 31.921875 42.34375 C 31.867188 42.410156 31.824219 42.492188 31.804688 42.601562 C 31.792969 42.667969 31.785156 42.742188 31.792969 42.832031 C 31.820312 43.082031 31.945312 43.363281 32.050781 43.613281 C 32.113281 43.753906 32.175781 43.890625 32.207031 44.003906 C 32.308594 44.347656 32.320312 44.554688 32.234375 44.652344 C 32.195312 44.699219 32.136719 44.730469 32.046875 44.75 C 31.90625 44.78125 31.691406 44.78125 31.40625 44.75 C 30.902344 44.691406 30.4375 44.632812 29.980469 44.570312 C 29.53125 44.515625 29.089844 44.457031 28.628906 44.40625 C 28.605469 44.402344 28.570312 44.398438 28.53125 44.390625 C 28.296875 44.359375 27.941406 44.308594 27.738281 44.484375 C 27.730469 44.492188 27.722656 44.503906 27.710938 44.511719 C 27.660156 44.570312 27.605469 44.65625 27.605469 44.796875 C 27.605469 44.867188 27.625 44.933594 27.648438 44.992188 C 27.460938 45.039062 27.289062 45.128906 27.179688 45.273438 C 27.132812 45.332031 27.105469 45.402344 27.101562 45.476562 C 27.09375 45.570312 27.101562 45.710938 27.234375 45.828125 C 27.324219 45.910156 27.429688 45.984375 27.554688 46.058594 C 27.558594 46.058594 27.5625 46.0625 27.5625 46.066406 C 27.664062 46.121094 27.785156 46.183594 27.914062 46.246094 C 28.367188 46.460938 28.96875 46.664062 29.503906 46.722656 "/><path style=" stroke:none;fill-rule:nonzero;fill:#100f0d;fill-opacity:1;" d="M 49.621094 46.203125 L 50.523438 41.335938 C 50.535156 41.265625 50.488281 41.199219 50.417969 41.183594 C 50.34375 41.171875 50.28125 41.21875 50.265625 41.289062 L 49.269531 46.660156 L 49.269531 46.664062 C 49.257812 46.734375 49.304688 46.800781 49.375 46.8125 C 49.382812 46.816406 49.390625 46.816406 49.398438 46.816406 C 49.457031 46.816406 49.511719 46.773438 49.523438 46.710938 L 49.621094 46.203125 "/></g></svg>