<svg xmlns="http://www.w3.org/2000/svg" xmlns:xlink="http://www.w3.org/1999/xlink" width="150" zoomAndPan="magnify" viewBox="0 0 113.04 120.96" height="150" preserveAspectRatio="xMidYMid meet" version="1.2"><defs><clipPath id="0abfca1dec"><path d="M 0 0.488281 L 111.550781 0.488281 L 111.550781 112.042969 L 0 112.042969 Z M 0 0.488281 "/></clipPath><clipPath id="afa70a2b8f"><path d="M 4 0.488281 L 105 0.488281 L 105 86.757812 L 4 86.757812 Z M 4 0.488281 "/></clipPath><clipPath id="129cac768e"><path d="M 0.0195312 0.488281 L 111.53125 0.488281 L 111.53125 86.757812 L 0.0195312 86.757812 Z M 0.0195312 0.488281 "/></clipPath></defs><g id="f029e6b458"><g clip-rule="nonzero" clip-path="url(#0abfca1dec)"><path style=" stroke:none;fill-rule:nonzero;fill:#ffffff;fill-opacity:1;" d="M 0 0.488281 L 111.550781 0.488281 L 111.550781 112.042969 L 0 112.042969 Z M 0 0.488281 "/><path style=" stroke:none;fill-rule:nonzero;fill:#ffffff;fill-opacity:1;" d="M 0 0.488281 L 111.550781 0.488281 L 111.550781 112.042969 L 0 112.042969 Z M 0 0.488281 "/></g><g clip-rule="nonzero" clip-path="url(#afa70a2b8f)"><path style=" stroke:none;fill-rule:nonzero;fill:#ffffff;fill-opacity:1;" d="M 104.511719 78.566406 C 104.238281 78.566406 103.96875 78.566406 103.695312 78.566406 L 104.992188 78.566406 C 104.832031 78.566406 104.671875 78.566406 104.511719 78.566406 Z M 65.523438 86.511719 L 55.269531 83.707031 L 55.480469 84.183594 C 55.550781 84.339844 55.578125 84.503906 55.554688 84.652344 C 55.5 85.011719 54.890625 85.1875 54.574219 85.230469 C 53.714844 85.441406 52.714844 85.546875 51.578125 85.546875 C 50.363281 85.546875 49.480469 85.425781 49.472656 85.425781 C 49.425781 85.421875 48.269531 85.363281 47.640625 85.15625 C 46.367188 84.664062 45.636719 84.324219 44.652344 83.765625 C 44.484375 83.675781 44.308594 83.570312 44.125 83.464844 L 43.753906 83.25 L 43.53125 83.175781 L 43.464844 83.191406 C 43.429688 83.191406 43.40625 83.195312 43.386719 83.203125 C 38.375 83.726562 33.738281 84 29.644531 84 C 25.785156 84 22.429688 83.753906 19.671875 83.273438 C 18.25 82.988281 16.816406 82.414062 15.859375 82.007812 C 15.386719 81.8125 14.925781 81.609375 14.480469 81.414062 L 14.351562 81.355469 C 13.800781 81.089844 13.269531 80.789062 12.734375 80.441406 C 11.890625 79.890625 11.136719 79.253906 10.425781 78.5 L 10.351562 78.421875 L 10.34375 78.421875 L 9.992188 78.011719 C 9.566406 77.511719 9.15625 76.964844 8.75 76.332031 C 6.914062 73.433594 6.675781 66.953125 6.675781 61.632812 L 6.675781 61.472656 L 6.511719 61.394531 L 6.472656 61.386719 C 5.605469 61.089844 4.949219 60.773438 4.527344 60.4375 C 4.601562 60.1875 4.671875 59.929688 4.746094 59.671875 L 4.847656 59.3125 C 6.167969 54.664062 7.8125 48.878906 13.140625 43.910156 C 18.871094 38.574219 24.613281 38.351562 29.230469 38.175781 L 30.746094 38.117188 C 31.714844 38.082031 32.789062 38.039062 33.519531 37.429688 C 33.84375 37.148438 33.976562 36.75 33.953125 36.085938 C 33.949219 35.996094 33.90625 33.25 33.90625 33.25 L 33.8125 33.179688 C 33.09375 32.625 32.425781 32.0625 31.832031 31.507812 L 31.808594 31.484375 L 31.777344 31.46875 C 30.039062 30.5625 27.304688 27.449219 26.398438 26.328125 C 24.574219 24.058594 23.53125 21.253906 23.386719 18.21875 C 22.765625 14.09375 23.671875 10.074219 25.863281 7.167969 C 26.753906 5.988281 28.03125 5.054688 29.777344 4.3125 C 30.394531 4.050781 31.1875 3.753906 31.875 3.753906 C 32.371094 3.753906 32.734375 3.90625 32.980469 4.226562 L 33.121094 4.410156 L 33.316406 4.277344 C 33.992188 3.8125 35.972656 2.628906 39.667969 1.644531 C 41.125 1.253906 43.308594 0.738281 45.464844 0.738281 C 46.589844 0.738281 47.636719 0.878906 48.589844 1.152344 C 49.746094 1.480469 51.042969 2.324219 51.894531 3.292969 C 53.15625 4.429688 54.484375 6.191406 53.769531 8.253906 C 53.574219 8.8125 53.257812 9.335938 52.855469 9.765625 L 52.742188 9.886719 L 52.8125 10.039062 C 54.058594 12.734375 55.523438 16.667969 53.816406 19.679688 L 53.777344 19.75 L 53.785156 19.832031 C 53.988281 21.617188 53.992188 23.367188 53.796875 25.039062 C 53.152344 30.589844 51.003906 34.089844 47.40625 35.445312 C 46.8125 35.664062 46.109375 35.839844 45.378906 35.953125 L 45.167969 35.984375 L 45.167969 36.199219 C 45.167969 36.597656 45.21875 37.097656 45.609375 37.429688 L 45.632812 37.445312 L 45.652344 37.457031 C 46.34375 38.039062 47.414062 38.082031 48.355469 38.117188 L 48.726562 38.132812 C 54.070312 38.378906 58.609375 40.089844 62.21875 43.21875 C 66.703125 47.121094 70.191406 52.617188 73.109375 57.460938 L 73.078125 57.488281 C 73.019531 57.53125 72.953125 57.574219 72.898438 57.621094 L 72.730469 57.753906 L 72.789062 57.863281 C 71.9375 58.511719 70.726562 59.253906 69.265625 60.015625 L 69.082031 60.113281 L 69.148438 60.3125 C 69.417969 61.140625 69.683594 61.988281 69.9375 62.820312 C 70.53125 64.757812 71.144531 66.753906 71.972656 68.558594 L 72.078125 68.789062 L 72.304688 68.679688 C 72.65625 68.507812 73.460938 67.890625 74.691406 66.851562 C 74.691406 66.851562 74.867188 66.703125 74.886719 66.691406 L 85.960938 58.320312 L 85.984375 58.261719 C 86.5 57.097656 87.199219 55.71875 87.605469 55.355469 C 88.195312 54.828125 88.894531 54.117188 89.09375 53.910156 L 89.167969 53.832031 L 89.164062 53.722656 C 89.074219 52.199219 89.019531 50.75 88.976562 49.511719 L 88.96875 49.34375 C 88.898438 47.488281 88.820312 45.574219 88.667969 43.460938 C 88.652344 43.253906 88.714844 43.074219 88.855469 42.925781 C 89.003906 42.757812 89.246094 42.65625 89.484375 42.65625 C 89.855469 42.65625 90.097656 42.871094 90.117188 43.21875 C 90.148438 43.796875 90.1875 44.382812 90.226562 44.980469 L 90.246094 45.296875 C 90.386719 47.539062 90.550781 50.085938 90.601562 52.523438 L 90.609375 52.890625 L 90.945312 52.746094 C 91.121094 52.671875 91.398438 52.582031 91.710938 52.582031 C 92.261719 52.582031 92.746094 52.851562 93.15625 53.382812 L 93.21875 53.46875 L 93.324219 53.480469 C 93.46875 53.496094 94.757812 53.667969 95.035156 54.867188 L 95.066406 55.003906 L 95.203125 55.046875 C 95.523438 55.144531 96.308594 55.507812 96.667969 56.769531 L 96.695312 56.867188 L 96.785156 56.914062 C 97.175781 57.136719 97.453125 57.390625 97.535156 57.90625 C 97.679688 58.804688 96.972656 59.464844 96.339844 59.9375 L 96.304688 59.964844 L 96.28125 60.003906 L 92.652344 62.644531 C 91.898438 63.203125 91.011719 63.289062 90.554688 63.289062 C 90.445312 63.289062 90.355469 63.28125 90.285156 63.277344 L 90.148438 63.269531 L 82.144531 74.71875 L 91.421875 76.089844 L 91.710938 76.09375 L 91.710938 78.546875 L 91.972656 78.546875 L 91.742188 78.546875 L 91.710938 78.792969 L 91.710938 79.070312 L 87.585938 80.25 L 87.539062 80.347656 C 87.167969 81.105469 86.566406 81.558594 85.925781 81.558594 C 85.566406 81.558594 85.207031 81.410156 84.894531 81.128906 L 84.789062 81.039062 L 83.78125 81.328125 L 83.730469 81.421875 C 83.351562 82.136719 82.78125 82.550781 82.160156 82.550781 C 81.816406 82.550781 81.488281 82.421875 81.1875 82.175781 L 81.085938 82.089844 L 79.96875 82.414062 L 79.917969 82.5 C 79.539062 83.160156 78.984375 83.542969 78.398438 83.542969 C 78.082031 83.542969 77.773438 83.433594 77.492188 83.21875 L 77.394531 83.144531 L 76.332031 83.445312 L 76.289062 83.554688 C 75.902344 84.464844 75.203125 85.03125 74.46875 85.03125 C 74.027344 85.03125 73.613281 84.84375 73.261719 84.496094 L 73.234375 84.460938 L 73.132812 84.351562 L 72.144531 84.632812 L 72.097656 84.734375 C 71.675781 85.640625 70.96875 86.179688 70.214844 86.179688 C 69.777344 86.179688 69.363281 86.003906 68.984375 85.65625 L 68.882812 85.5625 L 65.542969 86.511719 L 65.523438 86.511719 "/></g><g clip-rule="nonzero" clip-path="url(#129cac768e)"><path style=" stroke:none;fill-rule:nonzero;fill:#100f0d;fill-opacity:1;" d="M 91.59375 78.097656 C 91.59375 78.082031 91.59375 78.0625 91.585938 78.046875 C 91.574219 77.992188 91.523438 77.960938 91.464844 77.964844 C 91.453125 77.964844 91.445312 77.957031 91.433594 77.960938 C 90.429688 78.238281 89.308594 78.546875 88.128906 78.867188 L 88.128906 78.78125 C 88.128906 78.5625 88.113281 78.355469 88.082031 78.152344 C 89.722656 77.699219 90.945312 77.363281 91.464844 77.21875 L 91.464844 77.964844 C 91.523438 77.960938 91.574219 77.992188 91.585938 78.046875 C 91.59375 78.0625 91.59375 78.082031 91.59375 78.097656 Z M 87.980469 79.875 C 88.042969 79.644531 88.09375 79.390625 88.113281 79.132812 C 89.738281 78.6875 90.949219 78.355469 91.464844 78.210938 L 91.464844 78.882812 Z M 79.558594 78.925781 C 79.550781 78.910156 79.542969 78.898438 79.53125 78.882812 C 79.53125 78.882812 79.53125 78.882812 79.535156 78.882812 C 79.542969 78.898438 79.550781 78.910156 79.558594 78.925781 Z M 87.605469 76.824219 C 87.207031 76.171875 86.601562 75.75 85.925781 75.75 C 85.328125 75.75 84.765625 76.078125 84.355469 76.652344 C 84.0625 76.671875 83.835938 76.78125 83.835938 76.914062 C 83.835938 77.054688 84.070312 77.164062 84.367188 77.179688 C 84.425781 77.203125 84.484375 77.203125 84.542969 77.179688 C 84.828125 77.152344 85.046875 77.050781 85.046875 76.914062 C 85.046875 76.851562 84.992188 76.796875 84.90625 76.753906 C 85.203125 76.429688 85.5625 76.246094 85.925781 76.246094 C 86.382812 76.246094 86.800781 76.519531 87.105469 76.957031 C 87.164062 77.035156 87.210938 77.121094 87.261719 77.207031 C 87.210938 77.121094 87.164062 77.035156 87.105469 76.957031 C 86.046875 77.226562 84.949219 77.507812 83.828125 77.792969 C 83.859375 77.847656 83.894531 77.90625 83.925781 77.960938 C 83.894531 77.90625 83.859375 77.847656 83.824219 77.792969 C 83.425781 77.148438 82.824219 76.742188 82.160156 76.742188 C 81.566406 76.742188 81 77.070312 80.589844 77.644531 C 80.296875 77.664062 80.066406 77.773438 80.066406 77.90625 C 80.066406 78.046875 80.304688 78.15625 80.605469 78.171875 C 80.65625 78.195312 80.722656 78.195312 80.777344 78.171875 C 81.058594 78.144531 81.28125 78.042969 81.28125 77.90625 C 81.28125 77.84375 81.222656 77.789062 81.144531 77.742188 C 81.4375 77.421875 81.792969 77.238281 82.160156 77.238281 C 82.609375 77.238281 83.011719 77.5 83.320312 77.921875 C 82.234375 78.195312 81.132812 78.476562 80.042969 78.753906 C 79.636719 78.128906 79.050781 77.734375 78.398438 77.734375 C 77.796875 77.734375 77.238281 78.0625 76.828125 78.636719 C 76.535156 78.65625 76.304688 78.765625 76.304688 78.898438 C 76.304688 79.039062 76.539062 79.148438 76.835938 79.164062 C 76.894531 79.1875 76.957031 79.1875 77.015625 79.164062 C 77.296875 79.136719 77.515625 79.035156 77.515625 78.898438 C 77.515625 78.839844 77.460938 78.78125 77.378906 78.738281 C 77.675781 78.414062 78.03125 78.230469 78.398438 78.230469 C 78.832031 78.230469 79.230469 78.484375 79.53125 78.882812 C 78.386719 79.175781 77.253906 79.460938 76.160156 79.738281 C 76.257812 79.875 76.347656 80.027344 76.425781 80.183594 C 77.53125 79.90625 78.667969 79.617188 79.800781 79.328125 C 79.910156 79.5625 79.988281 79.824219 80.039062 80.101562 C 78.914062 80.40625 77.796875 80.710938 76.71875 81.007812 C 76.648438 80.710938 76.546875 80.4375 76.425781 80.183594 C 76.34375 80.027344 76.257812 79.875 76.15625 79.738281 C 75.730469 79.132812 75.132812 78.753906 74.46875 78.753906 C 73.832031 78.753906 73.234375 79.101562 72.792969 79.714844 C 72.460938 79.730469 72.203125 79.847656 72.203125 80 C 72.203125 80.160156 72.496094 80.292969 72.855469 80.292969 C 73.21875 80.292969 73.511719 80.160156 73.511719 80 C 73.511719 79.925781 73.445312 79.863281 73.347656 79.8125 C 73.667969 79.453125 74.0625 79.25 74.46875 79.25 C 74.914062 79.25 75.324219 79.484375 75.644531 79.871094 C 74.417969 80.179688 73.246094 80.476562 72.164062 80.75 C 72.246094 80.886719 72.316406 81.035156 72.382812 81.191406 C 72.316406 81.039062 72.246094 80.890625 72.164062 80.75 C 71.703125 79.972656 70.996094 79.46875 70.214844 79.46875 C 69.546875 79.46875 68.910156 79.835938 68.445312 80.476562 C 68.078125 80.488281 67.785156 80.621094 67.785156 80.785156 C 67.785156 80.964844 68.097656 81.101562 68.492188 81.101562 C 68.875 81.101562 69.1875 80.964844 69.1875 80.785156 C 69.1875 80.707031 69.121094 80.632812 69 80.570312 C 69.347656 80.183594 69.773438 79.964844 70.214844 79.964844 C 70.78125 79.964844 71.296875 80.316406 71.664062 80.875 C 68.429688 81.6875 66.117188 82.261719 65.816406 82.3125 C 65.460938 82.253906 62.246094 81.488281 57.882812 80.441406 C 57.898438 80.484375 57.914062 80.53125 57.925781 80.574219 C 57.914062 80.53125 57.898438 80.484375 57.882812 80.441406 C 57.75 80.105469 57.472656 79.867188 57.109375 79.785156 C 57.328125 79.628906 57.507812 79.414062 57.558594 79.117188 C 57.601562 78.910156 57.558594 78.714844 57.4375 78.550781 C 57.160156 78.179688 56.535156 78.074219 56.09375 78.03125 C 55.253906 77.945312 54.265625 77.925781 53.21875 77.902344 C 53.34375 77.828125 53.445312 77.75 53.519531 77.648438 C 53.640625 77.496094 53.753906 77.226562 53.625 76.847656 C 53.421875 76.269531 52.613281 76.117188 51.96875 76.085938 C 51.390625 76.058594 50.796875 76.003906 50.085938 75.917969 C 48.511719 75.726562 47.210938 75.75 46.117188 75.996094 C 45.371094 76.167969 44.6875 76.492188 44.125 76.957031 L 44.117188 76.960938 C 42.105469 76.5 39.816406 75.957031 37.476562 75.394531 C 37.207031 75.328125 36.941406 75.265625 36.675781 75.199219 C 36.941406 75.265625 37.210938 75.328125 37.476562 75.390625 L 61.046875 71.859375 L 82.070312 74.960938 C 82.089844 74.964844 82.117188 74.972656 82.140625 74.972656 L 90.214844 76.160156 C 89.390625 76.371094 88.519531 76.59375 87.609375 76.824219 C 87.695312 76.96875 87.773438 77.117188 87.839844 77.28125 C 89.289062 76.910156 90.53125 76.59375 91.464844 76.355469 L 91.464844 76.972656 C 91.523438 76.96875 91.574219 77 91.585938 77.054688 C 91.601562 77.105469 91.585938 77.15625 91.546875 77.183594 C 91.585938 77.15625 91.601562 77.105469 91.585938 77.054688 C 91.574219 77 91.523438 76.96875 91.464844 76.972656 C 91.453125 76.972656 91.445312 76.964844 91.433594 76.96875 C 90.402344 77.253906 89.253906 77.570312 88.035156 77.90625 C 87.988281 77.683594 87.921875 77.476562 87.839844 77.28125 C 87.769531 77.117188 87.695312 76.96875 87.605469 76.824219 Z M 87.617188 79.011719 C 86.574219 79.300781 85.476562 79.597656 84.363281 79.90625 C 84.363281 79.859375 84.367188 79.816406 84.367188 79.773438 C 84.367188 79.570312 84.351562 79.371094 84.320312 79.183594 C 85.511719 78.855469 86.621094 78.550781 87.601562 78.285156 C 87.621094 78.441406 87.632812 78.605469 87.632812 78.78125 C 87.632812 78.859375 87.621094 78.933594 87.617188 79.011719 Z M 84.0625 78.246094 C 84.0625 78.246094 84.0625 78.242188 84.0625 78.242188 C 85.222656 77.949219 86.332031 77.664062 87.355469 77.402344 C 87.445312 77.601562 87.503906 77.8125 87.554688 78.035156 C 86.496094 78.328125 85.402344 78.625 84.277344 78.941406 C 84.226562 78.691406 84.152344 78.457031 84.0625 78.246094 Z M 83.851562 80.046875 C 82.773438 80.34375 81.683594 80.640625 80.59375 80.9375 C 80.597656 80.878906 80.597656 80.824219 80.597656 80.765625 C 80.597656 80.574219 80.589844 80.390625 80.5625 80.214844 C 81.683594 79.90625 82.789062 79.601562 83.839844 79.316406 C 83.855469 79.464844 83.871094 79.613281 83.871094 79.773438 C 83.871094 79.867188 83.855469 79.957031 83.851562 80.046875 Z M 83.601562 81.121094 C 83.5 81.359375 83.371094 81.566406 83.214844 81.746094 C 82.925781 82.089844 82.5625 82.300781 82.160156 82.300781 C 81.992188 82.300781 81.824219 82.261719 81.664062 82.1875 L 83.214844 81.746094 C 83.371094 81.566406 83.5 81.359375 83.601562 81.121094 L 80.394531 82.035156 C 80.484375 81.769531 80.542969 81.492188 80.574219 81.199219 C 81.6875 80.898438 82.785156 80.59375 83.832031 80.308594 C 83.785156 80.601562 83.707031 80.875 83.601562 81.121094 Z M 83.417969 78.070312 C 83.460938 78.136719 83.5 78.207031 83.539062 78.28125 C 83.5 78.207031 83.460938 78.136719 83.417969 78.070312 Z M 83.582031 78.367188 C 83.675781 78.578125 83.746094 78.820312 83.796875 79.070312 C 82.714844 79.367188 81.617188 79.667969 80.519531 79.964844 C 80.464844 79.699219 80.386719 79.441406 80.28125 79.207031 C 80.222656 79.066406 80.152344 78.9375 80.078125 78.816406 C 80.15625 78.941406 80.222656 79.066406 80.285156 79.207031 C 81.398438 78.921875 82.507812 78.640625 83.582031 78.367188 Z M 80.082031 81.078125 C 78.984375 81.378906 77.898438 81.675781 76.835938 81.964844 C 76.832031 81.722656 76.808594 81.476562 76.765625 81.25 C 77.863281 80.953125 78.972656 80.644531 80.078125 80.347656 C 80.09375 80.480469 80.101562 80.621094 80.101562 80.765625 C 80.101562 80.867188 80.09375 80.972656 80.082031 81.078125 Z M 79.800781 82.203125 C 79.683594 82.449219 79.539062 82.667969 79.371094 82.84375 C 79.09375 83.125 78.761719 83.292969 78.398438 83.292969 C 78.269531 83.292969 78.140625 83.269531 78.011719 83.226562 C 77.851562 83.171875 77.699219 83.085938 77.5625 82.964844 C 77.457031 82.878906 77.296875 82.894531 77.210938 82.996094 C 77.121094 83.101562 77.136719 83.253906 77.238281 83.34375 C 77.132812 83.253906 77.121094 83.101562 77.210938 82.996094 C 77.296875 82.894531 77.457031 82.878906 77.5625 82.964844 C 77.699219 83.085938 77.851562 83.167969 78.011719 83.226562 L 79.371094 82.84375 C 79.539062 82.667969 79.683594 82.449219 79.800781 82.203125 L 76.703125 83.082031 C 76.773438 82.8125 76.816406 82.527344 76.828125 82.222656 C 77.898438 81.933594 78.984375 81.636719 80.054688 81.34375 C 80.003906 81.65625 79.921875 81.945312 79.800781 82.203125 Z M 76.335938 82.105469 C 75.074219 82.445312 73.859375 82.777344 72.726562 83.085938 C 72.726562 83.039062 72.734375 82.996094 72.734375 82.953125 C 72.734375 82.75 72.71875 82.550781 72.691406 82.355469 C 73.828125 82.046875 75.042969 81.722656 76.285156 81.378906 C 76.320312 81.585938 76.339844 81.796875 76.339844 82.019531 C 76.339844 82.042969 76.335938 82.074219 76.335938 82.105469 Z M 72.390625 81.207031 C 72.390625 81.207031 72.390625 81.203125 72.390625 81.203125 C 73.5 80.925781 74.699219 80.621094 75.9375 80.308594 C 75.917969 80.273438 75.898438 80.242188 75.878906 80.210938 C 75.898438 80.242188 75.917969 80.273438 75.941406 80.308594 C 76.070312 80.558594 76.171875 80.835938 76.242188 81.136719 C 74.984375 81.480469 73.773438 81.8125 72.652344 82.113281 C 72.597656 81.792969 72.511719 81.484375 72.390625 81.207031 Z M 72.226562 83.21875 C 68.605469 84.203125 65.996094 84.902344 65.824219 84.921875 C 65.625 84.902344 62.28125 84.046875 57.710938 82.871094 C 57.734375 82.835938 57.757812 82.808594 57.785156 82.769531 C 57.894531 82.574219 57.914062 82.367188 57.851562 82.171875 C 62.296875 83.320312 65.679688 84.171875 65.8125 84.171875 C 65.949219 84.171875 68.625 83.460938 72.210938 82.492188 C 72.226562 82.640625 72.238281 82.792969 72.238281 82.953125 C 72.238281 83.039062 72.230469 83.128906 72.226562 83.21875 Z M 71.96875 84.429688 C 71.882812 84.648438 71.777344 84.851562 71.65625 85.035156 C 71.292969 85.585938 70.78125 85.933594 70.214844 85.933594 C 69.933594 85.933594 69.660156 85.839844 69.40625 85.675781 L 71.65625 85.035156 C 71.777344 84.851562 71.882812 84.648438 71.96875 84.429688 L 65.542969 86.253906 L 55.980469 83.640625 C 55.800781 83.679688 55.632812 83.710938 55.464844 83.742188 C 55.464844 83.742188 55.464844 83.742188 55.464844 83.738281 C 55.632812 83.710938 55.800781 83.679688 55.980469 83.640625 C 55.996094 83.640625 56.011719 83.636719 56.023438 83.636719 C 56.125 83.605469 56.226562 83.585938 56.335938 83.5625 C 56.722656 83.472656 57.183594 83.367188 57.519531 83.082031 C 62.128906 84.265625 65.675781 85.164062 65.8125 85.164062 C 65.949219 85.164062 68.621094 84.453125 72.203125 83.484375 C 72.164062 83.820312 72.078125 84.140625 71.96875 84.429688 Z M 57.941406 80.625 C 57.957031 80.683594 57.964844 80.746094 57.96875 80.808594 C 57.96875 80.820312 57.964844 80.835938 57.964844 80.847656 C 57.964844 80.835938 57.96875 80.820312 57.96875 80.808594 C 57.964844 80.746094 57.957031 80.683594 57.941406 80.625 Z M 57.949219 80.960938 C 57.949219 80.960938 57.949219 80.964844 57.949219 80.964844 C 62.355469 82.023438 65.671875 82.808594 65.816406 82.808594 C 65.949219 82.808594 68.460938 82.191406 71.910156 81.324219 C 71.867188 81.230469 71.820312 81.140625 71.773438 81.054688 C 71.820312 81.140625 71.867188 81.230469 71.910156 81.324219 C 72.027344 81.601562 72.125 81.910156 72.175781 82.242188 C 68.578125 83.21875 65.996094 83.910156 65.824219 83.929688 C 65.625 83.910156 62.257812 83.050781 57.660156 81.871094 C 57.601562 81.8125 57.535156 81.761719 57.457031 81.726562 C 57.761719 81.507812 57.898438 81.230469 57.949219 80.96875 C 57.949219 80.964844 57.949219 80.960938 57.949219 80.960938 Z M 55.308594 84.613281 C 55.28125 84.792969 54.839844 84.945312 54.511719 84.992188 C 52.28125 85.535156 49.527344 85.183594 49.476562 85.179688 C 49.46875 85.171875 48.3125 85.121094 47.730469 84.925781 C 46.046875 84.269531 45.363281 83.914062 43.878906 83.03125 C 43.859375 83.019531 43.839844 83.011719 43.820312 83.007812 L 43.601562 82.941406 C 43.574219 82.9375 43.539062 82.933594 43.507812 82.9375 C 36.625 83.671875 26.910156 84.28125 19.71875 83.03125 C 17.921875 82.667969 16.078125 81.851562 14.457031 81.132812 C 12.097656 79.980469 10.453125 78.5 8.957031 76.199219 C 7.1875 73.40625 6.933594 67.09375 6.925781 61.804688 C 11.59375 63.382812 20.070312 64.191406 20.070312 64.191406 C 20.070312 64.191406 20.144531 65.089844 20.246094 66.234375 C 20.257812 67.671875 20.3125 68.898438 20.355469 69.796875 C 20.371094 70.203125 20.390625 70.535156 20.398438 70.789062 C 20.40625 71.132812 20.417969 71.644531 32.371094 74.648438 C 36.441406 75.667969 40.542969 76.636719 42.667969 77.128906 C 42.957031 77.199219 43.214844 77.257812 43.429688 77.304688 C 43.871094 77.410156 44.128906 77.464844 44.140625 77.46875 C 44.222656 77.488281 44.308594 77.464844 44.367188 77.40625 L 44.449219 77.328125 C 44.941406 76.925781 45.554688 76.632812 46.226562 76.476562 C 47.261719 76.246094 48.503906 76.21875 50.027344 76.410156 C 50.746094 76.496094 51.355469 76.550781 51.945312 76.578125 C 52.609375 76.613281 53.074219 76.777344 53.15625 77.007812 C 53.21875 77.191406 53.175781 77.285156 53.128906 77.347656 C 52.964844 77.566406 52.316406 77.898438 49.847656 77.71875 L 49.730469 77.714844 C 49.710938 77.707031 49.695312 77.714844 49.675781 77.71875 C 49.664062 77.71875 49.65625 77.71875 49.644531 77.722656 C 49.554688 77.742188 49.496094 77.8125 49.476562 77.902344 C 49.476562 77.910156 49.472656 77.917969 49.46875 77.925781 C 49.46875 77.933594 49.472656 77.933594 49.46875 77.9375 L 49.46875 77.941406 C 49.46875 77.957031 49.472656 77.964844 49.472656 77.980469 C 49.472656 78 49.472656 78.015625 49.480469 78.03125 C 49.480469 78.046875 49.492188 78.058594 49.503906 78.074219 C 49.507812 78.089844 49.511719 78.105469 49.527344 78.113281 C 49.535156 78.128906 49.546875 78.136719 49.5625 78.144531 C 49.570312 78.15625 49.582031 78.167969 49.597656 78.175781 C 49.609375 78.183594 49.625 78.183594 49.644531 78.1875 C 49.65625 78.195312 49.671875 78.203125 49.683594 78.203125 C 50.6875 78.339844 51.949219 78.367188 53.167969 78.394531 C 54.21875 78.417969 55.210938 78.441406 56.042969 78.527344 C 56.71875 78.589844 56.960938 78.738281 57.042969 78.847656 C 57.066406 78.882812 57.09375 78.933594 57.074219 79.027344 C 56.996094 79.445312 56.339844 79.625 56.140625 79.667969 C 55.902344 79.722656 55.65625 79.761719 55.410156 79.792969 C 55.007812 79.816406 54.605469 79.839844 54.214844 79.871094 L 53.96875 79.886719 C 53.339844 79.890625 52.722656 79.859375 52.148438 79.820312 C 52.023438 79.816406 51.894531 79.800781 51.773438 79.792969 C 51.453125 79.765625 51.128906 79.738281 50.8125 79.746094 C 50.671875 79.753906 50.5625 79.867188 50.566406 80 C 50.570312 80.140625 50.691406 80.238281 50.824219 80.242188 C 51.117188 80.234375 51.425781 80.257812 51.726562 80.289062 C 51.855469 80.296875 51.988281 80.308594 52.117188 80.316406 C 52.664062 80.351562 53.25 80.386719 53.847656 80.386719 C 53.882812 80.386719 53.921875 80.382812 53.957031 80.382812 C 53.960938 80.382812 53.960938 80.386719 53.96875 80.386719 L 54.003906 80.382812 C 54.476562 80.378906 54.960938 80.351562 55.433594 80.289062 C 55.90625 80.261719 56.375 80.25 56.847656 80.25 C 57.199219 80.253906 57.453125 80.492188 57.476562 80.808594 C 57.460938 80.957031 57.425781 81.421875 56.390625 81.59375 C 55.976562 81.691406 55.535156 81.757812 55.082031 81.800781 L 55.0625 81.800781 C 53.683594 81.929688 52.191406 81.84375 50.933594 81.78125 C 50.800781 81.765625 50.683594 81.875 50.675781 82.015625 C 50.667969 82.148438 50.769531 82.265625 50.910156 82.273438 C 51.699219 82.316406 52.570312 82.367188 53.457031 82.367188 C 54.003906 82.367188 54.554688 82.347656 55.089844 82.296875 C 55.628906 82.273438 56.015625 82.21875 56.328125 82.175781 C 56.558594 82.144531 56.761719 82.117188 56.964844 82.113281 C 57.1875 82.09375 57.3125 82.191406 57.363281 82.277344 C 57.417969 82.367188 57.386719 82.460938 57.351562 82.519531 C 57.15625 82.871094 56.683594 82.976562 56.226562 83.074219 C 56.113281 83.101562 56 83.125 55.90625 83.148438 C 53.554688 83.652344 51.65625 83.746094 50.253906 83.421875 C 50.121094 83.394531 49.988281 83.476562 49.957031 83.605469 C 49.929688 83.738281 50.011719 83.875 50.144531 83.902344 C 50.734375 84.042969 51.394531 84.113281 52.128906 84.113281 C 52.761719 84.113281 53.457031 84.050781 54.210938 83.953125 C 54.21875 83.949219 54.230469 83.953125 54.242188 83.953125 C 54.652344 83.882812 54.964844 83.941406 55.148438 84.128906 C 55.300781 84.277344 55.332031 84.472656 55.308594 84.613281 Z M 12.878906 48.078125 C 12.367188 47.996094 12.289062 47.699219 12.246094 47.230469 C 12.738281 47.339844 12.867188 47.609375 12.878906 48.078125 Z M 21.382812 69.847656 C 21.421875 69.976562 21.464844 70.105469 21.5 70.226562 C 21.257812 70.3125 21.011719 70.390625 20.765625 70.472656 C 20.742188 70.410156 20.722656 70.351562 20.699219 70.292969 C 20.695312 70.242188 20.683594 70.191406 20.679688 70.144531 C 20.910156 70.042969 21.148438 69.945312 21.382812 69.847656 Z M 21.046875 61.269531 C 21.371094 61.503906 21.640625 61.6875 22.046875 61.980469 C 21.140625 62.414062 20.976562 62.285156 21.046875 61.269531 Z M 22.144531 60.28125 L 22.144531 61.089844 C 22.0625 61.117188 21.976562 61.136719 21.894531 61.15625 C 21.792969 61.011719 21.695312 60.871094 21.546875 60.65625 C 21.746094 60.535156 21.878906 60.449219 22.144531 60.28125 Z M 23.449219 43.132812 C 23.523438 43.320312 23.597656 43.515625 23.703125 43.777344 C 23.132812 43.640625 23.132812 43.640625 23.449219 43.132812 Z M 28.246094 64.308594 C 28.457031 64.398438 28.648438 64.535156 28.851562 64.648438 C 28.804688 64.742188 28.753906 64.832031 28.703125 64.925781 C 28.476562 64.816406 28.246094 64.707031 27.925781 64.550781 C 28.105469 64.414062 28.203125 64.289062 28.246094 64.308594 Z M 32.65625 54.21875 C 32.75 54.359375 32.84375 54.503906 32.941406 54.644531 C 32.882812 54.6875 32.828125 54.730469 32.773438 54.769531 C 32.679688 54.628906 32.585938 54.484375 32.484375 54.34375 C 32.539062 54.300781 32.597656 54.261719 32.65625 54.21875 Z M 33.382812 37.882812 C 33.351562 37.894531 33.316406 37.90625 33.285156 37.90625 C 33.273438 37.90625 33.261719 37.902344 33.25 37.902344 C 33.261719 37.902344 33.273438 37.90625 33.28125 37.90625 C 33.316406 37.90625 33.351562 37.894531 33.382812 37.882812 Z M 33.324219 37.40625 C 33.308594 37.402344 33.300781 37.398438 33.285156 37.398438 C 33.269531 37.398438 33.253906 37.402344 33.238281 37.40625 C 33.253906 37.402344 33.269531 37.398438 33.285156 37.398438 C 33.296875 37.398438 33.308594 37.402344 33.324219 37.40625 Z M 33.699219 37.59375 C 33.691406 37.601562 33.683594 37.609375 33.675781 37.617188 C 33.664062 37.628906 33.648438 37.636719 33.636719 37.648438 C 33.648438 37.636719 33.664062 37.628906 33.675781 37.617188 C 33.683594 37.609375 33.691406 37.601562 33.699219 37.59375 Z M 34.199219 36.078125 C 34.195312 35.886719 34.164062 33.984375 34.160156 33.425781 C 34.171875 33.40625 34.179688 33.386719 34.191406 33.359375 C 34.222656 33.265625 34.191406 33.15625 34.105469 33.09375 C 33.621094 32.726562 33.167969 32.359375 32.742188 31.992188 C 34.335938 31.773438 33.535156 26.542969 33.535156 26.535156 C 33.648438 26.554688 33.765625 26.566406 33.878906 26.566406 C 33.996094 26.566406 34.085938 26.46875 34.085938 26.355469 C 34.085938 26.246094 33.992188 26.152344 33.878906 26.152344 C 33.785156 26.152344 33.691406 26.148438 33.589844 26.128906 L 33.589844 26.117188 L 33.554688 26.117188 C 33.085938 26.039062 32.605469 25.789062 32.363281 25.476562 C 31.816406 24.757812 31.785156 23.625 32.296875 22.6875 C 32.734375 21.871094 33.4375 21.53125 34.230469 21.53125 C 34.394531 21.714844 34.582031 21.90625 34.789062 22.035156 C 35.339844 22.378906 35.976562 21.792969 36.367188 21.457031 C 36.835938 21.058594 37.207031 20.53125 37.605469 20.066406 C 38.871094 18.601562 39.808594 16.128906 40.238281 14.222656 C 40.398438 13.527344 40.554688 12.808594 40.554688 12.09375 C 40.554688 12.285156 45.601562 11.847656 46.03125 11.792969 C 47.371094 11.613281 48.726562 11.332031 49.976562 10.804688 C 50.15625 10.863281 50.328125 10.910156 50.503906 10.933594 C 50.914062 11.488281 51.28125 12.09375 51.59375 12.765625 C 52.3125 14.320312 52.84375 15.984375 53.195312 17.6875 C 52.890625 17.566406 52.523438 17.484375 52.183594 17.492188 C 51.191406 17.414062 49.96875 18.140625 50.15625 18.539062 C 50.308594 18.890625 51.246094 18.449219 52.007812 18.503906 C 52.515625 18.503906 53 18.574219 53.359375 18.519531 C 53.402344 18.773438 53.433594 19.019531 53.46875 19.273438 C 53.730469 21.175781 53.769531 23.117188 53.550781 25.007812 C 52.972656 29.988281 51.171875 33.269531 48.199219 34.808594 C 47.914062 34.957031 47.621094 35.097656 47.320312 35.210938 C 46.007812 35.703125 44.230469 35.941406 42.792969 35.820312 C 42.6875 35.8125 42.578125 35.886719 42.542969 35.996094 C 42.539062 36.011719 42.527344 36.023438 42.527344 36.042969 C 42.519531 36.183594 42.617188 36.304688 42.75 36.3125 C 43.011719 36.335938 43.285156 36.347656 43.5625 36.347656 C 43.570312 36.347656 43.570312 36.347656 43.574219 36.347656 C 43.785156 36.679688 44.191406 37.160156 44.644531 37.441406 C 44.683594 37.46875 44.71875 37.488281 44.757812 37.507812 C 39.605469 39.496094 35.289062 38.1875 33.875 37.636719 C 33.816406 37.613281 33.765625 37.59375 33.71875 37.574219 C 33.714844 37.582031 33.707031 37.589844 33.699219 37.59375 C 33.707031 37.585938 33.714844 37.582031 33.71875 37.574219 C 34.171875 37.160156 34.214844 36.558594 34.199219 36.078125 Z M 32.140625 30.652344 C 32.308594 30.582031 32.46875 30.511719 32.640625 30.445312 C 32.675781 30.539062 32.707031 30.636719 32.742188 30.730469 C 32.558594 30.773438 32.375 30.804688 32.195312 30.847656 C 32.179688 30.78125 32.160156 30.714844 32.140625 30.652344 Z M 23.613281 13.480469 C 23.867188 11.773438 24.398438 10.117188 25.21875 8.597656 C 25.976562 7.199219 27.035156 6.148438 28.355469 5.296875 C 29.15625 4.789062 31.730469 3.371094 32.660156 4.238281 C 28.320312 4.574219 24.855469 8.5625 23.613281 13.480469 Z M 25.269531 12.5625 C 25.601562 11.960938 25.996094 12.238281 26.601562 12.277344 C 25.96875 12.730469 25.96875 12.730469 25.269531 12.5625 Z M 36.613281 7.882812 C 36.863281 8.050781 37.082031 8.195312 37.457031 8.445312 C 37.269531 8.753906 37.179688 8.90625 37.089844 9.046875 C 36.472656 8.785156 36.222656 8.523438 36.613281 7.882812 Z M 37.996094 17.550781 C 38.113281 18.003906 38.113281 18.003906 37.660156 17.9375 C 37.757812 17.820312 37.863281 17.707031 37.996094 17.550781 Z M 42.269531 8.378906 C 42.378906 8.4375 42.488281 8.5 42.597656 8.558594 C 42.507812 8.949219 42.417969 9.347656 42.308594 9.8125 C 42.058594 9.761719 41.867188 9.730469 41.507812 9.660156 C 41.808594 9.152344 42.042969 8.765625 42.269531 8.378906 Z M 42.929688 5.644531 C 43.183594 5.664062 43.371094 5.6875 43.632812 5.710938 C 43.609375 5.972656 43.589844 6.175781 43.5625 6.410156 C 43.019531 6.445312 42.910156 6.167969 42.929688 5.644531 Z M 51.300781 10.125 C 52.742188 9.222656 53.40625 6.875 53.058594 5.066406 C 53.273438 5.429688 53.453125 5.816406 53.574219 6.234375 C 54.140625 8.171875 52.621094 10.558594 50.773438 10.476562 C 50.765625 10.46875 50.753906 10.453125 50.746094 10.441406 C 50.933594 10.34375 51.117188 10.238281 51.300781 10.125 Z M 45.507812 37.199219 C 45.535156 37.1875 45.5625 37.183594 45.59375 37.183594 C 45.566406 37.183594 45.535156 37.1875 45.507812 37.199219 C 45.421875 37.238281 45.335938 37.273438 45.25 37.308594 L 45.246094 37.582031 C 45.246094 37.582031 45.242188 37.582031 45.242188 37.582031 L 45.25 37.308594 C 45.335938 37.269531 45.421875 37.238281 45.507812 37.199219 Z M 45.675781 37.191406 C 45.660156 37.1875 45.640625 37.183594 45.621094 37.183594 C 45.640625 37.183594 45.660156 37.1875 45.675781 37.191406 Z M 45.832031 37.324219 C 45.832031 37.316406 45.824219 37.3125 45.820312 37.304688 C 45.824219 37.3125 45.832031 37.316406 45.832031 37.324219 Z M 45.808594 37.566406 C 45.757812 37.53125 45.707031 37.5 45.65625 37.464844 C 45.707031 37.5 45.757812 37.53125 45.808594 37.566406 C 45.847656 37.507812 45.863281 37.433594 45.847656 37.363281 C 45.867188 37.4375 45.851562 37.507812 45.808594 37.566406 Z M 45.664062 40.425781 C 45.136719 39.738281 45.136719 39.738281 46.035156 39.246094 C 45.886719 39.714844 45.789062 40.039062 45.664062 40.425781 Z M 46.5 61.25 C 46.644531 61.308594 46.789062 61.367188 46.945312 61.433594 C 46.6875 61.984375 46.550781 61.679688 46.410156 61.5 C 46.4375 61.417969 46.46875 61.332031 46.5 61.25 Z M 48.257812 48.851562 C 47.535156 49.234375 47.535156 49.234375 46.902344 48.652344 C 47.445312 48.734375 47.761719 48.777344 48.257812 48.851562 Z M 49.21875 62.890625 C 49.371094 63.203125 49.480469 63.425781 49.644531 63.753906 C 49.34375 63.976562 49.144531 64.125 48.773438 64.398438 C 48.695312 64.277344 48.59375 64.121094 48.464844 63.917969 C 48.273438 64.050781 48.089844 64.1875 47.839844 64.359375 C 47.71875 64.117188 47.621094 63.933594 47.453125 63.609375 C 48.078125 63.351562 48.625 63.128906 49.21875 62.890625 Z M 36.882812 43.113281 C 37.066406 42.878906 37.195312 42.722656 37.371094 42.5 C 37.488281 43.117188 37.488281 43.117188 36.882812 43.113281 Z M 37.550781 64.820312 C 37.125 65.222656 36.910156 65.335938 36.714844 64.6875 C 36.996094 64.730469 37.183594 64.761719 37.550781 64.820312 Z M 38.75 49.476562 C 38.484375 49.476562 38.316406 49.484375 38.054688 49.484375 C 38.375 49.175781 38.375 49.175781 38.75 49.476562 Z M 40.167969 49.136719 C 39.527344 49.382812 39.175781 49.015625 38.871094 48.511719 C 39.40625 47.96875 39.6875 48.105469 40.167969 49.136719 Z M 41.40625 54.171875 C 40.890625 54.246094 40.644531 54.277344 40.375 54.320312 C 40.347656 54.089844 40.320312 53.90625 40.273438 53.585938 C 40.640625 53.773438 40.90625 53.914062 41.40625 54.171875 Z M 44.300781 68.542969 C 44.445312 68.878906 44.589844 69.214844 44.738281 69.558594 C 44.167969 69.449219 43.835938 69.210938 44.003906 68.671875 C 44.105469 68.628906 44.203125 68.585938 44.300781 68.542969 Z M 43.269531 39.046875 C 43.738281 38.832031 43.738281 38.832031 44.09375 39.269531 C 43.703125 39.636719 43.480469 39.523438 43.269531 39.046875 Z M 33.601562 42.703125 C 33.683594 42.707031 33.765625 42.710938 33.84375 42.722656 C 33.855469 42.855469 33.894531 43 33.863281 43.117188 C 33.84375 43.191406 33.714844 43.238281 33.496094 43.386719 C 33.546875 43.0625 33.574219 42.878906 33.601562 42.703125 Z M 33.515625 37.761719 C 33.507812 37.773438 33.5 37.785156 33.492188 37.796875 C 33.5 37.785156 33.507812 37.773438 33.515625 37.761719 Z M 33.523438 37.726562 C 33.535156 37.703125 33.542969 37.679688 33.546875 37.652344 C 33.542969 37.679688 33.535156 37.703125 33.527344 37.722656 C 33.527344 37.726562 33.527344 37.726562 33.523438 37.726562 Z M 33.023438 37.625 C 33.019531 37.664062 33.027344 37.703125 33.042969 37.742188 C 33.027344 37.707031 33.019531 37.664062 33.023438 37.625 Z M 34.710938 64.511719 C 34.449219 64.167969 34.289062 63.953125 34.003906 63.570312 C 34.648438 63.648438 34.875 63.792969 34.710938 64.511719 Z M 35.804688 40.648438 C 35.472656 40.765625 35.230469 40.855469 34.78125 41.019531 C 34.984375 40.558594 35.101562 40.289062 35.277344 39.910156 C 35.488281 40.207031 35.609375 40.375 35.804688 40.648438 Z M 33.640625 37.8125 C 34.941406 38.347656 39.546875 39.890625 45.101562 37.640625 C 45.105469 37.640625 45.105469 37.640625 45.105469 37.640625 C 39.546875 39.890625 34.941406 38.347656 33.640625 37.8125 Z M 51.472656 72.980469 C 51.464844 73.007812 51.453125 73.027344 51.441406 73.050781 C 51.261719 73.074219 51.078125 73.105469 50.894531 73.128906 C 50.863281 73.0625 50.828125 72.988281 50.789062 72.898438 C 51.117188 72.9375 51.242188 72.953125 51.472656 72.980469 Z M 53.304688 52.773438 C 53.726562 53.3125 53.402344 53.492188 53.28125 53.722656 C 53.1875 53.679688 53.09375 53.640625 53.007812 53.601562 C 53.089844 53.367188 53.167969 53.132812 53.304688 52.773438 Z M 54.433594 43.734375 C 54.796875 44.011719 55.003906 44.167969 55.355469 44.4375 C 54.929688 44.707031 54.632812 44.890625 54.328125 45.078125 C 54.253906 45.019531 54.179688 44.953125 54.101562 44.894531 C 54.199219 44.558594 54.292969 44.226562 54.433594 43.734375 Z M 56.070312 57.796875 C 55.742188 57.742188 55.523438 57.707031 55.304688 57.671875 C 55.667969 57.058594 55.875 57.171875 56.070312 57.796875 Z M 58.175781 60.257812 C 58.214844 60.683594 58.246094 60.964844 58.269531 61.25 C 57.507812 60.976562 57.671875 60.6875 58.175781 60.257812 Z M 59.261719 48.792969 C 59.375 48.925781 59.433594 49.109375 59.519531 49.285156 C 58.851562 49.546875 58.851562 49.546875 58.773438 48.558594 C 59.019531 48.675781 59.175781 48.699219 59.261719 48.792969 Z M 59.972656 68.898438 C 59.910156 68.945312 59.839844 68.988281 59.777344 69.027344 C 59.632812 68.902344 59.488281 68.78125 59.316406 68.636719 C 59.433594 68.464844 59.519531 68.351562 59.707031 68.09375 C 59.828125 68.449219 59.902344 68.675781 59.972656 68.898438 Z M 90.53125 59.242188 C 90.515625 60.273438 90.417969 60.992188 90.246094 61.105469 C 90.027344 60.921875 89.832031 59.875 89.703125 58.542969 C 89.90625 58.554688 90.117188 58.570312 90.328125 58.570312 C 90.398438 58.570312 90.464844 58.566406 90.53125 58.5625 C 90.480469 58.808594 90.476562 59.042969 90.53125 59.242188 Z M 68.9375 60.464844 C 69.199219 61.265625 69.457031 62.085938 69.699219 62.890625 C 70.316406 64.890625 70.945312 66.953125 71.820312 68.824219 C 71.851562 68.894531 71.953125 68.972656 72.027344 68.988281 C 72.054688 68.992188 72.074219 69 72.101562 69 C 72.351562 69 72.851562 68.734375 74.855469 67.042969 C 74.957031 66.953125 75.027344 66.894531 75.046875 66.875 L 86.105469 58.519531 C 86.140625 58.496094 86.167969 58.460938 86.183594 58.421875 C 86.476562 57.757812 87.324219 55.941406 87.769531 55.539062 C 88.183594 55.167969 88.644531 54.714844 88.957031 54.402344 L 89.328125 54.03125 C 89.421875 53.933594 89.417969 53.773438 89.316406 53.679688 C 89.234375 53.597656 89.105469 53.589844 89.011719 53.65625 C 89.105469 53.589844 89.234375 53.597656 89.316406 53.679688 C 89.417969 53.773438 89.421875 53.933594 89.328125 54.03125 L 88.957031 54.402344 C 88.976562 54.6875 88.996094 54.972656 89.015625 55.261719 L 88.957031 55.253906 C 88.824219 55.222656 88.6875 55.3125 88.664062 55.445312 C 88.632812 55.574219 88.71875 55.699219 88.847656 55.734375 C 88.847656 55.734375 88.851562 55.738281 88.855469 55.738281 L 89.167969 55.800781 C 90.164062 56 92.238281 56.421875 92.363281 57.019531 C 92.402344 57.207031 92.1875 57.480469 91.757812 57.777344 C 90.996094 58.308594 89.015625 58 88.3125 57.832031 C 88.308594 57.832031 88.308594 57.832031 88.308594 57.832031 C 88.167969 57.800781 88.039062 57.886719 88.011719 58.019531 C 87.976562 58.152344 88.058594 58.28125 88.191406 58.316406 C 88.234375 58.328125 88.640625 58.417969 89.183594 58.492188 C 89.347656 60.21875 89.65625 61.605469 90.234375 61.605469 L 90.300781 61.605469 C 90.753906 61.535156 90.957031 60.75 91.023438 59.707031 C 91.058594 59.714844 91.085938 59.730469 91.128906 59.738281 C 91.160156 59.742188 91.195312 59.742188 91.230469 59.742188 C 91.390625 59.742188 91.566406 59.6875 91.746094 59.597656 C 91.6875 59.78125 91.65625 59.960938 91.671875 60.128906 C 91.695312 60.363281 91.8125 60.558594 92.003906 60.703125 C 92.113281 60.789062 92.246094 60.824219 92.394531 60.824219 C 92.726562 60.824219 93.140625 60.628906 93.574219 60.335938 C 93.566406 60.554688 93.628906 60.785156 93.796875 61.011719 C 93.882812 61.128906 94.007812 61.203125 94.140625 61.25 L 92.503906 62.445312 C 91.488281 63.199219 90.199219 63.019531 90.183594 63.019531 C 90.089844 63 90 63.046875 89.949219 63.121094 L 82.027344 74.453125 L 61.253906 71.390625 C 61.265625 71.441406 61.273438 71.492188 61.28125 71.546875 C 61.308594 71.683594 61.234375 71.785156 61.132812 71.832031 C 61.230469 71.785156 61.308594 71.683594 61.28125 71.546875 C 61.273438 71.492188 61.261719 71.445312 61.253906 71.390625 C 60.8125 68.964844 60.277344 66.558594 59.722656 64.15625 C 62.152344 63.492188 65.84375 62.039062 68.9375 60.464844 Z M 60.550781 57.191406 C 60.699219 57.484375 60.800781 57.691406 60.90625 57.902344 C 60.78125 57.96875 60.707031 58.050781 60.664062 58.035156 C 60.253906 57.882812 60.1875 57.644531 60.550781 57.191406 Z M 61.667969 59.191406 C 61.757812 59.210938 61.847656 59.230469 61.9375 59.25 C 62.027344 59.476562 62.113281 59.707031 62.242188 60.046875 C 61.894531 60.058594 61.640625 60.0625 61.175781 60.074219 C 61.398438 59.671875 61.535156 59.433594 61.667969 59.191406 Z M 65.402344 46.480469 C 65.519531 46.625 65.640625 46.773438 65.757812 46.917969 C 65.785156 47.136719 65.707031 47.308594 65.390625 47.449219 C 65.085938 47.101562 65.132812 46.835938 65.402344 46.480469 Z M 66.722656 58.011719 C 66.890625 58.527344 66.625 58.789062 66.355469 59.242188 C 66.207031 58.625 66.199219 58.257812 66.722656 58.011719 Z M 89.035156 43.09375 C 89.144531 42.972656 89.316406 42.90625 89.488281 42.90625 C 89.625 42.90625 89.851562 42.945312 89.867188 43.234375 C 89.90625 43.914062 89.953125 44.605469 89.996094 45.3125 C 90.171875 48.054688 90.347656 50.871094 90.367188 53.539062 C 90.15625 54.117188 89.917969 54.894531 89.765625 55.421875 C 89.683594 55.402344 89.601562 55.386719 89.515625 55.367188 C 89.367188 53.269531 89.292969 51.351562 89.222656 49.503906 C 89.148438 47.59375 89.074219 45.625 88.917969 43.445312 C 88.90625 43.308594 88.945312 43.1875 89.035156 43.09375 Z M 90.789062 53.105469 C 90.796875 53.097656 90.8125 53.089844 90.828125 53.078125 C 90.8125 53.089844 90.796875 53.097656 90.789062 53.105469 Z M 93.25 58.261719 C 93.304688 58.203125 93.34375 58.160156 93.363281 58.132812 C 93.386719 58.105469 93.398438 58.078125 93.410156 58.046875 C 93.402344 58.078125 93.386719 58.105469 93.363281 58.132812 C 93.339844 58.160156 93.300781 58.207031 93.25 58.265625 C 93.15625 58.367188 93.070312 58.46875 92.988281 58.566406 C 93.070312 58.46875 93.152344 58.367188 93.25 58.261719 Z M 93.019531 53.613281 C 93.0625 53.679688 93.132812 53.714844 93.207031 53.71875 C 93.269531 53.726562 94.628906 53.808594 94.816406 55.054688 C 94.828125 55.15625 94.917969 55.242188 95.027344 55.261719 C 95.074219 55.265625 96.066406 55.425781 96.453125 56.929688 C 96.476562 56.996094 96.519531 57.050781 96.578125 57.085938 C 97.050781 57.335938 97.230469 57.554688 97.292969 57.945312 C 97.425781 58.792969 96.648438 59.429688 95.835938 60.003906 L 95.710938 60.09375 C 95.324219 60.378906 94.691406 60.863281 94.339844 60.800781 C 94.273438 60.792969 94.234375 60.769531 94.195312 60.71875 C 93.960938 60.394531 94.097656 60.046875 94.386719 59.703125 C 95.25 58.949219 96.078125 58.011719 96.464844 57.558594 C 96.554688 57.453125 96.539062 57.300781 96.4375 57.210938 C 96.332031 57.121094 96.179688 57.132812 96.089844 57.242188 C 95.726562 57.664062 95.34375 58.078125 94.964844 58.460938 C 94.957031 58.464844 94.949219 58.472656 94.945312 58.476562 C 94.882812 58.535156 94.800781 58.609375 94.699219 58.695312 C 94.511719 58.863281 94.269531 59.082031 94.050781 59.328125 C 93.234375 60.046875 92.539062 60.484375 92.296875 60.304688 C 92.21875 60.246094 92.175781 60.175781 92.167969 60.078125 C 92.136719 59.761719 92.40625 59.261719 92.976562 58.582031 C 92.976562 58.578125 92.976562 58.578125 92.980469 58.574219 C 93.847656 57.636719 94.648438 56.421875 94.882812 56.050781 C 94.957031 55.9375 94.921875 55.785156 94.808594 55.710938 C 94.695312 55.636719 94.539062 55.671875 94.464844 55.785156 C 94.460938 55.796875 94.449219 55.808594 94.445312 55.820312 C 94.039062 56.453125 93.511719 57.1875 92.988281 57.8125 C 92.988281 57.8125 92.988281 57.8125 92.992188 57.8125 C 92.984375 57.816406 92.980469 57.816406 92.980469 57.820312 C 92.960938 57.839844 92.925781 57.882812 92.882812 57.929688 C 92.789062 58.035156 92.691406 58.148438 92.597656 58.257812 C 92.597656 58.257812 92.59375 58.261719 92.59375 58.261719 C 92.03125 58.875 91.507812 59.292969 91.203125 59.246094 C 91.078125 59.230469 91.042969 59.179688 91.019531 59.136719 C 90.957031 59.003906 90.980469 58.777344 91.046875 58.515625 C 91.429688 58.464844 91.78125 58.367188 92.042969 58.183594 C 92.667969 57.746094 92.933594 57.328125 92.847656 56.914062 C 92.78125 56.609375 92.539062 56.363281 92.164062 56.160156 L 92.714844 55.101562 C 92.714844 55.097656 92.714844 55.089844 92.71875 55.082031 L 92.722656 55.089844 C 92.917969 54.65625 93.054688 54.300781 93.113281 54.136719 C 93.164062 54.007812 93.097656 53.863281 92.96875 53.8125 C 92.851562 53.769531 92.722656 53.824219 92.667969 53.9375 C 92.664062 53.941406 92.652344 53.953125 92.652344 53.957031 C 92.542969 54.246094 92.421875 54.550781 92.277344 54.863281 C 92.277344 54.871094 92.277344 54.871094 92.273438 54.875 L 91.710938 55.953125 C 91.304688 55.789062 90.804688 55.652344 90.25 55.523438 C 90.53125 54.566406 90.914062 53.375 91.070312 53.160156 C 91.082031 53.148438 91.085938 53.132812 91.09375 53.125 C 91.121094 53.0625 91.125 53 91.105469 52.941406 C 91.542969 52.765625 92.328125 52.648438 93.019531 53.613281 Z M 74.46875 84.78125 C 74.171875 84.78125 73.882812 84.679688 73.621094 84.476562 L 75.878906 83.835938 C 75.535156 84.414062 75.03125 84.78125 74.46875 84.78125 Z M 111.289062 78.328125 C 104.847656 78.320312 98.402344 78.308594 91.960938 78.296875 L 91.960938 76.097656 C 91.960938 75.960938 91.851562 75.847656 91.714844 75.847656 L 91.457031 75.84375 L 82.578125 74.535156 L 82.34375 74.859375 C 82.332031 74.878906 82.320312 74.894531 82.304688 74.90625 C 82.320312 74.894531 82.332031 74.878906 82.34375 74.863281 L 82.578125 74.535156 L 90.269531 63.527344 C 90.679688 63.554688 91.824219 63.566406 92.796875 62.847656 L 96.460938 60.171875 C 96.46875 60.164062 96.480469 60.152344 96.488281 60.136719 C 97.160156 59.636719 97.949219 58.894531 97.777344 57.867188 C 97.683594 57.269531 97.363281 56.957031 96.90625 56.699219 C 96.515625 55.332031 95.652344 54.925781 95.277344 54.808594 C 95.015625 53.699219 93.980469 53.300781 93.351562 53.234375 C 92.449219 52.0625 91.382812 52.289062 90.847656 52.519531 C 90.636719 52.609375 90.507812 52.695312 90.503906 52.703125 C 90.507812 52.695312 90.636719 52.609375 90.851562 52.519531 C 90.800781 50.152344 90.644531 47.6875 90.492188 45.28125 C 90.449219 44.574219 90.402344 43.882812 90.363281 43.207031 C 90.339844 42.726562 89.988281 42.410156 89.488281 42.410156 C 89.179688 42.410156 88.871094 42.539062 88.671875 42.753906 C 88.488281 42.953125 88.402344 43.203125 88.421875 43.480469 C 88.578125 45.652344 88.652344 47.617188 88.730469 49.523438 C 88.777344 50.875 88.832031 52.269531 88.917969 53.738281 C 88.726562 53.933594 88.035156 54.640625 87.4375 55.171875 C 86.871094 55.683594 85.953125 57.726562 85.757812 58.164062 L 74.75 66.484375 C 74.726562 66.496094 74.652344 66.5625 74.53125 66.660156 C 73.027344 67.9375 72.429688 68.34375 72.199219 68.457031 C 71.375 66.660156 70.765625 64.671875 70.175781 62.746094 C 69.921875 61.914062 69.65625 61.066406 69.382812 60.238281 C 70.871094 59.457031 72.1875 58.660156 73.113281 57.925781 C 73.09375 57.890625 73.070312 57.851562 73.050781 57.816406 C 73.121094 57.761719 73.199219 57.707031 73.269531 57.65625 C 73.363281 57.578125 73.386719 57.4375 73.324219 57.335938 C 70.386719 52.464844 66.875 46.941406 62.378906 43.035156 C 58.726562 39.863281 54.136719 38.132812 48.738281 37.882812 L 48.386719 37.871094 C 47.476562 37.835938 46.441406 37.800781 45.777344 37.246094 C 45.757812 37.226562 45.734375 37.210938 45.707031 37.199219 C 45.730469 37.210938 45.753906 37.222656 45.773438 37.242188 C 45.769531 37.238281 45.769531 37.238281 45.769531 37.238281 C 45.476562 36.992188 45.417969 36.609375 45.417969 36.199219 C 46.15625 36.085938 46.875 35.90625 47.492188 35.675781 C 51.183594 34.289062 53.386719 30.714844 54.042969 25.066406 C 54.246094 23.328125 54.230469 21.554688 54.03125 19.800781 C 55.757812 16.757812 54.402344 12.886719 53.035156 9.9375 C 53.449219 9.5 53.789062 8.953125 54.003906 8.332031 C 54.703125 6.320312 53.582031 4.480469 52.078125 3.128906 C 51.1875 2.113281 49.855469 1.253906 48.660156 0.914062 C 45.714844 0.0664062 42.503906 0.628906 39.605469 1.402344 C 35.78125 2.421875 33.769531 3.664062 33.175781 4.074219 C 32.367188 3.03125 30.671875 3.664062 29.679688 4.082031 C 28.128906 4.742188 26.695312 5.648438 25.664062 7.019531 C 23.300781 10.152344 22.558594 14.367188 23.136719 18.230469 C 23.277344 21.113281 24.222656 24.019531 26.207031 26.484375 C 27.042969 27.519531 29.828125 30.730469 31.664062 31.6875 C 32.269531 32.253906 32.929688 32.8125 33.660156 33.375 C 33.671875 33.859375 33.699219 35.890625 33.703125 36.09375 C 33.726562 36.671875 33.621094 37.015625 33.359375 37.238281 C 32.6875 37.800781 31.652344 37.835938 30.734375 37.871094 L 30.382812 37.882812 C 30.003906 37.898438 29.609375 37.914062 29.21875 37.929688 C 24.558594 38.109375 18.765625 38.332031 12.972656 43.726562 C 7.59375 48.742188 5.9375 54.566406 4.609375 59.246094 C 4.5 59.625 4.398438 60.003906 4.289062 60.371094 C 4.257812 60.464844 4.292969 60.570312 4.371094 60.632812 C 4.84375 61.003906 5.546875 61.332031 6.398438 61.621094 C 6.410156 61.625 6.417969 61.625 6.429688 61.632812 C 6.429688 67.015625 6.679688 73.53125 8.539062 76.46875 C 8.945312 77.09375 9.363281 77.65625 9.804688 78.175781 C 6.621094 78.167969 3.445312 78.164062 0.261719 78.164062 C -0.0585938 78.164062 -0.0585938 78.660156 0.261719 78.660156 C 3.589844 78.660156 6.917969 78.664062 10.246094 78.671875 C 10.957031 79.429688 11.726562 80.078125 12.601562 80.648438 C 13.109375 80.980469 13.65625 81.292969 14.25 81.582031 C 14.734375 81.796875 15.242188 82.019531 15.761719 82.238281 C 17 82.761719 18.320312 83.253906 19.628906 83.515625 C 26.839844 84.777344 36.535156 84.171875 43.445312 83.441406 C 43.464844 83.4375 43.488281 83.4375 43.515625 83.433594 L 43.652344 83.476562 C 43.980469 83.667969 44.261719 83.835938 44.53125 83.984375 C 45.496094 84.527344 46.21875 84.871094 47.5625 85.390625 C 48.222656 85.609375 49.402344 85.667969 49.433594 85.667969 C 49.496094 85.679688 50.398438 85.792969 51.578125 85.792969 C 52.507812 85.792969 53.601562 85.722656 54.605469 85.476562 C 54.714844 85.460938 55.707031 85.3125 55.800781 84.6875 C 55.832031 84.480469 55.792969 84.269531 55.707031 84.082031 L 65.476562 86.757812 C 65.496094 86.761719 65.519531 86.761719 65.542969 86.761719 C 65.566406 86.761719 65.585938 86.761719 65.609375 86.75 L 68.816406 85.839844 C 68.792969 85.8125 68.757812 85.792969 68.734375 85.765625 C 68.632812 85.671875 68.632812 85.511719 68.734375 85.417969 C 68.78125 85.367188 68.84375 85.34375 68.90625 85.34375 C 68.84375 85.34375 68.78125 85.367188 68.734375 85.417969 C 68.632812 85.511719 68.632812 85.671875 68.734375 85.765625 C 68.757812 85.792969 68.792969 85.8125 68.816406 85.839844 C 69.234375 86.21875 69.710938 86.429688 70.214844 86.429688 C 71.097656 86.429688 71.875 85.792969 72.320312 84.84375 C 72.410156 84.664062 72.484375 84.46875 72.542969 84.265625 C 72.628906 83.972656 72.6875 83.667969 72.710938 83.34375 C 73.851562 83.035156 75.074219 82.703125 76.328125 82.363281 C 76.296875 82.671875 76.238281 82.972656 76.144531 83.238281 L 72.542969 84.265625 C 72.484375 84.46875 72.410156 84.664062 72.320312 84.84375 L 73.054688 84.632812 C 73.066406 84.644531 73.066406 84.652344 73.074219 84.660156 C 73.476562 85.066406 73.960938 85.277344 74.46875 85.277344 C 75.339844 85.277344 76.101562 84.625 76.515625 83.652344 L 77.34375 83.417969 C 77.664062 83.660156 78.023438 83.789062 78.398438 83.789062 C 79.101562 83.789062 79.726562 83.332031 80.132812 82.625 L 81.03125 82.367188 C 81.003906 82.351562 80.980469 82.335938 80.960938 82.316406 C 80.855469 82.222656 80.847656 82.070312 80.941406 81.964844 C 80.984375 81.914062 81.046875 81.886719 81.109375 81.882812 C 81.046875 81.886719 80.984375 81.914062 80.941406 81.964844 C 80.847656 82.070312 80.859375 82.222656 80.960938 82.316406 C 80.980469 82.335938 81.003906 82.351562 81.03125 82.367188 C 81.371094 82.648438 81.757812 82.796875 82.160156 82.796875 C 82.898438 82.796875 83.546875 82.300781 83.949219 81.539062 C 84.042969 81.355469 84.128906 81.160156 84.191406 80.953125 C 84.265625 80.707031 84.316406 80.441406 84.347656 80.167969 C 85.519531 79.847656 86.625 79.542969 87.601562 79.277344 C 87.5625 79.550781 87.488281 79.808594 87.398438 80.039062 C 87.308594 80.269531 87.195312 80.476562 87.066406 80.648438 C 86.765625 81.058594 86.363281 81.308594 85.925781 81.308594 C 85.71875 81.308594 85.519531 81.25 85.332031 81.144531 C 85.210938 81.078125 85.089844 80.992188 84.976562 80.878906 C 84.878906 80.785156 84.722656 80.785156 84.625 80.878906 C 84.554688 80.953125 84.535156 81.058594 84.570312 81.148438 C 84.535156 81.058594 84.554688 80.953125 84.625 80.878906 C 84.722656 80.785156 84.878906 80.785156 84.976562 80.878906 C 85.089844 80.992188 85.210938 81.078125 85.332031 81.144531 L 87.066406 80.648438 C 87.195312 80.476562 87.308594 80.269531 87.398438 80.039062 L 84.191406 80.953125 C 84.128906 81.160156 84.042969 81.355469 83.949219 81.539062 L 84.726562 81.316406 C 85.085938 81.632812 85.496094 81.804688 85.925781 81.804688 C 86.691406 81.804688 87.363281 81.269531 87.761719 80.457031 L 91.78125 79.3125 C 91.886719 79.28125 91.960938 79.183594 91.960938 79.074219 L 91.960938 78.792969 C 96.144531 78.800781 100.328125 78.804688 104.511719 78.816406 C 106.769531 78.816406 109.03125 78.820312 111.289062 78.824219 C 111.613281 78.824219 111.613281 78.328125 111.289062 78.328125 "/></g><path style=" stroke:none;fill-rule:nonzero;fill:#100f0d;fill-opacity:1;" d="M 43.378906 77.316406 L 43.429688 77.304688 C 43.21875 77.257812 42.960938 77.199219 42.664062 77.128906 C 43.121094 77.25 43.378906 77.316406 43.378906 77.316406 "/><path style=" stroke:none;fill-rule:nonzero;fill:#100f0d;fill-opacity:1;" d="M 81.746094 75.6875 L 62.539062 80.050781 C 62.40625 80.082031 62.324219 80.214844 62.351562 80.347656 C 62.378906 80.460938 62.480469 80.539062 62.59375 80.539062 C 62.613281 80.539062 62.628906 80.539062 62.648438 80.535156 L 81.851562 76.171875 C 81.988281 76.140625 82.070312 76.011719 82.039062 75.875 C 82.011719 75.742188 81.878906 75.65625 81.746094 75.6875 "/><path style=" stroke:none;fill-rule:nonzero;fill:#100f0d;fill-opacity:1;" d="M 77.164062 75.324219 C 77.136719 75.191406 77.003906 75.105469 76.871094 75.132812 L 60.1875 78.535156 C 60.054688 78.5625 59.96875 78.695312 59.996094 78.828125 C 60.019531 78.945312 60.121094 79.027344 60.238281 79.027344 C 60.253906 79.027344 60.269531 79.027344 60.289062 79.023438 L 76.972656 75.617188 C 77.105469 75.589844 77.191406 75.460938 77.164062 75.324219 "/><path style=" stroke:none;fill-rule:nonzero;fill:#100f0d;fill-opacity:1;" d="M 63.929688 76.472656 C 63.945312 76.472656 63.964844 76.472656 63.980469 76.46875 L 73.003906 74.625 C 73.140625 74.597656 73.226562 74.46875 73.199219 74.332031 C 73.171875 74.199219 73.039062 74.113281 72.90625 74.140625 L 63.882812 75.980469 C 63.746094 76.007812 63.660156 76.140625 63.6875 76.273438 C 63.710938 76.390625 63.816406 76.472656 63.929688 76.472656 "/><path style=" stroke:none;fill-rule:nonzero;fill:#100f0d;fill-opacity:1;" d="M 48.929688 28.019531 C 52.992188 27.683594 50.554688 23.109375 49.296875 21.097656 C 49.128906 20.828125 48.699219 21.078125 48.871094 21.351562 C 49.890625 22.980469 52.429688 27.234375 48.929688 27.523438 C 48.613281 27.546875 48.609375 28.042969 48.929688 28.019531 "/><path style=" stroke:none;fill-rule:nonzero;fill:#100f0d;fill-opacity:1;" d="M 45.5625 29.308594 C 45.378906 29.050781 44.949219 29.296875 45.136719 29.558594 C 46.109375 30.929688 48.210938 30.988281 49.59375 30.242188 C 49.875 30.089844 49.621094 29.660156 49.339844 29.8125 C 48.21875 30.421875 46.371094 30.445312 45.5625 29.308594 "/><path style=" stroke:none;fill-rule:nonzero;fill:#100f0d;fill-opacity:1;" d="M 43.472656 19.359375 C 44.078125 19.199219 44.695312 19.160156 45.316406 19.152344 C 45.675781 19.144531 46.371094 19.253906 46.625 18.917969 C 46.878906 18.578125 45.902344 18.296875 45.734375 18.253906 C 44.925781 18.042969 44.054688 18.113281 43.289062 18.453125 C 43.054688 18.558594 41.964844 19.101562 42.246094 19.511719 C 42.441406 19.796875 43.242188 19.417969 43.472656 19.359375 "/><path style=" stroke:none;fill-rule:nonzero;fill:#100f0d;fill-opacity:1;" d="M 52.328125 22.523438 C 52.707031 22.453125 52.921875 21.914062 52.8125 21.3125 C 52.703125 20.714844 52.308594 20.285156 51.929688 20.355469 C 51.554688 20.425781 51.335938 20.964844 51.449219 21.566406 C 51.558594 22.164062 51.953125 22.59375 52.328125 22.523438 "/><path style=" stroke:none;fill-rule:nonzero;fill:#100f0d;fill-opacity:1;" d="M 45.507812 22.789062 C 45.886719 22.71875 46.101562 22.175781 45.992188 21.578125 C 45.882812 20.980469 45.488281 20.550781 45.109375 20.617188 C 44.734375 20.6875 44.515625 21.230469 44.628906 21.828125 C 44.738281 22.429688 45.132812 22.859375 45.507812 22.789062 "/></g></svg>