<svg xmlns="http://www.w3.org/2000/svg" xmlns:xlink="http://www.w3.org/1999/xlink" width="150" zoomAndPan="magnify" viewBox="0 0 113.04 120.96" height="150" preserveAspectRatio="xMidYMid meet" version="1.2"><defs><clipPath id="d4e141e44b"><path d="M 0 0.488281 L 111.550781 0.488281 L 111.550781 112.042969 L 0 112.042969 Z M 0 0.488281 "/></clipPath><clipPath id="6e23e7b5d6"><path d="M 0 0.488281 L 50.570312 0.488281 L 50.570312 112 L 0 112 Z M 0 0.488281 "/></clipPath><clipPath id="caea0a150c"><path d="M 0.0625 0.488281 L 50.503906 0.488281 L 50.503906 112.042969 L 0.0625 112.042969 Z M 0.0625 0.488281 "/></clipPath></defs><g id="0b2339f011"><g clip-rule="nonzero" clip-path="url(#d4e141e44b)"><path style=" stroke:none;fill-rule:nonzero;fill:#ffffff;fill-opacity:1;" d="M 0 0.488281 L 111.550781 0.488281 L 111.550781 112.042969 L 0 112.042969 Z M 0 0.488281 "/><path style=" stroke:none;fill-rule:nonzero;fill:#ffffff;fill-opacity:1;" d="M 0 0.488281 L 111.550781 0.488281 L 111.550781 112.042969 L 0 112.042969 Z M 0 0.488281 "/></g><g clip-rule="nonzero" clip-path="url(#6e23e7b5d6)"><path style=" stroke:none;fill-rule:nonzero;fill:#ffffff;fill-opacity:1;" d="M 35.382812 21.507812 C 34.695312 21.5 34.160156 21.257812 33.644531 20.730469 C 33.28125 20.351562 33.230469 19.777344 33.183594 19.273438 C 33.171875 19.160156 33.164062 19.050781 33.140625 18.941406 L 32.980469 18.824219 L 33.144531 18.707031 C 33.503906 18.457031 33.855469 18.183594 34.191406 17.890625 L 34.414062 17.695312 L 34.425781 17.996094 C 34.4375 18.515625 34.558594 20.289062 35.484375 21.265625 L 35.714844 21.511719 Z M 27.695312 21.667969 C 27.644531 21.726562 27.582031 21.78125 27.515625 21.832031 L 27.5 21.847656 L 27.480469 21.851562 L 27.464844 21.867188 L 27.449219 21.878906 C 27.082031 22.128906 26.570312 22.226562 26.195312 22.296875 L 25.769531 22.375 L 25.945312 22.097656 C 26.058594 21.917969 26.15625 21.691406 26.226562 21.429688 C 26.335938 21.027344 26.402344 20.585938 26.4375 20.074219 L 26.449219 19.886719 L 26.628906 19.949219 C 26.792969 20.015625 26.957031 20.066406 27.117188 20.105469 C 27.234375 20.136719 27.394531 20.15625 27.574219 20.164062 L 27.6875 20.167969 L 27.75 20.507812 C 27.757812 20.546875 27.765625 20.589844 27.777344 20.632812 C 27.851562 20.964844 27.949219 21.378906 27.695312 21.667969 Z M 23.355469 22.667969 C 23.304688 22.828125 23.238281 22.992188 23.164062 23.171875 L 23.148438 23.230469 L 23.097656 23.261719 C 23.074219 23.277344 22.984375 23.332031 22.964844 23.34375 C 22.683594 23.523438 21.789062 24.195312 19.09375 26.378906 L 19.003906 26.449219 L 18.917969 26.375 C 17.640625 25.328125 16.167969 23.980469 14.921875 21.953125 L 14.785156 21.734375 L 15.097656 21.738281 C 15.632812 21.746094 16.144531 21.753906 16.640625 21.757812 L 16.726562 21.769531 C 17.914062 21.933594 20.929688 22.328125 23.230469 22.484375 L 23.414062 22.496094 Z M 14.546875 11.609375 L 14.820312 11.820312 C 15.046875 11.996094 15.332031 12.085938 15.660156 12.085938 C 16.023438 12.085938 16.414062 11.976562 16.757812 11.777344 L 16.851562 11.726562 L 16.925781 11.796875 C 17.1875 12.042969 17.527344 12.171875 17.910156 12.171875 C 18.230469 12.171875 18.558594 12.074219 18.839844 11.902344 L 18.929688 11.847656 L 19.007812 11.917969 C 19.261719 12.144531 19.640625 12.277344 20.039062 12.277344 C 20.117188 12.277344 20.191406 12.269531 20.265625 12.261719 L 20.402344 12.246094 L 20.421875 12.378906 C 20.496094 12.804688 20.59375 13.226562 20.714844 13.632812 L 20.765625 13.800781 L 20.59375 13.816406 C 19.167969 13.957031 17.867188 14.085938 17.476562 14.125 L 17.339844 14.136719 C 16.644531 14.121094 15.878906 14.074219 15 13.992188 L 14.921875 13.984375 L 14.886719 13.914062 L 14.863281 13.859375 L 14.867188 13.832031 C 14.773438 13.207031 14.683594 12.578125 14.59375 11.953125 Z M 50.359375 108.636719 L 50.359375 108.59375 C 50.339844 107.152344 50.089844 106.28125 50.085938 106.269531 L 50.085938 106.265625 L 50.058594 106.265625 L 49.957031 105.367188 C 49.796875 103.796875 49.621094 101.863281 49.429688 99.816406 L 49.410156 99.570312 C 48.792969 92.894531 48.300781 87.738281 48.003906 87.089844 L 47.996094 87.070312 L 47.992188 87.050781 C 47.492188 83.53125 47.203125 79.691406 47.09375 74.96875 L 47.089844 74.882812 L 47.164062 74.84375 C 47.578125 74.609375 47.863281 74.277344 48.03125 73.832031 C 48.371094 72.917969 48.246094 71.804688 48.136719 70.820312 L 48.105469 70.523438 C 48.019531 69.730469 47.945312 68.925781 47.871094 68.144531 C 47.777344 67.144531 47.683594 66.105469 47.558594 65.089844 C 47.066406 60.988281 46.210938 56.953125 45.015625 53.09375 C 44.789062 52.371094 44.566406 51.648438 44.34375 50.925781 C 43.824219 49.242188 43.285156 47.496094 42.738281 45.792969 C 42.160156 43.980469 41.558594 42.105469 40.5625 40.382812 L 40.449219 40.335938 L 40.484375 40.21875 C 40.316406 39.414062 40.15625 38.5625 39.957031 37.460938 C 39.582031 35.40625 39.246094 33.292969 38.933594 31 L 38.925781 30.957031 L 38.96875 30.871094 C 38.992188 30.828125 39.011719 30.78125 39.035156 30.734375 C 39.253906 30.257812 39.445312 29.769531 39.59375 29.289062 L 39.664062 29.066406 L 39.828125 29.230469 C 40.480469 29.886719 41.28125 30.25 42.085938 30.25 C 42.632812 30.25 43.167969 30.089844 43.675781 29.769531 C 44.914062 28.996094 45.542969 27.390625 45.199219 25.871094 C 44.734375 23.828125 42.578125 22.191406 40.996094 20.992188 C 40.839844 20.875 40.683594 20.757812 40.523438 20.640625 C 39.738281 20.054688 38.921875 19.449219 38.25 18.675781 C 37.898438 18.265625 37.585938 17.785156 37.273438 17.15625 L 37.203125 17.011719 C 36.90625 16.425781 36.570312 15.761719 36.597656 15.105469 L 36.59375 15.097656 L 36.59375 15.035156 L 36.613281 15 C 38.183594 12.414062 38.675781 9.53125 37.996094 6.878906 C 37.433594 4.664062 35.902344 2.765625 33.683594 1.539062 C 32.597656 0.9375 31.46875 0.632812 30.328125 0.632812 C 28.792969 0.632812 27.328125 1.199219 26.097656 2.25 L 26.152344 2.46875 L 25.933594 2.425781 C 25.777344 2.398438 25.613281 2.382812 25.457031 2.382812 C 23.980469 2.382812 22.71875 3.664062 21.917969 4.738281 C 20.996094 5.976562 20.464844 7.621094 20.296875 9.757812 C 20.273438 10.039062 20.265625 10.296875 20.265625 10.542969 L 20.265625 10.695312 L 20.117188 10.6875 C 18.878906 10.617188 17.644531 10.546875 16.40625 10.476562 L 16.257812 10.46875 L 16.273438 10.316406 C 16.335938 9.800781 16.222656 9.503906 15.941406 9.441406 C 15.621094 9.375 15.273438 9.351562 14.9375 9.328125 C 14.75 9.316406 14.558594 9.300781 14.375 9.28125 C 13.136719 9.144531 11.898438 8.996094 10.65625 8.847656 L 10.515625 8.832031 L 10.535156 8.6875 C 10.578125 8.328125 10.550781 8.058594 10.453125 7.886719 C 10.277344 7.582031 9.988281 7.53125 9.625 7.472656 L 9.566406 7.460938 C 8.78125 7.324219 7.996094 7.238281 7.265625 7.167969 L 7.234375 7.164062 L 7.210938 7.152344 L 6.957031 7.113281 C 6.382812 7.03125 5.730469 6.9375 3.75 6.777344 C 3.660156 6.777344 3.582031 6.808594 3.515625 6.871094 C 3.234375 7.128906 3.171875 7.871094 3.171875 8.058594 C 3.082031 8.875 3.355469 8.980469 3.910156 9.199219 C 4.082031 9.269531 4.277344 9.347656 4.5 9.460938 C 4.820312 9.628906 4.976562 9.875 5.121094 10.097656 C 5.316406 10.394531 5.496094 10.675781 6.019531 10.789062 L 8.285156 11.070312 L 8.304688 11.070312 L 8.324219 11.074219 C 8.867188 11.21875 9.554688 11.230469 10.109375 11.238281 C 10.335938 11.242188 10.542969 11.242188 10.714844 11.253906 C 11.234375 11.289062 11.75 11.324219 12.269531 11.359375 L 12.386719 11.367188 L 12.683594 13.769531 L 12.503906 13.746094 L 12.386719 13.734375 L 12.351562 13.730469 C 11.535156 13.648438 10.867188 13.59375 10.253906 13.558594 C 9.050781 13.507812 8.328125 13.460938 7.214844 13.320312 L 7.09375 13.304688 L 7.089844 13.183594 C 7.066406 12.28125 5.820312 12.171875 4.996094 12.101562 L 4.796875 12.082031 L 4.21875 12.046875 C 3.519531 12 2.800781 11.953125 2.097656 11.953125 C 1.9375 11.953125 1.78125 11.957031 1.625 11.960938 C 1.21875 11.976562 0.933594 12.226562 0.882812 12.609375 C 0.777344 13.40625 0.714844 14.230469 0.648438 15.023438 C 0.613281 15.46875 0.578125 15.914062 0.535156 16.355469 C 0.503906 16.691406 0.46875 17.023438 0.4375 17.359375 C 0.355469 18.164062 0.273438 18.992188 0.214844 19.8125 C 0.160156 20.617188 0.34375 21.140625 0.804688 21.460938 C 1.117188 21.679688 1.621094 21.726562 2.066406 21.769531 L 2.265625 21.789062 C 2.660156 21.855469 3.148438 21.941406 3.601562 21.941406 C 3.6875 21.941406 3.777344 21.9375 3.886719 21.929688 L 4.1875 21.953125 C 4.433594 21.976562 4.710938 22.003906 4.984375 22.003906 C 5.792969 22.003906 6.210938 21.777344 6.335938 21.269531 L 6.367188 21.140625 L 6.496094 21.164062 C 6.496094 21.164062 6.570312 21.175781 6.589844 21.179688 L 6.675781 21.195312 L 6.699219 21.28125 C 6.726562 21.382812 6.746094 21.476562 6.765625 21.550781 C 7.503906 24.59375 10.546875 34.738281 18.582031 37.492188 C 18.988281 37.625 19.402344 37.738281 19.808594 37.820312 L 19.929688 37.847656 L 19.921875 37.96875 C 19.890625 38.546875 19.851562 39.125 19.8125 39.703125 C 19.773438 40.351562 19.730469 41.003906 19.695312 41.652344 L 19.691406 41.710938 L 19.652344 41.746094 C 15.152344 46.226562 13.316406 52.75 12 59.136719 C 11.328125 62.386719 10.847656 65.683594 10.382812 68.871094 C 10.355469 69.078125 10.3125 69.292969 10.273438 69.503906 C 10.1875 69.96875 10.09375 70.449219 10.105469 70.894531 C 10.121094 71.449219 10.289062 71.878906 10.636719 72.234375 C 11.300781 72.914062 12.371094 73.21875 13.335938 73.429688 L 13.457031 73.457031 L 13.445312 73.582031 C 13.339844 74.765625 13.285156 75.675781 13.269531 76.523438 C 13.207031 79.511719 13.496094 82.542969 13.777344 85.476562 L 13.816406 85.851562 L 13.777344 85.894531 C 13.628906 86.074219 13.605469 86.425781 13.585938 86.703125 C 13.585938 86.765625 13.578125 86.824219 13.574219 86.878906 C 13.425781 88.453125 13.449219 90.074219 13.472656 91.640625 L 13.484375 92.339844 C 13.523438 96 13.660156 99.652344 13.777344 102.421875 L 13.832031 103.699219 C 13.835938 103.808594 13.839844 103.917969 13.847656 104.035156 L 13.847656 104.0625 L 13.566406 104.085938 C 13.570312 104.113281 13.609375 104.164062 13.675781 104.164062 L 13.714844 104.15625 C 13.703125 104.164062 13.6875 104.175781 13.667969 104.191406 C 13.625 104.222656 13.566406 104.261719 13.496094 104.300781 C 13.296875 104.414062 13.097656 104.527344 12.898438 104.640625 C 12.511719 104.851562 10.542969 105.941406 9.761719 106.550781 C 8.402344 107.601562 7.601562 108.535156 7.476562 109.191406 C 7.5 109.1875 7.519531 109.183594 7.542969 109.183594 L 7.574219 109.183594 L 7.476562 109.191406 C 7.46875 109.355469 7.53125 109.589844 7.578125 109.726562 L 8.691406 109.75 L 7.585938 109.75 C 7.714844 109.910156 7.929688 110.003906 8.183594 110.003906 C 8.320312 110.003906 8.804688 110.003906 9.519531 110.007812 L 10.183594 110.019531 C 14.082031 110.078125 18.113281 110.140625 22.078125 110.15625 C 22.078125 110.15625 22.34375 110.160156 22.390625 110.160156 C 22.589844 110.160156 22.6875 110.136719 22.761719 110.070312 L 22.78125 110.0625 L 22.792969 110.046875 C 22.847656 109.988281 22.894531 109.914062 22.933594 109.8125 C 22.945312 109.792969 22.953125 109.773438 22.960938 109.75 L 23.136719 109.191406 C 23.292969 108.546875 23.335938 107.765625 23.265625 106.8125 C 23.238281 105.492188 23.011719 104.6875 22.996094 104.640625 L 22.90625 104.644531 L 22.890625 104.515625 C 22.839844 104.148438 22.839844 103.871094 22.898438 103.640625 C 23 103.277344 23.097656 102.90625 23.199219 102.539062 L 23.257812 102.3125 C 24.316406 98.3125 25.082031 95.21875 25.742188 92.273438 C 26.109375 90.628906 26.429688 89.144531 26.640625 87.617188 C 26.648438 87.566406 26.660156 87.492188 26.675781 87.40625 C 26.734375 87.066406 26.832031 86.492188 26.761719 86.117188 L 26.761719 86.078125 C 27.121094 82.480469 27.964844 75.230469 27.972656 75.160156 L 27.988281 75.035156 L 28.140625 75.035156 L 28.492188 75.050781 L 28.53125 75.113281 C 28.644531 75.296875 28.964844 75.792969 29.136719 75.960938 C 29.769531 76.261719 30.570312 76.3125 31.269531 76.339844 L 31.378906 76.34375 L 31.402344 76.453125 C 31.734375 77.96875 32 79.128906 32.265625 80.214844 C 33.019531 83.351562 33.898438 86.683594 35.191406 89.796875 L 35.199219 89.816406 L 35.203125 89.839844 C 35.304688 91.207031 38.550781 100.703125 40.695312 105.605469 L 40.75 105.722656 L 40.578125 105.820312 C 40.449219 105.894531 40.246094 106.003906 40.011719 106.144531 L 39.875 106.222656 C 39.847656 106.234375 37.46875 107.53125 36.578125 108.21875 C 34.890625 109.53125 34.046875 110.65625 34.265625 111.3125 C 34.355469 111.574219 34.617188 111.726562 34.972656 111.726562 L 35.5625 111.726562 L 35.707031 111.734375 L 35.707031 111.738281 L 35.734375 111.738281 C 35.792969 111.738281 45.816406 111.898438 49.753906 111.898438 L 49.757812 111.898438 C 49.820312 111.882812 50.363281 111.699219 50.355469 109.105469 C 50.355469 108.988281 50.363281 108.871094 50.363281 108.746094 L 50.359375 108.636719 "/></g><g clip-rule="nonzero" clip-path="url(#caea0a150c)"><path style=" stroke:none;fill-rule:nonzero;fill:#100f0d;fill-opacity:1;" d="M 49.996094 111.316406 L 34.472656 111.316406 C 34.394531 111.316406 34.332031 111.253906 34.332031 111.171875 C 34.332031 111.09375 34.394531 111.03125 34.472656 111.03125 L 49.996094 111.03125 C 50.074219 111.03125 50.136719 111.09375 50.136719 111.171875 C 50.136719 111.253906 50.074219 111.316406 49.996094 111.316406 Z M 37.59375 108.925781 C 37.933594 109.066406 38.242188 109.191406 38.597656 109.335938 C 38.5 109.523438 38.449219 109.628906 38.375 109.765625 C 38.238281 109.667969 38.128906 109.589844 38.023438 109.515625 C 37.949219 109.628906 37.890625 109.71875 37.847656 109.789062 C 37.636719 109.632812 37.523438 109.546875 37.351562 109.417969 C 37.441406 109.230469 37.507812 109.105469 37.59375 108.925781 Z M 39.140625 107.984375 L 39.195312 108.128906 C 39.109375 108.234375 39.035156 108.40625 38.890625 108.089844 C 38.976562 108.058594 39.058594 108.019531 39.140625 107.984375 Z M 44.714844 109.953125 C 44.601562 110.328125 44.480469 110.265625 44.234375 110.03125 C 44.445312 109.996094 44.554688 109.980469 44.714844 109.953125 Z M 46.257812 109.316406 C 46.09375 109.535156 46.003906 109.65625 45.855469 109.855469 C 45.761719 109.441406 45.890625 109.359375 46.257812 109.316406 Z M 49.71875 109.878906 C 49.535156 109.964844 49.40625 110.027344 49.273438 110.089844 C 49.246094 110.039062 49.21875 109.984375 49.191406 109.929688 C 49.304688 109.867188 49.417969 109.792969 49.535156 109.742188 C 49.558594 109.726562 49.617188 109.796875 49.71875 109.878906 Z M 40.820312 105.851562 L 40.933594 105.789062 L 40.882812 105.667969 C 39.316406 102.132812 37.351562 96.625 36.230469 93.089844 C 38.207031 92.386719 40.246094 91.878906 42.296875 91.46875 C 44.304688 91.066406 46.359375 90.742188 48.410156 90.722656 C 48.683594 93.21875 48.996094 96.605469 49.269531 99.582031 C 49.464844 101.722656 49.648438 103.75 49.8125 105.382812 L 49.894531 106.144531 C 49.363281 106.179688 48.84375 106.265625 48.335938 106.347656 L 48.210938 106.371094 C 47.386719 106.507812 47.066406 106.597656 46.425781 107.164062 C 46.089844 107.457031 45.886719 107.839844 45.691406 108.214844 L 45.578125 108.421875 C 45.410156 108.742188 45.125 109.265625 44.3125 109.304688 C 44.246094 109.097656 44.046875 108.625 43.558594 108.015625 C 42.394531 106.566406 41.070312 106.191406 40.382812 106.097656 C 40.644531 105.945312 40.816406 105.851562 40.820312 105.851562 Z M 35.726562 91.4375 C 39.671875 89.976562 43.996094 89.058594 48.207031 89.019531 C 48.261719 89.441406 48.316406 89.917969 48.378906 90.4375 C 46.457031 90.460938 44.542969 90.757812 42.660156 91.109375 C 40.457031 91.519531 38.261719 92.066406 36.144531 92.820312 C 35.984375 92.308594 35.84375 91.84375 35.726562 91.4375 Z M 35.34375 89.84375 C 35.347656 89.832031 35.34375 89.820312 35.339844 89.808594 C 35.339844 89.796875 35.347656 89.761719 35.40625 89.699219 C 36.378906 88.671875 44.535156 87.042969 47.136719 87.042969 C 47.75 87.042969 47.859375 87.128906 47.867188 87.136719 C 47.871094 87.148438 47.878906 87.160156 47.882812 87.167969 C 47.960938 87.351562 48.0625 87.914062 48.171875 88.734375 C 43.945312 88.777344 39.605469 89.695312 35.648438 91.164062 C 35.472656 90.527344 35.363281 90.070312 35.34375 89.84375 Z M 32.398438 80.175781 C 32.097656 78.953125 31.820312 77.726562 31.558594 76.496094 C 31.75 76.5 31.941406 76.503906 32.125 76.515625 C 34.28125 76.644531 36.457031 76.578125 38.609375 76.421875 C 40.714844 76.265625 42.808594 75.980469 44.878906 75.578125 C 45.582031 75.441406 46.332031 75.363281 46.957031 75.101562 C 47.054688 79.023438 47.285156 82.945312 47.820312 86.820312 C 47.675781 86.78125 47.464844 86.757812 47.136719 86.757812 C 44.371094 86.757812 36.34375 88.367188 35.21875 89.488281 C 34 86.484375 33.164062 83.320312 32.398438 80.175781 Z M 32.6875 45.957031 C 32.667969 45.988281 32.648438 46.019531 32.628906 46.054688 C 32.554688 46.050781 32.480469 46.042969 32.378906 46.035156 C 32.398438 45.925781 32.410156 45.851562 32.433594 45.699219 C 32.550781 45.816406 32.617188 45.882812 32.6875 45.957031 Z M 33.894531 71.652344 C 33.761719 71.785156 33.675781 71.875 33.574219 71.972656 C 33.488281 71.890625 33.425781 71.835938 33.359375 71.773438 C 33.46875 71.527344 33.621094 71.503906 33.894531 71.652344 Z M 34.859375 68.636719 C 34.75 68.730469 34.6875 68.78125 34.625 68.839844 C 34.394531 68.746094 34.289062 68.617188 34.421875 68.292969 C 34.585938 68.417969 34.707031 68.515625 34.859375 68.636719 Z M 35.585938 75.082031 C 35.523438 75.328125 35.523438 75.328125 35.28125 75.238281 C 35.371094 75.191406 35.460938 75.144531 35.585938 75.082031 Z M 34.871094 61.28125 C 35.042969 61.433594 35.117188 61.5 35.21875 61.585938 C 35.140625 61.667969 35.089844 61.722656 34.953125 61.859375 C 34.921875 61.636719 34.90625 61.523438 34.871094 61.28125 Z M 34.945312 65.046875 C 34.988281 65.042969 35.035156 65.039062 35.074219 65.035156 C 35.140625 65.148438 35.203125 65.261719 35.292969 65.417969 C 35.167969 65.46875 35.074219 65.503906 34.902344 65.574219 C 34.921875 65.347656 34.929688 65.195312 34.945312 65.046875 Z M 36.980469 49.316406 C 36.863281 49.445312 36.789062 49.519531 36.714844 49.601562 C 36.671875 49.550781 36.632812 49.527344 36.632812 49.503906 C 36.644531 49.339844 36.707031 49.238281 36.980469 49.316406 Z M 38.410156 47.359375 C 38.457031 47.421875 38.5 47.488281 38.5625 47.574219 C 38.464844 47.664062 38.382812 47.734375 38.253906 47.855469 C 38.144531 47.5625 38.183594 47.433594 38.410156 47.359375 Z M 38.152344 46.597656 C 38.105469 46.582031 38.058594 46.566406 38.011719 46.550781 C 37.933594 46.371094 37.921875 46.21875 38.269531 46.15625 C 38.21875 46.34375 38.1875 46.46875 38.152344 46.597656 Z M 37.820312 54.535156 C 37.859375 54.304688 37.859375 54.304688 38.1875 54.335938 C 38.003906 54.4375 37.921875 54.480469 37.820312 54.535156 Z M 38.042969 69.511719 C 37.984375 69.671875 37.945312 69.78125 37.898438 69.917969 C 37.640625 69.757812 37.503906 69.609375 37.707031 69.292969 C 37.820312 69.367188 37.914062 69.425781 38.042969 69.511719 Z M 37.882812 61.734375 C 37.933594 61.570312 37.972656 61.441406 38.050781 61.199219 C 38.238281 61.65625 38.238281 61.65625 37.882812 61.734375 Z M 39.199219 42.289062 C 39.148438 42.398438 39.109375 42.472656 39.046875 42.609375 C 38.984375 42.472656 38.953125 42.402344 38.886719 42.25 C 39.039062 42.269531 39.09375 42.277344 39.199219 42.289062 Z M 29.421875 43.25 C 26.839844 43.480469 24.019531 43.589844 21.53125 42.722656 C 20.988281 42.53125 20.160156 42.207031 19.832031 41.664062 C 19.847656 41.398438 19.859375 41.128906 19.878906 40.859375 C 19.941406 39.695312 20.003906 38.527344 20.070312 37.359375 C 20.234375 37.492188 20.398438 37.621094 20.566406 37.75 C 20.59375 37.769531 20.625 37.792969 20.652344 37.816406 C 20.621094 37.8125 20.589844 37.808594 20.554688 37.800781 L 20.492188 38.082031 C 20.703125 38.109375 20.910156 38.132812 21.113281 38.144531 C 22.300781 38.964844 23.625 39.621094 25.097656 40.035156 C 26.011719 40.277344 26.925781 40.402344 27.816406 40.402344 C 29.3125 40.402344 30.652344 40.058594 31.789062 39.386719 C 33.019531 38.664062 34.019531 37.578125 34.992188 36.527344 L 35.226562 36.277344 C 36.140625 35.289062 36.878906 34.402344 37.503906 33.550781 C 37.523438 33.539062 37.535156 33.519531 37.542969 33.496094 C 37.953125 32.929688 38.308594 32.378906 38.632812 31.824219 C 38.707031 31.691406 38.78125 31.554688 38.851562 31.417969 C 39.265625 34.382812 39.75 37.339844 40.347656 40.261719 C 40.355469 40.292969 40.367188 40.3125 40.386719 40.332031 C 39.652344 40.839844 38.769531 41.179688 37.945312 41.488281 C 35.226562 42.515625 32.308594 42.992188 29.421875 43.25 Z M 30.757812 47.949219 C 31.109375 47.984375 31.109375 47.984375 31.140625 48.351562 C 30.945312 48.285156 30.78125 48.207031 30.757812 47.949219 Z M 28.390625 47.824219 C 28.238281 47.746094 28.097656 47.675781 27.960938 47.605469 C 28.042969 47.371094 28.160156 47.3125 28.332031 47.394531 C 28.476562 47.46875 28.523438 47.582031 28.390625 47.824219 Z M 28.058594 52.492188 C 27.949219 52.425781 27.839844 52.363281 27.691406 52.28125 C 27.773438 52.164062 27.832031 52.078125 27.945312 51.910156 C 28.035156 52.136719 28.085938 52.28125 28.140625 52.425781 C 28.113281 52.449219 28.085938 52.46875 28.058594 52.492188 Z M 27.621094 48.675781 C 27.71875 48.652344 27.820312 48.625 27.933594 48.601562 C 27.960938 48.667969 28.007812 48.730469 27.996094 48.757812 C 27.945312 48.84375 27.882812 48.984375 27.8125 48.992188 C 27.648438 49.007812 27.597656 48.875 27.621094 48.675781 Z M 25.585938 68.496094 C 25.453125 68.457031 25.332031 68.417969 25.175781 68.375 C 25.199219 68.253906 25.21875 68.160156 25.234375 68.078125 C 25.296875 68.074219 25.34375 68.054688 25.359375 68.070312 C 25.457031 68.183594 25.6875 68.214844 25.585938 68.496094 Z M 24.417969 51.949219 C 24.570312 52.003906 24.703125 52.050781 24.875 52.113281 C 24.820312 52.25 24.78125 52.34375 24.730469 52.457031 C 24.496094 52.367188 24.363281 52.25 24.417969 51.949219 Z M 22.421875 45.902344 C 22.507812 45.785156 22.574219 45.703125 22.65625 45.589844 C 22.757812 45.699219 22.835938 45.777344 22.921875 45.871094 C 22.789062 46.101562 22.648438 46.09375 22.421875 45.902344 Z M 20.65625 44.03125 L 20.65625 44.042969 C 20.652344 44.039062 20.652344 44.039062 20.648438 44.039062 C 20.574219 44.1875 20.5 44.332031 20.410156 44.519531 C 20.128906 44.25 20.265625 44.078125 20.390625 43.855469 C 20.496094 43.929688 20.574219 43.984375 20.648438 44.039062 L 20.648438 44.035156 C 20.652344 44.035156 20.652344 44.035156 20.65625 44.03125 C 20.671875 43.878906 20.691406 43.726562 20.710938 43.507812 C 20.878906 43.613281 21.007812 43.699219 21.152344 43.789062 C 21.0625 44.101562 20.824219 43.976562 20.65625 44.03125 Z M 21.660156 68.183594 C 21.511719 68.25 21.398438 68.300781 21.265625 68.359375 C 21.167969 68.0625 21.300781 67.988281 21.46875 67.902344 C 21.527344 67.988281 21.574219 68.054688 21.660156 68.183594 Z M 20.988281 54.570312 C 21.191406 54.304688 21.34375 54.476562 21.558594 54.660156 C 21.277344 54.769531 21.277344 54.769531 20.988281 54.570312 Z M 27.832031 75.171875 C 27.515625 78.6875 27.023438 82.191406 26.660156 85.695312 C 26.65625 85.695312 26.65625 85.695312 26.652344 85.695312 C 26.644531 85.691406 26.640625 85.683594 26.632812 85.683594 C 26.085938 85.507812 25.4375 85.539062 24.875 85.511719 C 23.765625 85.464844 22.65625 85.457031 21.546875 85.457031 C 19.308594 85.457031 17.066406 85.472656 14.835938 85.613281 C 14.640625 85.625 14.234375 85.59375 13.941406 85.664062 C 13.664062 82.707031 13.382812 79.75 13.40625 76.777344 C 13.410156 75.726562 13.484375 74.675781 13.574219 73.628906 C 14.019531 73.71875 14.449219 73.792969 14.828125 73.875 C 19.085938 74.796875 23.480469 75.132812 27.832031 75.171875 Z M 26.570312 87.035156 C 26.539062 87.375 26.492188 87.710938 26.441406 88.046875 C 22.203125 87.5 17.910156 87.835938 13.652344 87.757812 C 13.675781 87.257812 13.699219 86.757812 13.792969 86.273438 C 13.875 85.847656 14.175781 85.945312 14.582031 85.914062 C 16.746094 85.746094 18.929688 85.746094 21.097656 85.742188 C 22.242188 85.738281 23.386719 85.746094 24.535156 85.785156 C 25.167969 85.804688 25.917969 85.757812 26.53125 85.953125 C 26.71875 86.070312 26.582031 86.878906 26.570312 87.035156 Z M 26.183594 89.484375 C 26.164062 89.574219 26.144531 89.664062 26.128906 89.75 C 21.984375 89.21875 17.785156 89.539062 13.617188 89.457031 C 13.621094 89.015625 13.628906 88.574219 13.644531 88.128906 C 13.644531 88.097656 13.644531 88.070312 13.644531 88.039062 C 17.890625 88.121094 22.171875 87.789062 26.394531 88.324219 C 26.328125 88.714844 26.257812 89.101562 26.183594 89.484375 Z M 24.710938 96.058594 C 24.230469 98.019531 23.722656 99.980469 23.207031 101.941406 C 22.972656 102.835938 22.664062 103.601562 22.800781 104.511719 C 22.289062 104.546875 21.777344 104.628906 21.28125 104.710938 L 21.160156 104.730469 C 20.351562 104.867188 20.039062 104.960938 19.40625 105.511719 C 19.082031 105.796875 18.878906 106.175781 18.6875 106.539062 L 18.574219 106.746094 C 18.410156 107.054688 18.136719 107.566406 17.34375 107.609375 C 17.273438 107.40625 17.082031 106.941406 16.605469 106.347656 C 15.460938 104.925781 14.164062 104.554688 13.488281 104.460938 C 13.632812 104.386719 13.777344 104.304688 13.917969 104.230469 C 13.960938 104.207031 13.992188 104.15625 13.988281 104.105469 C 13.839844 100.886719 13.730469 97.664062 13.65625 94.441406 C 13.625 92.875 13.59375 91.3125 13.609375 89.742188 C 17.761719 89.820312 21.941406 89.503906 26.074219 90.03125 C 25.671875 92.050781 25.199219 94.058594 24.710938 96.058594 Z M 14.660156 107.820312 C 14.574219 107.8125 14.496094 107.640625 14.433594 107.523438 C 14.417969 107.496094 14.476562 107.417969 14.511719 107.332031 C 14.652344 107.367188 14.777344 107.398438 14.898438 107.429688 C 14.929688 107.667969 14.867188 107.839844 14.660156 107.820312 Z M 14.019531 105.839844 C 14.226562 105.738281 14.375 105.804688 14.476562 106.097656 C 14.304688 106.1875 14.132812 106.273438 13.9375 106.367188 C 13.777344 106.070312 13.835938 105.929688 14.019531 105.839844 Z M 13.023438 69.496094 C 13 69.335938 12.980469 69.195312 12.953125 69.011719 C 13.210938 69.074219 13.328125 69.1875 13.339844 69.484375 C 13.214844 69.488281 13.125 69.496094 13.023438 69.496094 Z M 13.15625 56.871094 C 13.359375 56.929688 13.523438 56.980469 13.730469 57.042969 C 13.511719 57.375 13.269531 57.304688 12.933594 57.285156 C 13.035156 57.097656 13.09375 56.988281 13.15625 56.871094 Z M 14.074219 51.785156 C 14.082031 51.792969 14.089844 51.804688 14.101562 51.8125 C 14.082031 51.828125 14.066406 51.835938 14.050781 51.851562 C 14.058594 51.828125 14.0625 51.804688 14.074219 51.785156 Z M 16.613281 49.738281 C 16.683594 49.914062 16.722656 50.011719 16.777344 50.15625 C 16.636719 50.175781 16.546875 50.1875 16.449219 50.203125 C 16.425781 50.167969 16.402344 50.128906 16.378906 50.09375 C 16.445312 49.996094 16.507812 49.898438 16.613281 49.738281 Z M 18.179688 71.046875 C 18.222656 71.253906 18.113281 71.328125 17.910156 71.34375 C 17.890625 71.199219 17.871094 71.058594 17.855469 70.933594 C 18.035156 70.828125 18.140625 70.875 18.179688 71.046875 Z M 18.628906 37.359375 C 10.664062 34.628906 7.640625 24.542969 6.902344 21.515625 C 6.890625 21.472656 6.878906 21.417969 6.863281 21.363281 C 7.054688 21.390625 7.253906 21.414062 7.460938 21.441406 C 7.453125 21.460938 7.453125 21.484375 7.460938 21.511719 C 7.582031 21.941406 8.316406 22.421875 8.402344 22.480469 C 8.703125 22.664062 9.332031 22.757812 10.265625 22.757812 C 10.878906 22.757812 11.464844 22.71875 11.707031 22.699219 C 11.8125 23.066406 12.140625 24.21875 12.289062 24.707031 C 12.984375 26.980469 15.226562 33.234375 19.824219 37.15625 C 19.816406 37.328125 19.808594 37.5 19.796875 37.671875 C 19.410156 37.589844 19.019531 37.488281 18.628906 37.359375 Z M 6.386719 21.003906 L 6.378906 21.003906 C 6.300781 20.996094 6.238281 21.042969 6.226562 21.117188 C 6.222656 21.125 6.226562 21.128906 6.226562 21.132812 C 6.226562 21.136719 6.222656 21.140625 6.222656 21.144531 C 6.128906 21.886719 5.296875 21.910156 4.613281 21.855469 C 4.671875 21.816406 4.730469 21.777344 4.78125 21.730469 C 5.242188 21.304688 5.347656 20.710938 5.417969 20.109375 C 5.554688 18.929688 5.632812 17.742188 5.742188 16.5625 C 5.84375 15.433594 5.945312 14.304688 6.054688 13.175781 C 6.097656 12.773438 5.941406 12.488281 5.640625 12.300781 C 6.296875 12.394531 6.984375 12.609375 6.953125 13.277344 L 6.953125 13.28125 C 6.953125 13.28125 6.949219 13.285156 6.949219 13.285156 C 6.941406 13.367188 6.996094 13.4375 7.070312 13.445312 C 7.074219 13.445312 7.078125 13.445312 7.078125 13.449219 C 7.871094 13.550781 8.46875 13.605469 9.132812 13.648438 C 9.074219 13.625 9.035156 13.566406 9.039062 13.5 C 9.042969 13.464844 9.0625 13.429688 9.089844 13.40625 C 9.0625 13.429688 9.046875 13.464844 9.042969 13.5 C 9.035156 13.566406 9.074219 13.625 9.132812 13.644531 C 9.144531 13.648438 9.15625 13.65625 9.167969 13.65625 C 9.804688 13.714844 10.339844 15.3125 10.128906 17.59375 C 10.125 17.625 10.121094 17.65625 10.117188 17.691406 C 10.039062 17.734375 9.976562 17.804688 9.929688 17.902344 C 9.765625 18.273438 9.792969 18.605469 9.921875 18.898438 C 9.976562 19.023438 10.046875 19.140625 10.128906 19.246094 C 10.410156 19.617188 10.824219 19.910156 11.113281 20.117188 C 11.179688 20.160156 11.238281 20.203125 11.292969 20.246094 C 11.191406 20.238281 11.09375 20.234375 11.007812 20.226562 C 10.554688 20.191406 10.242188 20.160156 9.722656 20.398438 C 9.878906 20.0625 10.015625 19.671875 10.128906 19.246094 C 10.046875 19.140625 9.976562 19.023438 9.921875 18.898438 C 9.804688 19.421875 9.648438 19.898438 9.457031 20.289062 C 9.394531 20.425781 9.328125 20.542969 9.257812 20.652344 C 9.175781 20.707031 9.113281 20.753906 9.0625 20.796875 C 8.886719 20.925781 8.777344 21.007812 8.007812 21.214844 C 7.414062 21.152344 6.867188 21.082031 6.386719 21.003906 Z M 2.378906 18.914062 L 2.378906 19.011719 L 2.121094 19.011719 L 2.121094 18.878906 C 2.207031 18.890625 2.296875 18.902344 2.378906 18.914062 Z M 3.769531 15.667969 C 3.914062 15.769531 4 15.828125 4.164062 15.945312 C 3.996094 16.03125 3.917969 16.066406 3.792969 16.128906 C 3.789062 15.964844 3.78125 15.855469 3.769531 15.667969 Z M 4.191406 19.199219 C 4.195312 19.355469 4.195312 19.488281 4.199219 19.6875 C 4.042969 19.625 3.929688 19.585938 3.808594 19.535156 C 3.75 19.605469 3.667969 19.691406 3.554688 19.8125 C 3.28125 19.347656 3.730469 19.320312 3.765625 19.054688 C 3.929688 19.109375 4.046875 19.148438 4.191406 19.199219 Z M 4.753906 14.773438 C 4.820312 14.554688 4.867188 14.398438 4.949219 14.148438 C 5.070312 14.414062 5.15625 14.601562 5.242188 14.792969 C 5.21875 14.835938 5.195312 14.882812 5.167969 14.925781 C 5.035156 14.878906 4.902344 14.828125 4.753906 14.773438 Z M 5.089844 20.492188 C 5.082031 20.539062 5.074219 20.589844 5.0625 20.636719 C 4.933594 20.675781 4.8125 20.710938 4.664062 20.753906 C 4.808594 20.367188 4.859375 20.304688 5.089844 20.492188 Z M 4.398438 15.691406 C 4.480469 15.800781 4.558594 15.917969 4.664062 16.0625 C 4.351562 16.0625 4.351562 16.0625 4.398438 15.691406 Z M 4.707031 17.105469 C 4.605469 17.085938 4.503906 17.066406 4.328125 17.027344 C 4.523438 16.832031 4.625 16.851562 4.707031 17.105469 Z M 3.820312 21.78125 C 3.28125 21.742188 2.742188 21.707031 2.203125 21.636719 C 1.96875 21.59375 1.753906 21.558594 1.589844 21.539062 C 1.585938 21.539062 1.585938 21.539062 1.582031 21.539062 C 1.464844 21.515625 1.34375 21.492188 1.222656 21.460938 C 0.351562 21.242188 0.3125 20.386719 0.367188 19.632812 C 0.441406 18.621094 0.554688 17.605469 0.652344 16.597656 C 0.742188 15.65625 0.832031 14.71875 0.914062 13.78125 C 0.960938 13.296875 0.847656 12.367188 1.410156 12.136719 C 1.609375 12.054688 1.917969 12.101562 2.125 12.105469 C 2.242188 12.105469 2.355469 12.113281 2.472656 12.117188 C 3.269531 12.1875 4.066406 12.261719 4.859375 12.375 C 5.019531 12.394531 5.183594 12.421875 5.339844 12.460938 C 5.691406 12.550781 5.78125 12.804688 5.78125 13.085938 C 5.425781 13.0625 3.21875 12.925781 2.832031 12.960938 C 2.40625 12.996094 2.304688 13.316406 2.285156 13.546875 C 2.121094 15.449219 1.957031 17.042969 1.78125 18.941406 C 1.730469 19.480469 1.6875 20.210938 2.222656 20.519531 C 2.527344 20.691406 3.453125 20.800781 4.179688 20.863281 C 4.238281 20.792969 4.296875 20.710938 4.390625 20.589844 C 4.4375 20.730469 4.464844 20.804688 4.496094 20.890625 C 4.695312 20.90625 4.863281 20.917969 4.976562 20.925781 C 4.90625 21.101562 4.820312 21.269531 4.699219 21.417969 C 4.511719 21.652344 4.191406 21.753906 3.820312 21.78125 Z M 9.550781 13.519531 C 9.457031 13.453125 9.359375 13.40625 9.253906 13.386719 C 9.359375 13.40625 9.457031 13.449219 9.550781 13.519531 Z M 12.359375 13.875 C 13.042969 13.945312 13.445312 15.699219 13.253906 17.792969 C 13.207031 18.3125 13.125 18.808594 13.011719 19.265625 C 12.84375 19.179688 12.679688 19.09375 12.523438 19.019531 C 12.089844 18.804688 11.6875 18.605469 11.433594 18.402344 C 11.40625 18.378906 11.367188 18.34375 11.320312 18.296875 C 11.320312 18.292969 11.316406 18.292969 11.316406 18.292969 C 11.304688 18.28125 11.296875 18.273438 11.285156 18.261719 C 11.296875 18.273438 11.304688 18.28125 11.316406 18.289062 C 11.316406 18.292969 11.320312 18.296875 11.320312 18.296875 L 12.5625 18.414062 C 12.566406 18.414062 12.570312 18.414062 12.574219 18.414062 C 12.648438 18.414062 12.707031 18.359375 12.714844 18.285156 C 12.722656 18.207031 12.664062 18.136719 12.585938 18.128906 L 10.976562 17.980469 C 10.984375 17.984375 10.992188 17.992188 11 18 C 10.992188 17.992188 10.984375 17.984375 10.976562 17.980469 C 10.785156 17.816406 10.589844 17.6875 10.40625 17.648438 C 10.410156 17.640625 10.410156 17.628906 10.410156 17.621094 C 10.578125 15.828125 10.285156 14.304688 9.726562 13.679688 C 9.894531 13.683594 10.0625 13.691406 10.246094 13.699219 C 10.949219 13.742188 11.660156 13.800781 12.359375 13.875 Z M 8.777344 10.980469 C 8.089844 10.933594 7.746094 10.660156 7.359375 10.101562 C 7 9.578125 6.390625 9.460938 5.855469 9.195312 C 5.578125 9.058594 5.527344 8.714844 5.550781 8.371094 L 10.5 8.96875 C 10.503906 8.96875 10.511719 8.972656 10.515625 8.972656 C 11.480469 9.085938 12.4375 9.199219 13.398438 9.3125 C 14.042969 9.386719 14.691406 9.460938 15.335938 9.53125 C 15.507812 9.546875 15.683594 9.566406 15.855469 9.578125 C 16.238281 9.609375 16.164062 10.15625 16.117188 10.429688 C 16.101562 10.523438 16.15625 10.605469 16.253906 10.609375 C 19.550781 10.796875 22.851562 10.980469 26.152344 11.167969 C 25.695312 11.324219 25.324219 11.5625 25.066406 11.886719 C 24.855469 12.15625 24.730469 12.441406 24.679688 12.757812 C 24.648438 12.953125 24.660156 13.242188 24.722656 13.53125 C 24.59375 13.523438 24.464844 13.511719 24.339844 13.5 C 24.09375 13.480469 23.847656 13.460938 23.597656 13.441406 C 23.519531 13.4375 23.441406 13.429688 23.359375 13.425781 C 23.265625 12.964844 23.167969 12.503906 23.074219 12.042969 C 23.0625 11.980469 23 11.941406 22.941406 11.9375 C 19.46875 11.707031 16 11.46875 12.53125 11.234375 C 11.28125 11.148438 10.027344 11.066406 8.777344 10.980469 Z M 6.046875 10.644531 C 5.582031 10.550781 5.421875 10.300781 5.234375 10.011719 C 5.085938 9.78125 4.914062 9.519531 4.5625 9.332031 C 4.332031 9.210938 4.128906 9.132812 3.953125 9.0625 C 3.414062 8.851562 3.230469 8.78125 3.3125 8.0625 C 3.320312 7.828125 3.382812 7.1875 3.613281 6.976562 C 3.660156 6.933594 3.703125 6.914062 3.761719 6.917969 C 4.601562 6.988281 5.199219 7.042969 5.65625 7.09375 C 5.402344 7.332031 5.332031 7.789062 5.296875 8.1875 C 5.296875 8.191406 5.296875 8.195312 5.292969 8.195312 C 5.292969 8.199219 5.296875 8.203125 5.296875 8.207031 C 5.285156 8.324219 5.28125 8.429688 5.273438 8.527344 C 5.242188 8.925781 5.378906 9.238281 5.714844 9.441406 C 5.957031 9.585938 6.257812 9.667969 6.515625 9.78125 C 6.972656 9.980469 7.160156 10.34375 7.445312 10.722656 C 7.476562 10.761719 7.511719 10.800781 7.550781 10.835938 Z M 9.386719 7.574219 C 9.625 7.609375 9.859375 7.652344 10.089844 7.71875 C 10.429688 7.824219 10.4375 8.339844 10.398438 8.671875 L 5.582031 8.085938 C 5.601562 7.953125 5.628906 7.828125 5.652344 7.722656 C 5.8125 6.988281 6.542969 7.246094 7.09375 7.300781 C 7.859375 7.375 8.625 7.457031 9.386719 7.574219 Z M 21.308594 6.0625 C 22.089844 4.308594 24.085938 1.964844 26.226562 2.648438 C 26.398438 2.703125 26.472656 2.429688 26.296875 2.371094 C 26.269531 2.363281 26.242188 2.359375 26.214844 2.355469 C 28.632812 0.269531 31.59375 0.398438 34.226562 2.019531 C 36.164062 3.210938 37.503906 5.1875 37.976562 7.410156 C 38.769531 11.109375 37.082031 15.019531 34.363281 17.546875 C 34.332031 17.558594 34.308594 17.582031 34.292969 17.613281 C 33.898438 17.972656 33.484375 18.304688 33.050781 18.601562 C 32.960938 18.664062 32.976562 18.777344 33.035156 18.832031 C 33.011719 18.855469 33 18.890625 33.007812 18.929688 C 33.058594 19.347656 33.023438 19.941406 33.207031 20.324219 C 33.3125 20.539062 33.453125 20.726562 33.613281 20.894531 C 32.953125 21.695312 31.839844 22.074219 30.867188 22.285156 C 29.867188 22.503906 28.535156 22.566406 27.699219 21.863281 C 27.734375 21.828125 27.769531 21.796875 27.804688 21.761719 C 27.945312 21.597656 27.992188 21.410156 27.996094 21.21875 C 28.019531 21.210938 28.035156 21.199219 28.046875 21.191406 C 28.324219 21 28.550781 20.636719 28.65625 20.402344 C 28.679688 20.339844 28.703125 20.269531 28.722656 20.203125 C 29.734375 19.976562 30.824219 19.386719 31.566406 18.242188 C 31.605469 18.175781 31.589844 18.085938 31.523438 18.046875 C 31.464844 18.007812 31.386719 18.019531 31.34375 18.074219 C 31.339844 18.078125 31.332031 18.082031 31.328125 18.085938 C 30.140625 19.917969 28.207031 20.035156 27.699219 20.03125 C 27.691406 20.03125 27.683594 20.03125 27.675781 20.027344 L 27.640625 20.027344 C 27.453125 20.023438 27.285156 20.003906 27.152344 19.96875 C 26.960938 19.921875 26.777344 19.859375 26.59375 19.785156 C 26.601562 19.652344 26.601562 19.523438 26.601562 19.402344 C 26.613281 18.953125 26.613281 18.230469 26.605469 17.507812 C 26.605469 17.410156 26.605469 17.316406 26.601562 17.222656 C 26.59375 16.507812 26.582031 15.832031 26.554688 15.453125 C 26.710938 15.488281 26.878906 15.511719 27.070312 15.511719 C 27.4375 15.511719 27.847656 15.445312 28.261719 15.328125 C 29.105469 15.09375 29.953125 14.640625 30.457031 14.066406 C 30.59375 13.914062 30.710938 13.753906 30.789062 13.589844 C 31.003906 13.136719 30.972656 12.671875 30.710938 12.230469 C 30.664062 12.148438 30.609375 12.066406 30.546875 11.984375 C 30.105469 11.453125 28.890625 11.023438 27.714844 10.972656 L 27.703125 10.972656 C 26.292969 10.890625 24.882812 10.8125 23.472656 10.730469 C 23.320312 10.671875 23.167969 10.648438 23.015625 10.65625 C 22.953125 10.664062 22.890625 10.679688 22.832031 10.699219 C 22.714844 10.691406 22.605469 10.683594 22.492188 10.679688 C 22.488281 10.679688 22.480469 10.675781 22.476562 10.675781 C 22.480469 10.675781 22.484375 10.679688 22.488281 10.679688 C 22.496094 10.523438 22.507812 10.371094 22.523438 10.222656 C 22.527344 10.1875 22.527344 10.152344 22.53125 10.121094 C 22.53125 10.117188 22.53125 10.117188 22.53125 10.113281 C 22.53125 10.109375 22.53125 10.105469 22.53125 10.105469 C 22.5 8.605469 23.152344 6.738281 24.675781 6.234375 C 25.136719 7.546875 26.554688 8.4375 27.789062 8.898438 C 29.257812 9.445312 31.257812 9.816406 31.703125 11.59375 C 31.710938 11.621094 31.722656 11.640625 31.742188 11.660156 C 31.738281 11.667969 31.738281 11.679688 31.738281 11.691406 C 31.75 11.753906 31.808594 11.800781 31.875 11.789062 C 32.320312 11.722656 32.742188 11.941406 33.027344 12.386719 C 33.359375 12.902344 33.394531 13.5625 33.117188 13.996094 C 32.964844 14.230469 32.601562 14.433594 32.285156 14.457031 C 32.222656 14.460938 32.171875 14.519531 32.179688 14.585938 C 32.179688 14.625 32.207031 14.65625 32.238281 14.675781 C 32.238281 14.683594 32.238281 14.691406 32.238281 14.699219 C 32.363281 15.601562 32.222656 16.476562 31.714844 17.246094 C 31.617188 17.402344 31.859375 17.542969 31.960938 17.390625 C 32.503906 16.5625 32.640625 15.625 32.515625 14.660156 C 32.734375 14.601562 32.945312 14.492188 33.113281 14.351562 C 33.191406 14.285156 33.261719 14.207031 33.3125 14.125 C 33.644531 13.605469 33.609375 12.855469 33.226562 12.257812 C 32.921875 11.78125 32.460938 11.523438 31.976562 11.546875 C 31.972656 11.535156 31.976562 11.527344 31.972656 11.515625 C 31.152344 8.21875 26 9.359375 24.9375 6.128906 C 25.007812 6.039062 24.933594 5.867188 24.789062 5.902344 C 23.003906 6.332031 22.21875 8.414062 22.25 10.097656 C 22.230469 10.28125 22.214844 10.472656 22.207031 10.660156 C 21.605469 10.625 21.003906 10.59375 20.402344 10.5625 C 20.398438 9.023438 20.695312 7.445312 21.308594 6.0625 Z M 37.25 17.421875 C 37.644531 18.214844 38.210938 18.898438 38.847656 19.503906 C 40.414062 20.984375 42.308594 22.003906 43.742188 23.65625 C 45.082031 25.195312 45.75 27.214844 44.363281 28.960938 C 43.128906 30.519531 41.109375 30.398438 39.824219 29.019531 C 40.417969 26.917969 40.304688 24.898438 39.449219 23.3125 C 39.207031 22.859375 38.5 21.902344 38.03125 21.613281 C 38.027344 21.613281 38.027344 21.609375 38.027344 21.609375 C 38.027344 21.613281 38.03125 21.613281 38.03125 21.613281 C 38.015625 21.578125 37.988281 21.550781 37.945312 21.539062 C 37.894531 21.523438 37.84375 21.511719 37.792969 21.5 C 37.792969 21.5 37.792969 21.5 37.789062 21.5 C 37.667969 21.453125 37.601562 21.445312 37.519531 21.441406 C 37.144531 21.375 36.777344 21.359375 36.40625 21.359375 C 36.203125 21.359375 36 21.363281 35.792969 21.367188 C 34.851562 20.640625 34.554688 18.886719 34.5625 17.746094 C 35.289062 17.074219 35.929688 16.3125 36.480469 15.480469 C 36.574219 16.160156 36.957031 16.835938 37.25 17.421875 Z M 13.074219 13.785156 C 13.0625 13.78125 13.050781 13.777344 13.039062 13.769531 C 13.050781 13.777344 13.0625 13.78125 13.074219 13.785156 Z M 12.828125 13.707031 C 12.824219 13.707031 12.820312 13.710938 12.820312 13.710938 C 12.824219 13.710938 12.824219 13.707031 12.828125 13.707031 Z M 14.726562 13.824219 C 14.253906 13.78125 13.785156 13.734375 13.320312 13.6875 C 13.152344 13.667969 12.980469 13.652344 12.808594 13.632812 C 12.808594 13.648438 12.8125 13.660156 12.8125 13.671875 C 12.8125 13.660156 12.808594 13.644531 12.808594 13.632812 C 12.71875 12.925781 12.632812 12.222656 12.546875 11.519531 C 13.164062 11.5625 13.789062 11.605469 14.410156 11.644531 C 14.511719 12.375 14.617188 13.101562 14.726562 13.824219 C 14.726562 13.832031 14.730469 13.835938 14.730469 13.84375 C 14.730469 13.835938 14.726562 13.832031 14.726562 13.824219 Z M 20.582031 13.675781 C 18.921875 13.835938 17.429688 13.984375 17.34375 13.992188 C 16.566406 13.976562 15.785156 13.921875 15.011719 13.851562 C 15.007812 13.84375 15.011719 13.84375 15.011719 13.835938 C 14.917969 13.203125 14.824219 12.566406 14.734375 11.933594 C 15.324219 12.390625 16.1875 12.269531 16.828125 11.902344 C 17.398438 12.4375 18.269531 12.421875 18.914062 12.023438 C 19.261719 12.335938 19.789062 12.464844 20.285156 12.402344 C 20.359375 12.832031 20.457031 13.257812 20.582031 13.675781 Z M 22.433594 13.492188 C 21.917969 13.542969 21.375 13.597656 20.839844 13.648438 C 20.714844 13.222656 20.613281 12.792969 20.542969 12.347656 C 20.71875 12.300781 20.878906 12.230469 21.019531 12.128906 C 21.398438 12.429688 21.832031 12.5 22.273438 12.433594 C 22.3125 12.777344 22.363281 13.128906 22.433594 13.492188 Z M 22.714844 13.46875 C 22.644531 13.089844 22.589844 12.726562 22.550781 12.371094 C 22.648438 12.34375 22.742188 12.3125 22.835938 12.277344 C 22.847656 12.335938 22.859375 12.398438 22.871094 12.460938 C 22.941406 12.785156 23.007812 13.109375 23.074219 13.429688 C 22.957031 13.441406 22.835938 13.457031 22.714844 13.46875 Z M 24.222656 13.78125 C 24.214844 13.777344 24.210938 13.773438 24.203125 13.773438 L 24.222656 13.773438 C 24.222656 13.777344 24.222656 13.777344 24.222656 13.78125 Z M 25.023438 14.367188 C 25.027344 14.6875 24.757812 14.664062 24.679688 14.929688 C 24.597656 14.742188 24.566406 14.65625 24.515625 14.542969 C 24.691406 14.480469 24.835938 14.429688 25.023438 14.367188 Z M 26.308594 14.90625 C 26.082031 14.167969 25.8125 13.496094 25 13.289062 C 24.824219 13.242188 24.898438 12.96875 25.078125 13.011719 C 25.984375 13.246094 26.324219 13.992188 26.578125 14.832031 C 26.632812 15.007812 26.359375 15.082031 26.308594 14.90625 Z M 26.460938 19.519531 C 26.457031 19.683594 26.449219 19.847656 26.441406 20.015625 C 26.378906 20.085938 26.320312 20.15625 26.265625 20.222656 C 26.234375 20.203125 26.203125 20.191406 26.171875 20.171875 C 26.210938 19.960938 26.253906 19.746094 26.308594 19.472656 C 26.359375 19.488281 26.410156 19.503906 26.460938 19.519531 Z M 26.242188 19.371094 C 26.207031 19.339844 26.175781 19.308594 26.144531 19.277344 C 26.195312 19.199219 26.246094 19.121094 26.300781 19.042969 C 26.332031 19.066406 26.363281 19.089844 26.394531 19.117188 C 26.34375 19.199219 26.292969 19.285156 26.242188 19.371094 Z M 19.597656 26.152344 C 20.429688 26.238281 20.773438 27.050781 21.066406 27.738281 C 21.058594 27.765625 21.046875 27.796875 21.035156 27.828125 C 21.03125 27.835938 21.03125 27.84375 21.027344 27.851562 C 20.40625 27.378906 19.804688 26.917969 19.230469 26.453125 C 19.351562 26.347656 19.476562 26.25 19.597656 26.152344 Z M 23.125 23.410156 C 22.847656 23.765625 22.625 24.164062 22.414062 24.566406 C 21.9375 25.460938 21.542969 26.394531 21.203125 27.351562 C 20.917969 26.714844 20.554688 26.113281 19.882812 25.921875 C 21.613281 24.527344 22.695312 23.683594 23.039062 23.460938 C 23.066406 23.445312 23.097656 23.429688 23.125 23.410156 Z M 16.625 21.898438 C 16.675781 21.90625 20.449219 22.441406 23.222656 22.625 C 23.171875 22.78125 23.109375 22.9375 23.035156 23.09375 C 23.03125 23.109375 23.027344 23.128906 23.023438 23.140625 C 22.980469 23.167969 22.929688 23.195312 22.886719 23.222656 C 22.488281 23.480469 21.183594 24.503906 19.003906 26.265625 C 17.507812 25.035156 16.171875 23.71875 15.039062 21.878906 C 15.59375 21.886719 16.125 21.898438 16.625 21.898438 Z M 18.183594 21.546875 C 18.179688 21.621094 18.117188 21.679688 18.042969 21.679688 L 18.035156 21.679688 L 17.894531 21.667969 C 17.8125 21.660156 17.753906 21.59375 17.761719 21.515625 C 17.765625 21.4375 17.835938 21.375 17.914062 21.386719 L 18.054688 21.394531 C 18.132812 21.398438 18.191406 21.46875 18.183594 21.546875 Z M 18.773438 15.597656 C 18.703125 15.601562 18.648438 15.605469 18.597656 15.605469 C 18.550781 15.46875 18.496094 15.335938 18.441406 15.207031 C 18.449219 15.179688 18.457031 15.152344 18.464844 15.121094 C 18.582031 15.304688 18.648438 15.40625 18.773438 15.597656 Z M 19.390625 21.636719 C 19.382812 21.710938 19.320312 21.769531 19.246094 21.769531 L 19.238281 21.769531 L 18.933594 21.746094 C 18.859375 21.742188 18.800781 21.671875 18.804688 21.59375 C 18.8125 21.515625 18.871094 21.457031 18.957031 21.464844 L 19.261719 21.488281 C 19.335938 21.492188 19.394531 21.5625 19.390625 21.636719 Z M 22.859375 19.9375 C 22.839844 19.910156 22.820312 19.886719 22.800781 19.859375 C 22.847656 19.808594 22.902344 19.761719 22.957031 19.710938 C 22.976562 19.738281 22.996094 19.765625 23.019531 19.789062 C 22.964844 19.835938 22.914062 19.886719 22.859375 19.9375 Z M 22.566406 21.738281 L 22.871094 21.761719 C 22.949219 21.765625 23.003906 21.835938 23 21.914062 C 22.992188 21.988281 22.929688 22.046875 22.859375 22.046875 L 22.851562 22.046875 L 22.546875 22.023438 C 22.46875 22.015625 22.414062 21.949219 22.417969 21.867188 C 22.421875 21.792969 22.492188 21.730469 22.566406 21.738281 Z M 22.257812 20.234375 C 22.332031 20.328125 22.386719 20.398438 22.492188 20.53125 C 22.316406 20.539062 22.210938 20.542969 22.109375 20.550781 C 22.097656 20.515625 22.085938 20.480469 22.074219 20.445312 C 22.128906 20.382812 22.175781 20.324219 22.257812 20.234375 Z M 20.589844 21.730469 C 20.585938 21.804688 20.523438 21.863281 20.449219 21.863281 L 20.4375 21.863281 L 20.140625 21.835938 C 20.0625 21.832031 20.003906 21.765625 20.011719 21.6875 C 20.015625 21.605469 20.082031 21.550781 20.160156 21.554688 L 20.460938 21.578125 C 20.542969 21.585938 20.597656 21.652344 20.589844 21.730469 Z M 21.253906 19.265625 C 20.316406 19.265625 19.546875 18.492188 19.546875 17.546875 C 19.546875 16.597656 20.316406 15.828125 21.253906 15.828125 C 22.199219 15.828125 22.960938 16.597656 22.960938 17.546875 C 22.960938 18.492188 22.199219 19.265625 21.253906 19.265625 Z M 20.710938 20.660156 C 20.863281 20.492188 20.949219 20.398438 21.070312 20.269531 C 21.21875 20.527344 21.320312 20.710938 21.445312 20.929688 C 21.152344 21.007812 21.023438 20.78125 20.710938 20.660156 Z M 21.367188 21.648438 L 21.667969 21.667969 C 21.742188 21.675781 21.800781 21.742188 21.796875 21.824219 C 21.792969 21.898438 21.730469 21.953125 21.65625 21.953125 L 21.644531 21.953125 L 21.34375 21.929688 C 21.265625 21.925781 21.207031 21.859375 21.210938 21.777344 C 21.21875 21.699219 21.289062 21.640625 21.367188 21.648438 Z M 25.246094 22.085938 C 25.242188 22.160156 25.179688 22.214844 25.105469 22.214844 L 25.097656 22.214844 L 24.953125 22.203125 C 24.875 22.199219 24.820312 22.128906 24.824219 22.050781 C 24.832031 21.972656 24.90625 21.914062 24.976562 21.917969 L 25.117188 21.929688 C 25.195312 21.9375 25.25 22.003906 25.246094 22.085938 Z M 24.695312 18.980469 L 25.539062 19.058594 C 25.695312 19.074219 25.8125 19.210938 25.792969 19.367188 C 25.777344 19.523438 25.640625 19.640625 25.488281 19.625 L 24.644531 19.546875 C 24.488281 19.535156 24.375 19.394531 24.390625 19.238281 C 24.40625 19.082031 24.539062 18.964844 24.695312 18.980469 Z M 25.433594 18.460938 C 25.425781 18.488281 25.425781 18.519531 25.417969 18.550781 C 25.34375 18.535156 25.269531 18.511719 25.199219 18.496094 C 25.203125 18.46875 25.210938 18.441406 25.214844 18.410156 C 25.289062 18.425781 25.363281 18.441406 25.433594 18.460938 Z M 24.800781 17.847656 C 24.648438 17.835938 24.53125 17.695312 24.546875 17.539062 C 24.558594 17.382812 24.699219 17.269531 24.851562 17.285156 L 25.699219 17.363281 C 25.851562 17.378906 25.964844 17.515625 25.953125 17.671875 C 25.9375 17.828125 25.796875 17.941406 25.644531 17.929688 Z M 23.503906 22.644531 C 23.691406 22.652344 23.875 22.664062 24.050781 22.671875 C 23.988281 22.691406 23.929688 22.710938 23.871094 22.734375 C 23.847656 22.730469 23.816406 22.738281 23.785156 22.757812 C 23.777344 22.761719 23.769531 22.773438 23.761719 22.777344 C 23.640625 22.824219 23.519531 22.878906 23.40625 22.9375 C 23.441406 22.835938 23.476562 22.742188 23.503906 22.644531 Z M 23.410156 16.207031 C 23.378906 16.199219 23.347656 16.191406 23.320312 16.179688 C 23.335938 16.109375 23.347656 16.039062 23.367188 15.972656 C 23.394531 15.976562 23.425781 15.984375 23.457031 15.992188 C 23.441406 16.0625 23.425781 16.136719 23.410156 16.207031 Z M 23.773438 21.828125 L 24.074219 21.851562 C 24.152344 21.855469 24.210938 21.925781 24.203125 22.003906 C 24.199219 22.078125 24.136719 22.136719 24.0625 22.136719 L 24.050781 22.136719 L 23.75 22.113281 C 23.671875 22.109375 23.613281 22.039062 23.621094 21.960938 C 23.625 21.882812 23.6875 21.824219 23.773438 21.828125 Z M 23.589844 18.429688 C 23.488281 18.3125 23.410156 18.222656 23.339844 18.136719 C 23.355469 18.105469 23.367188 18.074219 23.386719 18.039062 C 23.492188 18.054688 23.601562 18.074219 23.753906 18.101562 C 23.691406 18.230469 23.65625 18.300781 23.589844 18.429688 Z M 24.84375 15 C 24.84375 14.78125 25.019531 14.601562 25.242188 14.601562 C 25.261719 14.601562 25.28125 14.605469 25.300781 14.605469 C 25.394531 14.6875 25.5 14.773438 25.609375 14.855469 C 25.625 14.898438 25.636719 14.949219 25.636719 15 C 25.636719 15.222656 25.460938 15.402344 25.242188 15.402344 C 25.019531 15.402344 24.84375 15.222656 24.84375 15 Z M 18.859375 14.285156 C 19.066406 14.320312 19.140625 14.402344 19.027344 14.617188 C 18.789062 14.605469 18.800781 14.46875 18.859375 14.285156 Z M 23.804688 14.601562 C 23.871094 14.59375 23.929688 14.636719 23.945312 14.695312 C 24.128906 15.234375 24.449219 15.820312 24.632812 15.835938 C 25.28125 15.886719 26.109375 15.972656 26.109375 15.972656 L 26.082031 16.257812 C 26.082031 16.257812 25.253906 16.171875 24.609375 16.117188 C 24.199219 16.085938 23.855469 15.269531 23.71875 14.890625 L 18.71875 15.28125 C 18.648438 15.289062 18.578125 15.230469 18.570312 15.152344 C 18.566406 15.074219 18.621094 15.007812 18.699219 15 Z M 15.445312 20.742188 C 15.792969 20.023438 16.039062 19.042969 16.136719 17.996094 C 16.234375 16.945312 16.171875 15.941406 15.960938 15.171875 C 15.839844 14.738281 15.675781 14.402344 15.484375 14.179688 C 16.101562 14.226562 16.71875 14.261719 17.332031 14.273438 C 17.96875 14.386719 18.617188 16.117188 18.699219 17.449219 C 18.789062 18.773438 18.476562 21.34375 16.652344 21.617188 C 16.519531 21.617188 16.382812 21.613281 16.246094 21.613281 C 15.808594 21.609375 15.34375 21.605469 14.871094 21.59375 C 14.867188 21.585938 14.867188 21.585938 14.863281 21.578125 C 15.070312 21.390625 15.265625 21.109375 15.445312 20.742188 Z M 14.789062 14.074219 Z M 14.761719 13.96875 C 14.757812 13.964844 14.757812 13.960938 14.757812 13.957031 C 14.757812 13.960938 14.757812 13.964844 14.761719 13.96875 Z M 13.300781 13.972656 C 13.234375 13.902344 13.171875 13.847656 13.105469 13.804688 C 13.171875 13.847656 13.234375 13.902344 13.296875 13.96875 C 13.816406 14.023438 14.34375 14.078125 14.871094 14.125 C 14.875 14.125 14.875 14.125 14.875 14.125 C 14.878906 14.125 14.882812 14.128906 14.886719 14.128906 C 15.207031 14.15625 15.5 14.566406 15.6875 15.25 C 15.890625 15.984375 15.949219 16.949219 15.855469 17.96875 C 15.761719 18.984375 15.527344 19.925781 15.191406 20.617188 C 15.050781 20.902344 14.902344 21.125 14.75 21.289062 C 14.808594 20.574219 14.308594 20.054688 13.664062 19.640625 C 13.8125 19.117188 13.921875 18.527344 13.980469 17.910156 C 14.140625 16.125 13.847656 14.570312 13.300781 13.972656 Z M 31.480469 27.023438 C 31.351562 26.953125 31.425781 26.726562 31.589844 26.761719 C 31.605469 26.765625 31.621094 26.773438 31.632812 26.777344 C 31.621094 26.773438 31.605469 26.769531 31.589844 26.765625 C 31.425781 26.726562 31.351562 26.953125 31.480469 27.023438 Z M 33.746094 20.628906 C 33.339844 20.210938 33.359375 19.488281 33.289062 18.929688 C 33.28125 18.882812 33.253906 18.847656 33.222656 18.824219 C 33.589844 18.570312 33.945312 18.296875 34.28125 18 C 34.3125 19.117188 34.609375 20.550781 35.382812 21.367188 C 34.710938 21.359375 34.21875 21.117188 33.746094 20.628906 Z M 33.816406 21.085938 C 33.933594 21.183594 34.054688 21.28125 34.183594 21.367188 C 34.597656 21.648438 35.167969 21.652344 35.644531 21.652344 L 35.722656 21.652344 C 35.742188 21.65625 35.761719 21.65625 35.777344 21.648438 L 35.808594 21.648438 C 34.441406 22.214844 33.371094 23.636719 32.625 24.769531 C 32.367188 25.164062 32.113281 25.558594 31.859375 25.953125 C 30.71875 27.734375 29.644531 29.417969 28.136719 30.859375 C 27.753906 31.222656 27.394531 31.53125 27.046875 31.792969 C 25.757812 31.71875 24.457031 30.609375 23.589844 29.867188 C 23.222656 29.5625 22.859375 29.273438 22.503906 28.992188 C 22.085938 28.660156 21.671875 28.34375 21.265625 28.035156 C 21.535156 27.1875 21.863281 26.359375 22.238281 25.554688 C 22.632812 24.703125 23.0625 23.714844 23.808594 23.105469 C 23.839844 23.078125 23.867188 23.054688 23.898438 23.03125 C 24.246094 22.894531 24.625 22.785156 25.035156 22.683594 C 25.144531 22.660156 25.253906 22.632812 25.367188 22.609375 C 25.253906 22.632812 25.144531 22.660156 25.035156 22.683594 C 25.167969 22.683594 25.296875 22.675781 25.417969 22.667969 C 25.527344 22.644531 25.632812 22.597656 25.726562 22.535156 C 25.730469 22.535156 25.730469 22.535156 25.730469 22.535156 C 25.828125 22.511719 25.925781 22.492188 26.027344 22.46875 L 26.21875 22.433594 C 26.640625 22.355469 27.101562 22.269531 27.46875 22.039062 C 28.308594 22.785156 29.558594 22.773438 30.605469 22.621094 C 31.742188 22.457031 33.046875 21.992188 33.816406 21.085938 Z M 27.570312 20.304688 L 27.601562 20.484375 C 27.613281 20.539062 27.625 20.601562 27.640625 20.664062 C 27.714844 20.996094 27.792969 21.34375 27.589844 21.574219 C 27.542969 21.628906 27.488281 21.675781 27.433594 21.71875 C 27.410156 21.726562 27.386719 21.742188 27.371094 21.761719 C 27.039062 21.988281 26.582031 22.078125 26.167969 22.15625 L 26.066406 22.175781 C 26.183594 21.988281 26.285156 21.753906 26.363281 21.464844 C 26.492188 20.992188 26.550781 20.515625 26.578125 20.085938 C 26.746094 20.148438 26.914062 20.203125 27.082031 20.242188 C 27.21875 20.277344 27.386719 20.296875 27.570312 20.304688 Z M 27.164062 14.199219 C 27.164062 14.378906 26.882812 14.378906 26.882812 14.199219 C 26.882812 13.734375 26.875 13.273438 26.882812 12.8125 C 26.886719 12.628906 27.164062 12.628906 27.164062 12.8125 C 27.164062 12.8125 27.164062 12.8125 27.164062 12.816406 C 27.164062 12.96875 27.164062 13.125 27.164062 13.277344 C 27.164062 13.582031 27.164062 13.890625 27.164062 14.199219 Z M 27.703125 12.21875 C 27.847656 12.222656 27.964844 12.273438 28.054688 12.367188 C 28.25 12.582031 28.238281 12.957031 28.230469 13.289062 C 28.226562 13.359375 28.222656 13.429688 28.222656 13.492188 C 28.226562 13.664062 28.230469 13.824219 28.230469 13.964844 C 28.242188 14.683594 28.25 15.042969 27.960938 15.0625 L 27.949219 15.0625 C 27.875 15.0625 27.8125 15.003906 27.8125 14.925781 C 27.804688 14.859375 27.851562 14.796875 27.914062 14.78125 C 27.960938 14.691406 27.957031 14.324219 27.949219 13.972656 C 27.945312 13.828125 27.945312 13.667969 27.941406 13.496094 C 27.941406 13.429688 27.945312 13.355469 27.945312 13.28125 C 27.957031 13.015625 27.964844 12.6875 27.847656 12.5625 C 27.824219 12.539062 27.78125 12.507812 27.695312 12.503906 L 27.386719 12.496094 L 25.023438 12.453125 C 24.945312 12.449219 24.882812 12.386719 24.882812 12.308594 C 24.882812 12.230469 24.953125 12.167969 25.027344 12.167969 Z M 12.953125 13.933594 C 12.933594 13.910156 12.917969 13.886719 12.898438 13.867188 C 12.917969 13.890625 12.933594 13.910156 12.953125 13.933594 C 12.992188 13.9375 13.027344 13.941406 13.066406 13.945312 C 13.035156 13.921875 12.996094 13.90625 12.960938 13.890625 C 12.996094 13.90625 13.035156 13.921875 13.066406 13.945312 C 13.664062 14.355469 14.011719 16.019531 13.835938 17.894531 C 13.785156 18.492188 13.679688 19.054688 13.539062 19.5625 C 13.449219 19.503906 13.359375 19.453125 13.265625 19.402344 C 13.390625 18.914062 13.480469 18.378906 13.53125 17.820312 C 13.679688 16.242188 13.507812 14.625 12.953125 13.933594 Z M 9.566406 20.792969 C 10.214844 20.425781 10.503906 20.46875 10.984375 20.507812 C 11.183594 20.523438 11.40625 20.539062 11.691406 20.539062 C 11.746094 20.539062 11.796875 20.507812 11.820312 20.460938 C 11.847656 20.410156 11.835938 20.347656 11.804688 20.304688 C 11.730469 20.222656 11.648438 20.160156 11.574219 20.105469 C 11.503906 20.042969 11.398438 19.972656 11.273438 19.882812 C 10.535156 19.359375 9.839844 18.785156 10.1875 18.023438 C 10.230469 17.921875 10.28125 17.921875 10.308594 17.921875 C 10.535156 17.921875 10.929688 18.308594 11.121094 18.492188 C 11.171875 18.546875 11.214844 18.589844 11.253906 18.621094 C 11.535156 18.847656 11.953125 19.054688 12.394531 19.273438 C 13.445312 19.792969 14.636719 20.382812 14.457031 21.378906 C 14.449219 21.410156 14.457031 21.445312 14.472656 21.472656 C 16.175781 24.503906 18.355469 26.171875 20.882812 28.097656 C 21.695312 28.71875 22.539062 29.359375 23.40625 30.085938 C 24.3125 30.859375 25.679688 32.027344 27.085938 32.078125 C 27.121094 32.082031 27.148438 32.070312 27.171875 32.050781 C 27.546875 31.777344 27.925781 31.453125 28.332031 31.066406 C 29.589844 29.863281 30.578125 28.453125 31.503906 27.035156 C 31.507812 27.035156 31.507812 27.039062 31.511719 27.039062 C 32.957031 27.378906 34.019531 28.574219 34.957031 29.652344 C 35.890625 30.726562 37.078125 31.917969 37.261719 33.402344 C 37.261719 33.417969 37.265625 33.429688 37.265625 33.441406 C 37.273438 33.523438 37.335938 33.5625 37.402344 33.570312 C 37.335938 33.5625 37.273438 33.523438 37.265625 33.441406 C 37.265625 33.429688 37.261719 33.417969 37.261719 33.402344 C 36.648438 34.242188 35.917969 35.109375 35.019531 36.082031 L 34.785156 36.335938 C 33.828125 37.371094 32.835938 38.441406 31.648438 39.140625 C 30.550781 39.789062 29.261719 40.117188 27.816406 40.117188 C 26.949219 40.117188 26.058594 39.996094 25.167969 39.757812 C 17.0625 37.496094 13.46875 27.601562 12.558594 24.625 C 12.382812 24.042969 11.949219 22.523438 11.945312 22.507812 C 11.925781 22.445312 11.875 22.40625 11.808594 22.40625 L 11.796875 22.40625 C 11.789062 22.40625 11.050781 22.472656 10.265625 22.472656 C 9.167969 22.472656 8.726562 22.347656 8.550781 22.238281 C 8.308594 22.082031 7.949219 21.800781 7.796875 21.566406 C 8.882812 21.285156 9.003906 21.195312 9.230469 21.023438 C 9.3125 20.960938 9.40625 20.890625 9.566406 20.792969 Z M 38.386719 31.679688 C 38.117188 32.148438 37.820312 32.613281 37.488281 33.085938 C 37.496094 33.121094 37.5 33.15625 37.507812 33.1875 C 37.5 33.15625 37.496094 33.121094 37.488281 33.085938 C 37.199219 31.71875 36.171875 30.644531 35.292969 29.613281 C 34.316406 28.460938 33.175781 27.175781 31.664062 26.785156 C 31.808594 26.558594 31.953125 26.335938 32.097656 26.109375 C 32.347656 25.714844 32.601562 25.320312 32.859375 24.929688 C 33.773438 23.535156 35.199219 21.683594 36.996094 21.683594 C 37.128906 21.683594 37.261719 21.695312 37.386719 21.710938 C 37.433594 21.722656 37.472656 21.722656 37.503906 21.722656 C 37.574219 21.726562 37.625 21.730469 37.828125 21.824219 C 38.164062 21.980469 38.898438 22.882812 39.203125 23.445312 C 40.386719 25.648438 40.082031 28.730469 38.386719 31.679688 Z M 41.496094 45.496094 C 41.417969 45.492188 41.335938 45.492188 41.214844 45.488281 C 41.296875 45.246094 41.394531 45.296875 41.496094 45.496094 Z M 42.519531 68.832031 C 42.550781 68.867188 42.585938 68.898438 42.621094 68.929688 C 42.53125 69.042969 42.445312 69.15625 42.359375 69.269531 C 42.1875 68.902344 42.363281 68.878906 42.519531 68.832031 Z M 43.761719 55.136719 C 43.882812 55.25 43.988281 55.304688 43.992188 55.367188 C 44 55.429688 43.910156 55.503906 43.863281 55.574219 C 43.824219 55.554688 43.789062 55.53125 43.753906 55.511719 C 43.753906 55.417969 43.757812 55.324219 43.761719 55.136719 Z M 46.039062 73.222656 C 46.160156 73.371094 46.242188 73.476562 46.359375 73.621094 C 46.015625 73.628906 46.015625 73.628906 46.039062 73.222656 Z M 10.527344 107.027344 C 10.570312 106.566406 10.570312 106.566406 11.007812 106.527344 C 10.976562 106.847656 10.769531 106.941406 10.527344 107.027344 Z M 11.730469 68.847656 C 11.628906 68.796875 11.558594 68.761719 11.46875 68.71875 C 11.511719 68.601562 11.539062 68.511719 11.5625 68.4375 C 11.785156 68.390625 11.832031 68.5 11.730469 68.847656 Z M 50.5 108.59375 C 50.484375 107.148438 50.230469 106.265625 50.21875 106.230469 L 50.1875 106.125 L 50.183594 106.125 L 50.09375 105.355469 C 49.933594 103.722656 49.746094 101.699219 49.546875 99.554688 C 48.914062 92.65625 48.441406 87.703125 48.132812 87.027344 C 47.5625 83.046875 47.332031 79.003906 47.234375 74.964844 C 47.636719 74.738281 47.964844 74.40625 48.164062 73.882812 C 48.550781 72.839844 48.359375 71.582031 48.246094 70.507812 C 48.046875 68.699219 47.917969 66.882812 47.699219 65.074219 C 47.207031 60.992188 46.367188 56.976562 45.148438 53.050781 C 44.390625 50.613281 43.648438 48.175781 42.875 45.75 C 42.265625 43.855469 41.675781 42.027344 40.683594 40.308594 C 40.667969 40.277344 40.644531 40.265625 40.617188 40.253906 C 40.625 40.234375 40.625 40.210938 40.621094 40.1875 C 40.433594 39.273438 40.261719 38.355469 40.09375 37.433594 C 39.703125 35.292969 39.367188 33.140625 39.074219 30.980469 C 39.101562 30.917969 39.132812 30.855469 39.164062 30.796875 C 39.386719 30.304688 39.578125 29.816406 39.730469 29.332031 C 40.835938 30.445312 42.359375 30.761719 43.75 29.890625 C 45.097656 29.046875 45.679688 27.355469 45.335938 25.835938 C 44.859375 23.742188 42.683594 22.09375 41.078125 20.875 C 40.125 20.15625 39.148438 19.492188 38.359375 18.582031 C 37.96875 18.132812 37.664062 17.621094 37.402344 17.09375 C 37.097656 16.492188 36.703125 15.773438 36.738281 15.089844 C 36.738281 15.082031 36.734375 15.082031 36.734375 15.074219 C 38.21875 12.625 38.859375 9.675781 38.136719 6.84375 C 37.53125 4.472656 35.855469 2.578125 33.753906 1.414062 C 31.152344 -0.0273438 28.25 0.210938 26 2.164062 C 25.957031 2.203125 25.949219 2.246094 25.960938 2.289062 C 24.25 1.964844 22.769531 3.355469 21.804688 4.652344 C 20.722656 6.109375 20.296875 7.964844 20.152344 9.75 C 20.132812 10.015625 20.125 10.277344 20.125 10.542969 C 18.886719 10.476562 17.652344 10.40625 16.414062 10.332031 C 16.460938 9.921875 16.429688 9.40625 15.96875 9.300781 C 15.464844 9.195312 14.90625 9.195312 14.390625 9.140625 C 13.152344 9 11.914062 8.851562 10.675781 8.707031 C 10.710938 8.410156 10.71875 8.0625 10.574219 7.816406 C 10.355469 7.433594 9.992188 7.390625 9.589844 7.320312 C 8.828125 7.183594 8.054688 7.101562 7.277344 7.027344 C 7.261719 7.019531 7.25 7.011719 7.230469 7.007812 L 7.015625 6.980469 C 6.445312 6.894531 5.796875 6.800781 3.78125 6.636719 C 3.648438 6.628906 3.527344 6.671875 3.421875 6.765625 C 3.066406 7.09375 3.03125 7.957031 3.03125 8.042969 C 2.929688 8.964844 3.292969 9.109375 3.851562 9.328125 C 4.023438 9.394531 4.21875 9.472656 4.433594 9.582031 C 4.714844 9.734375 4.855469 9.945312 5 10.167969 C 5.203125 10.480469 5.40625 10.804688 6.003906 10.925781 L 8.261719 11.210938 L 8.285156 11.210938 C 9.070312 11.417969 10.113281 11.355469 10.707031 11.394531 C 11.226562 11.429688 11.742188 11.464844 12.261719 11.5 C 12.347656 12.203125 12.4375 12.902344 12.523438 13.605469 C 12.480469 13.597656 12.433594 13.59375 12.386719 13.589844 L 12.363281 13.589844 C 11.667969 13.519531 10.964844 13.457031 10.257812 13.414062 C 9.089844 13.367188 8.355469 13.324219 7.230469 13.175781 C 7.199219 12.0625 5.625 12.019531 4.808594 11.9375 C 3.75 11.875 2.679688 11.785156 1.621094 11.820312 C 1.160156 11.835938 0.804688 12.125 0.742188 12.589844 C 0.582031 13.832031 0.515625 15.09375 0.394531 16.34375 C 0.285156 17.492188 0.15625 18.644531 0.0742188 19.800781 C 0.0273438 20.488281 0.128906 21.164062 0.722656 21.574219 C 1.117188 21.851562 1.757812 21.878906 2.246094 21.925781 C 2.757812 22.015625 3.355469 22.113281 3.875 22.070312 C 3.9375 22.074219 4 22.078125 4.0625 22.085938 C 4.914062 22.160156 6.222656 22.328125 6.472656 21.304688 C 6.503906 21.308594 6.535156 21.3125 6.5625 21.316406 C 6.589844 21.417969 6.609375 21.511719 6.628906 21.585938 C 7.371094 24.648438 10.4375 34.851562 18.539062 37.628906 C 18.957031 37.765625 19.371094 37.875 19.78125 37.960938 C 19.710938 39.191406 19.621094 40.417969 19.554688 41.644531 C 14.980469 46.195312 13.128906 52.957031 11.863281 59.105469 C 11.199219 62.332031 10.71875 65.59375 10.246094 68.847656 C 10.148438 69.523438 9.949219 70.234375 9.964844 70.898438 C 9.976562 71.417969 10.121094 71.910156 10.535156 72.335938 C 11.207031 73.019531 12.273438 73.34375 13.304688 73.566406 C 13.21875 74.550781 13.148438 75.535156 13.128906 76.519531 C 13.0625 79.621094 13.371094 82.71875 13.667969 85.804688 C 13.457031 86.0625 13.464844 86.550781 13.433594 86.863281 C 13.261719 88.675781 13.320312 90.523438 13.339844 92.339844 C 13.382812 95.707031 13.496094 99.066406 13.636719 102.425781 C 13.65625 102.855469 13.671875 103.277344 13.691406 103.703125 C 13.695312 103.8125 13.699219 103.925781 13.707031 104.035156 L 13.707031 104.0625 C 13.6875 103.960938 13.617188 104.074219 13.429688 104.179688 C 13.230469 104.289062 13.027344 104.402344 12.832031 104.515625 C 12.328125 104.792969 10.441406 105.839844 9.675781 106.4375 C 7.941406 107.777344 7.121094 108.910156 7.359375 109.628906 C 7.46875 109.945312 7.785156 110.148438 8.183594 110.148438 C 8.320312 110.148438 8.808594 110.148438 9.519531 110.148438 C 13.703125 110.214844 17.890625 110.285156 22.078125 110.296875 C 22.445312 110.300781 22.675781 110.335938 22.855469 110.179688 L 22.882812 110.179688 L 22.898438 110.144531 C 22.957031 110.078125 23.015625 109.992188 23.066406 109.867188 C 23.109375 109.765625 23.148438 109.660156 23.179688 109.546875 C 23.15625 109.585938 23.117188 109.609375 23.066406 109.609375 L 7.546875 109.609375 C 7.464844 109.609375 7.402344 109.546875 7.402344 109.46875 C 7.402344 109.386719 7.464844 109.324219 7.546875 109.324219 L 23.066406 109.324219 C 23.148438 109.324219 23.210938 109.386719 23.210938 109.46875 C 23.457031 108.648438 23.472656 107.6875 23.40625 106.808594 C 23.378906 105.457031 23.144531 104.636719 23.132812 104.601562 L 23.105469 104.492188 L 23.03125 104.496094 C 22.988281 104.195312 22.976562 103.910156 23.039062 103.679688 C 23.160156 103.238281 23.277344 102.792969 23.394531 102.347656 C 24.277344 99.015625 25.128906 95.671875 25.882812 92.304688 C 26.226562 90.757812 26.566406 89.207031 26.78125 87.632812 C 26.816406 87.378906 26.992188 86.589844 26.902344 86.089844 C 27.269531 82.453125 27.785156 78.820312 28.113281 75.175781 L 28.136719 75.175781 C 28.03125 74.894531 27.953125 74.597656 27.878906 74.285156 C 27.40625 72.253906 27.042969 70.179688 26.777344 68.105469 C 26.125 62.980469 25.59375 57.824219 25.585938 52.652344 C 25.585938 52.605469 25.601562 52.570312 25.628906 52.546875 C 25.707031 52.476562 25.867188 52.511719 25.867188 52.652344 C 25.875 57.292969 26.300781 61.925781 26.863281 66.53125 C 27.117188 68.636719 27.433594 70.734375 27.851562 72.816406 C 28.011719 73.621094 28.109375 74.613281 28.488281 75.351562 C 28.640625 75.640625 28.835938 75.878906 29.054688 76.082031 C 29.707031 76.394531 30.515625 76.453125 31.265625 76.484375 C 31.539062 77.742188 31.824219 79 32.128906 80.25 C 32.914062 83.496094 33.78125 86.761719 35.0625 89.851562 C 35.164062 91.230469 38.421875 100.761719 40.570312 105.664062 C 40.441406 105.734375 40.214844 105.859375 39.941406 106.019531 C 39.898438 106.042969 39.851562 106.074219 39.808594 106.097656 C 39.515625 106.257812 37.339844 107.449219 36.492188 108.105469 C 34.726562 109.476562 33.886719 110.628906 34.132812 111.359375 C 34.242188 111.679688 34.566406 111.867188 34.972656 111.867188 L 35.566406 111.867188 L 35.566406 111.878906 L 35.730469 111.878906 C 35.832031 111.882812 45.835938 112.042969 49.753906 112.042969 L 49.769531 112.042969 C 49.933594 112.019531 50.445312 111.738281 50.496094 109.109375 C 50.5 108.992188 50.503906 108.871094 50.503906 108.746094 L 50.503906 108.652344 C 50.503906 108.636719 50.5 108.613281 50.5 108.59375 "/></g><path style=" stroke:none;fill-rule:nonzero;fill:#100f0d;fill-opacity:1;" d="M 27.9375 16.445312 C 27.703125 16.945312 27.15625 17.191406 26.605469 17.222656 C 26.605469 17.316406 26.605469 17.410156 26.605469 17.507812 C 27.253906 17.472656 27.90625 17.175781 28.183594 16.589844 C 28.261719 16.425781 28.015625 16.28125 27.9375 16.445312 "/><path style=" stroke:none;fill-rule:nonzero;fill:#100f0d;fill-opacity:1;" d="M 27.847656 10.15625 C 27.449219 10.03125 27.023438 10.070312 26.65625 10.261719 C 26.582031 10.300781 26.140625 10.546875 26.292969 10.714844 C 26.34375 10.769531 26.410156 10.785156 26.46875 10.78125 C 26.605469 10.777344 26.730469 10.714844 26.855469 10.675781 C 27.011719 10.632812 27.167969 10.613281 27.324219 10.589844 C 27.515625 10.566406 27.714844 10.558594 27.902344 10.617188 C 28.011719 10.648438 28.117188 10.695312 28.226562 10.714844 C 28.292969 10.726562 28.414062 10.75 28.449219 10.65625 C 28.542969 10.402344 27.96875 10.191406 27.847656 10.15625 "/><path style=" stroke:none;fill-rule:nonzero;fill:#100f0d;fill-opacity:1;" d="M 21.253906 18.554688 C 20.703125 18.554688 20.253906 18.105469 20.253906 17.546875 C 20.253906 16.992188 20.703125 16.539062 21.253906 16.539062 C 21.808594 16.539062 22.257812 16.992188 22.257812 17.546875 C 22.257812 18.105469 21.808594 18.554688 21.253906 18.554688 Z M 21.253906 16.113281 C 20.46875 16.113281 19.828125 16.757812 19.828125 17.546875 C 19.828125 18.335938 20.46875 18.980469 21.253906 18.980469 C 22.042969 18.980469 22.679688 18.335938 22.679688 17.546875 C 22.679688 16.757812 22.042969 16.113281 21.253906 16.113281 "/><path style=" stroke:none;fill-rule:nonzero;fill:#100f0d;fill-opacity:1;" d="M 21.253906 16.679688 C 20.78125 16.679688 20.394531 17.070312 20.394531 17.546875 C 20.394531 18.023438 20.78125 18.414062 21.253906 18.414062 C 21.730469 18.414062 22.117188 18.023438 22.117188 17.546875 C 22.117188 17.070312 21.730469 16.679688 21.253906 16.679688 "/><path style=" stroke:none;fill-rule:nonzero;fill:#100f0d;fill-opacity:1;" d="M 7.242188 13.746094 C 7.230469 13.644531 7.136719 13.601562 7.0625 13.617188 C 7 13.625 6.953125 13.667969 6.960938 13.746094 C 6.980469 13.933594 6.988281 14.117188 6.996094 14.300781 C 7.105469 16.160156 6.851562 18.03125 6.484375 19.855469 C 6.433594 20.105469 6.378906 20.359375 6.328125 20.609375 C 6.308594 20.683594 6.347656 20.734375 6.398438 20.765625 C 6.472656 20.804688 6.574219 20.789062 6.597656 20.683594 C 7.085938 18.425781 7.472656 16.0625 7.242188 13.746094 "/><path style=" stroke:none;fill-rule:nonzero;fill:#100f0d;fill-opacity:1;" d="M 8.660156 20.898438 C 8.730469 20.898438 8.792969 20.84375 8.800781 20.769531 C 8.804688 20.695312 8.75 20.625 8.671875 20.617188 L 6.984375 20.457031 C 6.90625 20.449219 6.839844 20.507812 6.832031 20.585938 C 6.824219 20.664062 6.882812 20.734375 6.960938 20.742188 L 8.644531 20.898438 C 8.648438 20.898438 8.65625 20.898438 8.660156 20.898438 "/><path style=" stroke:none;fill-rule:nonzero;fill:#100f0d;fill-opacity:1;" d="M 9.003906 20.078125 L 7.039062 19.894531 C 6.964844 19.886719 6.890625 19.941406 6.886719 20.019531 C 6.878906 20.097656 6.933594 20.167969 7.011719 20.175781 L 8.980469 20.359375 C 8.984375 20.359375 8.988281 20.359375 8.992188 20.359375 C 9.0625 20.359375 9.125 20.304688 9.132812 20.230469 C 9.140625 20.152344 9.082031 20.085938 9.003906 20.078125 "/><path style=" stroke:none;fill-rule:nonzero;fill:#100f0d;fill-opacity:1;" d="M 7.503906 17.9375 L 9.46875 18.125 C 9.472656 18.125 9.480469 18.125 9.484375 18.125 C 9.554688 18.125 9.617188 18.070312 9.625 17.996094 C 9.628906 17.917969 9.574219 17.847656 9.496094 17.839844 L 7.527344 17.65625 C 7.453125 17.648438 7.382812 17.707031 7.375 17.785156 C 7.367188 17.863281 7.425781 17.933594 7.503906 17.9375 "/><path style=" stroke:none;fill-rule:nonzero;fill:#100f0d;fill-opacity:1;" d="M 7.605469 16.808594 C 7.53125 16.800781 7.460938 16.855469 7.453125 16.9375 C 7.445312 17.015625 7.503906 17.082031 7.582031 17.089844 L 9.546875 17.273438 C 9.550781 17.273438 9.558594 17.273438 9.5625 17.273438 C 9.632812 17.273438 9.695312 17.21875 9.703125 17.144531 C 9.707031 17.066406 9.652344 17 9.574219 16.992188 L 7.605469 16.808594 "/><path style=" stroke:none;fill-rule:nonzero;fill:#100f0d;fill-opacity:1;" d="M 7.507812 14.800781 L 9.476562 14.984375 C 9.480469 14.984375 9.484375 14.984375 9.488281 14.984375 C 9.5625 14.984375 9.625 14.929688 9.628906 14.855469 C 9.636719 14.777344 9.582031 14.710938 9.503906 14.703125 L 7.535156 14.519531 C 7.460938 14.511719 7.390625 14.566406 7.382812 14.644531 C 7.375 14.726562 7.433594 14.792969 7.507812 14.800781 "/><path style=" stroke:none;fill-rule:nonzero;fill:#100f0d;fill-opacity:1;" d="M 7.5625 14.234375 L 9.246094 14.394531 C 9.253906 14.394531 9.257812 14.394531 9.261719 14.394531 C 9.332031 14.394531 9.394531 14.339844 9.402344 14.265625 C 9.410156 14.1875 9.351562 14.117188 9.273438 14.109375 L 7.585938 13.953125 C 7.511719 13.945312 7.441406 14.003906 7.433594 14.078125 C 7.425781 14.15625 7.484375 14.226562 7.5625 14.234375 "/><path style=" stroke:none;fill-rule:nonzero;fill:#100f0d;fill-opacity:1;" d="M 10.980469 17.125 C 10.898438 17.117188 10.832031 17.171875 10.824219 17.253906 C 10.820312 17.328125 10.875 17.398438 10.953125 17.40625 L 12.640625 17.566406 C 12.644531 17.566406 12.648438 17.566406 12.652344 17.566406 C 12.722656 17.566406 12.785156 17.511719 12.792969 17.4375 C 12.800781 17.359375 12.742188 17.289062 12.664062 17.28125 L 10.980469 17.125 "/><path style=" stroke:none;fill-rule:nonzero;fill:#100f0d;fill-opacity:1;" d="M 10.753906 14.960938 C 10.746094 15.039062 10.804688 15.109375 10.882812 15.117188 L 12.566406 15.277344 C 12.570312 15.277344 12.578125 15.277344 12.582031 15.277344 C 12.652344 15.277344 12.714844 15.21875 12.722656 15.144531 C 12.730469 15.070312 12.671875 15 12.59375 14.992188 L 10.90625 14.835938 C 10.832031 14.828125 10.761719 14.882812 10.753906 14.960938 "/><path style=" stroke:none;fill-rule:nonzero;fill:#100f0d;fill-opacity:1;" d="M 10.652344 14.523438 L 12.339844 14.683594 C 12.34375 14.683594 12.347656 14.683594 12.351562 14.683594 C 12.425781 14.683594 12.484375 14.628906 12.492188 14.554688 C 12.5 14.476562 12.441406 14.40625 12.363281 14.398438 L 10.679688 14.242188 C 10.601562 14.234375 10.53125 14.292969 10.527344 14.371094 C 10.519531 14.449219 10.574219 14.519531 10.652344 14.523438 "/><path style=" stroke:none;fill-rule:nonzero;fill:#100f0d;fill-opacity:1;" d="M 15.671875 21.558594 L 16.234375 21.609375 C 16.238281 21.609375 16.242188 21.609375 16.246094 21.609375 C 16.320312 21.609375 16.378906 21.554688 16.386719 21.480469 C 16.394531 21.40625 16.335938 21.335938 16.257812 21.328125 L 15.695312 21.273438 C 15.621094 21.269531 15.550781 21.324219 15.542969 21.402344 C 15.535156 21.480469 15.59375 21.550781 15.671875 21.558594 "/><path style=" stroke:none;fill-rule:nonzero;fill:#100f0d;fill-opacity:1;" d="M 15.722656 20.992188 L 17.128906 21.125 C 17.132812 21.125 17.136719 21.125 17.140625 21.125 C 17.214844 21.125 17.277344 21.070312 17.28125 20.996094 C 17.289062 20.917969 17.230469 20.847656 17.15625 20.839844 L 15.75 20.710938 C 15.667969 20.703125 15.601562 20.761719 15.597656 20.835938 C 15.589844 20.914062 15.644531 20.984375 15.722656 20.992188 "/><path style=" stroke:none;fill-rule:nonzero;fill:#100f0d;fill-opacity:1;" d="M 16.214844 18.757812 L 17.898438 18.914062 C 17.902344 18.914062 17.910156 18.914062 17.914062 18.914062 C 17.984375 18.914062 18.046875 18.859375 18.054688 18.785156 C 18.0625 18.707031 18.003906 18.636719 17.925781 18.628906 L 16.238281 18.472656 C 16.164062 18.464844 16.09375 18.523438 16.085938 18.601562 C 16.078125 18.679688 16.136719 18.75 16.214844 18.757812 "/><path style=" stroke:none;fill-rule:nonzero;fill:#100f0d;fill-opacity:1;" d="M 16.292969 17.90625 L 17.976562 18.066406 C 17.984375 18.066406 17.988281 18.066406 17.992188 18.066406 C 18.0625 18.066406 18.125 18.011719 18.132812 17.9375 C 18.140625 17.859375 18.082031 17.789062 18.003906 17.78125 L 16.316406 17.625 C 16.238281 17.617188 16.171875 17.671875 16.164062 17.753906 C 16.15625 17.832031 16.214844 17.898438 16.292969 17.90625 "/><path style=" stroke:none;fill-rule:nonzero;fill:#100f0d;fill-opacity:1;" d="M 17.90625 15.777344 C 17.910156 15.777344 17.914062 15.777344 17.917969 15.777344 C 17.992188 15.777344 18.054688 15.722656 18.058594 15.648438 C 18.066406 15.570312 18.011719 15.5 17.933594 15.492188 L 16.246094 15.335938 C 16.167969 15.328125 16.101562 15.386719 16.09375 15.460938 C 16.085938 15.542969 16.144531 15.609375 16.21875 15.617188 L 17.90625 15.777344 "/><path style=" stroke:none;fill-rule:nonzero;fill:#100f0d;fill-opacity:1;" d="M 16.273438 15.050781 L 17.398438 15.15625 C 17.402344 15.15625 17.40625 15.15625 17.410156 15.15625 C 17.484375 15.15625 17.542969 15.101562 17.550781 15.027344 C 17.558594 14.953125 17.5 14.882812 17.421875 14.875 L 16.300781 14.769531 C 16.222656 14.761719 16.152344 14.820312 16.144531 14.898438 C 16.140625 14.976562 16.195312 15.042969 16.273438 15.050781 "/><path style=" stroke:none;fill-rule:nonzero;fill:#100f0d;fill-opacity:1;" d="M 15.738281 10.574219 C 15.808594 10.574219 15.871094 10.519531 15.878906 10.445312 C 15.882812 10.367188 15.828125 10.296875 15.75 10.292969 L 7.675781 9.554688 C 7.605469 9.546875 7.527344 9.605469 7.523438 9.683594 C 7.515625 9.761719 7.570312 9.828125 7.648438 9.835938 L 15.722656 10.574219 C 15.726562 10.574219 15.734375 10.574219 15.738281 10.574219 "/><path style=" stroke:none;fill-rule:nonzero;fill:#100f0d;fill-opacity:1;" d="M 24.089844 11.640625 C 24.164062 11.640625 24.222656 11.699219 24.230469 11.773438 L 24.289062 12.625 C 24.292969 12.699219 24.238281 12.769531 24.160156 12.773438 L 24.148438 12.917969 L 24.148438 12.773438 C 24.074219 12.773438 24.015625 12.71875 24.007812 12.644531 L 23.949219 11.792969 C 23.945312 11.714844 24 11.644531 24.089844 11.640625 Z M 24.148438 13.058594 L 24.179688 13.058594 C 24.292969 13.050781 24.394531 13 24.46875 12.914062 C 24.542969 12.828125 24.578125 12.71875 24.570312 12.605469 L 24.511719 11.753906 C 24.496094 11.53125 24.3125 11.355469 24.089844 11.355469 L 24.058594 11.359375 C 23.828125 11.375 23.652344 11.578125 23.667969 11.816406 L 23.726562 12.664062 C 23.742188 12.886719 23.929688 13.058594 24.148438 13.058594 "/><path style=" stroke:none;fill-rule:nonzero;fill:#100f0d;fill-opacity:1;" d="M 5.070312 7.992188 L 3.617188 7.820312 C 3.539062 7.808594 3.46875 7.867188 3.460938 7.945312 C 3.449219 8.023438 3.507812 8.09375 3.582031 8.101562 L 5.039062 8.273438 C 5.042969 8.273438 5.050781 8.273438 5.054688 8.273438 C 5.125 8.273438 5.1875 8.21875 5.195312 8.148438 C 5.203125 8.070312 5.148438 8 5.070312 7.992188 "/></g></svg>