<svg xmlns="http://www.w3.org/2000/svg" xmlns:xlink="http://www.w3.org/1999/xlink" width="150" zoomAndPan="magnify" viewBox="0 0 113.04 120.96" height="150" preserveAspectRatio="xMidYMid meet" version="1.2"><defs><clipPath id="cdb3912920"><path d="M 0 0.488281 L 111.550781 0.488281 L 111.550781 112.042969 L 0 112.042969 Z M 0 0.488281 "/></clipPath><clipPath id="acf3ee2678"><path d="M 1.414062 0.488281 L 111.476562 0.488281 L 111.476562 51 L 1.414062 51 Z M 1.414062 0.488281 "/></clipPath><clipPath id="855f9864ce"><path d="M 1.414062 0.535156 L 111.476562 0.535156 L 111.476562 51.015625 L 1.414062 51.015625 Z M 1.414062 0.535156 "/></clipPath></defs><g id="95afc90816"><g clip-rule="nonzero" clip-path="url(#cdb3912920)"><path style=" stroke:none;fill-rule:nonzero;fill:#ffffff;fill-opacity:1;" d="M 0 0.488281 L 111.550781 0.488281 L 111.550781 112.042969 L 0 112.042969 Z M 0 0.488281 "/><path style=" stroke:none;fill-rule:nonzero;fill:#ffffff;fill-opacity:1;" d="M 0 0.488281 L 111.550781 0.488281 L 111.550781 112.042969 L 0 112.042969 Z M 0 0.488281 "/></g><g clip-rule="nonzero" clip-path="url(#acf3ee2678)"><path style=" stroke:none;fill-rule:nonzero;fill:#ffffff;fill-opacity:1;" d="M 73.167969 20.722656 C 73.015625 20.726562 72.863281 20.726562 72.707031 20.726562 C 72.011719 20.726562 71.476562 20.492188 70.960938 19.96875 C 70.582031 19.578125 70.539062 18.972656 70.503906 18.4375 C 70.496094 18.3125 70.488281 18.1875 70.476562 18.074219 L 70.46875 17.996094 L 70.527344 17.953125 C 70.824219 17.710938 71.113281 17.449219 71.382812 17.175781 L 71.496094 17.257812 C 71.492188 17.261719 71.484375 17.265625 71.480469 17.273438 C 71.4375 17.351562 71.492188 17.457031 71.582031 17.476562 C 71.585938 17.476562 71.59375 17.476562 71.597656 17.476562 L 71.625 17.476562 C 71.640625 17.476562 71.65625 17.46875 71.671875 17.460938 C 71.695312 17.449219 71.714844 17.429688 71.738281 17.417969 C 71.726562 17.46875 71.726562 17.523438 71.742188 17.578125 C 71.957031 18.554688 72.457031 19.789062 73.257812 20.480469 L 73.527344 20.714844 Z M 57.277344 43.554688 L 53.101562 43.554688 L 53.042969 43.292969 C 53.957031 42.847656 54.507812 42.246094 54.679688 41.5 L 54.707031 41.390625 L 55.132812 41.394531 C 55.792969 41.394531 56.472656 41.363281 57.203125 41.296875 L 57.359375 41.285156 Z M 111.335938 49.089844 L 111.335938 49.082031 L 81.089844 43.554688 L 77.679688 43.554688 L 77.65625 43.445312 C 77.539062 42.875 77.429688 42.304688 77.332031 41.753906 C 76.65625 38.023438 76.273438 34.269531 75.910156 30.433594 L 75.90625 30.394531 L 75.925781 30.355469 C 75.945312 30.316406 75.964844 30.28125 75.980469 30.242188 C 76.003906 30.203125 76.023438 30.160156 76.042969 30.125 C 76.523438 29.167969 76.855469 28.246094 77.050781 27.308594 L 77.097656 27.082031 L 77.277344 27.230469 C 77.964844 27.816406 78.765625 28.125 79.589844 28.125 C 80.164062 28.125 80.726562 27.972656 81.261719 27.675781 C 82.121094 27.203125 82.726562 26.34375 82.886719 25.378906 L 82.929688 25.25 C 83.222656 23.425781 82.347656 21.6875 80.625 20.683594 C 80.011719 20.351562 79.390625 20.101562 78.835938 19.875 L 78.597656 19.773438 C 78.570312 19.753906 78.539062 19.734375 78.511719 19.714844 C 78.289062 19.574219 78.066406 19.433594 77.84375 19.296875 C 77.027344 18.792969 76.179688 18.269531 75.460938 17.570312 C 75.089844 17.207031 74.746094 16.765625 74.386719 16.179688 L 74.28125 16.003906 C 74.105469 15.71875 73.914062 15.410156 73.773438 15.085938 C 73.726562 15.054688 73.675781 15.0625 73.621094 15.089844 C 73.675781 14.960938 73.730469 14.835938 73.78125 14.710938 C 73.835938 14.578125 73.886719 14.449219 73.9375 14.316406 C 73.992188 14.164062 73.777344 14.09375 73.691406 14.207031 C 73.683594 14.21875 73.675781 14.226562 73.671875 14.242188 C 73.550781 14.570312 73.363281 14.855469 73.144531 15.125 C 73.261719 14.882812 73.375 14.628906 73.484375 14.34375 L 73.464844 14.34375 L 73.535156 14.207031 C 73.535156 14.207031 73.546875 14.171875 73.546875 14.171875 L 73.558594 14.15625 L 73.566406 14.144531 C 74.90625 11.5 75.152344 8.546875 74.246094 6.042969 C 73.488281 3.957031 71.761719 2.210938 69.503906 1.25 C 68.609375 0.867188 67.699219 0.671875 66.792969 0.671875 C 65.125 0.671875 63.585938 1.328125 62.339844 2.5625 L 62.289062 2.613281 L 62.21875 2.601562 C 62.117188 2.582031 62.011719 2.574219 61.90625 2.574219 C 60.722656 2.574219 59.609375 3.699219 58.886719 4.640625 C 57.972656 5.824219 57.441406 7.265625 57.265625 9.046875 C 57.113281 10.542969 57.261719 12.085938 57.6875 13.515625 C 57.933594 14.335938 58.691406 16.253906 60.425781 16.253906 L 60.472656 16.253906 L 60.59375 16.222656 L 60.636719 16.339844 C 60.652344 16.378906 60.671875 16.421875 60.6875 16.464844 C 61.078125 17.363281 61.628906 18.128906 62.28125 18.679688 C 63.007812 19.292969 63.839844 19.691406 64.683594 19.832031 C 64.757812 19.84375 64.84375 19.851562 64.933594 19.851562 L 65.03125 19.855469 L 65.203125 19.855469 L 65.226562 19.964844 C 65.296875 20.273438 65.351562 20.625 65.125 20.878906 C 65.003906 21.019531 64.839844 21.136719 64.625 21.230469 C 64.335938 21.359375 63.992188 21.425781 63.6875 21.484375 L 63.464844 21.527344 C 62.1875 21.78125 60.984375 22.113281 60.289062 23.359375 C 59.390625 24.976562 58.742188 26.628906 58.296875 28.40625 L 58.292969 28.429688 L 58.28125 28.445312 C 57.472656 29.753906 52.671875 35.246094 51.042969 36.722656 C 50.71875 37.019531 49.53125 38.0625 47.988281 39.0625 L 47.96875 39.078125 L 47.941406 39.082031 C 47.808594 39.105469 47.675781 39.136719 47.546875 39.171875 L 47.515625 39.179688 L 44.179688 38.5 L 44.15625 38.5 C 44.152344 38.503906 44.148438 38.503906 44.144531 38.503906 L 43.542969 38.894531 C 43.554688 38.910156 43.664062 39.0625 44.359375 40.070312 L 44.800781 40.707031 L 44.585938 40.785156 C 44.550781 40.796875 44.519531 40.8125 44.492188 40.820312 C 44.371094 40.859375 44.25 40.898438 44.128906 40.9375 C 43.859375 41.019531 43.660156 41.074219 43.480469 41.109375 C 43.34375 41.140625 43.25 41.152344 43.164062 41.152344 C 43.066406 41.152344 42.976562 41.136719 42.894531 41.101562 L 42.78125 41.058594 C 42.621094 40.992188 42.453125 40.929688 42.289062 40.871094 C 41.910156 40.730469 41.476562 40.65625 41.035156 40.65625 C 40.160156 40.660156 39.257812 40.941406 38.425781 41.464844 C 37.683594 41.9375 37.101562 42.457031 36.699219 43.003906 C 36.609375 43.125 36.59375 43.246094 36.65625 43.34375 L 36.792969 43.558594 L 31.804688 43.558594 L 1.554688 49.09375 L 1.550781 49.105469 L 1.550781 50.605469 L 9.800781 50.625 C 16.660156 50.644531 23.523438 50.660156 30.382812 50.675781 L 30.445312 50.675781 C 39.324219 50.699219 48.195312 50.722656 57.066406 50.746094 L 111.339844 50.882812 L 111.339844 49.105469 L 111.335938 49.089844 "/></g><path style=" stroke:none;fill-rule:nonzero;fill:#100f0d;fill-opacity:1;" d="M 65.191406 16.238281 C 65.179688 16.273438 65.164062 16.308594 65.148438 16.34375 C 64.820312 16.988281 63.878906 17.207031 63.226562 17.046875 C 63.050781 17.003906 62.980469 17.269531 63.152344 17.3125 C 63.921875 17.5 64.921875 17.242188 65.347656 16.542969 C 65.390625 16.46875 65.429688 16.394531 65.460938 16.3125 C 65.523438 16.144531 65.253906 16.074219 65.191406 16.238281 "/><path style=" stroke:none;fill-rule:nonzero;fill:#100f0d;fill-opacity:1;" d="M 63.324219 10.839844 C 63.453125 10.828125 63.570312 10.753906 63.691406 10.707031 C 63.839844 10.652344 63.992188 10.621094 64.140625 10.585938 C 64.328125 10.546875 64.519531 10.527344 64.710938 10.566406 C 64.820312 10.589844 64.921875 10.625 65.035156 10.636719 C 65.101562 10.644531 65.222656 10.65625 65.246094 10.5625 C 65.320312 10.308594 64.742188 10.152344 64.621094 10.125 C 64.21875 10.035156 63.808594 10.105469 63.464844 10.320312 C 63.394531 10.367188 62.980469 10.636719 63.144531 10.789062 C 63.195312 10.835938 63.261719 10.847656 63.324219 10.839844 "/><path style=" stroke:none;fill-rule:nonzero;fill:#100f0d;fill-opacity:1;" d="M 60.148438 12.945312 C 60.121094 12.605469 60.273438 12.320312 60.488281 12.300781 C 60.703125 12.285156 60.894531 12.546875 60.921875 12.886719 C 60.945312 13.222656 60.792969 13.511719 60.582031 13.527344 C 60.367188 13.542969 60.175781 13.28125 60.148438 12.945312 "/><path style=" stroke:none;fill-rule:nonzero;fill:#100f0d;fill-opacity:1;" d="M 63.871094 12.117188 C 63.84375 11.777344 63.996094 11.492188 64.210938 11.476562 C 64.421875 11.460938 64.617188 11.71875 64.644531 12.058594 C 64.667969 12.398438 64.515625 12.683594 64.304688 12.703125 C 64.089844 12.71875 63.894531 12.457031 63.871094 12.117188 "/><path style=" stroke:none;fill-rule:nonzero;fill:#100f0d;fill-opacity:1;" d="M 62.914062 15.648438 C 61.988281 15.5 62.019531 14.847656 62.203125 14.097656 C 62.246094 13.910156 62.289062 13.722656 62.328125 13.535156 C 62.417969 13.09375 62.484375 12.648438 62.464844 12.191406 C 62.457031 12.011719 62.179688 12.011719 62.1875 12.191406 C 62.199219 12.492188 62.125 12.863281 62.042969 13.253906 C 61.796875 14.390625 61.460938 15.691406 62.84375 15.914062 C 63.015625 15.941406 63.089844 15.675781 62.914062 15.648438 "/><path style=" stroke:none;fill-rule:nonzero;fill:#100f0d;fill-opacity:1;" d="M 44.832031 45.929688 L 38.914062 48.753906 C 38.878906 48.769531 38.863281 48.808594 38.878906 48.84375 C 38.890625 48.871094 38.917969 48.882812 38.941406 48.882812 C 38.953125 48.882812 38.960938 48.882812 38.972656 48.878906 L 44.890625 46.050781 C 44.925781 46.035156 44.941406 45.996094 44.921875 45.960938 C 44.90625 45.925781 44.867188 45.910156 44.832031 45.929688 "/><path style=" stroke:none;fill-rule:nonzero;fill:#100f0d;fill-opacity:1;" d="M 31.527344 47.472656 C 31.53125 47.472656 31.539062 47.46875 31.542969 47.46875 L 36.644531 46.132812 C 36.679688 46.125 36.703125 46.085938 36.691406 46.050781 C 36.683594 46.011719 36.648438 45.992188 36.609375 46 L 31.511719 47.335938 C 31.472656 47.34375 31.449219 47.382812 31.460938 47.417969 C 31.46875 47.449219 31.496094 47.472656 31.527344 47.472656 "/><path style=" stroke:none;fill-rule:nonzero;fill:#100f0d;fill-opacity:1;" d="M 61.984375 45.9375 C 61.957031 45.914062 61.914062 45.914062 61.890625 45.945312 C 61.863281 45.972656 61.867188 46.015625 61.894531 46.042969 L 64.601562 48.375 C 64.613281 48.386719 64.628906 48.390625 64.644531 48.390625 C 64.664062 48.390625 64.683594 48.382812 64.699219 48.367188 C 64.722656 48.339844 64.71875 48.296875 64.691406 48.269531 L 61.984375 45.9375 "/><path style=" stroke:none;fill-rule:nonzero;fill:#100f0d;fill-opacity:1;" d="M 56.480469 45.996094 C 56.441406 46 56.410156 46.03125 56.414062 46.070312 L 56.480469 47.808594 C 56.484375 47.847656 56.511719 47.875 56.550781 47.875 C 56.550781 47.875 56.550781 47.875 56.554688 47.875 C 56.589844 47.875 56.621094 47.84375 56.621094 47.804688 L 56.550781 46.0625 C 56.550781 46.027344 56.511719 46 56.480469 45.996094 "/><path style=" stroke:none;fill-rule:nonzero;fill:#100f0d;fill-opacity:1;" d="M 68.199219 45.925781 C 68.164062 45.910156 68.125 45.929688 68.109375 45.960938 C 68.09375 45.996094 68.109375 46.039062 68.144531 46.054688 L 73.527344 48.386719 C 73.535156 48.390625 73.546875 48.390625 73.554688 48.390625 C 73.582031 48.390625 73.609375 48.375 73.621094 48.351562 C 73.636719 48.316406 73.617188 48.273438 73.582031 48.257812 L 68.199219 45.925781 "/><path style=" stroke:none;fill-rule:nonzero;fill:#100f0d;fill-opacity:1;" d="M 82.65625 48.257812 L 75.140625 45.484375 C 75.101562 45.472656 75.0625 45.488281 75.050781 45.527344 C 75.035156 45.5625 75.054688 45.601562 75.089844 45.613281 L 82.609375 48.386719 C 82.617188 48.390625 82.625 48.390625 82.632812 48.390625 C 82.660156 48.390625 82.6875 48.375 82.695312 48.347656 C 82.710938 48.3125 82.691406 48.273438 82.65625 48.257812 "/><path style=" stroke:none;fill-rule:nonzero;fill:#100f0d;fill-opacity:1;" d="M 72.214844 45.488281 C 72.179688 45.472656 72.136719 45.488281 72.121094 45.523438 C 72.105469 45.558594 72.121094 45.597656 72.15625 45.613281 L 75.753906 47.21875 C 75.765625 47.222656 75.773438 47.226562 75.785156 47.226562 C 75.808594 47.226562 75.835938 47.210938 75.847656 47.183594 C 75.863281 47.148438 75.847656 47.109375 75.8125 47.09375 L 72.214844 45.488281 "/><path style=" stroke:none;fill-rule:nonzero;fill:#100f0d;fill-opacity:1;" d="M 84.902344 45.453125 L 90.785156 46.421875 C 90.789062 46.421875 90.792969 46.421875 90.796875 46.421875 C 90.828125 46.421875 90.859375 46.398438 90.863281 46.363281 C 90.871094 46.328125 90.84375 46.292969 90.808594 46.285156 L 84.925781 45.316406 C 84.890625 45.3125 84.851562 45.335938 84.847656 45.375 C 84.839844 45.414062 84.867188 45.449219 84.902344 45.453125 "/><path style=" stroke:none;fill-rule:nonzero;fill:#100f0d;fill-opacity:1;" d="M 75.890625 44.011719 L 78.164062 44.425781 C 78.167969 44.429688 78.171875 44.429688 78.175781 44.429688 C 78.210938 44.429688 78.238281 44.40625 78.246094 44.371094 C 78.25 44.335938 78.226562 44.296875 78.1875 44.292969 L 75.914062 43.875 C 75.875 43.867188 75.839844 43.894531 75.832031 43.933594 C 75.828125 43.96875 75.851562 44.003906 75.890625 44.011719 "/><path style=" stroke:none;fill-rule:nonzero;fill:#100f0d;fill-opacity:1;" d="M 68.328125 44.417969 C 68.339844 44.425781 68.351562 44.429688 68.363281 44.429688 C 68.386719 44.429688 68.410156 44.417969 68.425781 44.394531 C 68.441406 44.359375 68.429688 44.316406 68.398438 44.300781 L 67.464844 43.769531 C 67.429688 43.75 67.386719 43.761719 67.371094 43.796875 C 67.351562 43.828125 67.363281 43.871094 67.394531 43.890625 L 68.328125 44.417969 "/><path style=" stroke:none;fill-rule:nonzero;fill:#100f0d;fill-opacity:1;" d="M 54.902344 44.648438 C 54.921875 44.648438 54.941406 44.640625 54.957031 44.621094 L 55.3125 44.136719 C 55.335938 44.105469 55.328125 44.0625 55.296875 44.039062 C 55.269531 44.015625 55.222656 44.023438 55.203125 44.054688 L 54.84375 44.539062 C 54.820312 44.570312 54.828125 44.613281 54.859375 44.636719 C 54.871094 44.644531 54.886719 44.648438 54.902344 44.648438 "/><path style=" stroke:none;fill-rule:nonzero;fill:#100f0d;fill-opacity:1;" d="M 35.238281 44.640625 C 35.242188 44.640625 35.246094 44.640625 35.25 44.640625 L 39.113281 43.898438 C 39.152344 43.890625 39.175781 43.855469 39.167969 43.820312 C 39.160156 43.78125 39.125 43.753906 39.089844 43.761719 L 35.222656 44.503906 C 35.1875 44.511719 35.164062 44.546875 35.171875 44.585938 C 35.175781 44.617188 35.207031 44.640625 35.238281 44.640625 "/><path style=" stroke:none;fill-rule:nonzero;fill:#100f0d;fill-opacity:1;" d="M 31.929688 44.523438 C 31.933594 44.523438 31.9375 44.519531 31.941406 44.519531 L 33.835938 44.15625 C 33.875 44.152344 33.898438 44.113281 33.890625 44.078125 C 33.882812 44.039062 33.847656 44.011719 33.808594 44.023438 L 31.917969 44.382812 C 31.878906 44.390625 31.855469 44.429688 31.863281 44.464844 C 31.867188 44.5 31.898438 44.523438 31.929688 44.523438 "/><g clip-rule="nonzero" clip-path="url(#855f9864ce)"><path style=" stroke:none;fill-rule:nonzero;fill:#100f0d;fill-opacity:1;" d="M 111.203125 50.742188 L 111.121094 50.742188 C 110.707031 50.738281 110.296875 50.738281 109.886719 50.738281 C 108.089844 50.734375 106.296875 50.726562 104.503906 50.726562 C 97.941406 50.707031 91.382812 50.691406 84.824219 50.675781 C 76.03125 50.652344 67.242188 50.632812 58.453125 50.609375 C 49.507812 50.585938 40.566406 50.5625 31.625 50.539062 C 24.613281 50.523438 17.601562 50.507812 10.585938 50.488281 C 7.621094 50.480469 4.652344 50.472656 1.6875 50.464844 C 1.6875 50.445312 1.6875 50.421875 1.6875 50.390625 L 1.6875 49.199219 C 1.707031 49.214844 1.734375 49.222656 1.757812 49.222656 L 111.203125 49.222656 Z M 31.804688 43.695312 L 44.378906 43.695312 C 42.460938 44.109375 40.519531 44.460938 38.578125 44.800781 L 26.109375 44.800781 C 26.035156 44.800781 25.972656 44.859375 25.972656 44.9375 C 25.972656 45.011719 26.035156 45.074219 26.109375 45.074219 L 31.453125 45.074219 L 25.480469 46.097656 C 25.445312 46.101562 25.417969 46.136719 25.425781 46.175781 C 25.429688 46.210938 25.460938 46.230469 25.492188 46.230469 L 25.503906 46.230469 L 32.269531 45.074219 L 36.976562 45.074219 C 36.125 45.222656 35.273438 45.367188 34.425781 45.519531 C 31.574219 46.023438 28.71875 46.523438 25.867188 47.015625 C 25.6875 47.046875 25.765625 47.3125 25.9375 47.28125 C 28.792969 46.789062 31.648438 46.289062 34.5 45.785156 C 35.863281 45.542969 37.230469 45.3125 38.597656 45.074219 L 42.609375 45.074219 L 30.820312 48.941406 C 30.816406 48.941406 30.816406 48.945312 30.816406 48.945312 L 3.074219 48.945312 Z M 39.035156 43.203125 C 39.003906 43.269531 38.980469 43.34375 38.96875 43.417969 L 38.628906 43.417969 C 38.742188 43.316406 38.886719 43.246094 39.035156 43.203125 Z M 38.261719 43.417969 L 37.679688 43.417969 C 37.828125 43.328125 37.953125 43.214844 38.082031 43.105469 C 38.25 42.957031 38.410156 42.820312 38.59375 42.742188 C 38.988281 42.570312 39.441406 42.496094 39.886719 42.460938 C 39.621094 42.578125 39.410156 42.714844 39.257812 42.871094 C 38.871094 42.929688 38.484375 43.085938 38.261719 43.417969 Z M 36.8125 43.082031 C 37.203125 42.550781 37.769531 42.042969 38.5 41.582031 C 39.308594 41.070312 40.183594 40.796875 41.035156 40.792969 C 41.453125 40.789062 41.863281 40.859375 42.242188 41 C 42.40625 41.058594 42.570312 41.125 42.734375 41.1875 L 42.839844 41.230469 C 43.078125 41.324219 43.308594 41.285156 43.507812 41.242188 C 43.710938 41.199219 43.929688 41.144531 44.171875 41.070312 C 44.292969 41.03125 44.414062 40.992188 44.535156 40.949219 C 44.605469 40.925781 44.675781 40.898438 44.746094 40.871094 C 45.148438 41.457031 45.566406 42.070312 45.878906 42.53125 C 45.855469 42.5625 45.835938 42.589844 45.816406 42.617188 C 45.722656 42.792969 45.734375 43.023438 45.859375 43.324219 C 45.871094 43.359375 45.886719 43.386719 45.902344 43.417969 L 39.25 43.417969 C 39.367188 42.976562 39.96875 42.449219 42.09375 42.316406 C 42.171875 42.316406 42.230469 42.25 42.222656 42.171875 C 42.222656 42.097656 42.164062 42.035156 42.078125 42.042969 C 41.648438 42.070312 41.265625 42.113281 40.925781 42.171875 C 40.785156 42.167969 40.636719 42.164062 40.480469 42.164062 C 39.832031 42.164062 39.09375 42.222656 38.484375 42.488281 C 38.257812 42.582031 38.074219 42.742188 37.898438 42.894531 C 37.734375 43.039062 37.585938 43.171875 37.40625 43.253906 C 37.082031 43.402344 36.839844 43.355469 36.773438 43.277344 C 36.726562 43.21875 36.777344 43.128906 36.8125 43.082031 Z M 43.742188 38.941406 L 44.121094 38.683594 C 44.488281 39.203125 46.058594 41.417969 46.746094 42.4375 C 46.597656 42.371094 46.433594 42.328125 46.238281 42.351562 C 46.195312 42.359375 46.15625 42.371094 46.113281 42.386719 C 45.382812 41.300781 44.082031 39.429688 43.742188 38.941406 Z M 44.800781 39.472656 C 44.804688 39.453125 44.8125 39.441406 44.828125 39.433594 C 44.8125 39.441406 44.804688 39.453125 44.800781 39.472656 Z M 44.792969 39.484375 C 44.789062 39.511719 44.804688 39.53125 44.828125 39.546875 C 44.804688 39.535156 44.789062 39.511719 44.792969 39.484375 Z M 47.367188 39.289062 C 47.363281 39.453125 47.386719 39.601562 47.453125 39.726562 C 47.480469 39.789062 47.519531 39.847656 47.566406 39.894531 C 47.910156 40.28125 48.617188 40.339844 49.328125 40.339844 C 49.363281 40.339844 49.398438 40.339844 49.4375 40.339844 L 50.117188 40.277344 L 49.4375 40.339844 L 47.367188 40.527344 L 46.609375 40.59375 C 46.574219 40.597656 46.546875 40.632812 46.550781 40.671875 C 46.550781 40.707031 46.582031 40.734375 46.617188 40.734375 C 46.621094 40.734375 46.621094 40.734375 46.625 40.734375 L 47.355469 40.667969 L 49.921875 40.433594 L 50.128906 40.414062 C 50.167969 40.410156 50.195312 40.378906 50.191406 40.339844 C 50.191406 40.324219 50.183594 40.308594 50.171875 40.296875 C 50.183594 40.308594 50.191406 40.324219 50.195312 40.339844 C 50.195312 40.378906 50.167969 40.414062 50.128906 40.414062 L 49.921875 40.433594 C 49.734375 40.769531 49.410156 41.15625 49.050781 41.515625 L 47.230469 41.824219 L 46.726562 41.910156 L 46.628906 41.929688 L 46.722656 41.910156 C 46.265625 41.238281 45.613281 40.320312 45.101562 39.585938 L 46.972656 39.796875 C 46.976562 39.796875 46.980469 39.796875 46.980469 39.796875 C 47.015625 39.796875 47.046875 39.769531 47.050781 39.734375 C 47.054688 39.699219 47.027344 39.664062 46.988281 39.660156 L 44.992188 39.4375 C 44.785156 39.140625 44.601562 38.882812 44.472656 38.703125 Z M 50.167969 40.292969 C 50.167969 40.292969 50.167969 40.292969 50.164062 40.292969 C 50.167969 40.292969 50.167969 40.292969 50.167969 40.292969 Z M 46.808594 42.039062 L 46.628906 42.066406 L 46.8125 42.039062 L 47.214844 41.96875 L 48.871094 41.683594 C 48.289062 42.226562 47.660156 42.65625 47.347656 42.671875 C 47.304688 42.671875 47.265625 42.664062 47.222656 42.652344 C 47.203125 42.621094 47.179688 42.585938 47.15625 42.550781 C 47.070312 42.417969 46.949219 42.242188 46.808594 42.039062 Z M 49.25 41.5 C 49.25 41.5 49.25 41.5 49.25 41.503906 C 49.25 41.5 49.25 41.5 49.25 41.5 Z M 49.21875 41.625 C 49.242188 41.621094 49.257812 41.605469 49.269531 41.582031 C 49.257812 41.605469 49.246094 41.621094 49.21875 41.625 L 49.085938 41.648438 Z M 46.550781 42.011719 C 46.550781 42.019531 46.558594 42.023438 46.558594 42.03125 C 46.558594 42.023438 46.550781 42.019531 46.550781 42.011719 Z M 46.59375 41.941406 C 46.597656 41.9375 46.601562 41.933594 46.605469 41.933594 C 46.601562 41.933594 46.597656 41.9375 46.59375 41.941406 Z M 50.308594 39.175781 C 50.667969 39.195312 51.035156 39.214844 51.402344 39.222656 C 51.460938 39.222656 51.515625 39.222656 51.570312 39.222656 C 51.574219 39.222656 51.578125 39.222656 51.582031 39.222656 C 51.589844 39.222656 51.601562 39.21875 51.609375 39.214844 C 51.621094 39.214844 51.628906 39.210938 51.636719 39.207031 C 51.640625 39.203125 51.644531 39.203125 51.648438 39.199219 C 51.65625 39.195312 51.675781 39.183594 51.6875 39.175781 C 52.359375 38.726562 54.847656 37.238281 57.058594 35.925781 C 58.539062 35.039062 59.945312 34.203125 60.695312 33.742188 C 61.714844 33.113281 62.660156 32.601562 63.585938 32.175781 C 63.796875 32.082031 64.019531 31.996094 64.234375 31.910156 C 64.5 31.808594 64.765625 31.703125 65.023438 31.578125 C 65.488281 31.351562 65.855469 31 66.214844 30.660156 L 66.304688 30.574219 C 67.453125 29.488281 68.152344 28.019531 68.828125 26.597656 C 69.242188 25.734375 69.671875 24.839844 70.191406 24.050781 C 70.464844 23.636719 70.835938 23.09375 71.261719 22.601562 C 72.1875 21.535156 73.113281 20.964844 74.019531 20.902344 C 74.371094 20.878906 74.820312 20.925781 75.09375 21.019531 C 75.898438 21.285156 76.332031 21.628906 76.6875 22.28125 C 77.292969 23.402344 77.378906 25.003906 76.941406 27.175781 C 76.234375 30.703125 73.722656 33.5 71.210938 36.058594 C 69.871094 37.429688 68.390625 38.347656 66.554688 38.953125 C 64.488281 39.636719 62.617188 40.234375 60.679688 40.632812 C 58.429688 41.089844 56.53125 41.289062 54.707031 41.253906 C 54.703125 41.25 54.695312 41.253906 54.6875 41.257812 C 54.683594 41.257812 54.679688 41.257812 54.671875 41.257812 C 54.660156 41.261719 54.648438 41.265625 54.640625 41.269531 C 54.632812 41.277344 54.628906 41.277344 54.621094 41.285156 C 54.613281 41.289062 54.613281 41.296875 54.605469 41.296875 C 54.601562 41.304688 54.601562 41.304688 54.59375 41.308594 C 54.589844 41.3125 54.589844 41.324219 54.585938 41.328125 C 54.582031 41.332031 54.582031 41.339844 54.578125 41.34375 C 54.578125 41.351562 54.574219 41.351562 54.574219 41.355469 C 54.570312 41.359375 54.570312 41.363281 54.570312 41.367188 C 54.40625 42.261719 53.671875 42.949219 52.402344 43.40625 C 52.484375 43.335938 52.5625 43.269531 52.644531 43.191406 C 52.777344 43.070312 52.578125 42.878906 52.449219 42.996094 C 52.109375 43.3125 51.792969 43.570312 51.335938 43.695312 L 51.332031 43.695312 C 51.332031 43.695312 51.335938 43.695312 51.335938 43.695312 C 51.332031 43.695312 51.332031 43.695312 51.328125 43.695312 L 51.324219 43.695312 C 50.839844 43.78125 50.324219 43.824219 49.75 43.847656 C 50.296875 43.589844 50.804688 43.21875 51.304688 42.859375 C 51.449219 42.757812 51.308594 42.515625 51.164062 42.621094 C 50.367188 43.195312 49.542969 43.835938 48.535156 43.882812 C 47.96875 43.886719 47.402344 43.859375 46.855469 43.722656 L 46.820312 43.714844 C 46.425781 43.621094 46.261719 43.582031 46.113281 43.21875 C 46.027344 43.007812 46.011719 42.84375 46.058594 42.75 C 46.097656 42.691406 46.171875 42.644531 46.285156 42.628906 C 46.488281 42.597656 46.660156 42.691406 46.84375 42.785156 C 47.003906 42.871094 47.171875 42.960938 47.359375 42.949219 C 48.078125 42.914062 49.96875 41.285156 50.316406 40.234375 C 50.320312 40.234375 50.320312 40.230469 50.320312 40.226562 L 50.320312 40.214844 C 50.320312 40.207031 50.324219 40.199219 50.324219 40.191406 C 50.324219 40.1875 50.324219 40.1875 50.324219 40.1875 C 50.320312 40.179688 50.320312 40.171875 50.320312 40.160156 C 50.316406 40.152344 50.3125 40.144531 50.308594 40.132812 C 50.308594 40.128906 50.300781 40.121094 50.300781 40.117188 C 50.296875 40.113281 50.292969 40.113281 50.292969 40.105469 C 50.289062 40.101562 50.285156 40.09375 50.28125 40.09375 C 50.273438 40.085938 50.269531 40.085938 50.265625 40.082031 C 50.253906 40.074219 50.246094 40.066406 50.234375 40.066406 C 50.234375 40.0625 50.230469 40.0625 50.230469 40.0625 C 50.222656 40.058594 50.214844 40.058594 50.210938 40.058594 C 50.203125 40.058594 50.195312 40.054688 50.1875 40.054688 C 50.058594 40.054688 49.925781 40.058594 49.785156 40.058594 C 49.039062 40.074219 48.109375 40.089844 47.773438 39.714844 C 47.675781 39.601562 47.632812 39.464844 47.640625 39.285156 C 48.488281 39.0625 49.375 39.117188 50.308594 39.175781 Z M 51.136719 36.824219 C 52.5 35.589844 56.535156 31.054688 57.996094 29.09375 C 57.636719 30.777344 57.460938 32.5625 57.460938 34.527344 L 57.429688 35.375 C 57.257812 35.480469 57.089844 35.582031 56.917969 35.6875 C 54.59375 37.070312 52.199219 38.496094 51.527344 38.949219 C 51.128906 38.945312 50.722656 38.921875 50.328125 38.898438 C 49.734375 38.863281 49.125 38.824219 48.53125 38.867188 C 49.769531 38.019531 50.726562 37.195312 51.136719 36.824219 Z M 58.425781 28.460938 C 58.867188 26.683594 59.515625 25.039062 60.40625 23.425781 C 61.074219 22.230469 62.246094 21.910156 63.488281 21.664062 L 63.679688 21.625 C 63.863281 21.59375 64.050781 21.554688 64.238281 21.507812 C 64.050781 21.890625 64.003906 22.375 64.003906 22.84375 C 64.003906 23.140625 64.023438 23.429688 64.03125 23.679688 C 64.054688 24.496094 64.367188 25.121094 65.257812 25.105469 C 66.417969 25.082031 67.367188 24.191406 68.179688 23.476562 C 69.257812 22.53125 70.195312 21.398438 71.105469 20.292969 C 71.226562 20.398438 71.351562 20.5 71.488281 20.589844 C 71.894531 20.863281 72.453125 20.867188 72.921875 20.867188 C 72.964844 20.867188 73 20.867188 73.042969 20.863281 C 72.378906 21.144531 71.710938 21.660156 71.054688 22.417969 C 70.617188 22.925781 70.238281 23.476562 69.960938 23.898438 C 69.425781 24.699219 68.996094 25.605469 68.578125 26.480469 C 67.914062 27.878906 67.222656 29.320312 66.113281 30.375 L 66.023438 30.460938 C 65.679688 30.785156 65.324219 31.125 64.902344 31.332031 C 64.65625 31.449219 64.390625 31.554688 64.136719 31.652344 C 63.917969 31.738281 63.691406 31.828125 63.472656 31.925781 C 62.535156 32.355469 61.578125 32.871094 60.550781 33.507812 C 60.546875 33.507812 60.542969 33.507812 60.539062 33.511719 C 59.925781 33.890625 58.878906 34.515625 57.710938 35.207031 L 57.738281 34.527344 C 57.738281 32.3125 57.960938 30.328125 58.425781 28.460938 Z M 65.546875 19.949219 C 65.585938 19.941406 65.628906 19.9375 65.667969 19.929688 C 65.628906 19.9375 65.585938 19.941406 65.546875 19.949219 Z M 65.230469 20.972656 C 65.371094 20.8125 65.417969 20.632812 65.421875 20.441406 C 65.421875 20.398438 65.417969 20.359375 65.414062 20.316406 C 65.417969 20.359375 65.421875 20.402344 65.421875 20.441406 C 65.441406 20.433594 65.457031 20.425781 65.472656 20.414062 C 65.660156 20.285156 65.824219 20.070312 65.945312 19.878906 C 65.945312 19.878906 65.945312 19.875 65.945312 19.875 C 65.992188 19.867188 66.035156 19.859375 66.082031 19.847656 C 66.710938 19.679688 67.296875 19.386719 67.785156 18.992188 C 67.847656 18.945312 67.855469 18.859375 67.808594 18.796875 C 67.761719 18.742188 67.671875 18.730469 67.613281 18.777344 C 67.609375 18.78125 67.605469 18.78125 67.601562 18.789062 C 67.144531 19.148438 66.597656 19.421875 66.011719 19.578125 C 65.734375 19.652344 65.449219 19.699219 65.191406 19.714844 C 65.007812 19.722656 64.839844 19.714844 64.707031 19.695312 C 63.890625 19.558594 63.078125 19.171875 62.367188 18.570312 C 61.734375 18.035156 61.195312 17.285156 60.816406 16.40625 C 60.046875 14.632812 59.605469 13.074219 59.46875 11.679688 C 59.460938 11.679688 59.453125 11.679688 59.445312 11.683594 C 59.453125 11.679688 59.460938 11.679688 59.464844 11.675781 C 59.550781 11.660156 59.628906 11.605469 59.710938 11.570312 C 59.824219 11.523438 59.941406 11.496094 60.058594 11.472656 C 60.113281 11.460938 60.171875 11.453125 60.230469 11.449219 C 60.320312 11.441406 60.410156 11.449219 60.5 11.476562 C 60.585938 11.503906 60.671875 11.542969 60.757812 11.558594 C 60.808594 11.570312 60.902344 11.585938 60.917969 11.496094 C 60.964844 11.246094 60.503906 11.066406 60.410156 11.03125 C 60.203125 10.964844 60 10.96875 59.808594 11.03125 C 59.707031 11.0625 59.605469 11.109375 59.515625 11.175781 C 59.5 11.1875 59.46875 11.214844 59.433594 11.246094 C 59.421875 11.042969 59.417969 10.839844 59.421875 10.640625 C 59.421875 10.601562 59.417969 10.558594 59.421875 10.519531 L 59.421875 10.503906 C 59.277344 9.082031 59.734375 7.242188 61.128906 6.605469 C 61.34375 8.023438 62.480469 8.863281 63.859375 9.328125 C 64.878906 9.664062 65.921875 9.878906 66.644531 10.738281 C 67.160156 11.351562 67.832031 11.625 68.589844 11.425781 C 68.644531 11.410156 68.695312 11.398438 68.75 11.378906 C 69.160156 11.3125 69.558594 11.492188 69.859375 11.878906 C 70.222656 12.351562 70.304688 12.988281 70.070312 13.429688 C 69.941406 13.671875 69.601562 13.894531 69.292969 13.945312 C 69.234375 13.953125 69.1875 14.015625 69.199219 14.074219 C 69.207031 14.113281 69.230469 14.144531 69.261719 14.160156 C 69.261719 14.167969 69.265625 14.175781 69.265625 14.179688 C 69.457031 15.046875 69.398438 15.894531 68.960938 16.683594 C 68.9375 16.730469 68.941406 16.773438 68.960938 16.816406 C 69.066406 17.222656 70.171875 17.980469 70.335938 18.089844 C 70.335938 18.09375 70.335938 18.09375 70.339844 18.097656 C 70.382812 18.554688 70.335938 19.171875 70.53125 19.574219 C 70.628906 19.773438 70.757812 19.945312 70.90625 20.105469 C 69.667969 21.609375 68.355469 23.1875 66.730469 24.289062 C 66.28125 24.59375 65.792969 24.765625 65.257812 24.832031 C 64.59375 24.90625 64.375 24.394531 64.316406 23.84375 C 64.246094 23.175781 64.160156 21.921875 64.628906 21.402344 C 64.636719 21.394531 64.640625 21.382812 64.644531 21.371094 C 64.867188 21.277344 65.070312 21.152344 65.230469 20.972656 Z M 59.253906 11.535156 C 59.253906 11.488281 59.277344 11.433594 59.3125 11.386719 C 59.277344 11.433594 59.253906 11.488281 59.253906 11.535156 Z M 64.453125 8.90625 C 65.914062 9.316406 67.898438 9.519531 68.484375 11.171875 C 67.496094 11.417969 67.121094 10.652344 66.40625 10.105469 C 65.882812 9.707031 65.292969 9.484375 64.671875 9.289062 C 63.367188 8.875 62.03125 8.355469 61.558594 7.144531 C 62.242188 8.042969 63.414062 8.617188 64.453125 8.90625 Z M 64.167969 2.632812 C 64.234375 2.734375 64.304688 2.835938 64.375 2.941406 C 64.332031 2.972656 64.292969 3 64.25 3.03125 C 64.183594 2.925781 64.121094 2.824219 64.054688 2.71875 C 64.089844 2.6875 64.128906 2.660156 64.167969 2.632812 Z M 66.851562 2.863281 C 67.046875 3.046875 67.121094 3.117188 67.238281 3.222656 C 67.109375 3.355469 67.007812 3.460938 66.90625 3.566406 C 66.871094 3.550781 66.832031 3.53125 66.796875 3.515625 C 66.808594 3.34375 66.824219 3.167969 66.851562 2.863281 Z M 68.589844 5.253906 C 68.855469 5.355469 68.902344 5.519531 68.796875 5.828125 C 68.359375 5.730469 68.4375 5.519531 68.589844 5.253906 Z M 69.941406 10.671875 C 69.96875 10.828125 70 10.984375 70.035156 11.179688 C 69.945312 11.167969 69.859375 11.171875 69.855469 11.15625 C 69.824219 11.003906 69.804688 10.851562 69.785156 10.699219 C 69.835938 10.6875 69.890625 10.679688 69.941406 10.671875 Z M 70.308594 6.46875 C 70.339844 6.542969 70.375 6.621094 70.410156 6.695312 C 70.378906 6.714844 70.347656 6.734375 70.316406 6.753906 L 70.167969 6.546875 C 70.214844 6.519531 70.257812 6.492188 70.308594 6.46875 Z M 73.78125 17.734375 C 74.054688 18.035156 74.226562 18.226562 74.398438 18.417969 C 74.386719 18.460938 74.367188 18.503906 74.355469 18.550781 C 74.082031 18.523438 73.808594 18.496094 73.4375 18.457031 C 73.554688 18.21875 73.632812 18.046875 73.78125 17.734375 Z M 76.511719 18.785156 C 76.628906 18.875 76.742188 18.964844 76.863281 19.050781 C 76.867188 19.066406 76.875 19.074219 76.878906 19.085938 C 76.683594 19.097656 76.558594 19.105469 76.332031 19.121094 C 76.402344 18.988281 76.457031 18.894531 76.511719 18.785156 Z M 77.347656 22.945312 C 77.320312 22.984375 77.300781 23.015625 77.28125 23.050781 C 77.265625 22.996094 77.25 22.949219 77.234375 22.902344 C 77.273438 22.917969 77.308594 22.929688 77.347656 22.945312 Z M 77.511719 43.417969 L 57.421875 43.417969 L 57.429688 43.074219 L 57.492188 41.40625 C 57.65625 41.390625 57.824219 41.371094 57.992188 41.351562 C 58.855469 41.246094 59.761719 41.101562 60.734375 40.902344 C 62.6875 40.5 64.566406 39.902344 66.640625 39.214844 C 68.519531 38.597656 70.035156 37.65625 71.410156 36.253906 C 73.035156 34.59375 74.660156 32.839844 75.808594 30.84375 C 76.210938 35.050781 76.664062 39.28125 77.511719 43.417969 Z M 81.0625 43.691406 L 87.125 44.800781 L 75.28125 44.800781 C 73.324219 44.460938 71.367188 44.105469 69.425781 43.691406 Z M 64.855469 44.394531 L 63.84375 43.695312 L 68.171875 43.691406 C 68.183594 43.699219 68.195312 43.707031 68.207031 43.707031 C 70.023438 44.121094 71.859375 44.46875 73.695312 44.800781 L 62.921875 44.800781 C 62.277344 44.449219 61.640625 44.082031 61.03125 43.695312 L 63.605469 43.695312 L 64.773438 44.507812 C 64.789062 44.519531 64.800781 44.523438 64.8125 44.523438 C 64.835938 44.523438 64.859375 44.511719 64.871094 44.492188 C 64.894531 44.460938 64.886719 44.417969 64.855469 44.394531 Z M 53.046875 43.726562 C 53.0625 43.71875 53.070312 43.707031 53.082031 43.695312 L 59.085938 43.695312 L 59.476562 44.394531 C 59.488281 44.414062 59.511719 44.429688 59.535156 44.429688 C 59.546875 44.429688 59.558594 44.425781 59.570312 44.421875 C 59.601562 44.402344 59.613281 44.359375 59.59375 44.328125 L 59.246094 43.695312 L 60.523438 43.695312 C 60.53125 43.699219 60.53125 43.703125 60.542969 43.710938 C 61.125 44.097656 61.730469 44.457031 62.347656 44.800781 L 51.335938 44.800781 C 51.921875 44.460938 52.492188 44.105469 53.046875 43.726562 Z M 57.144531 43.417969 L 53.101562 43.417969 C 54.058594 42.953125 54.632812 42.320312 54.816406 41.53125 C 54.921875 41.53125 55.027344 41.53125 55.132812 41.53125 C 55.804688 41.53125 56.5 41.5 57.214844 41.4375 Z M 51.273438 43.726562 C 51.285156 43.71875 51.300781 43.710938 51.316406 43.703125 C 51.3125 43.707031 51.3125 43.707031 51.308594 43.707031 C 51.296875 43.710938 51.289062 43.71875 51.28125 43.722656 C 51.277344 43.726562 51.277344 43.726562 51.273438 43.726562 Z M 51.242188 43.777344 C 51.246094 43.765625 51.253906 43.753906 51.261719 43.742188 C 51.253906 43.75 51.246094 43.761719 51.242188 43.777344 Z M 51.234375 43.8125 C 51.238281 43.804688 51.238281 43.792969 51.238281 43.785156 C 51.238281 43.792969 51.238281 43.804688 51.234375 43.8125 Z M 51.234375 43.832031 Z M 49.800781 44.113281 C 49.75 44.714844 49.75 44.714844 49.285156 44.570312 C 49.3125 44.394531 49.34375 44.214844 49.382812 43.996094 C 49.554688 44.042969 49.683594 44.078125 49.800781 44.113281 Z M 50.648438 43.953125 C 50.269531 44 49.910156 44 49.644531 43.984375 C 49.910156 44 50.265625 44 50.648438 43.953125 Z M 49.453125 43.96875 C 49.453125 43.96875 49.449219 43.96875 49.449219 43.96875 C 49.484375 43.957031 49.519531 43.941406 49.554688 43.925781 C 49.519531 43.941406 49.484375 43.957031 49.453125 43.96875 Z M 48.394531 44.304688 C 48.246094 44.484375 48.148438 44.601562 48.054688 44.714844 C 48.019531 44.695312 47.984375 44.671875 47.949219 44.648438 C 47.972656 44.519531 47.992188 44.382812 48.015625 44.226562 C 48.128906 44.253906 48.203125 44.265625 48.394531 44.304688 Z M 88.460938 45.042969 L 109.816406 48.945312 L 49.941406 48.945312 L 52.589844 46.660156 C 52.621094 46.632812 52.625 46.589844 52.597656 46.5625 C 52.574219 46.535156 52.53125 46.527344 52.503906 46.554688 L 49.734375 48.945312 L 31.253906 48.945312 L 43.050781 45.074219 L 50.273438 45.074219 C 49.03125 45.753906 47.753906 46.378906 46.519531 47.03125 C 46.363281 47.113281 46.5 47.351562 46.65625 47.269531 C 48.039062 46.539062 49.46875 45.84375 50.847656 45.074219 L 62.851562 45.074219 C 64.285156 45.84375 65.769531 46.539062 67.203125 47.269531 C 67.363281 47.347656 67.503906 47.109375 67.34375 47.03125 C 66.0625 46.378906 64.738281 45.753906 63.445312 45.074219 L 75.269531 45.074219 C 76.570312 45.300781 77.875 45.519531 79.167969 45.75 C 82.085938 46.265625 85.003906 46.777344 87.921875 47.28125 C 88.097656 47.3125 88.171875 47.046875 87.996094 47.015625 C 85.125 46.519531 82.257812 46.019531 79.390625 45.507812 C 78.554688 45.363281 77.722656 45.21875 76.882812 45.074219 L 88.375 45.074219 C 88.40625 45.074219 88.4375 45.0625 88.460938 45.042969 Z M 73.210938 5.507812 C 73.136719 5.617188 73.097656 5.679688 73.023438 5.796875 C 72.929688 5.65625 72.867188 5.554688 72.71875 5.324219 C 72.960938 5.414062 73.066406 5.453125 73.210938 5.507812 Z M 80.558594 20.804688 C 81.628906 21.425781 82.351562 22.316406 82.667969 23.335938 C 82.34375 22.742188 81.855469 22.21875 81.402344 21.757812 C 80.925781 21.277344 80.398438 20.851562 79.851562 20.457031 C 80.085938 20.566406 80.320312 20.675781 80.558594 20.804688 Z M 111.476562 49.070312 C 111.476562 49.058594 111.472656 49.046875 111.46875 49.035156 C 111.46875 49.027344 111.460938 49.019531 111.457031 49.011719 C 111.453125 49.003906 111.449219 48.996094 111.441406 48.992188 C 111.4375 48.984375 111.433594 48.980469 111.429688 48.976562 C 111.410156 48.964844 111.390625 48.949219 111.363281 48.949219 L 81.089844 43.417969 L 77.792969 43.417969 C 77.675781 42.855469 77.570312 42.292969 77.46875 41.730469 C 76.792969 37.996094 76.40625 34.199219 76.046875 30.421875 C 76.089844 30.34375 76.125 30.261719 76.164062 30.1875 C 76.621094 29.289062 76.976562 28.34375 77.1875 27.335938 C 78.375 28.34375 79.921875 28.578125 81.328125 27.796875 C 82.25 27.289062 82.859375 26.386719 83.023438 25.398438 L 83.042969 25.402344 C 83.410156 23.476562 82.511719 21.621094 80.691406 20.5625 C 80.089844 20.238281 79.507812 20 78.890625 19.746094 C 78.820312 19.714844 78.746094 19.683594 78.667969 19.652344 C 78.640625 19.636719 78.613281 19.617188 78.585938 19.597656 C 77.539062 18.929688 76.457031 18.347656 75.558594 17.472656 C 75.144531 17.070312 74.804688 16.597656 74.503906 16.105469 C 74.253906 15.6875 73.929688 15.207031 73.78125 14.710938 C 73.339844 15.796875 72.714844 16.867188 71.671875 17.460938 C 71.640625 17.476562 71.609375 17.480469 71.578125 17.476562 C 71.796875 18.5625 72.339844 19.871094 73.164062 20.585938 C 73.011719 20.585938 72.859375 20.589844 72.707031 20.589844 C 72.023438 20.589844 71.53125 20.351562 71.058594 19.871094 C 70.628906 19.429688 70.675781 18.648438 70.613281 18.058594 C 70.914062 17.8125 71.207031 17.550781 71.484375 17.273438 C 71.492188 17.253906 71.507812 17.238281 71.527344 17.226562 C 71.53125 17.222656 71.53125 17.222656 71.535156 17.222656 C 72.632812 16.589844 73.246094 15.386719 73.667969 14.242188 C 73.675781 14.226562 73.683594 14.214844 73.691406 14.207031 C 74.972656 11.671875 75.355469 8.699219 74.375 5.992188 C 73.558594 3.742188 71.738281 2.050781 69.558594 1.121094 C 66.964844 0.015625 64.242188 0.480469 62.242188 2.464844 C 60.84375 2.222656 59.554688 3.542969 58.773438 4.554688 C 57.761719 5.871094 57.289062 7.398438 57.125 9.03125 C 56.972656 10.546875 57.117188 12.09375 57.554688 13.550781 C 57.960938 14.914062 58.859375 16.421875 60.472656 16.390625 C 60.484375 16.390625 60.496094 16.386719 60.507812 16.386719 C 60.523438 16.429688 60.539062 16.472656 60.558594 16.519531 C 60.957031 17.433594 61.523438 18.21875 62.191406 18.785156 C 62.9375 19.414062 63.792969 19.824219 64.664062 19.96875 C 64.742188 19.980469 64.835938 19.984375 64.933594 19.988281 C 64.960938 19.988281 64.992188 19.992188 65.027344 19.992188 L 65.089844 19.992188 C 65.15625 20.289062 65.199219 20.585938 65.019531 20.789062 C 64.902344 20.925781 64.742188 21.027344 64.570312 21.105469 C 64.28125 21.230469 63.941406 21.292969 63.628906 21.355469 L 63.433594 21.390625 C 62.121094 21.652344 60.890625 21.992188 60.167969 23.292969 C 59.265625 24.917969 58.609375 26.578125 58.164062 28.371094 C 57.355469 29.679688 52.59375 35.128906 50.949219 36.621094 C 50.496094 37.03125 49.359375 38.007812 47.914062 38.945312 C 47.777344 38.96875 47.640625 39 47.507812 39.035156 L 44.183594 38.363281 C 44.179688 38.363281 44.179688 38.363281 44.179688 38.363281 C 44.15625 38.355469 44.132812 38.359375 44.113281 38.367188 C 44.105469 38.371094 44.101562 38.371094 44.097656 38.371094 C 44.089844 38.375 44.082031 38.378906 44.078125 38.382812 L 43.472656 38.789062 C 43.445312 38.804688 43.421875 38.839844 43.414062 38.875 C 43.40625 38.910156 43.417969 38.949219 43.4375 38.980469 C 43.449219 38.996094 43.976562 39.757812 44.585938 40.636719 C 44.539062 40.652344 44.492188 40.671875 44.445312 40.683594 C 44.328125 40.726562 44.207031 40.765625 44.089844 40.800781 C 43.855469 40.875 43.644531 40.933594 43.449219 40.972656 C 43.242188 41.019531 43.09375 41.03125 42.941406 40.96875 L 42.832031 40.929688 C 42.667969 40.863281 42.503906 40.796875 42.335938 40.738281 C 41.929688 40.585938 41.472656 40.515625 41.035156 40.515625 C 40.132812 40.519531 39.203125 40.808594 38.351562 41.347656 C 37.59375 41.832031 37 42.359375 36.585938 42.917969 C 36.460938 43.09375 36.449219 43.277344 36.539062 43.417969 L 31.777344 43.417969 L 1.527344 48.949219 C 1.5 48.949219 1.480469 48.964844 1.460938 48.976562 C 1.457031 48.984375 1.449219 48.988281 1.445312 48.992188 C 1.441406 49 1.4375 49.003906 1.433594 49.011719 C 1.429688 49.019531 1.421875 49.03125 1.421875 49.039062 C 1.417969 49.050781 1.414062 49.058594 1.414062 49.070312 C 1.414062 49.074219 1.414062 49.078125 1.414062 49.082031 L 1.414062 50.601562 C 1.414062 50.675781 1.476562 50.742188 1.550781 50.742188 C 4.296875 50.746094 7.050781 50.753906 9.800781 50.761719 C 16.660156 50.78125 23.523438 50.796875 30.382812 50.8125 C 39.28125 50.835938 48.171875 50.859375 57.066406 50.882812 C 65.914062 50.902344 74.765625 50.925781 83.609375 50.949219 C 90.332031 50.964844 97.054688 50.980469 103.773438 51 C 106.296875 51.003906 108.816406 51.011719 111.339844 51.015625 C 111.417969 51.015625 111.476562 50.953125 111.476562 50.878906 L 111.476562 49.082031 C 111.476562 49.078125 111.476562 49.074219 111.476562 49.070312 "/></g></g></svg>