<svg xmlns="http://www.w3.org/2000/svg" xmlns:xlink="http://www.w3.org/1999/xlink" width="150" zoomAndPan="magnify" viewBox="0 0 112.5 112.499997" height="150" preserveAspectRatio="xMidYMid meet" version="1.2"><defs><clipPath id="f9f6209420"><path d="M 0 0 L 112 0 L 112 51.519531 L 0 51.519531 Z M 0 0 "/></clipPath><clipPath id="431f23171e"><path d="M 0 0.0429688 L 112.003906 0.0429688 L 112.003906 51.476562 L 0 51.476562 Z M 0 0.0429688 "/></clipPath></defs><g id="e5c643f753"><g clip-rule="nonzero" clip-path="url(#f9f6209420)"><path style=" stroke:none;fill-rule:nonzero;fill:#ffffff;fill-opacity:1;" d="M 73.019531 20.613281 C 72.863281 20.617188 72.707031 20.617188 72.546875 20.617188 C 71.84375 20.617188 71.296875 20.378906 70.773438 19.84375 C 70.386719 19.449219 70.34375 18.832031 70.308594 18.285156 C 70.300781 18.15625 70.292969 18.03125 70.28125 17.914062 L 70.269531 17.835938 L 70.332031 17.789062 C 70.632812 17.542969 70.925781 17.277344 71.203125 17 L 71.316406 17.082031 C 71.3125 17.089844 71.304688 17.09375 71.300781 17.097656 C 71.257812 17.179688 71.316406 17.285156 71.402344 17.304688 C 71.410156 17.304688 71.414062 17.304688 71.421875 17.304688 L 71.445312 17.304688 C 71.460938 17.304688 71.480469 17.300781 71.496094 17.289062 C 71.519531 17.277344 71.539062 17.257812 71.5625 17.246094 C 71.554688 17.300781 71.554688 17.355469 71.570312 17.410156 C 71.785156 18.402344 72.292969 19.660156 73.109375 20.367188 L 73.386719 20.605469 Z M 56.847656 43.875 L 52.601562 43.875 L 52.539062 43.609375 C 53.46875 43.15625 54.03125 42.539062 54.207031 41.78125 L 54.230469 41.671875 L 54.664062 41.671875 C 55.339844 41.671875 56.027344 41.640625 56.773438 41.574219 L 56.929688 41.5625 Z M 111.859375 49.515625 L 111.859375 49.507812 L 81.078125 43.875 L 77.609375 43.875 L 77.585938 43.765625 C 77.464844 43.179688 77.355469 42.601562 77.257812 42.042969 C 76.570312 38.238281 76.179688 34.414062 75.808594 30.507812 L 75.804688 30.464844 L 75.824219 30.429688 C 75.84375 30.390625 75.863281 30.351562 75.882812 30.3125 C 75.902344 30.269531 75.921875 30.230469 75.941406 30.191406 C 76.433594 29.21875 76.769531 28.28125 76.96875 27.324219 L 77.019531 27.089844 L 77.199219 27.246094 C 77.898438 27.839844 78.714844 28.15625 79.550781 28.15625 C 80.136719 28.15625 80.710938 28 81.253906 27.699219 C 82.128906 27.214844 82.746094 26.339844 82.90625 25.355469 L 82.953125 25.222656 L 82.953125 25.226562 C 83.25 23.367188 82.359375 21.59375 80.609375 20.574219 C 79.984375 20.238281 79.347656 19.980469 78.789062 19.75 L 78.546875 19.644531 C 78.515625 19.625 78.484375 19.605469 78.457031 19.585938 C 78.230469 19.441406 78.003906 19.300781 77.777344 19.160156 C 76.945312 18.648438 76.082031 18.113281 75.355469 17.402344 C 74.972656 17.03125 74.625 16.582031 74.257812 15.984375 L 74.148438 15.804688 C 73.972656 15.515625 73.777344 15.199219 73.636719 14.871094 C 73.589844 14.839844 73.535156 14.84375 73.480469 14.871094 C 73.535156 14.746094 73.589844 14.617188 73.644531 14.488281 C 73.699219 14.355469 73.75 14.21875 73.800781 14.085938 C 73.859375 13.929688 73.640625 13.859375 73.554688 13.972656 C 73.542969 13.984375 73.535156 13.996094 73.53125 14.011719 C 73.40625 14.34375 73.214844 14.632812 72.996094 14.910156 C 73.113281 14.664062 73.230469 14.402344 73.339844 14.113281 L 73.320312 14.113281 L 73.390625 13.976562 C 73.394531 13.972656 73.40625 13.9375 73.40625 13.9375 L 73.417969 13.925781 L 73.425781 13.910156 C 74.785156 11.214844 75.035156 8.207031 74.113281 5.65625 C 73.34375 3.53125 71.589844 1.753906 69.292969 0.773438 C 68.378906 0.382812 67.453125 0.1875 66.53125 0.1875 C 64.832031 0.1875 63.265625 0.851562 62 2.113281 L 61.949219 2.164062 L 61.878906 2.152344 C 61.773438 2.132812 61.664062 2.121094 61.558594 2.121094 C 60.355469 2.121094 59.222656 3.269531 58.484375 4.230469 C 57.554688 5.433594 57.015625 6.902344 56.835938 8.714844 C 56.683594 10.242188 56.832031 11.816406 57.265625 13.269531 C 57.515625 14.109375 58.289062 16.0625 60.050781 16.0625 L 60.101562 16.058594 L 60.222656 16.027344 L 60.269531 16.148438 C 60.285156 16.191406 60.300781 16.230469 60.320312 16.273438 C 60.714844 17.191406 61.277344 17.972656 61.9375 18.53125 C 62.679688 19.15625 63.527344 19.5625 64.382812 19.707031 C 64.460938 19.714844 64.550781 19.722656 64.640625 19.726562 L 64.738281 19.730469 L 64.914062 19.730469 L 64.9375 19.839844 C 65.007812 20.15625 65.0625 20.515625 64.835938 20.773438 C 64.710938 20.917969 64.546875 21.035156 64.328125 21.132812 C 64.03125 21.261719 63.679688 21.332031 63.371094 21.390625 L 63.144531 21.433594 C 61.84375 21.691406 60.617188 22.027344 59.914062 23.300781 C 59 24.949219 58.335938 26.628906 57.886719 28.441406 L 57.882812 28.464844 L 57.871094 28.484375 C 57.046875 29.8125 52.160156 35.410156 50.503906 36.917969 C 50.171875 37.21875 48.96875 38.28125 47.398438 39.296875 L 47.375 39.3125 L 47.347656 39.316406 C 47.210938 39.34375 47.078125 39.375 46.945312 39.410156 L 46.914062 39.417969 L 43.523438 38.726562 L 43.496094 38.726562 C 43.492188 38.726562 43.488281 38.730469 43.484375 38.730469 L 42.871094 39.125 C 42.886719 39.140625 42.996094 39.300781 43.703125 40.324219 L 44.152344 40.976562 L 43.933594 41.054688 C 43.898438 41.066406 43.867188 41.078125 43.839844 41.085938 C 43.714844 41.128906 43.59375 41.171875 43.46875 41.207031 C 43.195312 41.292969 42.988281 41.347656 42.808594 41.386719 C 42.667969 41.414062 42.574219 41.425781 42.484375 41.425781 C 42.386719 41.425781 42.296875 41.410156 42.214844 41.375 L 42.097656 41.332031 C 41.933594 41.265625 41.765625 41.203125 41.597656 41.140625 C 41.210938 40.996094 40.769531 40.921875 40.320312 40.921875 C 39.429688 40.925781 38.511719 41.210938 37.667969 41.746094 C 36.910156 42.226562 36.316406 42.753906 35.90625 43.3125 C 35.816406 43.4375 35.800781 43.5625 35.863281 43.660156 L 36.003906 43.878906 L 30.925781 43.878906 L 0.144531 49.515625 L 0.140625 49.53125 L 0.140625 51.058594 L 8.535156 51.078125 C 15.515625 51.097656 22.5 51.113281 29.480469 51.132812 L 29.546875 51.132812 C 38.578125 51.152344 47.605469 51.175781 56.636719 51.203125 L 111.863281 51.339844 L 111.863281 49.53125 L 111.859375 49.515625 "/></g><path style=" stroke:none;fill-rule:nonzero;fill:#100f0d;fill-opacity:1;" d="M 64.902344 16.046875 C 64.890625 16.082031 64.871094 16.117188 64.855469 16.152344 C 64.523438 16.808594 63.566406 17.03125 62.902344 16.867188 C 62.726562 16.824219 62.648438 17.09375 62.828125 17.136719 C 63.609375 17.332031 64.628906 17.066406 65.058594 16.355469 C 65.105469 16.28125 65.144531 16.203125 65.175781 16.121094 C 65.238281 15.949219 64.964844 15.878906 64.902344 16.046875 "/><path style=" stroke:none;fill-rule:nonzero;fill:#100f0d;fill-opacity:1;" d="M 63 10.546875 C 63.132812 10.53125 63.253906 10.457031 63.375 10.410156 C 63.523438 10.355469 63.679688 10.320312 63.835938 10.289062 C 64.023438 10.246094 64.21875 10.226562 64.410156 10.265625 C 64.523438 10.289062 64.628906 10.324219 64.742188 10.335938 C 64.808594 10.34375 64.929688 10.355469 64.957031 10.261719 C 65.03125 10 64.445312 9.84375 64.320312 9.8125 C 63.914062 9.722656 63.496094 9.796875 63.144531 10.015625 C 63.070312 10.0625 62.652344 10.339844 62.820312 10.492188 C 62.871094 10.542969 62.9375 10.550781 63 10.546875 "/><path style=" stroke:none;fill-rule:nonzero;fill:#100f0d;fill-opacity:1;" d="M 59.769531 12.6875 C 59.742188 12.34375 59.898438 12.050781 60.117188 12.035156 C 60.332031 12.019531 60.53125 12.285156 60.554688 12.628906 C 60.582031 12.972656 60.425781 13.265625 60.210938 13.28125 C 59.992188 13.300781 59.796875 13.035156 59.769531 12.6875 "/><path style=" stroke:none;fill-rule:nonzero;fill:#100f0d;fill-opacity:1;" d="M 63.558594 11.847656 C 63.53125 11.5 63.6875 11.210938 63.902344 11.191406 C 64.121094 11.175781 64.316406 11.441406 64.34375 11.789062 C 64.371094 12.132812 64.214844 12.425781 63.996094 12.441406 C 63.78125 12.457031 63.582031 12.191406 63.558594 11.847656 "/><path style=" stroke:none;fill-rule:nonzero;fill:#100f0d;fill-opacity:1;" d="M 62.585938 15.441406 C 61.640625 15.292969 61.675781 14.628906 61.859375 13.863281 C 61.90625 13.671875 61.949219 13.480469 61.988281 13.292969 C 62.078125 12.839844 62.144531 12.386719 62.128906 11.917969 C 62.121094 11.738281 61.839844 11.738281 61.847656 11.917969 C 61.859375 12.226562 61.785156 12.605469 61.699219 13.003906 C 61.449219 14.164062 61.105469 15.488281 62.511719 15.714844 C 62.6875 15.742188 62.765625 15.472656 62.585938 15.441406 "/><path style=" stroke:none;fill-rule:nonzero;fill:#100f0d;fill-opacity:1;" d="M 44.183594 46.292969 L 38.160156 49.171875 C 38.125 49.1875 38.109375 49.230469 38.125 49.265625 C 38.136719 49.289062 38.164062 49.304688 38.191406 49.304688 C 38.199219 49.304688 38.210938 49.300781 38.222656 49.296875 L 44.242188 46.417969 C 44.28125 46.402344 44.292969 46.359375 44.277344 46.328125 C 44.261719 46.292969 44.21875 46.277344 44.183594 46.292969 "/><path style=" stroke:none;fill-rule:nonzero;fill:#100f0d;fill-opacity:1;" d="M 30.644531 47.867188 C 30.648438 47.867188 30.65625 47.863281 30.664062 47.863281 L 35.851562 46.503906 C 35.890625 46.492188 35.910156 46.453125 35.902344 46.417969 C 35.890625 46.378906 35.855469 46.359375 35.816406 46.367188 L 30.628906 47.726562 C 30.589844 47.738281 30.566406 47.773438 30.578125 47.8125 C 30.585938 47.84375 30.613281 47.867188 30.644531 47.867188 "/><path style=" stroke:none;fill-rule:nonzero;fill:#100f0d;fill-opacity:1;" d="M 61.640625 46.300781 C 61.609375 46.277344 61.566406 46.28125 61.539062 46.308594 C 61.515625 46.339844 61.519531 46.382812 61.546875 46.410156 L 64.300781 48.785156 C 64.3125 48.796875 64.332031 48.804688 64.347656 48.804688 C 64.367188 48.804688 64.386719 48.796875 64.402344 48.777344 C 64.425781 48.75 64.421875 48.707031 64.390625 48.679688 L 61.640625 46.300781 "/><path style=" stroke:none;fill-rule:nonzero;fill:#100f0d;fill-opacity:1;" d="M 56.035156 46.363281 C 55.996094 46.367188 55.96875 46.398438 55.96875 46.4375 L 56.039062 48.210938 C 56.039062 48.25 56.070312 48.277344 56.109375 48.277344 C 56.109375 48.277344 56.109375 48.277344 56.113281 48.277344 C 56.148438 48.277344 56.179688 48.246094 56.179688 48.203125 L 56.109375 46.433594 C 56.105469 46.394531 56.070312 46.367188 56.035156 46.363281 "/><path style=" stroke:none;fill-rule:nonzero;fill:#100f0d;fill-opacity:1;" d="M 67.964844 46.292969 C 67.929688 46.277344 67.886719 46.292969 67.871094 46.328125 C 67.855469 46.363281 67.871094 46.40625 67.90625 46.421875 L 73.386719 48.796875 C 73.394531 48.800781 73.402344 48.804688 73.414062 48.804688 C 73.441406 48.804688 73.464844 48.789062 73.476562 48.761719 C 73.492188 48.726562 73.476562 48.683594 73.441406 48.667969 L 67.964844 46.292969 "/><path style=" stroke:none;fill-rule:nonzero;fill:#100f0d;fill-opacity:1;" d="M 82.671875 48.667969 L 75.023438 45.839844 C 74.988281 45.828125 74.945312 45.847656 74.933594 45.882812 C 74.917969 45.921875 74.9375 45.960938 74.976562 45.972656 L 82.625 48.800781 C 82.632812 48.800781 82.640625 48.804688 82.648438 48.804688 C 82.679688 48.804688 82.703125 48.785156 82.714844 48.757812 C 82.726562 48.722656 82.710938 48.679688 82.671875 48.667969 "/><path style=" stroke:none;fill-rule:nonzero;fill:#100f0d;fill-opacity:1;" d="M 72.046875 45.84375 C 72.011719 45.828125 71.96875 45.84375 71.953125 45.878906 C 71.9375 45.914062 71.953125 45.957031 71.992188 45.972656 L 75.652344 47.609375 C 75.660156 47.613281 75.671875 47.613281 75.679688 47.613281 C 75.707031 47.613281 75.734375 47.597656 75.742188 47.574219 C 75.761719 47.539062 75.742188 47.496094 75.707031 47.480469 L 72.046875 45.84375 "/><path style=" stroke:none;fill-rule:nonzero;fill:#100f0d;fill-opacity:1;" d="M 84.960938 45.8125 L 90.945312 46.796875 C 90.949219 46.796875 90.953125 46.796875 90.957031 46.796875 C 90.992188 46.796875 91.019531 46.773438 91.027344 46.738281 C 91.03125 46.699219 91.007812 46.664062 90.96875 46.65625 L 84.984375 45.671875 C 84.945312 45.664062 84.910156 45.691406 84.902344 45.730469 C 84.898438 45.769531 84.921875 45.804688 84.960938 45.8125 "/><path style=" stroke:none;fill-rule:nonzero;fill:#100f0d;fill-opacity:1;" d="M 75.789062 44.339844 L 78.101562 44.765625 C 78.109375 44.765625 78.109375 44.765625 78.117188 44.765625 C 78.148438 44.765625 78.179688 44.742188 78.183594 44.707031 C 78.191406 44.667969 78.167969 44.632812 78.128906 44.625 L 75.8125 44.203125 C 75.773438 44.195312 75.738281 44.222656 75.730469 44.257812 C 75.726562 44.296875 75.75 44.335938 75.789062 44.339844 "/><path style=" stroke:none;fill-rule:nonzero;fill:#100f0d;fill-opacity:1;" d="M 68.09375 44.757812 C 68.105469 44.761719 68.117188 44.765625 68.128906 44.765625 C 68.152344 44.765625 68.179688 44.753906 68.191406 44.730469 C 68.210938 44.695312 68.199219 44.652344 68.164062 44.632812 L 67.214844 44.09375 C 67.179688 44.074219 67.136719 44.085938 67.117188 44.121094 C 67.097656 44.15625 67.109375 44.199219 67.144531 44.214844 L 68.09375 44.757812 "/><path style=" stroke:none;fill-rule:nonzero;fill:#100f0d;fill-opacity:1;" d="M 54.429688 44.988281 C 54.453125 44.988281 54.472656 44.980469 54.488281 44.960938 L 54.847656 44.46875 C 54.871094 44.4375 54.867188 44.390625 54.832031 44.367188 C 54.804688 44.347656 54.757812 44.351562 54.734375 44.382812 L 54.371094 44.878906 C 54.351562 44.910156 54.355469 44.953125 54.386719 44.976562 C 54.402344 44.984375 54.414062 44.988281 54.429688 44.988281 "/><path style=" stroke:none;fill-rule:nonzero;fill:#100f0d;fill-opacity:1;" d="M 34.421875 44.980469 C 34.425781 44.980469 34.429688 44.980469 34.433594 44.980469 L 38.367188 44.226562 C 38.40625 44.21875 38.429688 44.179688 38.421875 44.144531 C 38.414062 44.105469 38.378906 44.078125 38.339844 44.089844 L 34.40625 44.84375 C 34.371094 44.851562 34.34375 44.886719 34.351562 44.925781 C 34.359375 44.957031 34.386719 44.980469 34.421875 44.980469 "/><path style=" stroke:none;fill-rule:nonzero;fill:#100f0d;fill-opacity:1;" d="M 31.054688 44.859375 C 31.058594 44.859375 31.0625 44.859375 31.066406 44.859375 L 32.996094 44.488281 C 33.03125 44.484375 33.058594 44.445312 33.050781 44.40625 C 33.042969 44.367188 33.003906 44.34375 32.96875 44.351562 L 31.042969 44.71875 C 31.003906 44.726562 30.976562 44.765625 30.984375 44.804688 C 30.992188 44.835938 31.019531 44.859375 31.054688 44.859375 "/><g clip-rule="nonzero" clip-path="url(#431f23171e)"><path style=" stroke:none;fill-rule:nonzero;fill:#100f0d;fill-opacity:1;" d="M 111.722656 51.199219 L 111.640625 51.199219 C 111.21875 51.195312 110.800781 51.195312 110.382812 51.195312 C 108.554688 51.1875 106.730469 51.183594 104.90625 51.179688 C 98.230469 51.164062 91.554688 51.148438 84.878906 51.128906 C 75.933594 51.105469 66.988281 51.085938 58.042969 51.0625 C 48.941406 51.039062 39.84375 51.015625 30.746094 50.992188 C 23.609375 50.976562 16.472656 50.957031 9.335938 50.9375 C 6.316406 50.933594 3.296875 50.925781 0.277344 50.914062 C 0.28125 50.894531 0.28125 50.871094 0.28125 50.839844 L 0.28125 49.625 C 0.300781 49.640625 0.328125 49.648438 0.351562 49.648438 L 111.722656 49.648438 Z M 30.925781 44.015625 L 43.722656 44.015625 C 41.769531 44.441406 39.796875 44.800781 37.820312 45.144531 L 25.132812 45.144531 C 25.054688 45.144531 24.992188 45.207031 24.992188 45.285156 C 24.992188 45.359375 25.054688 45.425781 25.132812 45.425781 L 30.566406 45.425781 L 24.492188 46.464844 C 24.453125 46.46875 24.429688 46.507812 24.433594 46.546875 C 24.441406 46.578125 24.472656 46.601562 24.503906 46.601562 L 24.515625 46.601562 L 31.402344 45.425781 L 36.191406 45.425781 C 35.324219 45.574219 34.460938 45.722656 33.59375 45.875 C 30.691406 46.390625 27.789062 46.898438 24.882812 47.402344 C 24.703125 47.433594 24.78125 47.703125 24.957031 47.671875 C 27.863281 47.171875 30.765625 46.660156 33.671875 46.148438 C 35.054688 45.902344 36.445312 45.667969 37.839844 45.425781 L 41.921875 45.425781 L 29.925781 49.363281 C 29.921875 49.363281 29.921875 49.367188 29.921875 49.367188 L 1.691406 49.367188 Z M 38.285156 43.515625 C 38.253906 43.585938 38.230469 43.660156 38.214844 43.734375 L 37.871094 43.734375 C 37.988281 43.632812 38.132812 43.558594 38.285156 43.515625 Z M 37.496094 43.734375 L 36.90625 43.734375 C 37.054688 43.640625 37.1875 43.53125 37.316406 43.417969 C 37.488281 43.269531 37.648438 43.128906 37.835938 43.046875 C 38.234375 42.875 38.699219 42.792969 39.152344 42.761719 C 38.878906 42.878906 38.667969 43.019531 38.511719 43.179688 C 38.117188 43.238281 37.726562 43.398438 37.496094 43.734375 Z M 36.023438 43.394531 C 36.421875 42.851562 36.996094 42.335938 37.742188 41.867188 C 38.5625 41.34375 39.457031 41.066406 40.320312 41.058594 C 40.746094 41.058594 41.164062 41.128906 41.550781 41.269531 C 41.714844 41.332031 41.882812 41.398438 42.050781 41.460938 L 42.160156 41.503906 C 42.402344 41.601562 42.632812 41.5625 42.835938 41.519531 C 43.042969 41.476562 43.265625 41.417969 43.511719 41.34375 C 43.632812 41.304688 43.757812 41.261719 43.882812 41.21875 C 43.953125 41.199219 44.027344 41.167969 44.09375 41.140625 C 44.503906 41.738281 44.933594 42.363281 45.25 42.835938 C 45.226562 42.863281 45.207031 42.890625 45.1875 42.921875 C 45.089844 43.097656 45.105469 43.332031 45.226562 43.640625 C 45.242188 43.675781 45.257812 43.703125 45.273438 43.734375 L 38.503906 43.734375 C 38.625 43.285156 39.234375 42.746094 41.398438 42.613281 C 41.476562 42.613281 41.535156 42.542969 41.53125 42.464844 C 41.527344 42.390625 41.46875 42.328125 41.382812 42.332031 C 40.945312 42.363281 40.554688 42.40625 40.210938 42.46875 C 40.066406 42.464844 39.914062 42.460938 39.757812 42.460938 C 39.09375 42.460938 38.347656 42.519531 37.722656 42.785156 C 37.496094 42.886719 37.308594 43.046875 37.128906 43.203125 C 36.964844 43.347656 36.808594 43.484375 36.628906 43.570312 C 36.296875 43.722656 36.050781 43.671875 35.984375 43.589844 C 35.933594 43.53125 35.988281 43.441406 36.023438 43.394531 Z M 43.078125 39.171875 L 43.460938 38.914062 C 43.835938 39.441406 45.433594 41.699219 46.132812 42.734375 C 45.980469 42.671875 45.8125 42.625 45.617188 42.652344 C 45.570312 42.660156 45.53125 42.671875 45.488281 42.683594 C 44.742188 41.578125 43.421875 39.671875 43.078125 39.171875 Z M 44.152344 39.714844 C 44.15625 39.699219 44.164062 39.6875 44.179688 39.675781 C 44.164062 39.6875 44.15625 39.699219 44.152344 39.714844 Z M 44.144531 39.726562 C 44.140625 39.753906 44.15625 39.777344 44.179688 39.789062 C 44.15625 39.777344 44.140625 39.757812 44.144531 39.726562 Z M 46.761719 39.53125 C 46.757812 39.695312 46.785156 39.847656 46.851562 39.976562 C 46.878906 40.039062 46.921875 40.097656 46.964844 40.148438 C 47.316406 40.542969 48.035156 40.601562 48.757812 40.601562 C 48.796875 40.601562 48.832031 40.597656 48.871094 40.597656 L 49.5625 40.535156 L 48.871094 40.597656 L 46.765625 40.789062 L 45.996094 40.859375 C 45.957031 40.863281 45.925781 40.898438 45.929688 40.9375 C 45.933594 40.972656 45.964844 41 46 41 C 46.003906 41 46.003906 41 46.007812 41 L 46.75 40.933594 L 49.363281 40.695312 L 49.574219 40.675781 C 49.613281 40.671875 49.640625 40.636719 49.640625 40.601562 C 49.636719 40.582031 49.628906 40.566406 49.617188 40.554688 C 49.628906 40.566406 49.636719 40.582031 49.640625 40.601562 C 49.644531 40.640625 49.613281 40.675781 49.574219 40.675781 L 49.363281 40.695312 C 49.171875 41.039062 48.84375 41.429688 48.480469 41.796875 L 48.476562 41.796875 L 46.625 42.113281 L 46.109375 42.203125 L 46.011719 42.21875 L 46.109375 42.199219 C 45.640625 41.515625 44.980469 40.578125 44.457031 39.832031 L 46.363281 40.046875 C 46.367188 40.046875 46.367188 40.046875 46.371094 40.046875 C 46.40625 40.046875 46.4375 40.019531 46.441406 39.984375 C 46.445312 39.945312 46.417969 39.910156 46.378906 39.90625 L 44.347656 39.679688 C 44.136719 39.378906 43.949219 39.117188 43.816406 38.929688 Z M 49.613281 40.550781 C 49.613281 40.550781 49.613281 40.550781 49.609375 40.550781 C 49.613281 40.550781 49.613281 40.550781 49.613281 40.550781 Z M 46.195312 42.328125 L 46.011719 42.359375 L 46.199219 42.328125 L 46.609375 42.257812 L 48.292969 41.96875 C 47.703125 42.523438 47.0625 42.960938 46.742188 42.976562 C 46.699219 42.976562 46.660156 42.964844 46.617188 42.953125 C 46.597656 42.925781 46.574219 42.890625 46.546875 42.851562 C 46.460938 42.714844 46.339844 42.539062 46.195312 42.328125 Z M 48.679688 41.78125 C 48.679688 41.78125 48.679688 41.78125 48.679688 41.785156 C 48.679688 41.78125 48.679688 41.78125 48.679688 41.78125 Z M 48.648438 41.910156 C 48.671875 41.90625 48.691406 41.886719 48.699219 41.867188 C 48.691406 41.886719 48.675781 41.90625 48.648438 41.910156 L 48.511719 41.933594 Z M 45.933594 42.304688 C 45.933594 42.3125 45.9375 42.316406 45.941406 42.320312 C 45.9375 42.316406 45.933594 42.3125 45.933594 42.304688 Z M 45.976562 42.230469 C 45.980469 42.230469 45.984375 42.222656 45.988281 42.222656 C 45.984375 42.222656 45.980469 42.230469 45.976562 42.230469 Z M 49.757812 39.414062 C 50.121094 39.433594 50.496094 39.453125 50.867188 39.460938 C 50.929688 39.460938 50.984375 39.464844 51.039062 39.464844 C 51.046875 39.464844 51.046875 39.460938 51.054688 39.460938 C 51.0625 39.460938 51.070312 39.457031 51.078125 39.453125 C 51.089844 39.453125 51.097656 39.449219 51.109375 39.445312 C 51.113281 39.441406 51.117188 39.441406 51.117188 39.4375 C 51.128906 39.433594 51.148438 39.421875 51.160156 39.414062 C 51.84375 38.953125 54.378906 37.441406 56.625 36.101562 C 58.132812 35.199219 59.5625 34.347656 60.328125 33.875 C 61.363281 33.238281 62.328125 32.71875 63.269531 32.28125 C 63.484375 32.1875 63.710938 32.097656 63.929688 32.011719 C 64.195312 31.910156 64.46875 31.800781 64.730469 31.675781 C 65.203125 31.445312 65.578125 31.085938 65.941406 30.738281 L 66.035156 30.648438 C 67.203125 29.542969 67.914062 28.046875 68.605469 26.601562 C 69.023438 25.71875 69.460938 24.804688 69.988281 24.003906 C 70.269531 23.582031 70.644531 23.03125 71.078125 22.527344 C 72.019531 21.441406 72.960938 20.859375 73.882812 20.796875 C 74.242188 20.769531 74.699219 20.820312 74.980469 20.914062 C 75.796875 21.1875 76.238281 21.535156 76.597656 22.203125 C 77.214844 23.34375 77.300781 24.976562 76.855469 27.1875 C 76.140625 30.78125 73.585938 33.632812 71.027344 36.238281 C 69.660156 37.632812 68.15625 38.570312 66.289062 39.1875 C 64.183594 39.882812 62.28125 40.496094 60.3125 40.898438 C 58.023438 41.363281 56.089844 41.566406 54.234375 41.53125 C 54.226562 41.527344 54.21875 41.53125 54.214844 41.535156 C 54.207031 41.535156 54.203125 41.535156 54.195312 41.535156 C 54.1875 41.539062 54.175781 41.542969 54.167969 41.546875 C 54.15625 41.554688 54.152344 41.554688 54.144531 41.5625 C 54.136719 41.566406 54.136719 41.574219 54.128906 41.574219 C 54.125 41.582031 54.125 41.585938 54.117188 41.585938 C 54.117188 41.59375 54.113281 41.601562 54.109375 41.605469 C 54.105469 41.613281 54.105469 41.617188 54.101562 41.625 C 54.101562 41.628906 54.097656 41.632812 54.097656 41.632812 C 54.09375 41.636719 54.09375 41.640625 54.09375 41.644531 C 53.925781 42.558594 53.179688 43.257812 51.886719 43.722656 C 51.96875 43.652344 52.050781 43.582031 52.132812 43.507812 C 52.269531 43.382812 52.066406 43.1875 51.9375 43.308594 C 51.589844 43.628906 51.269531 43.890625 50.800781 44.019531 L 50.796875 44.019531 C 50.800781 44.019531 50.800781 44.019531 50.800781 44.019531 C 50.800781 44.019531 50.796875 44.019531 50.792969 44.019531 C 50.296875 44.105469 49.769531 44.148438 49.191406 44.171875 C 49.746094 43.910156 50.261719 43.53125 50.769531 43.167969 C 50.917969 43.0625 50.777344 42.816406 50.625 42.925781 C 49.816406 43.511719 48.980469 44.160156 47.949219 44.210938 C 47.375 44.214844 46.800781 44.1875 46.242188 44.046875 L 46.207031 44.039062 C 45.804688 43.945312 45.640625 43.902344 45.488281 43.53125 C 45.398438 43.316406 45.382812 43.152344 45.433594 43.058594 C 45.46875 42.996094 45.546875 42.949219 45.660156 42.929688 C 45.867188 42.902344 46.042969 42.996094 46.230469 43.09375 C 46.394531 43.179688 46.566406 43.269531 46.757812 43.257812 C 47.488281 43.222656 49.410156 41.5625 49.765625 40.496094 C 49.765625 40.492188 49.765625 40.488281 49.765625 40.484375 L 49.765625 40.472656 C 49.769531 40.464844 49.773438 40.457031 49.773438 40.449219 C 49.773438 40.445312 49.773438 40.445312 49.773438 40.445312 C 49.769531 40.433594 49.769531 40.425781 49.765625 40.417969 C 49.765625 40.410156 49.761719 40.398438 49.757812 40.390625 C 49.757812 40.382812 49.75 40.378906 49.746094 40.375 C 49.746094 40.371094 49.742188 40.367188 49.738281 40.363281 C 49.734375 40.355469 49.734375 40.351562 49.726562 40.347656 C 49.722656 40.34375 49.714844 40.339844 49.710938 40.335938 C 49.703125 40.328125 49.691406 40.324219 49.679688 40.320312 C 49.679688 40.316406 49.675781 40.316406 49.675781 40.316406 C 49.667969 40.3125 49.664062 40.3125 49.65625 40.3125 C 49.648438 40.3125 49.640625 40.308594 49.632812 40.308594 C 49.503906 40.308594 49.367188 40.3125 49.222656 40.3125 C 48.464844 40.328125 47.519531 40.34375 47.175781 39.960938 C 47.078125 39.847656 47.03125 39.707031 47.042969 39.527344 C 47.90625 39.300781 48.808594 39.351562 49.757812 39.414062 Z M 50.597656 37.019531 C 51.988281 35.761719 56.09375 31.140625 57.578125 29.144531 C 57.214844 30.859375 57.035156 32.675781 57.035156 34.675781 L 57.003906 35.542969 C 56.828125 35.648438 56.65625 35.75 56.480469 35.859375 C 54.117188 37.269531 51.679688 38.722656 50.996094 39.183594 C 50.59375 39.179688 50.179688 39.15625 49.777344 39.132812 C 49.171875 39.09375 48.554688 39.058594 47.949219 39.101562 C 49.210938 38.234375 50.179688 37.398438 50.597656 37.019531 Z M 58.019531 28.496094 C 58.464844 26.6875 59.125 25.007812 60.035156 23.367188 C 60.710938 22.148438 61.902344 21.820312 63.167969 21.570312 L 63.363281 21.535156 C 63.550781 21.5 63.742188 21.460938 63.929688 21.414062 C 63.738281 21.800781 63.695312 22.296875 63.695312 22.777344 C 63.695312 23.078125 63.710938 23.371094 63.71875 23.625 C 63.746094 24.457031 64.0625 25.097656 64.972656 25.078125 C 66.148438 25.054688 67.113281 24.148438 67.941406 23.417969 C 69.039062 22.453125 69.996094 21.304688 70.921875 20.171875 C 71.042969 20.285156 71.171875 20.386719 71.308594 20.476562 C 71.722656 20.757812 72.289062 20.761719 72.769531 20.761719 C 72.808594 20.761719 72.847656 20.761719 72.890625 20.757812 C 72.214844 21.042969 71.535156 21.566406 70.867188 22.34375 C 70.421875 22.855469 70.039062 23.417969 69.753906 23.847656 C 69.210938 24.664062 68.773438 25.589844 68.347656 26.480469 C 67.671875 27.902344 66.96875 29.375 65.839844 30.445312 L 65.746094 30.535156 C 65.398438 30.867188 65.039062 31.210938 64.605469 31.421875 C 64.355469 31.542969 64.085938 31.648438 63.828125 31.75 C 63.605469 31.835938 63.375 31.929688 63.15625 32.03125 C 62.199219 32.464844 61.226562 32.988281 60.175781 33.636719 C 60.175781 33.636719 60.171875 33.640625 60.167969 33.644531 C 59.542969 34.027344 58.480469 34.664062 57.289062 35.371094 L 57.316406 34.679688 C 57.316406 32.421875 57.542969 30.398438 58.019531 28.496094 Z M 65.261719 19.824219 C 65.304688 19.816406 65.34375 19.8125 65.386719 19.804688 C 65.34375 19.8125 65.304688 19.816406 65.261719 19.824219 Z M 64.941406 20.867188 C 65.082031 20.707031 65.132812 20.519531 65.136719 20.328125 C 65.136719 20.285156 65.132812 20.242188 65.128906 20.199219 C 65.132812 20.242188 65.136719 20.285156 65.136719 20.328125 C 65.15625 20.320312 65.171875 20.308594 65.1875 20.300781 C 65.378906 20.167969 65.546875 19.949219 65.667969 19.75 C 65.714844 19.742188 65.761719 19.730469 65.808594 19.71875 C 66.445312 19.550781 67.046875 19.25 67.542969 18.851562 C 67.605469 18.800781 67.613281 18.714844 67.5625 18.652344 C 67.515625 18.59375 67.425781 18.582031 67.367188 18.632812 C 67.363281 18.632812 67.359375 18.636719 67.351562 18.640625 C 66.886719 19.011719 66.332031 19.289062 65.738281 19.449219 C 65.453125 19.523438 65.164062 19.570312 64.898438 19.585938 C 64.714844 19.59375 64.542969 19.589844 64.410156 19.566406 C 63.574219 19.425781 62.75 19.035156 62.027344 18.421875 C 61.382812 17.875 60.835938 17.113281 60.449219 16.21875 C 59.667969 14.410156 59.21875 12.820312 59.078125 11.398438 C 59.070312 11.402344 59.0625 11.402344 59.054688 11.402344 C 59.0625 11.402344 59.070312 11.398438 59.074219 11.398438 C 59.164062 11.378906 59.242188 11.328125 59.324219 11.289062 C 59.4375 11.242188 59.558594 11.214844 59.675781 11.1875 C 59.734375 11.175781 59.792969 11.167969 59.851562 11.164062 C 59.941406 11.160156 60.035156 11.164062 60.128906 11.195312 C 60.214844 11.222656 60.300781 11.261719 60.386719 11.277344 C 60.441406 11.289062 60.539062 11.304688 60.554688 11.214844 C 60.601562 10.957031 60.132812 10.773438 60.035156 10.742188 C 59.824219 10.671875 59.617188 10.675781 59.425781 10.738281 C 59.320312 10.773438 59.21875 10.816406 59.125 10.886719 C 59.109375 10.898438 59.078125 10.925781 59.042969 10.957031 C 59.027344 10.75 59.027344 10.546875 59.027344 10.34375 C 59.027344 10.300781 59.027344 10.257812 59.027344 10.21875 L 59.027344 10.203125 C 58.882812 8.753906 59.351562 6.878906 60.769531 6.230469 C 60.984375 7.671875 62.144531 8.53125 63.546875 9.003906 C 64.585938 9.347656 65.644531 9.566406 66.382812 10.441406 C 66.90625 11.0625 67.589844 11.34375 68.359375 11.140625 C 68.414062 11.125 68.46875 11.113281 68.523438 11.09375 C 68.941406 11.027344 69.347656 11.207031 69.652344 11.601562 C 70.019531 12.082031 70.105469 12.734375 69.863281 13.183594 C 69.734375 13.429688 69.390625 13.65625 69.074219 13.707031 C 69.015625 13.71875 68.96875 13.777344 68.980469 13.839844 C 68.988281 13.878906 69.011719 13.910156 69.046875 13.929688 C 69.046875 13.933594 69.046875 13.941406 69.046875 13.949219 C 69.242188 14.828125 69.183594 15.695312 68.738281 16.5 C 68.710938 16.546875 68.71875 16.589844 68.738281 16.632812 C 68.84375 17.046875 69.972656 17.820312 70.136719 17.933594 C 70.136719 17.933594 70.136719 17.933594 70.140625 17.9375 C 70.183594 18.40625 70.136719 19.035156 70.335938 19.441406 C 70.433594 19.644531 70.566406 19.820312 70.71875 19.984375 C 69.457031 21.515625 68.121094 23.125 66.46875 24.25 C 66.011719 24.554688 65.515625 24.734375 64.96875 24.796875 C 64.292969 24.875 64.074219 24.355469 64.011719 23.792969 C 63.941406 23.113281 63.851562 21.835938 64.328125 21.304688 C 64.335938 21.296875 64.339844 21.285156 64.34375 21.273438 C 64.570312 21.179688 64.777344 21.050781 64.941406 20.867188 Z M 58.859375 11.253906 C 58.859375 11.203125 58.882812 11.152344 58.917969 11.101562 C 58.882812 11.152344 58.859375 11.203125 58.859375 11.253906 Z M 64.148438 8.574219 C 65.636719 8.992188 67.65625 9.199219 68.25 10.882812 C 67.246094 11.136719 66.867188 10.355469 66.140625 9.796875 C 65.605469 9.390625 65.003906 9.164062 64.375 8.964844 C 63.042969 8.542969 61.6875 8.011719 61.203125 6.78125 C 61.898438 7.695312 63.09375 8.28125 64.148438 8.574219 Z M 63.863281 2.183594 C 63.929688 2.289062 64 2.390625 64.070312 2.5 C 64.027344 2.527344 63.988281 2.558594 63.945312 2.589844 C 63.878906 2.480469 63.8125 2.375 63.746094 2.269531 C 63.78125 2.238281 63.820312 2.210938 63.863281 2.183594 Z M 66.589844 2.417969 C 66.789062 2.605469 66.867188 2.675781 66.984375 2.785156 C 66.855469 2.921875 66.75 3.027344 66.648438 3.132812 C 66.609375 3.117188 66.570312 3.097656 66.535156 3.082031 C 66.546875 2.90625 66.5625 2.730469 66.589844 2.417969 Z M 68.359375 4.851562 C 68.628906 4.957031 68.679688 5.125 68.570312 5.4375 C 68.125 5.339844 68.207031 5.125 68.359375 4.851562 Z M 69.734375 10.371094 C 69.761719 10.53125 69.792969 10.691406 69.832031 10.890625 C 69.742188 10.878906 69.652344 10.882812 69.648438 10.867188 C 69.617188 10.710938 69.597656 10.554688 69.574219 10.398438 C 69.628906 10.386719 69.683594 10.378906 69.734375 10.371094 Z M 70.105469 6.089844 C 70.140625 6.167969 70.175781 6.246094 70.210938 6.320312 C 70.179688 6.34375 70.148438 6.363281 70.117188 6.378906 L 69.964844 6.171875 C 70.011719 6.144531 70.058594 6.117188 70.105469 6.089844 Z M 73.644531 17.570312 C 73.921875 17.875 74.097656 18.070312 74.269531 18.265625 C 74.257812 18.308594 74.242188 18.355469 74.226562 18.398438 C 73.949219 18.371094 73.667969 18.34375 73.292969 18.304688 C 73.410156 18.0625 73.492188 17.886719 73.644531 17.570312 Z M 76.421875 18.640625 C 76.539062 18.734375 76.652344 18.820312 76.777344 18.910156 C 76.785156 18.925781 76.789062 18.933594 76.796875 18.945312 C 76.597656 18.957031 76.46875 18.964844 76.238281 18.980469 C 76.308594 18.84375 76.363281 18.75 76.421875 18.640625 Z M 77.273438 22.878906 C 77.246094 22.917969 77.226562 22.949219 77.203125 22.984375 C 77.191406 22.929688 77.171875 22.882812 77.15625 22.835938 C 77.195312 22.847656 77.230469 22.863281 77.273438 22.878906 Z M 77.4375 43.734375 L 56.992188 43.734375 L 57.003906 43.386719 L 57.066406 41.6875 C 57.234375 41.671875 57.40625 41.652344 57.574219 41.632812 C 58.453125 41.523438 59.378906 41.375 60.367188 41.171875 C 62.355469 40.765625 64.265625 40.152344 66.375 39.457031 C 68.289062 38.824219 69.832031 37.863281 71.226562 36.4375 C 72.882812 34.746094 74.535156 32.957031 75.707031 30.925781 C 76.113281 35.210938 76.578125 39.519531 77.4375 43.734375 Z M 81.054688 44.011719 L 87.222656 45.144531 L 75.167969 45.144531 C 73.175781 44.796875 71.183594 44.4375 69.210938 44.011719 Z M 64.558594 44.730469 L 63.53125 44.015625 L 67.933594 44.011719 C 67.945312 44.023438 67.957031 44.027344 67.972656 44.03125 C 69.820312 44.453125 71.6875 44.808594 73.554688 45.144531 L 62.59375 45.144531 C 61.933594 44.789062 61.289062 44.414062 60.667969 44.015625 L 63.285156 44.015625 L 64.476562 44.847656 C 64.492188 44.855469 64.503906 44.863281 64.515625 44.863281 C 64.539062 44.863281 64.5625 44.851562 64.578125 44.832031 C 64.597656 44.800781 64.589844 44.753906 64.558594 44.730469 Z M 52.542969 44.050781 C 52.558594 44.042969 52.566406 44.027344 52.578125 44.015625 L 58.6875 44.015625 L 59.085938 44.730469 C 59.097656 44.753906 59.121094 44.765625 59.144531 44.765625 C 59.160156 44.765625 59.167969 44.761719 59.179688 44.757812 C 59.214844 44.738281 59.226562 44.695312 59.207031 44.660156 L 58.851562 44.015625 L 60.152344 44.015625 C 60.160156 44.023438 60.160156 44.027344 60.167969 44.035156 C 60.765625 44.425781 61.378906 44.792969 62.007812 45.144531 L 50.800781 45.144531 C 51.398438 44.796875 51.980469 44.4375 52.542969 44.050781 Z M 56.710938 43.734375 L 52.601562 43.734375 C 53.570312 43.261719 54.15625 42.617188 54.34375 41.8125 C 54.449219 41.8125 54.558594 41.816406 54.664062 41.816406 C 55.351562 41.816406 56.054688 41.78125 56.785156 41.714844 Z M 50.742188 44.050781 C 50.75 44.042969 50.765625 44.03125 50.78125 44.027344 C 50.78125 44.027344 50.777344 44.027344 50.777344 44.03125 C 50.765625 44.035156 50.753906 44.042969 50.746094 44.046875 C 50.742188 44.046875 50.742188 44.050781 50.742188 44.050781 Z M 50.707031 44.101562 C 50.710938 44.089844 50.71875 44.078125 50.726562 44.066406 C 50.71875 44.074219 50.710938 44.089844 50.707031 44.101562 Z M 50.699219 44.140625 C 50.699219 44.128906 50.703125 44.121094 50.703125 44.109375 C 50.703125 44.121094 50.699219 44.128906 50.699219 44.140625 Z M 50.699219 44.15625 Z M 49.242188 44.441406 C 49.1875 45.058594 49.1875 45.058594 48.714844 44.910156 C 48.746094 44.730469 48.777344 44.550781 48.8125 44.324219 C 48.988281 44.371094 49.117188 44.40625 49.242188 44.441406 Z M 50.101562 44.28125 C 49.714844 44.328125 49.351562 44.328125 49.082031 44.3125 C 49.351562 44.328125 49.714844 44.328125 50.101562 44.28125 Z M 48.882812 44.296875 C 48.917969 44.285156 48.953125 44.269531 48.988281 44.253906 C 48.953125 44.269531 48.917969 44.285156 48.882812 44.296875 Z M 47.808594 44.640625 C 47.65625 44.820312 47.558594 44.941406 47.464844 45.054688 C 47.425781 45.035156 47.390625 45.015625 47.355469 44.992188 C 47.378906 44.855469 47.398438 44.71875 47.425781 44.558594 C 47.539062 44.585938 47.617188 44.601562 47.808594 44.640625 Z M 88.578125 45.390625 L 110.3125 49.367188 L 49.382812 49.367188 L 52.078125 47.039062 C 52.109375 47.011719 52.113281 46.96875 52.089844 46.941406 C 52.0625 46.910156 52.015625 46.90625 51.988281 46.929688 L 49.171875 49.367188 L 30.367188 49.367188 L 42.371094 45.425781 L 49.722656 45.425781 C 48.457031 46.113281 47.15625 46.75 45.902344 47.414062 C 45.742188 47.5 45.882812 47.742188 46.042969 47.65625 C 47.445312 46.917969 48.902344 46.207031 50.304688 45.425781 L 62.519531 45.425781 C 63.980469 46.207031 65.492188 46.917969 66.949219 47.65625 C 67.109375 47.738281 67.253906 47.496094 67.089844 47.414062 C 65.789062 46.75 64.4375 46.113281 63.125 45.425781 L 75.160156 45.425781 C 76.484375 45.652344 77.804688 45.878906 79.125 46.113281 C 82.09375 46.636719 85.0625 47.160156 88.035156 47.671875 C 88.210938 47.703125 88.289062 47.433594 88.105469 47.402344 C 85.1875 46.898438 82.269531 46.386719 79.347656 45.867188 C 78.5 45.71875 77.652344 45.570312 76.796875 45.425781 L 88.492188 45.425781 C 88.527344 45.425781 88.558594 45.410156 88.578125 45.390625 Z M 73.058594 5.113281 C 72.988281 5.222656 72.949219 5.285156 72.871094 5.40625 C 72.777344 5.261719 72.710938 5.160156 72.5625 4.925781 C 72.808594 5.019531 72.914062 5.058594 73.058594 5.113281 Z M 80.539062 20.695312 C 81.625 21.332031 82.363281 22.234375 82.6875 23.273438 C 82.355469 22.671875 81.859375 22.136719 81.394531 21.667969 C 80.914062 21.179688 80.375 20.746094 79.820312 20.34375 C 80.058594 20.453125 80.296875 20.566406 80.539062 20.695312 Z M 112 49.492188 C 112 49.480469 111.996094 49.472656 111.996094 49.460938 C 111.992188 49.449219 111.988281 49.441406 111.980469 49.433594 C 111.976562 49.425781 111.972656 49.421875 111.964844 49.414062 C 111.960938 49.410156 111.957031 49.402344 111.953125 49.402344 C 111.933594 49.386719 111.914062 49.371094 111.886719 49.371094 L 81.078125 43.734375 L 77.722656 43.734375 C 77.605469 43.164062 77.496094 42.589844 77.394531 42.019531 C 76.707031 38.210938 76.3125 34.34375 75.945312 30.496094 C 75.988281 30.414062 76.027344 30.332031 76.070312 30.253906 C 76.53125 29.339844 76.894531 28.375 77.105469 27.351562 C 78.320312 28.378906 79.894531 28.617188 81.324219 27.820312 C 82.261719 27.304688 82.878906 26.386719 83.046875 25.378906 L 83.070312 25.378906 C 83.441406 23.417969 82.527344 21.527344 80.675781 20.449219 C 80.0625 20.121094 79.46875 19.875 78.84375 19.617188 C 78.769531 19.585938 78.691406 19.554688 78.617188 19.523438 C 78.589844 19.507812 78.5625 19.488281 78.53125 19.464844 C 77.46875 18.785156 76.363281 18.191406 75.453125 17.300781 C 75.027344 16.890625 74.683594 16.410156 74.378906 15.910156 C 74.121094 15.484375 73.796875 14.992188 73.644531 14.488281 C 73.195312 15.59375 72.554688 16.683594 71.496094 17.289062 C 71.464844 17.308594 71.433594 17.308594 71.402344 17.304688 C 71.621094 18.414062 72.175781 19.746094 73.015625 20.472656 C 72.859375 20.476562 72.707031 20.476562 72.546875 20.476562 C 71.855469 20.476562 71.351562 20.234375 70.871094 19.746094 C 70.4375 19.296875 70.484375 18.5 70.417969 17.898438 C 70.726562 17.648438 71.023438 17.378906 71.304688 17.097656 C 71.3125 17.078125 71.328125 17.0625 71.347656 17.050781 C 71.351562 17.046875 71.355469 17.046875 71.355469 17.046875 C 72.476562 16.402344 73.097656 15.179688 73.527344 14.011719 C 73.535156 13.996094 73.546875 13.984375 73.554688 13.972656 C 73.554688 13.972656 73.554688 13.972656 73.550781 13.972656 C 74.855469 11.390625 75.242188 8.363281 74.246094 5.605469 C 73.414062 3.3125 71.5625 1.589844 69.347656 0.640625 C 66.707031 -0.484375 63.933594 -0.0117188 61.902344 2.011719 C 60.476562 1.765625 59.167969 3.109375 58.371094 4.140625 C 57.339844 5.480469 56.859375 7.035156 56.695312 8.703125 C 56.539062 10.246094 56.683594 11.820312 57.128906 13.308594 C 57.542969 14.695312 58.460938 16.230469 60.097656 16.199219 C 60.113281 16.199219 60.125 16.199219 60.132812 16.195312 C 60.152344 16.238281 60.167969 16.28125 60.1875 16.328125 C 60.59375 17.265625 61.167969 18.0625 61.847656 18.640625 C 62.609375 19.28125 63.480469 19.699219 64.363281 19.84375 C 64.445312 19.855469 64.539062 19.863281 64.636719 19.867188 C 64.667969 19.867188 64.699219 19.871094 64.734375 19.871094 L 64.796875 19.871094 C 64.863281 20.171875 64.910156 20.472656 64.726562 20.679688 C 64.605469 20.820312 64.445312 20.921875 64.269531 21 C 63.976562 21.132812 63.628906 21.195312 63.3125 21.257812 L 63.113281 21.292969 C 61.777344 21.558594 60.523438 21.90625 59.789062 23.230469 C 58.871094 24.886719 58.203125 26.578125 57.75 28.40625 C 56.929688 29.738281 52.082031 35.289062 50.40625 36.808594 C 49.945312 37.230469 48.792969 38.222656 47.320312 39.179688 C 47.183594 39.203125 47.042969 39.234375 46.90625 39.269531 L 43.523438 38.585938 C 43.519531 38.585938 43.519531 38.585938 43.519531 38.585938 C 43.496094 38.578125 43.472656 38.582031 43.449219 38.589844 C 43.445312 38.59375 43.4375 38.59375 43.4375 38.59375 C 43.429688 38.597656 43.421875 38.601562 43.417969 38.605469 L 42.800781 39.019531 C 42.773438 39.039062 42.75 39.070312 42.742188 39.109375 C 42.734375 39.144531 42.742188 39.183594 42.761719 39.214844 C 42.777344 39.230469 43.3125 40.007812 43.933594 40.902344 C 43.882812 40.917969 43.839844 40.9375 43.792969 40.953125 C 43.667969 40.996094 43.546875 41.035156 43.429688 41.070312 C 43.1875 41.144531 42.976562 41.203125 42.777344 41.246094 C 42.566406 41.289062 42.414062 41.304688 42.261719 41.242188 L 42.148438 41.199219 C 41.984375 41.132812 41.8125 41.066406 41.644531 41.003906 C 41.230469 40.851562 40.761719 40.777344 40.320312 40.777344 C 39.402344 40.78125 38.457031 41.074219 37.589844 41.625 C 36.816406 42.117188 36.214844 42.65625 35.792969 43.226562 C 35.664062 43.40625 35.652344 43.589844 35.746094 43.734375 L 30.898438 43.738281 L 0.117188 49.371094 C 0.0898438 49.371094 0.0703125 49.386719 0.0507812 49.398438 C 0.046875 49.40625 0.0390625 49.410156 0.0351562 49.417969 C 0.03125 49.421875 0.0234375 49.429688 0.0234375 49.433594 C 0.015625 49.445312 0.0117188 49.453125 0.0078125 49.460938 C 0.00390625 49.472656 0.00390625 49.480469 0.00390625 49.492188 C 0.00390625 49.5 0 49.5 0 49.507812 L 0 51.054688 C 0 51.132812 0.0664062 51.195312 0.140625 51.195312 C 2.9375 51.203125 5.738281 51.210938 8.535156 51.214844 C 15.515625 51.234375 22.5 51.253906 29.480469 51.269531 C 38.535156 51.292969 47.585938 51.316406 56.632812 51.339844 C 65.636719 51.363281 74.640625 51.386719 83.644531 51.410156 C 90.484375 51.425781 97.324219 51.441406 104.164062 51.460938 C 106.730469 51.464844 109.296875 51.472656 111.863281 51.476562 C 111.941406 51.476562 112.003906 51.414062 112.003906 51.335938 L 112.003906 49.507812 C 112.003906 49.503906 112 49.5 112 49.492188 "/></g></g></svg>