<svg xmlns="http://www.w3.org/2000/svg" xmlns:xlink="http://www.w3.org/1999/xlink" width="150" zoomAndPan="magnify" viewBox="0 0 112.5 112.499997" height="150" preserveAspectRatio="xMidYMid meet" version="1.2"><defs><clipPath id="73eb43eb76"><path d="M 4 0 L 106 0 L 106 86.613281 L 4 86.613281 Z M 4 0 "/></clipPath><clipPath id="3ebb9c2adc"><path d="M 0.0195312 0 L 111.980469 0 L 111.980469 86.613281 L 0.0195312 86.613281 Z M 0.0195312 0 "/></clipPath></defs><g id="d7e2dc5311"><g clip-rule="nonzero" clip-path="url(#73eb43eb76)"><path style=" stroke:none;fill-rule:nonzero;fill:#ffffff;fill-opacity:1;" d="M 104.929688 78.390625 C 104.660156 78.390625 104.386719 78.390625 104.113281 78.390625 L 105.417969 78.390625 C 105.253906 78.390625 105.09375 78.390625 104.929688 78.390625 Z M 65.785156 86.371094 L 55.492188 83.550781 L 55.703125 84.03125 C 55.777344 84.191406 55.800781 84.351562 55.78125 84.503906 C 55.726562 84.863281 55.109375 85.039062 54.792969 85.082031 C 53.929688 85.296875 52.925781 85.398438 51.785156 85.398438 C 50.566406 85.398438 49.679688 85.277344 49.671875 85.277344 C 49.625 85.273438 48.464844 85.21875 47.832031 85.007812 C 46.554688 84.511719 45.820312 84.171875 44.832031 83.613281 C 44.664062 83.519531 44.488281 83.417969 44.300781 83.308594 L 43.929688 83.09375 L 43.703125 83.019531 L 43.640625 83.035156 C 43.605469 83.035156 43.582031 83.039062 43.5625 83.046875 C 38.527344 83.574219 33.875 83.84375 29.761719 83.84375 C 25.886719 83.84375 22.519531 83.601562 19.75 83.117188 C 18.324219 82.828125 16.882812 82.253906 15.921875 81.847656 C 15.449219 81.648438 14.984375 81.445312 14.539062 81.25 L 14.40625 81.191406 C 13.855469 80.925781 13.324219 80.621094 12.785156 80.273438 C 11.941406 79.722656 11.179688 79.082031 10.46875 78.324219 L 10.394531 78.246094 L 10.382812 78.246094 L 10.035156 77.835938 C 9.605469 77.335938 9.195312 76.78125 8.785156 76.148438 C 6.941406 73.238281 6.703125 66.730469 6.703125 61.386719 L 6.703125 61.230469 L 6.539062 61.152344 L 6.5 61.140625 C 5.628906 60.847656 4.96875 60.527344 4.542969 60.191406 C 4.621094 59.9375 4.691406 59.679688 4.765625 59.417969 L 4.867188 59.0625 C 6.195312 54.394531 7.84375 48.585938 13.195312 43.59375 C 18.945312 38.238281 24.710938 38.015625 29.347656 37.839844 L 30.871094 37.78125 C 31.84375 37.742188 32.921875 37.703125 33.652344 37.089844 C 33.980469 36.808594 34.113281 36.40625 34.089844 35.738281 C 34.085938 35.652344 34.042969 32.894531 34.042969 32.894531 L 33.949219 32.820312 C 33.226562 32.265625 32.558594 31.699219 31.960938 31.144531 L 31.9375 31.121094 L 31.90625 31.105469 C 30.160156 30.191406 27.414062 27.070312 26.503906 25.941406 C 24.671875 23.664062 23.625 20.847656 23.480469 17.800781 C 22.859375 13.660156 23.765625 9.625 25.96875 6.707031 C 26.859375 5.519531 28.144531 4.582031 29.898438 3.835938 C 30.515625 3.578125 31.316406 3.277344 32.003906 3.277344 C 32.503906 3.277344 32.867188 3.433594 33.113281 3.75 L 33.253906 3.9375 L 33.449219 3.804688 C 34.128906 3.335938 36.117188 2.144531 39.828125 1.160156 C 41.289062 0.769531 43.484375 0.25 45.648438 0.25 C 46.777344 0.25 47.832031 0.390625 48.785156 0.664062 C 49.945312 0.996094 51.246094 1.839844 52.101562 2.816406 C 53.371094 3.957031 54.703125 5.726562 53.984375 7.792969 C 53.792969 8.359375 53.472656 8.882812 53.066406 9.3125 L 52.953125 9.4375 L 53.023438 9.589844 C 54.277344 12.292969 55.746094 16.242188 54.035156 19.269531 L 53.992188 19.339844 L 54.003906 19.417969 C 54.207031 21.210938 54.207031 22.972656 54.011719 24.648438 C 53.367188 30.21875 51.207031 33.734375 47.597656 35.097656 C 47 35.316406 46.296875 35.492188 45.5625 35.605469 L 45.351562 35.636719 L 45.351562 35.851562 C 45.351562 36.253906 45.402344 36.757812 45.792969 37.085938 L 45.816406 37.105469 L 45.835938 37.117188 C 46.53125 37.703125 47.601562 37.742188 48.550781 37.777344 L 48.925781 37.792969 C 54.289062 38.039062 58.84375 39.757812 62.46875 42.902344 C 66.972656 46.820312 70.476562 52.339844 73.40625 57.203125 L 73.375 57.226562 C 73.3125 57.269531 73.25 57.316406 73.191406 57.363281 L 73.023438 57.496094 L 73.082031 57.605469 C 72.226562 58.253906 71.011719 59 69.546875 59.765625 L 69.359375 59.867188 L 69.425781 60.066406 C 69.699219 60.894531 69.964844 61.746094 70.21875 62.582031 C 70.816406 64.527344 71.429688 66.53125 72.261719 68.34375 L 72.367188 68.574219 L 72.597656 68.464844 C 72.949219 68.292969 73.757812 67.675781 74.992188 66.628906 C 74.992188 66.628906 75.167969 66.480469 75.1875 66.46875 L 86.304688 58.066406 L 86.332031 58.007812 C 86.847656 56.835938 87.550781 55.453125 87.957031 55.089844 C 88.550781 54.558594 89.253906 53.84375 89.453125 53.636719 L 89.527344 53.558594 L 89.523438 53.449219 C 89.433594 51.917969 89.378906 50.464844 89.335938 49.222656 L 89.328125 49.050781 C 89.253906 47.1875 89.179688 45.265625 89.023438 43.144531 C 89.011719 42.9375 89.074219 42.757812 89.214844 42.605469 C 89.363281 42.4375 89.605469 42.335938 89.847656 42.335938 C 90.21875 42.335938 90.460938 42.554688 90.480469 42.902344 C 90.511719 43.480469 90.550781 44.070312 90.589844 44.671875 L 90.609375 44.988281 C 90.753906 47.242188 90.914062 49.796875 90.964844 52.242188 L 90.972656 52.613281 L 91.3125 52.464844 C 91.488281 52.390625 91.765625 52.300781 92.082031 52.300781 C 92.632812 52.300781 93.121094 52.574219 93.53125 53.109375 L 93.597656 53.191406 L 93.699219 53.203125 C 93.847656 53.21875 95.136719 53.394531 95.417969 54.597656 L 95.449219 54.734375 L 95.585938 54.777344 C 95.910156 54.875 96.695312 55.238281 97.058594 56.503906 L 97.085938 56.605469 L 97.175781 56.652344 C 97.566406 56.875 97.84375 57.128906 97.925781 57.644531 C 98.074219 58.550781 97.363281 59.214844 96.730469 59.6875 L 96.695312 59.714844 L 96.667969 59.753906 L 93.023438 62.40625 C 92.265625 62.96875 91.378906 63.050781 90.917969 63.050781 C 90.8125 63.050781 90.71875 63.046875 90.652344 63.042969 L 90.511719 63.03125 L 82.472656 74.53125 L 91.792969 75.902344 L 92.082031 75.910156 L 92.082031 78.371094 L 92.339844 78.371094 L 92.113281 78.371094 L 92.082031 78.621094 L 92.082031 78.898438 L 87.941406 80.082031 L 87.890625 80.179688 C 87.519531 80.941406 86.917969 81.394531 86.273438 81.394531 C 85.910156 81.394531 85.550781 81.246094 85.234375 80.964844 L 85.132812 80.875 L 84.117188 81.164062 L 84.066406 81.257812 C 83.6875 81.976562 83.117188 82.390625 82.492188 82.390625 C 82.144531 82.390625 81.816406 82.265625 81.515625 82.015625 L 81.414062 81.929688 L 80.289062 82.253906 L 80.242188 82.339844 C 79.859375 83.003906 79.304688 83.386719 78.714844 83.386719 C 78.394531 83.386719 78.089844 83.277344 77.804688 83.0625 L 77.707031 82.988281 L 76.640625 83.289062 L 76.59375 83.398438 C 76.207031 84.3125 75.507812 84.882812 74.769531 84.882812 C 74.328125 84.882812 73.910156 84.695312 73.558594 84.34375 L 73.53125 84.3125 L 73.425781 84.203125 L 72.4375 84.484375 L 72.386719 84.585938 C 71.964844 85.496094 71.257812 86.035156 70.5 86.035156 C 70.058594 86.035156 69.644531 85.859375 69.261719 85.507812 L 69.160156 85.414062 L 65.804688 86.371094 L 65.785156 86.371094 "/></g><g clip-rule="nonzero" clip-path="url(#3ebb9c2adc)"><path style=" stroke:none;fill-rule:nonzero;fill:#100f0d;fill-opacity:1;" d="M 91.960938 77.917969 C 91.964844 77.902344 91.960938 77.886719 91.957031 77.871094 C 91.941406 77.8125 91.890625 77.785156 91.832031 77.789062 C 91.824219 77.789062 91.8125 77.78125 91.804688 77.785156 C 90.792969 78.0625 89.667969 78.371094 88.484375 78.695312 L 88.484375 78.605469 C 88.484375 78.386719 88.46875 78.179688 88.4375 77.972656 C 90.085938 77.519531 91.308594 77.183594 91.832031 77.039062 L 91.832031 77.789062 C 91.890625 77.785156 91.941406 77.816406 91.957031 77.867188 C 91.960938 77.886719 91.964844 77.902344 91.960938 77.917969 Z M 88.332031 79.707031 C 88.398438 79.472656 88.449219 79.21875 88.46875 78.960938 C 90.101562 78.511719 91.316406 78.179688 91.832031 78.035156 L 91.832031 78.710938 Z M 79.878906 78.75 C 79.871094 78.738281 79.863281 78.722656 79.851562 78.710938 C 79.851562 78.710938 79.851562 78.710938 79.855469 78.710938 C 79.863281 78.722656 79.871094 78.738281 79.878906 78.75 Z M 87.960938 76.644531 C 87.558594 75.988281 86.949219 75.5625 86.273438 75.5625 C 85.671875 75.5625 85.109375 75.890625 84.695312 76.46875 C 84.402344 76.488281 84.175781 76.601562 84.175781 76.734375 C 84.175781 76.871094 84.40625 76.984375 84.707031 76.996094 C 84.765625 77.023438 84.824219 77.023438 84.886719 76.996094 C 85.167969 76.972656 85.386719 76.867188 85.386719 76.734375 C 85.386719 76.667969 85.332031 76.613281 85.25 76.570312 C 85.546875 76.246094 85.90625 76.0625 86.273438 76.0625 C 86.730469 76.0625 87.148438 76.335938 87.457031 76.773438 C 87.511719 76.851562 87.5625 76.9375 87.613281 77.027344 C 87.5625 76.9375 87.511719 76.851562 87.457031 76.773438 C 86.394531 77.046875 85.289062 77.328125 84.164062 77.613281 C 84.199219 77.667969 84.230469 77.726562 84.261719 77.785156 C 84.230469 77.726562 84.199219 77.671875 84.164062 77.613281 C 83.761719 76.96875 83.160156 76.558594 82.492188 76.558594 C 81.894531 76.558594 81.328125 76.886719 80.914062 77.464844 C 80.621094 77.484375 80.390625 77.597656 80.390625 77.730469 C 80.390625 77.867188 80.628906 77.980469 80.929688 77.996094 C 80.984375 78.019531 81.046875 78.019531 81.101562 77.996094 C 81.386719 77.96875 81.609375 77.863281 81.609375 77.730469 C 81.609375 77.664062 81.550781 77.609375 81.472656 77.566406 C 81.765625 77.242188 82.121094 77.058594 82.492188 77.058594 C 82.945312 77.058594 83.347656 77.320312 83.65625 77.742188 C 82.566406 78.019531 81.460938 78.300781 80.367188 78.582031 C 79.957031 77.953125 79.371094 77.554688 78.714844 77.554688 C 78.113281 77.554688 77.550781 77.882812 77.136719 78.460938 C 76.84375 78.484375 76.613281 78.59375 76.613281 78.726562 C 76.613281 78.867188 76.847656 78.976562 77.148438 78.992188 C 77.207031 79.015625 77.265625 79.015625 77.324219 78.992188 C 77.609375 78.964844 77.828125 78.859375 77.828125 78.726562 C 77.828125 78.667969 77.773438 78.605469 77.6875 78.5625 C 77.988281 78.238281 78.347656 78.054688 78.714844 78.054688 C 79.152344 78.054688 79.550781 78.308594 79.851562 78.710938 C 78.703125 79.003906 77.566406 79.289062 76.46875 79.570312 C 76.566406 79.707031 76.65625 79.855469 76.734375 80.015625 C 77.84375 79.734375 78.984375 79.445312 80.125 79.15625 C 80.230469 79.390625 80.3125 79.652344 80.359375 79.929688 C 79.230469 80.242188 78.113281 80.542969 77.027344 80.84375 C 76.957031 80.542969 76.855469 80.269531 76.734375 80.015625 C 76.652344 79.855469 76.5625 79.707031 76.464844 79.566406 C 76.035156 78.960938 75.433594 78.582031 74.765625 78.582031 C 74.128906 78.582031 73.527344 78.929688 73.085938 79.542969 C 72.753906 79.558594 72.492188 79.675781 72.492188 79.832031 C 72.492188 79.992188 72.785156 80.125 73.148438 80.125 C 73.511719 80.125 73.808594 79.992188 73.808594 79.832031 C 73.808594 79.757812 73.742188 79.691406 73.644531 79.640625 C 73.964844 79.285156 74.359375 79.078125 74.765625 79.078125 C 75.214844 79.078125 75.628906 79.3125 75.949219 79.699219 C 74.71875 80.011719 73.539062 80.308594 72.453125 80.582031 C 72.535156 80.722656 72.609375 80.871094 72.675781 81.027344 C 72.605469 80.875 72.535156 80.722656 72.453125 80.582031 C 71.992188 79.800781 71.285156 79.296875 70.496094 79.296875 C 69.824219 79.296875 69.1875 79.667969 68.722656 80.308594 C 68.351562 80.320312 68.058594 80.453125 68.058594 80.617188 C 68.058594 80.796875 68.371094 80.9375 68.765625 80.9375 C 69.152344 80.9375 69.46875 80.796875 69.46875 80.617188 C 69.46875 80.539062 69.398438 80.464844 69.277344 80.402344 C 69.628906 80.015625 70.054688 79.796875 70.496094 79.796875 C 71.066406 79.796875 71.582031 80.148438 71.949219 80.707031 C 71.949219 80.707031 71.953125 80.710938 71.953125 80.710938 C 68.707031 81.527344 66.382812 82.101562 66.082031 82.152344 C 65.722656 82.09375 62.5 81.328125 58.117188 80.273438 C 58.132812 80.316406 58.148438 80.363281 58.160156 80.410156 C 58.148438 80.363281 58.132812 80.316406 58.117188 80.277344 C 57.980469 79.9375 57.703125 79.699219 57.339844 79.617188 C 57.558594 79.457031 57.738281 79.246094 57.792969 78.945312 C 57.832031 78.734375 57.792969 78.542969 57.667969 78.378906 C 57.390625 78.003906 56.761719 77.898438 56.320312 77.855469 C 55.476562 77.769531 54.484375 77.75 53.433594 77.722656 C 53.558594 77.648438 53.664062 77.570312 53.738281 77.46875 C 53.855469 77.316406 53.96875 77.046875 53.839844 76.664062 C 53.636719 76.085938 52.824219 75.933594 52.179688 75.902344 C 51.597656 75.871094 51 75.816406 50.289062 75.734375 C 48.707031 75.539062 47.402344 75.5625 46.300781 75.8125 C 45.554688 75.980469 44.867188 76.3125 44.300781 76.773438 L 44.296875 76.777344 C 42.277344 76.316406 39.976562 75.773438 37.628906 75.207031 C 37.359375 75.140625 37.089844 75.074219 36.820312 75.011719 C 36.820312 75.011719 36.820312 75.011719 36.824219 75.011719 C 37.089844 75.074219 37.359375 75.140625 37.628906 75.203125 L 61.292969 71.65625 L 82.402344 74.769531 C 82.421875 74.777344 82.445312 74.78125 82.472656 74.78125 L 90.578125 75.976562 C 89.753906 76.1875 88.875 76.410156 87.960938 76.644531 C 88.050781 76.789062 88.125 76.9375 88.195312 77.101562 C 89.648438 76.726562 90.898438 76.410156 91.832031 76.171875 L 91.832031 76.792969 C 91.890625 76.789062 91.941406 76.820312 91.957031 76.871094 C 91.972656 76.925781 91.953125 76.972656 91.914062 77.003906 C 91.953125 76.972656 91.972656 76.925781 91.957031 76.871094 C 91.941406 76.820312 91.890625 76.789062 91.832031 76.792969 C 91.824219 76.792969 91.8125 76.785156 91.804688 76.789062 C 90.765625 77.074219 89.613281 77.390625 88.390625 77.730469 C 88.34375 77.503906 88.273438 77.296875 88.195312 77.101562 C 88.125 76.9375 88.050781 76.789062 87.960938 76.644531 Z M 87.972656 78.839844 C 86.921875 79.128906 85.820312 79.429688 84.703125 79.734375 C 84.703125 79.691406 84.707031 79.648438 84.707031 79.601562 C 84.707031 79.398438 84.691406 79.199219 84.660156 79.007812 C 85.855469 78.679688 86.96875 78.375 87.957031 78.109375 C 87.976562 78.265625 87.984375 78.433594 87.984375 78.605469 C 87.984375 78.6875 87.976562 78.761719 87.972656 78.839844 Z M 84.402344 78.070312 C 84.402344 78.070312 84.402344 78.066406 84.402344 78.066406 C 85.566406 77.769531 86.679688 77.488281 87.707031 77.226562 C 87.796875 77.421875 87.855469 77.636719 87.90625 77.859375 C 86.847656 78.152344 85.746094 78.453125 84.617188 78.765625 C 84.566406 78.515625 84.492188 78.28125 84.402344 78.070312 Z M 84.1875 79.875 C 83.109375 80.175781 82.015625 80.472656 80.917969 80.773438 C 80.921875 80.710938 80.921875 80.65625 80.921875 80.597656 C 80.921875 80.410156 80.914062 80.226562 80.886719 80.046875 C 82.011719 79.734375 83.125 79.433594 84.179688 79.144531 C 84.191406 79.292969 84.207031 79.441406 84.207031 79.601562 C 84.207031 79.695312 84.191406 79.785156 84.1875 79.875 Z M 83.941406 80.957031 C 83.835938 81.195312 83.707031 81.40625 83.550781 81.585938 C 83.257812 81.929688 82.894531 82.144531 82.492188 82.144531 C 82.320312 82.144531 82.152344 82.101562 81.996094 82.027344 L 83.550781 81.585938 C 83.707031 81.40625 83.835938 81.195312 83.941406 80.957031 L 80.71875 81.871094 C 80.808594 81.609375 80.871094 81.332031 80.898438 81.035156 C 82.019531 80.730469 83.117188 80.429688 84.167969 80.140625 C 84.125 80.433594 84.042969 80.707031 83.941406 80.957031 Z M 83.753906 77.894531 C 83.796875 77.960938 83.839844 78.03125 83.875 78.105469 C 83.839844 78.03125 83.796875 77.960938 83.753906 77.894531 Z M 83.917969 78.191406 C 84.015625 78.402344 84.082031 78.644531 84.132812 78.894531 C 83.050781 79.195312 81.945312 79.5 80.84375 79.796875 C 80.789062 79.527344 80.710938 79.269531 80.605469 79.035156 C 80.546875 78.894531 80.476562 78.765625 80.402344 78.644531 C 80.476562 78.765625 80.546875 78.894531 80.609375 79.035156 C 81.726562 78.746094 82.839844 78.464844 83.917969 78.191406 Z M 80.40625 80.910156 C 79.300781 81.214844 78.210938 81.515625 77.148438 81.804688 C 77.140625 81.558594 77.117188 81.316406 77.078125 81.085938 C 78.175781 80.789062 79.292969 80.480469 80.402344 80.179688 C 80.417969 80.316406 80.425781 80.453125 80.425781 80.597656 C 80.425781 80.703125 80.417969 80.808594 80.40625 80.910156 Z M 80.125 82.042969 C 80.003906 82.292969 79.859375 82.511719 79.6875 82.683594 C 79.410156 82.96875 79.078125 83.140625 78.714844 83.140625 C 78.585938 83.140625 78.457031 83.113281 78.324219 83.070312 C 78.167969 83.015625 78.011719 82.929688 77.875 82.808594 C 77.769531 82.71875 77.609375 82.734375 77.519531 82.839844 C 77.429688 82.945312 77.445312 83.097656 77.550781 83.1875 C 77.445312 83.097656 77.429688 82.945312 77.519531 82.839844 C 77.609375 82.734375 77.769531 82.71875 77.875 82.808594 C 78.011719 82.929688 78.167969 83.011719 78.324219 83.070312 L 79.6875 82.683594 C 79.859375 82.511719 80.003906 82.292969 80.121094 82.042969 L 77.011719 82.921875 C 77.082031 82.65625 77.125 82.367188 77.136719 82.0625 C 78.210938 81.773438 79.300781 81.476562 80.375 81.179688 C 80.328125 81.496094 80.242188 81.785156 80.125 82.042969 Z M 76.644531 81.941406 C 75.375 82.285156 74.15625 82.621094 73.019531 82.929688 C 73.019531 82.882812 73.027344 82.839844 73.027344 82.792969 C 73.027344 82.589844 73.011719 82.390625 72.984375 82.195312 C 74.125 81.886719 75.34375 81.558594 76.59375 81.214844 C 76.628906 81.425781 76.648438 81.632812 76.648438 81.859375 C 76.648438 81.882812 76.644531 81.914062 76.644531 81.941406 Z M 72.683594 81.042969 C 72.679688 81.042969 72.679688 81.039062 72.679688 81.039062 C 73.796875 80.757812 75 80.457031 76.242188 80.140625 C 76.226562 80.105469 76.203125 80.074219 76.183594 80.039062 C 76.203125 80.074219 76.226562 80.105469 76.246094 80.140625 C 76.375 80.390625 76.480469 80.667969 76.550781 80.972656 C 75.285156 81.316406 74.070312 81.648438 72.945312 81.953125 C 72.890625 81.628906 72.800781 81.320312 72.683594 81.042969 Z M 72.519531 83.0625 C 68.882812 84.050781 66.261719 84.753906 66.089844 84.773438 C 65.890625 84.753906 62.53125 83.894531 57.941406 82.714844 C 57.96875 82.679688 57.992188 82.648438 58.015625 82.609375 C 58.125 82.414062 58.144531 82.207031 58.085938 82.011719 C 62.550781 83.164062 65.945312 84.019531 66.078125 84.019531 C 66.214844 84.019531 68.898438 83.308594 72.503906 82.332031 C 72.519531 82.480469 72.527344 82.636719 72.527344 82.792969 C 72.527344 82.882812 72.523438 82.972656 72.519531 83.0625 Z M 72.261719 84.277344 C 72.171875 84.5 72.066406 84.703125 71.945312 84.886719 C 71.578125 85.4375 71.066406 85.789062 70.5 85.789062 C 70.214844 85.789062 69.941406 85.691406 69.6875 85.527344 L 71.945312 84.886719 C 72.066406 84.703125 72.171875 84.5 72.261719 84.277344 L 65.804688 86.113281 L 56.203125 83.488281 C 56.027344 83.527344 55.859375 83.558594 55.6875 83.585938 C 55.859375 83.554688 56.027344 83.527344 56.207031 83.488281 C 56.21875 83.488281 56.234375 83.480469 56.25 83.480469 C 56.351562 83.453125 56.453125 83.433594 56.5625 83.40625 C 56.953125 83.316406 57.414062 83.214844 57.753906 82.925781 C 62.382812 84.113281 65.941406 85.015625 66.078125 85.015625 C 66.214844 85.015625 68.894531 84.304688 72.496094 83.328125 C 72.453125 83.667969 72.367188 83.988281 72.261719 84.277344 Z M 58.175781 80.460938 C 58.1875 80.519531 58.199219 80.578125 58.203125 80.644531 C 58.203125 80.65625 58.199219 80.671875 58.199219 80.683594 C 58.199219 80.671875 58.199219 80.65625 58.199219 80.644531 C 58.199219 80.578125 58.1875 80.519531 58.175781 80.460938 Z M 58.183594 80.792969 C 58.183594 80.796875 58.183594 80.796875 58.183594 80.800781 C 62.609375 81.863281 65.9375 82.652344 66.082031 82.652344 C 66.214844 82.652344 68.738281 82.03125 72.199219 81.160156 C 72.15625 81.066406 72.109375 80.976562 72.0625 80.890625 C 72.109375 80.976562 72.15625 81.066406 72.199219 81.160156 C 72.320312 81.441406 72.414062 81.75 72.46875 82.082031 C 68.855469 83.0625 66.261719 83.757812 66.089844 83.777344 C 65.890625 83.757812 62.511719 82.894531 57.890625 81.710938 C 57.832031 81.648438 57.769531 81.601562 57.6875 81.566406 C 57.996094 81.347656 58.132812 81.066406 58.179688 80.804688 C 58.179688 80.800781 58.183594 80.796875 58.183594 80.792969 Z M 55.53125 84.460938 C 55.503906 84.640625 55.0625 84.796875 54.734375 84.839844 C 52.492188 85.390625 49.726562 85.035156 49.675781 85.03125 C 49.667969 85.023438 48.507812 84.972656 47.925781 84.777344 C 46.234375 84.121094 45.546875 83.761719 44.058594 82.875 C 44.039062 82.863281 44.019531 82.855469 43.996094 82.847656 L 43.777344 82.785156 C 43.75 82.78125 43.714844 82.773438 43.683594 82.78125 C 36.773438 83.515625 27.019531 84.128906 19.796875 82.875 C 17.996094 82.511719 16.144531 81.6875 14.515625 80.96875 C 12.148438 79.8125 10.496094 78.328125 8.992188 76.015625 C 7.214844 73.210938 6.960938 66.871094 6.953125 61.5625 C 11.640625 63.144531 20.148438 63.957031 20.148438 63.957031 C 20.148438 63.957031 20.226562 64.859375 20.328125 66.011719 C 20.339844 67.453125 20.394531 68.683594 20.4375 69.585938 C 20.453125 69.996094 20.472656 70.328125 20.480469 70.582031 C 20.488281 70.925781 20.5 71.445312 32.503906 74.457031 C 36.589844 75.484375 40.707031 76.453125 42.839844 76.945312 C 43.132812 77.015625 43.390625 77.078125 43.605469 77.125 C 44.046875 77.230469 44.304688 77.285156 44.316406 77.292969 C 44.402344 77.308594 44.484375 77.285156 44.546875 77.226562 L 44.628906 77.148438 C 45.121094 76.742188 45.738281 76.449219 46.410156 76.296875 C 47.453125 76.058594 48.699219 76.035156 50.230469 76.226562 C 50.949219 76.3125 51.5625 76.371094 52.152344 76.394531 C 52.820312 76.429688 53.289062 76.59375 53.371094 76.828125 C 53.433594 77.011719 53.390625 77.105469 53.34375 77.167969 C 53.179688 77.386719 52.527344 77.71875 50.050781 77.539062 L 49.929688 77.535156 C 49.910156 77.53125 49.894531 77.535156 49.875 77.539062 C 49.867188 77.539062 49.855469 77.539062 49.847656 77.546875 C 49.753906 77.566406 49.695312 77.632812 49.675781 77.722656 C 49.675781 77.734375 49.671875 77.738281 49.667969 77.75 C 49.667969 77.753906 49.671875 77.753906 49.667969 77.757812 L 49.667969 77.765625 C 49.667969 77.777344 49.671875 77.789062 49.671875 77.804688 C 49.671875 77.824219 49.671875 77.839844 49.679688 77.851562 C 49.679688 77.867188 49.691406 77.882812 49.703125 77.898438 C 49.707031 77.914062 49.710938 77.929688 49.726562 77.9375 C 49.734375 77.953125 49.746094 77.957031 49.761719 77.96875 C 49.769531 77.976562 49.78125 77.992188 49.796875 77.996094 C 49.8125 78.007812 49.824219 78.007812 49.847656 78.011719 C 49.855469 78.019531 49.871094 78.027344 49.886719 78.027344 C 50.890625 78.164062 52.160156 78.191406 53.382812 78.21875 C 54.4375 78.242188 55.433594 78.265625 56.269531 78.351562 C 56.949219 78.417969 57.191406 78.566406 57.269531 78.675781 C 57.296875 78.710938 57.324219 78.761719 57.304688 78.855469 C 57.226562 79.273438 56.570312 79.453125 56.363281 79.496094 C 56.125 79.550781 55.882812 79.589844 55.632812 79.621094 C 55.230469 79.648438 54.828125 79.671875 54.433594 79.703125 L 54.183594 79.71875 C 53.554688 79.722656 52.9375 79.691406 52.359375 79.652344 C 52.234375 79.648438 52.105469 79.632812 51.980469 79.621094 C 51.660156 79.597656 51.332031 79.566406 51.015625 79.578125 C 50.875 79.582031 50.765625 79.695312 50.769531 79.832031 C 50.777344 79.972656 50.894531 80.070312 51.03125 80.074219 C 51.324219 80.066406 51.632812 80.089844 51.9375 80.121094 C 52.066406 80.128906 52.199219 80.140625 52.328125 80.148438 C 52.875 80.183594 53.464844 80.21875 54.066406 80.21875 C 54.101562 80.21875 54.140625 80.214844 54.175781 80.214844 C 54.179688 80.214844 54.179688 80.21875 54.183594 80.21875 L 54.21875 80.214844 C 54.699219 80.210938 55.179688 80.183594 55.660156 80.121094 C 56.128906 80.09375 56.605469 80.082031 57.078125 80.082031 C 57.429688 80.085938 57.683594 80.324219 57.707031 80.644531 C 57.695312 80.792969 57.660156 81.261719 56.617188 81.429688 C 56.199219 81.53125 55.757812 81.59375 55.304688 81.640625 L 55.285156 81.640625 C 53.902344 81.769531 52.402344 81.683594 51.140625 81.621094 C 51.003906 81.605469 50.886719 81.714844 50.878906 81.851562 C 50.871094 81.988281 50.976562 82.105469 51.113281 82.113281 C 51.90625 82.15625 52.78125 82.207031 53.671875 82.207031 C 54.21875 82.207031 54.773438 82.1875 55.308594 82.136719 C 55.851562 82.113281 56.242188 82.058594 56.554688 82.015625 C 56.789062 81.984375 56.992188 81.957031 57.195312 81.953125 C 57.417969 81.933594 57.546875 82.03125 57.59375 82.117188 C 57.648438 82.207031 57.617188 82.300781 57.585938 82.363281 C 57.386719 82.714844 56.914062 82.820312 56.453125 82.917969 C 56.339844 82.945312 56.226562 82.96875 56.128906 82.992188 C 53.773438 83.496094 51.867188 83.589844 50.457031 83.265625 C 50.324219 83.238281 50.1875 83.324219 50.160156 83.453125 C 50.128906 83.585938 50.214844 83.722656 50.347656 83.75 C 50.941406 83.890625 51.601562 83.960938 52.339844 83.960938 C 52.976562 83.960938 53.671875 83.898438 54.429688 83.800781 C 54.4375 83.796875 54.449219 83.800781 54.460938 83.800781 C 54.871094 83.730469 55.183594 83.789062 55.371094 83.976562 C 55.523438 84.125 55.554688 84.324219 55.53125 84.460938 Z M 12.929688 47.78125 C 12.417969 47.695312 12.335938 47.398438 12.296875 46.929688 C 12.789062 47.039062 12.917969 47.308594 12.929688 47.78125 Z M 21.46875 69.636719 C 21.507812 69.765625 21.554688 69.894531 21.589844 70.019531 C 21.34375 70.105469 21.097656 70.183594 20.847656 70.261719 C 20.828125 70.203125 20.808594 70.144531 20.78125 70.085938 C 20.777344 70.035156 20.765625 69.984375 20.761719 69.933594 C 20.996094 69.835938 21.234375 69.734375 21.46875 69.636719 Z M 21.128906 61.023438 C 21.457031 61.257812 21.726562 61.441406 22.136719 61.738281 C 21.226562 62.175781 21.0625 62.046875 21.128906 61.023438 Z M 22.234375 60.035156 L 22.234375 60.84375 C 22.152344 60.871094 22.066406 60.890625 21.980469 60.910156 C 21.882812 60.765625 21.78125 60.625 21.632812 60.40625 C 21.832031 60.289062 21.96875 60.203125 22.234375 60.035156 Z M 23.542969 42.816406 C 23.621094 43.003906 23.695312 43.199219 23.796875 43.464844 C 23.226562 43.324219 23.226562 43.324219 23.542969 42.816406 Z M 28.363281 64.078125 C 28.570312 64.167969 28.765625 64.300781 28.96875 64.414062 C 28.917969 64.511719 28.871094 64.601562 28.820312 64.695312 C 28.589844 64.585938 28.363281 64.476562 28.039062 64.320312 C 28.21875 64.183594 28.316406 64.058594 28.363281 64.078125 Z M 32.785156 53.945312 C 32.878906 54.085938 32.976562 54.230469 33.074219 54.375 C 33.015625 54.414062 32.960938 54.460938 32.90625 54.5 C 32.808594 54.355469 32.714844 54.210938 32.617188 54.070312 C 32.671875 54.027344 32.730469 53.988281 32.785156 53.945312 Z M 33.515625 37.542969 C 33.484375 37.554688 33.453125 37.566406 33.417969 37.566406 C 33.40625 37.566406 33.394531 37.5625 33.382812 37.5625 C 33.394531 37.5625 33.40625 37.566406 33.417969 37.566406 C 33.453125 37.566406 33.484375 37.554688 33.515625 37.542969 Z M 33.457031 37.0625 C 33.445312 37.0625 33.433594 37.058594 33.417969 37.058594 C 33.402344 37.058594 33.390625 37.0625 33.375 37.0625 C 33.390625 37.0625 33.402344 37.058594 33.417969 37.058594 C 33.433594 37.058594 33.445312 37.0625 33.457031 37.0625 Z M 33.835938 37.253906 C 33.828125 37.261719 33.820312 37.269531 33.8125 37.277344 C 33.800781 37.289062 33.785156 37.296875 33.773438 37.308594 C 33.785156 37.296875 33.800781 37.289062 33.8125 37.277344 C 33.820312 37.269531 33.828125 37.261719 33.835938 37.253906 Z M 34.339844 35.734375 C 34.332031 35.539062 34.304688 33.632812 34.296875 33.070312 C 34.308594 33.046875 34.320312 33.027344 34.328125 33.003906 C 34.359375 32.910156 34.328125 32.800781 34.242188 32.734375 C 33.757812 32.367188 33.304688 31.996094 32.875 31.628906 C 34.472656 31.410156 33.671875 26.160156 33.671875 26.152344 C 33.785156 26.171875 33.898438 26.179688 34.015625 26.179688 C 34.136719 26.179688 34.222656 26.085938 34.222656 25.972656 C 34.222656 25.863281 34.128906 25.765625 34.015625 25.765625 C 33.921875 25.765625 33.824219 25.761719 33.726562 25.742188 L 33.726562 25.730469 L 33.691406 25.730469 C 33.21875 25.652344 32.734375 25.402344 32.492188 25.089844 C 31.945312 24.367188 31.914062 23.226562 32.425781 22.285156 C 32.867188 21.46875 33.574219 21.125 34.367188 21.125 C 34.53125 21.308594 34.722656 21.503906 34.929688 21.632812 C 35.484375 21.976562 36.121094 21.390625 36.511719 21.050781 C 36.984375 20.652344 37.359375 20.125 37.757812 19.65625 C 39.027344 18.1875 39.96875 15.699219 40.398438 13.789062 C 40.558594 13.089844 40.71875 12.371094 40.71875 11.652344 C 40.71875 11.839844 45.785156 11.402344 46.21875 11.347656 C 47.5625 11.167969 48.925781 10.882812 50.179688 10.355469 C 50.359375 10.417969 50.53125 10.460938 50.707031 10.488281 C 51.121094 11.042969 51.488281 11.652344 51.800781 12.324219 C 52.523438 13.886719 53.054688 15.554688 53.410156 17.265625 C 53.105469 17.144531 52.738281 17.0625 52.394531 17.070312 C 51.398438 16.992188 50.167969 17.722656 50.359375 18.121094 C 50.511719 18.476562 51.453125 18.03125 52.21875 18.085938 C 52.726562 18.085938 53.214844 18.15625 53.574219 18.101562 C 53.617188 18.355469 53.648438 18.605469 53.683594 18.859375 C 53.945312 20.769531 53.984375 22.71875 53.765625 24.617188 C 53.183594 29.617188 51.378906 32.914062 48.390625 34.457031 C 48.109375 34.609375 47.816406 34.746094 47.511719 34.863281 C 46.191406 35.355469 44.410156 35.59375 42.96875 35.472656 C 42.859375 35.464844 42.75 35.539062 42.714844 35.648438 C 42.710938 35.664062 42.699219 35.679688 42.699219 35.699219 C 42.6875 35.835938 42.789062 35.957031 42.921875 35.96875 C 43.1875 35.992188 43.460938 36.003906 43.738281 36.003906 C 43.742188 36.003906 43.742188 36.003906 43.75 36.003906 C 43.960938 36.335938 44.371094 36.820312 44.824219 37.101562 C 44.863281 37.128906 44.898438 37.148438 44.9375 37.167969 C 39.765625 39.164062 35.429688 37.847656 34.007812 37.296875 C 33.953125 37.273438 33.902344 37.253906 33.855469 37.234375 C 33.847656 37.242188 33.839844 37.246094 33.835938 37.253906 C 33.84375 37.246094 33.847656 37.238281 33.855469 37.230469 C 34.308594 36.820312 34.351562 36.214844 34.339844 35.734375 Z M 32.269531 30.285156 C 32.4375 30.214844 32.601562 30.144531 32.769531 30.074219 C 32.804688 30.167969 32.839844 30.269531 32.875 30.363281 C 32.691406 30.402344 32.507812 30.4375 32.324219 30.480469 C 32.308594 30.414062 32.289062 30.347656 32.269531 30.285156 Z M 23.707031 13.042969 C 23.960938 11.328125 24.496094 9.664062 25.320312 8.140625 C 26.082031 6.734375 27.140625 5.679688 28.472656 4.828125 C 29.273438 4.316406 31.859375 2.890625 32.789062 3.761719 C 28.4375 4.101562 24.957031 8.105469 23.707031 13.042969 Z M 25.371094 12.121094 C 25.703125 11.515625 26.101562 11.796875 26.710938 11.835938 C 26.074219 12.289062 26.074219 12.289062 25.371094 12.121094 Z M 36.761719 7.421875 C 37.011719 7.59375 37.230469 7.738281 37.609375 7.984375 C 37.417969 8.300781 37.328125 8.449219 37.238281 8.59375 C 36.617188 8.332031 36.367188 8.066406 36.761719 7.421875 Z M 38.152344 17.128906 C 38.265625 17.585938 38.265625 17.585938 37.8125 17.519531 C 37.910156 17.398438 38.015625 17.285156 38.152344 17.128906 Z M 42.441406 7.921875 C 42.550781 7.980469 42.660156 8.042969 42.769531 8.101562 C 42.679688 8.496094 42.589844 8.894531 42.480469 9.363281 C 42.226562 9.3125 42.039062 9.277344 41.671875 9.207031 C 41.976562 8.699219 42.210938 8.308594 42.441406 7.921875 Z M 43.101562 5.175781 C 43.355469 5.195312 43.542969 5.21875 43.808594 5.242188 C 43.785156 5.507812 43.765625 5.710938 43.738281 5.945312 C 43.191406 5.980469 43.082031 5.699219 43.101562 5.175781 Z M 51.507812 9.675781 C 52.957031 8.769531 53.621094 6.414062 53.273438 4.59375 C 53.488281 4.957031 53.667969 5.347656 53.792969 5.769531 C 54.359375 7.710938 52.832031 10.109375 50.980469 10.027344 C 50.96875 10.019531 50.960938 10.003906 50.949219 9.992188 C 51.140625 9.894531 51.324219 9.789062 51.507812 9.675781 Z M 45.691406 36.859375 C 45.71875 36.84375 45.746094 36.839844 45.777344 36.839844 C 45.75 36.839844 45.71875 36.847656 45.691406 36.859375 C 45.605469 36.898438 45.519531 36.929688 45.433594 36.96875 L 45.425781 37.242188 L 45.429688 36.96875 C 45.519531 36.925781 45.605469 36.898438 45.691406 36.859375 Z M 45.863281 36.851562 C 45.84375 36.84375 45.824219 36.839844 45.804688 36.839844 C 45.824219 36.839844 45.84375 36.84375 45.863281 36.851562 Z M 46.019531 36.984375 C 46.015625 36.976562 46.007812 36.972656 46.003906 36.964844 C 46.007812 36.96875 46.015625 36.976562 46.019531 36.984375 Z M 45.992188 37.226562 C 45.941406 37.191406 45.890625 37.160156 45.839844 37.121094 C 45.890625 37.160156 45.941406 37.191406 45.992188 37.226562 C 46.035156 37.167969 46.050781 37.09375 46.03125 37.023438 C 46.050781 37.097656 46.035156 37.167969 45.992188 37.226562 Z M 45.847656 40.097656 C 45.316406 39.410156 45.316406 39.410156 46.222656 38.910156 C 46.074219 39.382812 45.972656 39.707031 45.847656 40.097656 Z M 46.6875 61.003906 C 46.835938 61.066406 46.980469 61.125 47.132812 61.1875 C 46.875 61.742188 46.738281 61.4375 46.59375 61.257812 C 46.625 61.175781 46.65625 61.089844 46.6875 61.003906 Z M 48.453125 48.558594 C 47.726562 48.941406 47.726562 48.941406 47.09375 48.359375 C 47.636719 48.4375 47.953125 48.484375 48.453125 48.558594 Z M 49.417969 62.652344 C 49.570312 62.96875 49.679688 63.191406 49.84375 63.519531 C 49.542969 63.742188 49.34375 63.894531 48.96875 64.167969 C 48.890625 64.042969 48.789062 63.886719 48.660156 63.683594 C 48.464844 63.820312 48.28125 63.953125 48.035156 64.128906 C 47.910156 63.882812 47.816406 63.699219 47.644531 63.375 C 48.273438 63.117188 48.820312 62.894531 49.417969 62.652344 Z M 37.03125 42.796875 C 37.214844 42.5625 37.34375 42.402344 37.523438 42.179688 C 37.636719 42.800781 37.636719 42.800781 37.03125 42.796875 Z M 37.703125 64.589844 C 37.273438 64.996094 37.0625 65.109375 36.859375 64.457031 C 37.144531 64.5 37.335938 64.53125 37.703125 64.589844 Z M 38.90625 49.1875 C 38.636719 49.1875 38.46875 49.191406 38.210938 49.191406 C 38.527344 48.882812 38.527344 48.882812 38.90625 49.1875 Z M 40.332031 48.839844 C 39.6875 49.089844 39.335938 48.722656 39.027344 48.214844 C 39.5625 47.671875 39.847656 47.804688 40.332031 48.839844 Z M 41.574219 53.898438 C 41.058594 53.972656 40.808594 54.007812 40.539062 54.046875 C 40.507812 53.816406 40.484375 53.632812 40.433594 53.308594 C 40.804688 53.5 41.070312 53.640625 41.574219 53.898438 Z M 44.480469 68.328125 C 44.625 68.664062 44.769531 69.003906 44.917969 69.347656 C 44.347656 69.238281 44.011719 69 44.183594 68.457031 C 44.28125 68.414062 44.382812 68.371094 44.480469 68.328125 Z M 43.445312 38.710938 C 43.914062 38.496094 43.914062 38.496094 44.273438 38.9375 C 43.878906 39.304688 43.65625 39.191406 43.445312 38.710938 Z M 33.734375 42.382812 C 33.820312 42.386719 33.898438 42.390625 33.980469 42.402344 C 33.992188 42.535156 34.03125 42.679688 34 42.800781 C 33.980469 42.875 33.851562 42.917969 33.632812 43.070312 C 33.683594 42.746094 33.710938 42.5625 33.734375 42.382812 Z M 33.648438 37.421875 C 33.648438 37.421875 33.652344 37.421875 33.652344 37.421875 C 33.644531 37.433594 33.632812 37.445312 33.625 37.457031 C 33.632812 37.445312 33.644531 37.433594 33.648438 37.421875 Z M 33.660156 37.386719 C 33.667969 37.363281 33.679688 37.339844 33.679688 37.316406 C 33.679688 37.339844 33.671875 37.363281 33.664062 37.382812 C 33.660156 37.386719 33.660156 37.386719 33.660156 37.386719 Z M 33.15625 37.285156 C 33.152344 37.324219 33.160156 37.367188 33.175781 37.402344 C 33.160156 37.367188 33.152344 37.324219 33.15625 37.285156 Z M 34.851562 64.28125 C 34.585938 63.933594 34.429688 63.71875 34.140625 63.335938 C 34.785156 63.414062 35.015625 63.558594 34.851562 64.28125 Z M 35.949219 40.320312 C 35.617188 40.441406 35.375 40.53125 34.921875 40.695312 C 35.125 40.230469 35.242188 39.960938 35.417969 39.578125 C 35.632812 39.875 35.753906 40.046875 35.949219 40.320312 Z M 33.773438 37.472656 C 35.082031 38.011719 39.707031 39.558594 45.285156 37.300781 C 39.707031 39.558594 35.082031 38.011719 33.773438 37.472656 Z M 51.683594 72.785156 C 51.671875 72.808594 51.660156 72.828125 51.648438 72.855469 C 51.46875 72.878906 51.285156 72.910156 51.097656 72.933594 C 51.070312 72.863281 51.035156 72.789062 50.996094 72.699219 C 51.324219 72.738281 51.449219 72.753906 51.683594 72.785156 Z M 53.519531 52.492188 C 53.941406 53.035156 53.617188 53.214844 53.496094 53.449219 C 53.402344 53.40625 53.308594 53.363281 53.21875 53.324219 C 53.304688 53.089844 53.382812 52.855469 53.519531 52.492188 Z M 54.652344 43.417969 C 55.015625 43.695312 55.226562 43.855469 55.578125 44.125 C 55.152344 44.394531 54.851562 44.578125 54.546875 44.769531 C 54.472656 44.707031 54.398438 44.644531 54.320312 44.582031 C 54.417969 44.246094 54.511719 43.910156 54.652344 43.417969 Z M 56.296875 57.539062 C 55.96875 57.484375 55.746094 57.449219 55.527344 57.414062 C 55.890625 56.796875 56.101562 56.910156 56.296875 57.539062 Z M 58.410156 60.007812 C 58.449219 60.4375 58.480469 60.722656 58.503906 61.003906 C 57.738281 60.730469 57.902344 60.441406 58.410156 60.007812 Z M 59.5 48.5 C 59.613281 48.632812 59.675781 48.816406 59.757812 48.992188 C 59.085938 49.253906 59.085938 49.253906 59.011719 48.265625 C 59.253906 48.378906 59.414062 48.402344 59.5 48.5 Z M 60.214844 68.683594 C 60.152344 68.730469 60.082031 68.773438 60.019531 68.8125 C 59.875 68.691406 59.730469 68.566406 59.554688 68.421875 C 59.675781 68.25 59.757812 68.136719 59.949219 67.878906 C 60.066406 68.230469 60.140625 68.460938 60.214844 68.683594 Z M 90.898438 58.988281 C 90.882812 60.023438 90.78125 60.746094 90.609375 60.859375 C 90.390625 60.675781 90.195312 59.625 90.066406 58.285156 C 90.269531 58.300781 90.480469 58.316406 90.691406 58.316406 C 90.761719 58.316406 90.828125 58.308594 90.898438 58.304688 C 90.847656 58.554688 90.84375 58.789062 90.898438 58.988281 Z M 69.214844 60.21875 C 69.476562 61.019531 69.734375 61.847656 69.980469 62.652344 C 70.597656 64.660156 71.230469 66.734375 72.109375 68.609375 C 72.140625 68.679688 72.246094 68.757812 72.320312 68.773438 C 72.34375 68.78125 72.363281 68.785156 72.394531 68.785156 C 72.644531 68.785156 73.144531 68.519531 75.15625 66.824219 C 75.261719 66.730469 75.328125 66.671875 75.351562 66.652344 L 86.453125 58.265625 C 86.488281 58.242188 86.515625 58.207031 86.53125 58.164062 C 86.824219 57.5 87.675781 55.675781 88.125 55.273438 C 88.539062 54.898438 89 54.445312 89.3125 54.132812 L 89.6875 53.757812 C 89.78125 53.65625 89.777344 53.5 89.675781 53.40625 C 89.59375 53.320312 89.464844 53.316406 89.371094 53.382812 C 89.464844 53.316406 89.59375 53.320312 89.679688 53.40625 C 89.777344 53.5 89.78125 53.65625 89.6875 53.757812 L 89.3125 54.132812 C 89.335938 54.414062 89.355469 54.703125 89.375 54.992188 L 89.3125 54.984375 C 89.179688 54.953125 89.046875 55.042969 89.019531 55.179688 C 88.992188 55.308594 89.074219 55.433594 89.207031 55.464844 C 89.207031 55.464844 89.210938 55.472656 89.214844 55.472656 L 89.527344 55.535156 C 90.527344 55.734375 92.609375 56.160156 92.734375 56.757812 C 92.773438 56.945312 92.558594 57.21875 92.125 57.519531 C 91.363281 58.050781 89.375 57.742188 88.667969 57.574219 C 88.664062 57.574219 88.664062 57.574219 88.664062 57.574219 C 88.523438 57.542969 88.394531 57.628906 88.363281 57.761719 C 88.328125 57.898438 88.414062 58.027344 88.546875 58.0625 C 88.589844 58.070312 88.996094 58.160156 89.542969 58.234375 C 89.707031 59.96875 90.015625 61.363281 90.597656 61.363281 L 90.664062 61.363281 C 91.121094 61.292969 91.324219 60.503906 91.390625 59.457031 C 91.425781 59.464844 91.453125 59.480469 91.496094 59.484375 C 91.527344 59.492188 91.5625 59.492188 91.597656 59.492188 C 91.757812 59.492188 91.9375 59.4375 92.117188 59.347656 C 92.054688 59.53125 92.027344 59.710938 92.042969 59.878906 C 92.066406 60.113281 92.179688 60.3125 92.375 60.457031 C 92.484375 60.542969 92.617188 60.578125 92.769531 60.578125 C 93.101562 60.578125 93.515625 60.382812 93.953125 60.089844 C 93.941406 60.308594 94.007812 60.535156 94.175781 60.765625 C 94.261719 60.886719 94.386719 60.960938 94.519531 61.003906 L 92.878906 62.203125 C 91.855469 62.960938 90.5625 62.78125 90.546875 62.78125 C 90.453125 62.761719 90.363281 62.808594 90.308594 62.882812 L 82.355469 74.261719 L 61.5 71.183594 C 61.511719 71.238281 61.519531 71.289062 61.53125 71.34375 C 61.554688 71.480469 61.480469 71.582031 61.378906 71.628906 C 61.476562 71.582031 61.554688 71.480469 61.53125 71.34375 C 61.519531 71.289062 61.511719 71.242188 61.5 71.183594 C 61.058594 68.75 60.519531 66.335938 59.960938 63.925781 C 62.402344 63.257812 66.109375 61.796875 69.214844 60.21875 Z M 60.792969 56.929688 C 60.941406 57.222656 61.046875 57.433594 61.152344 57.644531 C 61.027344 57.710938 60.953125 57.792969 60.90625 57.777344 C 60.496094 57.621094 60.429688 57.382812 60.792969 56.929688 Z M 61.917969 58.9375 C 62.007812 58.957031 62.097656 58.976562 62.1875 58.996094 C 62.277344 59.226562 62.363281 59.457031 62.492188 59.800781 C 62.140625 59.808594 61.886719 59.8125 61.421875 59.824219 C 61.644531 59.421875 61.785156 59.183594 61.917969 58.9375 Z M 65.664062 46.179688 C 65.785156 46.324219 65.90625 46.472656 66.023438 46.617188 C 66.046875 46.835938 65.96875 47.007812 65.65625 47.148438 C 65.347656 46.800781 65.398438 46.53125 65.664062 46.179688 Z M 66.988281 57.753906 C 67.160156 58.269531 66.894531 58.535156 66.621094 58.988281 C 66.472656 58.371094 66.464844 58 66.988281 57.753906 Z M 89.394531 42.777344 C 89.503906 42.65625 89.675781 42.585938 89.847656 42.585938 C 89.984375 42.585938 90.214844 42.625 90.230469 42.914062 C 90.269531 43.597656 90.316406 44.296875 90.359375 45.003906 C 90.535156 47.757812 90.714844 50.585938 90.734375 53.265625 C 90.519531 53.84375 90.28125 54.625 90.125 55.152344 C 90.046875 55.132812 89.960938 55.117188 89.875 55.097656 C 89.726562 52.992188 89.652344 51.070312 89.582031 49.210938 C 89.507812 47.292969 89.433594 45.316406 89.273438 43.128906 C 89.265625 42.988281 89.304688 42.871094 89.394531 42.777344 Z M 91.15625 52.828125 C 91.164062 52.820312 91.179688 52.8125 91.195312 52.800781 C 91.179688 52.8125 91.164062 52.820312 91.15625 52.828125 Z M 93.625 58.007812 C 93.679688 57.945312 93.71875 57.902344 93.738281 57.875 C 93.761719 57.847656 93.777344 57.820312 93.785156 57.789062 C 93.777344 57.820312 93.761719 57.847656 93.742188 57.875 C 93.71875 57.902344 93.679688 57.949219 93.625 58.007812 C 93.53125 58.113281 93.445312 58.210938 93.363281 58.308594 C 93.445312 58.214844 93.53125 58.109375 93.625 58.007812 Z M 93.394531 53.339844 C 93.441406 53.40625 93.507812 53.4375 93.582031 53.445312 C 93.644531 53.449219 95.011719 53.535156 95.195312 54.785156 C 95.210938 54.890625 95.300781 54.972656 95.410156 54.992188 C 95.457031 55 96.457031 55.15625 96.84375 56.667969 C 96.863281 56.734375 96.910156 56.792969 96.96875 56.828125 C 97.441406 57.074219 97.621094 57.292969 97.683594 57.6875 C 97.820312 58.539062 97.039062 59.175781 96.222656 59.753906 L 96.097656 59.84375 C 95.710938 60.132812 95.074219 60.617188 94.71875 60.554688 C 94.65625 60.546875 94.613281 60.519531 94.574219 60.472656 C 94.339844 60.148438 94.476562 59.800781 94.769531 59.449219 C 95.636719 58.695312 96.464844 57.753906 96.855469 57.300781 C 96.945312 57.195312 96.929688 57.039062 96.824219 56.949219 C 96.71875 56.859375 96.566406 56.871094 96.476562 56.980469 C 96.113281 57.402344 95.730469 57.820312 95.347656 58.203125 C 95.339844 58.210938 95.332031 58.214844 95.324219 58.222656 C 95.265625 58.28125 95.183594 58.355469 95.082031 58.441406 C 94.894531 58.609375 94.648438 58.828125 94.429688 59.078125 C 93.609375 59.800781 92.914062 60.238281 92.667969 60.058594 C 92.589844 60 92.550781 59.929688 92.539062 59.828125 C 92.507812 59.511719 92.777344 59.007812 93.351562 58.324219 C 93.351562 58.324219 93.351562 58.320312 93.355469 58.320312 C 94.226562 57.378906 95.03125 56.160156 95.265625 55.785156 C 95.339844 55.671875 95.304688 55.515625 95.191406 55.441406 C 95.074219 55.371094 94.921875 55.402344 94.847656 55.519531 C 94.839844 55.53125 94.832031 55.542969 94.824219 55.554688 C 94.417969 56.191406 93.886719 56.925781 93.363281 57.554688 C 93.359375 57.558594 93.355469 57.558594 93.355469 57.5625 C 93.335938 57.582031 93.300781 57.621094 93.253906 57.671875 C 93.160156 57.777344 93.066406 57.890625 92.972656 58 C 92.96875 58.003906 92.96875 58.003906 92.96875 58.007812 C 92.402344 58.621094 91.878906 59.042969 91.570312 58.992188 C 91.445312 58.976562 91.410156 58.925781 91.386719 58.882812 C 91.324219 58.75 91.34375 58.523438 91.414062 58.261719 C 91.796875 58.210938 92.152344 58.109375 92.414062 57.925781 C 93.042969 57.488281 93.304688 57.070312 93.222656 56.652344 C 93.15625 56.347656 92.914062 56.097656 92.535156 55.894531 L 93.085938 54.832031 C 93.085938 54.828125 93.085938 54.820312 93.089844 54.8125 L 93.097656 54.820312 C 93.289062 54.386719 93.429688 54.027344 93.488281 53.863281 C 93.539062 53.734375 93.472656 53.589844 93.34375 53.539062 C 93.226562 53.492188 93.097656 53.546875 93.042969 53.664062 C 93.035156 53.667969 93.027344 53.679688 93.027344 53.683594 C 92.917969 53.972656 92.792969 54.28125 92.648438 54.59375 C 92.648438 54.597656 92.648438 54.597656 92.644531 54.605469 L 92.082031 55.6875 C 91.671875 55.519531 91.171875 55.386719 90.613281 55.257812 C 90.898438 54.296875 91.28125 53.101562 91.4375 52.882812 C 91.449219 52.871094 91.453125 52.855469 91.460938 52.847656 C 91.488281 52.785156 91.496094 52.722656 91.472656 52.660156 C 91.914062 52.488281 92.699219 52.367188 93.394531 53.339844 Z M 74.769531 84.632812 C 74.46875 84.632812 74.179688 84.527344 73.917969 84.324219 L 76.1875 83.679688 C 75.839844 84.265625 75.335938 84.632812 74.769531 84.632812 Z M 111.738281 78.152344 C 105.269531 78.144531 98.800781 78.132812 92.332031 78.121094 L 92.332031 75.910156 C 92.332031 75.777344 92.222656 75.664062 92.085938 75.660156 L 91.828125 75.65625 L 82.910156 74.34375 L 82.675781 74.671875 C 82.664062 74.6875 82.652344 74.703125 82.636719 74.71875 C 82.652344 74.703125 82.664062 74.6875 82.675781 74.671875 L 82.910156 74.34375 L 90.632812 63.292969 C 91.046875 63.320312 92.195312 63.332031 93.171875 62.609375 L 96.847656 59.925781 C 96.859375 59.914062 96.867188 59.902344 96.878906 59.890625 C 97.550781 59.386719 98.34375 58.640625 98.171875 57.609375 C 98.078125 57.011719 97.753906 56.695312 97.296875 56.4375 C 96.902344 55.0625 96.039062 54.65625 95.660156 54.539062 C 95.402344 53.425781 94.359375 53.023438 93.726562 52.957031 C 92.824219 51.78125 91.753906 52.011719 91.214844 52.238281 C 91 52.328125 90.875 52.417969 90.867188 52.421875 C 90.871094 52.417969 91 52.328125 91.214844 52.238281 C 91.167969 49.863281 91.011719 47.386719 90.855469 44.972656 C 90.8125 44.265625 90.769531 43.566406 90.726562 42.890625 C 90.703125 42.40625 90.351562 42.089844 89.847656 42.089844 C 89.539062 42.089844 89.230469 42.21875 89.03125 42.4375 C 88.847656 42.636719 88.757812 42.882812 88.777344 43.164062 C 88.9375 45.34375 89.011719 47.316406 89.085938 49.230469 C 89.136719 50.589844 89.191406 51.988281 89.273438 53.464844 C 89.085938 53.65625 88.390625 54.371094 87.792969 54.902344 C 87.21875 55.414062 86.296875 57.46875 86.105469 57.90625 L 75.050781 66.257812 C 75.027344 66.273438 74.953125 66.339844 74.832031 66.4375 C 73.320312 67.71875 72.722656 68.125 72.488281 68.242188 C 71.664062 66.4375 71.050781 64.441406 70.457031 62.507812 C 70.203125 61.671875 69.9375 60.820312 69.660156 59.988281 C 71.15625 59.207031 72.476562 58.40625 73.410156 57.667969 C 73.390625 57.632812 73.363281 57.59375 73.34375 57.558594 C 73.414062 57.503906 73.492188 57.449219 73.5625 57.398438 C 73.660156 57.316406 73.683594 57.179688 73.617188 57.074219 C 70.671875 52.183594 67.144531 46.640625 62.628906 42.714844 C 58.960938 39.53125 54.355469 37.792969 48.933594 37.546875 L 48.582031 37.53125 C 47.667969 37.496094 46.628906 37.460938 45.960938 36.902344 C 45.941406 36.882812 45.917969 36.871094 45.890625 36.859375 C 45.914062 36.871094 45.9375 36.882812 45.957031 36.898438 C 45.957031 36.898438 45.953125 36.898438 45.953125 36.898438 C 45.660156 36.648438 45.601562 36.265625 45.601562 35.851562 C 46.34375 35.738281 47.0625 35.558594 47.683594 35.328125 C 51.386719 33.933594 53.601562 30.347656 54.257812 24.675781 C 54.464844 22.933594 54.449219 21.148438 54.25 19.390625 C 55.980469 16.332031 54.625 12.449219 53.25 9.484375 C 53.664062 9.046875 54.007812 8.5 54.21875 7.875 C 54.921875 5.855469 53.796875 4.003906 52.289062 2.652344 C 51.394531 1.628906 50.054688 0.769531 48.855469 0.425781 C 45.898438 -0.425781 42.675781 0.140625 39.761719 0.917969 C 35.925781 1.9375 33.90625 3.1875 33.308594 3.597656 C 32.496094 2.550781 30.796875 3.1875 29.800781 3.609375 C 28.242188 4.269531 26.804688 5.179688 25.769531 6.554688 C 23.394531 9.703125 22.648438 13.933594 23.230469 17.8125 C 23.371094 20.707031 24.320312 23.625 26.3125 26.101562 C 27.152344 27.140625 29.949219 30.363281 31.789062 31.324219 C 32.398438 31.890625 33.0625 32.457031 33.796875 33.019531 C 33.804688 33.503906 33.835938 35.542969 33.839844 35.746094 C 33.859375 36.328125 33.757812 36.671875 33.492188 36.898438 C 32.820312 37.460938 31.78125 37.496094 30.859375 37.53125 L 30.507812 37.546875 C 30.125 37.5625 29.730469 37.574219 29.335938 37.589844 C 24.660156 37.769531 18.839844 37.992188 13.023438 43.414062 C 7.625 48.449219 5.960938 54.296875 4.628906 58.992188 C 4.519531 59.375 4.414062 59.753906 4.304688 60.121094 C 4.273438 60.214844 4.308594 60.320312 4.390625 60.386719 C 4.863281 60.761719 5.570312 61.089844 6.425781 61.378906 C 6.433594 61.382812 6.445312 61.382812 6.453125 61.386719 C 6.453125 66.796875 6.707031 73.335938 8.574219 76.285156 C 8.984375 76.914062 9.402344 77.480469 9.84375 77.996094 C 6.648438 77.992188 3.457031 77.988281 0.261719 77.988281 C -0.0585938 77.988281 -0.0585938 78.484375 0.261719 78.484375 C 3.601562 78.484375 6.945312 78.492188 10.285156 78.496094 C 11.003906 79.257812 11.773438 79.910156 12.652344 80.484375 C 13.164062 80.816406 13.710938 81.128906 14.308594 81.417969 C 14.796875 81.632812 15.304688 81.855469 15.824219 82.078125 C 17.070312 82.605469 18.394531 83.097656 19.707031 83.363281 C 26.949219 84.628906 36.683594 84.019531 43.621094 83.285156 C 43.640625 83.28125 43.664062 83.28125 43.691406 83.277344 L 43.828125 83.320312 C 44.15625 83.511719 44.441406 83.679688 44.710938 83.832031 C 45.679688 84.378906 46.40625 84.722656 47.753906 85.246094 C 48.417969 85.464844 49.601562 85.523438 49.632812 85.523438 C 49.695312 85.535156 50.601562 85.648438 51.785156 85.648438 C 52.71875 85.648438 53.816406 85.578125 54.828125 85.328125 C 54.9375 85.3125 55.933594 85.164062 56.027344 84.539062 C 56.054688 84.328125 56.015625 84.121094 55.933594 83.929688 L 65.742188 86.613281 C 65.761719 86.621094 65.785156 86.621094 65.804688 86.621094 C 65.828125 86.621094 65.851562 86.621094 65.875 86.609375 L 69.09375 85.691406 C 69.070312 85.667969 69.035156 85.648438 69.011719 85.617188 C 68.910156 85.523438 68.910156 85.363281 69.011719 85.269531 C 69.058594 85.21875 69.121094 85.195312 69.183594 85.195312 C 69.121094 85.195312 69.058594 85.21875 69.011719 85.269531 C 68.910156 85.363281 68.910156 85.523438 69.011719 85.617188 C 69.035156 85.648438 69.070312 85.667969 69.09375 85.691406 C 69.511719 86.078125 69.992188 86.285156 70.5 86.285156 C 71.382812 86.285156 72.164062 85.648438 72.613281 84.691406 C 72.703125 84.511719 72.777344 84.320312 72.835938 84.113281 C 72.921875 83.820312 72.980469 83.511719 73.007812 83.1875 C 74.152344 82.878906 75.375 82.546875 76.632812 82.203125 C 76.605469 82.515625 76.542969 82.816406 76.449219 83.082031 L 72.835938 84.113281 C 72.777344 84.320312 72.703125 84.511719 72.613281 84.691406 L 73.351562 84.484375 C 73.359375 84.492188 73.359375 84.503906 73.371094 84.507812 C 73.773438 84.917969 74.261719 85.132812 74.769531 85.132812 C 75.644531 85.132812 76.410156 84.472656 76.824219 83.496094 L 77.652344 83.261719 C 77.976562 83.507812 78.335938 83.636719 78.714844 83.636719 C 79.421875 83.636719 80.046875 83.179688 80.457031 82.464844 L 81.355469 82.207031 C 81.332031 82.191406 81.308594 82.175781 81.289062 82.15625 C 81.183594 82.0625 81.171875 81.90625 81.265625 81.804688 C 81.3125 81.75 81.375 81.722656 81.4375 81.722656 C 81.375 81.722656 81.3125 81.75 81.265625 81.804688 C 81.171875 81.90625 81.183594 82.0625 81.289062 82.15625 C 81.308594 82.175781 81.332031 82.191406 81.355469 82.207031 C 81.699219 82.492188 82.089844 82.640625 82.492188 82.640625 C 83.234375 82.640625 83.886719 82.144531 84.289062 81.375 C 84.382812 81.191406 84.46875 80.996094 84.53125 80.789062 C 84.605469 80.539062 84.65625 80.273438 84.6875 80 C 85.867188 79.675781 86.976562 79.375 87.957031 79.105469 C 87.914062 79.378906 87.839844 79.636719 87.753906 79.871094 C 87.664062 80.101562 87.546875 80.308594 87.417969 80.484375 C 87.113281 80.894531 86.710938 81.144531 86.273438 81.144531 C 86.066406 81.144531 85.867188 81.085938 85.675781 80.980469 C 85.550781 80.914062 85.433594 80.828125 85.320312 80.714844 C 85.21875 80.617188 85.066406 80.617188 84.964844 80.714844 C 84.894531 80.789062 84.875 80.894531 84.914062 80.984375 C 84.875 80.894531 84.894531 80.789062 84.964844 80.714844 C 85.0625 80.617188 85.21875 80.617188 85.316406 80.714844 C 85.433594 80.828125 85.550781 80.910156 85.675781 80.980469 L 87.417969 80.484375 C 87.546875 80.308594 87.664062 80.101562 87.753906 79.871094 L 84.53125 80.789062 C 84.46875 80.996094 84.382812 81.191406 84.289062 81.375 L 85.070312 81.152344 C 85.429688 81.46875 85.839844 81.644531 86.273438 81.644531 C 87.039062 81.644531 87.71875 81.105469 88.117188 80.289062 L 92.152344 79.140625 C 92.257812 79.109375 92.332031 79.007812 92.332031 78.898438 L 92.332031 78.621094 C 96.53125 78.625 100.730469 78.632812 104.929688 78.640625 C 107.199219 78.640625 109.46875 78.644531 111.738281 78.652344 C 112.0625 78.652344 112.0625 78.152344 111.738281 78.152344 "/></g><path style=" stroke:none;fill-rule:nonzero;fill:#100f0d;fill-opacity:1;" d="M 43.554688 77.136719 L 43.605469 77.125 C 43.390625 77.078125 43.132812 77.019531 42.839844 76.949219 C 43.296875 77.070312 43.554688 77.136719 43.554688 77.136719 "/><path style=" stroke:none;fill-rule:nonzero;fill:#100f0d;fill-opacity:1;" d="M 82.074219 75.503906 L 62.792969 79.882812 C 62.660156 79.914062 62.574219 80.046875 62.605469 80.179688 C 62.628906 80.296875 62.734375 80.375 62.847656 80.375 C 62.863281 80.375 62.882812 80.371094 62.902344 80.367188 L 82.183594 75.988281 C 82.316406 75.957031 82.402344 75.824219 82.371094 75.691406 C 82.339844 75.554688 82.207031 75.472656 82.074219 75.503906 "/><path style=" stroke:none;fill-rule:nonzero;fill:#100f0d;fill-opacity:1;" d="M 77.476562 75.136719 C 77.449219 75.003906 77.316406 74.914062 77.183594 74.941406 L 60.429688 78.359375 C 60.296875 78.390625 60.210938 78.519531 60.238281 78.65625 C 60.261719 78.773438 60.363281 78.855469 60.480469 78.855469 C 60.496094 78.855469 60.511719 78.851562 60.53125 78.847656 L 77.28125 75.429688 C 77.417969 75.402344 77.503906 75.273438 77.476562 75.136719 "/><path style=" stroke:none;fill-rule:nonzero;fill:#100f0d;fill-opacity:1;" d="M 64.1875 76.289062 C 64.203125 76.289062 64.222656 76.289062 64.238281 76.285156 L 73.300781 74.433594 C 73.433594 74.40625 73.519531 74.277344 73.492188 74.140625 C 73.464844 74.003906 73.332031 73.917969 73.199219 73.945312 L 64.140625 75.796875 C 64.003906 75.824219 63.917969 75.957031 63.945312 76.089844 C 63.96875 76.207031 64.074219 76.289062 64.1875 76.289062 "/><path style=" stroke:none;fill-rule:nonzero;fill:#100f0d;fill-opacity:1;" d="M 49.125 27.640625 C 53.207031 27.304688 50.757812 22.714844 49.496094 20.691406 C 49.328125 20.421875 48.894531 20.671875 49.066406 20.945312 C 50.089844 22.582031 52.640625 26.855469 49.125 27.140625 C 48.808594 27.167969 48.804688 27.664062 49.125 27.640625 "/><path style=" stroke:none;fill-rule:nonzero;fill:#100f0d;fill-opacity:1;" d="M 45.746094 28.9375 C 45.5625 28.675781 45.132812 28.925781 45.320312 29.1875 C 46.296875 30.5625 48.402344 30.621094 49.792969 29.871094 C 50.074219 29.71875 49.824219 29.289062 49.539062 29.441406 C 48.414062 30.050781 46.558594 30.074219 45.746094 28.9375 "/><path style=" stroke:none;fill-rule:nonzero;fill:#100f0d;fill-opacity:1;" d="M 43.648438 18.945312 C 44.253906 18.785156 44.875 18.746094 45.5 18.738281 C 45.859375 18.730469 46.558594 18.839844 46.8125 18.5 C 47.066406 18.160156 46.085938 17.878906 45.917969 17.835938 C 45.105469 17.625 44.230469 17.695312 43.464844 18.039062 C 43.230469 18.144531 42.136719 18.6875 42.414062 19.097656 C 42.609375 19.382812 43.414062 19.007812 43.648438 18.945312 "/><path style=" stroke:none;fill-rule:nonzero;fill:#100f0d;fill-opacity:1;" d="M 52.539062 22.125 C 52.917969 22.054688 53.136719 21.511719 53.027344 20.910156 C 52.914062 20.304688 52.519531 19.875 52.140625 19.945312 C 51.761719 20.015625 51.542969 20.558594 51.65625 21.160156 C 51.765625 21.761719 52.160156 22.191406 52.539062 22.125 "/><path style=" stroke:none;fill-rule:nonzero;fill:#100f0d;fill-opacity:1;" d="M 45.691406 22.386719 C 46.070312 22.320312 46.289062 21.773438 46.175781 21.171875 C 46.066406 20.570312 45.671875 20.140625 45.292969 20.210938 C 44.914062 20.28125 44.695312 20.824219 44.808594 21.425781 C 44.917969 22.027344 45.3125 22.457031 45.691406 22.386719 "/></g></svg>