<svg xmlns="http://www.w3.org/2000/svg" xmlns:xlink="http://www.w3.org/1999/xlink" width="150" zoomAndPan="magnify" viewBox="0 0 113.04 120.96" height="150" preserveAspectRatio="xMidYMid meet" version="1.2"><defs><clipPath id="a1f33670ab"><path d="M 0 0.488281 L 111.550781 0.488281 L 111.550781 112.042969 L 0 112.042969 Z M 0 0.488281 "/></clipPath><clipPath id="25905f3b79"><path d="M 0 0.488281 L 100.464844 0.488281 L 100.464844 111 L 0 111 Z M 0 0.488281 "/></clipPath><clipPath id="70222ecf03"><path d="M 0 0.488281 L 100.464844 0.488281 L 100.464844 111 L 0 111 Z M 0 0.488281 "/></clipPath></defs><g id="796971e83e"><g clip-rule="nonzero" clip-path="url(#a1f33670ab)"><path style=" stroke:none;fill-rule:nonzero;fill:#ffffff;fill-opacity:1;" d="M 0 0.488281 L 111.550781 0.488281 L 111.550781 112.042969 L 0 112.042969 Z M 0 0.488281 "/><path style=" stroke:none;fill-rule:nonzero;fill:#ffffff;fill-opacity:1;" d="M 0 0.488281 L 111.550781 0.488281 L 111.550781 112.042969 L 0 112.042969 Z M 0 0.488281 "/></g><g clip-rule="nonzero" clip-path="url(#25905f3b79)"><path style=" stroke:none;fill-rule:nonzero;fill:#ffffff;fill-opacity:1;" d="M 60.976562 47.429688 L 56.042969 47.429688 C 55.460938 47.429688 54.984375 47.902344 54.984375 48.484375 L 54.984375 48.839844 C 54.984375 49.125 55.097656 49.390625 55.300781 49.59375 L 55.609375 49.894531 L 48.753906 49.894531 L 48.527344 49.230469 C 48.207031 48.292969 47.902344 47.398438 47.707031 46.832031 L 47.660156 46.683594 L 47.796875 46.617188 C 48.980469 46.023438 49.9375 45.441406 50.570312 44.941406 C 50.085938 44.144531 49.648438 43.429688 49.226562 42.769531 L 49.058594 42.5 L 60.976562 42.5 Z M 45.039062 88.722656 L 45.304688 88.699219 L 45.222656 88.953125 C 44.671875 90.671875 43.976562 92.382812 43.363281 93.890625 L 43.285156 94.078125 C 42.933594 94.953125 42.597656 95.773438 42.316406 96.539062 C 42.117188 97.089844 41.917969 97.898438 41.761719 98.808594 L 41.414062 98.8125 C 40.90625 96.03125 40.328125 93.304688 39.695312 90.714844 L 39.675781 90.644531 L 39.710938 90.582031 C 39.890625 90.28125 40.070312 89.980469 40.246094 89.679688 L 40.636719 89.015625 L 40.730469 89.011719 C 42.308594 88.933594 43.71875 88.839844 45.039062 88.722656 Z M 36.8125 98.015625 C 36.402344 97.761719 36.0625 97.554688 35.882812 97.449219 L 35.753906 97.371094 L 35.8125 97.230469 C 35.9375 96.929688 36.082031 96.617188 36.257812 96.269531 L 36.449219 95.886719 L 36.582031 96.296875 C 36.726562 96.746094 36.875 97.195312 37.023438 97.648438 L 37.226562 98.273438 Z M 100.273438 58.171875 L 92.695312 58.160156 L 92.695312 51.65625 C 92.695312 50.683594 91.90625 49.894531 90.933594 49.894531 L 80.085938 49.894531 L 80.390625 49.59375 C 80.597656 49.390625 80.710938 49.121094 80.710938 48.839844 L 80.710938 48.484375 C 80.710938 47.902344 80.238281 47.429688 79.65625 47.429688 L 74.722656 47.429688 L 74.722656 42.5 L 90.933594 42.5 C 91.90625 42.5 92.695312 41.707031 92.695312 40.738281 L 92.695312 12.5625 C 92.695312 11.589844 91.90625 10.800781 90.933594 10.800781 L 45.117188 10.800781 C 44.144531 10.800781 43.355469 11.589844 43.355469 12.5625 L 43.355469 34.914062 L 43.351562 35.3125 L 43.058594 35.042969 C 42.976562 34.972656 42.898438 34.898438 42.820312 34.832031 C 40.257812 32.605469 37.03125 31.390625 33.230469 31.21875 L 32.964844 31.207031 C 32.316406 31.179688 31.585938 31.152344 31.070312 30.761719 L 30.957031 30.757812 L 30.957031 30.664062 C 30.71875 30.417969 30.695312 30.078125 30.703125 29.796875 L 30.707031 29.660156 L 30.839844 29.628906 C 31.21875 29.546875 31.578125 29.441406 31.9375 29.308594 C 32.953125 28.925781 33.894531 28.222656 34.65625 27.269531 C 35.332031 26.417969 35.828125 25.320312 36.089844 24.101562 C 36.304688 23.097656 36.453125 22.191406 36.546875 21.335938 C 36.753906 19.4375 36.691406 17.746094 36.359375 16.308594 L 36.304688 16.078125 C 36.179688 15.515625 36.019531 14.808594 35.8125 14.152344 L 35.777344 14.035156 L 35.875 13.960938 C 36.441406 13.527344 36.679688 12.992188 36.582031 12.367188 C 36.386719 11.078125 35.371094 10.023438 34.511719 9.246094 C 33.605469 8.429688 32.550781 7.878906 30.988281 7.40625 C 29.578125 6.980469 28.363281 6.773438 27.265625 6.773438 C 26.625 6.773438 26.027344 6.847656 25.480469 6.996094 L 25.421875 7.046875 L 25.351562 7.046875 L 25.316406 7.050781 L 25.171875 7.050781 L 25.136719 6.921875 C 24.714844 5.492188 24.167969 3.863281 22.960938 2.664062 C 21.578125 1.285156 19.738281 0.464844 18.042969 0.464844 C 17.121094 0.464844 16.261719 0.703125 15.496094 1.171875 C 14.832031 1.589844 14.3125 2.140625 13.949219 2.828125 C 12.886719 4.445312 12.6875 6.496094 13.398438 8.449219 C 14.074219 10.300781 15.480469 11.660156 16.988281 11.914062 C 17.042969 11.921875 17.09375 11.929688 17.144531 11.933594 L 17.53125 11.953125 L 17.261719 12.230469 C 17.003906 12.496094 16.769531 12.765625 16.5625 13.039062 C 15.339844 14.640625 14.839844 16.453125 15.148438 18.140625 C 15.203125 18.4375 15.289062 18.746094 15.40625 19.082031 C 15.59375 19.605469 15.847656 20.117188 16.160156 20.601562 L 16.171875 20.617188 L 16.175781 20.636719 C 16.203125 20.710938 16.230469 20.78125 16.261719 20.851562 C 17.027344 22.609375 18.367188 24.210938 20.132812 25.480469 L 20.339844 25.625 L 20.351562 25.640625 C 20.882812 26.230469 21.527344 26.828125 22.257812 27.414062 C 22.402344 27.527344 22.546875 27.640625 22.710938 27.765625 C 22.71875 27.769531 22.726562 27.777344 22.730469 27.777344 C 23.375 28.027344 23.070312 29.441406 23.035156 29.601562 C 22.855469 30.371094 22.308594 30.867188 21.40625 31.082031 L 21.085938 31.15625 C 20.410156 31.308594 19.804688 31.453125 19.21875 31.679688 C 18.054688 32.140625 16.960938 32.78125 15.96875 33.578125 C 14.335938 34.902344 13.199219 36.65625 12.210938 38.351562 C 10.910156 40.582031 10.152344 42.796875 9.960938 44.941406 C 10.074219 45.03125 10.203125 45.125 10.332031 45.21875 L 10.414062 45.273438 L 10.246094 48.078125 L 9.828125 48.125 C 7.511719 48.378906 5.113281 48.644531 4.210938 50.625 C 3.816406 51.347656 3.75 57.882812 3.75 57.882812 L -1.230469 58.054688 L -1.230469 59.816406 C -0.410156 59.816406 0.414062 59.816406 1.238281 59.820312 L 4.042969 59.820312 L 4.050781 59.984375 C 4.546875 67.324219 5.726562 77.117188 6.34375 81.730469 C 6.667969 83.1875 7.117188 85.09375 7.707031 86.898438 C 8.054688 87.976562 8.667969 88.585938 9.6875 88.882812 L 9.851562 88.929688 L 9.808594 89.097656 C 8.132812 95.589844 6.855469 102.699219 5.898438 110.824219 L 7.621094 110.824219 C 9.457031 105.769531 11.296875 100.074219 13.085938 94.546875 C 13.632812 92.835938 14.171875 91.175781 14.703125 89.554688 L 14.742188 89.421875 L 14.882812 89.433594 C 16.902344 89.570312 19.058594 89.636719 21.46875 89.636719 C 21.78125 89.636719 22.097656 89.636719 22.414062 89.632812 L 22.640625 89.632812 L 22.585938 89.851562 C 21.414062 94.5 20.496094 99.402344 19.773438 104.835938 L 21.5 104.835938 C 23.347656 100.394531 25.203125 95.367188 27 90.5 C 27.109375 90.210938 27.214844 89.925781 27.320312 89.632812 L 27.363281 89.519531 L 27.480469 89.515625 C 27.835938 89.507812 28.191406 89.492188 28.546875 89.480469 L 28.84375 89.46875 L 28.757812 89.710938 C 28.253906 91.164062 27.667969 92.613281 27.148438 93.890625 L 27.015625 94.222656 C 26.683594 95.042969 26.371094 95.816406 26.109375 96.542969 C 25.605469 97.898438 25.300781 100.363281 25.300781 101.085938 C 25.300781 102.285156 25.347656 103.957031 25.347656 103.957031 L 25.4375 104.308594 C 25.4375 104.308594 25.894531 104.90625 26.035156 105.066406 L 27.738281 105.066406 C 30.40625 105.046875 33.882812 104.988281 36.933594 104.9375 C 37.4375 104.933594 39.414062 104.910156 39.414062 104.910156 L 39.457031 105.03125 C 40.214844 107.265625 40.875 109.160156 41.476562 110.824219 L 43.199219 110.824219 C 42.976562 108.914062 42.71875 106.980469 42.445312 105.074219 L 42.414062 104.882812 L 42.605469 104.871094 C 42.667969 104.867188 42.71875 104.867188 42.753906 104.867188 C 42.800781 104.867188 42.847656 104.859375 42.902344 104.847656 L 42.953125 104.835938 L 56.808594 104.835938 L 57.46875 104.84375 C 58.257812 104.855469 58.796875 104.863281 58.96875 104.863281 C 59 104.863281 59.03125 104.859375 59.082031 104.851562 C 59.125 104.847656 59.167969 104.839844 59.222656 104.824219 C 59.238281 104.820312 59.253906 104.816406 59.265625 104.808594 L 59.273438 104.804688 L 59.320312 104.789062 C 59.332031 104.78125 59.347656 104.773438 59.378906 104.753906 C 59.441406 104.722656 59.496094 104.679688 59.539062 104.628906 C 59.558594 104.605469 59.578125 104.585938 59.597656 104.558594 C 59.613281 104.535156 59.882812 104.226562 59.882812 104.226562 C 59.894531 104.183594 59.882812 104.035156 59.882812 104.035156 C 59.839844 103.535156 59.234375 102.441406 56.855469 100.613281 C 56.644531 100.449219 56.34375 100.242188 55.9375 99.976562 L 55.875 99.933594 L 55.859375 99.855469 C 55.464844 97.46875 55.015625 95.140625 54.527344 92.945312 L 54.511719 92.875 L 54.550781 92.8125 C 54.882812 92.296875 55.261719 91.707031 55.601562 91.128906 L 56.4375 89.726562 C 58.066406 86.996094 59.917969 83.902344 60.925781 81.136719 L 60.9375 81.109375 C 61.433594 79.644531 62.023438 77.417969 62.023438 75.121094 C 62.023438 71.644531 60.710938 68.976562 58.125 67.195312 C 55.605469 65.457031 52.21875 65.035156 48.917969 64.628906 L 47.757812 64.480469 C 46.816406 64.359375 45.101562 64.074219 44.523438 63.972656 L 44.410156 63.953125 L 44.382812 63.839844 C 44.3125 63.558594 44.191406 63.203125 44.019531 62.78125 C 43.625 61.796875 43.074219 60.722656 42.949219 60.492188 L 42.929688 60.429688 L 42.851562 59.863281 L 44.257812 59.863281 L 44.308594 59.90625 C 45.320312 60.789062 46.902344 61.253906 48.878906 61.253906 C 51.289062 61.253906 54.242188 60.792969 57.644531 59.886719 L 57.667969 59.878906 L 63.863281 59.886719 C 74.332031 59.902344 84.796875 59.914062 95.265625 59.925781 L 100.273438 59.933594 L 100.273438 58.171875 "/></g><path style=" stroke:none;fill-rule:nonzero;fill:#100f0d;fill-opacity:1;" d="M 67.996094 41.410156 C 67.695312 41.410156 67.445312 41.164062 67.445312 40.859375 C 67.445312 40.558594 67.695312 40.3125 67.996094 40.3125 C 68.300781 40.3125 68.542969 40.558594 68.542969 40.859375 C 68.542969 41.164062 68.300781 41.410156 67.996094 41.410156 Z M 67.996094 39.957031 C 67.5 39.957031 67.09375 40.363281 67.09375 40.859375 C 67.09375 41.359375 67.5 41.761719 67.996094 41.761719 C 68.492188 41.761719 68.894531 41.359375 68.894531 40.859375 C 68.894531 40.363281 68.492188 39.957031 67.996094 39.957031 "/><path style=" stroke:none;fill-rule:nonzero;fill:#100f0d;fill-opacity:1;" d="M 42.953125 58.015625 L 42.917969 57.867188 C 42.917969 57.875 42.917969 57.882812 42.917969 57.890625 C 42.929688 57.933594 42.945312 57.972656 42.953125 58.015625 "/><path style=" stroke:none;fill-rule:nonzero;fill:#100f0d;fill-opacity:1;" d="M 46.703125 17.667969 L 50.226562 17.667969 L 50.226562 35.628906 L 46.703125 35.628906 Z M 46.347656 17.492188 L 46.347656 35.808594 C 46.347656 35.90625 46.425781 35.984375 46.523438 35.984375 L 50.402344 35.984375 C 50.496094 35.984375 50.578125 35.90625 50.578125 35.808594 L 50.578125 17.492188 C 50.578125 17.394531 50.496094 17.316406 50.402344 17.316406 L 46.527344 17.316406 C 46.425781 17.316406 46.347656 17.394531 46.347656 17.492188 "/><path style=" stroke:none;fill-rule:nonzero;fill:#100f0d;fill-opacity:1;" d="M 89.347656 25.066406 L 82.652344 25.066406 L 82.652344 18.019531 L 89.347656 18.019531 Z M 89.699219 17.667969 L 82.296875 17.667969 L 82.296875 25.417969 L 89.699219 25.417969 L 89.699219 17.667969 "/><path style=" stroke:none;fill-rule:nonzero;fill:#100f0d;fill-opacity:1;" d="M 82.652344 26.824219 L 89.347656 26.824219 L 89.347656 33.871094 L 82.652344 33.871094 Z M 82.476562 34.222656 L 89.523438 34.222656 C 89.617188 34.222656 89.699219 34.144531 89.699219 34.046875 L 89.699219 26.648438 C 89.699219 26.550781 89.617188 26.472656 89.523438 26.472656 L 82.476562 26.472656 C 82.375 26.472656 82.296875 26.550781 82.296875 26.648438 L 82.296875 34.046875 C 82.296875 34.144531 82.375 34.222656 82.476562 34.222656 "/><path style=" stroke:none;fill-rule:nonzero;fill:#100f0d;fill-opacity:1;" d="M 83 20.132812 L 84.765625 20.132812 L 84.765625 21.894531 L 83 21.894531 L 83 20.132812 "/><path style=" stroke:none;fill-rule:nonzero;fill:#100f0d;fill-opacity:1;" d="M 85.46875 20.488281 L 86.527344 20.488281 L 86.527344 21.542969 L 85.46875 21.542969 Z M 85.117188 21.894531 L 86.878906 21.894531 L 86.878906 20.132812 L 85.117188 20.132812 L 85.117188 21.894531 "/><path style=" stroke:none;fill-rule:nonzero;fill:#100f0d;fill-opacity:1;" d="M 83.355469 22.601562 L 84.414062 22.601562 L 84.414062 23.65625 L 83.355469 23.65625 Z M 83.003906 24.007812 L 84.765625 24.007812 L 84.765625 22.246094 L 83.003906 22.246094 L 83.003906 24.007812 "/><path style=" stroke:none;fill-rule:nonzero;fill:#100f0d;fill-opacity:1;" d="M 87.230469 20.132812 L 88.992188 20.132812 L 88.992188 21.894531 L 87.230469 21.894531 L 87.230469 20.132812 "/><path style=" stroke:none;fill-rule:nonzero;fill:#100f0d;fill-opacity:1;" d="M 85.117188 22.246094 L 86.878906 22.246094 L 86.878906 24.007812 L 85.117188 24.007812 L 85.117188 22.246094 "/><path style=" stroke:none;fill-rule:nonzero;fill:#100f0d;fill-opacity:1;" d="M 83 19.078125 L 88.992188 19.078125 L 88.992188 19.429688 L 83 19.429688 L 83 19.078125 "/><g clip-rule="nonzero" clip-path="url(#70222ecf03)"><path style=" stroke:none;fill-rule:nonzero;fill:#100f0d;fill-opacity:1;" d="M 100.097656 59.757812 L 99.835938 59.757812 C 99.421875 59.757812 99.011719 59.757812 98.59375 59.753906 C 97.082031 59.753906 95.570312 59.75 94.058594 59.75 C 83.375 59.734375 72.691406 59.722656 62.007812 59.707031 C 60.988281 59.707031 59.96875 59.707031 58.945312 59.703125 C 61.035156 59.097656 62.640625 58.511719 63.199219 58.300781 C 63.199219 58.300781 63.199219 58.300781 63.203125 58.300781 C 63.546875 58.300781 63.890625 58.300781 64.238281 58.300781 C 65.292969 58.304688 66.351562 58.304688 67.410156 58.304688 C 67.367188 58.304688 67.324219 58.304688 67.28125 58.304688 C 67.324219 58.304688 67.367188 58.304688 67.410156 58.304688 C 67.453125 58.308594 67.492188 58.304688 67.535156 58.304688 C 76.871094 58.320312 86.207031 58.328125 95.542969 58.339844 C 96.820312 58.34375 98.097656 58.34375 99.378906 58.347656 L 100.097656 58.347656 Z M 67.097656 58.300781 L 66.984375 58.296875 C 66.554688 58.289062 65.714844 58.273438 64.949219 58.261719 C 65.714844 58.273438 66.554688 58.289062 66.984375 58.292969 Z M 48.878906 61.078125 C 45.804688 61.078125 43.828125 59.957031 43.296875 57.929688 L 43.210938 57.566406 L 41.1875 49.199219 C 42.941406 48.878906 45.441406 47.960938 47.554688 46.933594 C 47.554688 46.9375 47.554688 46.9375 47.558594 46.941406 C 48.140625 48.644531 49.652344 53.066406 49.652344 53.066406 C 49.675781 53.140625 49.738281 53.179688 49.820312 53.1875 L 62.675781 53.003906 C 62.714844 53.003906 62.753906 52.992188 62.785156 52.964844 C 63.101562 52.710938 64 52.042969 64.414062 52.003906 C 64.828125 51.960938 65.3125 51.890625 65.625 51.84375 L 65.269531 52.699219 C 65.242188 52.769531 65.257812 52.851562 65.316406 52.898438 C 65.375 52.949219 65.457031 52.957031 65.523438 52.917969 L 67.214844 51.882812 C 67.425781 51.898438 68.242188 52.039062 68.234375 53.109375 C 68.234375 53.164062 68.257812 53.214844 68.296875 53.246094 C 68.328125 53.273438 69.074219 53.894531 68.660156 54.683594 C 68.621094 54.75 68.636719 54.839844 68.691406 54.894531 C 68.710938 54.914062 69.21875 55.425781 68.8125 56.449219 C 68.792969 56.496094 68.792969 56.546875 68.8125 56.589844 C 68.972656 56.917969 68.984375 57.117188 68.859375 57.386719 C 68.578125 57.992188 67.8125 57.96875 67.195312 57.949219 L 66.992188 57.941406 C 66.082031 57.929688 63.355469 57.878906 63.355469 57.878906 C 63.332031 57.878906 63.308594 57.882812 63.289062 57.890625 C 63.207031 57.921875 55.144531 61.078125 48.878906 61.078125 Z M 43.007812 59.683594 L 42.984375 59.519531 L 42.855469 58.570312 C 42.945312 58.558594 43.035156 58.546875 43.125 58.535156 C 43.128906 58.535156 43.128906 58.539062 43.128906 58.539062 C 43.300781 58.964844 43.539062 59.351562 43.835938 59.683594 Z M 44.234375 63.988281 L 44.257812 64.105469 L 44.375 64.125 C 44.402344 64.128906 46.59375 64.511719 47.734375 64.660156 C 48.117188 64.707031 48.507812 64.753906 48.898438 64.804688 C 52.160156 65.203125 55.539062 65.625 58.03125 67.339844 C 58.761719 67.847656 59.363281 68.410156 59.859375 69.011719 C 58.785156 70.203125 57.460938 71.179688 56.117188 72.03125 C 55.257812 72.578125 54.277344 73.152344 53.246094 73.484375 C 52.953125 73.269531 52.566406 73.097656 52.0625 72.949219 C 51.949219 72.917969 51.835938 72.890625 51.722656 72.859375 C 50.5625 72.53125 49.378906 72.253906 48.21875 71.925781 C 45.703125 71.214844 42.402344 70.300781 40.945312 67.917969 C 40.058594 66.585938 39.75 64.992188 39.617188 63.335938 C 39.578125 62.875 39.558594 62.40625 39.539062 61.9375 C 39.523438 61.503906 39.511719 61.070312 39.5 60.636719 L 42.824219 60.636719 C 43.054688 61.082031 44.019531 62.984375 44.234375 63.988281 Z M 60.792969 80.980469 C 60.785156 81.003906 60.773438 81.023438 60.773438 81.050781 C 60.773438 81.050781 60.769531 81.050781 60.769531 81.054688 C 60.757812 81.085938 60.742188 81.117188 60.734375 81.148438 C 59.722656 83.890625 57.886719 86.964844 56.261719 89.679688 C 55.980469 90.148438 55.710938 90.601562 55.449219 91.042969 C 55.179688 91.5 54.886719 91.964844 54.585938 92.425781 C 54.121094 90.371094 53.613281 88.386719 53.058594 86.464844 C 53.714844 85.566406 53.980469 84.253906 54.066406 82.210938 C 54.097656 81.523438 54.105469 80.753906 54.105469 79.890625 C 54.097656 78.484375 54.152344 77.066406 54.109375 75.65625 C 54.101562 75.394531 54.078125 75.15625 54.046875 74.9375 C 53.96875 74.433594 53.816406 74.050781 53.542969 73.75 C 54.449219 73.425781 55.3125 72.933594 56.085938 72.464844 C 57.527344 71.601562 58.945312 70.539062 60.078125 69.292969 C 62.820312 72.945312 61.804688 77.976562 60.792969 80.980469 Z M 52.601562 83.746094 C 52.4375 83.929688 52.273438 84.113281 52.019531 84.398438 C 51.882812 83.769531 52.082031 83.613281 52.601562 83.746094 Z M 50.085938 87.792969 C 50.175781 87.414062 50.222656 87.214844 50.265625 87.035156 C 50.414062 87.046875 50.460938 87.035156 50.476562 87.054688 C 50.65625 87.316406 50.660156 87.539062 50.085938 87.792969 Z M 56.40625 104.660156 L 55 104.660156 C 53.164062 100.253906 51.328125 95.265625 49.546875 90.441406 C 49.292969 89.761719 49.046875 89.09375 48.800781 88.429688 C 50.746094 88.050781 51.996094 87.625 52.789062 86.789062 C 54.324219 92.191406 55.515625 98.078125 56.40625 104.660156 Z M 42.507812 104.308594 C 42.488281 104.191406 42.472656 104.074219 42.453125 103.957031 L 54.328125 103.957031 C 54.378906 104.074219 54.425781 104.191406 54.472656 104.308594 Z M 43 110.648438 L 41.597656 110.648438 C 39.78125 105.617188 37.949219 99.960938 36.179688 94.492188 C 35.621094 92.75 35.074219 91.0625 34.535156 89.414062 C 36.070312 89.363281 37.609375 89.316406 39.144531 89.253906 C 40.792969 95.660156 42.0625 102.703125 43 110.648438 Z M 36.414062 96.351562 C 36.578125 96.851562 36.742188 97.359375 36.90625 97.867188 C 36.496094 97.609375 36.152344 97.402344 35.972656 97.296875 C 36.109375 96.976562 36.253906 96.664062 36.414062 96.351562 Z M 37.5625 101.84375 L 32.984375 101.84375 C 32.425781 101.84375 32.023438 101.09375 31.796875 100.679688 C 31.515625 100.164062 31.261719 99.652344 30.8125 99.257812 C 30.019531 98.574219 28.945312 98.496094 27.957031 98.335938 C 27.261719 98.21875 26.574219 98.113281 25.871094 98.066406 C 25.980469 97.53125 26.121094 97.015625 26.269531 96.597656 C 26.570312 95.777344 26.933594 94.894531 27.3125 93.953125 C 27.875 92.570312 28.46875 91.109375 28.972656 89.636719 C 29.910156 89.601562 30.847656 89.558594 31.78125 89.515625 C 32.574219 89.480469 33.371094 89.453125 34.167969 89.425781 C 34.71875 91.105469 35.277344 92.824219 35.847656 94.597656 C 35.984375 95.023438 36.121094 95.453125 36.261719 95.878906 C 36.011719 96.34375 35.785156 96.820312 35.589844 97.304688 C 35.558594 97.386719 35.589844 97.480469 35.664062 97.523438 C 35.675781 97.527344 36.261719 97.875 36.972656 98.328125 C 37.027344 98.398438 37.078125 98.472656 37.128906 98.550781 C 37.351562 99.230469 37.574219 99.914062 37.796875 100.589844 C 37.875 101.097656 38.011719 101.84375 37.5625 101.84375 Z M 29.078125 101.308594 C 29.574219 101.015625 29.679688 101.300781 29.808594 101.539062 C 29.777344 101.601562 29.742188 101.660156 29.710938 101.722656 C 29.527344 101.601562 29.347656 101.484375 29.078125 101.308594 Z M 29.722656 102.847656 C 29.539062 102.765625 29.394531 102.699219 29.238281 102.628906 C 29.351562 102.207031 29.558594 102.1875 29.886719 102.332031 C 29.832031 102.5 29.785156 102.644531 29.722656 102.847656 Z M 28.152344 83.3125 C 28.707031 83.144531 29.265625 82.972656 29.824219 82.804688 C 29.378906 83.425781 28.773438 83.40625 28.152344 83.3125 Z M 29.914062 60.230469 C 29.785156 60.5625 29.65625 60.898438 29.503906 61.296875 C 29.285156 61.222656 29.125 61.167969 28.816406 61.0625 C 29.144531 60.652344 29.398438 60.34375 29.648438 60.03125 C 29.734375 60.097656 29.824219 60.164062 29.914062 60.230469 Z M 31.035156 58.457031 C 30.550781 58.417969 30.488281 58.164062 30.570312 57.707031 C 30.789062 57.757812 30.953125 57.796875 31.183594 57.851562 C 31.128906 58.082031 31.085938 58.257812 31.035156 58.457031 Z M 31.324219 76.8125 C 31.421875 77.050781 31.523438 77.285156 31.625 77.523438 C 31.539062 77.558594 31.453125 77.597656 31.367188 77.632812 C 31.277344 77.394531 31.191406 77.152344 31.101562 76.914062 C 31.175781 76.878906 31.25 76.847656 31.324219 76.8125 Z M 33.945312 88.242188 C 33.898438 88.339844 33.875 88.460938 33.804688 88.53125 C 33.746094 88.589844 33.640625 88.59375 33.554688 88.621094 C 33.507812 88.558594 33.457031 88.496094 33.410156 88.433594 C 33.542969 88.324219 33.675781 88.214844 33.804688 88.101562 C 33.851562 88.148438 33.898438 88.195312 33.945312 88.242188 Z M 35.808594 72.234375 C 36.121094 71.945312 36.300781 71.777344 36.523438 71.574219 C 36.820312 72.070312 36.691406 72.375 36.324219 72.859375 C 36.15625 72.660156 36.023438 72.496094 35.808594 72.234375 Z M 36.128906 76.960938 C 36.324219 77.101562 36.515625 77.238281 36.78125 77.433594 C 36.640625 77.597656 36.5625 77.695312 36.40625 77.875 C 36.21875 77.550781 36.097656 77.34375 35.972656 77.136719 C 36.027344 77.078125 36.078125 77.019531 36.128906 76.960938 Z M 39.410156 58.871094 C 40.445312 58.828125 41.480469 58.753906 42.507812 58.617188 L 42.734375 60.285156 L 39.488281 60.285156 C 39.46875 59.804688 39.445312 59.332031 39.410156 58.871094 Z M 46.632812 100.679688 C 46.34375 100.449219 46.34375 100.449219 46.550781 100.113281 C 46.578125 100.289062 46.601562 100.460938 46.632812 100.679688 Z M 47.726562 103.625 C 47.488281 103.710938 47.320312 103.773438 46.996094 103.886719 C 47.140625 103.558594 47.226562 103.367188 47.347656 103.101562 C 47.5 103.3125 47.585938 103.433594 47.726562 103.625 Z M 53.617188 102.644531 C 53.34375 102.90625 53.183594 102.824219 53.035156 102.484375 C 53.367188 102.335938 53.367188 102.335938 53.617188 102.644531 Z M 45.4375 88.867188 C 46.296875 88.785156 47.152344 88.691406 47.992188 88.578125 C 48.152344 88.550781 48.300781 88.523438 48.449219 88.496094 C 48.699219 89.179688 48.953125 89.867188 49.214844 90.566406 C 50.609375 94.347656 52.042969 98.21875 53.480469 101.84375 L 49.195312 101.84375 C 48.632812 101.84375 48.234375 101.09375 48.007812 100.679688 C 47.726562 100.164062 47.472656 99.652344 47.019531 99.257812 C 46.234375 98.570312 45.15625 98.496094 44.171875 98.335938 C 43.472656 98.21875 42.785156 98.113281 42.082031 98.066406 C 42.195312 97.527344 42.332031 97.011719 42.484375 96.597656 C 42.78125 95.777344 43.144531 94.894531 43.527344 93.953125 C 44.1875 92.328125 44.886719 90.59375 45.4375 88.867188 Z M 45.339844 75.191406 C 45.449219 74.828125 45.496094 74.660156 45.5625 74.441406 C 45.90625 74.886719 45.90625 74.886719 45.339844 75.191406 Z M 45.5625 74.054688 C 45.441406 73.929688 45.320312 73.808594 45.199219 73.683594 C 45.28125 73.605469 45.363281 73.523438 45.445312 73.445312 C 45.539062 73.597656 45.636719 73.746094 45.734375 73.898438 C 45.675781 73.949219 45.617188 74 45.5625 74.054688 Z M 44.042969 87.054688 C 44.101562 87.125 44.160156 87.195312 44.21875 87.265625 C 43.949219 87.511719 43.683594 87.757812 43.414062 88.003906 C 43.371094 87.941406 43.324219 87.875 43.28125 87.8125 C 43.535156 87.558594 43.789062 87.308594 44.042969 87.054688 Z M 44.332031 80.902344 C 44.335938 80.898438 44.339844 80.898438 44.347656 80.898438 C 44.320312 80.730469 44.292969 80.5625 44.265625 80.390625 C 44.320312 80.367188 44.371094 80.339844 44.421875 80.316406 C 44.53125 80.464844 44.640625 80.613281 44.820312 80.855469 C 44.582031 80.878906 44.460938 80.890625 44.347656 80.898438 C 44.347656 80.90625 44.347656 80.910156 44.347656 80.914062 C 44.339844 80.917969 44.335938 80.917969 44.328125 80.921875 C 44.296875 81.089844 44.265625 81.257812 44.222656 81.492188 C 43.855469 81.082031 44.066406 80.992188 44.328125 80.921875 C 44.328125 80.914062 44.332031 80.90625 44.332031 80.902344 L 44.347656 80.914062 Z M 40.515625 84.761719 C 40.613281 84.636719 40.707031 84.511719 40.804688 84.390625 C 40.851562 84.417969 40.894531 84.445312 40.941406 84.476562 C 40.859375 84.628906 40.78125 84.785156 40.699219 84.941406 C 40.640625 84.882812 40.578125 84.820312 40.515625 84.761719 Z M 40.738281 89.1875 C 41.304688 89.160156 41.867188 89.125 42.429688 89.089844 C 42.363281 88.9375 42.269531 88.734375 42.109375 88.375 C 42.605469 88.480469 42.902344 88.542969 43.238281 88.617188 C 43.488281 88.457031 43.761719 88.28125 44.125 88.046875 C 44.074219 88.390625 44.039062 88.644531 44.007812 88.875 C 43.613281 88.941406 43.261719 89 42.875 89.066406 C 43.609375 89.015625 44.335938 88.960938 45.054688 88.898438 C 44.515625 90.574219 43.839844 92.246094 43.199219 93.824219 C 42.816406 94.765625 42.453125 95.65625 42.152344 96.480469 C 41.921875 97.109375 41.730469 97.964844 41.589844 98.78125 C 41.074219 95.964844 40.5 93.265625 39.863281 90.671875 C 40.15625 90.179688 40.445312 89.683594 40.738281 89.1875 Z M 39.550781 76.367188 C 39.550781 76.21875 39.550781 76.066406 39.550781 75.917969 C 39.605469 75.910156 39.664062 75.902344 39.71875 75.894531 C 39.746094 76.046875 39.773438 76.203125 39.800781 76.355469 C 39.714844 76.359375 39.632812 76.363281 39.550781 76.367188 Z M 40.320312 89.207031 C 40.125 89.535156 39.933594 89.859375 39.746094 90.183594 C 39.667969 89.867188 39.585938 89.550781 39.507812 89.242188 C 39.777344 89.230469 40.046875 89.21875 40.320312 89.207031 Z M 12.734375 47.5625 C 12.828125 46.75 12.941406 45.925781 13.082031 45.105469 C 13.101562 45.011719 13.035156 44.917969 12.9375 44.898438 C 12.84375 44.886719 12.75 44.949219 12.734375 45.042969 C 12.664062 45.472656 12.597656 45.898438 12.535156 46.324219 C 11.550781 45.816406 10.730469 45.3125 10.148438 44.863281 C 10.351562 42.773438 11.097656 40.609375 12.363281 38.4375 C 13.34375 36.757812 14.472656 35.019531 16.078125 33.71875 C 17.054688 32.929688 18.128906 32.300781 19.28125 31.84375 C 19.875 31.613281 20.507812 31.46875 21.125 31.328125 L 21.445312 31.253906 C 21.699219 31.191406 21.925781 31.113281 22.128906 31.007812 C 22.140625 31.015625 22.148438 31.023438 22.15625 31.03125 C 22.183594 31.042969 23.882812 31.878906 26.402344 31.878906 C 27.742188 31.878906 29.3125 31.640625 30.988281 30.917969 C 30.992188 30.917969 30.992188 30.914062 30.992188 30.914062 C 31.550781 31.328125 32.304688 31.359375 32.980469 31.382812 L 33.222656 31.394531 C 36.980469 31.566406 40.171875 32.765625 42.707031 34.964844 C 45.824219 37.671875 48.277344 41.5 50.335938 44.898438 C 48.28125 46.46875 43.613281 48.453125 40.933594 48.886719 C 40.839844 48.902344 40.769531 48.992188 40.785156 49.089844 C 40.792969 49.113281 40.800781 49.132812 40.8125 49.15625 L 42.921875 57.863281 L 42.957031 58.015625 L 42.984375 58.140625 C 42.988281 58.152344 42.996094 58.164062 43 58.175781 C 43.003906 58.179688 43.003906 58.1875 43.007812 58.191406 C 43.003906 58.1875 43.003906 58.179688 43 58.175781 C 43.003906 58.183594 43.003906 58.1875 43.007812 58.195312 C 43.007812 58.195312 43.007812 58.195312 43.003906 58.195312 C 41.808594 58.378906 40.59375 58.472656 39.382812 58.523438 C 39.359375 58.289062 39.332031 58.050781 39.300781 57.820312 C 39.066406 55.46875 39.164062 50.394531 38.222656 48.515625 C 36.8125 45.9375 34.132812 46.238281 31.3125 46.3125 C 24.460938 46.496094 18.851562 46.753906 12.734375 47.5625 Z M 26.839844 86.277344 C 26.566406 86.398438 26.460938 86.441406 26.285156 86.519531 C 26.285156 86.304688 26.285156 86.148438 26.285156 85.847656 C 26.507812 86.019531 26.617188 86.105469 26.839844 86.277344 Z M 25.9375 80.394531 C 26.527344 80.15625 26.921875 80.242188 27.300781 80.902344 C 26.800781 80.714844 26.425781 80.574219 25.9375 80.394531 Z M 24.71875 58.886719 C 24.917969 59.066406 25.09375 59.21875 25.394531 59.488281 C 25.1875 59.738281 25.089844 59.855469 24.996094 59.972656 C 24.484375 59.664062 24.292969 59.402344 24.71875 58.886719 Z M 24.730469 67.574219 C 24.777344 67.988281 24.777344 67.988281 24.386719 67.871094 C 24.488281 67.78125 24.59375 67.691406 24.730469 67.574219 Z M 26.835938 90.441406 C 25.054688 95.265625 23.210938 100.25 21.378906 104.660156 L 19.972656 104.660156 C 20.699219 99.285156 21.625 94.367188 22.78125 89.804688 C 24.226562 89.792969 25.667969 89.757812 27.105469 89.707031 C 27.015625 89.953125 26.925781 90.191406 26.835938 90.441406 Z M 20.097656 79.53125 C 20.050781 79.347656 20 79.164062 19.953125 78.980469 C 20.007812 78.957031 20.0625 78.9375 20.117188 78.917969 C 20.1875 79.09375 20.257812 79.273438 20.324219 79.453125 C 20.25 79.480469 20.171875 79.503906 20.097656 79.53125 Z M 17.949219 78.558594 C 17.941406 78.5 17.933594 78.441406 17.925781 78.382812 C 18.082031 78.34375 18.238281 78.300781 18.390625 78.261719 C 18.410156 78.351562 18.429688 78.4375 18.449219 78.527344 C 18.28125 78.539062 18.117188 78.546875 17.949219 78.558594 Z M 17.8125 85.640625 C 17.582031 85.578125 17.351562 85.515625 17.121094 85.453125 C 17.148438 85.355469 17.175781 85.253906 17.203125 85.15625 C 17.429688 85.242188 17.65625 85.328125 17.878906 85.414062 C 17.859375 85.488281 17.835938 85.5625 17.8125 85.640625 Z M 16.167969 87.886719 C 16.417969 87.789062 16.578125 87.726562 16.847656 87.625 C 16.714844 88.152344 16.507812 88.066406 16.167969 87.886719 Z M 15.941406 79.71875 C 16.378906 79.558594 16.503906 79.71875 16.417969 80.195312 C 16.007812 80.296875 15.863281 80.160156 15.941406 79.71875 Z M 14.128906 61.585938 C 14.496094 61.097656 14.808594 61.394531 15.339844 61.503906 C 14.722656 61.824219 14.722656 61.824219 14.128906 61.585938 Z M 14.175781 80.523438 C 14.175781 80.15625 14.175781 79.828125 14.175781 79.4375 C 14.820312 79.945312 14.820312 79.96875 14.175781 80.523438 Z M 12.914062 94.492188 C 11.148438 99.960938 9.320312 105.617188 7.5 110.648438 L 6.097656 110.648438 C 7.042969 102.652344 8.320312 95.570312 9.980469 89.136719 C 10.757812 89.300781 11.628906 89.324219 12.53125 89.414062 C 13.1875 89.476562 13.847656 89.535156 14.507812 89.578125 C 13.988281 91.175781 13.460938 92.808594 12.914062 94.492188 Z M 12.15625 53.941406 C 12.15625 54.3125 12.15625 54.511719 12.15625 54.714844 C 12.035156 54.714844 11.957031 54.742188 11.917969 54.710938 C 11.597656 54.457031 11.664062 54.25 12.15625 53.941406 Z M 12.585938 88.941406 C 12.585938 89.09375 12.585938 89.246094 12.585938 89.417969 C 12.566406 89.417969 12.550781 89.414062 12.535156 89.414062 C 12.480469 89.410156 12.425781 89.40625 12.371094 89.398438 C 12.308594 89.273438 12.375 89.1875 12.585938 88.941406 Z M 12.371094 47.613281 C 12.105469 47.652344 11.84375 47.6875 11.574219 47.722656 C 11.203125 47.785156 10.824219 47.835938 10.4375 47.878906 L 10.574219 45.59375 C 11.105469 45.949219 11.753906 46.320312 12.488281 46.691406 C 12.445312 47 12.40625 47.304688 12.371094 47.613281 Z M 10.769531 76.058594 C 10.519531 76.46875 10.3125 76.398438 10.023438 76.09375 C 10.289062 75.816406 10.492188 75.753906 10.769531 76.058594 Z M 22.082031 30.792969 C 22.121094 30.707031 22.234375 30.671875 22.316406 30.714844 C 22.316406 30.714844 22.332031 30.722656 22.347656 30.730469 C 22.332031 30.722656 22.320312 30.714844 22.316406 30.714844 C 22.230469 30.671875 22.125 30.707031 22.082031 30.792969 C 22.066406 30.820312 22.0625 30.847656 22.066406 30.878906 C 22.0625 30.847656 22.066406 30.820312 22.082031 30.792969 Z M 30.757812 30.660156 L 30.753906 30.890625 C 30.753906 30.890625 30.65625 30.871094 30.5625 30.84375 C 30.652344 30.871094 30.75 30.890625 30.75 30.890625 Z M 30.257812 24.847656 C 30.660156 25.234375 30.660156 25.234375 30.449219 25.691406 C 29.898438 25.484375 29.898438 25.476562 30.257812 24.847656 Z M 23.203125 29.644531 C 23.269531 29.359375 23.550781 27.957031 22.824219 27.632812 C 22.390625 27.304688 21.988281 26.972656 21.617188 26.644531 C 22.898438 27.359375 24.296875 27.839844 25.78125 27.753906 C 27.519531 27.648438 30.367188 26.773438 31.667969 25.222656 C 32.042969 24.777344 32.199219 24.242188 32.242188 24.117188 L 32.238281 24.117188 C 32.246094 24.089844 32.25 24.058594 32.238281 24.027344 C 32.210938 23.953125 32.125 23.910156 32.050781 23.9375 C 31.675781 24.070312 31.160156 24.023438 30.871094 23.832031 C 30.335938 23.480469 30.042969 22.710938 30.160156 21.964844 C 30.265625 21.3125 30.636719 20.855469 31.183594 20.707031 C 31.480469 20.699219 31.859375 20.558594 32.214844 20.375 C 32.570312 20.191406 32.898438 19.957031 33.101562 19.761719 C 34.316406 18.582031 34.714844 16.121094 34.453125 14.816406 C 34.589844 14.800781 34.730469 14.753906 34.867188 14.683594 C 35.144531 14.582031 35.417969 14.460938 35.675781 14.308594 C 35.855469 14.90625 36 15.535156 36.136719 16.117188 L 36.1875 16.347656 C 36.515625 17.765625 36.574219 19.441406 36.371094 21.316406 C 36.277344 22.1875 36.128906 23.085938 35.917969 24.066406 C 35.660156 25.261719 35.175781 26.328125 34.519531 27.15625 C 33.777344 28.085938 32.863281 28.769531 31.875 29.144531 C 30.875 29.519531 29.964844 29.652344 29.011719 29.578125 C 28.910156 29.566406 28.828125 29.640625 28.820312 29.734375 C 28.8125 29.835938 28.886719 29.917969 28.980469 29.925781 C 29.167969 29.941406 29.351562 29.949219 29.535156 29.949219 L 29.5625 29.949219 C 29.714844 30.1875 30.007812 30.527344 30.328125 30.726562 C 30.351562 30.746094 30.378906 30.757812 30.410156 30.773438 C 30.425781 30.785156 30.441406 30.796875 30.457031 30.800781 C 30.480469 30.8125 30.503906 30.824219 30.53125 30.832031 C 30.503906 30.824219 30.480469 30.8125 30.457031 30.804688 C 30.441406 30.796875 30.425781 30.785156 30.40625 30.773438 C 26.742188 32.1875 23.671875 31.257812 22.667969 30.863281 C 22.589844 30.835938 22.523438 30.808594 22.472656 30.785156 C 22.441406 30.773438 22.425781 30.765625 22.40625 30.757812 C 22.425781 30.765625 22.441406 30.773438 22.472656 30.785156 C 22.84375 30.5 23.09375 30.117188 23.203125 29.644531 Z M 26.378906 8.589844 C 26.414062 8.964844 26.4375 9.195312 26.472656 9.585938 C 26.183594 9.398438 26.027344 9.296875 25.808594 9.15625 C 26 8.964844 26.136719 8.828125 26.378906 8.589844 Z M 30.726562 15.378906 C 30.285156 16.027344 29.992188 16.109375 29.488281 15.722656 C 29.949219 15.085938 30.25 15.003906 30.726562 15.378906 Z M 32.949219 12.859375 C 32.886719 12.9375 32.703125 12.90625 32.574219 12.921875 C 32.53125 12.867188 32.492188 12.8125 32.449219 12.757812 C 32.558594 12.550781 32.664062 12.347656 32.804688 12.074219 C 33.101562 12.386719 33.121094 12.632812 32.949219 12.859375 Z M 33.738281 8.84375 C 34.675781 9.523438 35.53125 10.410156 36.085938 11.429688 C 36.59375 12.359375 36.441406 13.136719 35.871094 13.695312 C 36.007812 13.460938 36.101562 13.21875 36.113281 13.007812 C 36.171875 11.796875 35.117188 10.515625 34.390625 9.683594 C 33.730469 8.921875 32.828125 8.316406 31.820312 7.851562 C 32.5 8.101562 33.148438 8.417969 33.738281 8.84375 Z M 31.183594 30.738281 C 31.179688 30.777344 31.164062 30.8125 31.140625 30.835938 C 31.167969 30.8125 31.179688 30.777344 31.183594 30.738281 Z M 31.171875 30.644531 C 31.183594 30.664062 31.1875 30.6875 31.1875 30.710938 C 31.1875 30.6875 31.183594 30.667969 31.171875 30.644531 C 31.167969 30.636719 31.160156 30.628906 31.15625 30.617188 C 31.160156 30.625 31.167969 30.632812 31.171875 30.644531 Z M 54.789062 15.90625 L 89.699219 15.90625 C 89.792969 15.90625 89.875 15.828125 89.875 15.730469 C 89.875 15.632812 89.792969 15.554688 89.699219 15.554688 L 46.703125 15.554688 C 46.601562 15.554688 46.527344 15.632812 46.527344 15.730469 C 46.527344 15.828125 46.601562 15.90625 46.703125 15.90625 L 54.449219 15.90625 C 54.105469 18.65625 57.492188 21.019531 59.671875 21.910156 C 63.042969 23.289062 66.824219 22.984375 69.96875 25.019531 C 71.503906 26.011719 72.691406 27.476562 73.238281 29.222656 C 73.632812 30.480469 73.53125 31.832031 74.425781 32.90625 C 75.28125 33.933594 76.527344 34.390625 77.71875 34.925781 C 79.359375 35.667969 80.527344 36.976562 80.597656 38.800781 L 46.707031 38.800781 C 46.253906 38.207031 45.78125 37.625 45.292969 37.0625 L 45.292969 13.636719 C 45.292969 13.167969 45.574219 13.089844 46.429688 13.089844 L 89.964844 13.089844 C 90.65625 13.089844 90.757812 13.125 90.757812 13.636719 L 90.757812 38.800781 L 80.949219 38.800781 C 80.910156 37.558594 80.429688 36.5 79.5 35.644531 C 78.414062 34.652344 76.929688 34.316406 75.699219 33.558594 C 74.414062 32.761719 74.015625 31.527344 73.789062 30.113281 C 73.546875 28.601562 72.875 27.285156 71.851562 26.148438 C 69.597656 23.640625 66.355469 23.101562 63.214844 22.5 C 61.332031 22.140625 59.480469 21.644531 57.875 20.566406 C 56.484375 19.632812 54.535156 17.78125 54.792969 15.953125 C 54.792969 15.933594 54.789062 15.921875 54.789062 15.90625 Z M 43.53125 12.5625 C 43.53125 11.6875 44.242188 10.976562 45.117188 10.976562 L 90.933594 10.976562 C 91.808594 10.976562 92.519531 11.6875 92.519531 12.5625 L 92.519531 40.738281 C 92.519531 41.609375 91.808594 42.324219 90.933594 42.324219 L 49.152344 42.324219 C 48.472656 41.257812 47.746094 40.1875 46.972656 39.152344 L 90.933594 39.152344 C 91.027344 39.152344 91.109375 39.074219 91.109375 38.976562 L 91.109375 13.636719 C 91.109375 12.738281 90.578125 12.738281 89.964844 12.738281 L 46.429688 12.738281 C 45.800781 12.738281 44.941406 12.738281 44.941406 13.636719 L 44.941406 36.671875 C 44.484375 36.171875 44.015625 35.6875 43.53125 35.234375 Z M 79.65625 47.605469 C 80.136719 47.605469 80.535156 48 80.535156 48.484375 L 80.535156 48.839844 C 80.535156 49.324219 80.136719 49.71875 79.65625 49.71875 L 68.699219 49.71875 C 69.171875 49.011719 69.640625 48.296875 70.085938 47.605469 Z M 66.0625 51.710938 C 66.628906 50.847656 67.210938 49.992188 67.78125 49.15625 C 68.640625 47.894531 69.53125 46.589844 70.359375 45.277344 C 70.445312 45.140625 70.570312 45.113281 70.660156 45.117188 C 70.808594 45.125 70.960938 45.210938 71.015625 45.324219 C 71.054688 45.398438 71.046875 45.472656 70.992188 45.550781 L 70.609375 46.152344 C 69.507812 47.855469 68.210938 49.867188 66.980469 51.609375 L 65.804688 52.332031 Z M 66.734375 50.070312 C 66.421875 50.527344 66.113281 50.992188 65.804688 51.457031 C 65.59375 51.492188 64.921875 51.597656 64.375 51.652344 C 63.835938 51.710938 62.859375 52.457031 62.609375 52.652344 L 49.945312 52.835938 C 49.816406 52.464844 49.425781 51.3125 49 50.070312 Z M 68.410156 47.605469 C 68.101562 48.058594 67.796875 48.515625 67.488281 48.957031 C 67.320312 49.210938 67.144531 49.464844 66.96875 49.71875 L 56.042969 49.71875 C 55.554688 49.71875 55.160156 49.324219 55.160156 48.839844 L 55.160156 48.484375 C 55.160156 48 55.554688 47.605469 56.042969 47.605469 Z M 50.71875 44.851562 C 50.289062 44.140625 49.84375 43.410156 49.378906 42.675781 L 60.800781 42.675781 L 60.800781 47.253906 L 56.042969 47.253906 C 55.363281 47.253906 54.808594 47.804688 54.808594 48.484375 L 54.808594 48.839844 C 54.808594 49.183594 54.949219 49.492188 55.179688 49.71875 L 48.878906 49.71875 C 48.496094 48.59375 48.105469 47.453125 47.875 46.773438 C 49.003906 46.207031 50.003906 45.617188 50.679688 45.082031 C 50.75 45.023438 50.765625 44.925781 50.71875 44.851562 Z M 90.933594 50.070312 C 91.808594 50.070312 92.519531 50.78125 92.519531 51.65625 L 92.519531 57.984375 C 88.089844 57.980469 83.660156 57.972656 79.226562 57.96875 C 75.769531 57.964844 72.308594 57.960938 68.847656 57.957031 C 68.980469 57.847656 69.09375 57.714844 69.175781 57.535156 C 69.363281 57.140625 69.3125 56.832031 69.167969 56.507812 C 69.515625 55.558594 69.191406 54.964844 69.023438 54.738281 C 69.34375 53.996094 68.914062 53.332031 68.585938 53.027344 C 68.558594 51.972656 67.84375 51.660156 67.441406 51.566406 C 67.78125 51.082031 68.125 50.578125 68.464844 50.070312 Z M 5.828125 72.460938 C 5.644531 72.675781 5.527344 72.816406 5.257812 73.136719 C 5.195312 72.617188 5.15625 72.292969 5.101562 71.847656 C 6.109375 72.101562 6.519531 72.820312 6.886719 73.601562 C 6.535156 73.226562 6.1875 72.847656 5.828125 72.460938 Z M 3.78125 58.4375 C 3.804688 58.832031 3.828125 59.234375 3.851562 59.644531 C 2.789062 59.644531 1.722656 59.644531 0.65625 59.640625 L -1.054688 59.640625 L -1.054688 58.238281 C -1.054688 58.234375 -1.054688 58.234375 -1.054688 58.230469 L 0.425781 58.230469 C 1.539062 58.234375 2.652344 58.234375 3.769531 58.234375 C 3.765625 58.117188 3.757812 58 3.75 57.882812 C 3.777344 57.882812 3.804688 57.878906 3.832031 57.875 C 3.863281 58.050781 3.894531 58.230469 3.933594 58.4375 C 3.867188 58.4375 3.820312 58.4375 3.78125 58.4375 Z M 19.035156 2.714844 C 19.050781 2.671875 19.066406 2.632812 19.085938 2.589844 C 19.1875 2.613281 19.304688 2.609375 19.382812 2.671875 C 19.4375 2.714844 19.4375 2.84375 19.511719 3.132812 C 19.257812 2.910156 19.144531 2.8125 19.035156 2.714844 Z M 17.691406 9.835938 C 17.984375 9.628906 18.199219 9.769531 18.527344 9.996094 C 18.113281 10.261719 17.867188 10.292969 17.691406 9.835938 Z M 13.5 8.214844 C 13.136719 7.214844 13.050781 6.167969 13.21875 5.175781 C 13.210938 6.464844 13.605469 7.789062 14.261719 8.867188 C 14.929688 9.984375 15.960938 11 17.144531 11.753906 C 15.417969 11.542969 14.121094 9.921875 13.5 8.214844 Z M 16.921875 8.410156 C 17 8.671875 17.042969 8.824219 17.105469 9.046875 C 16.914062 9.019531 16.808594 9.003906 16.699219 8.984375 C 16.640625 8.910156 16.585938 8.832031 16.53125 8.753906 C 16.632812 8.664062 16.730469 8.578125 16.921875 8.410156 Z M 15.566406 18.933594 C 15.496094 18.730469 15.429688 18.527344 15.375 18.324219 C 15.261719 17.917969 15.214844 17.515625 15.214844 17.105469 C 15.214844 16.597656 15.292969 16.09375 15.433594 15.605469 C 15.703125 14.660156 16.207031 13.769531 16.820312 13 C 15.890625 14.828125 15.332031 16.929688 15.566406 18.933594 Z M 16.464844 20.28125 C 16.386719 20.179688 16.3125 20.074219 16.234375 19.96875 C 16.304688 19.925781 16.375 19.882812 16.445312 19.835938 C 16.5 19.953125 16.554688 20.066406 16.609375 20.179688 C 16.5625 20.214844 16.511719 20.246094 16.464844 20.28125 Z M 100.273438 57.996094 L 92.871094 57.984375 L 92.871094 51.65625 C 92.871094 50.589844 92 49.71875 90.933594 49.71875 L 80.515625 49.71875 C 80.742188 49.492188 80.886719 49.183594 80.886719 48.839844 L 80.886719 48.484375 C 80.886719 47.804688 80.335938 47.253906 79.65625 47.253906 L 74.898438 47.253906 L 74.898438 42.675781 L 90.933594 42.675781 C 92 42.675781 92.871094 41.804688 92.871094 40.738281 L 92.871094 12.5625 C 92.871094 11.496094 92 10.625 90.933594 10.625 L 45.117188 10.625 C 44.046875 10.625 43.175781 11.496094 43.175781 12.5625 L 43.175781 34.914062 C 43.097656 34.84375 43.015625 34.769531 42.933594 34.699219 C 40.339844 32.445312 37.078125 31.21875 33.238281 31.042969 L 32.988281 31.03125 C 32.34375 31.007812 31.605469 30.980469 31.132812 30.585938 C 31.136719 30.589844 31.136719 30.589844 31.136719 30.59375 C 31.140625 30.59375 31.140625 30.597656 31.140625 30.597656 C 31.128906 30.585938 31.113281 30.574219 31.097656 30.566406 C 31.101562 30.570312 31.105469 30.566406 31.105469 30.570312 C 31.113281 30.570312 31.121094 30.574219 31.125 30.582031 C 30.910156 30.398438 30.871094 30.109375 30.878906 29.800781 C 31.246094 29.722656 31.613281 29.613281 32 29.472656 C 33.046875 29.078125 34.015625 28.355469 34.792969 27.378906 C 35.488281 26.503906 35.996094 25.390625 36.261719 24.136719 C 36.476562 23.144531 36.625 22.238281 36.722656 21.355469 C 36.933594 19.441406 36.871094 17.726562 36.53125 16.265625 L 36.476562 16.042969 C 36.335938 15.417969 36.183594 14.742188 35.980469 14.101562 C 36.519531 13.6875 36.875 13.117188 36.757812 12.339844 C 36.558594 11.039062 35.570312 9.964844 34.628906 9.113281 C 33.574219 8.164062 32.390625 7.644531 31.039062 7.238281 C 29.28125 6.703125 27.242188 6.339844 25.4375 6.820312 C 25.402344 6.832031 25.375 6.847656 25.355469 6.871094 C 25.335938 6.871094 25.324219 6.875 25.304688 6.875 C 24.828125 5.25 24.265625 3.710938 23.085938 2.539062 C 21.175781 0.640625 17.996094 -0.558594 15.402344 1.023438 C 14.675781 1.476562 14.15625 2.066406 13.800781 2.730469 C 12.710938 4.398438 12.507812 6.523438 13.230469 8.507812 C 13.863281 10.238281 15.238281 11.796875 16.960938 12.085938 C 17.019531 12.097656 17.074219 12.105469 17.136719 12.109375 C 16.882812 12.367188 16.644531 12.644531 16.425781 12.933594 C 15.285156 14.425781 14.628906 16.296875 14.976562 18.171875 C 15.035156 18.496094 15.128906 18.820312 15.238281 19.140625 C 15.433594 19.679688 15.695312 20.203125 16.011719 20.699219 C 16.039062 20.777344 16.070312 20.847656 16.101562 20.921875 C 16.929688 22.820312 18.363281 24.425781 20.03125 25.625 C 20.089844 25.667969 20.15625 25.714844 20.21875 25.757812 C 20.765625 26.363281 21.40625 26.960938 22.148438 27.550781 C 22.304688 27.675781 22.457031 27.796875 22.621094 27.917969 C 22.628906 27.925781 22.632812 27.925781 22.644531 27.933594 C 22.652344 27.933594 22.65625 27.9375 22.664062 27.941406 C 23.078125 28.101562 22.976562 29.074219 22.863281 29.5625 C 22.699219 30.261719 22.195312 30.714844 21.367188 30.910156 L 21.046875 30.984375 C 20.421875 31.125 19.769531 31.277344 19.152344 31.515625 C 17.96875 31.984375 16.859375 32.632812 15.855469 33.445312 C 14.207031 34.78125 13.054688 36.550781 12.058594 38.261719 C 10.746094 40.511719 9.980469 42.757812 9.789062 44.925781 C 9.78125 44.984375 9.804688 45.042969 9.851562 45.082031 C 9.96875 45.171875 10.097656 45.265625 10.230469 45.363281 L 10.078125 47.917969 C 7.617188 48.195312 5.03125 48.402344 4.054688 50.539062 C 3.597656 51.378906 3.5625 54.203125 3.75 57.882812 C 2.089844 57.882812 0.429688 57.878906 -1.230469 57.878906 C -1.328125 57.878906 -1.40625 57.960938 -1.40625 58.054688 L -1.40625 59.816406 C -1.40625 59.910156 -1.328125 59.992188 -1.230469 59.992188 C -0.410156 59.992188 0.414062 59.992188 1.238281 59.996094 L 1.238281 105.015625 L 1.589844 105.015625 L 1.589844 59.996094 L 3.878906 59.996094 C 4.382812 67.539062 5.589844 77.421875 6.171875 81.769531 C 6.558594 83.5 6.988281 85.261719 7.539062 86.953125 C 7.953125 88.230469 8.707031 88.78125 9.640625 89.050781 C 7.960938 95.554688 6.675781 102.714844 5.722656 110.804688 L 5.699219 111 L 7.746094 111 L 7.789062 110.886719 C 9.625 105.816406 11.46875 100.113281 13.253906 94.597656 C 13.800781 92.890625 14.339844 91.230469 14.871094 89.609375 C 17.363281 89.777344 19.890625 89.828125 22.414062 89.808594 C 21.253906 94.414062 20.320312 99.378906 19.597656 104.8125 L 19.570312 105.015625 L 21.617188 105.015625 L 21.660156 104.90625 C 23.511719 100.460938 25.371094 95.429688 27.167969 90.5625 C 27.273438 90.269531 27.382812 89.984375 27.488281 89.695312 C 27.855469 89.683594 28.222656 89.667969 28.59375 89.65625 C 28.101562 91.074219 27.53125 92.484375 26.988281 93.824219 C 26.605469 94.769531 26.242188 95.65625 25.945312 96.480469 C 25.441406 97.832031 25.125 100.292969 25.125 101.085938 C 25.125 102.464844 25.222656 103.359375 25.347656 103.957031 L 38.910156 103.957031 C 38.949219 104.074219 38.992188 104.191406 39.03125 104.308594 L 25.4375 104.308594 C 25.613281 104.882812 25.816406 105.085938 25.957031 105.242188 L 27.742188 105.242188 C 30.457031 105.222656 34.054688 105.160156 36.9375 105.113281 C 37.769531 105.105469 38.5625 105.09375 39.289062 105.085938 C 39.964844 107.078125 40.636719 109.027344 41.308594 110.886719 L 41.351562 111 L 43.398438 111 L 43.375 110.804688 C 43.144531 108.832031 42.886719 106.914062 42.617188 105.046875 C 42.671875 105.046875 42.722656 105.046875 42.753906 105.046875 C 42.828125 105.046875 42.898438 105.027344 42.96875 105.015625 L 56.808594 105.015625 C 57.953125 105.027344 58.75 105.039062 58.96875 105.039062 C 59.414062 105.039062 59.84375 104.769531 59.882812 104.226562 C 59.851562 104.277344 59.800781 104.308594 59.742188 104.308594 L 56.710938 104.308594 C 56.695312 104.191406 56.679688 104.074219 56.664062 103.957031 L 59.742188 103.957031 C 59.800781 103.957031 59.851562 103.988281 59.882812 104.035156 C 59.816406 103.285156 59.082031 102.105469 56.960938 100.472656 C 56.726562 100.289062 56.402344 100.070312 56.035156 99.828125 C 55.636719 97.429688 55.191406 95.125 54.699219 92.910156 C 55.058594 92.347656 55.421875 91.78125 55.753906 91.21875 C 56.011719 90.78125 56.285156 90.328125 56.5625 89.859375 C 58.210938 87.097656 60.082031 83.96875 61.101562 81.167969 L 61.101562 81.164062 C 61.644531 79.5625 62.199219 77.378906 62.199219 75.121094 C 62.199219 72.203125 61.277344 69.152344 58.226562 67.050781 C 55.664062 65.28125 52.246094 64.863281 48.941406 64.453125 C 48.550781 64.40625 48.164062 64.355469 47.78125 64.304688 C 46.796875 64.179688 45.019531 63.878906 44.550781 63.800781 C 44.476562 63.484375 44.339844 63.105469 44.183594 62.714844 C 43.769531 61.6875 43.203125 60.589844 43.105469 60.40625 L 43.101562 60.375 L 43.054688 60.039062 L 44.191406 60.039062 C 45.234375 60.945312 46.824219 61.429688 48.878906 61.429688 C 51.753906 61.429688 54.996094 60.773438 57.691406 60.054688 C 59.746094 60.058594 61.804688 60.058594 63.863281 60.0625 C 74.328125 60.078125 84.796875 60.089844 95.265625 60.101562 C 95.996094 60.101562 96.722656 60.105469 97.453125 60.105469 L 97.453125 105.015625 L 97.804688 105.015625 L 97.804688 60.105469 C 98.628906 60.105469 99.449219 60.109375 100.273438 60.109375 C 100.367188 60.109375 100.449219 60.027344 100.449219 59.933594 L 100.449219 58.171875 C 100.449219 58.078125 100.367188 57.996094 100.273438 57.996094 "/></g><g style="fill:#000000;fill-opacity:1;"><g transform="translate(54.078234, 38.491707)"><path style="stroke:none" d="M 1.234375 0.046875 C 1.054688 0.046875 0.894531 0.0195312 0.75 -0.03125 C 0.613281 -0.0820312 0.5 -0.144531 0.40625 -0.21875 C 0.3125 -0.300781 0.238281 -0.390625 0.1875 -0.484375 L 0.375 -0.703125 L 0.421875 -0.703125 C 0.597656 -0.410156 0.867188 -0.265625 1.234375 -0.265625 C 1.453125 -0.265625 1.613281 -0.304688 1.71875 -0.390625 C 1.820312 -0.484375 1.875 -0.609375 1.875 -0.765625 C 1.875 -0.859375 1.851562 -0.9375 1.8125 -1 C 1.78125 -1.0625 1.722656 -1.113281 1.640625 -1.15625 C 1.566406 -1.207031 1.460938 -1.25 1.328125 -1.28125 L 1 -1.375 C 0.75 -1.425781 0.566406 -1.515625 0.453125 -1.640625 C 0.335938 -1.773438 0.28125 -1.941406 0.28125 -2.140625 C 0.28125 -2.285156 0.316406 -2.410156 0.390625 -2.515625 C 0.460938 -2.628906 0.566406 -2.71875 0.703125 -2.78125 C 0.835938 -2.84375 1.003906 -2.875 1.203125 -2.875 C 1.410156 -2.875 1.585938 -2.84375 1.734375 -2.78125 C 1.890625 -2.71875 2.007812 -2.628906 2.09375 -2.515625 L 1.9375 -2.296875 L 1.875 -2.296875 C 1.800781 -2.390625 1.707031 -2.457031 1.59375 -2.5 C 1.476562 -2.550781 1.347656 -2.578125 1.203125 -2.578125 C 1.003906 -2.578125 0.851562 -2.539062 0.75 -2.46875 C 0.65625 -2.394531 0.609375 -2.289062 0.609375 -2.15625 C 0.609375 -2.03125 0.644531 -1.925781 0.71875 -1.84375 C 0.789062 -1.769531 0.914062 -1.710938 1.09375 -1.671875 L 1.421875 -1.59375 C 1.703125 -1.53125 1.90625 -1.429688 2.03125 -1.296875 C 2.15625 -1.160156 2.21875 -0.988281 2.21875 -0.78125 C 2.21875 -0.625 2.179688 -0.484375 2.109375 -0.359375 C 2.035156 -0.234375 1.925781 -0.132812 1.78125 -0.0625 C 1.632812 0.0078125 1.453125 0.046875 1.234375 0.046875 Z M 1.234375 0.046875 "/></g></g><g style="fill:#000000;fill-opacity:1;"><g transform="translate(56.506827, 38.491707)"><path style="stroke:none" d=""/></g></g></g></svg>