<svg xmlns="http://www.w3.org/2000/svg" xmlns:xlink="http://www.w3.org/1999/xlink" width="150" zoomAndPan="magnify" viewBox="0 0 112.5 112.499997" height="150" preserveAspectRatio="xMidYMid meet" version="1.2"><defs><clipPath id="54154f3272"><path d="M 0 0.0859375 L 79.148438 0.0859375 L 79.148438 111.917969 L 0 111.917969 Z M 0 0.0859375 "/></clipPath><clipPath id="786d7d2e80"><path d="M 63.578125 108.117188 L 79.148438 108.117188 L 79.148438 111.246094 L 63.578125 111.246094 Z M 63.578125 108.117188 "/></clipPath><clipPath id="110eb0b89e"><path d="M 0 0 L 79.148438 0 L 79.148438 111 L 0 111 Z M 0 0 "/></clipPath></defs><g id="f17450c52e"><g clip-rule="nonzero" clip-path="url(#54154f3272)"><path style=" stroke:none;fill-rule:nonzero;fill:#ffffff;fill-opacity:1;" d="M 57.644531 110.992188 L 57.644531 110.996094 Z M 79.019531 107.949219 C 79.019531 107.949219 78.6875 106.480469 78.578125 105.820312 C 78.304688 104.1875 76.777344 102.578125 76.601562 102.402344 L 76.578125 102.378906 L 76.566406 102.296875 C 76.539062 102.152344 76.511719 102.011719 76.488281 101.867188 L 76.472656 101.769531 L 76.566406 101.742188 C 77.328125 101.507812 78.128906 101.242188 78.945312 100.953125 C 78.949219 100.949219 78.957031 100.945312 78.957031 100.929688 C 78.746094 93.5 74.085938 65.390625 73.554688 62.210938 L 73.539062 62.109375 L 73.640625 62.082031 C 73.789062 62.050781 74.039062 61.976562 74.386719 61.835938 L 74.414062 61.8125 L 71.367188 36.761719 C 71.195312 34.867188 70.898438 32.71875 70.011719 31.183594 C 69.773438 30.773438 69.519531 30.433594 69.234375 30.148438 C 68.585938 29.503906 67.734375 29.109375 66.988281 28.8125 C 66.960938 28.800781 66.855469 28.757812 66.832031 28.75 L 66.695312 28.703125 C 66.289062 28.554688 65.855469 28.453125 65.449219 28.363281 L 65.210938 28.304688 C 64.714844 28.1875 64.363281 27.953125 64.167969 27.601562 C 64.101562 27.492188 64.054688 27.367188 64.023438 27.226562 L 64.015625 27.1875 C 64.011719 27.167969 64.007812 27.144531 64.003906 27.125 C 63.980469 26.988281 63.957031 26.785156 63.96875 26.585938 L 63.96875 26.554688 C 63.972656 26.511719 63.976562 26.464844 63.980469 26.441406 L 63.980469 26.414062 C 63.996094 26.308594 64.023438 26.214844 64.066406 26.132812 C 64.113281 26.023438 64.210938 25.917969 64.34375 25.824219 C 64.367188 25.808594 64.390625 25.789062 64.410156 25.773438 L 64.457031 25.742188 C 64.472656 25.734375 64.484375 25.726562 64.496094 25.714844 C 64.617188 25.621094 64.730469 25.527344 64.855469 25.425781 C 65.09375 25.269531 65.300781 25.125 65.4375 25.011719 C 66.585938 24.046875 67.546875 23.066406 68.222656 22.15625 C 68.382812 22.003906 68.515625 21.863281 68.632812 21.726562 C 68.957031 21.335938 69.207031 20.847656 69.425781 20.191406 C 69.640625 19.539062 69.890625 18.699219 69.929688 18.027344 C 69.980469 17.183594 69.726562 16.230469 69.484375 15.398438 C 69.269531 14.660156 68.910156 13.980469 68.421875 13.390625 C 67.925781 12.796875 67.277344 12.351562 66.648438 11.960938 C 66.164062 11.65625 65.632812 11.359375 65.070312 11.246094 L 65.046875 11.238281 C 64.535156 11.019531 63.359375 10.667969 62.191406 10.601562 C 61.753906 10.515625 61.371094 10.464844 61.019531 10.453125 C 60.816406 10.445312 60.609375 10.441406 60.402344 10.441406 C 60.207031 10.441406 60.007812 10.445312 59.8125 10.453125 L 59.78125 10.453125 L 59.804688 10.339844 L 59.804688 0.0859375 L 0 0.0859375 L 0 85.371094 L 15.113281 85.371094 L 15.113281 85.511719 L 44.34375 85.511719 L 44.367188 85.402344 L 44.46875 85.402344 L 42.984375 100.199219 C 43 100.203125 44.5625 100.722656 45.410156 101.0625 C 46.046875 101.335938 46.699219 101.582031 47.355469 101.800781 L 47.429688 101.824219 L 47.433594 101.898438 C 47.492188 103.179688 47.550781 104.460938 47.613281 105.742188 L 47.628906 106.039062 L 47.527344 106.054688 C 45.824219 106.320312 44.175781 107.375 43.113281 108.871094 C 42.839844 109.257812 42.242188 110.882812 42.242188 110.882812 L 42.1875 110.882812 C 42.113281 110.882812 42.054688 110.941406 42.054688 111.011719 C 42.054688 111.082031 42.113281 111.140625 42.1875 111.140625 C 42.1875 111.140625 42.246094 111.421875 42.222656 111.535156 L 42.214844 111.59375 L 42.253906 111.601562 C 42.304688 111.601562 42.5 111.605469 42.8125 111.613281 C 43.535156 111.625 44.878906 111.648438 46.488281 111.671875 L 46.566406 111.558594 L 46.640625 111.675781 C 49.148438 111.714844 55.074219 111.804688 57.5 111.804688 L 57.515625 111.804688 L 57.644531 111.140625 C 57.714844 111.140625 57.773438 111.082031 57.773438 111.011719 C 57.773438 110.941406 57.71875 110.882812 57.648438 110.882812 C 57.648438 110.882812 57.558594 109.429688 57.558594 108.714844 C 57.558594 107.121094 56.425781 105.523438 56.195312 105.21875 L 56.167969 105.183594 L 56.175781 105.136719 L 56.179688 105.074219 L 56.390625 103.761719 C 56.421875 103.574219 56.574219 102.640625 56.574219 102.640625 L 56.652344 102.628906 C 58.261719 102.363281 59.84375 101.871094 61.355469 101.171875 C 61.363281 101.167969 61.367188 101.160156 61.367188 101.152344 C 61.292969 96.898438 61.273438 90.207031 61.304688 81.269531 L 61.527344 81.261719 L 62.542969 101.621094 C 64.097656 102.28125 65.761719 102.699219 67.496094 102.863281 L 67.597656 102.859375 L 67.597656 102.960938 C 67.710938 103.242188 67.824219 103.523438 67.9375 103.800781 C 68.050781 104.082031 68.164062 104.363281 68.28125 104.640625 L 68.292969 104.660156 L 68.351562 104.78125 L 68.230469 104.820312 C 66.597656 105.363281 65.148438 106.664062 64.351562 108.304688 C 64.140625 108.734375 63.820312 110.4375 63.820312 110.4375 L 63.785156 110.445312 C 63.710938 110.457031 63.664062 110.523438 63.675781 110.59375 C 63.6875 110.660156 63.742188 110.703125 63.804688 110.703125 C 63.804688 110.703125 63.90625 110.964844 63.90625 111.074219 L 63.90625 111.09375 L 63.925781 111.09375 C 63.925781 111.09375 68.132812 110.457031 72.25 109.824219 C 75.246094 109.367188 77.644531 108.992188 79.003906 108.765625 L 79.019531 108.765625 L 79.019531 108.746094 C 79.019531 108.730469 79.042969 108.203125 79.042969 108.203125 C 79.046875 108.199219 79.050781 108.199219 79.054688 108.195312 C 79.117188 108.179688 79.160156 108.117188 79.148438 108.054688 C 79.136719 107.992188 79.082031 107.949219 79.019531 107.949219 "/></g><g clip-rule="nonzero" clip-path="url(#786d7d2e80)"><path style=" stroke:none;fill-rule:nonzero;fill:#100f0d;fill-opacity:1;" d="M 79.148438 108.859375 L 79.023438 108.878906 C 77.792969 109.082031 75.519531 109.4375 72.269531 109.933594 C 68.152344 110.570312 63.941406 111.203125 63.941406 111.203125 L 63.792969 111.226562 L 63.796875 111.074219 C 63.796875 110.957031 63.800781 110.832031 63.804688 110.703125 L 65.207031 110.472656 C 65.261719 110.539062 65.339844 110.59375 65.433594 110.644531 C 65.480469 110.566406 65.527344 110.492188 65.574219 110.414062 L 79.042969 108.203125 C 79.046875 108.203125 79.054688 108.199219 79.058594 108.199219 C 79.105469 108.535156 79.128906 108.730469 79.128906 108.734375 L 79.148438 108.859375 "/></g><g clip-rule="nonzero" clip-path="url(#110eb0b89e)"><path style=" stroke:none;fill-rule:nonzero;fill:#100f0d;fill-opacity:1;" d="M 72.855469 103.472656 C 72.847656 103.476562 72.191406 103.894531 71.445312 104.238281 C 70.992188 104.445312 70.601562 104.585938 70.285156 104.648438 C 69.953125 104.714844 69.605469 104.746094 69.261719 104.746094 C 68.871094 104.746094 68.578125 104.707031 68.453125 104.683594 C 68.226562 104.121094 67.996094 103.558594 67.769531 102.996094 C 68.253906 103.035156 68.734375 103.058594 69.214844 103.058594 C 71.734375 103.058594 74.152344 102.566406 76.347656 101.921875 C 76.367188 102.035156 76.386719 102.152344 76.402344 102.265625 C 75.871094 102.328125 73.988281 102.597656 72.855469 103.472656 Z M 75.410156 104.730469 C 75.402344 104.730469 75.398438 104.738281 75.390625 104.742188 C 75.3125 104.722656 75.230469 104.703125 75.117188 104.675781 C 75.15625 104.5625 75.179688 104.480469 75.234375 104.3125 C 75.347656 104.460938 75.414062 104.550781 75.480469 104.636719 C 75.457031 104.667969 75.433594 104.699219 75.410156 104.730469 Z M 73.347656 107.078125 C 73.15625 106.980469 73 106.878906 72.980469 106.648438 C 73.007812 106.625 73.039062 106.605469 73.070312 106.585938 C 73.363281 106.660156 73.363281 106.695312 73.347656 107.078125 Z M 70.429688 105.851562 C 70.273438 105.761719 70.117188 105.671875 69.964844 105.582031 C 70.070312 105.464844 70.183594 105.464844 70.316406 105.554688 C 70.425781 105.628906 70.472656 105.71875 70.429688 105.851562 Z M 69.71875 107.023438 C 69.648438 107.117188 69.554688 107.261719 69.476562 107.261719 C 69.285156 107.253906 69.25 107.089844 69.308594 106.875 C 69.421875 106.863281 69.542969 106.851562 69.675781 106.839844 C 69.695312 106.921875 69.738281 107 69.71875 107.023438 Z M 46.398438 51.453125 C 46.554688 51.265625 46.65625 51.140625 46.773438 50.996094 C 46.933594 51.464844 46.890625 51.523438 46.398438 51.453125 Z M 45.003906 52 C 44.960938 51.914062 44.917969 51.863281 44.917969 51.816406 C 44.910156 51.570312 44.914062 51.328125 44.914062 51.007812 C 44.984375 50.996094 45.109375 50.980469 45.238281 50.964844 C 45.25 51.265625 45.265625 51.492188 45.277344 51.773438 C 45.21875 51.824219 45.121094 51.902344 45.003906 52 Z M 43.730469 54.417969 C 44.148438 54.128906 44.222656 54.152344 44.367188 54.632812 C 44.113281 54.546875 43.945312 54.488281 43.730469 54.417969 Z M 43.742188 61.125 C 43.84375 61.167969 43.949219 61.210938 44.070312 61.257812 C 43.847656 61.488281 43.847656 61.488281 43.742188 61.125 Z M 42.617188 68.257812 C 42.621094 68.257812 42.621094 68.261719 42.621094 68.265625 C 42.617188 68.265625 42.617188 68.265625 42.613281 68.265625 C 42.660156 68.53125 42.585938 68.664062 42.296875 68.648438 C 42.304688 68.363281 42.414062 68.265625 42.613281 68.265625 L 42.613281 68.257812 C 42.617188 68.257812 42.617188 68.257812 42.617188 68.257812 C 42.589844 68.128906 42.5625 67.996094 42.53125 67.84375 C 42.839844 67.664062 43.097656 67.671875 43.378906 67.921875 C 43.144531 68.15625 42.921875 68.308594 42.617188 68.257812 Z M 42.371094 70.09375 C 42.449219 69.9375 42.492188 69.847656 42.578125 69.683594 C 42.648438 69.839844 42.691406 69.921875 42.757812 70.054688 C 42.617188 70.070312 42.53125 70.078125 42.371094 70.09375 Z M 42.019531 64.105469 C 42.273438 64.074219 42.445312 64.054688 42.617188 64.035156 C 42.621094 64.089844 42.625 64.140625 42.632812 64.195312 C 42.460938 64.359375 42.285156 64.433594 42.019531 64.105469 Z M 41.875 59.800781 C 41.84375 59.640625 41.824219 59.535156 41.785156 59.34375 C 41.953125 59.425781 42.050781 59.476562 42.21875 59.558594 C 42.074219 59.660156 41.996094 59.714844 41.875 59.800781 Z M 41.480469 70.53125 C 41.300781 70.335938 41.179688 70.203125 41.058594 70.070312 C 41.089844 70.023438 41.121094 69.980469 41.152344 69.9375 C 41.308594 69.96875 41.46875 70.003906 41.671875 70.046875 C 41.625 70.167969 41.578125 70.285156 41.480469 70.53125 Z M 40.523438 62.160156 C 40.574219 61.816406 40.574219 61.816406 40.882812 61.832031 C 40.878906 62.09375 40.722656 62.144531 40.523438 62.160156 Z M 40.609375 71.652344 C 40.496094 71.539062 40.378906 71.425781 40.265625 71.316406 C 40.296875 71.28125 40.328125 71.246094 40.359375 71.210938 C 40.46875 71.328125 40.578125 71.449219 40.6875 71.5625 C 40.660156 71.59375 40.632812 71.621094 40.609375 71.652344 Z M 40.003906 61.714844 C 40.082031 61.621094 40.144531 61.542969 40.210938 61.464844 C 40.246094 61.488281 40.28125 61.511719 40.316406 61.53125 C 40.285156 61.632812 40.257812 61.734375 40.21875 61.855469 C 40.132812 61.796875 40.089844 61.769531 40.003906 61.714844 Z M 39.914062 63.460938 C 39.859375 63.335938 39.824219 63.253906 39.734375 63.042969 C 39.941406 63.121094 40.015625 63.148438 40.148438 63.195312 C 40.054688 63.300781 40.003906 63.359375 39.914062 63.460938 Z M 39.59375 72.492188 C 39.652344 72.46875 39.707031 72.449219 39.769531 72.425781 C 39.804688 72.535156 39.839844 72.648438 39.886719 72.789062 C 39.597656 72.777344 39.558594 72.65625 39.59375 72.492188 Z M 38.847656 71.34375 C 38.773438 71.472656 38.703125 71.597656 38.589844 71.789062 C 38.480469 71.625 38.417969 71.542969 38.339844 71.425781 C 38.488281 71.335938 38.597656 71.269531 38.710938 71.199219 C 38.75 71.101562 38.796875 71.003906 38.851562 70.875 C 39.09375 71.074219 39.03125 71.214844 38.847656 71.34375 Z M 38.28125 73.617188 C 38.097656 73.46875 37.910156 73.320312 37.65625 73.113281 C 37.855469 72.960938 37.972656 72.867188 38.117188 72.761719 C 38.3125 72.816406 38.507812 72.875 38.75 72.945312 C 38.585938 73.179688 38.457031 73.367188 38.28125 73.617188 Z M 37.304688 74.796875 C 37.183594 74.5625 37.210938 74.433594 37.425781 74.339844 C 37.589844 74.585938 37.476562 74.683594 37.304688 74.796875 Z M 37.15625 73.078125 C 37.265625 73.316406 37.316406 73.425781 37.382812 73.570312 C 37.257812 73.613281 37.175781 73.640625 36.9375 73.71875 C 37.027344 73.453125 37.070312 73.332031 37.15625 73.078125 Z M 36.699219 71.152344 C 37.03125 71.027344 37.167969 71.214844 37.261719 71.46875 C 37 71.519531 36.78125 71.488281 36.699219 71.152344 Z M 36.636719 70.292969 C 36.765625 70.277344 36.859375 70.269531 37.070312 70.253906 C 36.957031 70.449219 36.894531 70.558594 36.835938 70.667969 C 36.785156 70.644531 36.738281 70.628906 36.691406 70.609375 C 36.675781 70.515625 36.660156 70.425781 36.636719 70.292969 Z M 36.371094 73.261719 C 36.480469 73.363281 36.5625 73.4375 36.667969 73.539062 C 36.363281 73.636719 36.363281 73.636719 36.371094 73.261719 Z M 35.972656 70.699219 C 35.8125 70.546875 35.648438 70.398438 35.5 70.253906 C 35.648438 69.78125 35.9375 69.984375 36.230469 69.953125 C 36.285156 70.152344 36.324219 70.277344 36.363281 70.425781 C 36.234375 70.515625 36.128906 70.589844 35.972656 70.699219 Z M 35.757812 73.5625 C 35.652344 73.3125 35.40625 73.164062 35.464844 72.773438 C 35.707031 72.890625 35.851562 72.960938 36.0625 73.0625 C 35.941406 73.257812 35.847656 73.410156 35.757812 73.5625 Z M 35.894531 74.027344 C 35.855469 74.023438 35.816406 74.019531 35.773438 74.015625 L 35.773438 73.695312 C 35.835938 73.707031 35.890625 73.714844 35.949219 73.722656 C 35.929688 73.824219 35.914062 73.925781 35.894531 74.027344 Z M 35.707031 69.148438 L 35.707031 69.46875 C 35.601562 69.40625 35.546875 69.371094 35.488281 69.339844 C 35.535156 69.261719 35.578125 69.183594 35.625 69.109375 C 35.65625 69.125 35.679688 69.132812 35.707031 69.148438 Z M 35.085938 64.273438 C 35.480469 64.230469 35.871094 64.1875 36.269531 64.144531 C 36.28125 64.183594 36.292969 64.222656 36.308594 64.265625 C 36.089844 64.488281 35.863281 64.707031 35.640625 64.933594 C 35.421875 64.761719 35.226562 64.609375 35.03125 64.453125 C 35.050781 64.394531 35.070312 64.335938 35.085938 64.273438 Z M 34.714844 73.5625 L 34.710938 73.5625 C 34.765625 73.660156 34.820312 73.757812 34.886719 73.875 C 34.765625 73.976562 34.664062 74.054688 34.542969 74.152344 C 34.445312 74.082031 34.355469 74.011719 34.265625 73.945312 C 34.132812 74.0625 33.996094 74.175781 33.78125 74.363281 C 33.816406 73.917969 34 73.882812 34.222656 73.898438 C 34.386719 73.785156 34.550781 73.675781 34.710938 73.5625 C 34.710938 73.5625 34.710938 73.558594 34.707031 73.554688 C 34.707031 73.554688 34.707031 73.554688 34.710938 73.554688 C 34.644531 73.492188 34.578125 73.429688 34.441406 73.300781 C 34.617188 73.285156 34.726562 73.273438 34.941406 73.261719 C 34.816406 73.417969 34.761719 73.484375 34.710938 73.554688 C 34.714844 73.554688 34.714844 73.558594 34.714844 73.5625 Z M 34.179688 55.4375 C 34.222656 55.613281 34.253906 55.746094 34.308594 56 C 34.101562 55.851562 33.988281 55.769531 33.796875 55.632812 C 33.96875 55.546875 34.050781 55.507812 34.179688 55.4375 Z M 33.894531 69.105469 C 34.003906 68.875 34.085938 68.707031 34.214844 68.441406 C 34.308594 68.753906 34.378906 68.980469 34.445312 69.207031 C 34.410156 69.253906 34.375 69.300781 34.339844 69.347656 C 34.199219 69.269531 34.054688 69.191406 33.894531 69.105469 Z M 34.628906 72.898438 C 34.371094 72.914062 34.296875 72.800781 34.28125 72.574219 C 34.5625 72.535156 34.632812 72.65625 34.628906 72.898438 Z M 34.492188 57.042969 C 34.753906 57.242188 34.707031 57.355469 34.394531 57.421875 C 34.421875 57.3125 34.449219 57.199219 34.492188 57.042969 Z M 34.777344 54.265625 C 34.921875 54.554688 34.832031 54.625 34.558594 54.585938 C 34.652344 54.453125 34.714844 54.359375 34.777344 54.265625 Z M 36.652344 52.539062 C 36.464844 52.644531 36.378906 52.695312 36.269531 52.757812 C 36.273438 52.441406 36.273438 52.441406 36.652344 52.539062 Z M 36.660156 66.433594 C 36.492188 66.542969 36.398438 66.601562 36.304688 66.664062 C 36.265625 66.59375 36.230469 66.5625 36.230469 66.53125 C 36.261719 66.296875 36.371094 66.238281 36.660156 66.433594 Z M 36.601562 62.558594 C 36.613281 62.507812 36.628906 62.457031 36.644531 62.402344 C 36.738281 62.4375 36.832031 62.46875 36.925781 62.5 C 36.910156 62.550781 36.898438 62.601562 36.886719 62.648438 C 36.789062 62.617188 36.695312 62.589844 36.601562 62.558594 Z M 37.214844 59.324219 C 37.1875 59.636719 36.96875 59.660156 36.703125 59.796875 C 36.691406 59.597656 36.6875 59.484375 36.675781 59.324219 Z M 37.835938 65.25 C 37.714844 65.449219 37.644531 65.570312 37.519531 65.777344 C 37.4375 65.570312 37.390625 65.445312 37.316406 65.25 Z M 37.847656 67.257812 C 37.703125 67.160156 37.589844 67.082031 37.472656 67 C 37.492188 66.804688 37.53125 66.644531 37.523438 66.492188 C 37.515625 66.382812 37.445312 66.277344 37.40625 66.167969 C 37.445312 66.140625 37.492188 66.105469 37.53125 66.078125 C 37.707031 66.285156 37.886719 66.5 38.0625 66.707031 C 37.980469 66.90625 37.925781 67.054688 37.847656 67.257812 Z M 37.785156 71.71875 C 38.105469 72.035156 37.949219 72.304688 37.839844 72.644531 C 37.621094 72.449219 37.457031 72.300781 37.242188 72.113281 C 37.4375 71.972656 37.609375 71.847656 37.785156 71.71875 Z M 36.953125 66.675781 C 37.398438 66.765625 37.351562 67.273438 37.699219 67.515625 C 37.074219 67.453125 36.996094 67.359375 36.953125 66.675781 Z M 37.671875 68.1875 C 37.375 68.273438 37.375 68.273438 37.34375 67.941406 C 37.464844 68.035156 37.550781 68.097656 37.671875 68.1875 Z M 38.515625 58.726562 C 38.382812 58.855469 38.324219 58.910156 38.207031 59.023438 C 38.144531 58.835938 38.121094 58.769531 38.0625 58.59375 C 38.234375 58.644531 38.296875 58.664062 38.515625 58.726562 Z M 38.675781 56.496094 C 38.515625 56.722656 38.515625 56.722656 38.257812 56.390625 C 38.480469 56.445312 38.570312 56.464844 38.675781 56.496094 Z M 39.867188 57.253906 C 39.894531 57.347656 39.921875 57.441406 39.949219 57.535156 C 39.917969 57.546875 39.886719 57.5625 39.855469 57.574219 C 39.8125 57.488281 39.769531 57.398438 39.722656 57.3125 C 39.769531 57.292969 39.816406 57.273438 39.867188 57.253906 Z M 41.128906 53.535156 C 41.023438 53.625 40.921875 53.714844 40.769531 53.84375 C 40.789062 53.515625 40.789062 53.515625 41.128906 53.535156 Z M 41.484375 53.105469 C 41.675781 53.449219 41.617188 53.582031 41.386719 53.726562 C 41.339844 53.679688 41.292969 53.628906 41.167969 53.488281 C 41.289062 53.34375 41.363281 53.25 41.484375 53.105469 Z M 41.917969 57.117188 C 41.996094 57.132812 42.082031 57.148438 42.164062 57.164062 C 42.15625 57.210938 42.148438 57.257812 42.140625 57.304688 C 42.054688 57.289062 41.972656 57.269531 41.890625 57.253906 C 41.898438 57.207031 41.90625 57.160156 41.917969 57.117188 Z M 42.578125 58.039062 C 42.445312 57.914062 42.367188 57.839844 42.289062 57.765625 C 42.570312 57.625 42.585938 57.765625 42.578125 58.039062 Z M 42.816406 61.699219 C 42.5625 61.636719 42.488281 61.519531 42.554688 61.265625 C 42.808594 61.28125 42.894531 61.398438 42.816406 61.699219 Z M 43.207031 54.300781 C 43.050781 54.160156 42.960938 54.078125 42.871094 54 C 43.160156 53.859375 43.203125 53.988281 43.207031 54.300781 Z M 33.34375 70.078125 C 33.417969 70.21875 33.492188 70.359375 33.585938 70.535156 C 33.238281 70.492188 33.238281 70.492188 33.34375 70.078125 Z M 32.839844 75.792969 C 33.101562 75.316406 33.144531 75.308594 33.484375 75.695312 C 33.25 75.730469 33.074219 75.757812 32.839844 75.792969 Z M 32.296875 75.960938 C 32.28125 75.925781 32.265625 75.894531 32.246094 75.859375 C 32.328125 75.777344 32.414062 75.699219 32.558594 75.5625 C 32.59375 75.75 32.609375 75.835938 32.632812 75.960938 Z M 31.734375 74.558594 C 31.496094 73.996094 32.011719 74.035156 32.09375 73.742188 C 32.269531 73.828125 32.398438 73.894531 32.550781 73.972656 C 32.53125 74.144531 32.511719 74.296875 32.484375 74.519531 C 32.316406 74.425781 32.195312 74.363281 32.066406 74.289062 C 31.984375 74.359375 31.882812 74.4375 31.734375 74.558594 Z M 31.601562 76.269531 C 31.488281 76.023438 31.550781 75.886719 31.792969 75.769531 C 31.96875 76.089844 31.847656 76.191406 31.601562 76.269531 Z M 32.824219 59.878906 C 32.855469 59.933594 32.886719 59.988281 32.917969 60.042969 C 32.828125 60.175781 32.742188 60.308594 32.621094 60.5 C 32.496094 60.335938 32.417969 60.222656 32.269531 60.027344 C 32.511719 59.964844 32.667969 59.921875 32.824219 59.878906 Z M 33.042969 70.328125 C 32.839844 70.394531 32.742188 70.421875 32.59375 70.472656 C 32.609375 70.289062 32.621094 70.164062 32.640625 69.953125 C 32.785156 70.085938 32.871094 70.167969 33.042969 70.328125 Z M 33.46875 71.710938 C 33.359375 71.671875 33.246094 71.632812 33.050781 71.5625 C 33.304688 71.375 33.417969 71.414062 33.46875 71.710938 Z M 33.453125 60.609375 C 33.4375 60.734375 33.421875 60.847656 33.398438 61.042969 C 33.167969 60.90625 33.027344 60.820312 32.847656 60.714844 C 32.910156 60.597656 32.957031 60.503906 33.019531 60.382812 C 33.179688 60.464844 33.308594 60.53125 33.453125 60.609375 Z M 30.863281 76.308594 C 30.789062 76.195312 30.742188 76.121094 30.648438 75.976562 L 31.375 75.976562 C 31.144531 76.125 31.011719 76.207031 30.863281 76.308594 Z M 30.667969 77.03125 C 30.398438 76.816406 30.378906 76.648438 30.621094 76.425781 C 30.871094 76.609375 30.941406 76.773438 30.667969 77.03125 Z M 30.257812 73.285156 C 30.355469 73.308594 30.453125 73.335938 30.546875 73.363281 C 30.539062 73.398438 30.535156 73.4375 30.53125 73.472656 C 30.433594 73.460938 30.335938 73.445312 30.238281 73.433594 C 30.246094 73.382812 30.253906 73.335938 30.257812 73.285156 Z M 30.269531 68.027344 C 30.578125 68.050781 30.492188 68.242188 30.421875 68.539062 C 30.28125 68.371094 30.195312 68.265625 30.09375 68.144531 C 30.179688 68.082031 30.226562 68.027344 30.269531 68.027344 Z M 29.394531 79.378906 C 29.378906 79.058594 29.378906 79.058594 29.71875 78.941406 C 29.617188 79.078125 29.515625 79.21875 29.394531 79.378906 Z M 29.015625 80.359375 C 29.121094 80.152344 29.164062 80.070312 29.246094 79.910156 C 29.308594 80.066406 29.339844 80.144531 29.378906 80.25 C 29.285156 80.277344 29.21875 80.296875 29.015625 80.359375 Z M 29.417969 78.421875 C 29.292969 78.484375 29.171875 78.546875 29.011719 78.625 C 29.09375 78.3125 29.09375 78.3125 29.417969 78.421875 Z M 29.136719 77.320312 C 29.066406 77.363281 29.007812 77.398438 28.9375 77.441406 C 28.957031 77.199219 28.957031 77.199219 29.136719 77.320312 Z M 28.476562 76.179688 C 28.511719 76.136719 28.546875 76.058594 28.585938 76.054688 C 28.707031 76.039062 28.832031 76.046875 29.023438 76.046875 C 29.042969 76.21875 29.0625 76.347656 29.074219 76.457031 C 28.917969 76.589844 28.90625 76.585938 28.476562 76.179688 Z M 28.578125 70.722656 C 28.617188 70.890625 28.640625 71.007812 28.675781 71.164062 C 28.417969 71 28.417969 71 28.578125 70.722656 Z M 28.1875 83.875 C 28.113281 83.675781 28.070312 83.570312 28.003906 83.402344 L 28.421875 83.402344 C 28.339844 83.570312 28.289062 83.675781 28.1875 83.875 Z M 27.613281 83.90625 C 27.558594 84.015625 27.503906 84.128906 27.410156 84.320312 C 27.328125 84.144531 27.28125 84.054688 27.214844 83.921875 C 27.363281 83.898438 27.46875 83.882812 27.574219 83.867188 C 27.609375 83.75 27.644531 83.636719 27.738281 83.34375 C 27.894531 83.507812 27.957031 83.574219 28.117188 83.742188 C 27.832031 83.835938 27.722656 83.871094 27.613281 83.90625 Z M 27.03125 63.675781 C 27.207031 63.640625 27.386719 63.601562 27.644531 63.546875 C 27.472656 63.949219 27.292969 63.992188 27.074219 63.90625 C 27.058594 63.832031 27.046875 63.753906 27.03125 63.675781 Z M 26.925781 77.863281 C 26.875 77.847656 26.824219 77.835938 26.773438 77.820312 C 26.800781 77.667969 26.828125 77.519531 26.878906 77.257812 C 27.109375 77.5625 27.101562 77.71875 26.925781 77.863281 Z M 27.855469 56.539062 C 27.769531 56.589844 27.6875 56.644531 27.542969 56.734375 C 27.550781 56.4375 27.601562 56.320312 27.855469 56.539062 Z M 27.886719 75.089844 C 28 74.949219 28.078125 74.855469 28.203125 74.703125 C 28.289062 75.050781 28.230469 75.164062 27.886719 75.089844 Z M 27.957031 81.042969 C 27.644531 81.289062 27.644531 81.289062 27.292969 80.84375 C 27.542969 80.917969 27.726562 80.972656 27.957031 81.042969 Z M 27.285156 74.042969 L 27.285156 73.664062 C 27.441406 73.851562 27.441406 73.851562 27.285156 74.042969 Z M 27.683594 73.691406 C 27.992188 73.660156 28.0625 73.875 28.152344 74.125 C 28.101562 74.265625 28.039062 74.425781 27.953125 74.65625 C 27.613281 74.359375 27.671875 74.03125 27.683594 73.691406 Z M 27.652344 69.769531 C 27.605469 69.789062 27.558594 69.804688 27.511719 69.824219 C 27.472656 69.691406 27.441406 69.558594 27.386719 69.375 C 27.71875 69.4375 27.707031 69.59375 27.652344 69.769531 Z M 28.164062 69.738281 C 28.160156 69.738281 28.15625 69.730469 28.15625 69.730469 L 28.167969 69.730469 C 28.125 69.554688 28.089844 69.378906 28.035156 69.136719 C 28.179688 68.984375 28.347656 68.808594 28.527344 68.621094 C 28.859375 68.835938 29.261719 68.808594 29.441406 69.210938 C 29.183594 69.363281 28.941406 69.507812 28.695312 69.652344 C 28.707031 69.679688 28.714844 69.703125 28.726562 69.730469 L 28.167969 69.730469 L 28.167969 69.738281 L 28.164062 69.738281 C 28.242188 69.953125 28.371094 70.175781 28.097656 70.351562 C 27.878906 69.9375 27.878906 69.9375 28.164062 69.738281 Z M 28.160156 60.800781 C 28.300781 60.90625 28.40625 60.988281 28.511719 61.066406 C 28.496094 61.097656 28.476562 61.132812 28.460938 61.164062 C 28.34375 61.152344 28.226562 61.140625 28.078125 61.125 C 28.105469 61.019531 28.125 60.949219 28.160156 60.800781 Z M 28.867188 59.390625 C 28.902344 59.515625 28.9375 59.617188 28.980469 59.753906 C 28.835938 59.8125 28.71875 59.855469 28.566406 59.914062 C 28.496094 59.605469 28.585938 59.46875 28.867188 59.390625 Z M 28.816406 62.457031 C 28.972656 62.363281 29.074219 62.304688 29.195312 62.230469 C 29.136719 62.492188 29.136719 62.492188 28.816406 62.457031 Z M 29.386719 68.09375 C 29.371094 68.179688 29.351562 68.273438 29.324219 68.40625 C 29.167969 68.34375 29.035156 68.289062 28.882812 68.222656 C 29.03125 67.855469 29.191406 67.984375 29.386719 68.09375 Z M 28.40625 66.5 C 28.453125 66.199219 28.535156 66.046875 28.824219 65.976562 C 28.855469 66.355469 28.648438 66.378906 28.40625 66.5 Z M 28.722656 65.429688 C 28.703125 65.390625 28.6875 65.351562 28.667969 65.308594 C 28.753906 65.265625 28.84375 65.222656 28.933594 65.179688 C 28.945312 65.210938 28.960938 65.246094 28.976562 65.277344 C 28.890625 65.328125 28.808594 65.378906 28.722656 65.429688 Z M 30.390625 65.484375 C 30.398438 65.519531 30.410156 65.554688 30.421875 65.585938 C 30.335938 65.621094 30.246094 65.65625 30.160156 65.6875 C 30.148438 65.644531 30.132812 65.597656 30.121094 65.554688 C 30.210938 65.53125 30.300781 65.507812 30.390625 65.484375 Z M 30.484375 69.726562 C 30.421875 69.65625 30.375 69.601562 30.308594 69.523438 C 30.398438 69.421875 30.476562 69.332031 30.570312 69.222656 C 30.765625 69.472656 30.675781 69.597656 30.484375 69.726562 Z M 30.785156 54.617188 C 30.800781 54.644531 30.816406 54.671875 30.832031 54.703125 C 30.738281 54.761719 30.644531 54.824219 30.546875 54.882812 C 30.53125 54.847656 30.511719 54.816406 30.5 54.785156 C 30.59375 54.730469 30.691406 54.671875 30.785156 54.617188 Z M 25.792969 82.710938 C 25.714844 82.433594 25.71875 82.226562 26.074219 82.058594 C 26.097656 82.320312 26.113281 82.519531 26.136719 82.761719 C 25.972656 82.734375 25.886719 82.722656 25.792969 82.710938 Z M 25.777344 84.613281 C 25.664062 84.449219 25.546875 84.285156 25.402344 84.085938 C 25.429688 84.054688 25.488281 83.96875 25.609375 83.792969 C 25.726562 84.09375 25.804688 84.3125 25.886719 84.53125 C 25.851562 84.558594 25.8125 84.582031 25.777344 84.613281 Z M 25.34375 80.921875 C 25.265625 80.890625 25.1875 80.855469 25.109375 80.820312 C 25.121094 80.785156 25.132812 80.75 25.144531 80.714844 C 25.21875 80.730469 25.296875 80.746094 25.375 80.761719 C 25.367188 80.8125 25.351562 80.867188 25.34375 80.921875 Z M 25.027344 74.667969 C 25.050781 74.890625 25.0625 75.035156 25.085938 75.261719 C 24.835938 75.070312 24.777344 74.933594 25.027344 74.667969 Z M 24.453125 69.527344 C 24.765625 69.492188 24.9375 69.644531 25.035156 69.902344 C 24.753906 69.9375 24.488281 69.953125 24.453125 69.527344 Z M 24.753906 84.453125 C 24.652344 84.566406 24.527344 84.652344 24.371094 84.78125 C 24.316406 84.652344 24.28125 84.566406 24.222656 84.425781 C 24.417969 84.335938 24.550781 84.273438 24.71875 84.195312 C 24.738281 84.304688 24.78125 84.417969 24.753906 84.453125 Z M 23.917969 82.511719 C 24.136719 82.527344 24.265625 82.53125 24.394531 82.539062 C 24.21875 82.878906 24.085938 82.855469 23.917969 82.511719 Z M 23.996094 79.609375 C 24.121094 79.648438 24.226562 79.679688 24.46875 79.753906 C 24.089844 79.910156 24.300781 80.425781 23.8125 80.414062 C 23.882812 80.105469 23.933594 79.882812 23.996094 79.609375 Z M 23.417969 75.386719 C 23.382812 75.371094 23.34375 75.355469 23.304688 75.34375 L 23.304688 74.875 C 23.421875 75.054688 23.484375 75.121094 23.492188 75.191406 C 23.5 75.25 23.445312 75.320312 23.417969 75.386719 Z M 23.101562 74.511719 C 23.125 74.304688 23.234375 74.257812 23.488281 74.351562 C 23.351562 74.484375 23.265625 74.570312 23.164062 74.667969 C 23.128906 74.582031 23.09375 74.542969 23.101562 74.511719 Z M 21.992188 66.90625 C 22.097656 66.972656 22.171875 67.019531 22.273438 67.085938 C 22.03125 67.1875 22.03125 67.1875 21.992188 66.90625 Z M 21.460938 70.339844 C 21.125 69.855469 21.671875 69.792969 21.78125 69.46875 C 21.894531 69.640625 21.96875 69.753906 22.046875 69.871094 C 21.847656 70.027344 21.664062 70.175781 21.460938 70.339844 Z M 21.371094 77.269531 C 21.539062 77.199219 21.609375 77.175781 21.679688 77.148438 C 21.691406 77.214844 21.707031 77.277344 21.734375 77.398438 C 21.609375 77.355469 21.546875 77.332031 21.371094 77.269531 Z M 21.453125 80.429688 C 21.265625 80.453125 21.117188 80.433594 21.160156 80.042969 C 21.328125 80.167969 21.425781 80.246094 21.523438 80.316406 C 21.488281 80.375 21.472656 80.421875 21.453125 80.429688 Z M 21.191406 82.996094 L 20.878906 82.996094 C 20.878906 82.945312 20.878906 82.898438 20.882812 82.851562 C 20.988281 82.867188 21.089844 82.882812 21.195312 82.898438 C 21.191406 82.929688 21.191406 82.960938 21.191406 82.996094 Z M 20.457031 85.042969 C 20.53125 84.777344 20.582031 84.597656 20.636719 84.398438 C 20.824219 84.710938 20.824219 84.710938 20.457031 85.042969 Z M 21.453125 68.667969 C 21.445312 68.757812 21.433594 68.847656 21.421875 68.9375 L 21.328125 68.9375 C 21.316406 68.847656 21.308594 68.761719 21.300781 68.675781 C 21.351562 68.671875 21.398438 68.671875 21.453125 68.667969 Z M 20.355469 69.457031 C 20.320312 69.546875 20.285156 69.632812 20.25 69.722656 L 8.839844 69.722656 L 8.839844 62.214844 L 21.640625 62.214844 C 21.25 64.65625 21.277344 67.144531 20.394531 69.363281 C 20.527344 69.378906 20.605469 69.390625 20.691406 69.398438 C 20.585938 69.664062 20.574219 69.695312 20.355469 69.457031 Z M 20.203125 80.058594 C 20.007812 80 19.835938 79.945312 19.699219 79.90625 C 19.515625 79.617188 19.648438 79.496094 19.851562 79.378906 C 20.015625 79.488281 20.183594 79.605469 20.382812 79.738281 C 20.320312 79.855469 20.269531 79.945312 20.203125 80.058594 Z M 19.359375 84.058594 C 19.261719 84 19.128906 83.964844 19.085938 83.875 C 19.042969 83.789062 19.105469 83.648438 19.121094 83.535156 C 19.183594 83.527344 19.253906 83.519531 19.320312 83.511719 C 19.371094 83.664062 19.421875 83.816406 19.472656 83.96875 C 19.433594 84 19.398438 84.03125 19.359375 84.058594 Z M 18.753906 85.480469 C 18.839844 85.363281 18.921875 85.242188 19.054688 85.058594 C 19.210938 85.226562 19.328125 85.355469 19.445312 85.480469 Z M 18.667969 75.652344 C 18.792969 75.71875 18.886719 75.761719 18.972656 75.8125 C 18.976562 75.863281 18.976562 75.914062 18.976562 75.964844 C 18.859375 76 18.742188 76.03125 18.539062 76.085938 C 18.597656 75.886719 18.628906 75.792969 18.667969 75.652344 Z M 18.238281 73.089844 C 18.226562 73.148438 18.195312 73.199219 18.148438 73.296875 C 18.042969 73.226562 17.949219 73.164062 17.726562 73.023438 C 17.972656 72.960938 18.089844 72.933594 18.210938 72.898438 C 18.226562 73.011719 18.246094 73.054688 18.238281 73.089844 Z M 17.683594 75.648438 C 17.464844 75.761719 17.351562 75.6875 17.339844 75.417969 C 17.230469 75.453125 17.117188 75.488281 17.007812 75.527344 C 16.984375 75.488281 16.960938 75.445312 16.941406 75.40625 C 17.082031 75.28125 17.222656 75.15625 17.398438 75 C 17.453125 75.113281 17.484375 75.171875 17.515625 75.234375 C 17.660156 75.273438 17.730469 75.34375 17.730469 75.457031 C 17.730469 75.511719 17.714844 75.574219 17.683594 75.648438 Z M 15.113281 81.601562 C 14.914062 81.75 14.8125 81.632812 14.648438 81.398438 C 14.820312 81.398438 14.90625 81.382812 14.984375 81.40625 C 15.027344 81.417969 15.0625 81.460938 15.113281 81.503906 C 15.128906 81.519531 15.144531 81.539062 15.167969 81.554688 C 15.148438 81.574219 15.132812 81.589844 15.113281 81.601562 Z M 11.253906 82.003906 C 11.226562 81.992188 11.195312 81.980469 11.167969 81.96875 C 11.214844 81.832031 11.261719 81.703125 11.308594 81.566406 C 11.351562 81.589844 11.390625 81.613281 11.429688 81.636719 C 11.371094 81.757812 11.3125 81.882812 11.253906 82.003906 Z M 23.847656 67.574219 C 23.714844 67.648438 23.617188 67.703125 23.417969 67.8125 C 23.492188 67.597656 23.523438 67.496094 23.585938 67.316406 C 23.703125 67.433594 23.757812 67.484375 23.847656 67.574219 Z M 24.160156 65.765625 C 24.105469 65.910156 24.0625 66.015625 23.972656 66.246094 C 23.847656 65.847656 23.847656 65.847656 24.160156 65.765625 Z M 24.453125 75.597656 C 24.453125 75.609375 24.339844 75.632812 24.222656 75.667969 C 24.261719 75.507812 24.28125 75.417969 24.304688 75.324219 C 24.332031 75.324219 24.363281 75.320312 24.394531 75.316406 C 24.417969 75.410156 24.449219 75.503906 24.453125 75.597656 Z M 18.460938 54.449219 L 25.449219 54.449219 C 23.878906 55.894531 22.992188 57.957031 22.234375 59.765625 C 21.984375 60.480469 21.8125 61.21875 21.6875 61.957031 L 18.460938 61.957031 Z M 24.472656 68.210938 C 24.511719 68.1875 24.546875 68.164062 24.589844 68.144531 C 24.640625 68.242188 24.695312 68.335938 24.75 68.433594 C 24.703125 68.457031 24.65625 68.484375 24.609375 68.515625 C 24.5625 68.414062 24.519531 68.3125 24.472656 68.210938 Z M 25.421875 69.234375 C 25.121094 69.285156 24.816406 69.363281 24.550781 68.96875 C 24.871094 68.949219 25.125 68.933594 25.425781 68.910156 C 25.449219 68.96875 25.488281 69.054688 25.527344 69.136719 C 25.472656 69.183594 25.449219 69.226562 25.421875 69.234375 Z M 25.9375 75.355469 C 25.804688 75.453125 25.699219 75.53125 25.585938 75.617188 C 25.550781 75.523438 25.519531 75.480469 25.527344 75.453125 C 25.597656 75.285156 25.703125 75.195312 25.9375 75.355469 Z M 25.988281 74.691406 C 25.8125 74.898438 25.660156 75.082031 25.472656 75.304688 C 25.320312 74.910156 25.6875 74.800781 25.621094 74.414062 C 25.820312 74.566406 25.878906 74.605469 25.988281 74.691406 Z M 8.839844 38.914062 L 8.839844 31.40625 L 36.816406 31.40625 C 36.851562 33.910156 36.851562 36.410156 36.886719 38.914062 Z M 8.839844 23.382812 L 8.839844 15.875 L 36.472656 15.875 C 36.089844 18.207031 36.253906 21.207031 36.425781 23.382812 Z M 36.597656 25.519531 C 36.722656 27.394531 36.777344 29.273438 36.808594 31.148438 L 18.460938 31.148438 L 18.460938 23.640625 L 36.449219 23.640625 C 36.507812 24.40625 36.566406 25.054688 36.597656 25.519531 Z M 37.039062 37.527344 C 37.089844 37.53125 37.140625 37.539062 37.195312 37.542969 C 37.175781 37.628906 37.15625 37.710938 37.132812 37.796875 C 37.101562 37.792969 37.070312 37.789062 37.039062 37.785156 Z M 37.949219 14.691406 C 38.121094 14.765625 38.289062 14.835938 38.457031 14.90625 C 38.449219 14.941406 38.433594 14.980469 38.421875 15.019531 C 38.246094 14.957031 38.066406 14.898438 37.886719 14.835938 C 37.910156 14.789062 37.929688 14.738281 37.949219 14.691406 Z M 38.160156 34.746094 C 37.90625 34.492188 37.996094 34.339844 38.316406 34.167969 C 38.25 34.417969 38.207031 34.585938 38.160156 34.746094 Z M 38.925781 32.566406 C 38.96875 32.644531 39.015625 32.71875 39.058594 32.796875 C 39.03125 32.820312 39 32.84375 38.96875 32.867188 C 38.914062 32.796875 38.855469 32.726562 38.796875 32.660156 C 38.839844 32.625 38.882812 32.597656 38.925781 32.566406 Z M 38.984375 19.640625 C 39.160156 19.765625 39.320312 19.882812 39.464844 19.984375 C 39.441406 20.320312 39.28125 20.308594 39.050781 20.246094 C 38.945312 20.0625 38.820312 19.902344 38.984375 19.640625 Z M 39.875 23.363281 C 39.910156 23.59375 39.925781 23.71875 39.949219 23.84375 C 39.90625 23.863281 39.871094 23.882812 39.828125 23.90625 C 39.757812 23.855469 39.6875 23.808594 39.582031 23.734375 C 39.667969 23.625 39.730469 23.542969 39.875 23.363281 Z M 39.832031 17.03125 C 39.777344 16.917969 39.71875 16.804688 39.621094 16.613281 C 39.929688 16.679688 39.902344 16.847656 39.832031 17.03125 Z M 40.371094 20.132812 C 40.328125 20.027344 40.296875 19.949219 40.253906 19.84375 C 40.488281 19.902344 40.488281 19.902344 40.371094 20.132812 Z M 40.894531 25.992188 C 40.929688 26.003906 40.964844 26.015625 41 26.027344 C 40.972656 26.113281 40.953125 26.203125 40.929688 26.292969 C 40.890625 26.28125 40.855469 26.269531 40.820312 26.257812 C 40.84375 26.171875 40.871094 26.082031 40.894531 25.992188 Z M 41.8125 25 C 41.855469 25.023438 41.898438 25.046875 41.945312 25.070312 C 41.902344 25.136719 41.863281 25.207031 41.824219 25.277344 C 41.796875 25.265625 41.769531 25.25 41.738281 25.234375 C 41.761719 25.15625 41.789062 25.078125 41.8125 25 Z M 42.285156 22.832031 C 42.191406 23.015625 42.132812 23.132812 42.070312 23.253906 C 42.03125 23.226562 41.984375 23.195312 41.945312 23.167969 C 41.925781 22.984375 41.960938 22.847656 42.285156 22.832031 Z M 43.078125 27.320312 C 43.042969 27.78125 43.003906 27.796875 42.4375 27.578125 C 42.554688 27.183594 42.824219 27.285156 43.078125 27.320312 Z M 43.128906 23.742188 C 42.910156 23.972656 42.742188 23.863281 42.582031 23.742188 Z M 42.570312 22.953125 C 42.679688 23.136719 42.738281 23.234375 42.84375 23.410156 C 42.519531 23.390625 42.472656 23.285156 42.570312 22.953125 Z M 43.652344 40.15625 C 43.660156 40.21875 43.667969 40.277344 43.675781 40.339844 C 43.589844 40.347656 43.503906 40.351562 43.417969 40.359375 C 43.410156 40.320312 43.402344 40.28125 43.394531 40.242188 C 43.480469 40.210938 43.5625 40.183594 43.652344 40.15625 Z M 44.023438 23.914062 C 44.046875 23.945312 44.074219 23.984375 44.101562 24.015625 C 44.011719 24.09375 43.921875 24.167969 43.832031 24.242188 C 43.804688 24.199219 43.773438 24.160156 43.742188 24.121094 C 43.835938 24.050781 43.929688 23.984375 44.023438 23.914062 Z M 44.027344 24.925781 C 44.125 25.183594 44.179688 25.339844 44.246094 25.519531 C 43.820312 25.476562 43.820312 25.476562 44.027344 24.925781 Z M 45.765625 33.074219 C 45.765625 33.375 45.675781 33.46875 45.421875 33.394531 C 45.414062 33.164062 45.507812 33.070312 45.765625 33.074219 Z M 46.457031 32.179688 C 46.242188 32.003906 46.105469 31.890625 45.917969 31.734375 C 46.269531 31.648438 46.425781 31.742188 46.457031 32.179688 Z M 63.492188 18.746094 C 63.628906 18.539062 63.722656 18.390625 63.902344 18.121094 C 64.121094 18.4375 64.253906 18.636719 64.390625 18.835938 C 64.367188 18.875 64.347656 18.914062 64.332031 18.953125 C 64.078125 18.890625 63.828125 18.828125 63.492188 18.746094 Z M 63.679688 24.195312 C 63.640625 24.125 63.605469 24.054688 63.566406 23.984375 C 63.613281 23.964844 63.660156 23.949219 63.707031 23.929688 C 63.726562 24.003906 63.75 24.078125 63.769531 24.15625 C 63.738281 24.167969 63.707031 24.183594 63.679688 24.195312 Z M 62.386719 23.136719 C 61.988281 22.988281 62.089844 22.804688 62.269531 22.578125 C 62.503906 22.703125 62.523438 22.863281 62.386719 23.136719 Z M 62.398438 14.292969 C 62.4375 14.476562 62.476562 14.566406 62.46875 14.652344 C 62.464844 14.714844 62.398438 14.769531 62.332031 14.871094 C 62.164062 14.675781 62.121094 14.535156 62.398438 14.292969 Z M 61.367188 15.019531 C 61.203125 14.882812 61.082031 14.789062 60.960938 14.691406 C 60.96875 14.652344 60.976562 14.617188 60.988281 14.582031 L 61.476562 14.582031 C 61.429688 14.769531 61.40625 14.863281 61.367188 15.019531 Z M 60.925781 20.792969 C 60.890625 20.769531 60.859375 20.75 60.832031 20.730469 C 60.867188 20.570312 60.902344 20.410156 60.96875 20.132812 C 61.128906 20.328125 61.1875 20.398438 61.28125 20.515625 C 61.144531 20.625 61.035156 20.707031 60.925781 20.792969 Z M 59.796875 12.503906 C 59.902344 12.640625 59.972656 12.738281 60.046875 12.835938 C 59.71875 12.910156 59.628906 12.824219 59.796875 12.503906 Z M 55.625 12.59375 C 55.105469 13.1875 54.359375 14.097656 54.355469 14.964844 C 54.160156 14.453125 54.214844 13.84375 54.5 13.242188 C 55.042969 12.113281 56.328125 11.320312 57.476562 10.941406 C 58.132812 10.722656 58.910156 10.621094 59.675781 10.59375 C 58.140625 10.859375 56.5625 11.527344 55.625 12.59375 Z M 58.527344 19.945312 C 58.480469 19.839844 58.433594 19.734375 58.386719 19.628906 C 58.425781 19.605469 58.464844 19.585938 58.503906 19.5625 C 58.550781 19.667969 58.601562 19.773438 58.652344 19.878906 C 58.609375 19.902344 58.566406 19.925781 58.527344 19.945312 Z M 56.582031 13.507812 C 56.515625 13.574219 56.429688 13.621094 56.359375 13.671875 C 56.273438 13.867188 56.195312 14.046875 56.117188 14.226562 C 56.078125 14.210938 56.039062 14.191406 56.003906 14.175781 C 56.039062 13.988281 56.074219 13.800781 56.109375 13.59375 C 56.253906 13.457031 56.40625 13.328125 56.558594 13.207031 C 56.621094 13.191406 56.6875 13.175781 56.75 13.160156 C 56.769531 13.199219 56.785156 13.242188 56.800781 13.285156 C 56.730469 13.359375 56.660156 13.441406 56.582031 13.507812 Z M 65.773438 12.503906 C 65.8125 12.640625 65.855469 12.71875 65.847656 12.78125 C 65.832031 12.847656 65.769531 12.902344 65.714844 12.984375 C 65.511719 12.8125 65.503906 12.6875 65.773438 12.503906 Z M 66.445312 19.273438 C 66.515625 19.503906 66.546875 19.601562 66.609375 19.78125 C 66.425781 19.769531 66.308594 19.757812 66.089844 19.742188 C 66.230469 19.558594 66.296875 19.46875 66.445312 19.273438 Z M 66.320312 23.664062 C 66.28125 23.585938 66.25 23.519531 66.214844 23.433594 C 66.28125 23.410156 66.351562 23.386719 66.421875 23.359375 C 66.457031 23.378906 66.492188 23.402344 66.53125 23.421875 C 66.453125 23.511719 66.40625 23.5625 66.320312 23.664062 Z M 66.109375 23.199219 C 66.105469 23.195312 66.101562 23.191406 66.101562 23.1875 C 66.109375 23.1875 66.113281 23.191406 66.117188 23.195312 C 66.117188 23.195312 66.109375 23.199219 66.109375 23.199219 Z M 68.320312 13.5 C 68.871094 14.117188 69.179688 14.878906 69.40625 15.660156 C 69.628906 16.425781 69.875 17.390625 69.761719 18.183594 C 69.71875 18.484375 69.664062 18.792969 69.589844 19.105469 C 69.753906 17.34375 69.199219 15.351562 68.453125 14.078125 C 68.007812 13.300781 67.410156 12.648438 66.714844 12.113281 C 67.339844 12.527344 67.910156 13.042969 68.320312 13.5 Z M 68.515625 16.4375 C 68.699219 16.210938 68.699219 16.210938 68.925781 16.4375 Z M 68.300781 18.710938 C 68.171875 18.703125 68.039062 18.691406 67.910156 18.683594 L 67.910156 18.574219 L 68.3125 18.574219 C 68.308594 18.621094 68.304688 18.667969 68.300781 18.710938 Z M 66.949219 19.671875 C 67.097656 19.472656 67.183594 19.355469 67.339844 19.144531 C 67.394531 19.535156 67.34375 19.6875 66.949219 19.671875 Z M 79.070312 100.929688 C 78.855469 93.328125 74.023438 64.328125 73.664062 62.191406 C 74.039062 62.105469 74.425781 61.941406 74.449219 61.933594 C 74.5 61.910156 74.535156 61.855469 74.527344 61.800781 L 71.476562 36.75 C 71.292969 34.699219 70.980469 32.644531 70.109375 31.128906 C 69.882812 30.734375 69.621094 30.378906 69.3125 30.070312 C 68.671875 29.429688 67.84375 29.035156 67.027344 28.707031 C 66.972656 28.6875 66.921875 28.664062 66.867188 28.644531 C 66.824219 28.628906 66.78125 28.613281 66.734375 28.597656 C 66.320312 28.445312 65.890625 28.347656 65.476562 28.253906 L 65.238281 28.195312 C 64.773438 28.085938 64.445312 27.871094 64.265625 27.546875 C 64.203125 27.445312 64.160156 27.332031 64.132812 27.207031 C 64.125 27.175781 64.117188 27.140625 64.113281 27.105469 C 64.089844 26.964844 64.070312 26.773438 64.082031 26.589844 L 64.082031 26.570312 C 64.082031 26.527344 64.085938 26.484375 64.09375 26.441406 L 64.09375 26.429688 C 64.105469 26.339844 64.128906 26.253906 64.167969 26.179688 C 64.21875 26.066406 64.320312 25.976562 64.414062 25.914062 C 64.441406 25.890625 64.46875 25.871094 64.496094 25.851562 C 64.523438 25.832031 64.546875 25.816406 64.566406 25.800781 C 64.6875 25.707031 64.800781 25.613281 64.914062 25.519531 C 65.140625 25.375 65.359375 25.222656 65.507812 25.097656 C 66.578125 24.199219 67.574219 23.214844 68.296875 22.234375 C 68.445312 22.097656 68.589844 21.953125 68.71875 21.796875 C 69.101562 21.335938 69.347656 20.785156 69.53125 20.226562 C 69.75 19.566406 70.003906 18.726562 70.042969 18.03125 C 70.09375 17.164062 69.835938 16.195312 69.59375 15.367188 C 69.371094 14.609375 69.011719 13.925781 68.507812 13.316406 C 68.011719 12.726562 67.359375 12.273438 66.707031 11.867188 C 66.210938 11.554688 65.671875 11.25 65.089844 11.136719 C 64.515625 10.886719 63.3125 10.554688 62.210938 10.492188 C 61.820312 10.414062 61.421875 10.355469 61.023438 10.339844 C 59.507812 10.285156 57.8125 10.402344 56.449219 11.09375 C 55.332031 11.652344 54.296875 12.625 54.007812 13.867188 C 53.847656 14.542969 54.027344 15.15625 54.433594 15.617188 L 51.601562 15.617188 L 51.855469 15.875 L 54.445312 15.875 C 54.304688 16.320312 54.195312 16.785156 54.097656 17.222656 C 54.09375 17.230469 54.09375 17.238281 54.09375 17.246094 L 54.046875 17.4375 C 54.003906 17.625 53.96875 17.824219 53.9375 18.023438 C 53.921875 18.132812 53.90625 18.238281 53.890625 18.351562 C 53.789062 19.203125 53.792969 20.148438 53.90625 21.175781 C 53.976562 21.820312 54.089844 22.488281 54.246094 23.21875 C 54.402344 23.964844 54.683594 24.640625 55.054688 25.214844 C 55.101562 25.285156 55.152344 25.359375 55.199219 25.425781 C 55.242188 25.484375 55.285156 25.542969 55.328125 25.601562 C 55.382812 25.667969 55.441406 25.734375 55.496094 25.796875 C 55.90625 26.265625 56.378906 26.640625 56.886719 26.910156 C 57.050781 27 57.21875 27.078125 57.390625 27.140625 C 57.484375 27.175781 57.582031 27.210938 57.675781 27.242188 C 57.675781 27.242188 57.679688 27.242188 57.679688 27.242188 C 57.683594 27.242188 57.6875 27.242188 57.6875 27.242188 C 57.867188 27.300781 58.042969 27.347656 58.214844 27.386719 C 58.214844 27.351562 58.214844 27.320312 58.214844 27.285156 C 58.210938 27.214844 58.265625 27.15625 58.339844 27.148438 C 58.421875 27.148438 58.472656 27.203125 58.472656 27.273438 C 58.488281 27.535156 58.476562 27.792969 58.335938 28.003906 C 58.378906 28.023438 58.425781 28.042969 58.472656 28.0625 L 58.625 28.0625 C 58.863281 27.914062 59.078125 27.664062 59.191406 27.488281 C 59.332031 27.492188 59.472656 27.488281 59.617188 27.472656 C 59.6875 27.46875 59.742188 27.40625 59.738281 27.335938 C 59.734375 27.324219 59.734375 27.316406 59.726562 27.308594 C 59.710938 27.25 59.65625 27.210938 59.59375 27.21875 C 58.894531 27.277344 58.222656 27.175781 57.484375 26.898438 C 56.753906 26.625 56.078125 26.121094 55.535156 25.4375 C 55.046875 24.832031 54.6875 24.042969 54.5 23.164062 C 54.34375 22.445312 54.234375 21.785156 54.164062 21.144531 C 54.015625 19.765625 54.058594 18.539062 54.300781 17.496094 L 54.339844 17.328125 C 54.445312 16.863281 54.5625 16.359375 54.714844 15.886719 C 54.796875 15.953125 54.886719 16.015625 54.980469 16.074219 C 55.171875 16.230469 55.382812 16.347656 55.582031 16.367188 C 55.386719 17.328125 55.679688 19.136719 56.574219 20 C 56.875 20.289062 57.554688 20.6875 57.992188 20.699219 C 58.195312 20.753906 58.363281 20.863281 58.492188 21.023438 C 58.621094 21.179688 58.707031 21.382812 58.746094 21.621094 C 58.832031 22.171875 58.621094 22.734375 58.222656 22.996094 C 58.011719 23.132812 57.628906 23.167969 57.355469 23.070312 C 57.296875 23.050781 57.234375 23.082031 57.214844 23.136719 C 57.195312 23.195312 57.222656 23.253906 57.28125 23.277344 C 57.304688 23.285156 57.335938 23.289062 57.363281 23.296875 C 57.835938 23.574219 58.367188 23.578125 58.910156 23.597656 C 59.105469 23.605469 59.304688 23.726562 59.4375 23.863281 C 59.742188 24.171875 59.972656 24.503906 60.34375 24.742188 C 60.707031 24.976562 61.085938 25.183594 61.480469 25.355469 C 62.355469 25.734375 63.238281 25.90625 64.171875 25.773438 C 64.105469 25.828125 64.042969 25.894531 63.988281 25.972656 C 63.96875 26.003906 63.945312 26.035156 63.929688 26.070312 C 63.78125 26.378906 63.804688 26.835938 63.855469 27.132812 C 63.863281 27.179688 63.871094 27.226562 63.878906 27.261719 C 63.902344 27.371094 63.941406 27.46875 63.984375 27.5625 C 64.082031 27.777344 64.230469 27.960938 64.421875 28.105469 C 64.492188 28.078125 64.53125 28.054688 64.535156 28.054688 C 64.601562 28.023438 64.675781 28.046875 64.710938 28.109375 C 64.738281 28.167969 64.71875 28.230469 64.671875 28.269531 C 64.824219 28.34375 64.992188 28.40625 65.175781 28.449219 L 65.414062 28.503906 C 65.828125 28.597656 66.25 28.699219 66.65625 28.84375 C 66.695312 28.859375 66.734375 28.871094 66.773438 28.886719 C 66.828125 28.90625 66.878906 28.929688 66.933594 28.949219 C 67.726562 29.265625 68.523438 29.648438 69.128906 30.25 C 69.398438 30.523438 69.632812 30.832031 69.835938 31.175781 C 70.722656 32.652344 71.03125 34.71875 71.21875 36.78125 L 74.253906 61.734375 C 74.097656 61.792969 73.773438 61.910156 73.492188 61.964844 C 73.460938 61.96875 73.433594 61.976562 73.40625 61.980469 C 72.535156 62.101562 71.667969 62.214844 70.800781 62.328125 C 68.179688 62.671875 65.574219 62.96875 62.976562 63.144531 C 61.824219 63.21875 60.667969 63.269531 59.507812 63.292969 C 59.363281 63.292969 59.21875 63.292969 59.074219 63.292969 C 54.863281 63.308594 50.902344 62.578125 47.6875 61.808594 C 47.21875 61.699219 46.765625 61.589844 46.328125 61.476562 L 48.535156 49.910156 C 48.144531 50.289062 47.570312 50.59375 46.691406 50.796875 C 46.28125 50.890625 45.59375 50.929688 44.75 50.929688 C 41.539062 50.929688 36.121094 50.378906 35.601562 50.324219 C 34.917969 51.441406 33.890625 52.304688 32.339844 52.703125 C 30.214844 53.234375 28.441406 52.527344 26.3125 53.765625 C 26.117188 53.898438 25.929688 54.039062 25.746094 54.1875 L 8.839844 54.1875 L 8.839844 46.683594 L 27.363281 46.683594 C 27.484375 46.8125 27.648438 46.902344 27.769531 46.960938 C 27.871094 47.003906 27.964844 47.042969 28.0625 47.078125 C 27.960938 47.136719 27.890625 47.222656 27.851562 47.328125 C 27.753906 47.589844 27.933594 47.847656 28.332031 48.03125 C 29.46875 48.554688 30.925781 48.644531 30.980469 48.648438 C 31.179688 48.675781 31.375 48.691406 31.570312 48.691406 C 31.972656 48.691406 32.363281 48.640625 32.765625 48.585938 L 33.039062 48.554688 C 33.507812 48.496094 33.894531 48.410156 34.257812 48.289062 C 34.230469 48.277344 34.214844 48.269531 34.214844 48.269531 C 34.144531 48.242188 34.113281 48.167969 34.140625 48.101562 C 34.15625 48.0625 34.183594 48.039062 34.222656 48.027344 C 34.21875 48.027344 34.21875 48.027344 34.214844 48.027344 C 33.863281 48.15625 33.476562 48.242188 33.007812 48.296875 L 32.734375 48.332031 C 32.152344 48.40625 31.601562 48.476562 31.003906 48.394531 C 30.988281 48.394531 29.535156 48.300781 28.441406 47.796875 C 28.285156 47.726562 28.039062 47.566406 28.09375 47.417969 C 28.117188 47.355469 28.160156 47.3125 28.226562 47.28125 C 28.332031 47.234375 28.46875 47.234375 28.585938 47.257812 C 28.621094 47.265625 28.660156 47.277344 28.699219 47.285156 C 28.699219 47.289062 28.699219 47.289062 28.703125 47.289062 C 28.976562 47.359375 29.265625 47.410156 29.621094 47.457031 C 29.84375 47.480469 30.304688 47.546875 30.304688 47.546875 L 30.339844 47.289062 C 30.339844 47.289062 29.878906 47.226562 29.652344 47.195312 C 29.296875 47.152344 29.003906 47.101562 28.730469 47.027344 C 28.714844 47.023438 28.703125 47.019531 28.691406 47.015625 C 28.421875 46.945312 28.164062 46.847656 27.875 46.71875 C 27.777344 46.675781 27.457031 46.519531 27.457031 46.296875 C 27.457031 46.222656 27.484375 46.160156 27.542969 46.105469 C 27.65625 46.003906 27.859375 45.953125 28.023438 45.941406 C 27.894531 45.878906 27.777344 45.816406 27.671875 45.757812 C 27.671875 45.757812 27.667969 45.753906 27.664062 45.753906 C 27.558594 45.789062 27.453125 45.839844 27.371094 45.914062 C 27.253906 46.015625 27.199219 46.152344 27.199219 46.296875 C 27.199219 46.34375 27.203125 46.382812 27.214844 46.421875 L 18.460938 46.421875 L 18.460938 39.175781 L 36.890625 39.175781 C 36.90625 40.097656 36.921875 41.015625 36.953125 41.9375 C 36.953125 42.515625 36.957031 43.132812 36.945312 43.769531 L 38.5625 43.714844 C 38.554688 43.597656 38.605469 43.5 38.8125 43.425781 C 38.785156 43.539062 38.765625 43.628906 38.746094 43.710938 L 42.902344 43.566406 C 43.214844 42.761719 45.484375 36.976562 47.539062 33.421875 C 47.527344 33.382812 47.515625 33.335938 47.503906 33.296875 C 47.5625 33.242188 47.617188 33.214844 47.671875 33.199219 C 48.261719 32.203125 48.828125 31.40625 49.324219 30.980469 C 49.371094 30.9375 49.425781 30.894531 49.480469 30.851562 C 49.460938 30.84375 49.441406 30.832031 49.421875 30.824219 C 48.742188 30.503906 48.234375 30.820312 47.546875 30.945312 C 46.339844 31.164062 45.484375 30.257812 45.144531 29.183594 C 44.597656 27.457031 45.351562 24.96875 43.949219 23.640625 L 47.945312 23.640625 C 47.894531 23.558594 47.847656 23.46875 47.800781 23.382812 L 43.628906 23.382812 C 43.578125 23.351562 43.53125 23.320312 43.480469 23.289062 C 43.4375 23.339844 43.394531 23.386719 43.355469 23.4375 C 43.328125 23.414062 43.300781 23.390625 43.273438 23.371094 C 43.308594 23.324219 43.339844 23.277344 43.371094 23.230469 C 43.335938 23.210938 43.304688 23.195312 43.269531 23.179688 C 42.621094 22.867188 41.875 22.667969 41.496094 21.988281 C 41.140625 21.351562 41.3125 20.394531 41.28125 19.695312 C 41.222656 18.382812 41.253906 17.117188 40.996094 15.875 L 45.929688 15.875 C 45.796875 15.796875 45.664062 15.714844 45.542969 15.617188 L 40.9375 15.617188 C 40.835938 15.191406 40.695312 14.769531 40.5 14.347656 C 40.414062 14.152344 40.324219 13.980469 40.21875 13.824219 C 40.160156 13.738281 40.09375 13.65625 40.019531 13.578125 C 39.050781 13.570312 38.152344 12.753906 38.113281 12.71875 C 38.085938 12.695312 38.074219 12.664062 38.074219 12.628906 C 37.988281 12.648438 37.910156 12.679688 37.839844 12.742188 C 37.835938 12.742188 37.832031 12.746094 37.832031 12.75 C 37.15625 13.320312 36.753906 14.359375 36.519531 15.617188 L 18.460938 15.617188 L 18.460938 8.109375 L 59.804688 8.109375 L 59.804688 7.851562 L 8.839844 7.851562 L 8.839844 0.34375 L 59.804688 0.34375 L 59.804688 0.0859375 L 0 0.0859375 L 0 0.34375 L 8.582031 0.34375 L 8.582031 7.851562 L 0 7.851562 L 0 8.109375 L 18.203125 8.109375 L 18.203125 15.617188 L 0 15.617188 L 0 15.875 L 8.582031 15.875 L 8.582031 23.382812 L 0 23.382812 L 0 23.640625 L 18.203125 23.640625 L 18.203125 31.148438 L 0 31.148438 L 0 31.40625 L 8.582031 31.40625 L 8.582031 38.914062 L 0 38.914062 L 0 39.171875 L 18.203125 39.171875 L 18.203125 46.421875 L 0 46.421875 L 0 46.679688 L 8.582031 46.679688 L 8.582031 54.1875 L 0 54.1875 L 0 54.449219 L 18.203125 54.449219 L 18.203125 61.953125 L 0 61.953125 L 0 62.214844 L 8.582031 62.214844 L 8.582031 69.722656 L 0 69.722656 L 0 69.980469 L 20.121094 69.980469 C 20.058594 70.105469 20 70.230469 19.929688 70.355469 C 18.816406 72.472656 17.066406 73.265625 15.113281 73.753906 C 13.867188 74.066406 12.539062 74.25 11.238281 74.578125 C 11.199219 74.601562 11.15625 74.625 11.109375 74.652344 C 11.109375 74.632812 11.117188 74.621094 11.117188 74.609375 C 10.921875 74.65625 10.726562 74.710938 10.535156 74.769531 C 8.472656 75.488281 6.589844 76.230469 5.167969 77.488281 L 0 77.488281 L 0 77.746094 L 4.886719 77.746094 C 4 78.613281 3.316406 79.714844 2.910156 81.1875 C 2.640625 82.085938 2.324219 83.550781 2.289062 85.253906 L 0 85.253906 L 0 85.511719 L 44.34375 85.511719 L 44.371094 85.253906 L 28.367188 85.253906 C 28.636719 82.816406 29.164062 80.664062 30.535156 79.007812 C 30.519531 78.921875 30.5 78.828125 30.484375 78.726562 C 30.589844 78.761719 30.660156 78.785156 30.703125 78.816406 C 30.9375 78.554688 31.195312 78.304688 31.476562 78.070312 C 31.34375 77.878906 31.429688 77.71875 31.640625 77.515625 C 31.734375 77.625 31.789062 77.71875 31.8125 77.800781 C 31.835938 77.78125 31.867188 77.765625 31.890625 77.746094 L 45.128906 77.746094 L 45.15625 77.488281 L 32.265625 77.488281 C 32.460938 77.363281 32.660156 77.242188 32.875 77.128906 C 33.292969 76.90625 33.734375 76.722656 34.195312 76.550781 C 33.941406 76.488281 33.820312 76.296875 33.652344 76.128906 C 33.703125 75.988281 33.75 75.851562 33.804688 75.710938 C 33.855469 75.703125 33.914062 75.691406 33.96875 75.679688 C 34.085938 75.929688 34.207031 76.183594 34.351562 76.492188 C 36.132812 75.863281 38.144531 75.515625 39.871094 74.75 C 39.910156 74.695312 39.957031 74.640625 40.019531 74.585938 C 40.039062 74.609375 40.054688 74.632812 40.070312 74.65625 C 40.480469 74.46875 40.871094 74.246094 41.234375 73.992188 C 41.21875 73.972656 41.207031 73.953125 41.1875 73.925781 C 41.277344 73.878906 41.34375 73.84375 41.542969 73.738281 C 41.535156 73.753906 41.527344 73.765625 41.519531 73.785156 C 41.652344 73.683594 41.785156 73.574219 41.910156 73.460938 C 41.886719 73.445312 41.863281 73.429688 41.839844 73.414062 C 41.859375 73.371094 41.878906 73.328125 41.898438 73.285156 C 41.941406 73.304688 41.984375 73.324219 42.027344 73.347656 C 42.140625 73.234375 42.253906 73.117188 42.359375 72.992188 C 42.5 72.835938 42.625 72.667969 42.742188 72.503906 C 42.667969 72.441406 42.59375 72.378906 42.496094 72.296875 C 42.710938 72.167969 42.796875 72.230469 42.855469 72.328125 C 43.316406 71.601562 43.589844 70.8125 43.746094 69.980469 L 45.914062 69.980469 L 45.941406 69.722656 L 43.789062 69.722656 C 43.96875 68.617188 43.960938 67.457031 43.941406 66.304688 C 43.929688 66.3125 43.914062 66.3125 43.898438 66.320312 C 43.914062 66.285156 43.929688 66.257812 43.941406 66.230469 C 43.925781 65.195312 43.90625 64.175781 44.007812 63.21875 C 44.046875 62.882812 44.089844 62.546875 44.140625 62.214844 L 46.699219 62.214844 L 46.726562 61.953125 L 44.175781 61.953125 C 44.582031 59.40625 45.40625 57.082031 47.242188 55.308594 L 46.050781 61.546875 C 46.039062 61.617188 46.078125 61.679688 46.144531 61.695312 C 46.339844 61.746094 46.535156 61.796875 46.738281 61.847656 C 46.820312 61.867188 46.90625 61.886719 46.992188 61.910156 C 47.109375 61.9375 47.234375 61.96875 47.355469 61.996094 C 47.746094 62.089844 48.144531 62.183594 48.558594 62.277344 C 51.324219 62.902344 54.558594 63.460938 58.003906 63.542969 C 58.308594 63.550781 58.609375 63.554688 58.914062 63.554688 C 59.113281 63.554688 59.3125 63.550781 59.511719 63.550781 C 60.671875 63.527344 61.832031 63.476562 62.988281 63.402344 C 65.597656 63.226562 68.199219 62.929688 70.816406 62.589844 C 71.675781 62.476562 72.542969 62.359375 73.40625 62.238281 C 73.769531 64.398438 78.558594 93.125 78.808594 100.84375 C 74.324219 102.449219 68.464844 103.953125 62.675781 101.515625 L 61.441406 76.421875 L 61.429688 76.230469 C 61.425781 76.160156 61.363281 76.101562 61.292969 76.109375 C 61.242188 76.109375 61.199219 76.140625 61.179688 76.1875 C 61.171875 76.203125 61.171875 76.222656 61.171875 76.242188 L 61.179688 76.425781 L 61.417969 81.269531 L 62.421875 101.609375 C 62.421875 101.660156 62.453125 101.703125 62.5 101.722656 C 64.167969 102.4375 65.839844 102.820312 67.484375 102.976562 C 67.484375 102.988281 67.484375 102.996094 67.492188 103.003906 C 67.71875 103.5625 67.945312 104.125 68.175781 104.683594 C 68.179688 104.695312 68.1875 104.707031 68.191406 104.714844 C 66.53125 105.265625 65.066406 106.578125 64.25 108.257812 C 63.996094 108.773438 63.867188 109.640625 63.816406 110.441406 L 65.125 110.226562 C 65.125 110.164062 65.136719 110.101562 65.160156 110.027344 C 65.257812 110.074219 65.347656 110.125 65.445312 110.171875 L 78.996094 107.945312 C 79.003906 107.945312 79.011719 107.949219 79.019531 107.949219 C 78.945312 107.429688 78.832031 106.683594 78.6875 105.804688 C 78.414062 104.164062 76.933594 102.582031 76.683594 102.324219 C 76.65625 102.164062 76.625 102.007812 76.601562 101.847656 C 77.429688 101.597656 78.226562 101.328125 78.984375 101.054688 C 79.035156 101.035156 79.070312 100.984375 79.070312 100.929688 "/></g><path style=" stroke:none;fill-rule:nonzero;fill:#100f0d;fill-opacity:1;" d="M 28.804688 43.859375 C 28.570312 44.085938 28.570312 44.085938 28.46875 43.792969 C 28.601562 43.816406 28.703125 43.839844 28.804688 43.859375 Z M 29.457031 43.882812 C 29.230469 43.875 29.125 43.765625 29.121094 43.519531 C 29.429688 43.523438 29.429688 43.523438 29.457031 43.882812 Z M 32.894531 40.726562 L 28.472656 40.726562 C 28.113281 40.726562 27.824219 41.015625 27.824219 41.375 L 27.824219 41.632812 C 27.824219 41.894531 27.980469 42.121094 28.203125 42.222656 C 27.96875 42.472656 27.824219 42.8125 27.824219 43.1875 L 27.824219 44.203125 C 27.832031 44.191406 27.84375 44.179688 27.851562 44.171875 C 28.054688 43.996094 28.410156 44.046875 28.648438 44.078125 C 28.6875 44.085938 28.71875 44.089844 28.746094 44.09375 C 29.207031 44.144531 29.648438 44.203125 30.101562 44.261719 C 30.558594 44.320312 31.023438 44.378906 31.53125 44.4375 C 31.820312 44.472656 32.03125 44.472656 32.179688 44.4375 C 32 44.402344 31.824219 44.359375 31.652344 44.300781 C 30.984375 44.082031 30.4375 43.625 29.78125 43.375 C 29.1875 43.144531 28.640625 43.144531 28.085938 43.234375 C 28.085938 43.234375 28.085938 43.234375 28.082031 43.234375 L 28.082031 43.1875 C 28.082031 43.132812 28.09375 43.082031 28.097656 43.027344 C 28.101562 43.023438 28.101562 43.019531 28.101562 43.011719 C 28.105469 42.984375 28.109375 42.960938 28.113281 42.933594 C 28.175781 42.667969 28.320312 42.445312 28.527344 42.28125 L 31.933594 42.28125 C 31.953125 42.175781 31.996094 42.089844 32.050781 42.023438 L 28.472656 42.023438 C 28.261719 42.023438 28.082031 41.847656 28.082031 41.632812 L 28.082031 41.375 C 28.082031 41.160156 28.261719 40.988281 28.472656 40.988281 L 32.894531 40.988281 C 33.109375 40.988281 33.285156 41.160156 33.285156 41.375 L 33.285156 41.632812 C 33.285156 41.839844 33.125 42.003906 32.921875 42.019531 C 32.953125 42.050781 32.984375 42.085938 33.015625 42.125 C 33.046875 42.164062 33.082031 42.203125 33.113281 42.238281 L 33.121094 42.238281 C 33.117188 42.238281 33.113281 42.238281 33.113281 42.242188 C 33.195312 42.34375 33.292969 42.445312 33.394531 42.554688 C 33.332031 42.433594 33.253906 42.324219 33.160156 42.222656 C 33.386719 42.121094 33.542969 41.894531 33.542969 41.632812 L 33.542969 41.375 C 33.542969 41.015625 33.25 40.726562 32.894531 40.726562 "/><path style=" stroke:none;fill-rule:nonzero;fill:#100f0d;fill-opacity:1;" d="M 33.152344 41.375 C 33.152344 41.304688 33.09375 41.246094 33.023438 41.246094 L 28.34375 41.246094 C 28.269531 41.246094 28.214844 41.304688 28.214844 41.375 C 28.214844 41.445312 28.269531 41.503906 28.34375 41.503906 L 33.023438 41.503906 C 33.09375 41.503906 33.152344 41.445312 33.152344 41.375 "/><path style=" stroke:none;fill-rule:nonzero;fill:#100f0d;fill-opacity:1;" d="M 50.820312 15.457031 C 50.734375 15.472656 50.636719 15.488281 50.523438 15.507812 L 49.847656 14.714844 C 49.984375 14.742188 50.121094 14.765625 50.25 14.785156 L 50.820312 15.457031 "/><path style=" stroke:none;fill-rule:nonzero;fill:#100f0d;fill-opacity:1;" d="M 57.644531 111.140625 C 57.632812 111.515625 57.628906 111.730469 57.628906 111.738281 L 57.625 111.917969 L 57.5 111.917969 C 55.324219 111.917969 50.277344 111.84375 46.578125 111.785156 C 46.574219 111.777344 46.570312 111.769531 46.566406 111.761719 C 46.558594 111.769531 46.558594 111.777344 46.550781 111.785156 C 44.125 111.746094 42.285156 111.714844 42.242188 111.714844 L 42.089844 111.683594 L 42.113281 111.519531 C 42.132812 111.398438 42.160156 111.269531 42.1875 111.140625 L 57.644531 111.140625 "/><path style=" stroke:none;fill-rule:nonzero;fill:#100f0d;fill-opacity:1;" d="M 55.859375 106.058594 C 55.761719 105.972656 55.660156 105.886719 55.5625 105.804688 C 55.589844 105.765625 55.613281 105.726562 55.636719 105.6875 C 55.746094 105.757812 55.855469 105.824219 55.964844 105.890625 C 55.929688 105.949219 55.894531 106.003906 55.859375 106.058594 Z M 53.238281 109.898438 C 53.078125 109.660156 53.171875 109.515625 53.414062 109.308594 C 53.476562 109.605469 53.554688 109.808594 53.238281 109.898438 Z M 49.71875 109.988281 C 49.835938 110.0625 49.917969 110.085938 49.957031 110.144531 C 50.003906 110.21875 50.019531 110.320312 50.050781 110.414062 C 49.683594 110.5 49.683594 110.5 49.71875 109.988281 Z M 47.667969 107.863281 C 47.632812 107.824219 47.597656 107.785156 47.5625 107.75 C 47.636719 107.585938 47.710938 107.414062 47.820312 107.175781 C 47.988281 107.34375 48.082031 107.441406 48.246094 107.605469 C 48.003906 107.710938 47.835938 107.785156 47.667969 107.863281 Z M 43.546875 109.160156 C 43.820312 109.242188 43.984375 109.289062 44.234375 109.367188 C 43.832031 109.511719 43.832031 109.511719 43.546875 109.160156 Z M 56.289062 105.152344 C 56.289062 105.132812 56.289062 105.113281 56.292969 105.09375 C 56.363281 104.652344 56.433594 104.214844 56.503906 103.777344 C 56.5625 103.433594 56.617188 103.085938 56.671875 102.738281 C 56.582031 102.75 56.492188 102.761719 56.40625 102.773438 C 56.375 102.949219 56.347656 103.128906 56.320312 103.308594 C 56.222656 103.90625 56.125 104.46875 56.078125 105.042969 C 55.890625 105.019531 55.421875 104.96875 54.84375 104.96875 C 54.109375 104.96875 53.070312 105.054688 52.296875 105.472656 C 52.28125 105.480469 50.640625 106.179688 49.570312 106.214844 C 49.511719 106.21875 49.457031 106.21875 49.398438 106.21875 C 49 106.21875 48.648438 106.171875 48.367188 106.113281 C 48.085938 106.058594 47.878906 105.996094 47.773438 105.957031 C 47.707031 104.636719 47.644531 103.3125 47.582031 101.988281 C 47.492188 101.964844 47.40625 101.933594 47.320312 101.90625 C 47.382812 103.25 47.445312 104.597656 47.511719 105.945312 C 45.777344 106.214844 44.105469 107.277344 43.019531 108.808594 C 42.695312 109.269531 42.425781 110.101562 42.242188 110.882812 L 57.648438 110.882812 C 57.660156 110.34375 57.671875 109.589844 57.671875 108.714844 C 57.671875 107.070312 56.507812 105.449219 56.289062 105.152344 "/><path style=" stroke:none;fill-rule:nonzero;fill:#100f0d;fill-opacity:1;" d="M 61.488281 69.332031 C 61.488281 69.261719 61.429688 69.203125 61.359375 69.203125 C 61.355469 69.203125 61.355469 69.203125 61.355469 69.203125 C 61.308594 69.203125 61.265625 69.234375 61.242188 69.273438 C 61.234375 69.289062 61.226562 69.3125 61.226562 69.332031 C 61.226562 69.410156 61.203125 72.183594 61.179688 76.1875 C 61.199219 76.144531 61.242188 76.109375 61.292969 76.105469 C 61.363281 76.097656 61.425781 76.160156 61.429688 76.230469 L 61.441406 76.421875 C 61.460938 72.292969 61.484375 69.414062 61.488281 69.332031 "/><path style=" stroke:none;fill-rule:nonzero;fill:#100f0d;fill-opacity:1;" d="M 61.480469 101.152344 C 61.480469 101.203125 61.453125 101.25 61.40625 101.273438 C 59.875 101.980469 58.292969 102.472656 56.671875 102.738281 C 56.582031 102.75 56.492188 102.761719 56.402344 102.773438 C 55.519531 102.90625 54.621094 102.976562 53.714844 102.976562 C 51.699219 102.976562 49.644531 102.648438 47.582031 101.988281 C 47.492188 101.964844 47.40625 101.933594 47.320312 101.90625 C 46.667969 101.691406 46.015625 101.445312 45.367188 101.164062 C 44.515625 100.824219 42.964844 100.308594 42.949219 100.304688 C 42.894531 100.285156 42.859375 100.230469 42.863281 100.171875 L 44.34375 85.511719 L 44.371094 85.253906 L 45.128906 77.746094 L 45.15625 77.488281 L 45.914062 69.980469 L 45.941406 69.722656 L 46.699219 62.214844 L 46.726562 61.957031 L 46.738281 61.847656 C 46.820312 61.867188 46.90625 61.886719 46.992188 61.910156 L 43.128906 100.09375 C 43.488281 100.210938 44.730469 100.632812 45.464844 100.925781 C 50.890625 103.265625 56.335938 103.316406 61.21875 101.074219 C 61.113281 94.554688 61.140625 83.605469 61.179688 76.425781 L 61.417969 81.269531 C 61.394531 87.960938 61.390625 95.980469 61.480469 101.152344 "/><path style=" stroke:none;fill-rule:nonzero;fill:#100f0d;fill-opacity:1;" d="M 44.148438 13.242188 C 44.113281 13.285156 44.101562 13.339844 44.109375 13.40625 C 42.933594 13.207031 41.722656 13 41.363281 12.84375 C 41.417969 12.835938 41.503906 12.828125 41.628906 12.828125 C 42.171875 12.828125 43.15625 12.949219 44.269531 13.101562 C 44.226562 13.144531 44.1875 13.183594 44.148438 13.242188 Z M 44.359375 12.441406 C 44.535156 12.289062 44.667969 12.164062 44.726562 12.097656 C 44.800781 12.003906 44.894531 11.949219 45.003906 11.941406 C 45.261719 11.914062 45.628906 12.089844 46.089844 12.46875 C 46.222656 12.578125 46.339844 12.683594 46.4375 12.769531 C 46.445312 12.777344 46.457031 12.792969 46.46875 12.800781 L 46.511719 12.839844 C 46.566406 12.886719 46.648438 12.886719 46.695312 12.832031 C 46.746094 12.777344 46.738281 12.699219 46.6875 12.648438 L 46.644531 12.609375 C 46.625 12.59375 46.597656 12.570312 46.578125 12.550781 C 46.484375 12.464844 46.378906 12.371094 46.253906 12.269531 C 46.117188 12.15625 45.992188 12.0625 45.867188 11.984375 C 46.007812 11.875 46.160156 11.820312 46.3125 11.820312 L 46.316406 11.820312 C 46.65625 11.820312 46.917969 12.078125 46.921875 12.078125 C 47.042969 12.199219 47.1875 12.328125 47.3125 12.441406 C 47.386719 12.507812 47.453125 12.570312 47.507812 12.617188 C 47.53125 12.640625 47.5625 12.652344 47.59375 12.652344 C 47.632812 12.652344 47.664062 12.640625 47.691406 12.613281 C 47.742188 12.5625 47.738281 12.476562 47.6875 12.429688 C 47.632812 12.378906 47.5625 12.316406 47.484375 12.246094 C 47.417969 12.1875 47.34375 12.121094 47.273438 12.054688 C 47.898438 11.941406 48.234375 12.402344 48.25 12.425781 C 48.210938 12.367188 48.222656 12.292969 48.277344 12.246094 C 48.332031 12.203125 48.414062 12.214844 48.457031 12.269531 L 48.605469 12.453125 C 48.734375 12.464844 48.859375 12.507812 48.976562 12.59375 C 49.152344 12.71875 49.421875 13.007812 49.570312 13.671875 C 49.117188 13.585938 48.601562 13.5 48.015625 13.398438 C 47.425781 13.304688 46.765625 13.203125 46.023438 13.09375 C 45.738281 13.050781 45.449219 13.007812 45.167969 12.96875 C 44.757812 12.910156 44.351562 12.851562 43.964844 12.800781 C 44.109375 12.664062 44.257812 12.535156 44.359375 12.441406 Z M 52.316406 14.734375 C 52.28125 14.742188 52.214844 14.75 52.097656 14.75 C 51.359375 14.75 49.535156 14.40625 47.601562 14.039062 C 47.136719 13.949219 46.667969 13.859375 46.203125 13.773438 C 45.945312 13.511719 45.632812 13.316406 45.597656 13.292969 C 45.597656 13.292969 45.59375 13.292969 45.59375 13.292969 C 45.722656 13.3125 45.851562 13.332031 45.984375 13.347656 C 51.125 14.105469 52.1875 14.53125 52.316406 14.734375 Z M 41.085938 12.855469 C 40.792969 13.253906 40.257812 13.308594 40.101562 13.316406 C 40.078125 13.316406 40.054688 13.316406 40.035156 13.316406 C 39.816406 13.316406 39.601562 13.265625 39.398438 13.191406 C 39.398438 13.238281 39.394531 13.277344 39.390625 13.324219 C 38.730469 13.09375 38.210938 12.625 38.210938 12.625 C 38.210938 12.625 39.152344 12.128906 39.824219 11.988281 C 39.992188 11.953125 40.167969 11.980469 40.335938 12.039062 C 40.320312 12.085938 40.292969 12.132812 40.265625 12.171875 C 40.640625 12.324219 40.980469 12.675781 41.085938 12.785156 Z M 64.710938 28.109375 C 64.675781 28.046875 64.601562 28.023438 64.535156 28.054688 C 64.53125 28.054688 64.492188 28.074219 64.421875 28.105469 C 64.382812 28.121094 64.332031 28.140625 64.273438 28.164062 C 63.523438 28.453125 61.214844 29.152344 58.472656 28.058594 C 58.425781 28.042969 58.378906 28.023438 58.335938 28.003906 C 58.476562 27.792969 58.488281 27.53125 58.472656 27.269531 C 58.472656 27.203125 58.421875 27.144531 58.339844 27.148438 C 58.265625 27.152344 58.210938 27.214844 58.214844 27.285156 C 58.21875 27.320312 58.21875 27.351562 58.21875 27.382812 C 58.21875 27.453125 58.214844 27.515625 58.210938 27.578125 C 58.191406 27.734375 58.144531 27.863281 58.039062 27.953125 C 58.035156 27.957031 58.035156 27.957031 58.035156 27.957031 C 57.683594 28.25 57.140625 28.269531 56.660156 28.285156 L 56.476562 28.292969 C 56.117188 28.308594 55.765625 28.339844 55.421875 28.378906 C 54.691406 28.46875 53.996094 28.613281 53.328125 28.808594 C 52.605469 28.375 51.925781 27.914062 51.582031 27.644531 C 47.414062 24.359375 45.984375 18.136719 45.847656 17.503906 C 46.636719 16.394531 50.703125 15.734375 51.273438 15.644531 L 53.890625 18.351562 C 53.90625 18.238281 53.921875 18.132812 53.9375 18.023438 L 51.855469 15.875 L 51.601562 15.617188 L 51.414062 15.417969 C 51.378906 15.390625 51.339844 15.371094 51.296875 15.382812 C 51.265625 15.386719 51.089844 15.414062 50.820312 15.457031 C 50.734375 15.472656 50.636719 15.488281 50.523438 15.507812 C 49.621094 15.671875 48.105469 15.996094 46.972656 16.472656 C 46.855469 16.179688 46.785156 16.011719 46.785156 16 C 46.769531 15.957031 46.734375 15.933594 46.691406 15.921875 L 46.695312 15.917969 C 46.675781 15.914062 46.65625 15.90625 46.636719 15.902344 C 45.972656 15.707031 45.144531 15.097656 44.964844 14.488281 C 44.933594 14.386719 44.847656 14.238281 44.699219 14.007812 C 44.585938 13.824219 44.375 13.484375 44.367188 13.378906 C 44.53125 13.171875 44.683594 13.164062 44.785156 13.179688 C 44.964844 13.199219 45.144531 13.316406 45.285156 13.414062 C 45.371094 13.464844 45.441406 13.511719 45.480469 13.523438 C 45.484375 13.53125 45.960938 13.832031 46.195312 14.15625 L 46.296875 14.085938 L 46.332031 14.0625 C 46.738281 14.136719 47.148438 14.214844 47.550781 14.292969 C 48.359375 14.445312 49.148438 14.59375 49.847656 14.714844 C 49.984375 14.742188 50.121094 14.765625 50.25 14.785156 C 51.054688 14.921875 51.714844 15.011719 52.097656 15.011719 C 52.242188 15.011719 52.570312 15.011719 52.589844 14.785156 C 52.613281 14.476562 52.082031 14.164062 49.84375 13.726562 C 49.695312 12.949219 49.386719 12.566406 49.128906 12.378906 C 48.90625 12.222656 48.648438 12.164062 48.40625 12.207031 C 48.246094 12.035156 47.777344 11.617188 47.042969 11.84375 C 46.925781 11.746094 46.65625 11.558594 46.316406 11.558594 C 46.316406 11.558594 46.316406 11.558594 46.3125 11.558594 C 46.070312 11.558594 45.84375 11.660156 45.632812 11.847656 C 45.386719 11.71875 45.167969 11.664062 44.980469 11.683594 C 44.796875 11.703125 44.644531 11.789062 44.527344 11.933594 C 44.480469 11.984375 44.339844 12.113281 44.1875 12.25 C 43.949219 12.457031 43.773438 12.621094 43.636719 12.757812 C 42.792969 12.648438 42.070312 12.570312 41.628906 12.570312 C 41.605469 12.570312 41.582031 12.574219 41.5625 12.574219 C 41.449219 12.574219 41.347656 12.582031 41.261719 12.597656 C 41.097656 12.414062 40.53125 11.84375 39.949219 11.84375 C 39.890625 11.84375 39.832031 11.851562 39.777344 11.859375 C 39.097656 12 38.175781 12.488281 38.136719 12.511719 C 38.101562 12.53125 38.074219 12.566406 38.070312 12.609375 C 38.070312 12.617188 38.074219 12.621094 38.074219 12.628906 C 38.074219 12.664062 38.085938 12.695312 38.113281 12.71875 C 38.148438 12.753906 39.050781 13.570312 40.019531 13.578125 L 40.03125 13.578125 C 40.058594 13.578125 40.085938 13.578125 40.113281 13.574219 C 40.292969 13.566406 40.875 13.5 41.238281 13.066406 C 41.308594 13.097656 41.394531 13.128906 41.503906 13.160156 C 41.949219 13.292969 42.75 13.4375 44.074219 13.664062 C 44.117188 13.671875 44.164062 13.679688 44.210938 13.6875 C 44.273438 13.8125 44.367188 13.964844 44.480469 14.144531 C 44.582031 14.308594 44.691406 14.488281 44.714844 14.558594 C 44.828125 14.945312 45.152344 15.320312 45.539062 15.617188 C 45.664062 15.710938 45.796875 15.796875 45.929688 15.875 C 46.140625 15.996094 46.359375 16.089844 46.5625 16.148438 C 46.589844 16.226562 46.648438 16.371094 46.730469 16.578125 C 46.210938 16.820312 45.796875 17.097656 45.597656 17.414062 C 45.582031 17.4375 45.574219 17.472656 45.582031 17.507812 C 45.589844 17.550781 46.175781 20.417969 47.800781 23.382812 C 47.847656 23.46875 47.898438 23.554688 47.945312 23.640625 C 48.808594 25.160156 49.945312 26.683594 51.421875 27.847656 C 51.691406 28.0625 52.304688 28.480469 53 28.910156 C 51.691406 29.339844 50.519531 29.988281 49.480469 30.851562 C 49.429688 30.894531 49.375 30.9375 49.324219 30.980469 C 48.832031 31.40625 48.261719 32.203125 47.671875 33.195312 C 47.628906 33.269531 47.585938 33.347656 47.539062 33.421875 C 45.484375 36.976562 43.214844 42.761719 42.902344 43.566406 L 38.75 43.710938 L 38.5625 43.714844 L 36.945312 43.769531 L 34.964844 43.839844 C 34.917969 43.839844 34.871094 43.875 34.851562 43.917969 C 34.835938 43.957031 34.765625 44.140625 34.671875 44.433594 C 34.644531 44.511719 34.621094 44.601562 34.589844 44.695312 C 34.355469 45.5 34.066406 46.8125 34.226562 48.027344 C 34.183594 48.039062 34.15625 48.0625 34.140625 48.101562 C 34.117188 48.167969 34.148438 48.242188 34.214844 48.269531 C 34.21875 48.269531 34.234375 48.277344 34.257812 48.289062 C 34.261719 48.289062 34.265625 48.289062 34.269531 48.289062 C 34.417969 49.085938 34.785156 49.8125 35.515625 50.300781 C 35.53125 50.3125 35.550781 50.320312 35.570312 50.320312 C 35.578125 50.320312 35.59375 50.320312 35.605469 50.324219 C 36.125 50.378906 41.539062 50.929688 44.75 50.929688 C 45.59375 50.929688 46.28125 50.890625 46.691406 50.796875 C 47.570312 50.59375 48.144531 50.289062 48.535156 49.910156 C 49.179688 49.285156 49.335938 48.449219 49.507812 47.484375 C 49.570312 47.140625 49.632812 46.785156 49.726562 46.414062 C 49.710938 46.472656 49.65625 46.515625 49.597656 46.515625 C 49.589844 46.515625 49.582031 46.511719 49.574219 46.511719 C 49.511719 46.5 49.46875 46.445312 49.46875 46.382812 C 49.46875 46.375 49.46875 46.367188 49.46875 46.359375 C 49.378906 46.738281 49.316406 47.089844 49.253906 47.433594 C 48.980469 48.953125 48.78125 50.046875 46.632812 50.542969 C 44.730469 50.984375 36.230469 50.128906 35.632812 50.066406 C 33.519531 48.617188 34.84375 44.699219 35.0625 44.09375 L 42.996094 43.824219 C 43.046875 43.820312 43.09375 43.789062 43.113281 43.742188 C 43.15625 43.632812 47.210938 33.148438 49.492188 31.179688 C 51.363281 29.5625 53.71875 28.679688 56.488281 28.554688 L 56.671875 28.546875 C 57.058594 28.53125 57.484375 28.515625 57.847656 28.367188 C 57.949219 28.320312 58.046875 28.269531 58.136719 28.199219 C 59.375 28.734375 60.535156 28.910156 61.523438 28.910156 C 63.382812 28.910156 64.636719 28.292969 64.652344 28.285156 C 64.660156 28.28125 64.667969 28.273438 64.675781 28.269531 C 64.71875 28.230469 64.738281 28.167969 64.710938 28.109375 "/><path style=" stroke:none;fill-rule:nonzero;fill:#100f0d;fill-opacity:1;" d="M 39.820312 11.988281 C 39.152344 12.125 38.210938 12.625 38.210938 12.625 C 38.210938 12.625 38.730469 13.09375 39.390625 13.320312 C 39.394531 13.28125 39.398438 13.238281 39.398438 13.195312 C 39.410156 12.96875 39.433594 12.75 39.609375 12.660156 C 39.871094 12.527344 40.125 12.382812 40.265625 12.171875 C 40.292969 12.128906 40.320312 12.085938 40.335938 12.039062 C 40.167969 11.980469 39.992188 11.953125 39.820312 11.988281 "/><path style=" stroke:none;fill-rule:nonzero;fill:#100f0d;fill-opacity:1;" d="M 48.253906 12.425781 C 48.253906 12.429688 48.253906 12.429688 48.253906 12.429688 L 48.53125 12.777344 C 48.558594 12.808594 48.59375 12.828125 48.632812 12.828125 C 48.660156 12.828125 48.691406 12.816406 48.714844 12.796875 C 48.769531 12.753906 48.78125 12.671875 48.734375 12.617188 L 48.609375 12.457031 L 48.460938 12.269531 C 48.414062 12.214844 48.332031 12.203125 48.277344 12.25 C 48.222656 12.292969 48.210938 12.371094 48.253906 12.425781 "/><path style=" stroke:none;fill-rule:nonzero;fill:#100f0d;fill-opacity:1;" d="M 34.367188 44.554688 C 34.375 44.625 34.324219 44.6875 34.253906 44.695312 C 34.242188 44.695312 34.230469 44.695312 34.222656 44.695312 C 34.226562 44.695312 34.234375 44.695312 34.238281 44.695312 C 34.238281 44.695312 34.238281 44.695312 34.242188 44.695312 L 34.589844 44.691406 C 34.617188 44.597656 34.644531 44.511719 34.671875 44.433594 L 34.351562 44.4375 C 34.355469 44.476562 34.367188 44.511719 34.367188 44.554688 "/><path style=" stroke:none;fill-rule:nonzero;fill:#100f0d;fill-opacity:1;" d="M 34.152344 44.664062 C 34.144531 44.65625 34.140625 44.648438 34.132812 44.640625 C 34.140625 44.648438 34.144531 44.65625 34.152344 44.664062 "/><path style=" stroke:none;fill-rule:nonzero;fill:#100f0d;fill-opacity:1;" d="M 34.117188 44.605469 C 34.117188 44.613281 34.121094 44.617188 34.125 44.625 C 34.121094 44.617188 34.121094 44.613281 34.117188 44.605469 "/><path style=" stroke:none;fill-rule:nonzero;fill:#100f0d;fill-opacity:1;" d="M 34.195312 44.6875 C 34.1875 44.683594 34.179688 44.679688 34.171875 44.675781 C 34.179688 44.679688 34.1875 44.683594 34.195312 44.6875 "/><path style=" stroke:none;fill-rule:nonzero;fill:#100f0d;fill-opacity:1;" d="M 29.625 46.417969 C 29.847656 46.441406 30.304688 46.511719 30.304688 46.511719 L 30.34375 46.253906 C 30.34375 46.253906 30.242188 46.238281 30.113281 46.222656 C 29.964844 46.199219 29.773438 46.175781 29.652344 46.164062 C 29 46.09375 28.238281 45.789062 27.808594 45.535156 C 27.691406 45.46875 27.597656 45.402344 27.515625 45.328125 C 27.480469 45.296875 27.464844 45.265625 27.46875 45.1875 C 27.472656 45.164062 27.480469 45.140625 27.496094 45.117188 C 27.582031 45.007812 27.746094 44.9375 27.921875 44.910156 C 28.039062 45.019531 28.183594 45.097656 28.289062 45.144531 C 28.574219 45.269531 28.824219 45.363281 29.085938 45.4375 C 29.402344 45.527344 29.726562 45.589844 30.140625 45.640625 C 30.210938 45.648438 30.277344 45.660156 30.347656 45.664062 C 30.503906 45.679688 30.667969 45.699219 30.816406 45.734375 C 30.824219 45.734375 30.835938 45.734375 30.84375 45.734375 C 30.902344 45.734375 30.957031 45.695312 30.972656 45.632812 C 30.976562 45.613281 30.972656 45.589844 30.964844 45.566406 C 30.953125 45.527344 30.917969 45.492188 30.875 45.480469 C 30.710938 45.441406 30.539062 45.425781 30.375 45.40625 C 30.308594 45.402344 30.242188 45.394531 30.175781 45.386719 C 29.453125 45.292969 29.003906 45.175781 28.394531 44.910156 C 28.296875 44.867188 27.976562 44.707031 27.976562 44.488281 C 27.976562 44.414062 28.003906 44.382812 28.023438 44.367188 C 28.136719 44.269531 28.445312 44.3125 28.609375 44.335938 C 28.652344 44.34375 28.691406 44.347656 28.71875 44.351562 C 29.175781 44.402344 29.617188 44.460938 30.066406 44.515625 C 30.523438 44.578125 30.992188 44.636719 31.5 44.695312 C 32.078125 44.761719 32.394531 44.707031 32.5625 44.507812 C 32.75 44.285156 32.679688 43.933594 32.585938 43.617188 C 32.546875 43.488281 32.484375 43.34375 32.417969 43.195312 C 32.3125 42.949219 32.203125 42.699219 32.179688 42.484375 C 32.160156 42.273438 32.230469 42.148438 32.414062 42.070312 C 32.5625 42.003906 32.726562 42.175781 32.8125 42.285156 C 32.949219 42.460938 33.105469 42.636719 33.296875 42.832031 C 33.511719 43.050781 34.023438 43.664062 34.109375 44.578125 C 34.113281 44.589844 34.117188 44.597656 34.117188 44.605469 C 34.121094 44.613281 34.121094 44.617188 34.125 44.625 C 34.128906 44.628906 34.132812 44.636719 34.132812 44.640625 C 34.140625 44.648438 34.148438 44.65625 34.152344 44.664062 C 34.160156 44.667969 34.167969 44.671875 34.171875 44.675781 C 34.179688 44.679688 34.1875 44.683594 34.195312 44.6875 C 34.203125 44.691406 34.210938 44.691406 34.222656 44.695312 C 34.230469 44.695312 34.242188 44.695312 34.253906 44.695312 C 34.324219 44.6875 34.375 44.625 34.371094 44.554688 C 34.367188 44.511719 34.355469 44.476562 34.351562 44.4375 C 34.222656 43.507812 33.707031 42.882812 33.484375 42.652344 C 33.449219 42.617188 33.425781 42.589844 33.394531 42.554688 C 33.292969 42.449219 33.199219 42.34375 33.113281 42.242188 C 33.082031 42.203125 33.046875 42.164062 33.015625 42.125 C 32.984375 42.085938 32.953125 42.050781 32.921875 42.019531 C 32.722656 41.8125 32.507812 41.746094 32.308594 41.832031 C 32.21875 41.871094 32.125 41.933594 32.050781 42.023438 C 31.996094 42.089844 31.953125 42.175781 31.933594 42.28125 C 31.917969 42.347656 31.914062 42.425781 31.921875 42.511719 C 31.949219 42.765625 32.070312 43.046875 32.179688 43.296875 C 32.246094 43.441406 32.304688 43.578125 32.339844 43.691406 C 32.441406 44.035156 32.449219 44.242188 32.363281 44.34375 C 32.328125 44.386719 32.265625 44.417969 32.175781 44.4375 C 32.035156 44.472656 31.820312 44.472656 31.53125 44.4375 C 31.023438 44.378906 30.558594 44.320312 30.101562 44.261719 C 29.648438 44.203125 29.207031 44.144531 28.746094 44.09375 C 28.71875 44.089844 28.6875 44.085938 28.648438 44.078125 C 28.410156 44.046875 28.054688 43.996094 27.851562 44.171875 C 27.84375 44.179688 27.832031 44.191406 27.824219 44.199219 C 27.769531 44.257812 27.71875 44.347656 27.71875 44.488281 C 27.71875 44.558594 27.734375 44.621094 27.761719 44.683594 C 27.574219 44.730469 27.398438 44.820312 27.289062 44.960938 C 27.242188 45.023438 27.214844 45.09375 27.210938 45.167969 C 27.203125 45.261719 27.210938 45.402344 27.34375 45.523438 C 27.4375 45.601562 27.542969 45.679688 27.664062 45.753906 C 27.667969 45.753906 27.671875 45.757812 27.675781 45.757812 C 27.777344 45.816406 27.894531 45.878906 28.023438 45.941406 C 28.480469 46.15625 29.085938 46.363281 29.625 46.417969 "/><path style=" stroke:none;fill-rule:nonzero;fill:#100f0d;fill-opacity:1;" d="M 49.820312 45.898438 L 50.726562 41.011719 C 50.738281 40.9375 50.691406 40.871094 50.621094 40.859375 C 50.546875 40.84375 50.480469 40.890625 50.46875 40.964844 L 49.46875 46.359375 C 49.457031 46.429688 49.503906 46.496094 49.574219 46.511719 C 49.582031 46.511719 49.589844 46.511719 49.597656 46.511719 C 49.65625 46.511719 49.710938 46.46875 49.722656 46.410156 C 49.722656 46.40625 49.722656 46.40625 49.726562 46.40625 L 49.820312 45.898438 "/></g></svg>