<svg xmlns="http://www.w3.org/2000/svg" xmlns:xlink="http://www.w3.org/1999/xlink" width="247" zoomAndPan="magnify" viewBox="0 0 185.25 112.499997" height="150" preserveAspectRatio="xMidYMid meet" version="1.2"><defs><clipPath id="68cd9dfd80"><path d="M 0.0351562 1 L 102 1 L 102 91 L 0.0351562 91 Z M 0.0351562 1 "/></clipPath><clipPath id="79c6e679ce"><path d="M 0.0351562 1 L 102 1 L 102 91 L 0.0351562 91 Z M 0.0351562 1 "/></clipPath><clipPath id="2e9ef0d5dd"><path d="M 32.253906 89.851562 L 93.121094 89.851562 L 93.121094 112.003906 L 32.253906 112.003906 Z M 32.253906 89.851562 "/></clipPath></defs><g id="be169fd9e0"><path style=" stroke:none;fill-rule:nonzero;fill:#ffffff;fill-opacity:1;" d="M 92.78125 96.175781 L 71.0625 90.277344 C 70.347656 90.222656 69.625 90.195312 68.90625 90.195312 C 57.867188 90.195312 51.488281 96.769531 50.800781 97.515625 L 50.683594 97.640625 L 50.523438 97.597656 C 48.941406 97.171875 47.167969 96.953125 45.25 96.953125 C 39.015625 96.953125 33.207031 99.183594 32.558594 99.441406 L 34.832031 100.480469 L 34.296875 100.734375 C 33.359375 101.179688 32.820312 101.511719 32.617188 101.671875 L 34.636719 102.597656 L 34.164062 102.863281 C 33.082031 103.46875 32.71875 103.753906 32.597656 103.867188 L 49.753906 111.730469 C 53.464844 106.328125 60.761719 105.195312 66.226562 105.195312 C 70.335938 105.195312 73.714844 105.820312 74.691406 106.023438 C 89.5 101.222656 92.652344 100.609375 92.78125 100.582031 L 89.902344 99.800781 L 90.605469 99.488281 C 92.289062 98.726562 92.773438 98.386719 92.78125 98.378906 L 90.605469 97.785156 L 91.125 97.453125 C 92.394531 96.636719 92.773438 96.191406 92.78125 96.175781 "/><g clip-rule="nonzero" clip-path="url(#68cd9dfd80)"><path style=" stroke:none;fill-rule:nonzero;fill:#ffffff;fill-opacity:1;" d="M 41.261719 87.722656 L 41.328125 87.710938 L 41.585938 87.789062 C 41.585938 87.789062 42.28125 88.195312 42.578125 88.367188 C 43.621094 88.957031 44.433594 89.332031 45.898438 89.90625 C 46.597656 90.136719 47.890625 90.203125 47.9375 90.203125 C 47.949219 90.207031 48.929688 90.339844 50.28125 90.339844 C 51.539062 90.339844 52.648438 90.222656 53.605469 89.988281 C 53.957031 89.941406 54.636719 89.75 54.699219 89.347656 C 54.738281 89.058594 54.640625 88.765625 54.402344 88.53125 L 54.03125 88.160156 C 54.03125 88.160156 55.019531 87.980469 55.136719 87.957031 C 55.226562 87.929688 55.320312 87.910156 55.414062 87.886719 L 55.503906 87.867188 C 55.902344 87.78125 56.449219 87.660156 56.777344 87.320312 L 56.890625 87.199219 L 62.667969 88.78125 C 63.363281 88.96875 64.28125 89.074219 65.253906 89.074219 C 66.273438 89.074219 67.238281 88.960938 67.972656 88.753906 L 85.046875 83.902344 C 86.484375 83.496094 87.699219 82.570312 87.699219 81.882812 C 87.699219 81.09375 86.28125 80.402344 84.96875 80.210938 L 83.1875 79.949219 L 85.007812 77.242188 C 85.773438 76.101562 90.644531 69.164062 92.480469 66.554688 L 93.144531 65.613281 L 93.296875 65.625 C 93.375 65.628906 93.476562 65.632812 93.597656 65.632812 C 94.222656 65.632812 95.128906 65.511719 95.925781 64.921875 L 99.980469 61.96875 L 99.992188 61.949219 L 100.027344 61.925781 C 100.730469 61.394531 101.519531 60.65625 101.359375 59.664062 C 101.261719 59.085938 100.96875 58.8125 100.523438 58.5625 L 100.425781 58.507812 L 100.394531 58.398438 C 99.996094 57 99.121094 56.597656 98.761719 56.488281 L 98.609375 56.445312 L 98.574219 56.289062 C 98.265625 54.960938 96.84375 54.765625 96.679688 54.75 L 96.566406 54.734375 L 96.492188 54.644531 C 96.035156 54.050781 95.496094 53.753906 94.886719 53.753906 C 94.535156 53.753906 94.226562 53.851562 94.03125 53.9375 L 93.65625 54.097656 L 93.648438 53.6875 C 93.589844 50.976562 93.410156 48.148438 93.25 45.652344 L 93.230469 45.300781 C 93.1875 44.640625 93.144531 43.996094 93.109375 43.363281 C 93.089844 42.976562 92.824219 42.738281 92.414062 42.738281 C 92.144531 42.738281 91.878906 42.847656 91.707031 43.035156 C 91.550781 43.203125 91.480469 43.402344 91.5 43.632812 C 91.667969 45.96875 91.75 48.085938 91.832031 50.136719 L 91.847656 50.515625 C 91.90625 51.96875 91.964844 53.457031 92.050781 55.015625 L 92.054688 55.136719 L 91.972656 55.226562 C 91.75 55.449219 91.515625 55.667969 91.277344 55.886719 C 90.792969 56.335938 90.292969 56.800781 89.921875 57.332031 C 89.394531 58.085938 89 58.976562 88.621094 59.832031 L 88.550781 59.996094 C 88.34375 60.453125 87.667969 60.875 87.074219 61.246094 C 86.863281 61.378906 86.667969 61.496094 86.535156 61.597656 L 79.015625 67.273438 C 78.382812 67.75 77.761719 68.265625 77.101562 68.8125 C 75.90625 69.800781 74.667969 70.824219 73.371094 71.585938 L 73.304688 71.625 C 73.304688 71.625 73.222656 71.625 73.21875 71.625 C 72.984375 71.625 72.921875 71.589844 71.910156 68.738281 C 71.425781 67.375 70.929688 65.925781 70.847656 65.65625 C 70.445312 64.351562 70.023438 63.0625 69.601562 61.765625 C 69.417969 61.214844 69.238281 60.660156 69.058594 60.105469 C 68.699219 59.007812 68.359375 57.902344 68.019531 56.796875 C 67.230469 54.238281 66.417969 51.597656 65.390625 49.078125 C 64.066406 45.839844 62.578125 43.703125 60.5625 42.144531 C 58.417969 40.488281 55.84375 39.296875 52.691406 38.507812 C 51.640625 38.238281 50.480469 38.039062 49.152344 37.886719 L 48.425781 37.800781 L 49.027344 37.386719 C 51.152344 35.917969 52.980469 33.472656 54.464844 30.117188 C 55 28.902344 55.445312 27.621094 55.785156 26.300781 L 55.855469 26.039062 L 56.117188 26.101562 C 56.335938 26.152344 56.546875 26.179688 56.753906 26.179688 C 58.984375 26.179688 60.132812 23.003906 60.359375 20.875 C 60.71875 17.488281 59.917969 13.550781 58.109375 9.789062 C 56.589844 6.628906 54.035156 4.4375 50.292969 3.089844 C 50.148438 3.039062 49.980469 2.976562 49.792969 2.902344 C 48.835938 2.535156 47.390625 1.980469 46.253906 1.980469 C 45.644531 1.980469 45.21875 2.132812 44.949219 2.453125 L 44.828125 2.597656 L 44.648438 2.539062 C 43.554688 2.164062 42.410156 1.972656 41.242188 1.972656 C 34.433594 1.972656 28.929688 8.097656 27.40625 9.976562 C 25.109375 12.796875 23.804688 15.371094 23.410156 17.839844 C 23.183594 19.253906 23.476562 20.621094 24.199219 21.503906 C 24.746094 22.171875 25.492188 22.53125 26.421875 22.570312 L 26.667969 22.582031 L 26.683594 22.824219 C 26.925781 25.796875 28.164062 28.777344 30.589844 32.195312 L 30.640625 32.265625 L 30.640625 32.347656 C 30.644531 32.707031 30.664062 33.070312 30.679688 33.433594 C 30.722656 34.359375 30.765625 35.316406 30.621094 36.226562 C 30.546875 36.730469 30.167969 37.117188 29.457031 37.390625 L 27.871094 37.746094 C 27.210938 37.824219 26.449219 37.859375 25.460938 37.859375 C 25.117188 37.859375 24.789062 37.855469 24.496094 37.851562 C 24.253906 37.847656 24.035156 37.84375 23.84375 37.84375 C 23.683594 37.84375 23.546875 37.847656 23.433594 37.851562 C 18.542969 38.109375 14.515625 39.253906 11.125 41.359375 C 7.429688 43.644531 4.75 46.847656 2.9375 51.152344 C 1.363281 54.886719 0.425781 59.449219 0.371094 63.664062 C 0.371094 66.113281 0.410156 69.738281 0.757812 72.953125 C 1.132812 76.332031 1.761719 78.675781 2.679688 80.113281 C 3.980469 82.125 5.351562 83.535156 7.125 84.683594 C 7.664062 85.039062 8.246094 85.367188 8.898438 85.6875 C 9.433594 85.925781 9.988281 86.164062 10.558594 86.40625 C 11.726562 86.898438 13.269531 87.507812 14.8125 87.816406 C 17.875 88.347656 21.605469 88.621094 25.894531 88.621094 C 30.445312 88.621094 35.597656 88.320312 41.183594 87.734375 L 41.261719 87.722656 "/></g><path style=" stroke:none;fill-rule:nonzero;fill:#ffffff;fill-opacity:1;" d="M 107.855469 90.285156 L 114.671875 85.902344 L 91.730469 85.066406 L 88.402344 87.140625 L 84.328125 86.300781 L 77.449219 89.117188 L 99.363281 94.128906 L 106.808594 90.949219 L 105.597656 90.703125 L 105.667969 90.15625 L 107.855469 90.285156 "/><path style=" stroke:none;fill-rule:nonzero;fill:#100f0d;fill-opacity:1;" d="M 70.429688 81.304688 L 63.414062 80.148438 L 58.921875 80.863281 L 66.386719 82.097656 L 70.429688 81.304688 "/><g clip-rule="nonzero" clip-path="url(#79c6e679ce)"><path style=" stroke:none;fill-rule:nonzero;fill:#100f0d;fill-opacity:1;" d="M 24.285156 47.261719 C 24.1875 47.972656 24.1875 47.972656 23.640625 47.675781 C 23.859375 47.53125 24.039062 47.417969 24.285156 47.261719 Z M 26.714844 77.402344 C 26.527344 77.351562 26.335938 77.300781 26.148438 77.253906 C 26.082031 76.910156 26.128906 76.582031 26.4375 76.199219 C 26.582031 76.628906 26.796875 77.003906 26.714844 77.402344 Z M 29.054688 51.414062 C 28.800781 51.519531 28.542969 51.617188 28.109375 51.789062 C 28.234375 51.320312 28.304688 51.074219 28.402344 50.730469 C 28.664062 50.890625 28.851562 51 29.039062 51.117188 Z M 28.855469 47.144531 C 28.851562 47.070312 28.839844 47.003906 28.832031 46.933594 C 29 46.910156 29.164062 46.890625 29.332031 46.863281 C 29.34375 46.933594 29.351562 47 29.359375 47.070312 C 29.195312 47.09375 29.027344 47.113281 28.855469 47.144531 Z M 14.863281 87.546875 C 12.871094 87.144531 10.820312 86.238281 9.019531 85.441406 C 6.398438 84.160156 4.566406 82.523438 2.910156 79.96875 C 0.90625 76.8125 0.644531 69.621094 0.644531 63.699219 L 0.644531 63.664062 C 0.675781 61.496094 0.9375 59.207031 1.421875 56.96875 C 1.902344 54.734375 2.601562 52.542969 3.5 50.554688 C 5.660156 45.789062 9.21875 42.3125 13.988281 40.128906 C 17.53125 38.503906 21.371094 38.230469 25.199219 38.058594 C 25.199219 40.800781 27.964844 42.914062 30.457031 43.851562 C 23.636719 45.78125 16.84375 51.789062 15.746094 58.929688 L 15.746094 58.953125 C 15.746094 58.960938 15.734375 58.972656 15.734375 58.988281 C 15.734375 58.988281 15.601562 62.667969 15.480469 66.617188 C 15.464844 67.191406 15.460938 67.75 15.453125 68.285156 C 15.449219 70.15625 15.519531 71.734375 15.574219 72.863281 C 15.597656 73.3125 15.613281 73.679688 15.621094 73.960938 C 15.628906 74.339844 15.640625 74.914062 28.929688 78.242188 C 35.398438 79.867188 41.945312 81.359375 42.011719 81.375 C 42.101562 81.398438 42.195312 81.371094 42.261719 81.304688 L 42.359375 81.214844 C 42.90625 80.769531 43.582031 80.445312 44.328125 80.273438 C 45.484375 80.015625 46.859375 79.988281 48.550781 80.199219 C 49.351562 80.296875 50.027344 80.355469 50.683594 80.386719 C 51.421875 80.421875 51.941406 80.605469 52.027344 80.863281 C 52.101562 81.066406 52.054688 81.171875 52 81.238281 C 51.820312 81.480469 51.097656 81.847656 48.355469 81.652344 L 48.226562 81.644531 C 48.203125 81.640625 48.183594 81.644531 48.167969 81.652344 C 48.15625 81.652344 48.144531 81.652344 48.132812 81.65625 C 48.035156 81.679688 47.960938 81.757812 47.941406 81.855469 C 47.941406 81.867188 47.933594 81.871094 47.933594 81.882812 C 47.933594 81.886719 47.933594 81.886719 47.933594 81.894531 L 47.929688 81.898438 C 47.929688 81.914062 47.933594 81.925781 47.933594 81.941406 C 47.941406 81.964844 47.941406 81.980469 47.945312 81.996094 C 47.949219 82.015625 47.957031 82.03125 47.96875 82.046875 C 47.980469 82.0625 47.984375 82.082031 47.996094 82.089844 C 48.007812 82.109375 48.015625 82.113281 48.035156 82.125 C 48.046875 82.136719 48.0625 82.152344 48.070312 82.15625 C 48.089844 82.167969 48.109375 82.167969 48.128906 82.175781 C 48.144531 82.179688 48.15625 82.191406 48.171875 82.191406 C 49.289062 82.339844 50.691406 82.371094 52.042969 82.398438 C 53.210938 82.425781 54.320312 82.457031 55.238281 82.546875 C 55.988281 82.621094 56.257812 82.785156 56.347656 82.90625 C 56.378906 82.945312 56.40625 83 56.386719 83.105469 C 56.296875 83.566406 55.570312 83.765625 55.351562 83.816406 C 55.078125 83.875 54.808594 83.917969 54.535156 83.953125 C 54.089844 83.980469 53.648438 84.007812 53.210938 84.039062 L 52.933594 84.058594 C 52.238281 84.0625 51.546875 84.03125 50.910156 83.984375 C 50.773438 83.980469 50.628906 83.964844 50.492188 83.953125 C 50.136719 83.925781 49.78125 83.890625 49.421875 83.902344 C 49.265625 83.910156 49.152344 84.035156 49.152344 84.183594 C 49.15625 84.339844 49.289062 84.449219 49.4375 84.453125 C 49.761719 84.441406 50.105469 84.46875 50.441406 84.503906 C 50.589844 84.515625 50.734375 84.523438 50.875 84.535156 C 51.480469 84.574219 52.132812 84.613281 52.800781 84.613281 C 52.835938 84.613281 52.882812 84.609375 52.921875 84.609375 C 52.925781 84.609375 52.929688 84.613281 52.9375 84.613281 L 52.976562 84.609375 C 53.5 84.601562 54.03125 84.574219 54.5625 84.503906 C 55.085938 84.476562 55.613281 84.460938 56.132812 84.460938 C 56.523438 84.464844 56.804688 84.730469 56.832031 85.082031 C 56.820312 85.246094 56.777344 85.765625 55.628906 85.949219 C 55.164062 86.0625 54.671875 86.132812 54.171875 86.183594 L 54.152344 86.183594 C 54.152344 86.183594 54.152344 86.183594 54.148438 86.183594 C 52.617188 86.324219 50.957031 86.230469 49.566406 86.160156 C 49.410156 86.144531 49.277344 86.265625 49.273438 86.417969 C 49.261719 86.566406 49.378906 86.699219 49.53125 86.703125 C 50.40625 86.753906 51.378906 86.808594 52.363281 86.808594 C 52.96875 86.808594 53.582031 86.789062 54.175781 86.734375 C 54.777344 86.703125 55.210938 86.644531 55.554688 86.601562 C 55.816406 86.5625 56.042969 86.535156 56.265625 86.527344 C 56.515625 86.507812 56.648438 86.617188 56.703125 86.710938 C 56.765625 86.808594 56.730469 86.914062 56.691406 86.980469 C 56.472656 87.371094 55.949219 87.488281 55.441406 87.597656 C 55.316406 87.625 55.1875 87.652344 55.089844 87.679688 C 52.480469 88.234375 50.363281 88.339844 48.804688 87.984375 C 48.65625 87.949219 48.511719 88.042969 48.472656 88.1875 C 48.441406 88.335938 48.535156 88.484375 48.683594 88.515625 C 49.339844 88.671875 50.070312 88.746094 50.886719 88.746094 C 51.59375 88.746094 52.371094 88.679688 53.199219 88.570312 C 53.210938 88.566406 53.222656 88.570312 53.234375 88.570312 C 53.691406 88.496094 54.039062 88.558594 54.242188 88.757812 C 54.414062 88.929688 54.445312 89.148438 54.425781 89.304688 C 54.394531 89.5 53.898438 89.671875 53.542969 89.722656 C 51.058594 90.328125 47.996094 89.9375 47.945312 89.929688 C 47.929688 89.925781 46.652344 89.863281 46 89.652344 C 44.128906 88.921875 43.367188 88.527344 41.71875 87.546875 C 41.703125 87.535156 41.683594 87.527344 41.660156 87.519531 L 41.410156 87.449219 C 41.378906 87.441406 41.339844 87.4375 41.308594 87.441406 C 33.65625 88.257812 22.859375 88.933594 14.863281 87.546875 Z M 26.960938 22.828125 C 28.554688 22.671875 29.753906 23.496094 31.21875 24 C 31.253906 24.011719 31.28125 24.011719 31.3125 24.011719 C 31.351562 24.074219 31.386719 24.132812 31.429688 24.195312 C 31.695312 24.542969 32.0625 24.84375 32.464844 25.042969 C 32.539062 25.082031 32.613281 25.109375 32.6875 25.136719 C 32.753906 26.585938 33.226562 29.046875 30.96875 28.367188 C 30.773438 28.3125 30.554688 28.511719 30.625 28.710938 C 30.96875 29.652344 31.144531 30.890625 30.675781 31.832031 C 28.382812 28.554688 27.195312 25.675781 26.960938 22.828125 Z M 26.660156 22.304688 L 26.578125 22.304688 C 22.929688 22.304688 23.410156 18.035156 24.273438 15.683594 C 25.207031 13.152344 26.917969 10.867188 28.703125 8.875 C 32.554688 4.585938 38.894531 0.742188 44.761719 2.859375 C 44.894531 2.910156 45 2.851562 45.054688 2.757812 C 45.058594 2.75 45.066406 2.746094 45.070312 2.734375 C 45.851562 1.429688 49.582031 3.125 50.652344 3.511719 C 53.78125 4.640625 56.082031 6.625 57.667969 9.535156 C 59.132812 12.210938 59.863281 15.34375 60.144531 18.351562 C 60.359375 20.636719 59.65625 26.667969 56.1875 25.847656 C 56.414062 24.894531 56.589844 23.925781 56.710938 22.957031 C 56.765625 22.894531 56.769531 22.8125 56.738281 22.71875 C 56.992188 20.566406 56.984375 18.398438 56.710938 16.316406 C 56.621094 15.660156 56.492188 15.050781 56.304688 14.4375 C 56.304688 14.425781 56.296875 14.421875 56.292969 14.417969 C 56.285156 14.394531 56.273438 14.371094 56.257812 14.355469 C 56.257812 14.351562 56.253906 14.34375 56.253906 14.339844 C 56.21875 14.296875 56.164062 14.261719 56.097656 14.25 C 56.082031 14.25 56.070312 14.246094 56.054688 14.246094 C 56.050781 14.246094 56.050781 14.246094 56.042969 14.246094 L 55.945312 14.246094 C 52.621094 14.355469 46.910156 14.085938 45.351562 10.613281 C 44.761719 9.402344 44.503906 8.089844 44.503906 6.769531 C 44.503906 6.433594 44.519531 6.101562 44.550781 5.773438 C 44.628906 4.9375 44.792969 4.105469 45.046875 3.300781 C 45.15625 2.960938 44.625 2.816406 44.519531 3.15625 C 44.25 4 44.078125 4.875 44 5.75 C 43.847656 7.464844 44.082031 9.191406 44.828125 10.773438 C 44.824219 10.785156 44.8125 10.792969 44.8125 10.8125 C 44.304688 13.179688 43.4375 15.425781 42.019531 17.402344 C 40.695312 19.238281 37.199219 22.058594 35.203125 19.511719 C 35.132812 19.417969 35.039062 19.398438 34.957031 19.425781 C 33.996094 19.097656 32.9375 19.367188 32.105469 20.183594 C 31.214844 21.058594 30.820312 22.289062 31.054688 23.347656 C 30.285156 23.050781 29.558594 22.660156 28.773438 22.390625 C 28.167969 22.179688 27.503906 22.203125 26.863281 22.285156 C 26.796875 22.289062 26.726562 22.296875 26.660156 22.304688 Z M 31.21875 72.210938 C 31.054688 72.417969 30.890625 72.621094 30.730469 72.832031 C 30.667969 72.785156 30.609375 72.742188 30.546875 72.699219 C 30.6875 72.472656 30.820312 72.242188 30.957031 72.011719 C 31.042969 72.078125 31.132812 72.144531 31.21875 72.210938 Z M 56.027344 23.847656 C 55.90625 24.5625 55.769531 25.273438 55.59375 25.972656 C 55.238281 27.378906 54.777344 28.730469 54.214844 30.007812 C 52.613281 33.632812 50.628906 36.140625 48.296875 37.523438 C 48.226562 37.519531 48.15625 37.511719 48.078125 37.511719 C 47.214844 38.015625 46.28125 38.40625 45.3125 38.640625 C 44.960938 38.703125 44.605469 38.753906 44.242188 38.773438 C 42.695312 38.867188 40.730469 38.53125 39.242188 37.929688 C 39.121094 37.882812 38.988281 37.925781 38.917969 38.03125 C 38.90625 38.046875 38.890625 38.0625 38.882812 38.082031 C 38.828125 38.222656 38.894531 38.382812 39.03125 38.4375 C 40.0625 38.855469 41.308594 39.148438 42.503906 39.273438 C 41.488281 40.765625 39.539062 41.550781 37.632812 41.4375 C 35.230469 41.296875 30.996094 39.644531 30.5 36.953125 C 30.71875 36.6875 30.878906 36.355469 30.945312 35.933594 C 31.121094 34.84375 30.949219 33.617188 30.921875 32.496094 L 30.910156 32.496094 L 30.929688 32.480469 C 31.347656 31.925781 31.511719 31.21875 31.511719 30.5 C 31.511719 29.992188 31.429688 29.480469 31.304688 29.011719 C 33.578125 29.398438 33.292969 26.828125 33.230469 25.039062 C 33.226562 24.882812 33.121094 24.800781 33.003906 24.777344 C 32.988281 24.769531 32.972656 24.757812 32.957031 24.75 C 32.855469 24.71875 32.757812 24.683594 32.65625 24.628906 C 32.171875 24.394531 31.722656 23.957031 31.566406 23.535156 C 31.226562 22.59375 31.566406 21.382812 32.414062 20.554688 C 33.148438 19.835938 34.007812 19.703125 34.851562 19.964844 L 34.855469 19.964844 C 34.863281 19.972656 34.871094 19.964844 34.878906 19.964844 C 36.589844 22.042969 39.460938 20.683594 41.109375 19.230469 C 43.324219 17.28125 44.542969 14.328125 45.214844 11.5 C 47.1875 14.578125 52.511719 14.902344 55.828125 14.800781 C 55.976562 15.316406 56.089844 15.835938 56.164062 16.386719 C 56.414062 18.253906 56.433594 20.191406 56.25 22.128906 C 55.96875 21.898438 55.601562 21.695312 55.234375 21.589844 C 54.210938 21.179688 52.667969 21.546875 52.738281 22.03125 C 52.789062 22.453125 53.929688 22.296875 54.714844 22.609375 C 55.253906 22.773438 55.746094 23.003906 56.136719 23.066406 C 56.105469 23.324219 56.066406 23.589844 56.027344 23.847656 Z M 93.578125 61.136719 C 93.554688 62.289062 93.445312 63.085938 93.25 63.214844 C 93.007812 63.007812 92.800781 61.847656 92.652344 60.367188 C 92.878906 60.382812 93.113281 60.398438 93.34375 60.398438 C 93.421875 60.398438 93.5 60.394531 93.570312 60.390625 C 93.519531 60.664062 93.511719 60.921875 93.578125 61.136719 Z M 58.59375 41.128906 C 65.523438 45.121094 66.78125 54.105469 69.089844 61.078125 C 69.707031 62.9375 70.296875 64.800781 70.878906 66.671875 C 71.171875 67.617188 71.484375 68.554688 71.828125 69.484375 C 72.046875 70.09375 72.351562 71.378906 72.824219 71.855469 C 73.464844 72.496094 75.816406 70.078125 76.277344 69.6875 C 79.441406 67.023438 82.929688 64.660156 86.234375 62.171875 C 87.105469 61.511719 88.4375 60.902344 88.898438 59.875 C 89.402344 58.777344 89.90625 57.582031 90.8125 56.753906 C 91.15625 56.441406 91.496094 56.105469 91.824219 55.773438 C 91.839844 56.089844 91.863281 56.410156 91.886719 56.726562 L 91.820312 56.71875 C 91.675781 56.683594 91.527344 56.78125 91.496094 56.929688 C 91.464844 57.074219 91.554688 57.210938 91.699219 57.25 C 91.703125 57.25 91.703125 57.253906 91.707031 57.253906 L 92.054688 57.328125 C 93.164062 57.546875 95.464844 58.015625 95.605469 58.675781 C 95.648438 58.886719 95.410156 59.1875 94.9375 59.519531 C 94.09375 60.109375 91.886719 59.765625 91.101562 59.582031 L 91.097656 59.582031 C 90.945312 59.546875 90.800781 59.640625 90.765625 59.789062 C 90.734375 59.9375 90.824219 60.082031 90.972656 60.117188 C 91.019531 60.128906 91.472656 60.230469 92.078125 60.3125 C 92.253906 62.226562 92.601562 63.769531 93.242188 63.769531 L 93.3125 63.769531 C 93.820312 63.691406 94.046875 62.816406 94.117188 61.660156 C 94.15625 61.671875 94.1875 61.6875 94.238281 61.695312 C 94.269531 61.699219 94.308594 61.699219 94.347656 61.699219 C 94.523438 61.699219 94.722656 61.640625 94.925781 61.539062 C 94.855469 61.742188 94.820312 61.941406 94.84375 62.128906 C 94.867188 62.386719 94.992188 62.605469 95.207031 62.765625 C 95.332031 62.859375 95.476562 62.898438 95.640625 62.898438 C 96.011719 62.898438 96.46875 62.683594 96.953125 62.359375 C 96.941406 62.601562 97.011719 62.855469 97.199219 63.109375 C 97.300781 63.242188 97.433594 63.324219 97.585938 63.375 L 95.761719 64.699219 C 94.632812 65.535156 93.203125 65.339844 93.191406 65.339844 C 93.085938 65.320312 92.980469 65.367188 92.921875 65.449219 C 92.847656 65.554688 85.714844 75.6875 84.777344 77.085938 L 83.054688 79.652344 L 64.246094 76.910156 C 63.519531 76.800781 62.546875 76.742188 61.507812 76.742188 C 61.46875 76.742188 61.429688 76.746094 61.386719 76.746094 C 60.3125 70.765625 58.863281 64.882812 57.582031 58.945312 C 56.921875 51.210938 51.007812 46.382812 44.074219 44.03125 C 45.984375 42.566406 47.375 40.75 47.890625 38.371094 C 48.074219 38.285156 48.242188 38.191406 48.417969 38.089844 C 48.601562 38.101562 48.777344 38.113281 48.945312 38.128906 C 52.308594 38.472656 55.652344 39.441406 58.59375 41.128906 Z M 91.90625 43.222656 C 92.027344 43.089844 92.222656 43.011719 92.414062 43.011719 C 92.5625 43.011719 92.816406 43.058594 92.832031 43.375 C 92.878906 44.125 92.925781 44.890625 92.976562 45.667969 C 93.167969 48.71875 93.367188 51.84375 93.390625 54.816406 C 93.152344 55.457031 92.894531 56.320312 92.722656 56.902344 C 92.628906 56.882812 92.535156 56.863281 92.441406 56.84375 C 92.28125 54.515625 92.195312 52.390625 92.117188 50.335938 C 92.035156 48.214844 91.953125 46.03125 91.773438 43.613281 C 91.765625 43.457031 91.808594 43.328125 91.90625 43.222656 Z M 96.34375 54.898438 C 96.386719 54.972656 96.46875 55.007812 96.550781 55.015625 C 96.613281 55.019531 98.128906 55.113281 98.335938 56.496094 C 98.351562 56.613281 98.445312 56.707031 98.566406 56.726562 C 98.617188 56.734375 99.726562 56.910156 100.160156 58.578125 C 100.175781 58.65625 100.226562 58.714844 100.296875 58.753906 C 100.816406 59.027344 101.011719 59.269531 101.085938 59.707031 C 101.238281 60.648438 100.371094 61.351562 99.464844 61.992188 L 99.328125 62.089844 C 98.902344 62.410156 98.175781 62.941406 97.800781 62.878906 C 97.734375 62.867188 97.6875 62.839844 97.640625 62.785156 C 97.382812 62.425781 97.539062 62.039062 97.855469 61.65625 C 98.816406 60.816406 99.734375 59.777344 100.164062 59.277344 C 100.265625 59.160156 100.246094 58.988281 100.132812 58.890625 C 100.015625 58.792969 99.84375 58.800781 99.746094 58.921875 C 99.34375 59.390625 98.921875 59.847656 98.5 60.277344 C 98.492188 60.285156 98.484375 60.289062 98.472656 60.292969 C 98.414062 60.359375 98.320312 60.445312 98.210938 60.535156 C 97.996094 60.722656 97.722656 60.964844 97.480469 61.242188 C 96.574219 62.039062 95.808594 62.523438 95.53125 62.328125 C 95.445312 62.261719 95.398438 62.183594 95.386719 62.074219 C 95.355469 61.722656 95.652344 61.164062 96.28125 60.414062 C 96.378906 60.300781 96.480469 60.183594 96.589844 60.058594 C 96.648438 59.992188 96.695312 59.941406 96.714844 59.914062 C 96.761719 59.859375 96.78125 59.792969 96.777344 59.730469 C 96.78125 59.792969 96.761719 59.859375 96.71875 59.914062 C 96.695312 59.945312 96.648438 59.996094 96.589844 60.058594 C 96.480469 60.183594 96.378906 60.300781 96.28125 60.414062 C 97.253906 59.375 98.144531 58.015625 98.410156 57.605469 C 98.492188 57.476562 98.453125 57.304688 98.324219 57.222656 C 98.199219 57.144531 98.027344 57.179688 97.945312 57.308594 C 97.9375 57.320312 97.929688 57.332031 97.917969 57.347656 C 97.472656 58.046875 96.890625 58.855469 96.3125 59.550781 C 96.375 59.488281 96.457031 59.464844 96.539062 59.472656 C 96.457031 59.464844 96.375 59.492188 96.316406 59.550781 C 96.308594 59.558594 96.296875 59.558594 96.292969 59.570312 C 96.269531 59.59375 96.230469 59.632812 96.183594 59.695312 C 96.066406 59.820312 95.945312 59.957031 95.828125 60.097656 C 95.21875 60.757812 94.65625 61.203125 94.316406 61.148438 C 94.183594 61.132812 94.136719 61.078125 94.117188 61.027344 C 94.042969 60.878906 94.070312 60.632812 94.148438 60.339844 C 94.570312 60.285156 94.960938 60.171875 95.25 59.96875 C 95.949219 59.484375 96.242188 59.023438 96.144531 58.558594 C 96.070312 58.222656 95.800781 57.949219 95.382812 57.722656 L 95.996094 56.550781 C 96 56.546875 96 56.535156 96 56.527344 L 96.011719 56.535156 C 96.21875 56.054688 96.375 55.660156 96.441406 55.476562 C 96.496094 55.335938 96.425781 55.175781 96.28125 55.121094 C 96.148438 55.070312 96.003906 55.128906 95.945312 55.25 C 95.9375 55.261719 95.933594 55.273438 95.929688 55.28125 C 95.808594 55.597656 95.671875 55.9375 95.515625 56.285156 C 95.507812 56.292969 95.507812 56.292969 95.503906 56.296875 L 94.886719 57.492188 C 94.429688 57.308594 93.875 57.160156 93.261719 57.019531 C 93.570312 55.957031 93.996094 54.632812 94.175781 54.390625 C 94.183594 54.382812 94.1875 54.363281 94.191406 54.355469 C 94.226562 54.289062 94.230469 54.214844 94.210938 54.152344 C 94.695312 53.957031 95.566406 53.824219 96.34375 54.898438 Z M 57.9375 69.457031 C 57.574219 69.738281 57.410156 69.871094 57.207031 70.027344 C 57.113281 69.363281 57.113281 69.363281 57.9375 69.457031 Z M 54.164062 74.394531 C 54.316406 74.085938 54.417969 73.867188 54.523438 73.652344 C 54.921875 74.214844 54.746094 74.394531 54.164062 74.394531 Z M 52.882812 76.824219 C 53.21875 76.585938 53.371094 76.476562 53.625 76.292969 C 53.761719 76.644531 53.867188 76.921875 54.066406 77.441406 C 53.582031 77.1875 53.324219 77.054688 52.882812 76.824219 Z M 51.597656 55.164062 C 52.203125 54.523438 52.492188 54.722656 52.71875 55.226562 C 52.671875 55.351562 52.628906 55.476562 52.585938 55.605469 C 52.292969 55.472656 52.003906 55.347656 51.597656 55.164062 Z M 46.261719 75.574219 C 46.304688 75.628906 46.34375 75.6875 46.382812 75.742188 C 46.199219 75.898438 46.019531 76.050781 45.835938 76.207031 C 45.792969 76.144531 45.75 76.078125 45.703125 76.019531 C 45.890625 75.871094 46.078125 75.722656 46.261719 75.574219 Z M 46.679688 67.816406 C 46.652344 67.898438 46.628906 67.980469 46.605469 68.0625 C 46.402344 68.015625 46.199219 67.964844 45.996094 67.914062 C 46.027344 67.800781 46.058594 67.683594 46.082031 67.566406 C 46.28125 67.652344 46.480469 67.734375 46.679688 67.816406 Z M 49.53125 63.332031 C 49.539062 63.4375 49.539062 63.542969 49.542969 63.648438 C 49.015625 63.757812 48.492188 63.863281 47.890625 63.988281 C 47.644531 63.730469 47.402344 63.476562 47.003906 63.066406 C 48.011719 62.980469 48.789062 62.96875 49.53125 63.332031 Z M 47.207031 58.179688 C 47 58.121094 46.792969 58.058594 46.589844 58 C 46.601562 57.925781 46.613281 57.851562 46.625 57.773438 C 46.84375 57.804688 47.070312 57.839844 47.289062 57.871094 C 47.261719 57.976562 47.234375 58.082031 47.207031 58.179688 Z M 43.714844 62.710938 C 43.714844 63.273438 43.710938 63.617188 43.703125 64.164062 C 43.347656 63.828125 43.152344 63.652344 42.882812 63.398438 C 43.152344 63.179688 43.347656 63.015625 43.714844 62.710938 Z M 42.398438 43.332031 C 42.824219 42.777344 43.132812 42.738281 43.484375 43.019531 C 43.484375 43.140625 43.476562 43.253906 43.476562 43.371094 C 43.175781 43.359375 42.867188 43.347656 42.398438 43.332031 Z M 32.179688 42.386719 C 32.195312 41.167969 32.398438 40.855469 33.507812 40.457031 C 33.523438 40.46875 33.546875 40.480469 33.5625 40.484375 C 33.644531 41.070312 33.710938 41.558594 33.789062 42.109375 C 33.351562 42.660156 32.824219 42.832031 32.179688 42.386719 Z M 36.167969 60.503906 C 35.9375 60.867188 35.820312 61.042969 35.667969 61.285156 C 35.363281 61.148438 35.105469 61.027344 34.84375 60.90625 C 34.851562 60.835938 34.855469 60.761719 34.863281 60.691406 C 35.230469 60.640625 35.59375 60.585938 36.167969 60.503906 Z M 39.148438 66.472656 C 38.90625 66.523438 38.691406 66.566406 38.425781 66.625 C 38.347656 66.375 38.292969 66.1875 38.21875 65.949219 C 38.71875 65.761719 39.042969 65.757812 39.148438 66.472656 Z M 38.074219 51.027344 C 38.34375 50.914062 38.542969 50.832031 38.742188 50.75 C 38.703125 51.464844 38.503906 51.585938 38.074219 51.027344 Z M 38.058594 62.824219 C 38.46875 62.449219 38.730469 62.773438 39.136719 62.960938 C 38.976562 63.242188 38.867188 63.4375 38.679688 63.769531 C 38.386719 63.324219 38.238281 63.097656 38.058594 62.824219 Z M 37.574219 68.144531 C 37.226562 69.179688 37.226562 69.179688 36.261719 68.976562 C 36.257812 68.761719 36.246094 68.539062 36.234375 68.257812 C 36.679688 68.222656 37.066406 68.191406 37.574219 68.144531 Z M 37.183594 65.132812 C 37.457031 64.792969 37.527344 64.660156 37.640625 64.578125 C 37.722656 64.507812 37.84375 64.492188 38.125 64.378906 C 37.972656 64.667969 37.925781 64.835938 37.816406 64.949219 C 37.730469 65.03125 37.574219 65.023438 37.183594 65.132812 Z M 40.449219 80.367188 C 40.320312 80.460938 40.207031 80.554688 40.113281 80.65625 C 40.101562 80.648438 40.085938 80.648438 40.066406 80.644531 C 40.078125 80.363281 40.171875 80.253906 40.449219 80.367188 Z M 31.960938 44.222656 C 31.652344 44.046875 31.929688 43.574219 32.238281 43.75 C 35.417969 45.5625 40.078125 44.796875 43.421875 43.867188 C 43.765625 43.765625 43.914062 44.300781 43.570312 44.394531 C 40.0625 45.371094 35.285156 46.125 31.960938 44.222656 Z M 54.40625 80.394531 C 54.332031 80.386719 54.28125 80.3125 54.292969 80.242188 C 54.304688 80.164062 54.378906 80.113281 54.453125 80.125 L 58.058594 80.722656 L 62.554688 80.003906 L 58.265625 79.292969 C 58.1875 79.285156 58.136719 79.210938 58.148438 79.140625 C 58.160156 79.0625 58.238281 79.015625 58.308594 79.027344 L 63.414062 79.867188 L 66.300781 79.410156 C 66.375 79.398438 66.449219 79.449219 66.460938 79.519531 C 66.472656 79.597656 66.421875 79.667969 66.347656 79.679688 L 64.273438 80.011719 L 71.203125 81.15625 L 74.449219 80.515625 C 74.527344 80.507812 74.597656 80.554688 74.613281 80.625 C 74.625 80.703125 74.582031 80.777344 74.503906 80.792969 L 71.980469 81.28125 L 75.828125 81.914062 C 75.902344 81.933594 75.953125 81.996094 75.941406 82.074219 C 75.929688 82.140625 75.871094 82.191406 75.804688 82.191406 L 75.78125 82.191406 L 71.210938 81.4375 L 67.160156 82.222656 L 71.96875 83.015625 C 72.046875 83.03125 72.097656 83.097656 72.085938 83.175781 C 72.074219 83.242188 72.015625 83.292969 71.949219 83.292969 L 71.925781 83.292969 L 66.390625 82.378906 L 61.765625 83.28125 L 61.746094 83.28125 C 61.679688 83.28125 61.617188 83.238281 61.605469 83.171875 C 61.589844 83.09375 61.640625 83.023438 61.71875 83.011719 L 65.613281 82.246094 L 58.058594 81 L 54.453125 81.574219 C 54.441406 81.578125 54.433594 81.578125 54.429688 81.578125 C 54.363281 81.578125 54.304688 81.53125 54.292969 81.464844 C 54.28125 81.386719 54.332031 81.316406 54.40625 81.304688 L 57.199219 80.859375 Z M 84.933594 80.484375 C 86.355469 80.691406 87.421875 81.394531 87.421875 81.882812 C 87.421875 82.382812 86.371094 83.242188 84.972656 83.640625 L 67.898438 88.488281 C 67.210938 88.683594 66.246094 88.796875 65.253906 88.796875 C 64.296875 88.796875 63.402344 88.691406 62.738281 88.511719 L 57.265625 87.019531 C 57.3125 86.816406 57.289062 86.613281 57.179688 86.429688 C 57.089844 86.285156 56.964844 86.171875 56.816406 86.097656 C 57.222656 85.808594 57.355469 85.421875 57.382812 85.082031 C 57.351562 84.617188 57.101562 84.257812 56.738281 84.0625 L 62.664062 85.484375 C 64.140625 85.839844 66.550781 85.824219 68.015625 85.457031 L 82.011719 81.933594 C 83.480469 81.5625 83.457031 81.078125 81.957031 80.859375 L 64.480469 78.289062 C 62.980469 78.066406 60.523438 78.066406 59.023438 78.292969 L 49.382812 79.734375 C 49.140625 79.714844 48.886719 79.6875 48.625 79.652344 C 46.867188 79.4375 45.421875 79.464844 44.203125 79.742188 C 43.378906 79.929688 42.617188 80.292969 41.992188 80.804688 L 41.992188 80.808594 C 41.578125 80.710938 41.152344 80.617188 40.722656 80.515625 C 41.167969 80.230469 41.820312 79.976562 42.578125 79.863281 L 58.800781 77.460938 C 59.519531 77.351562 60.480469 77.292969 61.507812 77.292969 C 62.523438 77.292969 63.464844 77.351562 64.171875 77.457031 Z M 41.3125 87.992188 L 41.472656 88.042969 C 41.832031 88.253906 42.144531 88.433594 42.441406 88.605469 C 43.511719 89.210938 44.320312 89.585938 45.8125 90.167969 C 46.546875 90.410156 47.863281 90.476562 47.894531 90.476562 C 47.96875 90.488281 48.964844 90.613281 50.28125 90.613281 C 51.308594 90.613281 52.523438 90.539062 53.640625 90.261719 C 53.769531 90.246094 54.867188 90.082031 54.96875 89.386719 C 55.023438 89.011719 54.898438 88.632812 54.628906 88.367188 C 54.625 88.355469 54.605469 88.347656 54.59375 88.335938 C 54.804688 88.296875 55.003906 88.261719 55.21875 88.21875 C 55.328125 88.1875 55.445312 88.164062 55.566406 88.136719 C 56.039062 88.03125 56.601562 87.898438 56.976562 87.507812 L 62.59375 89.046875 C 63.304688 89.238281 64.253906 89.347656 65.253906 89.347656 C 66.3125 89.347656 67.304688 89.226562 68.050781 89.015625 L 85.121094 84.167969 C 86.523438 83.769531 87.972656 82.808594 87.972656 81.882812 C 87.972656 80.902344 86.449219 80.148438 85.011719 79.9375 L 83.660156 79.742188 L 85.234375 77.394531 C 86.113281 76.089844 92.4375 67.101562 93.277344 65.898438 C 93.742188 65.933594 95.007812 65.945312 96.089844 65.144531 L 100.160156 62.179688 C 100.175781 62.171875 100.183594 62.15625 100.195312 62.144531 C 100.9375 61.582031 101.8125 60.757812 101.628906 59.617188 C 101.519531 58.953125 101.167969 58.609375 100.660156 58.324219 C 100.226562 56.804688 99.261719 56.351562 98.84375 56.226562 C 98.558594 54.992188 97.40625 54.550781 96.710938 54.476562 C 95.703125 53.171875 94.519531 53.429688 93.925781 53.683594 C 93.867188 51.050781 93.699219 48.308594 93.527344 45.632812 C 93.476562 44.855469 93.429688 44.09375 93.382812 43.347656 C 93.355469 42.8125 92.964844 42.460938 92.414062 42.460938 C 92.066406 42.460938 91.730469 42.605469 91.503906 42.847656 C 91.300781 43.066406 91.203125 43.34375 91.222656 43.652344 C 91.402344 46.0625 91.484375 48.242188 91.566406 50.351562 C 91.625 51.859375 91.6875 53.40625 91.773438 55.03125 C 91.082031 55.738281 90.261719 56.363281 89.699219 57.171875 C 89.121094 58 88.707031 58.964844 88.300781 59.882812 C 88.058594 60.421875 86.851562 61.015625 86.371094 61.378906 C 85.535156 62.011719 84.691406 62.644531 83.851562 63.277344 C 82.183594 64.539062 80.519531 65.796875 78.851562 67.054688 C 77.027344 68.425781 75.203125 70.195312 73.230469 71.351562 C 73.097656 71.425781 71.265625 66.070312 71.109375 65.574219 C 70.539062 63.714844 69.921875 61.875 69.320312 60.019531 C 68.117188 56.332031 67.117188 52.578125 65.644531 48.976562 C 64.527344 46.238281 63.105469 43.761719 60.730469 41.929688 C 58.375 40.105469 55.628906 38.960938 52.761719 38.238281 C 51.582031 37.941406 50.386719 37.75 49.183594 37.613281 C 51.351562 36.113281 53.199219 33.652344 54.714844 30.230469 C 55.253906 29.007812 55.707031 27.707031 56.054688 26.371094 C 59.019531 27.074219 60.382812 23.242188 60.632812 20.902344 C 61.035156 17.105469 60 13.085938 58.359375 9.671875 C 56.699219 6.21875 53.933594 4.109375 50.386719 2.832031 C 49.097656 2.363281 45.890625 0.90625 44.738281 2.277344 C 38.089844 0 31.21875 4.84375 27.191406 9.804688 C 25.320312 12.105469 23.613281 14.824219 23.136719 17.796875 C 22.753906 20.191406 23.785156 22.738281 26.410156 22.847656 C 26.652344 25.863281 27.910156 28.890625 30.367188 32.355469 C 30.382812 33.605469 30.546875 34.949219 30.347656 36.1875 C 30.285156 36.617188 29.921875 36.917969 29.398438 37.121094 L 27.839844 37.476562 C 26.183594 37.667969 24.203125 37.539062 23.417969 37.578125 C 18.996094 37.808594 14.78125 38.769531 10.980469 41.125 C 7.089844 43.53125 4.445312 46.863281 2.683594 51.046875 C 1.058594 54.898438 0.148438 59.492188 0.09375 63.664062 C 0.09375 66.671875 0.160156 69.996094 0.484375 72.984375 C 0.816406 75.976562 1.398438 78.625 2.445312 80.265625 C 3.753906 82.28125 5.167969 83.742188 6.976562 84.917969 C 7.539062 85.285156 8.136719 85.621094 8.789062 85.941406 C 9.320312 86.175781 9.878906 86.417969 10.453125 86.660156 C 11.835938 87.246094 13.304688 87.796875 14.765625 88.085938 C 22.78125 89.488281 33.554688 88.816406 41.234375 88.003906 C 41.265625 88 41.285156 88 41.3125 87.992188 "/></g><path style=" stroke:none;fill-rule:nonzero;fill:#100f0d;fill-opacity:1;" d="M 107.785156 90.003906 L 101.976562 89.671875 L 98.601562 88.972656 L 98.367188 88.921875 L 98.601562 88.972656 L 101.691406 88.996094 L 105.507812 86.515625 L 102.09375 86.492188 L 98.347656 88.917969 L 97.207031 88.679688 L 100.585938 86.488281 C 100.6875 86.421875 100.734375 86.296875 100.699219 86.179688 C 100.667969 86.066406 100.558594 85.984375 100.4375 85.984375 L 97.019531 85.957031 C 96.964844 85.957031 96.914062 85.972656 96.867188 86.003906 L 93.820312 87.980469 L 94.585938 88.140625 L 97.097656 86.511719 L 99.515625 86.527344 L 96.535156 88.460938 L 96.121094 88.457031 L 96.117188 88.457031 L 94.585938 88.140625 L 93.820312 87.984375 L 92.679688 87.746094 L 91.4375 87.488281 L 92.679688 87.746094 L 95.363281 86 L 91.945312 85.976562 L 90.058594 87.203125 L 90.058594 87.199219 L 89.132812 87.007812 L 91.804688 85.34375 L 113.785156 86.144531 Z M 105.894531 91.042969 L 99.332031 93.839844 L 78.355469 89.046875 L 84.355469 86.582031 Z M 114.933594 85.828125 C 114.902344 85.714844 114.800781 85.632812 114.679688 85.625 L 91.738281 84.792969 C 91.671875 84.792969 91.625 84.804688 91.582031 84.832031 L 88.347656 86.847656 L 84.382812 86.027344 C 84.332031 86.015625 84.277344 86.023438 84.222656 86.042969 L 77.34375 88.863281 C 77.230469 88.914062 77.164062 89.023438 77.175781 89.144531 C 77.183594 89.261719 77.269531 89.363281 77.386719 89.386719 L 99.300781 94.398438 C 99.316406 94.402344 99.339844 94.40625 99.363281 94.40625 C 99.398438 94.40625 99.433594 94.398438 99.464844 94.386719 L 106.921875 91.203125 C 107.03125 91.160156 107.097656 91.042969 107.085938 90.921875 C 107.074219 90.808594 106.980469 90.707031 106.863281 90.679688 L 105.652344 90.433594 L 107.839844 90.558594 L 107.855469 90.558594 C 107.910156 90.558594 107.960938 90.542969 108.003906 90.515625 L 114.820312 86.132812 C 114.917969 86.074219 114.96875 85.945312 114.933594 85.828125 "/><path style=" stroke:none;fill-rule:nonzero;fill:#100f0d;fill-opacity:1;" d="M 107.242188 87.023438 L 109.664062 87.042969 L 106.683594 88.972656 L 104.265625 88.957031 Z M 103.078125 89.304688 C 103.113281 89.417969 103.222656 89.503906 103.34375 89.503906 L 106.757812 89.53125 C 106.757812 89.53125 106.757812 89.53125 106.765625 89.53125 C 106.8125 89.53125 106.871094 89.511719 106.914062 89.480469 L 110.730469 87.003906 C 110.835938 86.9375 110.878906 86.816406 110.847656 86.695312 C 110.8125 86.578125 110.703125 86.503906 110.582031 86.503906 L 107.167969 86.472656 C 107.167969 86.472656 107.167969 86.472656 107.160156 86.472656 C 107.113281 86.472656 107.054688 86.492188 107.011719 86.519531 L 103.195312 88.996094 C 103.089844 89.0625 103.046875 89.1875 103.078125 89.304688 "/><path style=" stroke:none;fill-rule:nonzero;fill:#100f0d;fill-opacity:1;" d="M 83.578125 89.628906 L 87.757812 87.824219 L 84.390625 87.230469 L 80.214844 89.035156 L 83.578125 89.628906 "/><path style=" stroke:none;fill-rule:nonzero;fill:#100f0d;fill-opacity:1;" d="M 89.382812 88.617188 L 91.765625 89.039062 L 88.503906 90.445312 L 86.125 90.027344 Z M 84.902344 90.167969 C 84.910156 90.289062 85.003906 90.382812 85.125 90.40625 L 88.488281 91 C 88.503906 91.003906 88.519531 91.003906 88.535156 91.003906 C 88.574219 91.003906 88.613281 91 88.644531 90.984375 L 92.828125 89.175781 C 92.9375 89.128906 93.003906 89.011719 92.992188 88.894531 C 92.976562 88.777344 92.882812 88.675781 92.765625 88.65625 L 89.402344 88.058594 C 89.347656 88.050781 89.289062 88.058594 89.242188 88.078125 L 85.058594 89.882812 C 84.949219 89.933594 84.882812 90.046875 84.902344 90.167969 "/><path style=" stroke:none;fill-rule:nonzero;fill:#100f0d;fill-opacity:1;" d="M 99.300781 90.816406 L 101.679688 91.242188 L 98.417969 92.648438 L 96.039062 92.226562 Z M 94.816406 92.371094 C 94.828125 92.492188 94.921875 92.585938 95.042969 92.605469 L 98.402344 93.203125 C 98.417969 93.207031 98.4375 93.207031 98.453125 93.207031 C 98.492188 93.207031 98.527344 93.203125 98.5625 93.183594 L 102.742188 91.378906 C 102.855469 91.332031 102.921875 91.214844 102.910156 91.097656 C 102.890625 90.976562 102.800781 90.878906 102.683594 90.855469 L 99.316406 90.261719 C 99.265625 90.257812 99.207031 90.257812 99.15625 90.277344 L 94.976562 92.085938 C 94.867188 92.132812 94.800781 92.25 94.816406 92.371094 "/><path style=" stroke:none;fill-rule:nonzero;fill:#100f0d;fill-opacity:1;" d="M 93.496094 91.832031 L 97.675781 90.027344 L 94.308594 89.433594 L 90.128906 91.234375 L 93.496094 91.832031 "/><path style=" stroke:none;fill-rule:nonzero;fill:#100f0d;fill-opacity:1;" d="M 49.488281 102.125 C 50.035156 102.296875 50.351562 102.402344 50.832031 102.550781 C 50.640625 102.996094 50.484375 103.347656 50.335938 103.703125 C 50.046875 103.199219 49.476562 102.957031 49.488281 102.125 Z M 48.136719 103.988281 C 47.984375 103.882812 47.824219 103.769531 47.496094 103.535156 C 47.867188 103.453125 48.089844 103.402344 48.535156 103.304688 C 48.320312 103.671875 48.226562 103.832031 48.136719 103.988281 Z M 46.949219 102.058594 C 47.527344 101.890625 47.707031 102.121094 47.773438 102.640625 C 47.234375 102.75 47.046875 102.527344 46.949219 102.058594 Z M 44.066406 100.292969 C 44.542969 99.824219 44.789062 99.871094 44.988281 100.484375 C 44.746094 100.4375 44.496094 100.382812 44.066406 100.292969 Z M 50.414062 103.972656 C 50.464844 103.972656 50.507812 103.976562 50.550781 103.976562 C 50.882812 103.722656 51.234375 103.496094 51.59375 103.289062 C 51.570312 103.1875 51.554688 103.058594 51.53125 102.878906 C 51.660156 102.976562 51.773438 103.050781 51.882812 103.128906 C 52.269531 102.917969 52.667969 102.730469 53.070312 102.566406 C 53.085938 102.46875 53.109375 102.375 53.125 102.257812 C 53.179688 102.347656 53.230469 102.414062 53.273438 102.484375 C 53.585938 102.359375 53.90625 102.246094 54.226562 102.144531 C 54.574219 101.785156 54.792969 101.566406 55.046875 101.304688 C 55.476562 101.367188 55.902344 101.425781 56.4375 101.503906 C 56.417969 101.539062 56.40625 101.558594 56.390625 101.59375 C 58.535156 101.171875 60.214844 101.195312 60.214844 101.195312 L 58.761719 100.839844 C 58.425781 100.871094 58.242188 100.808594 58.148438 100.6875 L 54.503906 99.785156 C 54.65625 100.199219 54.523438 100.640625 54.4375 101.148438 C 53.917969 100.800781 53.527344 100.539062 53.023438 100.203125 C 53.25 99.984375 53.453125 99.78125 53.664062 99.582031 L 50.089844 98.703125 C 44.878906 97.238281 38.46875 99.859375 38.46875 99.859375 L 47.941406 104.203125 C 48.011719 104.136719 48.078125 104.074219 48.148438 104.007812 C 48.144531 104.003906 48.136719 104 48.136719 103.992188 L 48.148438 104 L 48.15625 104.003906 L 48.148438 104.007812 C 48.253906 104.148438 48.359375 104.289062 48.480469 104.449219 L 49.488281 104.914062 C 49.78125 104.605469 50.101562 104.328125 50.429688 104.070312 C 50.425781 104.039062 50.417969 104.003906 50.414062 103.972656 "/><g clip-rule="nonzero" clip-path="url(#2e9ef0d5dd)"><path style=" stroke:none;fill-rule:nonzero;fill:#100f0d;fill-opacity:1;" d="M 74.6875 104.082031 L 51.203125 97.492188 C 52.585938 96.074219 58.710938 90.472656 68.90625 90.472656 C 69.613281 90.472656 70.328125 90.5 70.988281 90.542969 L 92.230469 96.3125 C 91.121094 97.226562 86.964844 100.09375 74.6875 104.082031 Z M 92.066406 98.472656 C 90.683594 99.199219 86.328125 101.21875 74.6875 104.996094 C 73.992188 104.796875 69.132812 103.460938 63.746094 103.460938 C 57.113281 103.460938 52.375 105.386719 49.652344 109.183594 L 33.171875 101.621094 C 33.546875 101.429688 34.128906 101.136719 34.863281 100.800781 L 49.636719 107.578125 C 49.671875 107.59375 49.707031 107.605469 49.746094 107.605469 C 49.835938 107.605469 49.925781 107.5625 49.980469 107.484375 C 54.378906 101.082031 64 102.003906 69.828125 103.292969 L 74.613281 104.636719 C 74.644531 104.644531 74.664062 104.648438 74.691406 104.648438 L 74.699219 104.644531 L 74.71875 104.644531 C 74.734375 104.636719 74.757812 104.636719 74.773438 104.632812 C 83.566406 101.785156 88.234375 99.515625 90.636719 98.082031 Z M 91.660156 100.5625 C 89.847656 101.019531 85.296875 102.296875 74.675781 105.738281 C 74.125 105.621094 70.554688 104.917969 66.226562 104.917969 C 60.757812 104.917969 53.476562 106.046875 49.652344 111.386719 L 33.125 103.804688 C 33.453125 103.597656 33.976562 103.277344 34.640625 102.902344 L 49.636719 109.777344 C 49.671875 109.796875 49.707031 109.808594 49.746094 109.808594 C 49.835938 109.808594 49.921875 109.761719 49.980469 109.6875 C 52.566406 105.917969 57.195312 104.007812 63.746094 104.007812 C 69.453125 104.007812 74.558594 105.527344 74.609375 105.546875 C 74.664062 105.5625 74.722656 105.5625 74.773438 105.546875 C 82.785156 102.945312 87.355469 101.183594 89.917969 100.089844 Z M 33.269531 99.46875 C 35.554688 98.640625 43.804688 95.992188 50.613281 97.902344 C 50.617188 97.902344 50.617188 97.902344 50.617188 97.902344 L 65.1875 101.988281 C 59.683594 101.445312 53.1875 102.070312 49.652344 106.984375 Z M 92.992188 96.355469 C 93.058594 96.285156 93.074219 96.1875 93.046875 96.09375 C 93.019531 96.003906 92.949219 95.933594 92.855469 95.910156 L 71.082031 90.003906 C 70.355469 89.949219 69.625 89.921875 68.90625 89.921875 C 57.882812 89.921875 51.503906 96.34375 50.597656 97.332031 C 42.492188 95.144531 32.554688 99.148438 32.457031 99.1875 C 32.351562 99.230469 32.285156 99.324219 32.285156 99.433594 C 32.277344 99.542969 32.34375 99.644531 32.445312 99.691406 L 34.179688 100.484375 C 33 101.046875 32.285156 101.503906 32.285156 101.640625 C 32.285156 101.753906 32.34375 101.851562 32.445312 101.894531 L 34.03125 102.621094 C 33.078125 103.15625 32.285156 103.664062 32.285156 103.84375 C 32.285156 103.953125 32.34375 104.054688 32.445312 104.097656 L 49.636719 111.980469 C 49.671875 111.996094 49.707031 112.007812 49.746094 112.007812 C 49.835938 112.007812 49.921875 111.964844 49.980469 111.886719 C 53.625 106.582031 60.824219 105.46875 66.226562 105.46875 C 70.855469 105.46875 74.59375 106.28125 74.632812 106.289062 C 74.679688 106.300781 74.730469 106.300781 74.773438 106.28125 C 89.894531 101.382812 92.804688 100.859375 92.832031 100.855469 C 92.960938 100.832031 93.054688 100.722656 93.058594 100.597656 C 93.066406 100.464844 92.980469 100.347656 92.855469 100.316406 L 90.71875 99.738281 C 92.382812 98.988281 92.898438 98.636719 92.945312 98.601562 C 93.03125 98.542969 93.074219 98.4375 93.058594 98.332031 C 93.035156 98.230469 92.960938 98.140625 92.855469 98.113281 L 91.273438 97.683594 C 92.542969 96.867188 92.953125 96.40625 92.992188 96.355469 "/></g><path style=" stroke:none;fill-rule:nonzero;fill:#100f0d;fill-opacity:1;" d="M 86.027344 96.554688 L 73.832031 102.078125 L 57.144531 97.398438 C 58.285156 96.257812 62.617188 92.476562 69.707031 92.476562 C 70.207031 92.476562 70.71875 92.492188 71.183594 92.519531 Z M 56.425781 97.359375 C 56.363281 97.429688 56.339844 97.527344 56.371094 97.617188 C 56.398438 97.707031 56.46875 97.777344 56.558594 97.800781 L 73.785156 102.632812 C 73.804688 102.640625 73.832031 102.644531 73.855469 102.644531 C 73.894531 102.644531 73.929688 102.640625 73.96875 102.621094 L 86.957031 96.738281 C 87.058594 96.691406 87.125 96.582031 87.113281 96.464844 C 87.109375 96.351562 87.027344 96.253906 86.917969 96.222656 L 71.269531 91.980469 C 70.746094 91.941406 70.222656 91.925781 69.707031 91.925781 C 61.152344 91.925781 56.46875 97.304688 56.425781 97.359375 "/><path style=" stroke:none;fill-rule:nonzero;fill:#100f0d;fill-opacity:1;" d="M 50.453125 24.601562 C 51 26.660156 52.289062 32.007812 48.472656 31.152344 C 48.128906 31.074219 47.980469 31.601562 48.328125 31.679688 C 52.75 32.675781 51.652344 26.984375 50.984375 24.453125 C 50.890625 24.109375 50.359375 24.257812 50.453125 24.601562 "/><path style=" stroke:none;fill-rule:nonzero;fill:#100f0d;fill-opacity:1;" d="M 48.15625 33.71875 C 46.765625 33.996094 44.796875 33.394531 44.320312 31.929688 C 44.210938 31.59375 43.679688 31.738281 43.789062 32.074219 C 44.367188 33.847656 46.601562 34.589844 48.304688 34.25 C 48.652344 34.179688 48.503906 33.652344 48.15625 33.71875 "/><path style=" stroke:none;fill-rule:nonzero;fill:#100f0d;fill-opacity:1;" d="M 45.375 20.703125 C 46.070312 20.734375 46.738281 20.898438 47.398438 21.089844 C 47.78125 21.203125 48.488281 21.546875 48.867188 21.269531 C 49.246094 20.996094 48.300781 20.378906 48.140625 20.277344 C 47.347656 19.789062 46.402344 19.574219 45.476562 19.6875 C 45.195312 19.71875 43.859375 19.9375 44.019531 20.460938 C 44.132812 20.828125 45.109375 20.691406 45.375 20.703125 "/><path style=" stroke:none;fill-rule:nonzero;fill:#100f0d;fill-opacity:1;" d="M 53.109375 25.667969 C 53.1875 24.996094 53.597656 24.492188 54.019531 24.542969 C 54.445312 24.59375 54.722656 25.179688 54.640625 25.851562 C 54.558594 26.523438 54.152344 27.023438 53.730469 26.972656 C 53.304688 26.921875 53.027344 26.339844 53.109375 25.667969 "/><path style=" stroke:none;fill-rule:nonzero;fill:#100f0d;fill-opacity:1;" d="M 46.402344 25.007812 C 45.980469 24.957031 45.703125 24.371094 45.78125 23.699219 C 45.863281 23.03125 46.269531 22.527344 46.695312 22.578125 C 47.117188 22.628906 47.394531 23.210938 47.3125 23.882812 C 47.234375 24.554688 46.824219 25.058594 46.402344 25.007812 "/></g></svg>