<svg xmlns="http://www.w3.org/2000/svg" xmlns:xlink="http://www.w3.org/1999/xlink" width="247" zoomAndPan="magnify" viewBox="0 0 185.25 112.499997" height="150" preserveAspectRatio="xMidYMid meet" version="1.2"><defs><clipPath id="05f50cb900"><path d="M 0.0351562 33 L 67 33 L 67 82 L 0.0351562 82 Z M 0.0351562 33 "/></clipPath><clipPath id="ffdc9cf6df"><path d="M 54.308594 0.234375 L 117.71875 0.234375 L 117.71875 82.136719 L 54.308594 82.136719 Z M 54.308594 0.234375 "/></clipPath><clipPath id="e14e60e359"><path d="M 0.09375 33.703125 L 66.804688 33.703125 L 66.804688 82.136719 L 0.09375 82.136719 Z M 0.09375 33.703125 "/></clipPath><clipPath id="316267d558"><path d="M 54.074219 0 L 117.957031 0 L 117.957031 82.136719 L 54.074219 82.136719 Z M 54.074219 0 "/></clipPath></defs><g id="29e26f78a4"><g clip-rule="nonzero" clip-path="url(#05f50cb900)"><path style=" stroke:none;fill-rule:nonzero;fill:#ffffff;fill-opacity:1;" d="M 65.910156 79.949219 C 65.875 79.941406 65.835938 79.9375 65.78125 79.9375 L 63.09375 79.9375 L 63.09375 77.492188 L 63.335938 77.492188 C 63.472656 77.492188 63.582031 77.386719 63.582031 77.25 C 63.582031 77.109375 63.472656 77.003906 63.335938 77.003906 L 58.933594 77.003906 C 58.796875 77.003906 58.6875 77.109375 58.6875 77.25 C 58.6875 77.386719 58.796875 77.492188 58.933594 77.492188 L 59.179688 77.492188 L 59.179688 79.9375 L 56.734375 79.9375 L 56.734375 77.492188 L 56.976562 77.492188 C 57.113281 77.492188 57.222656 77.386719 57.222656 77.25 C 57.222656 77.109375 57.113281 77.003906 56.976562 77.003906 L 52.574219 77.003906 C 52.4375 77.003906 52.332031 77.109375 52.332031 77.25 C 52.332031 77.386719 52.4375 77.492188 52.574219 77.492188 L 52.820312 77.492188 L 52.820312 79.9375 L 50.375 79.9375 L 50.375 77.492188 L 50.617188 77.492188 C 50.753906 77.492188 50.863281 77.386719 50.863281 77.25 C 50.863281 77.109375 50.753906 77.003906 50.617188 77.003906 L 46.214844 77.003906 C 46.078125 77.003906 45.972656 77.109375 45.972656 77.25 C 45.972656 77.386719 46.078125 77.492188 46.214844 77.492188 L 46.460938 77.492188 L 46.460938 79.9375 L 45.023438 79.9375 L 44.589844 76.027344 L 54.605469 76.027344 L 50.09375 34.941406 L 27.71875 34.941406 L 27.707031 34.710938 C 27.699219 34.640625 27.632812 33.964844 26.816406 33.964844 L 26.507812 33.964844 C 25.96875 33.964844 25.703125 33.96875 25.5625 34.109375 C 25.464844 34.214844 25.425781 34.375 25.425781 34.699219 L 25.425781 34.941406 L 19.402344 34.941406 L 19.390625 34.710938 C 19.382812 34.640625 19.316406 33.964844 18.5 33.964844 L 18.191406 33.964844 C 17.652344 33.964844 17.386719 33.96875 17.246094 34.109375 C 17.148438 34.214844 17.109375 34.375 17.109375 34.699219 L 17.109375 34.941406 L 0.410156 34.941406 L 4.761719 76.027344 L 11.558594 76.027344 L 12.183594 81.894531 L 27.152344 81.894531 C 27.207031 81.722656 27.320312 81.550781 27.605469 81.550781 C 27.730469 81.550781 27.867188 81.582031 28.078125 81.621094 L 28.652344 81.730469 L 28.410156 81.894531 L 34.40625 81.894531 C 34.484375 81.847656 34.578125 81.792969 34.679688 81.734375 L 35.078125 81.503906 L 35.050781 81.894531 L 66.390625 81.894531 L 66.179688 80.015625 L 65.910156 79.949219 "/></g><g clip-rule="nonzero" clip-path="url(#ffdc9cf6df)"><path style=" stroke:none;fill-rule:nonzero;fill:#ffffff;fill-opacity:1;" d="M 74.507812 54.964844 C 73.441406 54.125 72.355469 53.238281 71.246094 52.316406 C 71.1875 52.050781 71.125 51.78125 71.0625 51.503906 C 70.882812 50.683594 70.691406 49.800781 70.414062 48.949219 L 70.421875 48.949219 L 70.335938 48.632812 C 70.296875 48.511719 70.265625 48.382812 70.226562 48.253906 C 73.136719 48.6875 75.605469 49.003906 77.167969 49.003906 L 77.351562 49.003906 C 76.171875 51.054688 75.226562 53.160156 74.507812 54.964844 Z M 117.121094 23.117188 L 117.058594 23 L 117.128906 22.886719 C 117.664062 21.964844 117.769531 20.816406 117.40625 19.953125 C 117.207031 19.492188 116.789062 18.894531 115.890625 18.675781 L 115.625 18.605469 L 115.71875 18.347656 C 116.574219 16.179688 116.5 13.863281 115.5 11.648438 C 114.234375 8.824219 111.507812 6.359375 108.390625 5.214844 L 108.320312 5.191406 L 108.277344 5.132812 C 106.144531 2.332031 103.253906 0.558594 100.363281 0.277344 C 100.125 0.257812 99.882812 0.246094 99.640625 0.246094 C 97.25 0.246094 95.105469 1.398438 93.507812 2.402344 L 93.417969 2.457031 L 93.320312 2.4375 C 92.480469 2.242188 91.546875 2.136719 90.609375 2.136719 C 87.992188 2.136719 85.773438 2.902344 84.511719 4.230469 C 83.628906 5.160156 83.222656 6.355469 83.296875 7.742188 L 83.453125 8.050781 L 83.113281 8.101562 C 81.726562 8.28125 80.46875 9.054688 79.835938 10.121094 C 79.308594 10.988281 79.230469 11.96875 79.59375 12.949219 L 79.898438 13.164062 L 79.582031 13.359375 C 78.984375 13.714844 78.464844 14.226562 78.027344 14.867188 C 76.53125 16.863281 76.105469 18.6875 76.6875 20.613281 C 77.113281 22.027344 78.203125 23.523438 79.671875 23.675781 L 79.914062 23.703125 L 79.894531 23.941406 C 79.800781 25.046875 80.074219 25.859375 80.734375 26.433594 C 80.84375 26.53125 80.953125 26.613281 81.085938 26.695312 L 81.195312 26.765625 L 81.199219 26.898438 C 81.210938 27.355469 81.464844 27.933594 81.597656 28.246094 C 81.824219 28.757812 82.242188 29.230469 82.78125 29.570312 L 82.960938 29.6875 L 82.867188 29.886719 C 82.828125 29.96875 82.808594 30.0625 82.808594 30.171875 L 82.808594 30.238281 L 82.777344 30.296875 C 82.492188 30.761719 82.730469 31.445312 83.019531 31.894531 C 83.480469 32.609375 84.207031 33.054688 84.914062 33.054688 C 85.121094 33.054688 85.324219 33.019531 85.519531 32.945312 L 85.722656 32.871094 L 85.820312 33.054688 C 86.585938 34.441406 87.613281 35.566406 88.800781 36.304688 C 89.355469 36.648438 89.894531 36.921875 90.453125 37.148438 L 90.597656 37.207031 L 90.601562 37.367188 C 90.609375 37.84375 90.625 38.308594 90.640625 38.78125 C 90.644531 38.878906 90.65625 38.984375 90.667969 39.113281 C 90.707031 39.726562 90.753906 40.414062 90.253906 40.835938 C 89.46875 41.5 88.253906 41.515625 87.285156 41.527344 L 87.179688 41.53125 C 83.949219 41.574219 80.921875 43.71875 78.175781 47.886719 L 78.078125 48.042969 L 77.910156 47.992188 C 77.003906 47.746094 75.265625 47.550781 72.515625 47.257812 L 71.8125 47.179688 C 71.246094 47.121094 70.652344 47.058594 70.03125 46.988281 L 69.875 46.96875 L 69.828125 46.8125 C 69.582031 46.007812 69.359375 45.316406 69.132812 44.722656 C 68.882812 44.109375 68.570312 43.707031 68.261719 43.628906 C 68.222656 43.617188 68.183594 43.609375 68.144531 43.609375 C 68.03125 43.609375 67.914062 43.65625 67.792969 43.753906 C 67.359375 44.074219 67.367188 44.746094 67.371094 45.289062 L 67.355469 45.632812 L 67.039062 45.523438 C 65.878906 45.246094 64.953125 45.113281 64.210938 45.113281 C 63.773438 45.113281 63.394531 45.164062 63.089844 45.261719 C 62.617188 45.410156 62.292969 45.617188 62.132812 45.890625 L 62.046875 46.015625 L 61.902344 46 C 61.339844 45.953125 60.960938 45.925781 60.667969 45.925781 C 60.472656 45.925781 60.316406 45.9375 60.191406 45.957031 L 60.007812 45.984375 L 59.929688 45.824219 C 59.609375 45.152344 59.128906 44.691406 58.503906 44.445312 C 58.125 44.296875 57.6875 44.222656 57.210938 44.222656 C 55.941406 44.222656 54.746094 44.734375 54.515625 44.839844 C 54.574219 44.898438 55.953125 46.269531 57.0625 46.875 C 57.304688 47.007812 57.589844 47.074219 57.921875 47.074219 C 58.921875 47.074219 59.964844 46.488281 59.972656 46.488281 L 60.007812 46.460938 L 60.136719 46.367188 L 60.261719 46.421875 C 60.664062 46.597656 61.347656 46.777344 62.429688 46.992188 L 62.464844 46.996094 L 62.5 47.015625 C 62.5625 47.050781 62.636719 47.082031 62.714844 47.097656 L 63.097656 47.175781 L 62.855469 47.488281 C 62.625 47.785156 62.566406 48.1875 62.695312 48.589844 L 62.757812 48.785156 L 62.5625 48.882812 C 62.378906 48.96875 62.253906 49.105469 62.195312 49.289062 C 62.117188 49.53125 62.160156 49.835938 62.308594 50.097656 L 62.445312 50.347656 L 62.175781 50.445312 C 61.910156 50.542969 61.820312 50.769531 61.785156 50.945312 C 61.714844 51.308594 61.851562 51.757812 62.109375 51.984375 C 62.464844 52.324219 62.917969 52.515625 63.394531 52.71875 C 63.523438 52.773438 63.644531 52.828125 63.773438 52.882812 C 64.574219 53.253906 64.839844 53.910156 65.097656 54.550781 C 65.183594 54.769531 65.277344 55 65.394531 55.214844 C 65.867188 56.089844 66.953125 56.398438 67.742188 56.398438 C 67.84375 56.398438 67.941406 56.390625 68.035156 56.382812 L 68.183594 56.371094 L 68.261719 56.492188 C 68.632812 57.035156 69.011719 57.585938 69.386719 58.148438 L 69.804688 58.769531 C 70.691406 60.082031 71.605469 61.4375 72.566406 62.789062 L 72.640625 62.894531 L 72.597656 63.015625 C 71.457031 66.230469 69.316406 73.367188 68.535156 79.742188 L 68.199219 82.140625 L 72.890625 82.140625 L 111.503906 81.894531 L 109.714844 71.449219 L 110.042969 71.488281 C 110.71875 71.574219 111.328125 71.625 111.890625 71.625 C 112.007812 71.398438 112.222656 70.3125 112.703125 67.863281 L 112.828125 67.257812 C 113.25 65.089844 113.691406 62.707031 113.753906 62.320312 C 114.667969 57.136719 115.414062 49.679688 111.289062 44.828125 C 110.21875 43.570312 108.421875 42.410156 106.921875 42 C 106.4375 41.871094 105.894531 41.808594 105.210938 41.742188 C 104.246094 41.636719 103.25 41.53125 102.503906 41.113281 L 102.46875 41.089844 L 102.441406 41.054688 L 102.375 41.035156 L 102.339844 41.011719 C 102.25 40.953125 102.164062 40.90625 102.09375 40.835938 C 101.601562 40.425781 101.648438 39.730469 101.6875 39.101562 C 101.695312 39 101.703125 38.910156 101.707031 38.800781 C 101.726562 38.355469 101.738281 38.050781 101.742188 37.742188 L 101.746094 37.539062 L 101.75 37.082031 L 101.75 36.757812 L 102.0625 36.84375 C 103.269531 37.1875 104.679688 37.539062 106.058594 37.539062 C 106.90625 37.539062 107.65625 37.414062 108.359375 37.152344 C 110.410156 36.390625 111.59375 34.25 112.394531 32.453125 L 112.394531 32.265625 L 112.636719 32.261719 C 114.238281 32.242188 115.648438 31.371094 116.613281 29.8125 C 117.851562 27.792969 118.066406 25.039062 117.121094 23.117188 "/></g><g clip-rule="nonzero" clip-path="url(#e14e60e359)"><path style=" stroke:none;fill-rule:nonzero;fill:#100f0d;fill-opacity:1;" d="M 62.804688 79.691406 L 59.382812 79.691406 L 59.382812 77.738281 L 62.804688 77.738281 Z M 56.445312 79.691406 L 53.023438 79.695312 L 53.023438 77.738281 L 56.445312 77.738281 Z M 50.089844 78.714844 L 46.664062 78.714844 L 46.664062 77.738281 L 50.089844 77.738281 Z M 50.089844 79.695312 L 46.664062 79.695312 L 46.664062 79.203125 L 50.089844 79.203125 Z M 44.433594 79.695312 L 43.726562 79.695312 L 43.726562 80.183594 L 35.941406 80.183594 C 36.082031 80.492188 35.917969 80.78125 35.867188 81.046875 C 35.792969 81.042969 35.722656 81.039062 35.652344 81.035156 C 35.636719 80.769531 35.625 80.511719 35.613281 80.183594 L 32.3125 80.183594 C 32.351562 80.414062 32.226562 80.625 31.957031 80.851562 C 31.636719 80.632812 31.53125 80.421875 31.570312 80.183594 L 12.910156 80.183594 L 12.910156 79.695312 L 31.8125 79.695312 C 31.835938 79.65625 31.859375 79.621094 31.894531 79.582031 C 31.9375 79.621094 31.972656 79.65625 32.007812 79.695312 L 43.507812 79.695312 C 43.773438 79.3125 44.269531 79.160156 44.460938 78.695312 C 44.652344 78.972656 44.738281 79.097656 44.894531 79.328125 C 44.742188 79.449219 44.585938 79.570312 44.433594 79.695312 Z M 23.203125 81.472656 C 23.105469 81.464844 23 81.449219 22.902344 81.441406 C 22.917969 81.144531 22.929688 80.859375 22.953125 80.359375 C 23.46875 80.863281 23.492188 81.167969 23.203125 81.472656 Z M 12.984375 81.894531 C 12.90625 81.875 12.8125 81.855469 12.695312 81.832031 C 12.992188 81.664062 13.117188 81.597656 13.238281 81.527344 C 13.273438 81.628906 13.308594 81.726562 13.371094 81.894531 C 13.378906 81.925781 13.394531 81.953125 13.40625 81.984375 C 13.246094 81.949219 13.132812 81.929688 12.984375 81.894531 Z M 11.015625 68.851562 C 10.273438 68.027344 11.269531 67.773438 11.382812 67.140625 C 11.644531 67.425781 11.808594 67.617188 11.988281 67.816406 C 11.664062 68.167969 11.359375 68.488281 11.015625 68.851562 Z M 9.058594 46.507812 C 9.011719 46.847656 8.976562 47.066406 8.949219 47.285156 C 8.871094 47.296875 8.792969 47.3125 8.714844 47.324219 C 8.621094 47.144531 8.53125 46.964844 8.40625 46.714844 C 8.632812 46.644531 8.78125 46.597656 9.058594 46.507812 Z M 10.582031 66.234375 C 10.519531 66.242188 10.457031 66.253906 10.398438 66.257812 C 10.355469 66.101562 10.316406 65.941406 10.273438 65.777344 C 10.371094 65.765625 10.46875 65.746094 10.5625 65.726562 C 10.566406 65.898438 10.578125 66.066406 10.582031 66.234375 Z M 11.671875 62.542969 C 11.25 62.800781 11.25 62.800781 11.101562 62.285156 C 11.316406 62.382812 11.46875 62.449219 11.671875 62.542969 Z M 14.734375 63.039062 C 14.503906 63.214844 14.339844 63.34375 13.996094 63.605469 C 14.074219 63.183594 14.109375 62.992188 14.171875 62.632812 C 14.429688 62.820312 14.539062 62.898438 14.734375 63.039062 Z M 14.613281 60.53125 C 14.28125 59.820312 14.28125 59.820312 14.835938 59.582031 C 14.769531 59.871094 14.71875 60.078125 14.613281 60.53125 Z M 4.941406 75.78125 L 0.640625 35.1875 L 16.824219 35.1875 L 16.824219 38.121094 L 7.210938 38.121094 L 11.242188 75.78125 Z M 17.5625 67.089844 C 17.042969 67.230469 16.558594 67.324219 16.378906 66.539062 C 16.953125 66.394531 17.3125 66.625 17.5625 67.089844 Z M 16.066406 64.078125 C 16.132812 64.023438 16.195312 63.96875 16.265625 63.914062 C 16.394531 64.082031 16.515625 64.242188 16.644531 64.410156 C 16.558594 64.472656 16.480469 64.542969 16.398438 64.605469 C 16.285156 64.429688 16.179688 64.253906 16.066406 64.078125 Z M 15.339844 76.5 C 15.246094 76.339844 15.183594 76.28125 15.183594 76.222656 C 15.175781 75.824219 15.367188 75.71875 15.863281 75.824219 C 15.648438 76.097656 15.507812 76.285156 15.339844 76.5 Z M 16.097656 77.386719 C 16.128906 77.496094 16.046875 77.644531 16.011719 77.773438 C 15.9375 77.757812 15.863281 77.738281 15.792969 77.722656 C 15.761719 77.523438 15.734375 77.320312 15.667969 76.84375 C 15.921875 77.15625 16.058594 77.257812 16.097656 77.386719 Z M 17.992188 77.890625 C 17.992188 77.914062 17.792969 77.988281 17.585938 78.085938 C 17.609375 77.777344 17.625 77.601562 17.640625 77.425781 C 17.699219 77.414062 17.753906 77.398438 17.808594 77.386719 C 17.875 77.550781 17.957031 77.71875 17.992188 77.890625 Z M 18.027344 65.132812 C 18.089844 65.230469 18.183594 65.378906 18.273438 65.519531 C 18.1875 65.628906 18.152344 65.714844 18.101562 65.734375 C 17.5625 65.910156 17.007812 66.132812 16.417969 65.476562 C 17.003906 65.347656 17.472656 65.246094 18.027344 65.132812 Z M 19.089844 77.101562 C 18.558594 76.808594 18.417969 76.570312 18.8125 76 C 18.917969 76.414062 18.980469 76.679688 19.089844 77.101562 Z M 18.730469 41.800781 C 18.671875 41.238281 18.730469 41.003906 19.265625 41.34375 C 19.121094 41.464844 18.980469 41.589844 18.730469 41.800781 Z M 19.773438 55.332031 C 19.71875 55.195312 19.671875 55.054688 19.621094 54.917969 C 19.945312 54.796875 20.265625 54.683594 20.738281 54.507812 C 20.527344 55.304688 20.199219 55.429688 19.773438 55.332031 Z M 20.691406 77.046875 C 20.472656 77.265625 20.296875 77.4375 20.105469 77.625 C 20.023438 77.46875 19.949219 77.394531 19.957031 77.347656 C 20.046875 77.007812 20.21875 76.8125 20.691406 77.046875 Z M 19.851562 75.371094 C 20.265625 75.601562 20.386719 75.664062 20.613281 75.789062 C 20.339844 76.226562 20.101562 76.609375 19.8125 77.074219 C 19.425781 76.378906 20.082031 76.074219 19.851562 75.371094 Z M 22.40625 66.144531 C 22.320312 66.191406 22.238281 66.238281 22.148438 66.28125 C 22.050781 66.042969 21.949219 65.808594 21.808594 65.476562 C 22.4375 65.503906 22.457031 65.804688 22.40625 66.144531 Z M 21.6875 49.640625 C 21.664062 49.703125 21.644531 49.769531 21.628906 49.839844 C 21.402344 49.84375 21.183594 49.855469 20.898438 49.867188 C 20.921875 49.652344 20.9375 49.523438 20.96875 49.234375 C 21.261719 49.398438 21.46875 49.515625 21.6875 49.640625 Z M 21.484375 47.46875 C 21.273438 46.914062 21.402344 46.625 21.90625 46.417969 C 22.007812 46.628906 22.097656 46.816406 22.21875 47.0625 C 21.960938 47.203125 21.753906 47.316406 21.484375 47.46875 Z M 17.3125 35.1875 L 25.140625 35.1875 L 25.140625 38.121094 L 17.3125 38.121094 Z M 17.382812 34.285156 C 17.460938 34.203125 17.796875 34.207031 18.21875 34.207031 L 18.457031 34.207031 C 18.980469 34.207031 19.082031 34.550781 19.101562 34.699219 L 17.3125 34.699219 C 17.3125 34.46875 17.335938 34.332031 17.382812 34.285156 Z M 25.152344 63.15625 C 24.847656 63.074219 24.59375 63.011719 24.277344 62.929688 C 24.460938 62.203125 24.796875 62.394531 25.183594 62.550781 C 25.179688 62.722656 25.167969 62.894531 25.152344 63.15625 Z M 22.859375 74.234375 C 22.820312 73.976562 22.796875 73.800781 22.757812 73.527344 C 23.089844 73.835938 23.089844 73.835938 22.859375 74.234375 Z M 22.628906 52.164062 C 22.894531 51.941406 23.066406 51.804688 23.273438 51.632812 C 23.230469 52.136719 23.230469 52.136719 22.628906 52.164062 Z M 22.9375 59.828125 C 22.949219 59.253906 23.054688 58.953125 23.574219 58.742188 C 23.730469 59.441406 23.359375 59.542969 22.9375 59.828125 Z M 23.242188 57.75 C 23.199219 57.675781 23.152344 57.605469 23.109375 57.539062 C 23.261719 57.429688 23.414062 57.328125 23.566406 57.21875 C 23.601562 57.277344 23.636719 57.332031 23.675781 57.390625 C 23.53125 57.507812 23.386719 57.625 23.242188 57.75 Z M 24.742188 75.234375 C 24.988281 75.859375 24.914062 76.089844 24.253906 76.03125 C 24.429688 75.746094 24.546875 75.550781 24.742188 75.234375 Z M 24.386719 67.6875 C 24.492188 67.984375 24.570312 68.195312 24.679688 68.488281 C 24.152344 68.238281 24.152344 68.238281 24.386719 67.6875 Z M 24.492188 74.167969 C 24.4375 74.4375 24.363281 74.757812 24.257812 75.203125 C 23.550781 74.742188 23.574219 74.113281 23.5 73.476562 C 24.074219 73.335938 24.265625 73.722656 24.492188 74.167969 Z M 25.589844 64.625 C 25.148438 64.980469 24.734375 65.316406 24.316406 65.652344 C 24.339844 65.695312 24.367188 65.742188 24.386719 65.789062 C 24.039062 65.839844 23.691406 65.886719 23.34375 65.933594 C 23.347656 65.941406 23.347656 65.945312 23.347656 65.949219 C 23.347656 65.949219 23.347656 65.949219 23.34375 65.953125 C 23.542969 66.335938 23.847656 66.714844 23.382812 67.113281 C 22.875 66.402344 22.871094 66.394531 23.34375 65.953125 C 23.339844 65.949219 23.339844 65.945312 23.335938 65.933594 C 23.339844 65.933594 23.34375 65.933594 23.34375 65.933594 C 23.226562 65.617188 23.109375 65.300781 22.941406 64.863281 C 23.171875 64.542969 23.445312 64.164062 23.730469 63.769531 C 24.402344 64.082031 25.148438 63.921875 25.589844 64.625 Z M 26.515625 62.457031 C 26.664062 62.320312 26.738281 62.199219 26.816406 62.195312 C 27.394531 62.160156 27.289062 62.542969 27.238281 63.113281 C 26.925781 62.832031 26.738281 62.664062 26.515625 62.457031 Z M 25.882812 57.605469 C 26.039062 57.542969 26.199219 57.472656 26.363281 57.40625 C 26.390625 57.46875 26.417969 57.527344 26.445312 57.59375 C 26.292969 57.675781 26.144531 57.761719 25.984375 57.851562 C 25.953125 57.769531 25.917969 57.6875 25.882812 57.605469 Z M 26.621094 77.527344 C 26.710938 77.84375 26.777344 78.082031 26.832031 78.28125 C 26.574219 78.574219 26.546875 78.5625 25.636719 77.917969 C 25.695312 77.824219 25.738281 77.671875 25.808594 77.652344 C 26.035156 77.589844 26.273438 77.574219 26.621094 77.527344 Z M 27.664062 65.316406 C 27.53125 65.203125 27.429688 65.113281 27.28125 64.980469 C 27.421875 64.765625 27.546875 64.582031 27.691406 64.347656 C 28.125 64.765625 27.992188 65.027344 27.664062 65.316406 Z M 29.679688 47.835938 C 29.757812 47.59375 29.820312 47.410156 29.902344 47.164062 C 30.222656 47.277344 30.480469 47.371094 30.78125 47.472656 C 30.78125 47.71875 30.785156 47.925781 30.785156 48.304688 C 30.320312 48.109375 30.03125 47.984375 29.679688 47.835938 Z M 30.121094 77.523438 C 29.957031 77.335938 29.84375 77.210938 29.628906 76.960938 C 30.097656 76.898438 30.425781 76.847656 30.984375 76.769531 C 30.597656 77.105469 30.375 77.296875 30.121094 77.523438 Z M 29.699219 77.8125 C 30.21875 78.085938 30.386719 78.378906 29.953125 78.929688 C 29.390625 78.597656 29.308594 78.285156 29.699219 77.8125 Z M 28.75 72.097656 C 28.746094 72.171875 28.746094 72.246094 28.746094 72.3125 C 28.558594 72.3125 28.378906 72.316406 28.191406 72.316406 L 28.191406 72.03125 C 28.378906 72.054688 28.5625 72.078125 28.75 72.097656 Z M 28.417969 46.699219 C 28.84375 46.519531 29.121094 46.394531 29.40625 46.277344 C 29.472656 46.371094 29.546875 46.464844 29.621094 46.558594 C 29.492188 46.832031 29.371094 47.105469 29.191406 47.492188 C 28.921875 47.214844 28.738281 47.027344 28.417969 46.699219 Z M 41.820312 72.113281 C 42.191406 72.523438 42.011719 72.738281 41.71875 72.992188 C 41.429688 72.59375 41.449219 72.335938 41.820312 72.113281 Z M 40.984375 69.820312 C 41.253906 70.238281 41.375 70.425781 41.542969 70.679688 C 41.3125 70.792969 41.171875 70.867188 40.75 71.078125 C 40.847656 70.558594 40.890625 70.316406 40.984375 69.820312 Z M 40.195312 70.808594 C 39.65625 71.078125 39.65625 71.078125 39.566406 70.371094 C 39.800781 70.53125 39.976562 70.65625 40.195312 70.808594 Z M 39.625 66.339844 C 40.207031 66.019531 40.511719 66.332031 40.75 66.78125 C 40.273438 66.945312 39.863281 66.945312 39.625 66.339844 Z M 40.074219 64.554688 C 39.917969 64.957031 39.828125 65.171875 39.742188 65.394531 C 39.648438 65.367188 39.550781 65.34375 39.457031 65.324219 C 39.402344 65.15625 39.355469 64.992188 39.277344 64.742188 C 39.511719 64.6875 39.6875 64.644531 40.074219 64.554688 Z M 40.644531 60.535156 C 40.113281 60.777344 40.113281 60.777344 39.964844 60.164062 C 40.222656 60.300781 40.402344 60.398438 40.644531 60.535156 Z M 38.90625 57.898438 C 39.761719 57.949219 39.800781 58.90625 40.515625 59.273438 C 39.335938 59.324219 39.164062 59.160156 38.90625 57.898438 Z M 38.601562 38.3125 C 39.023438 38.355469 39.203125 38.375 39.410156 38.398438 C 39.167969 38.867188 39.167969 38.867188 38.601562 38.3125 Z M 39.203125 43.253906 C 39.035156 42.917969 38.980469 42.800781 38.820312 42.488281 C 39.160156 42.539062 39.28125 42.550781 39.703125 42.617188 C 39.488281 42.894531 39.394531 43.011719 39.203125 43.253906 Z M 39.71875 56.066406 C 39.511719 55.699219 39.394531 55.484375 39.199219 55.132812 C 39.5625 55.078125 39.78125 55.046875 40.171875 54.996094 C 39.996094 55.40625 39.894531 55.644531 39.71875 56.066406 Z M 41.796875 67.113281 C 42.472656 67.617188 42.261719 68.160156 42.148438 68.832031 C 41.683594 68.523438 41.335938 68.292969 40.890625 67.992188 C 41.214844 67.675781 41.503906 67.398438 41.796875 67.113281 Z M 40.722656 58.746094 C 40.429688 58.605469 40.195312 58.488281 39.957031 58.371094 C 39.949219 57.996094 39.976562 57.6875 39.917969 57.402344 C 39.875 57.195312 39.71875 57.019531 39.609375 56.828125 C 39.683594 56.761719 39.75 56.691406 39.824219 56.625 C 40.210938 56.96875 40.597656 57.316406 40.980469 57.660156 C 40.886719 58.0625 40.816406 58.347656 40.722656 58.746094 Z M 38.433594 64.21875 C 38.585938 64.578125 38.691406 64.804688 38.800781 65.070312 C 38.585938 65.269531 38.40625 65.441406 38.140625 65.6875 C 37.804688 65.441406 37.464844 65.203125 37.144531 64.972656 C 37.300781 64.046875 37.898438 64.355469 38.433594 64.21875 Z M 36.882812 63.265625 C 36.949219 63.109375 37.011719 62.957031 37.078125 62.800781 C 37.132812 62.820312 37.1875 62.835938 37.242188 62.847656 C 37.265625 63.011719 37.285156 63.171875 37.324219 63.449219 C 37.113281 63.363281 36.996094 63.316406 36.882812 63.265625 Z M 36.234375 70.152344 C 35.75 70.253906 35.582031 70.054688 35.496094 69.636719 C 36.007812 69.492188 36.171875 69.695312 36.234375 70.152344 Z M 36.609375 45.09375 C 36.539062 44.730469 36.496094 44.519531 36.433594 44.21875 C 36.792969 44.171875 37.089844 44.125 37.4375 44.078125 C 37.464844 44.667969 37.066406 44.773438 36.609375 45.09375 Z M 38.292969 57.523438 C 38.011719 57.769531 37.851562 57.910156 37.691406 58.046875 C 37.605469 57.929688 37.527344 57.875 37.527344 57.820312 C 37.515625 57.371094 37.703125 57.238281 38.292969 57.523438 Z M 37.703125 50.386719 C 37.519531 50.351562 37.335938 50.320312 37.152344 50.289062 C 37.164062 50.1875 37.179688 50.089844 37.191406 49.992188 C 37.375 50.023438 37.558594 50.058594 37.742188 50.09375 C 37.730469 50.191406 37.714844 50.289062 37.703125 50.386719 Z M 34.738281 54.246094 C 34.757812 54.132812 34.773438 54.015625 34.789062 53.902344 C 35.511719 53.714844 36.234375 53.527344 36.953125 53.339844 C 36.988281 53.414062 37.027344 53.484375 37.066406 53.558594 C 36.707031 54.03125 36.355469 54.507812 35.996094 54.988281 C 35.542969 54.726562 35.140625 54.488281 34.738281 54.246094 Z M 34.746094 63.589844 C 34.457031 63.480469 34.175781 63.371094 33.851562 63.253906 C 34 62.796875 34.101562 62.453125 34.269531 61.921875 C 34.53125 62.488281 34.71875 62.894531 34.910156 63.296875 Z M 34.839844 75.6875 C 34.417969 75.816406 34.097656 75.914062 33.664062 76.039062 C 34.023438 75.078125 34.101562 75.050781 34.839844 75.6875 Z M 33.089844 65.214844 C 33.265625 65.460938 33.4375 65.699219 33.65625 66.015625 C 32.992188 66.015625 32.992188 66.015625 33.089844 65.214844 Z M 32.9375 68.074219 C 33.355469 67.65625 33.578125 67.695312 33.757812 68.238281 C 33.539062 68.195312 33.320312 68.152344 32.9375 68.074219 Z M 33.078125 75.679688 C 33.195312 76.027344 33.25 76.183594 33.328125 76.40625 C 33.0625 76.445312 32.882812 76.46875 32.703125 76.5 C 32.660156 76.441406 32.617188 76.382812 32.574219 76.324219 C 32.710938 76.148438 32.847656 75.976562 33.078125 75.679688 Z M 32.59375 65.765625 C 32.226562 65.941406 32.058594 66.023438 31.792969 66.152344 C 31.773438 65.804688 31.761719 65.570312 31.742188 65.164062 C 32.050781 65.382812 32.234375 65.511719 32.59375 65.765625 Z M 31.675781 41.265625 C 31.699219 41.050781 31.722656 40.835938 31.757812 40.53125 C 32.300781 40.835938 32.242188 41.054688 31.675781 41.265625 Z M 31.484375 77.257812 C 31.210938 76.832031 31.289062 76.558594 31.707031 76.273438 C 32.125 76.824219 31.925781 77.054688 31.484375 77.257812 Z M 31.828125 73.433594 C 31.691406 73.582031 31.523438 73.761719 31.277344 74.019531 C 30.6875 73.03125 31.65625 72.972656 31.734375 72.402344 C 32.082031 72.519531 32.335938 72.605469 32.648438 72.710938 C 32.652344 73.042969 32.660156 73.324219 32.664062 73.75 C 32.324219 73.625 32.085938 73.53125 31.828125 73.433594 Z M 36.761719 77.097656 C 36.027344 77.203125 35.707031 76.789062 35.269531 76.457031 C 35.324219 76.175781 35.382812 75.910156 35.4375 75.632812 C 35.535156 75.601562 35.636719 75.566406 35.734375 75.527344 C 36.046875 76.007812 36.363281 76.484375 36.761719 77.097656 Z M 36.398438 72.523438 C 36.203125 72.414062 36.019531 72.3125 35.832031 72.210938 C 35.613281 72.460938 35.390625 72.710938 35.035156 73.117188 C 34.984375 72.28125 35.320312 72.15625 35.738281 72.128906 C 36.011719 71.875 36.289062 71.625 36.5625 71.375 C 36.558594 71.371094 36.550781 71.367188 36.550781 71.359375 L 36.550781 71.355469 C 36.414062 71.257812 36.273438 71.160156 35.984375 70.953125 C 36.3125 70.878906 36.511719 70.835938 36.902344 70.742188 C 36.714844 71.078125 36.636719 71.21875 36.550781 71.355469 C 36.558594 71.359375 36.5625 71.363281 36.566406 71.363281 C 36.566406 71.367188 36.5625 71.367188 36.5625 71.375 C 36.6875 71.539062 36.8125 71.707031 36.96875 71.914062 C 36.765625 72.128906 36.601562 72.308594 36.398438 72.523438 Z M 38.90625 71.34375 C 38.898438 71.539062 38.894531 71.738281 38.886719 71.929688 C 38.8125 71.929688 38.734375 71.9375 38.660156 71.941406 C 38.632812 71.742188 38.601562 71.539062 38.578125 71.339844 C 38.683594 71.339844 38.796875 71.339844 38.90625 71.34375 Z M 38.503906 71.101562 C 38.246094 70.65625 37.742188 70.441406 37.75 69.703125 C 38.234375 69.851562 38.523438 69.941406 38.945312 70.078125 C 38.773438 70.472656 38.640625 70.789062 38.503906 71.101562 Z M 42.554688 78.8125 C 42.464844 78.585938 42.40625 78.433594 42.355469 78.289062 C 42.453125 78.214844 42.5 78.179688 42.578125 78.121094 C 42.960938 78.308594 42.871094 78.503906 42.554688 78.8125 Z M 41.917969 69.75 C 42.253906 69.414062 42.453125 69.214844 42.691406 68.96875 C 43.066406 69.027344 43.445312 69.082031 43.917969 69.148438 C 43.675781 69.632812 43.484375 70.015625 43.222656 70.53125 C 42.84375 70.304688 42.457031 70.074219 41.917969 69.75 Z M 25.628906 35.1875 L 49.832031 35.1875 L 54.289062 75.78125 L 44.765625 75.78125 L 43.695312 66.105469 C 43.6875 66.117188 43.683594 66.121094 43.675781 66.132812 C 43.570312 66.386719 43.46875 66.644531 43.3125 67.027344 C 43.0625 66.757812 42.929688 66.613281 42.75 66.417969 C 42.996094 66.207031 43.1875 66.054688 43.375 65.894531 C 43.429688 65.699219 43.484375 65.503906 43.550781 65.25 C 43.570312 65.265625 43.585938 65.277344 43.605469 65.289062 L 40.59375 38.121094 L 30.949219 38.121094 C 31.003906 38.261719 31.066406 38.425781 31.144531 38.628906 C 30.746094 38.417969 30.515625 38.296875 30.171875 38.121094 L 25.628906 38.121094 Z M 25.695312 34.285156 C 25.773438 34.203125 26.113281 34.207031 26.53125 34.207031 L 26.773438 34.207031 C 27.296875 34.207031 27.398438 34.550781 27.417969 34.699219 L 25.628906 34.699219 C 25.628906 34.46875 25.652344 34.332031 25.695312 34.285156 Z M 66.257812 79.6875 L 63.296875 79.691406 L 63.296875 77.738281 C 63.566406 77.738281 63.785156 77.515625 63.785156 77.25 C 63.785156 76.980469 63.566406 76.757812 63.296875 76.757812 L 58.894531 76.757812 C 58.625 76.757812 58.402344 76.980469 58.402344 77.25 C 58.402344 77.515625 58.625 77.738281 58.894531 77.738281 L 58.894531 79.691406 L 56.9375 79.691406 L 56.9375 77.738281 C 57.207031 77.738281 57.425781 77.515625 57.425781 77.25 C 57.425781 76.980469 57.207031 76.757812 56.9375 76.757812 L 52.535156 76.757812 C 52.265625 76.757812 52.042969 76.980469 52.042969 77.25 C 52.042969 77.515625 52.265625 77.738281 52.535156 77.738281 L 52.535156 79.695312 L 50.578125 79.695312 L 50.578125 77.738281 C 50.847656 77.738281 51.066406 77.515625 51.066406 77.25 C 51.066406 76.980469 50.847656 76.757812 50.578125 76.757812 L 46.175781 76.757812 C 45.90625 76.757812 45.683594 76.980469 45.683594 77.25 C 45.683594 77.515625 45.90625 77.738281 46.175781 77.738281 L 46.175781 79.695312 L 45.199219 79.695312 L 44.824219 76.269531 L 54.835938 76.269531 L 50.273438 34.695312 L 27.90625 34.695312 C 27.882812 34.339844 27.625 33.71875 26.773438 33.71875 L 26.539062 33.71875 C 25.917969 33.71875 25.574219 33.714844 25.351562 33.9375 C 25.175781 34.113281 25.140625 34.371094 25.140625 34.695312 L 19.59375 34.695312 C 19.566406 34.339844 19.308594 33.71875 18.457031 33.71875 L 18.222656 33.71875 C 17.601562 33.71875 17.257812 33.714844 17.035156 33.9375 C 16.855469 34.113281 16.824219 34.371094 16.824219 34.695312 L 0.09375 34.695312 L 4.476562 76.050781 L 4.5 76.269531 L 11.296875 76.269531 L 11.921875 82.136719 L 27.3125 82.136719 C 27.371094 81.742188 27.445312 81.757812 27.992188 81.859375 C 27.863281 81.949219 27.730469 82.042969 27.597656 82.136719 L 34.433594 82.136719 C 34.527344 82.082031 34.632812 82.015625 34.761719 81.945312 C 34.757812 82.015625 34.746094 82.082031 34.738281 82.136719 L 66.257812 82.136719 C 66.511719 82.136719 66.71875 81.929688 66.71875 81.683594 L 66.71875 80.132812 C 66.71875 79.886719 66.511719 79.6875 66.257812 79.6875 "/></g><path style=" stroke:none;fill-rule:nonzero;fill:#100f0d;fill-opacity:1;" d="M 88.9375 28.625 C 85.480469 28.339844 87.988281 24.144531 88.996094 22.535156 C 89.164062 22.269531 88.738281 22.023438 88.574219 22.289062 C 87.332031 24.273438 84.925781 28.785156 88.9375 29.113281 C 89.25 29.136719 89.25 28.648438 88.9375 28.625 "/><path style=" stroke:none;fill-rule:nonzero;fill:#100f0d;fill-opacity:1;" d="M 92.257812 30.382812 C 91.460938 31.503906 89.636719 31.480469 88.53125 30.882812 C 88.253906 30.730469 88.003906 31.152344 88.28125 31.304688 C 89.644531 32.039062 91.71875 31.980469 92.679688 30.632812 C 92.863281 30.375 92.4375 30.128906 92.257812 30.382812 "/><path style=" stroke:none;fill-rule:nonzero;fill:#100f0d;fill-opacity:1;" d="M 94.5 19.683594 C 93.75 19.347656 92.886719 19.277344 92.089844 19.484375 C 91.925781 19.527344 90.960938 19.804688 91.210938 20.136719 C 91.460938 20.46875 92.148438 20.363281 92.503906 20.371094 C 93.113281 20.378906 93.726562 20.417969 94.320312 20.574219 C 94.550781 20.636719 95.339844 21.003906 95.53125 20.722656 C 95.808594 20.320312 94.730469 19.785156 94.5 19.683594 "/><path style=" stroke:none;fill-rule:nonzero;fill:#100f0d;fill-opacity:1;" d="M 92.832031 22.039062 C 92.460938 21.972656 92.070312 22.394531 91.960938 22.988281 C 91.851562 23.578125 92.066406 24.109375 92.4375 24.179688 C 92.8125 24.25 93.199219 23.824219 93.308594 23.234375 C 93.417969 22.644531 93.203125 22.109375 92.832031 22.039062 "/><g clip-rule="nonzero" clip-path="url(#316267d558)"><path style=" stroke:none;fill-rule:nonzero;fill:#100f0d;fill-opacity:1;" d="M 101.285156 33.878906 L 101.246094 33.921875 C 100.507812 34.753906 100.839844 35.976562 101.664062 36.53125 C 101.570312 36.574219 101.515625 36.675781 101.519531 36.785156 C 101.519531 36.792969 101.515625 36.804688 101.515625 36.820312 L 101.515625 36.832031 L 101.5 36.832031 L 101.511719 36.839844 C 101.507812 37.121094 101.5 37.285156 101.5 37.492188 C 101.496094 37.53125 101.496094 37.570312 101.496094 37.613281 C 101.492188 37.964844 101.488281 38.285156 101.460938 38.769531 C 101.457031 38.867188 101.453125 38.96875 101.441406 39.078125 C 101.398438 39.714844 101.34375 40.5 101.921875 41.003906 C 101.578125 41.144531 101.03125 41.339844 100.3125 41.519531 C 98.285156 42.023438 94.925781 42.390625 91.09375 40.914062 C 91.589844 40.648438 92.070312 40.140625 92.265625 39.765625 C 92.632812 39.085938 92.886719 38.261719 92.910156 37.792969 C 92.914062 37.773438 92.925781 37.757812 92.925781 37.738281 C 92.929688 37.726562 92.925781 37.707031 92.925781 37.691406 C 92.910156 37.578125 92.828125 37.484375 92.710938 37.46875 C 91.394531 37.320312 90.195312 36.882812 88.933594 36.097656 C 87.691406 35.316406 86.632812 34.136719 85.886719 32.667969 C 85.214844 31.355469 84.855469 29.773438 84.835938 28.074219 C 84.820312 26.679688 84.863281 25.414062 84.972656 24.210938 C 84.992188 23.980469 85.019531 23.757812 85.046875 23.53125 C 85.128906 23.757812 85.28125 23.917969 85.46875 23.953125 C 85.839844 24.019531 86.234375 23.597656 86.339844 23.007812 C 86.449219 22.414062 86.234375 21.882812 85.863281 21.8125 C 85.636719 21.777344 85.40625 21.910156 85.234375 22.160156 C 85.363281 21.382812 85.523438 20.644531 85.714844 19.945312 C 85.980469 19.980469 86.238281 20.019531 86.492188 20.082031 C 86.722656 20.144531 87.515625 20.511719 87.707031 20.234375 C 87.980469 19.832031 86.902344 19.296875 86.675781 19.191406 C 86.457031 19.097656 86.234375 19.035156 86.007812 18.984375 C 86.179688 18.457031 86.375 17.964844 86.589844 17.492188 L 86.722656 17.199219 C 87.285156 15.949219 87.925781 14.53125 88.703125 13.46875 C 88.71875 13.449219 88.734375 13.4375 88.75 13.417969 C 89.839844 13.328125 90.871094 12.859375 91.515625 11.925781 C 91.332031 12.410156 91.660156 12.972656 91.992188 13.339844 C 92.808594 14.195312 94.605469 13.714844 95.441406 12.875 C 94.589844 14.1875 94.632812 15.855469 95.222656 17.375 C 95.230469 17.378906 95.222656 17.382812 95.230469 17.382812 C 95.597656 20.441406 97.59375 23.300781 100.953125 22.539062 C 101.179688 23.84375 102.316406 25.03125 103.59375 25.144531 C 103.597656 25.257812 103.683594 25.402344 103.785156 25.402344 L 103.789062 25.402344 C 103.789062 25.402344 104.054688 25.433594 104.175781 25.480469 C 104.757812 25.703125 105.214844 26.121094 105.433594 26.847656 C 105.644531 27.535156 105.59375 28.265625 105.320312 28.847656 C 105.199219 29.109375 105.03125 29.335938 104.828125 29.523438 C 104.523438 29.785156 103.992188 29.929688 103.511719 29.902344 C 103.414062 29.902344 103.332031 29.886719 103.246094 29.878906 C 103.238281 29.875 103.226562 29.867188 103.226562 29.867188 C 103.207031 29.867188 103.1875 29.875 103.167969 29.875 L 103.140625 29.875 C 101.445312 29.859375 99.523438 32.839844 101.285156 33.878906 Z M 102.40625 41.335938 C 103.203125 41.765625 104.21875 41.878906 105.214844 41.984375 C 105.808594 42.046875 106.378906 42.105469 106.855469 42.238281 C 108.316406 42.628906 110.0625 43.765625 111.105469 44.988281 C 115.160156 49.761719 114.421875 57.148438 113.515625 62.285156 C 113.328125 63.332031 112.027344 70.148438 111.734375 71.238281 C 107.6875 71.15625 100.96875 69.109375 93.9375 63.605469 C 95.773438 61.496094 98.3125 57.464844 99.660156 52.734375 C 99.695312 52.609375 99.621094 52.472656 99.492188 52.4375 C 99.359375 52.390625 99.226562 52.472656 99.191406 52.601562 C 97.988281 56.8125 95.664062 60.785156 93.765625 63.058594 C 93.660156 63.1875 93.554688 63.304688 93.453125 63.421875 C 91.371094 64.105469 90.214844 63.816406 86.667969 62.429688 C 84.738281 61.671875 82.230469 60.238281 79.390625 58.289062 C 80.601562 55.082031 81.660156 52.6875 81.835938 52.386719 C 81.839844 52.382812 81.84375 52.378906 81.84375 52.371094 C 81.933594 52.269531 81.921875 52.117188 81.816406 52.03125 C 81.757812 51.976562 81.675781 51.957031 81.597656 51.980469 C 81.28125 52.066406 79.738281 56.03125 78.980469 58.007812 C 77.671875 57.097656 76.296875 56.085938 74.875 54.976562 C 75.59375 53.160156 76.527344 51.125 77.667969 49.203125 C 78.25 49.140625 78.757812 48.96875 78.859375 48.523438 C 78.886719 48.402344 78.859375 48.28125 78.789062 48.171875 C 78.726562 48.082031 78.617188 48.003906 78.464844 47.933594 C 79.160156 46.890625 79.914062 45.90625 80.730469 45.050781 C 82.78125 42.910156 84.953125 41.804688 87.183594 41.773438 L 87.28125 41.769531 C 88.25 41.761719 89.4375 41.734375 90.289062 41.109375 C 92.613281 42.117188 94.800781 42.449219 96.65625 42.449219 C 98.019531 42.449219 99.203125 42.273438 100.144531 42.058594 C 101.308594 41.792969 102.101562 41.464844 102.40625 41.335938 Z M 111.210938 81.648438 L 73.191406 81.648438 L 76.292969 68.089844 C 80.875 73.539062 86.417969 77.972656 93.648438 77.972656 C 94.171875 77.972656 94.707031 77.949219 95.25 77.898438 C 99.699219 77.453125 105.160156 74.980469 107.003906 71.109375 C 107.890625 71.355469 108.726562 71.535156 109.503906 71.65625 Z M 69.898438 58.472656 C 69.394531 57.722656 68.898438 56.984375 68.402344 56.261719 C 68.390625 56.226562 68.375 56.199219 68.34375 56.171875 C 68.304688 56.144531 68.257812 56.125 68.1875 56.132812 C 68.136719 56.140625 68.101562 56.132812 68.050781 56.140625 C 66.832031 56.257812 65.839844 55.6875 65.390625 54.523438 C 65.179688 53.96875 64.910156 53.375 64.414062 53.011719 C 63.613281 52.421875 62.160156 52.296875 62.027344 51.117188 C 61.878906 49.734375 64.8125 51.253906 65.199219 51.582031 C 65.292969 51.660156 65.398438 51.65625 65.488281 51.609375 C 65.589844 51.550781 65.652344 51.433594 65.609375 51.328125 C 65.601562 51.292969 65.574219 51.261719 65.546875 51.234375 C 65.082031 50.84375 64.5 50.480469 63.882812 50.269531 C 63.664062 50.195312 63.4375 50.148438 63.214844 50.117188 C 63.007812 50.09375 62.800781 50.078125 62.597656 50.105469 C 61.839844 49.214844 63.128906 48.867188 63.710938 48.867188 C 64.527344 48.867188 65.328125 49.328125 66 49.738281 C 66.269531 49.898438 66.519531 49.476562 66.25 49.3125 C 65.234375 48.699219 64.074219 48.183594 62.914062 48.496094 C 62.558594 47.332031 63.828125 47.222656 64.660156 47.375 C 65.507812 47.535156 66.328125 47.917969 67.058594 48.363281 C 67.332031 48.523438 67.578125 48.105469 67.308594 47.941406 C 66.714844 47.582031 66.046875 47.253906 65.351562 47.042969 C 64.886719 46.875 64.148438 46.675781 62.875 46.867188 C 62.660156 46.894531 62.34375 46.679688 62.273438 46.375 C 62.191406 46.019531 62.511719 45.699219 63.164062 45.492188 C 63.921875 45.253906 65.203125 45.339844 66.980469 45.757812 C 69.71875 46.375 70.351562 49.28125 70.863281 51.621094 C 70.898438 51.789062 70.9375 51.949219 70.972656 52.113281 C 70.996094 52.222656 71.019531 52.339844 71.042969 52.441406 L 71.050781 52.441406 C 71.0625 52.492188 71.082031 52.539062 71.128906 52.574219 L 71.132812 52.578125 C 77.253906 57.703125 82.847656 61.460938 86.492188 62.882812 C 89.914062 64.222656 91.273438 64.621094 93.476562 63.929688 C 97.972656 67.480469 102.363281 69.667969 106.035156 70.828125 L 106.480469 71.070312 C 104.636719 74.679688 99.449219 76.988281 95.199219 77.410156 C 83.371094 78.457031 76.214844 67.839844 69.898438 58.472656 Z M 67.898438 43.949219 C 68.035156 43.84375 68.128906 43.847656 68.183594 43.863281 C 68.40625 43.921875 68.683594 44.289062 68.890625 44.8125 C 69.113281 45.394531 69.324219 46.03125 69.523438 46.679688 C 69.488281 46.675781 69.460938 46.675781 69.429688 46.671875 C 68.945312 46.117188 68.328125 45.671875 67.535156 45.410156 L 67.53125 45.375 C 67.53125 44.859375 67.527344 44.226562 67.898438 43.949219 Z M 70.679688 48.90625 C 70.644531 48.792969 70.613281 48.675781 70.578125 48.5625 C 73.222656 48.953125 75.46875 49.242188 76.886719 49.242188 L 77.050781 49.242188 C 75.980469 51.105469 75.117188 53.019531 74.46875 54.65625 C 73.5 53.894531 72.511719 53.09375 71.503906 52.25 C 71.449219 52.011719 71.394531 51.765625 71.339844 51.511719 C 71.175781 50.769531 71 49.96875 70.75 49.195312 L 70.757812 49.195312 Z M 72.488281 47.496094 C 75.40625 47.808594 78.167969 48.101562 78.382812 48.414062 C 78.367188 48.496094 78.207031 48.753906 76.886719 48.753906 C 76.15625 48.753906 75.207031 48.675781 74.085938 48.546875 C 72.96875 48.414062 71.683594 48.234375 70.296875 48.03125 C 70.164062 47.742188 70.011719 47.46875 69.839844 47.207031 C 70.785156 47.316406 71.675781 47.410156 72.488281 47.496094 Z M 83.410156 32.011719 C 83.273438 31.855469 83.117188 31.617188 83.003906 31.359375 C 83.109375 31.503906 83.210938 31.636719 83.308594 31.734375 C 83.683594 32.125 84.550781 32.328125 85.078125 32.046875 C 85.171875 32.285156 85.269531 32.515625 85.382812 32.742188 C 84.632812 33.019531 83.90625 32.570312 83.410156 32.011719 Z M 100.9375 21.492188 L 101 21.433594 C 100.941406 21.632812 100.917969 21.839844 100.914062 22.042969 C 98.417969 22.648438 96.800781 21.070312 96.085938 18.972656 C 97.257812 20.625 99.085938 21.78125 100.9375 21.492188 Z M 99.183594 18.484375 C 99.261719 18.542969 99.339844 18.601562 99.417969 18.660156 C 99.269531 18.847656 99.128906 19.03125 98.980469 19.210938 C 98.925781 19.175781 98.875 19.140625 98.820312 19.101562 C 98.941406 18.894531 99.058594 18.691406 99.183594 18.484375 Z M 102.65625 8.429688 C 102.980469 8.382812 103.300781 8.335938 103.816406 8.265625 C 103.605469 8.585938 103.5 8.746094 103.363281 8.960938 C 103.101562 8.835938 102.871094 8.726562 102.640625 8.617188 Z M 105.058594 15.054688 C 104.75 15.976562 104.75 15.976562 103.898438 15.792969 C 103.886719 15.605469 103.878906 15.398438 103.867188 15.148438 C 104.265625 15.117188 104.605469 15.089844 105.058594 15.054688 Z M 105.117188 11.878906 C 105.1875 11.816406 105.296875 11.800781 105.546875 11.703125 C 105.414062 11.960938 105.371094 12.117188 105.273438 12.210938 C 105.199219 12.28125 105.0625 12.277344 104.714844 12.375 C 104.953125 12.070312 105.023438 11.960938 105.117188 11.878906 Z M 106.445312 10.449219 C 106.308594 10.691406 106.207031 10.875 106.039062 11.160156 C 105.78125 10.769531 105.648438 10.570312 105.488281 10.324219 C 105.859375 9.992188 106.085938 10.28125 106.445312 10.449219 Z M 105.816406 13.699219 C 105.746094 13.480469 105.699219 13.3125 105.632812 13.097656 C 106.074219 12.9375 106.363281 12.933594 106.460938 13.5625 C 106.242188 13.609375 106.050781 13.652344 105.816406 13.699219 Z M 107.824219 26.027344 C 107.683594 26.148438 107.539062 26.269531 107.289062 26.480469 C 107.234375 25.914062 107.292969 25.683594 107.824219 26.027344 Z M 60.300781 46.191406 C 60.386719 46.179688 60.503906 46.171875 60.667969 46.171875 C 60.957031 46.171875 61.339844 46.195312 61.773438 46.234375 C 61.769531 46.34375 61.785156 46.4375 61.796875 46.488281 C 61.808594 46.539062 61.828125 46.582031 61.84375 46.625 C 61.125 46.46875 60.570312 46.324219 60.300781 46.191406 Z M 57.976562 46.832031 C 57.855469 46.355469 57.464844 45.945312 57.054688 45.546875 C 56.789062 45.285156 56.867188 44.886719 56.96875 44.476562 C 57.453125 44.449219 57.957031 44.492188 58.414062 44.675781 C 58.996094 44.898438 59.429688 45.328125 59.71875 45.941406 C 59.691406 45.984375 59.667969 46.03125 59.660156 46.089844 C 59.652344 46.175781 59.667969 46.261719 59.722656 46.339844 C 59.40625 46.496094 58.667969 46.816406 57.976562 46.832031 Z M 81.347656 17.355469 C 81.195312 17.132812 81.042969 16.910156 80.886719 16.679688 C 81.003906 16.617188 81.082031 16.542969 81.117188 16.5625 C 81.46875 16.78125 81.464844 16.785156 81.347656 17.355469 Z M 79.785156 23.03125 C 79.757812 23.167969 79.730469 23.3125 79.707031 23.449219 C 78.109375 23.3125 77.140625 21.460938 76.773438 20 C 76.578125 19.226562 76.601562 18.492188 76.773438 17.792969 C 76.5625 20.027344 77.476562 22.277344 79.796875 23.007812 C 79.796875 23.019531 79.792969 23.023438 79.785156 23.03125 Z M 109.523438 33.914062 C 109.816406 34.078125 110.03125 34.199219 110.246094 34.320312 C 110.226562 34.382812 110.207031 34.453125 110.183594 34.515625 C 109.964844 34.527344 109.742188 34.535156 109.460938 34.546875 C 109.480469 34.335938 109.492188 34.203125 109.523438 33.914062 Z M 110.515625 10.226562 C 110.511719 10.722656 110.507812 11.027344 110.507812 11.519531 C 110.183594 11.21875 110.011719 11.058594 109.773438 10.839844 C 110.011719 10.640625 110.1875 10.496094 110.515625 10.226562 Z M 110.046875 32.144531 C 109.832031 31.597656 109.957031 31.308594 110.460938 31.097656 C 110.570312 31.3125 110.65625 31.5 110.773438 31.742188 C 110.519531 31.886719 110.3125 31.996094 110.046875 32.144531 Z M 112.769531 21.652344 C 112.8125 21.703125 112.84375 21.75 112.878906 21.800781 C 112.71875 21.9375 112.5625 22.074219 112.398438 22.210938 C 112.359375 22.15625 112.316406 22.101562 112.277344 22.050781 C 112.445312 21.917969 112.609375 21.785156 112.769531 21.652344 Z M 114.785156 10.777344 C 114.792969 10.867188 114.792969 10.960938 114.796875 11.054688 C 114.328125 11.152344 113.863281 11.25 113.328125 11.359375 C 113.109375 11.128906 112.894531 10.90625 112.542969 10.542969 C 113.4375 10.464844 114.125 10.453125 114.785156 10.777344 Z M 113.085938 14.976562 C 112.902344 14.933594 112.722656 14.890625 112.542969 14.851562 C 112.566406 14.742188 112.589844 14.640625 112.613281 14.535156 C 112.792969 14.609375 112.96875 14.683594 113.144531 14.757812 C 113.125 14.832031 113.105469 14.902344 113.085938 14.976562 Z M 101.949219 38.8125 C 101.976562 38.269531 101.980469 37.941406 101.988281 37.539062 C 101.988281 37.390625 101.996094 37.246094 101.996094 37.078125 C 104.078125 37.675781 106.351562 38.160156 108.441406 37.382812 C 110.554688 36.59375 111.769531 34.457031 112.632812 32.515625 C 112.636719 32.511719 112.636719 32.507812 112.636719 32.507812 C 116.972656 32.457031 119.089844 26.578125 117.339844 23.007812 C 118.324219 21.316406 117.960938 18.933594 115.949219 18.433594 C 118.195312 12.722656 113.835938 6.957031 108.472656 4.984375 C 106.542969 2.453125 103.632812 0.347656 100.386719 0.0351562 C 97.8125 -0.207031 95.519531 0.851562 93.375 2.199219 C 89.257812 1.238281 82.757812 2.394531 83.058594 7.789062 C 83.0625 7.8125 83.066406 7.835938 83.078125 7.855469 C 80.5625 8.1875 78.382812 10.390625 79.375 13.046875 C 79.394531 13.089844 79.417969 13.125 79.453125 13.148438 C 78.804688 13.539062 78.257812 14.085938 77.835938 14.722656 C 76.507812 16.488281 75.761719 18.394531 76.453125 20.679688 C 76.914062 22.207031 78.0625 23.75 79.648438 23.921875 C 79.566406 24.921875 79.75 25.902344 80.574219 26.617188 C 80.695312 26.726562 80.824219 26.816406 80.953125 26.902344 C 80.964844 27.398438 81.21875 27.988281 81.375 28.34375 C 81.625 28.910156 82.089844 29.417969 82.648438 29.777344 C 82.589844 29.898438 82.566406 30.03125 82.566406 30.167969 C 82.242188 30.703125 82.441406 31.449219 82.8125 32.027344 C 83.410156 32.957031 84.53125 33.582031 85.605469 33.171875 C 86.386719 34.585938 87.4375 35.738281 88.675781 36.511719 C 89.242188 36.863281 89.800781 37.148438 90.355469 37.371094 C 90.367188 37.847656 90.375 38.316406 90.394531 38.789062 C 90.402344 38.894531 90.410156 39 90.421875 39.113281 C 90.460938 39.699219 90.503906 40.308594 90.097656 40.648438 C 89.378906 41.257812 88.214844 41.269531 87.273438 41.28125 L 87.171875 41.285156 C 83.316406 41.339844 80.253906 44.285156 77.96875 47.753906 C 77.054688 47.507812 75.363281 47.316406 72.539062 47.011719 C 71.773438 46.929688 70.941406 46.839844 70.0625 46.742188 C 69.839844 46.007812 69.605469 45.289062 69.355469 44.628906 C 69.195312 44.230469 68.851562 43.53125 68.328125 43.394531 C 68.164062 43.34375 67.921875 43.339844 67.644531 43.558594 C 67.121094 43.945312 67.121094 44.695312 67.125 45.292969 C 67.109375 45.285156 67.101562 45.28125 67.089844 45.28125 C 65.203125 44.835938 63.867188 44.753906 63.015625 45.027344 C 62.398438 45.222656 62.082031 45.496094 61.921875 45.753906 C 61.425781 45.710938 61 45.683594 60.667969 45.683594 C 60.527344 45.683594 60.332031 45.6875 60.148438 45.714844 C 59.808594 45.003906 59.289062 44.488281 58.589844 44.214844 C 56.796875 43.519531 54.507812 44.570312 54.410156 44.617188 C 54.339844 44.648438 54.289062 44.71875 54.273438 44.796875 C 54.261719 44.875 54.285156 44.953125 54.34375 45.011719 C 54.402344 45.070312 55.800781 46.464844 56.945312 47.089844 C 57.246094 47.257812 57.582031 47.320312 57.917969 47.320312 C 58.980469 47.320312 60.066406 46.714844 60.125 46.679688 C 60.140625 46.671875 60.152344 46.65625 60.164062 46.644531 C 60.574219 46.828125 61.269531 47.011719 62.378906 47.234375 C 62.46875 47.28125 62.566406 47.316406 62.664062 47.335938 C 62.390625 47.6875 62.300781 48.167969 62.457031 48.660156 C 61.824219 48.964844 61.804688 49.691406 62.09375 50.214844 C 61.308594 50.503906 61.402344 51.679688 61.941406 52.167969 C 62.429688 52.621094 63.066406 52.832031 63.667969 53.105469 C 64.652344 53.558594 64.730469 54.492188 65.179688 55.332031 C 65.707031 56.304688 66.988281 56.730469 68.058594 56.628906 C 68.535156 57.316406 69.007812 58.027344 69.492188 58.746094 C 70.402344 60.085938 71.34375 61.480469 72.324219 62.875 C 71.03125 66.460938 68.476562 75.082031 67.957031 81.875 C 67.945312 82.011719 68.046875 82.128906 68.179688 82.136719 C 68.1875 82.136719 68.195312 82.136719 68.199219 82.136719 C 68.328125 82.136719 68.433594 82.042969 68.445312 81.914062 C 68.96875 75.085938 71.464844 66.953125 72.683594 63.382812 L 72.726562 63.441406 C 73.734375 64.855469 74.785156 66.261719 75.902344 67.617188 L 72.648438 81.839844 C 72.644531 81.859375 72.640625 81.875 72.640625 81.894531 C 72.640625 81.949219 72.660156 82.003906 72.695312 82.046875 C 72.742188 82.105469 72.808594 82.136719 72.890625 82.136719 L 111.5 82.136719 C 111.574219 82.136719 111.640625 82.105469 111.6875 82.050781 C 111.734375 81.996094 111.753906 81.921875 111.746094 81.855469 L 110.011719 71.730469 C 110.691406 71.820312 111.328125 71.867188 111.902344 71.867188 L 111.921875 71.867188 C 112.179688 71.867188 112.199219 71.703125 113.066406 67.304688 C 113.496094 65.109375 113.929688 62.746094 113.996094 62.363281 C 114.917969 57.132812 115.667969 49.601562 111.476562 44.667969 C 110.375 43.378906 108.53125 42.183594 106.984375 41.765625 C 106.464844 41.628906 105.882812 41.5625 105.261719 41.5 C 104.3125 41.398438 103.335938 41.292969 102.621094 40.898438 C 102.582031 40.855469 102.539062 40.824219 102.484375 40.816406 C 102.402344 40.761719 102.324219 40.710938 102.25 40.648438 C 101.847656 40.3125 101.890625 39.710938 101.929688 39.125 C 101.941406 39.011719 101.945312 38.914062 101.949219 38.8125 "/></g></g></svg>