<svg xmlns="http://www.w3.org/2000/svg" xmlns:xlink="http://www.w3.org/1999/xlink" width="300" zoomAndPan="magnify" viewBox="0 0 224.87999 112.499997" height="150" preserveAspectRatio="xMidYMid meet" version="1.2"><defs><clipPath id="3e594700c3"><path d="M 31.203125 0 L 193.976562 0 L 193.976562 74.667969 L 31.203125 74.667969 Z M 31.203125 0 "/></clipPath><clipPath id="0799ca6113"><path d="M 31.203125 0.0664062 L 193.976562 0.0664062 L 193.976562 74.605469 L 31.203125 74.605469 Z M 31.203125 0.0664062 "/></clipPath></defs><g id="0f26148907"><g clip-rule="nonzero" clip-path="url(#3e594700c3)"><path style=" stroke:none;fill-rule:nonzero;fill:#ffffff;fill-opacity:1;" d="M 137.320312 29.875 C 137.09375 29.878906 136.867188 29.882812 136.640625 29.882812 C 135.613281 29.882812 134.816406 29.535156 134.058594 28.761719 C 133.496094 28.1875 133.4375 27.289062 133.382812 26.5 C 133.371094 26.3125 133.359375 26.132812 133.339844 25.960938 L 133.328125 25.851562 L 133.414062 25.78125 C 133.855469 25.425781 134.28125 25.039062 134.683594 24.640625 L 134.847656 24.757812 C 134.84375 24.765625 134.832031 24.773438 134.828125 24.78125 C 134.761719 24.894531 134.84375 25.054688 134.972656 25.078125 C 134.984375 25.082031 134.992188 25.078125 135 25.082031 L 135.039062 25.082031 C 135.058594 25.078125 135.085938 25.070312 135.109375 25.058594 C 135.144531 25.039062 135.171875 25.011719 135.207031 24.992188 C 135.191406 25.070312 135.191406 25.152344 135.214844 25.234375 C 135.53125 26.671875 136.269531 28.496094 137.453125 29.515625 L 137.855469 29.863281 Z M 113.820312 63.589844 L 107.648438 63.589844 L 107.558594 63.199219 C 108.910156 62.542969 109.726562 61.652344 109.980469 60.550781 L 110.015625 60.394531 L 110.648438 60.398438 C 111.628906 60.398438 112.628906 60.351562 113.710938 60.253906 L 113.941406 60.234375 Z M 193.769531 71.761719 L 193.769531 71.75 L 149.035156 63.589844 L 143.996094 63.589844 L 143.960938 63.425781 C 143.785156 62.582031 143.625 61.742188 143.480469 60.929688 C 142.484375 55.417969 141.914062 49.878906 141.375 44.214844 L 141.371094 44.152344 L 141.398438 44.097656 C 141.429688 44.042969 141.457031 43.984375 141.484375 43.929688 C 141.511719 43.871094 141.542969 43.8125 141.570312 43.757812 C 142.285156 42.34375 142.773438 40.984375 143.066406 39.597656 L 143.132812 39.261719 L 143.394531 39.484375 C 144.417969 40.347656 145.597656 40.804688 146.816406 40.804688 C 147.667969 40.804688 148.5 40.582031 149.292969 40.144531 C 150.558594 39.445312 151.457031 38.175781 151.695312 36.746094 L 151.757812 36.558594 L 151.761719 36.558594 C 152.191406 33.867188 150.898438 31.296875 148.351562 29.816406 C 147.445312 29.328125 146.523438 28.953125 145.707031 28.621094 L 145.355469 28.46875 C 145.308594 28.445312 145.261719 28.414062 145.226562 28.386719 C 144.898438 28.175781 144.566406 27.972656 144.238281 27.769531 C 143.027344 27.023438 141.777344 26.253906 140.714844 25.222656 C 140.160156 24.683594 139.65625 24.03125 139.125 23.164062 L 138.964844 22.90625 C 138.710938 22.488281 138.425781 22.027344 138.21875 21.550781 C 138.148438 21.503906 138.070312 21.515625 137.992188 21.554688 C 138.074219 21.371094 138.15625 21.183594 138.230469 21 C 138.308594 20.804688 138.386719 20.609375 138.460938 20.414062 C 138.542969 20.191406 138.226562 20.085938 138.097656 20.253906 C 138.085938 20.269531 138.074219 20.285156 138.0625 20.308594 C 137.886719 20.789062 137.609375 21.207031 137.289062 21.605469 C 137.460938 21.253906 137.628906 20.875 137.789062 20.457031 L 137.761719 20.457031 L 137.863281 20.253906 C 137.867188 20.25 137.882812 20.203125 137.882812 20.203125 L 137.902344 20.179688 L 137.914062 20.160156 C 139.890625 16.253906 140.253906 11.894531 138.914062 8.195312 C 137.796875 5.121094 135.242188 2.539062 131.90625 1.121094 C 130.582031 0.558594 129.230469 0.269531 127.894531 0.269531 C 125.425781 0.269531 123.148438 1.234375 121.308594 3.058594 L 121.234375 3.136719 L 121.128906 3.117188 C 120.976562 3.089844 120.820312 3.078125 120.664062 3.078125 C 118.917969 3.078125 117.273438 4.738281 116.199219 6.128906 C 114.847656 7.875 114.066406 10.003906 113.800781 12.632812 C 113.578125 14.839844 113.796875 17.125 114.429688 19.230469 C 114.792969 20.445312 115.914062 23.277344 118.476562 23.277344 L 118.550781 23.273438 L 118.726562 23.230469 L 118.792969 23.402344 C 118.816406 23.464844 118.839844 23.523438 118.863281 23.585938 C 119.441406 24.914062 120.257812 26.046875 121.21875 26.859375 C 122.296875 27.765625 123.527344 28.351562 124.773438 28.558594 C 124.886719 28.574219 125.011719 28.585938 125.144531 28.589844 L 125.285156 28.59375 L 125.539062 28.59375 L 125.578125 28.753906 C 125.679688 29.210938 125.761719 29.730469 125.429688 30.105469 C 125.25 30.316406 125.007812 30.484375 124.691406 30.625 C 124.257812 30.816406 123.75 30.914062 123.300781 31 L 122.96875 31.0625 C 121.082031 31.4375 119.300781 31.925781 118.277344 33.769531 C 116.949219 36.15625 115.984375 38.59375 115.332031 41.222656 L 115.324219 41.253906 L 115.308594 41.28125 C 114.113281 43.207031 107.007812 51.320312 104.601562 53.5 C 104.117188 53.9375 102.367188 55.480469 100.085938 56.953125 L 100.050781 56.976562 L 100.011719 56.984375 C 99.816406 57.019531 99.621094 57.0625 99.429688 57.113281 L 99.382812 57.128906 L 94.453125 56.125 L 94.425781 56.125 L 94.417969 56.121094 C 94.414062 56.125 94.40625 56.128906 94.398438 56.132812 L 93.507812 56.703125 C 93.527344 56.726562 93.6875 56.957031 94.71875 58.441406 L 95.371094 59.382812 L 95.050781 59.5 C 95.003906 59.515625 94.953125 59.535156 94.914062 59.546875 C 94.734375 59.609375 94.554688 59.667969 94.378906 59.71875 C 93.976562 59.84375 93.679688 59.921875 93.414062 59.976562 C 93.214844 60.019531 93.074219 60.039062 92.945312 60.039062 C 92.800781 60.039062 92.671875 60.015625 92.550781 59.964844 L 92.382812 59.902344 C 92.144531 59.804688 91.898438 59.710938 91.65625 59.621094 C 91.09375 59.414062 90.453125 59.304688 89.800781 59.304688 C 88.503906 59.3125 87.171875 59.726562 85.945312 60.5 C 84.84375 61.199219 83.984375 61.964844 83.386719 62.773438 C 83.253906 62.953125 83.230469 63.132812 83.324219 63.273438 L 83.527344 63.589844 L 76.148438 63.59375 L 31.410156 71.765625 L 31.40625 71.78125 L 31.40625 73.996094 L 43.605469 74.027344 C 53.753906 74.054688 63.902344 74.078125 74.046875 74.105469 L 74.140625 74.105469 C 87.269531 74.136719 100.390625 74.167969 113.511719 74.207031 L 193.773438 74.40625 L 193.773438 71.78125 L 193.769531 71.761719 "/></g><path style=" stroke:none;fill-rule:nonzero;fill:#100f0d;fill-opacity:1;" d="M 125.527344 23.253906 C 125.507812 23.308594 125.484375 23.359375 125.460938 23.40625 C 124.976562 24.359375 123.585938 24.683594 122.617188 24.445312 C 122.363281 24.382812 122.253906 24.777344 122.507812 24.839844 C 123.648438 25.117188 125.125 24.738281 125.753906 23.703125 C 125.820312 23.59375 125.878906 23.484375 125.921875 23.363281 C 126.015625 23.117188 125.621094 23.011719 125.527344 23.253906 "/><path style=" stroke:none;fill-rule:nonzero;fill:#100f0d;fill-opacity:1;" d="M 122.761719 15.285156 C 122.957031 15.261719 123.128906 15.15625 123.308594 15.089844 C 123.523438 15.007812 123.75 14.957031 123.972656 14.910156 C 124.25 14.851562 124.53125 14.820312 124.8125 14.878906 C 124.972656 14.914062 125.128906 14.964844 125.292969 14.980469 C 125.390625 14.992188 125.570312 15.007812 125.605469 14.871094 C 125.714844 14.496094 124.859375 14.265625 124.679688 14.222656 C 124.089844 14.09375 123.480469 14.195312 122.972656 14.515625 C 122.867188 14.582031 122.257812 14.984375 122.5 15.207031 C 122.574219 15.277344 122.671875 15.292969 122.761719 15.285156 "/><path style=" stroke:none;fill-rule:nonzero;fill:#100f0d;fill-opacity:1;" d="M 118.066406 18.390625 C 118.027344 17.890625 118.253906 17.464844 118.570312 17.441406 C 118.886719 17.417969 119.171875 17.804688 119.210938 18.304688 C 119.246094 18.804688 119.023438 19.226562 118.707031 19.25 C 118.390625 19.273438 118.105469 18.890625 118.066406 18.390625 "/><path style=" stroke:none;fill-rule:nonzero;fill:#100f0d;fill-opacity:1;" d="M 123.570312 17.167969 C 123.535156 16.667969 123.757812 16.246094 124.074219 16.222656 C 124.390625 16.195312 124.675781 16.582031 124.714844 17.082031 C 124.753906 17.582031 124.527344 18.007812 124.210938 18.03125 C 123.894531 18.054688 123.609375 17.667969 123.570312 17.167969 "/><path style=" stroke:none;fill-rule:nonzero;fill:#100f0d;fill-opacity:1;" d="M 122.160156 22.382812 C 120.785156 22.164062 120.835938 21.203125 121.105469 20.089844 C 121.167969 19.8125 121.230469 19.539062 121.289062 19.261719 C 121.425781 18.609375 121.519531 17.953125 121.492188 17.273438 C 121.484375 17.011719 121.074219 17.011719 121.085938 17.273438 C 121.101562 17.71875 120.992188 18.269531 120.871094 18.847656 C 120.507812 20.523438 120.007812 22.449219 122.050781 22.773438 C 122.308594 22.816406 122.421875 22.421875 122.160156 22.382812 "/><path style=" stroke:none;fill-rule:nonzero;fill:#100f0d;fill-opacity:1;" d="M 95.414062 67.089844 L 86.660156 71.261719 C 86.609375 71.285156 86.589844 71.347656 86.613281 71.398438 C 86.628906 71.433594 86.667969 71.457031 86.703125 71.457031 C 86.71875 71.457031 86.734375 71.453125 86.75 71.445312 L 95.503906 67.273438 C 95.554688 67.25 95.574219 67.191406 95.550781 67.140625 C 95.527344 67.089844 95.464844 67.066406 95.414062 67.089844 "/><path style=" stroke:none;fill-rule:nonzero;fill:#100f0d;fill-opacity:1;" d="M 75.738281 69.371094 C 75.746094 69.371094 75.753906 69.367188 75.765625 69.367188 L 83.304688 67.394531 C 83.359375 67.382812 83.394531 67.324219 83.378906 67.269531 C 83.363281 67.214844 83.308594 67.183594 83.253906 67.199219 L 75.714844 69.167969 C 75.660156 69.183594 75.625 69.238281 75.640625 69.292969 C 75.652344 69.339844 75.691406 69.371094 75.738281 69.371094 "/><path style=" stroke:none;fill-rule:nonzero;fill:#100f0d;fill-opacity:1;" d="M 120.785156 67.105469 C 120.742188 67.066406 120.675781 67.074219 120.640625 67.117188 C 120.605469 67.160156 120.609375 67.222656 120.652344 67.257812 L 124.652344 70.703125 C 124.671875 70.722656 124.695312 70.730469 124.71875 70.730469 C 124.746094 70.730469 124.777344 70.71875 124.796875 70.695312 C 124.832031 70.652344 124.828125 70.585938 124.785156 70.550781 L 120.785156 67.105469 "/><path style=" stroke:none;fill-rule:nonzero;fill:#100f0d;fill-opacity:1;" d="M 112.640625 67.195312 C 112.582031 67.195312 112.539062 67.246094 112.542969 67.300781 L 112.644531 69.871094 C 112.648438 69.925781 112.691406 69.96875 112.746094 69.96875 C 112.746094 69.96875 112.75 69.96875 112.75 69.96875 C 112.804688 69.964844 112.851562 69.917969 112.847656 69.863281 L 112.746094 67.292969 C 112.742188 67.234375 112.691406 67.199219 112.640625 67.195312 "/><path style=" stroke:none;fill-rule:nonzero;fill:#100f0d;fill-opacity:1;" d="M 129.976562 67.089844 C 129.925781 67.066406 129.863281 67.089844 129.839844 67.140625 C 129.820312 67.195312 129.84375 67.253906 129.894531 67.277344 L 137.855469 70.71875 C 137.867188 70.726562 137.882812 70.730469 137.894531 70.730469 C 137.933594 70.730469 137.972656 70.707031 137.988281 70.667969 C 138.011719 70.617188 137.988281 70.554688 137.9375 70.535156 L 129.976562 67.089844 "/><path style=" stroke:none;fill-rule:nonzero;fill:#100f0d;fill-opacity:1;" d="M 151.351562 70.53125 L 140.234375 66.4375 C 140.183594 66.417969 140.125 66.445312 140.105469 66.496094 C 140.085938 66.550781 140.113281 66.609375 140.164062 66.628906 L 151.28125 70.722656 C 151.296875 70.726562 151.304688 70.730469 151.316406 70.730469 C 151.359375 70.730469 151.398438 70.703125 151.414062 70.664062 C 151.433594 70.609375 151.40625 70.550781 151.351562 70.53125 "/><path style=" stroke:none;fill-rule:nonzero;fill:#100f0d;fill-opacity:1;" d="M 135.910156 66.4375 C 135.859375 66.417969 135.796875 66.4375 135.773438 66.492188 C 135.753906 66.542969 135.773438 66.601562 135.828125 66.625 L 141.148438 69 C 141.160156 69.003906 141.175781 69.007812 141.191406 69.007812 C 141.226562 69.007812 141.265625 68.984375 141.28125 68.945312 C 141.304688 68.894531 141.28125 68.835938 141.230469 68.8125 L 135.910156 66.4375 "/><path style=" stroke:none;fill-rule:nonzero;fill:#100f0d;fill-opacity:1;" d="M 154.675781 66.390625 L 163.375 67.820312 C 163.378906 67.820312 163.386719 67.820312 163.390625 67.820312 C 163.441406 67.820312 163.484375 67.785156 163.492188 67.734375 C 163.5 67.679688 163.464844 67.628906 163.410156 67.617188 L 154.710938 66.191406 C 154.65625 66.183594 154.601562 66.21875 154.59375 66.273438 C 154.585938 66.332031 154.621094 66.382812 154.675781 66.390625 "/><path style=" stroke:none;fill-rule:nonzero;fill:#100f0d;fill-opacity:1;" d="M 141.347656 64.261719 L 144.710938 64.875 C 144.71875 64.875 144.722656 64.878906 144.730469 64.878906 C 144.777344 64.878906 144.820312 64.84375 144.828125 64.792969 C 144.839844 64.738281 144.804688 64.683594 144.746094 64.675781 L 141.382812 64.0625 C 141.324219 64.050781 141.273438 64.089844 141.265625 64.144531 C 141.253906 64.199219 141.292969 64.253906 141.347656 64.261719 "/><path style=" stroke:none;fill-rule:nonzero;fill:#100f0d;fill-opacity:1;" d="M 130.164062 64.863281 C 130.179688 64.875 130.199219 64.878906 130.214844 64.878906 C 130.253906 64.878906 130.285156 64.859375 130.304688 64.828125 C 130.332031 64.777344 130.316406 64.714844 130.265625 64.6875 L 128.886719 63.902344 C 128.839844 63.878906 128.773438 63.894531 128.746094 63.941406 C 128.71875 63.992188 128.738281 64.054688 128.785156 64.082031 L 130.164062 64.863281 "/><path style=" stroke:none;fill-rule:nonzero;fill:#100f0d;fill-opacity:1;" d="M 110.304688 65.203125 C 110.335938 65.203125 110.367188 65.1875 110.386719 65.160156 L 110.914062 64.445312 C 110.949219 64.398438 110.9375 64.335938 110.894531 64.300781 C 110.847656 64.269531 110.785156 64.277344 110.75 64.324219 L 110.222656 65.042969 C 110.191406 65.085938 110.199219 65.152344 110.246094 65.183594 C 110.265625 65.195312 110.285156 65.203125 110.304688 65.203125 "/><path style=" stroke:none;fill-rule:nonzero;fill:#100f0d;fill-opacity:1;" d="M 81.226562 65.191406 C 81.234375 65.191406 81.238281 65.191406 81.246094 65.1875 L 86.960938 64.097656 C 87.015625 64.085938 87.050781 64.03125 87.042969 63.976562 C 87.03125 63.921875 86.976562 63.882812 86.921875 63.894531 L 81.207031 64.988281 C 81.152344 65 81.117188 65.054688 81.125 65.109375 C 81.136719 65.15625 81.179688 65.191406 81.226562 65.191406 "/><path style=" stroke:none;fill-rule:nonzero;fill:#100f0d;fill-opacity:1;" d="M 76.332031 65.015625 C 76.339844 65.015625 76.347656 65.015625 76.351562 65.011719 L 79.15625 64.476562 C 79.210938 64.46875 79.246094 64.414062 79.234375 64.359375 C 79.222656 64.300781 79.167969 64.265625 79.113281 64.277344 L 76.316406 64.8125 C 76.257812 64.824219 76.222656 64.875 76.234375 64.929688 C 76.242188 64.980469 76.285156 65.015625 76.332031 65.015625 "/><g clip-rule="nonzero" clip-path="url(#0799ca6113)"><path style=" stroke:none;fill-rule:nonzero;fill:#100f0d;fill-opacity:1;" d="M 193.570312 74.199219 L 193.453125 74.199219 C 192.839844 74.195312 192.230469 74.195312 191.625 74.195312 C 188.96875 74.1875 186.316406 74.179688 183.664062 74.175781 C 173.960938 74.148438 164.257812 74.125 154.558594 74.101562 C 141.558594 74.066406 128.554688 74.035156 115.558594 74.003906 C 102.328125 73.96875 89.105469 73.933594 75.886719 73.902344 C 65.515625 73.875 55.144531 73.851562 44.769531 73.824219 C 40.382812 73.816406 35.996094 73.804688 31.605469 73.789062 C 31.609375 73.761719 31.609375 73.726562 31.609375 73.679688 L 31.609375 71.921875 C 31.640625 71.941406 31.675781 71.953125 31.714844 71.953125 L 193.570312 71.953125 Z M 76.148438 63.792969 L 94.746094 63.792969 C 91.90625 64.40625 89.039062 64.925781 86.164062 65.425781 L 67.726562 65.425781 C 67.613281 65.425781 67.523438 65.515625 67.523438 65.628906 C 67.523438 65.738281 67.613281 65.832031 67.726562 65.832031 L 75.625 65.832031 L 66.796875 67.339844 C 66.742188 67.347656 66.703125 67.402344 66.714844 67.457031 C 66.722656 67.507812 66.765625 67.539062 66.816406 67.539062 L 66.832031 67.539062 L 76.835938 65.832031 L 83.796875 65.832031 C 82.539062 66.050781 81.28125 66.265625 80.027344 66.484375 C 75.804688 67.234375 71.585938 67.972656 67.367188 68.699219 C 67.105469 68.742188 67.214844 69.132812 67.472656 69.089844 C 71.695312 68.363281 75.917969 67.625 80.136719 66.882812 C 82.148438 66.523438 84.171875 66.183594 86.191406 65.832031 L 92.128906 65.832031 L 74.691406 71.542969 C 74.6875 71.542969 74.6875 71.546875 74.6875 71.546875 L 33.664062 71.546875 Z M 86.839844 63.066406 C 86.796875 63.167969 86.761719 63.273438 86.742188 63.382812 L 86.242188 63.382812 C 86.410156 63.238281 86.625 63.128906 86.839844 63.066406 Z M 85.699219 63.382812 L 84.839844 63.382812 C 85.054688 63.25 85.246094 63.085938 85.433594 62.921875 C 85.683594 62.707031 85.914062 62.503906 86.1875 62.386719 C 86.769531 62.136719 87.441406 62.019531 88.105469 61.972656 C 87.707031 62.144531 87.398438 62.347656 87.171875 62.582031 C 86.597656 62.660156 86.03125 62.894531 85.699219 63.382812 Z M 83.554688 62.890625 C 84.132812 62.101562 84.96875 61.355469 86.050781 60.675781 C 87.246094 59.917969 88.542969 59.515625 89.800781 59.507812 C 90.417969 59.503906 91.027344 59.605469 91.585938 59.8125 C 91.828125 59.902344 92.070312 59.996094 92.3125 60.089844 L 92.472656 60.152344 C 92.824219 60.292969 93.164062 60.238281 93.453125 60.171875 C 93.757812 60.109375 94.082031 60.027344 94.4375 59.914062 C 94.617188 59.859375 94.796875 59.800781 94.976562 59.738281 C 95.082031 59.707031 95.183594 59.664062 95.285156 59.625 C 95.882812 60.492188 96.503906 61.394531 96.964844 62.078125 C 96.929688 62.121094 96.898438 62.160156 96.871094 62.203125 C 96.730469 62.460938 96.753906 62.800781 96.933594 63.246094 C 96.953125 63.300781 96.976562 63.339844 96.996094 63.382812 L 87.160156 63.382812 C 87.335938 62.730469 88.222656 61.953125 91.367188 61.761719 C 91.480469 61.757812 91.566406 61.660156 91.558594 61.542969 C 91.554688 61.433594 91.46875 61.34375 91.34375 61.351562 C 90.707031 61.394531 90.144531 61.457031 89.640625 61.546875 C 89.429688 61.539062 89.210938 61.535156 88.980469 61.535156 C 88.019531 61.535156 86.929688 61.621094 86.023438 62.007812 C 85.695312 62.152344 85.425781 62.390625 85.164062 62.613281 C 84.921875 62.824219 84.695312 63.023438 84.433594 63.144531 C 83.953125 63.363281 83.59375 63.292969 83.496094 63.175781 C 83.425781 63.089844 83.503906 62.960938 83.554688 62.890625 Z M 93.804688 56.773438 L 94.363281 56.398438 C 94.90625 57.160156 97.230469 60.433594 98.246094 61.933594 C 98.023438 61.839844 97.785156 61.777344 97.496094 61.8125 C 97.433594 61.824219 97.371094 61.839844 97.3125 61.859375 C 96.226562 60.257812 94.308594 57.496094 93.804688 56.773438 Z M 95.367188 57.558594 C 95.375 57.53125 95.390625 57.515625 95.410156 57.503906 C 95.390625 57.515625 95.375 57.53125 95.367188 57.558594 Z M 95.355469 57.578125 C 95.351562 57.617188 95.378906 57.648438 95.410156 57.667969 C 95.375 57.648438 95.351562 57.617188 95.355469 57.578125 Z M 99.164062 57.289062 C 99.15625 57.53125 99.195312 57.75 99.289062 57.9375 C 99.335938 58.023438 99.390625 58.113281 99.457031 58.183594 C 99.96875 58.753906 101.011719 58.84375 102.066406 58.84375 C 102.117188 58.84375 102.171875 58.839844 102.226562 58.839844 L 103.230469 58.746094 C 103.230469 58.746094 103.230469 58.746094 103.234375 58.746094 L 102.226562 58.839844 L 99.167969 59.117188 L 98.046875 59.21875 C 97.992188 59.222656 97.949219 59.273438 97.957031 59.328125 C 97.957031 59.378906 98.003906 59.421875 98.058594 59.421875 C 98.058594 59.421875 98.0625 59.421875 98.066406 59.421875 L 99.144531 59.324219 L 102.941406 58.980469 L 103.25 58.949219 C 103.308594 58.945312 103.347656 58.894531 103.34375 58.839844 C 103.34375 58.816406 103.328125 58.792969 103.308594 58.777344 C 103.328125 58.792969 103.34375 58.816406 103.347656 58.84375 C 103.351562 58.898438 103.308594 58.949219 103.25 58.953125 L 102.941406 58.980469 C 102.664062 59.476562 102.1875 60.042969 101.65625 60.574219 L 101.652344 60.574219 L 98.964844 61.03125 L 98.214844 61.160156 L 98.070312 61.1875 L 98.214844 61.160156 C 97.535156 60.167969 96.574219 58.808594 95.8125 57.730469 L 98.582031 58.039062 C 98.585938 58.039062 98.589844 58.039062 98.59375 58.039062 C 98.644531 58.039062 98.691406 58 98.695312 57.949219 C 98.703125 57.890625 98.664062 57.839844 98.605469 57.835938 L 95.652344 57.507812 C 95.34375 57.070312 95.074219 56.691406 94.882812 56.421875 Z M 103.308594 58.769531 C 103.304688 58.769531 103.304688 58.769531 103.300781 58.769531 C 103.304688 58.769531 103.304688 58.769531 103.308594 58.769531 Z M 98.339844 61.347656 L 98.074219 61.390625 L 98.34375 61.347656 L 98.941406 61.242188 L 101.386719 60.828125 C 100.527344 61.625 99.597656 62.261719 99.136719 62.285156 C 99.074219 62.285156 99.011719 62.269531 98.949219 62.253906 C 98.921875 62.207031 98.886719 62.160156 98.851562 62.101562 C 98.722656 61.90625 98.550781 61.648438 98.339844 61.347656 Z M 101.945312 60.554688 Z M 101.90625 60.738281 C 101.941406 60.734375 101.964844 60.707031 101.976562 60.675781 C 101.964844 60.707031 101.941406 60.730469 101.90625 60.742188 L 101.707031 60.773438 Z M 97.957031 61.308594 C 97.957031 61.320312 97.964844 61.328125 97.972656 61.335938 C 97.964844 61.328125 97.957031 61.320312 97.957031 61.3125 C 97.957031 61.3125 97.957031 61.3125 97.957031 61.308594 Z M 98.019531 61.203125 C 98.023438 61.203125 98.03125 61.195312 98.039062 61.191406 C 98.03125 61.195312 98.023438 61.203125 98.019531 61.203125 Z M 103.515625 57.121094 C 104.046875 57.152344 104.589844 57.179688 105.128906 57.191406 C 105.214844 57.191406 105.296875 57.191406 105.378906 57.191406 C 105.386719 57.191406 105.390625 57.191406 105.398438 57.191406 C 105.414062 57.191406 105.425781 57.183594 105.4375 57.179688 C 105.453125 57.175781 105.464844 57.171875 105.476562 57.164062 C 105.484375 57.160156 105.488281 57.160156 105.492188 57.15625 C 105.511719 57.148438 105.535156 57.132812 105.554688 57.121094 C 106.546875 56.457031 110.230469 54.261719 113.496094 52.320312 C 115.6875 51.015625 117.765625 49.777344 118.878906 49.097656 C 120.382812 48.171875 121.78125 47.414062 123.152344 46.785156 C 123.464844 46.648438 123.792969 46.519531 124.109375 46.394531 C 124.5 46.246094 124.898438 46.089844 125.277344 45.90625 C 125.960938 45.570312 126.507812 45.050781 127.039062 44.550781 L 127.171875 44.417969 C 128.867188 42.816406 129.902344 40.648438 130.90625 38.550781 C 131.515625 37.273438 132.148438 35.949219 132.917969 34.789062 C 133.324219 34.175781 133.871094 33.375 134.503906 32.648438 C 135.871094 31.074219 137.238281 30.230469 138.578125 30.140625 C 139.097656 30.101562 139.765625 30.175781 140.171875 30.3125 C 141.363281 30.707031 142 31.214844 142.523438 32.175781 C 143.421875 33.828125 143.546875 36.195312 142.902344 39.398438 C 141.855469 44.613281 138.144531 48.742188 134.429688 52.519531 C 132.445312 54.542969 130.253906 55.898438 127.542969 56.792969 C 124.484375 57.800781 121.714844 58.6875 118.851562 59.273438 C 115.527344 59.949219 112.71875 60.242188 110.019531 60.191406 C 110.011719 60.183594 110 60.191406 109.992188 60.195312 C 109.984375 60.195312 109.976562 60.195312 109.96875 60.199219 C 109.953125 60.203125 109.9375 60.207031 109.921875 60.214844 C 109.910156 60.222656 109.902344 60.226562 109.890625 60.238281 C 109.882812 60.242188 109.878906 60.25 109.871094 60.253906 C 109.867188 60.261719 109.863281 60.265625 109.851562 60.269531 C 109.847656 60.277344 109.84375 60.292969 109.839844 60.300781 C 109.832031 60.308594 109.832031 60.316406 109.828125 60.324219 C 109.828125 60.332031 109.824219 60.335938 109.824219 60.339844 C 109.820312 60.34375 109.816406 60.347656 109.816406 60.355469 C 109.574219 61.679688 108.488281 62.691406 106.613281 63.367188 C 106.730469 63.265625 106.847656 63.164062 106.96875 63.054688 C 107.164062 62.875 106.875 62.589844 106.679688 62.765625 C 106.179688 63.230469 105.710938 63.609375 105.03125 63.796875 L 105.027344 63.796875 C 105.03125 63.796875 105.03125 63.796875 105.035156 63.796875 C 105.03125 63.796875 105.027344 63.796875 105.023438 63.796875 L 105.019531 63.796875 C 104.296875 63.921875 103.535156 63.984375 102.691406 64.019531 C 103.5 63.640625 104.25 63.089844 104.988281 62.558594 C 105.199219 62.410156 104.996094 62.054688 104.777344 62.207031 C 103.601562 63.058594 102.382812 64 100.890625 64.074219 C 100.054688 64.078125 99.214844 64.039062 98.40625 63.835938 L 98.355469 63.824219 C 97.773438 63.6875 97.53125 63.625 97.3125 63.089844 C 97.183594 62.777344 97.15625 62.539062 97.230469 62.402344 C 97.285156 62.3125 97.394531 62.246094 97.5625 62.21875 C 97.863281 62.175781 98.121094 62.3125 98.390625 62.453125 C 98.628906 62.578125 98.878906 62.710938 99.15625 62.695312 C 100.21875 62.640625 103.011719 60.238281 103.523438 58.6875 C 103.53125 58.683594 103.53125 58.679688 103.53125 58.675781 L 103.53125 58.65625 C 103.535156 58.648438 103.539062 58.632812 103.539062 58.621094 C 103.539062 58.617188 103.539062 58.617188 103.539062 58.613281 C 103.535156 58.601562 103.535156 58.589844 103.53125 58.578125 C 103.523438 58.5625 103.519531 58.550781 103.515625 58.535156 C 103.515625 58.527344 103.503906 58.519531 103.5 58.511719 C 103.496094 58.507812 103.492188 58.503906 103.488281 58.496094 C 103.484375 58.488281 103.480469 58.480469 103.472656 58.476562 C 103.464844 58.464844 103.457031 58.460938 103.449219 58.457031 C 103.4375 58.445312 103.417969 58.4375 103.402344 58.433594 C 103.402344 58.429688 103.398438 58.429688 103.398438 58.429688 C 103.386719 58.425781 103.378906 58.425781 103.371094 58.425781 C 103.359375 58.421875 103.347656 58.417969 103.332031 58.417969 C 103.144531 58.417969 102.949219 58.421875 102.742188 58.425781 C 101.636719 58.445312 100.261719 58.46875 99.765625 57.917969 C 99.621094 57.753906 99.554688 57.546875 99.570312 57.285156 C 100.824219 56.957031 102.132812 57.035156 103.515625 57.121094 Z M 104.738281 53.652344 C 106.753906 51.828125 112.722656 45.128906 114.882812 42.234375 C 114.355469 44.722656 114.09375 47.359375 114.09375 50.253906 L 114.046875 51.511719 C 113.792969 51.664062 113.539062 51.8125 113.285156 51.96875 C 109.851562 54.015625 106.308594 56.121094 105.316406 56.785156 C 104.730469 56.78125 104.128906 56.75 103.542969 56.710938 C 102.667969 56.65625 101.765625 56.605469 100.886719 56.667969 C 102.71875 55.414062 104.132812 54.199219 104.738281 53.652344 Z M 115.519531 41.300781 C 116.171875 38.675781 117.128906 36.246094 118.449219 33.867188 C 119.433594 32.097656 121.167969 31.625 123.007812 31.261719 L 123.289062 31.210938 C 123.558594 31.160156 123.835938 31.101562 124.113281 31.03125 C 123.835938 31.597656 123.773438 32.316406 123.773438 33.007812 C 123.773438 33.445312 123.796875 33.875 123.808594 34.242188 C 123.84375 35.445312 124.308594 36.371094 125.625 36.347656 C 127.335938 36.3125 128.738281 34.996094 129.941406 33.941406 C 131.539062 32.542969 132.925781 30.875 134.273438 29.238281 C 134.449219 29.398438 134.636719 29.542969 134.839844 29.679688 C 135.441406 30.082031 136.261719 30.085938 136.957031 30.085938 C 137.019531 30.085938 137.074219 30.085938 137.136719 30.082031 C 136.15625 30.496094 135.167969 31.257812 134.195312 32.378906 C 133.546875 33.125 132.992188 33.941406 132.578125 34.5625 C 131.789062 35.746094 131.148438 37.085938 130.535156 38.375 C 129.550781 40.441406 128.53125 42.570312 126.890625 44.125 L 126.753906 44.253906 C 126.246094 44.734375 125.722656 45.230469 125.097656 45.539062 C 124.734375 45.710938 124.339844 45.867188 123.964844 46.015625 C 123.640625 46.140625 123.304688 46.273438 122.984375 46.417969 C 121.597656 47.050781 120.183594 47.8125 118.660156 48.75 C 118.65625 48.75 118.652344 48.753906 118.644531 48.757812 C 117.734375 49.316406 116.191406 50.238281 114.464844 51.261719 L 114.5 50.261719 C 114.503906 46.984375 114.832031 44.058594 115.519531 41.300781 Z M 126.046875 28.730469 C 126.109375 28.722656 126.171875 28.714844 126.230469 28.703125 C 126.171875 28.714844 126.109375 28.722656 126.046875 28.730469 Z M 125.582031 30.242188 C 125.789062 30.007812 125.859375 29.738281 125.867188 29.460938 C 125.867188 29.398438 125.859375 29.335938 125.855469 29.273438 C 125.859375 29.335938 125.867188 29.398438 125.867188 29.460938 C 125.894531 29.449219 125.917969 29.433594 125.941406 29.421875 C 126.21875 29.230469 126.464844 28.914062 126.636719 28.625 C 126.636719 28.625 126.640625 28.625 126.640625 28.625 C 126.710938 28.609375 126.777344 28.597656 126.84375 28.582031 C 127.769531 28.335938 128.640625 27.898438 129.363281 27.320312 C 129.453125 27.25 129.464844 27.125 129.394531 27.035156 C 129.324219 26.949219 129.195312 26.933594 129.109375 27 C 129.101562 27.003906 129.09375 27.007812 129.085938 27.015625 C 128.414062 27.550781 127.601562 27.957031 126.738281 28.183594 C 126.328125 28.292969 125.90625 28.363281 125.523438 28.386719 C 125.253906 28.398438 125.007812 28.390625 124.8125 28.355469 C 123.597656 28.15625 122.402344 27.585938 121.347656 26.699219 C 120.410156 25.90625 119.617188 24.800781 119.050781 23.503906 C 117.917969 20.882812 117.265625 18.582031 117.058594 16.519531 C 117.046875 16.523438 117.039062 16.523438 117.027344 16.527344 C 117.039062 16.523438 117.046875 16.523438 117.058594 16.519531 C 117.1875 16.492188 117.300781 16.414062 117.417969 16.363281 C 117.585938 16.289062 117.757812 16.253906 117.933594 16.214844 C 118.015625 16.195312 118.101562 16.1875 118.1875 16.179688 C 118.320312 16.171875 118.453125 16.179688 118.585938 16.222656 C 118.714844 16.261719 118.839844 16.320312 118.964844 16.34375 C 119.042969 16.359375 119.183594 16.382812 119.207031 16.25 C 119.273438 15.882812 118.59375 15.613281 118.453125 15.566406 C 118.148438 15.464844 117.847656 15.472656 117.566406 15.5625 C 117.414062 15.609375 117.265625 15.675781 117.128906 15.78125 C 117.109375 15.796875 117.0625 15.832031 117.011719 15.882812 C 116.988281 15.582031 116.984375 15.28125 116.988281 14.988281 C 116.988281 14.929688 116.984375 14.867188 116.988281 14.8125 L 116.988281 14.785156 C 116.777344 12.6875 117.457031 9.96875 119.519531 9.027344 C 119.835938 11.121094 121.515625 12.367188 123.554688 13.046875 C 125.066406 13.546875 126.605469 13.863281 127.675781 15.132812 C 128.4375 16.035156 129.429688 16.441406 130.546875 16.144531 C 130.628906 16.125 130.707031 16.109375 130.789062 16.078125 C 131.394531 15.980469 131.984375 16.242188 132.425781 16.816406 C 132.964844 17.511719 133.089844 18.453125 132.738281 19.109375 C 132.550781 19.464844 132.046875 19.792969 131.589844 19.867188 C 131.503906 19.878906 131.4375 19.96875 131.453125 20.058594 C 131.460938 20.117188 131.496094 20.160156 131.546875 20.183594 C 131.546875 20.195312 131.550781 20.207031 131.550781 20.214844 C 131.832031 21.492188 131.746094 22.75 131.101562 23.910156 C 131.0625 23.980469 131.074219 24.046875 131.101562 24.105469 C 131.257812 24.707031 132.894531 25.824219 133.136719 25.988281 C 133.136719 25.992188 133.136719 25.992188 133.140625 25.996094 C 133.203125 26.675781 133.132812 27.585938 133.421875 28.175781 C 133.566406 28.46875 133.757812 28.726562 133.976562 28.960938 C 132.144531 31.183594 130.207031 33.515625 127.804688 35.144531 C 127.140625 35.589844 126.414062 35.84375 125.625 35.9375 C 124.644531 36.050781 124.320312 35.296875 124.230469 34.480469 C 124.128906 33.5 124 31.644531 124.691406 30.878906 C 124.707031 30.867188 124.707031 30.847656 124.714844 30.832031 C 125.042969 30.695312 125.34375 30.511719 125.582031 30.242188 Z M 116.742188 16.3125 C 116.742188 16.238281 116.777344 16.160156 116.828125 16.085938 C 116.777344 16.160156 116.742188 16.238281 116.742188 16.3125 Z M 124.429688 12.425781 C 126.59375 13.03125 129.53125 13.332031 130.394531 15.773438 C 128.933594 16.136719 128.378906 15.007812 127.324219 14.199219 C 126.550781 13.609375 125.675781 13.28125 124.757812 12.992188 C 122.824219 12.378906 120.851562 11.613281 120.148438 9.828125 C 121.160156 11.152344 122.894531 12 124.429688 12.425781 Z M 124.011719 3.164062 C 124.109375 3.316406 124.214844 3.464844 124.316406 3.621094 C 124.253906 3.664062 124.195312 3.707031 124.136719 3.75 C 124.039062 3.59375 123.941406 3.445312 123.84375 3.289062 C 123.898438 3.246094 123.957031 3.203125 124.011719 3.164062 Z M 127.976562 3.5 C 128.269531 3.777344 128.378906 3.878906 128.550781 4.035156 C 128.363281 4.230469 128.210938 4.386719 128.0625 4.542969 C 128.007812 4.519531 127.949219 4.488281 127.898438 4.464844 C 127.917969 4.210938 127.941406 3.957031 127.976562 3.5 Z M 130.546875 7.03125 C 130.941406 7.183594 131.015625 7.429688 130.855469 7.878906 C 130.210938 7.738281 130.328125 7.429688 130.546875 7.03125 Z M 132.550781 15.03125 C 132.589844 15.265625 132.636719 15.496094 132.6875 15.78125 C 132.558594 15.765625 132.425781 15.769531 132.421875 15.75 C 132.378906 15.523438 132.347656 15.296875 132.316406 15.070312 C 132.394531 15.054688 132.472656 15.042969 132.550781 15.03125 Z M 133.089844 8.828125 C 133.140625 8.9375 133.191406 9.050781 133.242188 9.164062 C 133.195312 9.191406 133.152344 9.21875 133.105469 9.246094 L 132.886719 8.941406 C 132.953125 8.90625 133.019531 8.863281 133.089844 8.828125 Z M 138.230469 25.464844 C 138.636719 25.90625 138.890625 26.191406 139.144531 26.46875 C 139.121094 26.535156 139.097656 26.601562 139.078125 26.667969 C 138.671875 26.625 138.265625 26.585938 137.722656 26.527344 C 137.890625 26.175781 138.007812 25.921875 138.230469 25.464844 Z M 142.269531 27.015625 C 142.4375 27.148438 142.605469 27.277344 142.785156 27.40625 C 142.792969 27.425781 142.800781 27.441406 142.808594 27.457031 C 142.523438 27.472656 142.335938 27.488281 142 27.507812 C 142.105469 27.3125 142.183594 27.171875 142.269531 27.015625 Z M 143.503906 33.15625 C 143.464844 33.210938 143.4375 33.261719 143.402344 33.308594 C 143.382812 33.234375 143.359375 33.164062 143.335938 33.09375 C 143.390625 33.117188 143.445312 33.136719 143.503906 33.15625 Z M 143.742188 63.382812 L 114.03125 63.382812 L 114.046875 62.878906 L 114.136719 60.417969 C 114.382812 60.394531 114.628906 60.363281 114.878906 60.335938 C 116.15625 60.179688 117.496094 59.964844 118.933594 59.671875 C 121.824219 59.078125 124.597656 58.195312 127.667969 57.183594 C 130.445312 56.265625 132.6875 54.875 134.71875 52.808594 C 137.125 50.359375 139.527344 47.765625 141.226562 44.820312 C 141.820312 51.03125 142.496094 57.273438 143.742188 63.382812 Z M 149 63.789062 L 157.964844 65.425781 L 140.445312 65.425781 C 137.550781 64.921875 134.65625 64.398438 131.789062 63.789062 Z M 125.027344 64.828125 L 123.535156 63.792969 L 129.933594 63.789062 C 129.949219 63.800781 129.96875 63.808594 129.988281 63.8125 C 132.671875 64.425781 135.386719 64.9375 138.105469 65.425781 L 122.171875 65.425781 C 121.214844 64.910156 120.277344 64.367188 119.371094 63.792969 L 123.179688 63.792969 L 124.910156 64.996094 C 124.929688 65.007812 124.945312 65.015625 124.964844 65.015625 C 125 65.015625 125.03125 65 125.050781 64.972656 C 125.085938 64.925781 125.074219 64.863281 125.027344 64.828125 Z M 107.566406 63.839844 C 107.585938 63.828125 107.597656 63.808594 107.613281 63.792969 L 116.496094 63.792969 L 117.074219 64.824219 C 117.089844 64.859375 117.125 64.878906 117.15625 64.878906 C 117.179688 64.878906 117.195312 64.875 117.210938 64.867188 C 117.261719 64.835938 117.277344 64.777344 117.246094 64.726562 L 116.734375 63.792969 L 118.621094 63.792969 C 118.632812 63.800781 118.636719 63.808594 118.648438 63.816406 C 119.511719 64.386719 120.40625 64.917969 121.320312 65.425781 L 105.03125 65.425781 C 105.898438 64.921875 106.746094 64.398438 107.566406 63.839844 Z M 113.621094 63.382812 L 107.648438 63.382812 C 109.058594 62.699219 109.910156 61.761719 110.179688 60.597656 C 110.335938 60.597656 110.492188 60.601562 110.648438 60.601562 C 111.644531 60.601562 112.667969 60.550781 113.726562 60.457031 Z M 104.945312 63.84375 C 104.960938 63.828125 104.980469 63.816406 105.003906 63.804688 C 105 63.808594 105 63.808594 104.996094 63.8125 C 104.980469 63.820312 104.960938 63.828125 104.949219 63.835938 C 104.949219 63.839844 104.945312 63.839844 104.945312 63.84375 Z M 104.898438 63.914062 C 104.902344 63.898438 104.910156 63.878906 104.925781 63.863281 C 104.910156 63.878906 104.902344 63.894531 104.898438 63.914062 Z M 104.886719 63.96875 C 104.886719 63.957031 104.886719 63.941406 104.890625 63.925781 C 104.890625 63.941406 104.886719 63.957031 104.886719 63.96875 Z M 104.882812 63.996094 Z M 102.765625 64.410156 C 102.6875 65.300781 102.6875 65.300781 102 65.085938 C 102.042969 64.824219 102.089844 64.5625 102.144531 64.238281 C 102.398438 64.304688 102.585938 64.359375 102.765625 64.410156 Z M 104.015625 64.171875 C 103.457031 64.246094 102.925781 64.242188 102.53125 64.222656 C 102.925781 64.242188 103.453125 64.246094 104.015625 64.171875 Z M 102.246094 64.199219 C 102.296875 64.183594 102.347656 64.15625 102.398438 64.136719 C 102.347656 64.15625 102.296875 64.183594 102.246094 64.199219 Z M 100.679688 64.695312 C 100.464844 64.960938 100.320312 65.128906 100.183594 65.296875 C 100.128906 65.269531 100.074219 65.238281 100.027344 65.203125 C 100.058594 65.007812 100.085938 64.8125 100.125 64.582031 C 100.292969 64.617188 100.402344 64.636719 100.679688 64.695312 Z M 159.9375 65.785156 L 191.519531 71.546875 L 102.972656 71.546875 L 106.890625 68.171875 C 106.933594 68.132812 106.941406 68.070312 106.902344 68.027344 C 106.867188 67.988281 106.800781 67.980469 106.757812 68.015625 L 102.664062 71.546875 L 75.332031 71.546875 L 92.78125 65.832031 L 103.464844 65.832031 C 101.625 66.832031 99.738281 67.753906 97.910156 68.71875 C 97.679688 68.839844 97.882812 69.191406 98.117188 69.070312 C 100.15625 67.996094 102.273438 66.964844 104.3125 65.832031 L 122.066406 65.832031 C 124.183594 66.964844 126.382812 67.996094 128.503906 69.070312 C 128.738281 69.1875 128.945312 68.835938 128.707031 68.71875 C 126.8125 67.753906 124.851562 66.832031 122.941406 65.832031 L 140.433594 65.832031 C 142.355469 66.164062 144.28125 66.488281 146.195312 66.828125 C 150.507812 67.59375 154.828125 68.347656 159.144531 69.089844 C 159.402344 69.132812 159.511719 68.742188 159.25 68.699219 C 155.003906 67.96875 150.765625 67.222656 146.523438 66.472656 C 145.289062 66.257812 144.054688 66.042969 142.816406 65.832031 L 159.8125 65.832031 C 159.859375 65.832031 159.90625 65.8125 159.9375 65.785156 Z M 137.382812 7.410156 C 137.277344 7.570312 137.21875 7.660156 137.105469 7.835938 C 136.96875 7.628906 136.875 7.476562 136.660156 7.136719 C 137.015625 7.273438 137.171875 7.332031 137.382812 7.410156 Z M 148.25 29.992188 C 149.832031 30.914062 150.90625 32.226562 151.371094 33.730469 C 150.894531 32.859375 150.171875 32.082031 149.496094 31.402344 C 148.796875 30.695312 148.015625 30.066406 147.207031 29.480469 C 147.554688 29.640625 147.902344 29.804688 148.25 29.992188 Z M 193.976562 71.730469 C 193.976562 71.714844 193.96875 71.695312 193.964844 71.679688 C 193.960938 71.664062 193.957031 71.65625 193.945312 71.644531 C 193.941406 71.632812 193.933594 71.625 193.925781 71.617188 C 193.917969 71.605469 193.914062 71.597656 193.90625 71.59375 C 193.875 71.574219 193.847656 71.554688 193.8125 71.550781 L 149.035156 63.382812 L 144.160156 63.382812 C 143.988281 62.554688 143.832031 61.726562 143.683594 60.894531 C 142.683594 55.378906 142.109375 49.773438 141.578125 44.195312 C 141.640625 44.082031 141.691406 43.960938 141.753906 43.847656 C 142.425781 42.519531 142.953125 41.125 143.265625 39.640625 C 145.023438 41.128906 147.3125 41.472656 149.390625 40.320312 C 150.753906 39.570312 151.65625 38.238281 151.894531 36.777344 L 151.929688 36.78125 C 152.46875 33.9375 151.136719 31.199219 148.449219 29.636719 C 147.5625 29.160156 146.699219 28.804688 145.785156 28.433594 C 145.679688 28.386719 145.570312 28.339844 145.457031 28.292969 C 145.417969 28.269531 145.375 28.242188 145.335938 28.210938 C 143.789062 27.226562 142.183594 26.363281 140.859375 25.074219 C 140.242188 24.480469 139.746094 23.785156 139.296875 23.058594 C 138.925781 22.441406 138.449219 21.730469 138.230469 21 C 137.574219 22.601562 136.648438 24.179688 135.109375 25.058594 C 135.0625 25.082031 135.015625 25.085938 134.972656 25.078125 C 135.292969 26.6875 136.097656 28.617188 137.316406 29.667969 C 137.09375 29.671875 136.867188 29.679688 136.636719 29.679688 C 135.632812 29.679688 134.898438 29.328125 134.203125 28.617188 C 133.570312 27.96875 133.636719 26.808594 133.542969 25.941406 C 133.988281 25.578125 134.417969 25.1875 134.828125 24.78125 C 134.84375 24.75 134.867188 24.726562 134.894531 24.710938 C 134.898438 24.707031 134.902344 24.703125 134.90625 24.703125 C 136.53125 23.773438 137.4375 21.996094 138.0625 20.308594 C 138.070312 20.285156 138.085938 20.265625 138.097656 20.25 C 138.097656 20.25 138.097656 20.25 138.09375 20.25 C 139.988281 16.507812 140.554688 12.121094 139.105469 8.125 C 137.898438 4.800781 135.207031 2.300781 131.984375 0.929688 C 128.148438 -0.699219 124.117188 -0.015625 121.164062 2.914062 C 119.09375 2.558594 117.191406 4.507812 116.035156 6.003906 C 114.539062 7.941406 113.839844 10.199219 113.597656 12.609375 C 113.371094 14.851562 113.585938 17.132812 114.230469 19.289062 C 114.832031 21.296875 116.164062 23.523438 118.542969 23.480469 C 118.566406 23.480469 118.582031 23.476562 118.597656 23.472656 C 118.621094 23.535156 118.648438 23.597656 118.675781 23.667969 C 119.265625 25.019531 120.097656 26.179688 121.085938 27.011719 C 122.191406 27.941406 123.457031 28.546875 124.746094 28.757812 C 124.863281 28.777344 124.996094 28.785156 125.140625 28.792969 C 125.1875 28.792969 125.230469 28.796875 125.285156 28.796875 L 125.375 28.796875 C 125.472656 29.234375 125.539062 29.667969 125.273438 29.972656 C 125.09375 30.175781 124.863281 30.320312 124.605469 30.4375 C 124.179688 30.625 123.675781 30.71875 123.214844 30.808594 L 122.925781 30.859375 C 120.988281 31.246094 119.160156 31.746094 118.09375 33.667969 C 116.757812 36.070312 115.789062 38.519531 115.128906 41.167969 C 113.9375 43.101562 106.890625 51.144531 104.460938 53.347656 C 103.789062 53.957031 102.113281 55.394531 99.972656 56.78125 C 99.773438 56.816406 99.570312 56.859375 99.375 56.914062 L 94.457031 55.917969 C 94.453125 55.917969 94.453125 55.917969 94.453125 55.917969 C 94.417969 55.910156 94.382812 55.914062 94.351562 55.925781 C 94.339844 55.929688 94.332031 55.933594 94.328125 55.933594 C 94.316406 55.9375 94.308594 55.941406 94.300781 55.949219 L 93.40625 56.546875 C 93.363281 56.574219 93.328125 56.625 93.320312 56.679688 C 93.308594 56.730469 93.324219 56.789062 93.351562 56.832031 C 93.371094 56.855469 94.148438 57.980469 95.050781 59.277344 C 94.980469 59.300781 94.914062 59.332031 94.84375 59.351562 C 94.667969 59.414062 94.492188 59.46875 94.316406 59.523438 C 93.96875 59.628906 93.660156 59.714844 93.371094 59.773438 C 93.0625 59.839844 92.84375 59.863281 92.621094 59.769531 L 92.457031 59.710938 C 92.21875 59.613281 91.972656 59.519531 91.726562 59.425781 C 91.121094 59.203125 90.445312 59.097656 89.796875 59.097656 C 88.464844 59.105469 87.09375 59.53125 85.832031 60.324219 C 84.707031 61.039062 83.832031 61.820312 83.222656 62.648438 C 83.035156 62.90625 83.015625 63.175781 83.152344 63.382812 L 76.109375 63.386719 L 31.371094 71.550781 C 31.332031 71.554688 31.304688 71.574219 31.273438 71.59375 C 31.269531 71.601562 31.257812 71.609375 31.25 71.617188 C 31.246094 71.628906 31.238281 71.636719 31.234375 71.640625 C 31.226562 71.660156 31.21875 71.671875 31.214844 71.683594 C 31.210938 71.699219 31.207031 71.710938 31.207031 71.730469 C 31.207031 71.734375 31.203125 71.742188 31.203125 71.75 L 31.203125 73.992188 C 31.203125 74.105469 31.296875 74.199219 31.40625 74.199219 C 35.46875 74.207031 39.539062 74.21875 43.605469 74.226562 C 53.75 74.253906 63.902344 74.277344 74.046875 74.304688 C 87.203125 74.335938 100.355469 74.371094 113.511719 74.40625 C 126.59375 74.4375 139.683594 74.472656 152.765625 74.503906 C 162.707031 74.527344 172.648438 74.554688 182.585938 74.578125 C 186.316406 74.585938 190.042969 74.597656 193.773438 74.605469 C 193.886719 74.605469 193.976562 74.511719 193.976562 74.402344 L 193.976562 71.75 C 193.980469 71.742188 193.976562 71.738281 193.976562 71.730469 "/></g></g></svg>