<svg xmlns="http://www.w3.org/2000/svg" xmlns:xlink="http://www.w3.org/1999/xlink" width="247" zoomAndPan="magnify" viewBox="0 0 185.25 112.499997" height="150" preserveAspectRatio="xMidYMid meet" version="1.2"><defs><clipPath id="5c96356207"><path d="M 0.0351562 0 L 101.585938 0 L 101.585938 112 L 0.0351562 112 Z M 0.0351562 0 "/></clipPath><clipPath id="22271669a1"><path d="M 0.0351562 0 L 101.585938 0 L 101.585938 112.003906 L 0.0351562 112.003906 Z M 0.0351562 0 "/></clipPath></defs><g id="30cd0e435a"><path style=" stroke:none;fill-rule:nonzero;fill:#ffffff;fill-opacity:1;" d="M 41.546875 37.339844 C 41.53125 37.414062 41.4375 37.835938 41.4375 37.835938 C 41.394531 38.027344 41.351562 38.222656 41.304688 38.414062 C 41.359375 38.191406 41.410156 37.960938 41.460938 37.726562 L 41.546875 37.339844 "/><path style=" stroke:none;fill-rule:nonzero;fill:#ffffff;fill-opacity:1;" d="M 42.0625 37.253906 C 41.992188 37.039062 41.941406 36.832031 41.886719 36.613281 L 41.816406 36.324219 C 41.757812 36.460938 41.6875 36.730469 41.609375 37.070312 L 42 37.054688 C 42.019531 37.125 42.039062 37.191406 42.0625 37.253906 "/><path style=" stroke:none;fill-rule:nonzero;fill:#ffffff;fill-opacity:1;" d="M 41.160156 38.992188 C 41.140625 39.070312 41.121094 39.152344 41.101562 39.21875 L 41.160156 38.996094 C 41.160156 38.996094 41.160156 38.992188 41.160156 38.992188 "/><path style=" stroke:none;fill-rule:nonzero;fill:#ffffff;fill-opacity:1;" d="M 40.316406 40.078125 C 40.359375 40.078125 40.390625 40.078125 40.421875 40.066406 C 40.726562 40.003906 40.941406 39.671875 41.042969 39.394531 C 41.042969 39.394531 41.070312 39.316406 41.078125 39.292969 L 40.839844 39.097656 C 40.703125 38.988281 40.539062 38.933594 40.359375 38.933594 C 40.226562 38.933594 40.09375 38.964844 39.96875 39.027344 C 39.675781 39.171875 39.554688 39.441406 39.671875 39.691406 C 39.78125 39.910156 40.0625 40.078125 40.316406 40.078125 "/><path style=" stroke:none;fill-rule:nonzero;fill:#ffffff;fill-opacity:1;" d="M 87.929688 18.722656 C 87.96875 18.722656 88 18.71875 88.035156 18.710938 C 88.335938 18.648438 88.554688 18.316406 88.65625 18.039062 C 88.65625 18.039062 88.679688 17.960938 88.6875 17.9375 L 88.453125 17.742188 C 88.316406 17.632812 88.148438 17.578125 87.972656 17.578125 C 87.839844 17.578125 87.703125 17.609375 87.582031 17.671875 C 87.289062 17.820312 87.167969 18.085938 87.28125 18.335938 C 87.390625 18.554688 87.675781 18.722656 87.929688 18.722656 "/><path style=" stroke:none;fill-rule:nonzero;fill:#ffffff;fill-opacity:1;" d="M 89.160156 15.984375 C 89.144531 16.054688 89.050781 16.480469 89.050781 16.480469 C 89.003906 16.671875 88.960938 16.871094 88.917969 17.054688 C 88.96875 16.835938 89.023438 16.605469 89.074219 16.371094 L 89.160156 15.984375 "/><path style=" stroke:none;fill-rule:nonzero;fill:#ffffff;fill-opacity:1;" d="M 89.671875 15.898438 C 89.605469 15.683594 89.550781 15.476562 89.5 15.257812 L 89.425781 14.96875 C 89.371094 15.105469 89.300781 15.375 89.222656 15.714844 L 89.609375 15.699219 C 89.632812 15.769531 89.652344 15.835938 89.671875 15.898438 "/><path style=" stroke:none;fill-rule:nonzero;fill:#ffffff;fill-opacity:1;" d="M 88.773438 17.636719 C 88.753906 17.714844 88.730469 17.796875 88.710938 17.863281 L 88.773438 17.640625 C 88.773438 17.640625 88.773438 17.636719 88.773438 17.636719 "/><path style=" stroke:none;fill-rule:nonzero;fill:#ffffff;fill-opacity:1;" d="M 89.414062 107.769531 C 89.347656 107.769531 89.28125 107.777344 89.21875 107.785156 L 88.9375 107.824219 L 88.9375 107.835938 L 88.800781 107.878906 C 88.039062 108.144531 87.523438 108.855469 87.523438 109.652344 C 87.523438 110.691406 88.371094 111.539062 89.414062 111.539062 C 90.453125 111.539062 91.300781 110.691406 91.300781 109.652344 C 91.300781 108.613281 90.453125 107.769531 89.414062 107.769531 "/><g clip-rule="nonzero" clip-path="url(#5c96356207)"><path style=" stroke:none;fill-rule:nonzero;fill:#ffffff;fill-opacity:1;" d="M 53.519531 54.441406 L 53.59375 54.304688 L 53.742188 54.375 L 53.804688 54.394531 L 53.914062 54.507812 L 53.894531 54.613281 C 53.6875 55.609375 53.496094 56.535156 53.320312 57.359375 L 53.285156 57.519531 L 52.898438 57.527344 L 48.5 57.535156 L 48.460938 57.132812 C 50.777344 56.667969 52.480469 55.761719 53.519531 54.441406 Z M 101.242188 67.140625 C 101.242188 65.902344 101.039062 64.859375 100.652344 64.125 C 100.277344 63.414062 99.722656 63.003906 99.054688 62.941406 L 98.859375 62.921875 L 98.871094 62.726562 C 98.925781 61.800781 98.964844 60.789062 98.992188 59.628906 C 99.070312 56.660156 99.058594 53.710938 99.015625 50.195312 C 98.941406 44.300781 98.617188 39.003906 98.023438 34.003906 C 97.808594 32.164062 97.5 30.003906 96.835938 27.925781 C 96.28125 26.191406 95.324219 24.898438 93.8125 23.859375 C 91.449219 22.234375 88.5625 22.007812 85.796875 22.007812 C 85.210938 22.007812 84.625 22.019531 84.046875 22.027344 C 83.511719 22.039062 82.984375 22.046875 82.460938 22.046875 C 81.640625 22.050781 80.820312 22.058594 79.996094 22.066406 L 79.238281 22.074219 L 79.640625 21.714844 C 81.640625 19.945312 82.894531 18.101562 83.476562 16.082031 C 84.339844 13.085938 84.039062 9.335938 82.707031 6.535156 C 81.570312 4.136719 79.152344 2.257812 76.074219 1.375 L 76.042969 1.363281 L 76.011719 1.34375 C 75.054688 0.65625 73.964844 0.285156 72.773438 0.238281 C 72.542969 0.226562 72.304688 0.222656 72.0625 0.222656 C 71.398438 0.222656 70.75 0.253906 70.234375 0.3125 C 69.597656 0.378906 68.671875 0.964844 68.558594 1.492188 L 68.535156 1.59375 L 68.4375 1.632812 C 67.945312 1.84375 67.496094 2.082031 67.101562 2.339844 C 65.71875 3.246094 64.332031 4.785156 63.730469 6.082031 C 63.257812 7.101562 62.960938 8.40625 62.722656 9.460938 L 62.683594 9.605469 L 62.640625 9.757812 L 62.546875 9.757812 C 62.503906 9.832031 62.476562 9.96875 62.484375 10.148438 L 62.554688 10.222656 L 62.539062 10.324219 C 62.320312 11.566406 62.261719 12.960938 62.363281 14.46875 L 62.367188 14.511719 L 62.351562 14.550781 C 61.84375 15.917969 61.9375 16.824219 62.636719 17.253906 L 62.710938 17.300781 L 62.726562 17.390625 C 62.800781 17.796875 62.878906 18.207031 62.96875 18.632812 C 63.269531 20.03125 63.835938 21.28125 64.609375 22.253906 C 65.480469 23.34375 66.558594 24.148438 67.722656 24.585938 C 68.140625 24.742188 68.550781 24.863281 68.976562 24.953125 L 69.136719 24.984375 L 69.140625 25.144531 C 69.144531 25.488281 69.113281 25.917969 68.785156 26.199219 C 68.179688 26.703125 67.261719 26.734375 66.527344 26.757812 L 66.242188 26.769531 L 66.128906 26.777344 C 65.742188 26.808594 65.4375 26.835938 65.355469 26.835938 C 59.429688 26.835938 56.148438 33.683594 54.1875 37.773438 C 53.976562 38.21875 53.78125 38.625 53.601562 38.984375 C 53.226562 39.730469 52.832031 40.628906 52.410156 41.578125 L 52.28125 41.867188 C 51.609375 43.390625 50.851562 45.117188 49.996094 46.746094 L 49.929688 46.867188 L 45.964844 46.402344 L 45.859375 46.382812 L 45.808594 46.289062 C 45.546875 45.804688 45.160156 45.371094 44.679688 45.03125 C 43.949219 44.511719 43 44.097656 41.785156 43.757812 C 41.25 43.609375 40.777344 43.460938 40.300781 43.289062 C 40 43.179688 39.726562 43.121094 39.511719 43.121094 C 39.292969 43.121094 39.140625 43.175781 39.039062 43.285156 C 38.910156 43.429688 38.867188 43.582031 38.90625 43.730469 C 38.925781 43.800781 38.964844 43.871094 39.019531 43.949219 L 39.4375 44.511719 L 38.785156 44.253906 C 37.96875 43.9375 37.242188 43.65625 36.601562 43.460938 C 36.328125 43.378906 36.109375 43.335938 35.929688 43.335938 C 35.789062 43.335938 35.675781 43.359375 35.59375 43.410156 C 35.5 43.464844 35.441406 43.550781 35.414062 43.664062 C 35.324219 44.089844 35.742188 44.460938 35.996094 44.640625 C 36.179688 44.773438 36.371094 44.890625 36.554688 44.992188 L 36.675781 45.066406 L 36.648438 45.203125 C 36.527344 45.894531 36.535156 46.285156 36.914062 46.636719 L 37.058594 46.707031 L 36.957031 46.851562 C 36.871094 47.515625 37.007812 48.007812 37.398438 48.410156 C 37.429688 48.449219 37.46875 48.480469 37.507812 48.515625 L 37.59375 48.585938 L 37.582031 48.691406 C 37.472656 49.621094 38.417969 50.449219 39.339844 50.824219 C 39.917969 51.058594 40.542969 51.167969 41.308594 51.167969 C 41.746094 51.167969 42.179688 51.136719 42.640625 51.097656 C 43.097656 51.0625 43.570312 51.027344 44.050781 51.027344 C 44.226562 51.027344 44.398438 51.03125 44.574219 51.042969 L 44.601562 51.042969 L 46.492188 51.75 L 46.246094 51.972656 C 44.863281 53.230469 43.375 53.867188 41.820312 53.867188 C 41.371094 53.867188 40.90625 53.8125 40.417969 53.699219 L 40.039062 53.558594 C 39.519531 53.261719 38.886719 53.0625 38.300781 53.007812 C 38.144531 52.992188 37.988281 52.984375 37.832031 52.984375 C 36.96875 52.984375 36.058594 53.210938 35.199219 53.640625 C 34.277344 54.105469 33.546875 54.632812 33.027344 55.214844 C 32.964844 55.28125 32.835938 55.457031 32.945312 55.625 C 32.964844 55.660156 33.007812 55.691406 33.054688 55.722656 L 33.238281 55.859375 L 33.078125 56.027344 C 32.96875 56.140625 32.890625 56.277344 32.847656 56.449219 L 32.808594 56.597656 L 27.640625 56.597656 L 27.40625 55.792969 L 12.492188 55.792969 L 11.101562 55.527344 C 10.734375 55.359375 10.449219 55.113281 10.273438 54.792969 C 9.917969 54.144531 10.039062 53.292969 10.613281 52.390625 L 13.800781 47.351562 L 25.5 47.148438 L 26.101562 47.136719 L 28.890625 47.089844 C 29.425781 47.082031 29.917969 46.863281 30.273438 46.480469 C 30.628906 46.089844 30.804688 45.578125 30.769531 45.042969 L 28.75 16.335938 C 28.671875 15.226562 27.707031 14.265625 26.597656 14.195312 L 8.84375 13.03125 C 8.707031 13.023438 8.566406 13.019531 8.425781 13.019531 C 7.410156 13.019531 6.363281 13.234375 5.933594 13.53125 C 5.429688 13.878906 5.097656 15.058594 5.199219 16.167969 L 7.777344 44.78125 C 7.789062 44.921875 7.804688 45.058594 7.828125 45.199219 L 7.84375 45.273438 L 3.34375 52.386719 C 2.996094 52.9375 2.816406 53.472656 2.808594 53.949219 L 2.808594 57.605469 L 0.382812 57.605469 L 0.382812 59.621094 C 2.398438 59.621094 4.410156 59.617188 6.425781 59.613281 L 6.625 59.613281 L 6.625 67.074219 L 33.6875 67.074219 L 33.648438 67.476562 C 33.144531 68.300781 32.75 69.1875 32.476562 70.109375 C 31.257812 74.390625 30.914062 76.386719 30.585938 78.316406 L 30.574219 78.378906 C 30.222656 80.410156 29.894531 82.324219 28.628906 86.660156 C 28.800781 86.859375 28.996094 87.066406 29.210938 87.28125 L 29.285156 87.355469 L 27.367188 97.761719 L 27.171875 97.730469 C 26.695312 97.652344 26.199219 97.613281 25.703125 97.613281 C 23.449219 97.613281 21.179688 98.390625 19.304688 99.796875 C 18.578125 100.339844 17.808594 101.476562 17.347656 102.230469 L 17.242188 102.40625 L 17.042969 102.34375 L 17 102.328125 C 16.894531 102.296875 16.78125 102.355469 16.746094 102.460938 C 16.714844 102.550781 16.757812 102.644531 16.839844 102.691406 C 16.851562 102.699219 16.863281 102.707031 16.875 102.714844 L 17.035156 102.765625 L 16.929688 102.945312 C 16.878906 103.03125 16.726562 103.3125 16.726562 103.3125 L 16.695312 103.375 L 16.707031 103.382812 C 16.726562 103.386719 16.957031 103.46875 17.359375 103.605469 C 31.453125 108.410156 36.984375 110.25 39.136719 110.945312 L 39.140625 110.949219 L 39.167969 110.867188 C 39.179688 110.832031 39.335938 110.398438 39.410156 110.183594 L 39.476562 109.996094 L 39.667969 110.058594 L 39.695312 110.066406 C 39.714844 110.074219 39.738281 110.074219 39.757812 110.074219 C 39.84375 110.074219 39.921875 110.023438 39.949219 109.9375 C 39.984375 109.828125 39.925781 109.71875 39.820312 109.683594 L 39.800781 109.675781 L 39.609375 109.613281 L 39.671875 109.425781 C 39.9375 108.644531 40.289062 107.609375 40.675781 106.417969 C 41.398438 104.1875 40.632812 101.5 40.378906 100.730469 L 40.359375 100.667969 L 43.09375 92.105469 L 43.21875 92.085938 C 43.382812 92.058594 43.542969 92.03125 43.699219 91.996094 C 44.703125 91.761719 44.867188 91.507812 45.058594 90.808594 L 45.257812 90.796875 L 45.507812 89.886719 L 45.863281 90.730469 C 45.890625 90.886719 45.917969 91.035156 45.945312 91.183594 C 46.015625 91.519531 46.082031 91.855469 46.144531 92.199219 C 46.363281 92.3125 46.59375 92.417969 46.851562 92.523438 L 46.917969 92.554688 C 46.898438 92.542969 46.746094 92.476562 46.695312 92.453125 L 46.570312 92.402344 L 47.378906 92.730469 L 47.378906 92.738281 L 47.484375 92.777344 L 48.792969 102.785156 L 48.597656 102.8125 C 48.183594 102.871094 47.773438 102.957031 47.378906 103.066406 L 47.175781 103.140625 L 47.175781 102.917969 C 47.039062 102.957031 46.90625 103 46.773438 103.046875 L 46.773438 103.140625 L 46.570312 103.332031 C 44.597656 104.074219 42.835938 105.445312 41.582031 107.214844 C 41.179688 107.785156 40.777344 108.835938 40.449219 110.191406 L 40.199219 110.390625 L 40.152344 110.390625 C 40.039062 110.390625 39.949219 110.480469 39.949219 110.59375 C 39.949219 110.691406 40.019531 110.769531 40.109375 110.785156 C 40.125 110.789062 40.136719 110.796875 40.152344 110.796875 L 40.277344 110.996094 C 40.25 111.117188 40.226562 111.238281 40.207031 111.355469 L 40.195312 111.441406 L 40.238281 111.453125 C 40.359375 111.457031 44.957031 111.539062 46.570312 111.566406 L 46.769531 111.601562 L 47.175781 111.601562 L 47.378906 111.582031 C 55.761719 111.726562 61.300781 111.800781 63.878906 111.800781 L 63.878906 111.675781 C 63.882812 111.65625 63.882812 111.605469 63.882812 111.527344 L 63.882812 111.441406 L 63.878906 111.445312 C 63.878906 111.445312 64.453125 111.039062 64.535156 110.960938 C 64.84375 110.65625 64.972656 110.097656 64.972656 109.632812 C 64.972656 109.277344 64.867188 108.726562 64.679688 108.457031 C 64.566406 108.289062 64.144531 108.140625 64.144531 108.140625 L 63.941406 108.117188 L 63.941406 107.890625 L 63.945312 107.890625 L 63.945312 106.972656 C 63.945312 106.558594 63.894531 106.125 63.792969 105.648438 L 63.746094 105.449219 L 63.699219 105.269531 C 63.136719 103.203125 61.800781 101.484375 61.789062 101.46875 L 61.742188 101.40625 L 61.933594 92.144531 L 62.015625 92.085938 C 62.804688 91.519531 62.769531 91.21875 62.628906 90.089844 L 62.605469 89.910156 C 62.511719 89.183594 62.457031 88.261719 62.441406 87.019531 L 62.4375 86.816406 L 62.640625 86.816406 L 62.757812 86.820312 L 74.816406 86.820312 L 74.816406 104.761719 C 74.816406 104.867188 74.832031 104.972656 74.867188 105.097656 L 74.941406 105.355469 L 74.96875 105.355469 L 75.027344 105.445312 C 75.285156 105.832031 75.742188 106.097656 76.246094 106.148438 L 76.429688 106.167969 L 76.429688 106.152344 L 76.59375 106.121094 C 77.082031 106.035156 77.53125 105.777344 77.792969 105.433594 L 77.851562 105.355469 C 77.851562 105.355469 77.871094 105.355469 77.894531 105.355469 L 77.980469 105.089844 C 78.011719 104.996094 78.042969 104.878906 78.042969 104.761719 L 78.042969 86.820312 L 91.304688 86.820312 C 93.113281 86.820312 94.585938 85.351562 94.585938 83.546875 L 94.585938 83.246094 C 94.585938 82 93.855469 80.84375 92.722656 80.296875 L 92.144531 80.015625 L 92.777344 79.914062 C 98.230469 79.0625 101.242188 71.820312 101.242188 67.140625 "/></g><path style=" stroke:none;fill-rule:nonzero;fill:#ffffff;fill-opacity:1;" d="M 76.617188 107.785156 L 76.429688 107.773438 L 76.429688 107.769531 L 76.253906 107.792969 C 75.316406 107.917969 74.613281 108.71875 74.613281 109.652344 C 74.613281 110.691406 75.460938 111.539062 76.5 111.539062 C 77.542969 111.539062 78.390625 110.691406 78.390625 109.652344 C 78.390625 108.664062 77.613281 107.84375 76.617188 107.785156 "/><path style=" stroke:none;fill-rule:nonzero;fill:#ffffff;fill-opacity:1;" d="M 65.074219 109.675781 C 65.074219 109.84375 65.046875 110.007812 65.003906 110.164062 C 65.046875 110.007812 65.074219 109.84375 65.074219 109.675781 "/><path style=" stroke:none;fill-rule:nonzero;fill:#ffffff;fill-opacity:1;" d="M 64.234375 105.371094 C 64.328125 105.359375 64.429688 105.355469 64.535156 105.355469 C 64.492188 105.355469 64.378906 105.355469 64.234375 105.371094 "/><g clip-rule="nonzero" clip-path="url(#22271669a1)"><path style=" stroke:none;fill-rule:nonzero;fill:#100f0d;fill-opacity:1;" d="M 91.730469 79.796875 C 91.726562 79.796875 91.726562 79.796875 91.726562 79.796875 C 91.582031 79.78125 91.449219 79.769531 91.304688 79.769531 L 82.484375 79.769531 C 85.40625 78.78125 87.777344 76.835938 89.347656 73.199219 C 89.378906 73.234375 89.425781 73.257812 89.488281 73.257812 C 92.941406 73.121094 97.488281 72.457031 98.472656 68.519531 C 98.785156 67.253906 98.839844 65.871094 98.949219 64.578125 C 98.988281 64.097656 99.023438 63.621094 99.054688 63.144531 C 99.648438 63.207031 100.128906 63.570312 100.472656 64.21875 C 100.84375 64.921875 101.042969 65.929688 101.042969 67.140625 C 101.042969 72.421875 97.5 79.796875 91.730469 79.796875 Z M 94.382812 83.246094 L 94.382812 83.546875 C 94.382812 85.238281 93.003906 86.617188 91.304688 86.617188 L 62.757812 86.617188 C 62.71875 86.617188 62.679688 86.613281 62.636719 86.613281 C 62.628906 85.789062 62.632812 84.925781 62.640625 84.070312 C 62.648438 82.628906 62.660156 81.261719 62.601562 80.179688 L 62.601562 80.175781 C 62.601562 80.175781 62.601562 80.179688 62.601562 80.179688 C 62.636719 80.179688 62.671875 80.175781 62.707031 80.175781 L 62.710938 80.175781 C 64.917969 80.1875 67.117188 80.320312 69.242188 80.449219 C 73.566406 80.714844 77.621094 80.957031 81.054688 80.171875 L 91.304688 80.171875 C 93.003906 80.171875 94.382812 81.550781 94.382812 83.246094 Z M 77.839844 104.761719 C 77.839844 105.355469 77.144531 105.910156 76.34375 105.957031 C 75.597656 105.914062 75.015625 105.390625 75.015625 104.761719 L 75.015625 87.019531 L 77.839844 87.019531 Z M 78.1875 109.652344 C 78.1875 110.585938 77.429688 111.335938 76.5 111.335938 C 75.574219 111.335938 74.816406 110.585938 74.816406 109.652344 C 74.816406 108.726562 75.574219 107.96875 76.5 107.96875 C 77.429688 107.96875 78.1875 108.726562 78.1875 109.652344 Z M 64.539062 105.152344 C 64.304688 105.152344 64.09375 105.179688 63.894531 105.21875 C 63.332031 103.144531 62.015625 101.429688 61.945312 101.339844 L 61.945312 101.335938 L 62.132812 92.25 C 63.027344 91.609375 62.972656 91.214844 62.828125 90.066406 L 62.808594 89.886719 C 62.703125 89.082031 62.65625 88.089844 62.640625 87.015625 C 62.683594 87.015625 62.71875 87.019531 62.757812 87.019531 L 74.613281 87.019531 L 74.613281 104.761719 C 74.613281 104.898438 74.636719 105.027344 74.671875 105.152344 Z M 64.035156 108.429688 C 64.035156 108.496094 64.03125 108.570312 64.03125 108.636719 C 63.847656 108.628906 63.671875 108.621094 63.394531 108.613281 C 63.640625 108.289062 63.824219 108.261719 64.035156 108.429688 Z M 61.519531 104.136719 L 61.609375 103.539062 C 61.835938 103.617188 62.015625 103.769531 62.136719 104.046875 C 61.878906 104.195312 61.675781 104.21875 61.519531 104.136719 Z M 58.289062 101.332031 C 57.144531 101.570312 56.054688 102.101562 54.917969 102.414062 C 53.835938 102.710938 52.703125 103.027344 51.578125 103.066406 C 51.488281 103.070312 51.402344 103.070312 51.316406 103.070312 C 50.273438 103.070312 49.425781 102.863281 48.988281 102.730469 L 48.96875 102.5625 L 47.730469 93.078125 C 49.703125 93.75 52.125 94.132812 54.503906 94.132812 C 57.214844 94.132812 59.863281 93.628906 61.726562 92.507812 L 61.542969 101.179688 C 61.371094 101.152344 61.074219 101.125 60.566406 101.125 C 59.804688 101.121094 59.039062 101.179688 58.289062 101.332031 Z M 59.066406 105.300781 C 59.164062 104.882812 59.316406 104.851562 59.589844 105.109375 C 59.449219 105.160156 59.304688 105.210938 59.066406 105.300781 Z M 57.46875 107.390625 C 57.574219 107.171875 57.78125 107.050781 58.175781 106.910156 C 58.195312 107.078125 58.21875 107.230469 58.238281 107.378906 Z M 57.359375 108.054688 C 57.359375 107.957031 57.363281 107.871094 57.371094 107.792969 L 58.296875 107.789062 C 58.304688 107.820312 58.308594 107.855469 58.3125 107.890625 C 58.054688 108.21875 57.742188 108.320312 57.359375 108.054688 Z M 51.972656 107.421875 L 51.941406 107.421875 C 51.914062 107.304688 51.878906 107.183594 51.851562 107.066406 C 51.902344 107.050781 51.945312 107.035156 51.992188 107.019531 C 52.039062 107.132812 52.082031 107.246094 52.132812 107.359375 C 52.078125 107.378906 52.027344 107.402344 51.972656 107.421875 Z M 51.152344 109.433594 C 51.175781 109.132812 51.1875 108.914062 51.203125 108.699219 C 51.265625 108.679688 51.324219 108.660156 51.382812 108.640625 C 51.511719 108.816406 51.636719 108.984375 51.800781 109.210938 C 51.550781 109.292969 51.402344 109.347656 51.152344 109.433594 Z M 48.109375 77.058594 C 48.222656 77.109375 48.335938 77.160156 48.445312 77.214844 C 48.414062 77.277344 48.382812 77.347656 48.347656 77.410156 C 48.246094 77.34375 48.144531 77.277344 48.042969 77.214844 C 48.0625 77.160156 48.089844 77.109375 48.109375 77.058594 Z M 49.121094 81.453125 C 49.1875 81.644531 49.234375 81.78125 49.296875 81.976562 C 48.964844 81.796875 48.964844 81.796875 49.121094 81.453125 Z M 51.402344 93.183594 C 51.285156 93.246094 51.242188 93.265625 51.160156 93.308594 C 51.105469 93.222656 51.046875 93.132812 50.976562 93.027344 C 51.230469 92.8125 51.320312 92.929688 51.402344 93.183594 Z M 50.898438 67.082031 C 51.113281 67.246094 51.253906 67.34375 51.472656 67.507812 C 51.332031 67.660156 51.28125 67.769531 51.207031 67.785156 C 51.105469 67.808594 50.992188 67.769531 50.828125 67.742188 C 50.847656 67.53125 50.867188 67.355469 50.898438 67.082031 Z M 52.050781 76.289062 C 52.285156 76.433594 52.28125 76.441406 52.203125 76.8125 C 52.101562 76.667969 52.003906 76.519531 51.898438 76.367188 C 51.976562 76.324219 52.03125 76.273438 52.050781 76.289062 Z M 53.753906 90.1875 C 53.957031 90.617188 53.902344 90.769531 53.46875 90.859375 C 53.578125 90.601562 53.640625 90.453125 53.753906 90.1875 Z M 54.246094 90.910156 C 54.296875 91.078125 54.328125 91.238281 54.390625 91.386719 C 54.457031 91.550781 54.542969 91.699219 54.644531 91.898438 C 54.421875 91.933594 54.230469 91.960938 54.011719 91.992188 C 53.664062 91.335938 53.679688 91.261719 54.246094 90.910156 Z M 57.421875 91.710938 C 57.460938 91.832031 57.503906 91.953125 57.546875 92.074219 C 57.5 92.09375 57.460938 92.113281 57.421875 92.132812 C 57.359375 92.019531 57.300781 91.914062 57.242188 91.800781 C 57.304688 91.769531 57.359375 91.742188 57.421875 91.710938 Z M 61.390625 80.035156 C 61.515625 80.40625 61.734375 80.699219 61.367188 81.078125 C 61.207031 80.703125 61.085938 80.414062 61.390625 80.035156 Z M 62.414062 65.5 C 62.476562 65.515625 62.542969 65.535156 62.601562 65.550781 C 62.535156 65.582031 62.464844 65.609375 62.375 65.640625 C 62.390625 65.589844 62.402344 65.542969 62.414062 65.5 Z M 64.058594 77.5625 C 64.105469 77.605469 64.160156 77.644531 64.210938 77.679688 C 64.113281 77.804688 64.023438 77.925781 63.925781 78.050781 C 63.886719 78.023438 63.851562 78 63.816406 77.972656 C 63.894531 77.835938 63.976562 77.699219 64.058594 77.5625 Z M 66.363281 70.890625 C 66.578125 70.859375 66.792969 70.832031 67.132812 70.78125 C 66.996094 70.992188 66.925781 71.101562 66.839844 71.242188 C 66.660156 71.160156 66.507812 71.089844 66.355469 71.015625 C 66.359375 70.976562 66.363281 70.933594 66.363281 70.890625 Z M 67.964844 75.285156 C 67.757812 75.898438 67.757812 75.898438 67.191406 75.777344 C 67.183594 75.652344 67.175781 75.515625 67.171875 75.351562 C 67.4375 75.332031 67.660156 75.3125 67.964844 75.285156 Z M 68 73.179688 C 68.050781 73.140625 68.121094 73.132812 68.289062 73.066406 C 68.199219 73.234375 68.167969 73.335938 68.105469 73.402344 C 68.058594 73.449219 67.964844 73.445312 67.734375 73.511719 C 67.890625 73.308594 67.9375 73.234375 68 73.179688 Z M 68.890625 74.296875 C 68.75 74.328125 68.621094 74.355469 68.464844 74.386719 C 68.421875 74.242188 68.386719 74.132812 68.34375 73.988281 C 68.636719 73.882812 68.832031 73.875 68.890625 74.296875 Z M 68.882812 72.230469 C 68.789062 72.394531 68.726562 72.511719 68.617188 72.703125 C 68.445312 72.441406 68.355469 72.308594 68.246094 72.148438 C 68.492188 71.925781 68.644531 72.121094 68.882812 72.230469 Z M 73.160156 79.769531 C 73.054688 79.855469 72.945312 79.949219 72.839844 80.039062 C 72.8125 80 72.785156 79.964844 72.761719 79.929688 C 72.871094 79.84375 72.980469 79.753906 73.089844 79.667969 C 73.113281 79.699219 73.136719 79.730469 73.160156 79.769531 Z M 71.210938 67.4375 C 71.34375 67.457031 71.480469 67.476562 71.617188 67.496094 C 71.4375 68.773438 71.359375 70.167969 71.359375 71.488281 C 71.359375 71.726562 71.367188 71.988281 71.382812 72.253906 C 71.441406 72.203125 71.507812 72.152344 71.585938 72.085938 C 71.585938 72.414062 71.582031 72.613281 71.582031 72.9375 C 71.519531 72.882812 71.460938 72.828125 71.414062 72.785156 C 71.589844 75.136719 72.246094 78.222656 73.644531 79.59375 C 74.128906 80.070312 74.664062 80.296875 75.261719 80.296875 C 74.800781 80.296875 74.328125 80.289062 73.851562 80.273438 C 73.683594 80.164062 73.519531 80.039062 73.363281 79.882812 C 71.457031 78.015625 70.957031 73.574219 70.957031 71.488281 C 70.957031 70.65625 70.988281 69.058594 71.210938 67.4375 Z M 75.019531 72.449219 C 75.019531 72.511719 75.023438 72.570312 75.023438 72.632812 C 74.714844 72.695312 74.402344 72.761719 74.050781 72.835938 C 73.902344 72.683594 73.761719 72.535156 73.527344 72.289062 C 74.125 72.242188 74.582031 72.234375 75.019531 72.449219 Z M 73.335938 75.089844 C 73.324219 75.136719 73.308594 75.191406 73.292969 75.238281 C 73.171875 75.210938 73.054688 75.179688 72.933594 75.148438 C 72.953125 75.082031 72.96875 75.011719 72.988281 74.945312 C 73.101562 74.992188 73.21875 75.042969 73.335938 75.089844 Z M 73.28125 69.304688 C 73.289062 69.257812 73.296875 69.214844 73.300781 69.171875 C 73.4375 69.191406 73.566406 69.210938 73.699219 69.230469 C 73.679688 69.292969 73.664062 69.351562 73.644531 69.414062 C 73.523438 69.375 73.402344 69.339844 73.28125 69.304688 Z M 77.488281 80.238281 C 77.398438 80.246094 77.300781 80.25 77.207031 80.253906 C 77.285156 80.199219 77.347656 80.152344 77.433594 80.09375 C 77.453125 80.140625 77.472656 80.191406 77.488281 80.238281 Z M 77.753906 78.96875 C 77.839844 78.789062 77.90625 78.660156 77.964844 78.535156 C 78.195312 78.863281 78.09375 78.96875 77.753906 78.96875 Z M 79.980469 76.058594 C 79.765625 76.226562 79.667969 76.300781 79.546875 76.394531 C 79.496094 76.003906 79.496094 76.003906 79.980469 76.058594 Z M 79.804688 69.222656 C 79.785156 69.183594 79.765625 69.144531 79.742188 69.105469 C 79.835938 69.042969 79.921875 68.972656 80.011719 68.910156 C 80.039062 68.960938 80.070312 69.019531 80.101562 69.074219 C 80 69.121094 79.902344 69.171875 79.804688 69.222656 Z M 81.070312 70.660156 C 81.136719 70.617188 81.175781 70.589844 81.351562 70.46875 C 81.328125 70.703125 81.316406 70.816406 81.277344 71.125 C 81.15625 70.855469 81.113281 70.757812 81.070312 70.660156 Z M 85.007812 69.320312 C 84.96875 69.332031 84.925781 69.34375 84.886719 69.351562 C 84.855469 69.21875 84.820312 69.082031 84.785156 68.945312 C 84.84375 68.9375 84.898438 68.933594 84.949219 68.925781 C 84.96875 69.054688 84.992188 69.1875 85.007812 69.320312 Z M 85.703125 76.511719 C 85.582031 76.640625 85.472656 76.769531 85.308594 76.957031 C 85.273438 76.546875 85.273438 76.546875 85.703125 76.511719 Z M 86.046875 76.703125 C 85.988281 76.648438 85.917969 76.59375 85.738281 76.445312 C 85.863281 76.242188 85.941406 76.113281 86.0625 75.910156 C 86.363281 76.308594 86.308594 76.484375 86.046875 76.703125 Z M 87.167969 71.382812 C 87.082031 72.039062 87.082031 72.039062 86.515625 71.789062 C 86.792969 71.617188 86.957031 71.515625 87.167969 71.382812 Z M 73.894531 62.929688 C 76.703125 62.699219 84.359375 62.796875 90.453125 62.921875 C 90.464844 64.542969 90.425781 66.058594 90.316406 67.40625 C 87.46875 67.6875 84.660156 67.625 81.800781 67.601562 C 78.402344 67.582031 75.039062 67.515625 71.667969 67.089844 C 71.964844 65.207031 72.585938 63.035156 73.894531 62.929688 Z M 90.855469 62.929688 C 94.691406 63.011719 97.835938 63.097656 98.640625 63.121094 C 98.621094 63.480469 98.601562 63.839844 98.578125 64.199219 C 98.378906 66.851562 98.402344 69.753906 95.953125 71.355469 C 94.101562 72.566406 91.652344 72.765625 89.503906 72.847656 C 89.742188 72.265625 89.957031 71.636719 90.15625 70.960938 C 90.691406 69.085938 90.878906 66.214844 90.855469 62.929688 Z M 88.910156 39.777344 C 88.789062 38.792969 88.703125 38.148438 88.691406 37.941406 C 88.546875 35.972656 88.28125 34 87.527344 32.28125 C 87.527344 32.277344 87.527344 32.277344 87.523438 32.273438 C 87.03125 31.148438 86.339844 30.140625 85.328125 29.320312 C 84.175781 28.390625 82.910156 27.648438 81.554688 27.117188 C 81.230469 26.988281 80.816406 26.832031 80.421875 26.679688 C 79.875 26.472656 79.300781 26.253906 79.183594 26.199219 C 78.613281 25.921875 78.253906 25.476562 78.117188 24.878906 C 78.066406 24.667969 78.019531 24.375 78.003906 24.089844 C 77.984375 23.730469 78.015625 23.375 78.160156 23.171875 C 78.015625 23.375 77.984375 23.730469 78.003906 24.089844 L 78.433594 22.964844 L 78.433594 22.960938 C 78.761719 22.714844 79.070312 22.464844 79.367188 22.21875 C 82.53125 22.160156 85.691406 22.152344 88.832031 22.34375 C 90.910156 22.46875 93.019531 23.375 94.597656 24.707031 C 96.226562 26.085938 96.78125 28.160156 97.210938 30.164062 C 98.246094 34.929688 98.472656 39.988281 98.671875 44.839844 C 98.917969 50.769531 99.023438 56.785156 98.667969 62.71875 C 97.890625 62.695312 94.722656 62.605469 90.851562 62.527344 C 90.757812 54.445312 89.449219 44.050781 88.910156 39.777344 Z M 57.421875 39.265625 C 57.453125 39.234375 57.46875 39.1875 57.46875 39.136719 C 57.46875 39.1875 57.453125 39.234375 57.421875 39.265625 Z M 57.46875 39.132812 C 57.46875 39.109375 57.464844 39.082031 57.457031 39.058594 C 57.464844 39.082031 57.46875 39.109375 57.46875 39.132812 Z M 86.515625 38.542969 C 86.011719 40.585938 85.351562 42.640625 84.441406 44.546875 C 83.8125 44.519531 83.1875 44.445312 82.566406 44.347656 C 80.917969 44.074219 79.285156 43.589844 77.71875 43.078125 C 77.117188 42.878906 76.5 42.671875 75.886719 42.449219 C 74.285156 41.859375 72.691406 41.140625 71.367188 40.117188 C 71.859375 38.851562 72.347656 37.578125 72.839844 36.308594 C 72.929688 36.0625 72.539062 35.960938 72.445312 36.199219 C 71.945312 37.507812 71.441406 38.8125 70.9375 40.117188 C 70.933594 40.132812 70.929688 40.144531 70.925781 40.15625 C 70.738281 40.683594 70.527344 41.308594 70.34375 41.835938 L 70.023438 42.785156 C 69.648438 43.902344 69.253906 45.054688 68.824219 46.175781 C 67.894531 48.75 64.53125 48.394531 64.488281 48.390625 C 63.300781 48.296875 62.007812 48.15625 60.425781 47.941406 C 59.496094 47.8125 57.675781 47.589844 55.632812 47.34375 C 55.5 47.328125 55.367188 47.3125 55.230469 47.296875 C 53.570312 47.09375 51.796875 46.882812 50.242188 46.703125 C 51.074219 45.109375 51.804688 43.453125 52.464844 41.953125 C 52.933594 40.890625 53.375 39.890625 53.78125 39.070312 C 53.960938 38.710938 54.15625 38.304688 54.371094 37.867188 C 54.394531 37.808594 54.421875 37.753906 54.449219 37.699219 C 54.871094 38.664062 56.003906 39.117188 57.027344 39.28125 C 56.476562 41.554688 55.847656 44.410156 55.230469 47.292969 C 55.367188 47.308594 55.5 47.324219 55.632812 47.339844 C 56.585938 42.886719 57.570312 38.503906 58.238281 36.242188 C 58.269531 36.136719 58.210938 36.023438 58.105469 35.992188 C 57.996094 35.960938 57.882812 36.023438 57.851562 36.128906 C 57.636719 36.855469 57.390625 37.796875 57.121094 38.890625 C 57.175781 38.894531 57.226562 38.902344 57.277344 38.910156 C 57.371094 38.917969 57.433594 38.984375 57.457031 39.058594 C 57.433594 38.984375 57.371094 38.921875 57.273438 38.910156 C 57.226562 38.902344 57.175781 38.898438 57.121094 38.890625 C 56.101562 38.746094 54.925781 38.273438 54.703125 37.160156 C 56.679688 33.078125 59.878906 27.035156 65.351562 27.035156 C 65.496094 27.035156 66.179688 26.976562 66.253906 26.972656 L 66.535156 26.957031 C 66.71875 26.957031 66.902344 26.945312 67.09375 26.933594 C 67.234375 29.371094 70.234375 29.199219 72.015625 28.929688 C 74.367188 28.578125 77.035156 27.832031 79.109375 26.601562 C 79.316406 26.691406 79.769531 26.863281 80.28125 27.058594 C 80.667969 27.203125 81.082031 27.363281 81.402344 27.492188 C 82.722656 28.007812 83.953125 28.726562 85.070312 29.628906 C 86.015625 30.394531 86.675781 31.347656 87.144531 32.40625 C 87.578125 34.390625 86.996094 36.621094 86.515625 38.542969 Z M 83.136719 48.140625 C 81.730469 51.382812 80.105469 54.699219 77.0625 56.546875 C 73.242188 58.84375 68.230469 58.242188 64.296875 57.464844 C 59.78125 56.570312 44.828125 50.914062 44.675781 50.851562 L 44.605469 51.039062 L 44.65625 50.859375 C 44.636719 50.847656 44.621094 50.839844 44.605469 50.839844 L 44.546875 50.839844 C 43.269531 50.765625 42.015625 51.09375 40.734375 51.007812 C 39.703125 50.9375 37.894531 50.164062 37.78125 48.945312 C 38.1875 49.175781 38.648438 49.332031 39.066406 49.484375 C 39.308594 49.574219 39.414062 49.1875 39.171875 49.097656 C 38.671875 48.90625 38.164062 48.726562 37.722656 48.425781 C 37.238281 48.09375 37.109375 47.589844 37.140625 47.054688 C 37.886719 47.519531 38.800781 47.726562 39.589844 48.09375 C 39.828125 48.203125 40.03125 47.855469 39.796875 47.746094 C 39.238281 47.488281 38.664062 47.296875 38.09375 47.070312 C 37.773438 46.941406 37.472656 46.785156 37.183594 46.601562 C 36.691406 46.296875 36.738281 45.851562 36.824219 45.375 C 37.523438 45.730469 38.261719 45.996094 38.933594 46.226562 C 39.03125 46.257812 39.136719 46.292969 39.234375 46.324219 C 39.46875 46.402344 39.710938 46.476562 39.925781 46.574219 C 39.953125 46.585938 39.980469 46.59375 40.011719 46.59375 C 40.085938 46.59375 40.160156 46.550781 40.195312 46.472656 C 40.242188 46.371094 40.195312 46.257812 40.09375 46.207031 C 39.855469 46.097656 39.601562 46.019531 39.355469 45.941406 C 39.261719 45.910156 39.160156 45.878906 39.0625 45.84375 C 38.109375 45.519531 37.015625 45.121094 36.113281 44.480469 C 35.980469 44.382812 35.539062 44.042969 35.613281 43.707031 C 35.628906 43.632812 35.664062 43.601562 35.691406 43.585938 C 35.789062 43.527344 36.015625 43.492188 36.542969 43.652344 C 37.195312 43.851562 37.945312 44.144531 38.742188 44.453125 C 39.664062 44.8125 40.617188 45.183594 41.410156 45.402344 C 41.414062 45.402344 41.417969 45.40625 41.421875 45.40625 C 41.433594 45.410156 41.445312 45.40625 41.460938 45.40625 C 41.472656 45.410156 41.484375 45.410156 41.496094 45.410156 C 41.515625 45.410156 41.53125 45.402344 41.546875 45.398438 C 41.554688 45.394531 41.5625 45.394531 41.566406 45.390625 C 41.585938 45.382812 41.59375 45.371094 41.613281 45.359375 C 41.617188 45.351562 41.625 45.34375 41.628906 45.339844 C 41.640625 45.328125 41.644531 45.3125 41.652344 45.300781 C 41.65625 45.292969 41.664062 45.285156 41.667969 45.277344 C 41.667969 45.273438 41.667969 45.273438 41.667969 45.269531 C 41.667969 45.269531 41.667969 45.265625 41.671875 45.265625 L 41.671875 45.226562 C 41.671875 45.214844 41.675781 45.203125 41.675781 45.1875 C 41.671875 45.175781 41.667969 45.164062 41.664062 45.152344 C 41.660156 45.140625 41.660156 45.128906 41.652344 45.117188 C 41.648438 45.101562 41.640625 45.09375 41.632812 45.085938 C 41.625 45.074219 41.617188 45.066406 41.605469 45.054688 C 41.59375 45.046875 41.585938 45.042969 41.570312 45.039062 C 41.558594 45.03125 41.550781 45.023438 41.542969 45.019531 L 41.445312 44.988281 C 39.539062 44.351562 39.160156 43.894531 39.101562 43.679688 C 39.085938 43.625 39.082031 43.539062 39.1875 43.421875 C 39.324219 43.269531 39.722656 43.292969 40.234375 43.480469 C 40.679688 43.640625 41.15625 43.789062 41.730469 43.949219 C 42.925781 44.285156 43.855469 44.691406 44.5625 45.195312 C 45.015625 45.519531 45.382812 45.929688 45.621094 46.375 L 45.667969 46.472656 C 45.691406 46.53125 45.742188 46.5625 45.796875 46.574219 C 45.800781 46.578125 45.800781 46.578125 45.800781 46.578125 L 45.851562 46.394531 L 45.828125 46.589844 C 45.945312 46.601562 57.46875 47.941406 60.371094 48.339844 C 61.960938 48.558594 63.257812 48.703125 64.449219 48.789062 C 64.457031 48.789062 64.640625 48.8125 64.929688 48.8125 C 65.96875 48.8125 68.390625 48.5625 69.203125 46.316406 C 69.632812 45.191406 70.027344 44.035156 70.40625 42.914062 L 70.730469 41.964844 C 70.882812 41.511719 71.0625 40.984375 71.230469 40.511719 C 73.027344 41.847656 75.25 42.660156 77.34375 43.378906 C 79.566406 44.132812 81.941406 44.816406 84.296875 44.9375 C 83.910156 46.242188 83.496094 47.371094 83.136719 48.140625 Z M 53.125 57.316406 L 53.085938 57.472656 C 53.078125 57.445312 53.066406 57.421875 53.050781 57.398438 L 53.039062 57.386719 C 53.035156 57.378906 53.03125 57.378906 53.027344 57.371094 C 52.996094 57.34375 52.953125 57.324219 52.898438 57.324219 C 51.429688 57.328125 49.964844 57.328125 48.5 57.332031 C 50.515625 56.925781 52.449219 56.125 53.675781 54.5625 C 53.683594 54.570312 53.691406 54.570312 53.695312 54.574219 C 53.492188 55.566406 53.296875 56.496094 53.125 57.316406 Z M 51.710938 59.34375 C 49.984375 59.34375 48.257812 59.347656 46.53125 59.351562 C 40.601562 59.359375 34.679688 59.367188 28.753906 59.375 C 19.363281 59.390625 9.976562 59.40625 0.585938 59.417969 L 0.585938 57.808594 L 1.269531 57.808594 C 1.707031 57.808594 2.148438 57.808594 2.589844 57.804688 L 2.589844 57.808594 L 4.035156 57.804688 C 4.71875 57.804688 5.398438 57.800781 6.082031 57.800781 C 11.894531 57.792969 17.710938 57.785156 23.523438 57.773438 C 33.246094 57.757812 42.972656 57.742188 52.695312 57.726562 L 52.695312 59.226562 C 52.695312 59.273438 52.699219 59.308594 52.703125 59.339844 C 52.371094 59.339844 52.042969 59.339844 51.710938 59.34375 Z M 50.542969 64.933594 C 50.519531 64.882812 50.5 64.832031 50.476562 64.78125 C 50.589844 64.726562 50.699219 64.667969 50.8125 64.609375 C 50.832031 64.675781 50.851562 64.75 50.875 64.820312 C 50.761719 64.855469 50.652344 64.894531 50.542969 64.933594 Z M 47.175781 59.832031 L 47.175781 59.75 L 47.65625 59.75 C 47.5 59.773438 47.335938 59.804688 47.175781 59.832031 Z M 46.773438 59.898438 C 42.527344 60.667969 36.804688 62.507812 33.800781 66.875 L 6.828125 66.875 L 6.828125 59.8125 C 13.734375 59.804688 20.640625 59.789062 27.546875 59.78125 C 33.953125 59.769531 40.367188 59.761719 46.773438 59.75 Z M 44.523438 64.972656 C 44.4375 64.921875 44.347656 64.898438 44.332031 64.851562 C 44.300781 64.746094 44.304688 64.625 44.277344 64.40625 C 44.695312 64.570312 44.660156 64.738281 44.523438 64.972656 Z M 41.398438 92.425781 C 41.882812 92.425781 42.355469 92.398438 42.8125 92.34375 L 40.28125 100.246094 C 40.15625 100.164062 39.882812 100.03125 39.25 99.824219 C 38.171875 99.480469 36.59375 99.117188 35.253906 99.363281 C 35.234375 99.363281 33.703125 99.351562 32.199219 99.21875 C 30.5625 99.066406 28.902344 98.722656 27.582031 97.699219 L 29.414062 87.78125 L 29.472656 87.800781 C 32.503906 90.570312 37.363281 92.425781 41.398438 92.425781 Z M 34.902344 77.214844 C 35.007812 77.386719 35.09375 77.527344 35.191406 77.695312 C 35.058594 77.800781 34.949219 77.886719 34.777344 78.019531 C 34.640625 77.832031 34.523438 77.675781 34.359375 77.453125 C 34.585938 77.355469 34.726562 77.289062 34.902344 77.214844 Z M 35.785156 84.808594 C 35.914062 84.917969 36 84.988281 36.101562 85.074219 C 35.960938 85.355469 35.792969 85.445312 35.453125 85.320312 C 35.578125 85.128906 35.671875 84.980469 35.785156 84.808594 Z M 35.902344 69.234375 C 36.015625 69.480469 36.015625 69.480469 35.640625 69.539062 C 35.785156 69.367188 35.84375 69.304688 35.902344 69.234375 Z M 39.300781 68.859375 C 39.519531 69.183594 39.554688 69.40625 39.144531 69.539062 C 38.945312 69.195312 39.03125 69.019531 39.300781 68.859375 Z M 43.417969 73.726562 C 43.230469 74.1875 42.996094 74.117188 42.695312 73.941406 C 42.847656 73.546875 43.066406 73.53125 43.417969 73.726562 Z M 39.980469 105.691406 C 40.160156 105.546875 40.269531 105.453125 40.410156 105.34375 C 40.382812 105.675781 40.382812 105.675781 39.980469 105.691406 Z M 39.21875 102.574219 C 39.078125 102.207031 39.164062 102.019531 39.496094 101.875 C 39.570312 102.023438 39.628906 102.144531 39.707031 102.308594 C 39.535156 102.402344 39.398438 102.476562 39.21875 102.574219 Z M 39.3125 104.148438 C 39.167969 104.152344 39.015625 104.160156 38.832031 104.167969 C 38.84375 104.027344 38.855469 103.941406 38.871094 103.746094 C 39.070312 103.855469 39.210938 103.9375 39.355469 104.015625 C 39.339844 104.058594 39.328125 104.105469 39.3125 104.148438 Z M 38.082031 107.796875 C 38.050781 107.703125 38.011719 107.609375 37.980469 107.519531 C 38.195312 107.441406 38.410156 107.363281 38.722656 107.246094 C 38.582031 107.777344 38.367188 107.859375 38.082031 107.796875 Z M 30.886719 102.453125 C 30.835938 102.460938 30.78125 102.472656 30.734375 102.480469 C 30.675781 102.359375 30.609375 102.238281 30.527344 102.078125 C 30.675781 102.03125 30.777344 101.996094 30.964844 101.941406 C 30.929688 102.164062 30.90625 102.308594 30.886719 102.453125 Z M 26.195312 56.800781 L 41.125 56.800781 L 41.125 57.324219 L 26.195312 57.332031 Z M 33.40625 56.015625 C 33.414062 56.019531 33.414062 56.019531 33.417969 56.019531 C 33.578125 56.019531 33.753906 55.988281 33.929688 55.925781 C 34.199219 55.832031 34.433594 55.667969 34.660156 55.507812 C 34.746094 55.445312 34.828125 55.386719 34.917969 55.328125 C 35.167969 55.167969 35.457031 55.054688 35.832031 54.972656 C 36.3125 54.863281 36.785156 54.851562 37.230469 54.917969 C 36.480469 55.234375 35.933594 55.785156 35.808594 56.398438 L 33.066406 56.398438 C 33.128906 56.234375 33.238281 56.117188 33.40625 56.015625 Z M 33.175781 55.34375 C 33.683594 54.78125 34.398438 54.265625 35.289062 53.824219 C 36.273438 53.328125 37.3125 53.117188 38.285156 53.207031 C 38.835938 53.257812 39.441406 53.453125 39.964844 53.746094 L 40.359375 53.894531 L 40.378906 53.894531 C 40.382812 53.898438 40.382812 53.898438 40.390625 53.902344 C 40.890625 54.015625 41.375 54.070312 41.84375 54.070312 C 43.648438 54.070312 45.195312 53.257812 46.542969 51.980469 C 48.183594 52.59375 50.652344 53.5 53.277344 54.421875 C 51.3125 56.828125 47.40625 57.257812 44.519531 57.335938 C 43.519531 57.339844 42.523438 57.339844 41.527344 57.339844 L 41.527344 56.597656 C 41.527344 56.492188 41.433594 56.398438 41.324219 56.398438 L 36.230469 56.398438 C 36.398438 55.800781 37.125 55.265625 38.011719 55.105469 C 38.488281 55.015625 39.414062 55.1875 39.421875 55.195312 C 39.535156 55.214844 39.636719 55.140625 39.660156 55.03125 C 39.679688 54.921875 39.605469 54.816406 39.496094 54.796875 C 39.457031 54.789062 38.554688 54.621094 37.996094 54.703125 C 37.3125 54.445312 36.535156 54.398438 35.738281 54.582031 C 35.320312 54.671875 34.996094 54.804688 34.699219 54.992188 C 34.605469 55.046875 34.519531 55.117188 34.425781 55.179688 C 34.222656 55.320312 34.015625 55.472656 33.800781 55.542969 C 33.429688 55.671875 33.171875 55.605469 33.113281 55.515625 C 33.078125 55.464844 33.148438 55.382812 33.175781 55.34375 Z M 78.40625 22.984375 C 78.421875 22.96875 78.4375 22.949219 78.445312 22.925781 L 78.445312 22.933594 C 78.433594 22.949219 78.421875 22.96875 78.40625 22.984375 Z M 68.914062 26.351562 C 69.265625 26.058594 69.339844 25.632812 69.339844 25.222656 C 69.71875 25.285156 70.09375 25.320312 70.472656 25.320312 C 70.683594 25.320312 70.894531 25.3125 71.105469 25.296875 C 71.21875 25.285156 71.300781 25.1875 71.292969 25.078125 C 71.289062 25.0625 71.285156 25.050781 71.277344 25.035156 C 71.25 24.945312 71.160156 24.878906 71.074219 24.890625 C 69.980469 24.984375 68.941406 24.828125 67.792969 24.394531 C 66.660156 23.972656 65.617188 23.1875 64.773438 22.128906 C 64.230469 21.449219 63.796875 20.628906 63.480469 19.71875 C 64.585938 20.136719 66.035156 20 66.746094 19 C 66.898438 18.789062 66.546875 18.585938 66.398438 18.800781 C 65.742188 19.71875 64.234375 19.699219 63.324219 19.207031 C 63.269531 19.003906 63.210938 18.800781 63.167969 18.589844 C 63.097656 18.261719 63.035156 17.9375 62.972656 17.625 C 63.175781 17.683594 63.398438 17.726562 63.660156 17.75 C 63.917969 17.773438 63.917969 17.371094 63.660156 17.34375 C 60.8125 17.113281 62.875 13.660156 63.707031 12.332031 C 63.84375 12.109375 63.496094 11.910156 63.359375 12.132812 C 63.105469 12.53125 62.800781 13.058594 62.523438 13.628906 C 62.523438 13.566406 62.523438 13.496094 62.515625 13.433594 C 62.71875 13.300781 62.867188 13 62.878906 12.640625 C 62.890625 12.265625 62.757812 11.941406 62.558594 11.800781 C 62.59375 11.34375 62.644531 10.90625 62.714844 10.484375 C 62.914062 10.578125 63.195312 10.699219 63.28125 10.53125 C 63.316406 10.453125 63.3125 10.367188 63.28125 10.289062 C 63.210938 10.113281 63.070312 9.984375 62.925781 9.867188 C 62.902344 9.84375 62.875 9.824219 62.851562 9.796875 C 62.851562 9.785156 62.855469 9.769531 62.855469 9.757812 L 62.917969 9.5 C 63.171875 8.398438 63.457031 7.152344 63.910156 6.167969 C 64.5 4.898438 65.859375 3.390625 67.210938 2.507812 C 68.628906 1.582031 70.417969 1.09375 72.328125 1.0625 C 72.707031 1.28125 73.054688 1.53125 73.355469 1.773438 C 75.078125 3.15625 75.417969 5.449219 75.519531 7.292969 C 75.554688 7.953125 75.558594 8.625 75.558594 9.261719 C 73.375 10.003906 71.800781 12.117188 71.800781 14.605469 C 71.800781 17.714844 74.25 20.234375 77.269531 20.234375 C 80.292969 20.234375 82.738281 17.714844 82.738281 14.605469 C 82.738281 12.039062 81.066406 9.878906 78.785156 9.203125 C 78.785156 8.179688 78.761719 6.867188 78.601562 5.605469 C 78.4375 4.320312 78.0625 3.269531 77.484375 2.480469 C 77.398438 2.359375 77.304688 2.246094 77.207031 2.136719 C 77.121094 2.046875 77.03125 1.957031 76.941406 1.871094 C 79.523438 2.824219 81.53125 4.519531 82.527344 6.621094 C 83.1875 8.015625 83.585938 9.640625 83.71875 11.292969 C 83.847656 12.917969 83.703125 14.5625 83.285156 16.027344 C 82.589844 18.425781 80.96875 20.527344 78.1875 22.652344 C 78.179688 22.65625 78.175781 22.65625 78.171875 22.660156 C 78.140625 22.671875 78.105469 22.691406 78.074219 22.710938 C 78.066406 22.714844 78.0625 22.714844 78.054688 22.722656 C 78.046875 22.722656 78.039062 22.734375 78.03125 22.738281 C 78.003906 22.761719 77.972656 22.785156 77.941406 22.8125 C 77.925781 22.824219 77.914062 22.839844 77.898438 22.859375 C 77.878906 22.878906 77.863281 22.902344 77.847656 22.925781 C 77.828125 22.945312 77.816406 22.960938 77.804688 22.984375 C 77.804688 22.988281 77.800781 22.992188 77.796875 23 C 77.785156 23.023438 77.769531 23.046875 77.757812 23.074219 C 77.746094 23.101562 77.734375 23.132812 77.71875 23.160156 C 77.710938 23.191406 77.695312 23.226562 77.683594 23.257812 C 77.675781 23.289062 77.667969 23.320312 77.660156 23.359375 C 77.644531 23.421875 77.632812 23.488281 77.625 23.554688 C 77.621094 23.585938 77.613281 23.625 77.613281 23.65625 C 77.609375 23.703125 77.605469 23.75 77.597656 23.796875 C 77.597656 23.871094 77.597656 23.9375 77.597656 24.007812 C 77.597656 24.035156 77.597656 24.058594 77.605469 24.082031 C 77.621094 24.480469 77.691406 24.835938 77.71875 24.96875 C 77.863281 25.570312 78.1875 26.042969 78.6875 26.375 C 76.296875 27.640625 67.675781 30.773438 67.492188 26.894531 C 68.007812 26.832031 68.511719 26.6875 68.914062 26.351562 Z M 75.859375 14.605469 C 75.859375 13.804688 76.492188 13.152344 77.269531 13.152344 C 78.042969 13.152344 78.675781 13.804688 78.675781 14.605469 C 78.675781 15.40625 78.042969 16.058594 77.269531 16.058594 C 76.492188 16.058594 75.859375 15.40625 75.859375 14.605469 Z M 73.667969 16.820312 C 73.285156 16.171875 73.0625 15.417969 73.0625 14.605469 C 73.0625 13.480469 73.488281 12.460938 74.175781 11.691406 C 73.488281 12.460938 73.066406 13.480469 73.066406 14.605469 C 73.066406 15.417969 73.289062 16.171875 73.667969 16.820312 Z M 78.816406 11.035156 C 78.816406 10.976562 78.816406 10.917969 78.8125 10.855469 C 78.816406 10.914062 78.816406 10.976562 78.816406 11.035156 C 80.140625 11.644531 81.066406 13.015625 81.066406 14.605469 C 81.066406 16.765625 79.363281 18.523438 77.269531 18.523438 C 75.171875 18.523438 73.46875 16.765625 73.46875 14.605469 C 73.46875 13.085938 74.3125 11.769531 75.542969 11.121094 C 75.546875 10.988281 75.546875 10.847656 75.550781 10.710938 C 75.546875 10.847656 75.546875 10.984375 75.546875 11.121094 C 75.515625 13.144531 75.445312 14.632812 75.441406 14.648438 L 75.460938 14.648438 C 75.484375 15.652344 76.285156 16.460938 77.269531 16.460938 C 78.269531 16.460938 79.082031 15.628906 79.082031 14.605469 C 79.082031 14.453125 79.054688 14.308594 79.023438 14.164062 C 78.960938 13.5625 78.871094 12.417969 78.816406 11.035156 Z M 78.804688 10.589844 C 80.363281 11.222656 81.472656 12.78125 81.472656 14.605469 C 81.472656 15.199219 81.355469 15.769531 81.140625 16.285156 C 81.355469 15.769531 81.472656 15.203125 81.472656 14.605469 C 81.472656 12.78125 80.363281 11.222656 78.804688 10.589844 Z M 72.765625 0.4375 C 74.375 0.503906 75.808594 1.183594 76.910156 2.410156 C 77.589844 3.167969 78.023438 4.261719 78.199219 5.65625 C 78.363281 6.9375 78.382812 8.277344 78.382812 9.300781 C 78.382812 10.867188 78.46875 12.292969 78.542969 13.289062 C 78.210938 12.953125 77.765625 12.746094 77.269531 12.746094 C 76.714844 12.746094 76.222656 13.007812 75.894531 13.414062 C 75.925781 12.417969 75.960938 10.933594 75.960938 9.300781 C 75.960938 8.648438 75.957031 7.957031 75.921875 7.269531 C 75.816406 5.347656 75.457031 2.945312 73.605469 1.457031 C 73.148438 1.085938 72.566406 0.695312 71.933594 0.425781 C 72.21875 0.425781 72.5 0.429688 72.765625 0.4375 Z M 89.414062 107.96875 C 90.339844 107.96875 91.097656 108.726562 91.097656 109.652344 C 91.097656 110.585938 90.339844 111.335938 89.414062 111.335938 C 88.484375 111.335938 87.726562 110.585938 87.726562 109.652344 C 87.726562 108.726562 88.484375 107.96875 89.414062 107.96875 Z M 52.324219 111.175781 C 52.453125 111.089844 52.558594 111.023438 52.703125 110.929688 C 52.644531 111.347656 52.644531 111.347656 52.324219 111.175781 Z M 47.960938 104.628906 C 47.976562 104.226562 48.160156 104.199219 48.492188 104.3125 C 48.457031 104.808594 48.234375 104.738281 47.960938 104.628906 Z M 47.738281 103.230469 C 47.789062 103.222656 47.84375 103.210938 47.894531 103.199219 C 47.949219 103.320312 48.003906 103.445312 48.128906 103.726562 C 47.90625 103.597656 47.796875 103.570312 47.746094 103.496094 C 47.703125 103.4375 47.738281 103.324219 47.738281 103.230469 Z M 45.347656 83.402344 C 45.332031 83.453125 45.25 83.488281 45.175781 83.542969 C 44.992188 83.308594 45.039062 83.191406 45.335938 83.113281 C 45.34375 83.234375 45.371094 83.324219 45.347656 83.402344 Z M 45.75 68.230469 C 45.84375 68.277344 45.90625 68.285156 45.921875 68.316406 C 46.039062 68.554688 45.957031 68.675781 45.570312 68.710938 C 45.660156 68.484375 45.703125 68.355469 45.75 68.230469 Z M 5.226562 55.589844 C 4.230469 55.589844 3.503906 55.273438 3.183594 54.691406 C 2.867188 54.117188 2.980469 53.335938 3.515625 52.496094 L 7.761719 45.78125 C 7.976562 46.503906 8.34375 47.140625 8.789062 47.292969 C 9.269531 47.460938 10.453125 47.585938 11.546875 47.585938 L 11.726562 47.582031 C 11.730469 47.582031 11.734375 47.585938 11.738281 47.585938 C 11.742188 47.585938 11.777344 47.585938 11.777344 47.585938 L 13.429688 47.558594 L 10.4375 52.28125 C 9.824219 53.25 9.703125 54.179688 10.09375 54.890625 C 10.257812 55.179688 10.496094 55.414062 10.792969 55.589844 Z M 5.398438 16.148438 C 5.296875 15.015625 5.652344 13.96875 6.050781 13.695312 C 6.304688 13.519531 6.84375 13.367188 7.453125 13.289062 C 7.402344 13.332031 7.351562 13.378906 7.304688 13.433594 C 6.941406 13.824219 6.765625 14.355469 6.816406 14.921875 L 9.386719 45.425781 C 9.445312 46.125 9.839844 46.742188 10.394531 47.140625 C 9.757812 47.089844 9.195312 47.007812 8.921875 46.914062 C 8.554688 46.785156 8.074219 45.871094 7.972656 44.761719 Z M 8.730469 13.230469 C 8.769531 13.230469 8.808594 13.230469 8.847656 13.234375 L 26.582031 14.394531 C 27.597656 14.460938 28.480469 15.339844 28.550781 16.351562 L 30.566406 45.058594 C 30.597656 45.539062 30.445312 45.996094 30.125 46.339844 C 29.808594 46.6875 29.367188 46.878906 28.886719 46.886719 L 11.769531 47.183594 L 11.742188 47.378906 L 11.738281 47.378906 L 11.738281 47.183594 C 10.75 47.183594 9.875 46.382812 9.789062 45.394531 L 7.21875 14.890625 C 7.183594 14.4375 7.316406 14.015625 7.601562 13.703125 C 7.882812 13.398438 8.285156 13.230469 8.730469 13.230469 Z M 101.445312 67.140625 C 101.445312 65.867188 101.230469 64.789062 100.832031 64.03125 C 100.421875 63.257812 99.8125 62.8125 99.074219 62.738281 C 99.132812 61.703125 99.167969 60.667969 99.195312 59.632812 C 99.273438 56.488281 99.253906 53.339844 99.21875 50.191406 C 99.148438 44.777344 98.863281 39.363281 98.226562 33.984375 C 97.984375 31.921875 97.660156 29.847656 97.027344 27.867188 C 96.457031 26.078125 95.480469 24.765625 93.929688 23.691406 C 90.589844 21.394531 86.296875 21.839844 82.460938 21.847656 C 81.566406 21.851562 80.671875 21.859375 79.773438 21.867188 C 81.820312 20.054688 83.074219 18.203125 83.671875 16.136719 C 84.546875 13.09375 84.242188 9.292969 82.890625 6.449219 C 81.726562 3.996094 79.265625 2.078125 76.128906 1.179688 C 75.15625 0.480469 74.015625 0.0820312 72.78125 0.0351562 C 71.925781 0.00390625 70.941406 0.03125 70.214844 0.113281 L 70.210938 0.113281 C 69.535156 0.183594 68.5 0.792969 68.359375 1.449219 C 67.875 1.65625 67.414062 1.894531 66.992188 2.171875 C 65.578125 3.09375 64.164062 4.664062 63.546875 6 C 63.070312 7.023438 62.78125 8.292969 62.523438 9.410156 L 62.488281 9.558594 C 62.445312 9.554688 62.394531 9.613281 62.378906 9.640625 C 62.304688 9.765625 62.273438 9.960938 62.269531 10.105469 C 62.265625 10.191406 62.296875 10.246094 62.339844 10.289062 C 62.117188 11.546875 62.058594 12.949219 62.160156 14.480469 C 61.722656 15.660156 61.605469 16.859375 62.527344 17.425781 C 62.601562 17.832031 62.683594 18.246094 62.769531 18.675781 C 63.078125 20.101562 63.660156 21.382812 64.453125 22.378906 C 65.34375 23.496094 66.449219 24.324219 67.652344 24.777344 C 68.09375 24.941406 68.515625 25.0625 68.9375 25.152344 C 68.945312 25.503906 68.902344 25.835938 68.652344 26.046875 C 68.109375 26.5 67.265625 26.53125 66.519531 26.558594 L 66.226562 26.570312 C 65.925781 26.59375 65.445312 26.632812 65.355469 26.632812 C 59.300781 26.632812 55.984375 33.554688 54.003906 37.691406 C 53.792969 38.132812 53.601562 38.535156 53.421875 38.894531 C 53.007812 39.722656 52.566406 40.722656 52.09375 41.789062 C 51.417969 43.332031 50.671875 45.03125 49.816406 46.652344 C 47.898438 46.425781 46.394531 46.253906 45.988281 46.203125 L 45.988281 46.195312 C 45.710938 45.683594 45.300781 45.226562 44.796875 44.867188 C 44.050781 44.339844 43.082031 43.910156 41.839844 43.566406 C 41.273438 43.40625 40.808594 43.257812 40.371094 43.101562 C 39.875 42.917969 39.21875 42.78125 38.890625 43.152344 C 38.671875 43.398438 38.671875 43.632812 38.710938 43.785156 C 38.738281 43.882812 38.789062 43.976562 38.855469 44.066406 C 38.066406 43.757812 37.316406 43.46875 36.660156 43.269531 C 36.316406 43.160156 35.816406 43.042969 35.488281 43.238281 C 35.347656 43.324219 35.253906 43.457031 35.21875 43.625 C 35.105469 44.164062 35.585938 44.597656 35.878906 44.804688 C 36.0625 44.9375 36.257812 45.054688 36.453125 45.167969 C 36.332031 45.84375 36.308594 46.347656 36.773438 46.785156 C 36.765625 46.796875 36.761719 46.808594 36.757812 46.824219 C 36.675781 47.472656 36.777344 48.0625 37.242188 48.539062 C 37.28125 48.589844 37.332031 48.628906 37.378906 48.667969 C 37.25 49.765625 38.351562 50.640625 39.265625 51.011719 C 41.035156 51.730469 42.730469 51.128906 44.5625 51.246094 C 44.675781 51.285156 45.234375 51.5 46.113281 51.824219 C 44.539062 53.253906 42.695312 54.007812 40.488281 53.511719 L 40.140625 53.382812 C 39.59375 53.074219 38.929688 52.863281 38.320312 52.808594 C 37.265625 52.707031 36.160156 52.9375 35.109375 53.460938 C 34.171875 53.933594 33.417969 54.476562 32.878906 55.082031 C 32.683594 55.292969 32.648438 55.539062 32.777344 55.738281 C 32.816406 55.796875 32.875 55.839844 32.933594 55.886719 C 32.796875 56.027344 32.703125 56.195312 32.652344 56.398438 L 27.808594 56.398438 L 27.808594 56.195312 C 27.808594 55.855469 27.523438 55.589844 27.144531 55.589844 L 12.492188 55.589844 C 11.496094 55.589844 10.769531 55.273438 10.453125 54.699219 C 10.132812 54.117188 10.25 53.335938 10.78125 52.496094 L 13.914062 47.550781 L 25.503906 47.351562 L 26.105469 47.339844 L 28.894531 47.292969 C 29.488281 47.28125 30.027344 47.042969 30.425781 46.613281 C 30.816406 46.183594 31.007812 45.625 30.96875 45.03125 L 28.953125 16.320312 C 28.867188 15.117188 27.816406 14.070312 26.609375 13.992188 L 8.878906 12.832031 L 8.859375 12.832031 C 7.679688 12.761719 6.351562 13 5.820312 13.363281 C 5.25 13.753906 4.890625 14.992188 5 16.183594 L 7.574219 44.796875 C 7.585938 44.941406 7.605469 45.085938 7.628906 45.234375 L 3.171875 52.28125 C 2.558594 53.25 2.4375 54.179688 2.832031 54.890625 C 3.226562 55.605469 4.074219 55.996094 5.226562 55.996094 L 27.144531 55.996094 C 27.300781 55.996094 27.40625 56.074219 27.40625 56.195312 L 27.40625 56.398438 L 25.992188 56.398438 C 25.878906 56.398438 25.792969 56.492188 25.792969 56.597656 L 25.792969 57.328125 C 24.945312 57.328125 23.789062 57.332031 22.582031 57.335938 L 4.0625 57.402344 C 2.835938 57.402344 1.609375 57.40625 0.382812 57.40625 C 0.273438 57.40625 0.183594 57.496094 0.183594 57.605469 L 0.183594 59.621094 C 0.183594 59.734375 0.273438 59.824219 0.382812 59.824219 C 2.398438 59.824219 4.410156 59.820312 6.425781 59.816406 L 6.425781 111.601562 L 6.828125 111.601562 L 6.828125 67.277344 L 33.535156 67.277344 C 33.015625 68.113281 32.585938 69.035156 32.285156 70.054688 C 31.0625 74.339844 30.71875 76.34375 30.386719 78.28125 C 30.035156 80.3125 29.710938 82.234375 28.433594 86.601562 C 28.414062 86.664062 28.429688 86.738281 28.476562 86.789062 C 28.660156 87.003906 28.863281 87.21875 29.066406 87.421875 L 27.203125 97.53125 C 24.503906 97.09375 21.523438 97.878906 19.183594 99.636719 C 18.476562 100.164062 17.679688 101.273438 17.042969 102.34375 L 39.800781 109.679688 C 40.070312 108.882812 40.449219 107.769531 40.867188 106.476562 C 41.609375 104.191406 40.824219 101.445312 40.570312 100.667969 L 43.25 92.285156 C 43.421875 92.253906 43.585938 92.226562 43.746094 92.191406 C 44.824219 91.941406 45.046875 91.636719 45.265625 90.816406 C 44.910156 88.851562 44.472656 86.304688 44.183594 84.636719 C 44.054688 83.886719 43.960938 83.339844 43.925781 83.144531 C 43.289062 79.601562 43.320312 76.246094 45.527344 71.359375 C 45.851562 70.605469 46.269531 69.902344 46.773438 69.257812 L 46.773438 67.277344 L 33.796875 67.277344 C 33.882812 67.140625 33.976562 67.007812 34.066406 66.875 L 46.773438 66.875 L 46.773438 60.152344 C 46.90625 60.128906 47.042969 60.105469 47.175781 60.085938 L 47.175781 68.765625 C 48.675781 67.0625 50.824219 65.757812 53.601562 64.871094 C 54.851562 64.46875 56.261719 64.148438 57.78125 63.910156 C 57.9375 63.882812 58.355469 63.835938 58.746094 63.789062 C 57.851562 63.4375 56.980469 63.035156 56.199219 62.519531 C 54.996094 61.726562 54.105469 60.503906 53.113281 59.476562 C 53.375 58.082031 53.375 58.074219 53.480469 57.574219 L 53.515625 57.402344 C 53.691406 56.589844 53.878906 55.679688 54.085938 54.707031 C 58.042969 56.089844 62.179688 57.453125 64.214844 57.859375 C 66.105469 58.234375 68.234375 58.566406 70.375 58.566406 C 72.773438 58.566406 75.1875 58.144531 77.269531 56.894531 C 80.421875 54.980469 82.078125 51.597656 83.503906 48.3125 C 83.894531 47.480469 84.34375 46.242188 84.753906 44.820312 C 85.742188 42.773438 86.429688 40.578125 86.976562 38.378906 C 87.316406 37 87.675781 35.460938 87.691406 33.972656 C 88.03125 35.242188 88.1875 36.609375 88.289062 37.96875 C 88.304688 38.1875 88.386719 38.835938 88.511719 39.824219 C 89.046875 44.089844 90.355469 54.480469 90.453125 62.519531 C 84.347656 62.394531 76.683594 62.296875 73.863281 62.527344 C 72.59375 62.632812 71.722656 64.148438 71.269531 67.042969 C 71.132812 67.023438 70.992188 67.007812 70.855469 66.984375 C 67.480469 66.503906 64.160156 65.6875 60.941406 64.582031 C 60.484375 64.425781 60.015625 64.261719 59.554688 64.09375 C 59.542969 64.097656 59.539062 64.101562 59.53125 64.101562 C 59.425781 64.113281 59.207031 64.140625 58.957031 64.171875 C 58.53125 64.21875 58.019531 64.277344 57.84375 64.308594 C 56.339844 64.539062 54.957031 64.859375 53.722656 65.253906 C 50.824219 66.179688 48.628906 67.574219 47.179688 69.40625 L 47.179688 92.441406 C 47.035156 92.386719 46.90625 92.324219 46.773438 92.265625 L 46.773438 69.957031 C 46.890625 69.78125 47.011719 69.609375 47.140625 69.445312 C 46.636719 70.085938 46.222656 70.777344 45.898438 71.523438 C 43.726562 76.3125 43.699219 79.605469 44.324219 83.070312 C 44.355469 83.265625 44.453125 83.8125 44.582031 84.566406 C 44.894531 86.375 45.382812 89.210938 45.75 91.222656 C 45.816406 91.558594 45.886719 91.890625 45.949219 92.238281 C 45.960938 92.300781 46 92.351562 46.054688 92.378906 C 46.285156 92.496094 46.523438 92.605469 46.773438 92.710938 L 46.773438 103.042969 C 46.90625 103 47.039062 102.957031 47.179688 102.917969 L 47.179688 92.875 C 47.21875 92.890625 47.257812 92.90625 47.304688 92.921875 L 48.570312 102.613281 C 48.101562 102.679688 47.632812 102.777344 47.179688 102.917969 L 47.179688 110.390625 L 64.117188 110.390625 C 64.128906 109.828125 64.140625 109.105469 64.144531 108.269531 C 64.585938 108.574219 64.875 109.082031 64.875 109.652344 C 64.875 110.246094 64.5625 110.765625 64.101562 111.0625 C 64.105469 110.984375 64.105469 110.890625 64.109375 110.792969 L 55.695312 110.792969 C 55.699219 110.800781 55.699219 110.808594 55.699219 110.816406 C 55.601562 110.828125 55.5 110.84375 55.40625 110.859375 C 55.402344 110.835938 55.398438 110.816406 55.398438 110.792969 L 47.179688 110.792969 L 47.179688 111.597656 L 46.773438 111.597656 L 46.773438 110.792969 L 40.152344 110.792969 C 40.136719 110.792969 40.125 110.789062 40.113281 110.785156 C 40.078125 110.972656 40.039062 111.148438 40.011719 111.320312 L 39.96875 111.574219 L 40.207031 111.65625 C 40.386719 111.65625 58.285156 112.003906 63.882812 112.003906 L 64.078125 112.003906 L 64.082031 111.691406 C 64.082031 111.6875 64.085938 111.628906 64.085938 111.527344 C 64.789062 111.1875 65.277344 110.480469 65.277344 109.652344 C 65.277344 108.851562 64.8125 108.15625 64.148438 107.8125 L 64.148438 106.972656 C 64.148438 106.511719 64.085938 106.054688 63.992188 105.609375 C 64.234375 105.5625 64.445312 105.554688 64.539062 105.554688 L 74.859375 105.554688 C 75.144531 105.980469 75.640625 106.289062 76.230469 106.347656 L 76.230469 107.59375 C 75.207031 107.730469 74.414062 108.597656 74.414062 109.652344 C 74.414062 110.804688 75.347656 111.742188 76.503906 111.742188 C 77.652344 111.742188 78.59375 110.804688 78.59375 109.652344 C 78.59375 108.550781 77.722656 107.644531 76.632812 107.582031 L 76.632812 106.320312 C 77.152344 106.226562 77.652344 105.953125 77.957031 105.554688 L 87.539062 105.554688 C 88.390625 105.554688 88.738281 105.847656 88.738281 106.5625 L 88.738281 107.691406 C 87.917969 107.972656 87.324219 108.742188 87.324219 109.652344 C 87.324219 110.804688 88.261719 111.742188 89.414062 111.742188 C 90.5625 111.742188 91.503906 110.804688 91.503906 109.652344 C 91.503906 108.503906 90.5625 107.566406 89.414062 107.566406 C 89.320312 107.566406 89.230469 107.582031 89.140625 107.59375 L 89.140625 106.5625 C 89.140625 105.628906 88.597656 105.152344 87.539062 105.152344 L 78.171875 105.152344 C 78.214844 105.027344 78.246094 104.898438 78.246094 104.761719 L 78.246094 87.019531 L 91.308594 87.019531 C 93.226562 87.019531 94.789062 85.460938 94.789062 83.546875 L 94.789062 83.246094 C 94.789062 81.867188 93.976562 80.679688 92.8125 80.113281 C 98.1875 79.273438 101.445312 72.257812 101.445312 67.140625 "/></g><path style=" stroke:none;fill-rule:nonzero;fill:#100f0d;fill-opacity:1;" d="M 16.84375 102.691406 C 16.738281 102.871094 16.640625 103.054688 16.546875 103.222656 L 16.429688 103.457031 L 16.644531 103.574219 C 16.8125 103.628906 33.753906 109.417969 39.078125 111.140625 L 39.269531 111.195312 L 39.359375 110.929688 C 39.359375 110.921875 39.476562 110.605469 39.667969 110.054688 L 16.875 102.714844 C 16.863281 102.707031 16.851562 102.699219 16.84375 102.691406 "/><path style=" stroke:none;fill-rule:nonzero;fill:#100f0d;fill-opacity:1;" d="M 41.417969 107.097656 C 40.898438 107.832031 40.480469 109.160156 40.195312 110.390625 L 46.773438 110.390625 L 46.773438 103.046875 C 44.683594 103.761719 42.757812 105.203125 41.417969 107.097656 "/><path style=" stroke:none;fill-rule:nonzero;fill:#100f0d;fill-opacity:1;" d="M 77.597656 24.007812 C 77.597656 24.027344 77.597656 24.046875 77.597656 24.066406 C 77.597656 24.074219 77.601562 24.078125 77.601562 24.085938 C 77.601562 24.058594 77.597656 24.035156 77.597656 24.007812 "/><path style=" stroke:none;fill-rule:nonzero;fill:#100f0d;fill-opacity:1;" d="M 68.25 9.980469 C 67.628906 9.703125 66.917969 9.648438 66.261719 9.820312 C 66.125 9.855469 65.328125 10.082031 65.535156 10.355469 C 65.742188 10.628906 66.308594 10.542969 66.601562 10.546875 C 67.105469 10.554688 67.609375 10.585938 68.101562 10.714844 C 68.289062 10.765625 68.941406 11.070312 69.101562 10.839844 C 69.328125 10.507812 68.441406 10.066406 68.25 9.980469 "/><path style=" stroke:none;fill-rule:nonzero;fill:#100f0d;fill-opacity:1;" d="M 66.050781 12.503906 C 66.140625 12.019531 66.460938 11.667969 66.769531 11.726562 C 67.074219 11.78125 67.25 12.222656 67.160156 12.707031 C 67.070312 13.195312 66.75 13.542969 66.445312 13.488281 C 66.136719 13.429688 65.960938 12.992188 66.050781 12.503906 "/><path style=" stroke:none;fill-rule:nonzero;fill:#100f0d;fill-opacity:1;" d="M 20.128906 25.835938 L 20.285156 27.660156 L 21.984375 27.769531 L 22.199219 27.78125 L 21.976562 25.957031 L 20.128906 25.835938 "/><path style=" stroke:none;fill-rule:nonzero;fill:#100f0d;fill-opacity:1;" d="M 18.484375 24.144531 L 18.65625 25.539062 L 19.910156 25.621094 L 19.792969 24.230469 L 18.484375 24.144531 "/><path style=" stroke:none;fill-rule:nonzero;fill:#100f0d;fill-opacity:1;" d="M 21.988281 24.375 L 22.148438 25.765625 L 23.765625 25.875 L 25.007812 25.933594 L 24.839844 24.558594 L 21.988281 24.375 "/><path style=" stroke:none;fill-rule:nonzero;fill:#100f0d;fill-opacity:1;" d="M 24.632812 22.933594 L 24.789062 24.316406 L 24.910156 24.324219 L 24.914062 24.34375 L 25.605469 24.410156 L 26.234375 24.449219 L 26.136719 23.035156 L 24.632812 22.933594 "/><path style=" stroke:none;fill-rule:nonzero;fill:#100f0d;fill-opacity:1;" d="M 22.324219 24.195312 L 24.6875 24.3125 L 24.53125 22.929688 L 19.859375 22.621094 L 19.980469 24.039062 L 22.324219 24.195312 "/><path style=" stroke:none;fill-rule:nonzero;fill:#100f0d;fill-opacity:1;" d="M 24.507812 22.722656 L 24.53125 22.726562 L 25.765625 22.808594 L 25.652344 21.792969 L 19.757812 21.40625 L 19.84375 22.417969 L 24.507812 22.722656 "/><path style=" stroke:none;fill-rule:nonzero;fill:#100f0d;fill-opacity:1;" d="M 22.042969 25.757812 L 21.886719 24.367188 L 19.996094 24.242188 L 20.113281 25.632812 L 21.800781 25.746094 L 22.042969 25.757812 "/><path style=" stroke:none;fill-rule:nonzero;fill:#100f0d;fill-opacity:1;" d="M 18.375 25.722656 L 18.582031 27.546875 L 20.078125 27.644531 L 19.925781 25.824219 L 18.375 25.722656 "/><path style=" stroke:none;fill-rule:nonzero;fill:#100f0d;fill-opacity:1;" d="M 18.554688 25.53125 L 18.382812 24.136719 L 15.53125 23.949219 L 15.6875 25.34375 L 18.546875 25.53125 L 18.554688 25.53125 "/><path style=" stroke:none;fill-rule:nonzero;fill:#100f0d;fill-opacity:1;" d="M 18.457031 23.917969 L 18.457031 23.941406 L 19.773438 24.027344 L 19.65625 22.609375 L 15.269531 22.320312 L 15.449219 23.742188 L 17.121094 23.851562 L 18.457031 23.917969 "/><path style=" stroke:none;fill-rule:nonzero;fill:#100f0d;fill-opacity:1;" d="M 12.464844 22.136719 L 12.625 23.558594 L 13.164062 23.59375 L 15.339844 23.703125 L 15.167969 22.316406 L 12.464844 22.136719 "/><path style=" stroke:none;fill-rule:nonzero;fill:#100f0d;fill-opacity:1;" d="M 12.367188 20.9375 L 10.46875 20.84375 L 10.582031 21.8125 L 12.304688 21.925781 L 12.492188 21.933594 L 12.367188 20.9375 "/><path style=" stroke:none;fill-rule:nonzero;fill:#100f0d;fill-opacity:1;" d="M 19.636719 22.40625 L 19.554688 21.394531 L 12.46875 20.929688 L 12.59375 21.945312 L 19.636719 22.40625 "/><path style=" stroke:none;fill-rule:nonzero;fill:#100f0d;fill-opacity:1;" d="M 26.84375 22.878906 C 26.84375 22.878906 26.84375 22.878906 26.847656 22.878906 L 26.816406 21.867188 L 25.753906 21.800781 L 25.867188 22.8125 L 26.84375 22.878906 "/><path style=" stroke:none;fill-rule:nonzero;fill:#100f0d;fill-opacity:1;" d="M 10.207031 27.101562 C 10.214844 27.046875 10.25 27.003906 10.3125 27.007812 L 18.480469 27.539062 L 18.269531 25.714844 L 10.300781 25.195312 C 10.246094 25.191406 10.203125 25.144531 10.207031 25.085938 C 10.210938 25.035156 10.25 24.984375 10.3125 24.992188 L 15.585938 25.339844 L 15.429688 23.945312 L 9.898438 23.582031 C 9.839844 23.578125 9.800781 23.53125 9.804688 23.472656 C 9.808594 23.421875 9.839844 23.378906 9.910156 23.382812 L 12.523438 23.550781 L 12.363281 22.132812 L 9.898438 21.972656 C 9.839844 21.96875 9.800781 21.917969 9.804688 21.863281 C 9.808594 21.808594 9.839844 21.765625 9.910156 21.769531 L 10.476562 21.804688 L 10.363281 20.789062 L 9.898438 20.761719 C 9.839844 20.757812 9.800781 20.710938 9.804688 20.652344 C 9.808594 20.601562 9.839844 20.558594 9.910156 20.558594 L 19.535156 21.1875 L 19.402344 19.632812 C 19.398438 19.578125 19.441406 19.527344 19.496094 19.523438 C 19.550781 19.519531 19.601562 19.5625 19.605469 19.617188 L 19.738281 21.207031 L 26.84375 21.667969 C 26.894531 21.671875 26.941406 21.722656 26.9375 21.773438 C 26.933594 21.792969 26.925781 21.804688 26.914062 21.820312 L 26.953125 23.03125 L 26.917969 23.027344 C 26.894531 23.054688 26.871094 23.078125 26.835938 23.078125 C 26.832031 23.078125 26.832031 23.078125 26.828125 23.078125 L 26.238281 23.039062 L 26.335938 24.457031 L 26.84375 24.488281 C 26.894531 24.492188 26.941406 24.542969 26.9375 24.59375 C 26.933594 24.652344 26.886719 24.691406 26.835938 24.691406 C 26.832031 24.691406 26.832031 24.691406 26.828125 24.691406 L 24.9375 24.566406 L 25.113281 25.960938 L 27.246094 26.101562 C 27.300781 26.105469 27.34375 26.152344 27.339844 26.207031 C 27.335938 26.261719 27.292969 26.300781 27.238281 26.300781 C 27.234375 26.300781 27.234375 26.300781 27.230469 26.300781 L 22.078125 25.964844 L 22.304688 27.792969 L 27.246094 28.117188 C 27.300781 28.121094 27.34375 28.167969 27.339844 28.21875 C 27.335938 28.277344 27.292969 28.316406 27.238281 28.316406 C 27.234375 28.316406 27.234375 28.316406 27.230469 28.316406 L 20.300781 27.863281 L 20.363281 28.59375 C 20.367188 28.652344 20.324219 28.699219 20.269531 28.703125 C 20.265625 28.703125 20.261719 28.703125 20.261719 28.703125 C 20.210938 28.703125 20.164062 28.664062 20.164062 28.613281 L 20.097656 27.851562 L 10.300781 27.210938 C 10.246094 27.207031 10.203125 27.15625 10.207031 27.101562 Z M 9.371094 15.359375 L 26.703125 16.492188 L 26.6875 16.695312 L 9.355469 15.558594 Z M 28.105469 41.976562 C 28.128906 42.214844 28.046875 42.441406 27.890625 42.609375 C 27.730469 42.777344 27.515625 42.871094 27.273438 42.871094 L 27.253906 42.871094 L 12.707031 42.621094 C 12.210938 42.613281 11.773438 42.207031 11.734375 41.714844 L 10.820312 30.878906 C 10.800781 30.644531 10.871094 30.429688 11.023438 30.261719 C 11.179688 30.089844 11.40625 29.996094 11.664062 30.015625 L 26.4375 30.820312 C 26.929688 30.847656 27.355469 31.265625 27.394531 31.757812 Z M 12.851562 46.355469 L 12.886719 46.355469 L 27.597656 46.105469 C 28.1875 46.09375 28.734375 45.855469 29.125 45.425781 C 29.519531 45 29.714844 44.433594 29.671875 43.847656 L 27.816406 17.457031 C 27.730469 16.253906 26.683594 15.210938 25.476562 15.128906 L 10.195312 14.128906 C 9.578125 14.089844 9.019531 14.308594 8.628906 14.730469 C 8.265625 15.125 8.09375 15.652344 8.136719 16.226562 L 10.5 44.195312 C 10.601562 45.390625 11.652344 46.355469 12.851562 46.355469 "/><path style=" stroke:none;fill-rule:nonzero;fill:#100f0d;fill-opacity:1;" d="M 87.679688 17.847656 C 87.761719 17.804688 87.863281 17.777344 87.96875 17.777344 C 88.136719 17.777344 88.316406 17.847656 88.441406 18.03125 C 88.347656 18.246094 88.183594 18.472656 87.992188 18.519531 C 87.820312 18.554688 87.550781 18.417969 87.46875 18.253906 C 87.359375 18.019531 87.640625 17.867188 87.679688 17.847656 Z M 87.929688 18.925781 C 87.980469 18.925781 88.027344 18.921875 88.078125 18.910156 C 88.472656 18.824219 88.738281 18.421875 88.855469 18.074219 C 88.855469 18.070312 88.855469 18.070312 88.855469 18.070312 C 88.980469 17.703125 89.132812 17.046875 89.273438 16.414062 C 89.320312 16.191406 89.371094 15.964844 89.417969 15.757812 C 89.472656 15.945312 89.539062 16.136719 89.625 16.339844 C 89.667969 16.4375 89.789062 16.488281 89.890625 16.441406 C 89.992188 16.398438 90.039062 16.28125 89.996094 16.179688 C 89.84375 15.835938 89.769531 15.507812 89.683594 15.160156 L 89.625 14.917969 C 89.597656 14.832031 89.527344 14.769531 89.441406 14.761719 C 89.355469 14.757812 89.273438 14.8125 89.238281 14.890625 C 89.144531 15.125 89.023438 15.683594 88.878906 16.328125 C 88.777344 16.777344 88.675781 17.238281 88.578125 17.585938 C 88.253906 17.324219 87.824219 17.320312 87.492188 17.492188 C 87.097656 17.6875 86.941406 18.074219 87.101562 18.425781 C 87.246094 18.714844 87.605469 18.925781 87.929688 18.925781 "/><path style=" stroke:none;fill-rule:nonzero;fill:#100f0d;fill-opacity:1;" d="M 40.066406 39.203125 C 40.152344 39.160156 40.253906 39.132812 40.355469 39.132812 C 40.527344 39.132812 40.703125 39.203125 40.828125 39.386719 C 40.734375 39.605469 40.570312 39.828125 40.382812 39.875 C 40.207031 39.910156 39.9375 39.773438 39.855469 39.605469 C 39.75 39.375 40.03125 39.21875 40.066406 39.203125 Z M 40.316406 40.28125 C 40.371094 40.28125 40.417969 40.277344 40.464844 40.265625 C 40.863281 40.179688 41.128906 39.777344 41.246094 39.429688 C 41.246094 39.425781 41.246094 39.425781 41.246094 39.425781 C 41.371094 39.058594 41.519531 38.402344 41.660156 37.769531 C 41.707031 37.542969 41.761719 37.320312 41.804688 37.113281 C 41.863281 37.304688 41.925781 37.492188 42.011719 37.691406 C 42.054688 37.792969 42.175781 37.84375 42.277344 37.796875 C 42.378906 37.753906 42.425781 37.636719 42.382812 37.535156 C 42.234375 37.191406 42.15625 36.863281 42.070312 36.515625 L 42.011719 36.273438 C 41.988281 36.1875 41.914062 36.125 41.832031 36.117188 C 41.746094 36.113281 41.660156 36.167969 41.628906 36.246094 C 41.53125 36.480469 41.410156 37.035156 41.265625 37.683594 C 41.164062 38.132812 41.0625 38.59375 40.964844 38.941406 C 40.644531 38.679688 40.210938 38.675781 39.882812 38.847656 C 39.484375 39.042969 39.328125 39.429688 39.488281 39.78125 C 39.636719 40.070312 39.996094 40.28125 40.316406 40.28125 "/><path style=" stroke:none;fill-rule:nonzero;fill:#100f0d;fill-opacity:1;" d="M 23.675781 33.167969 C 23.824219 33.167969 23.941406 33.289062 23.941406 33.433594 C 23.941406 33.582031 23.824219 33.703125 23.675781 33.703125 C 23.527344 33.703125 23.40625 33.582031 23.40625 33.433594 C 23.40625 33.289062 23.527344 33.167969 23.675781 33.167969 "/><path style=" stroke:none;fill-rule:nonzero;fill:#100f0d;fill-opacity:1;" d="M 25.796875 33.296875 C 25.941406 33.296875 26.0625 33.414062 26.0625 33.5625 C 26.0625 33.710938 25.941406 33.832031 25.796875 33.832031 C 25.648438 33.832031 25.527344 33.710938 25.527344 33.5625 C 25.527344 33.414062 25.648438 33.296875 25.796875 33.296875 "/><path style=" stroke:none;fill-rule:nonzero;fill:#100f0d;fill-opacity:1;" d="M 21.554688 31.425781 C 21.703125 31.425781 21.824219 31.546875 21.824219 31.695312 C 21.824219 31.84375 21.703125 31.960938 21.554688 31.960938 C 21.40625 31.960938 21.289062 31.84375 21.289062 31.695312 C 21.289062 31.546875 21.40625 31.425781 21.554688 31.425781 "/><path style=" stroke:none;fill-rule:nonzero;fill:#100f0d;fill-opacity:1;" d="M 21.554688 33.039062 C 21.703125 33.039062 21.824219 33.160156 21.824219 33.308594 C 21.824219 33.453125 21.703125 33.574219 21.554688 33.574219 C 21.40625 33.574219 21.289062 33.453125 21.289062 33.308594 C 21.289062 33.160156 21.40625 33.039062 21.554688 33.039062 "/><path style=" stroke:none;fill-rule:nonzero;fill:#100f0d;fill-opacity:1;" d="M 26.601562 41.90625 L 26.582031 41.90625 C 26.480469 41.90625 26.394531 41.824219 26.386719 41.71875 L 26.171875 39.207031 L 26.164062 39.210938 C 26.050781 39.21875 25.953125 39.136719 25.945312 39.023438 L 25.941406 38.984375 C 25.9375 38.871094 26.019531 38.773438 26.128906 38.765625 L 26.234375 38.757812 L 25.871094 34.449219 C 25.867188 34.394531 25.910156 34.34375 25.964844 34.339844 C 26.023438 34.335938 26.070312 34.378906 26.074219 34.433594 L 26.4375 38.746094 L 26.492188 38.742188 C 26.601562 38.734375 26.699219 38.816406 26.707031 38.925781 L 26.710938 38.96875 C 26.714844 39.0625 26.660156 39.140625 26.574219 39.171875 L 26.785156 41.6875 C 26.796875 41.796875 26.710938 41.890625 26.601562 41.90625 Z M 25.328125 33.5625 C 25.328125 33.304688 25.539062 33.097656 25.796875 33.097656 C 26.054688 33.097656 26.265625 33.304688 26.265625 33.5625 C 26.265625 33.820312 26.054688 34.03125 25.796875 34.03125 C 25.539062 34.03125 25.328125 33.820312 25.328125 33.5625 Z M 24.449219 41.835938 L 24.433594 41.835938 C 24.328125 41.835938 24.238281 41.753906 24.230469 41.648438 L 23.824219 36.785156 L 23.808594 36.785156 C 23.703125 36.796875 23.605469 36.710938 23.597656 36.601562 L 23.59375 36.523438 C 23.585938 36.417969 23.667969 36.320312 23.777344 36.3125 L 23.882812 36.304688 L 23.722656 34.382812 C 23.714844 34.324219 23.757812 34.277344 23.816406 34.273438 C 23.871094 34.273438 23.914062 34.308594 23.917969 34.363281 L 24.085938 36.289062 L 24.199219 36.28125 C 24.3125 36.273438 24.40625 36.355469 24.414062 36.464844 L 24.417969 36.539062 C 24.425781 36.652344 24.34375 36.75 24.234375 36.757812 L 24.226562 36.757812 L 24.632812 41.617188 C 24.640625 41.726562 24.5625 41.828125 24.449219 41.835938 Z M 23.203125 33.433594 C 23.203125 33.175781 23.417969 32.96875 23.675781 32.96875 C 23.933594 32.96875 24.144531 33.175781 24.144531 33.433594 C 24.144531 33.691406 23.933594 33.902344 23.675781 33.902344 C 23.417969 33.902344 23.203125 33.691406 23.203125 33.433594 Z M 22.296875 41.765625 L 22.28125 41.765625 C 22.175781 41.765625 22.085938 41.691406 22.078125 41.585938 L 21.839844 38.78125 C 21.746094 38.769531 21.671875 38.695312 21.664062 38.601562 L 21.664062 38.566406 C 21.65625 38.457031 21.738281 38.359375 21.847656 38.351562 L 21.910156 38.347656 L 21.566406 34.316406 C 21.5625 34.261719 21.601562 34.210938 21.660156 34.207031 C 21.71875 34.203125 21.765625 34.246094 21.769531 34.296875 L 22.105469 38.335938 L 22.195312 38.324219 C 22.304688 38.316406 22.402344 38.402344 22.410156 38.515625 L 22.414062 38.546875 C 22.421875 38.648438 22.34375 38.738281 22.246094 38.757812 L 22.484375 41.550781 C 22.492188 41.664062 22.410156 41.757812 22.296875 41.765625 Z M 21.085938 33.304688 C 21.085938 33.046875 21.296875 32.839844 21.554688 32.839844 C 21.816406 32.839844 22.027344 33.046875 22.027344 33.304688 C 22.027344 33.5625 21.816406 33.773438 21.554688 33.773438 C 21.296875 33.773438 21.085938 33.5625 21.085938 33.304688 Z M 20.144531 41.703125 L 20.125 41.703125 C 20.027344 41.703125 19.9375 41.621094 19.929688 41.515625 L 19.605469 37.703125 C 19.519531 37.683594 19.457031 37.613281 19.453125 37.519531 L 19.449219 37.476562 C 19.441406 37.367188 19.523438 37.269531 19.632812 37.261719 L 19.671875 37.257812 L 19.417969 34.246094 C 19.414062 34.191406 19.453125 34.144531 19.507812 34.140625 C 19.570312 34.136719 19.613281 34.175781 19.617188 34.230469 L 19.871094 37.242188 L 20.003906 37.234375 C 20.113281 37.226562 20.210938 37.308594 20.21875 37.417969 L 20.222656 37.46875 C 20.230469 37.578125 20.144531 37.671875 20.039062 37.679688 L 20.011719 37.683594 L 20.328125 41.484375 C 20.339844 41.59375 20.257812 41.691406 20.144531 41.703125 Z M 18.96875 33.175781 C 18.96875 32.917969 19.179688 32.710938 19.4375 32.710938 C 19.695312 32.710938 19.90625 32.917969 19.90625 33.175781 C 19.90625 33.433594 19.695312 33.648438 19.4375 33.648438 C 19.179688 33.648438 18.96875 33.433594 18.96875 33.175781 Z M 17.992188 41.632812 L 17.976562 41.632812 C 17.871094 41.632812 17.78125 41.554688 17.773438 41.449219 L 17.5625 38.949219 C 17.46875 38.941406 17.386719 38.867188 17.382812 38.765625 L 17.378906 38.761719 C 17.375 38.648438 17.457031 38.550781 17.566406 38.542969 L 17.632812 38.539062 L 17.265625 34.179688 C 17.257812 34.125 17.300781 34.074219 17.359375 34.070312 C 17.414062 34.066406 17.460938 34.105469 17.464844 34.164062 L 17.835938 38.523438 L 17.871094 38.523438 C 17.980469 38.515625 18.078125 38.601562 18.085938 38.707031 L 18.085938 38.714844 C 18.09375 38.800781 18.039062 38.878906 17.96875 38.910156 L 18.175781 41.417969 C 18.1875 41.527344 18.105469 41.625 17.992188 41.632812 Z M 16.847656 33.046875 C 16.847656 32.789062 17.054688 32.582031 17.316406 32.582031 C 17.574219 32.582031 17.785156 32.789062 17.785156 33.046875 C 17.785156 33.308594 17.574219 33.519531 17.316406 33.519531 C 17.054688 33.519531 16.847656 33.308594 16.847656 33.046875 Z M 15.839844 41.566406 L 15.824219 41.566406 C 15.71875 41.566406 15.632812 41.488281 15.625 41.382812 L 15.179688 36.132812 L 15.175781 36.132812 C 15.066406 36.140625 14.964844 36.058594 14.960938 35.945312 L 14.957031 35.941406 C 14.953125 35.828125 15.035156 35.730469 15.148438 35.722656 L 15.25 35.714844 L 15.109375 34.113281 C 15.105469 34.058594 15.148438 34.011719 15.203125 34.007812 C 15.265625 34.003906 15.308594 34.042969 15.3125 34.09375 L 15.449219 35.703125 C 15.558594 35.695312 15.65625 35.78125 15.664062 35.886719 L 15.664062 35.894531 C 15.667969 35.964844 15.636719 36.027344 15.578125 36.070312 L 16.027344 41.347656 C 16.035156 41.460938 15.953125 41.558594 15.839844 41.566406 Z M 14.726562 32.921875 C 14.726562 32.660156 14.9375 32.453125 15.195312 32.453125 C 15.453125 32.453125 15.667969 32.660156 15.667969 32.921875 C 15.667969 33.179688 15.453125 33.390625 15.195312 33.390625 C 14.9375 33.390625 14.726562 33.179688 14.726562 32.921875 Z M 13.691406 41.5 L 13.671875 41.5 C 13.570312 41.5 13.480469 41.421875 13.472656 41.316406 L 13.101562 36.933594 C 13.015625 36.910156 12.949219 36.84375 12.945312 36.75 L 12.941406 36.746094 C 12.9375 36.632812 13.015625 36.535156 13.128906 36.527344 L 13.171875 36.523438 L 12.960938 34.046875 C 12.957031 33.992188 12.996094 33.941406 13.054688 33.9375 C 13.105469 33.933594 13.160156 33.972656 13.164062 34.03125 L 13.371094 36.511719 L 13.433594 36.507812 C 13.542969 36.5 13.636719 36.585938 13.644531 36.695312 L 13.644531 36.703125 C 13.652344 36.792969 13.589844 36.875 13.503906 36.902344 L 13.871094 41.285156 C 13.882812 41.394531 13.800781 41.488281 13.691406 41.5 Z M 12.609375 32.792969 C 12.609375 32.535156 12.820312 32.324219 13.078125 32.324219 C 13.335938 32.324219 13.546875 32.535156 13.546875 32.792969 C 13.546875 33.050781 13.335938 33.261719 13.078125 33.261719 C 12.820312 33.261719 12.609375 33.050781 12.609375 32.792969 Z M 13.078125 30.710938 C 13.335938 30.710938 13.546875 30.925781 13.546875 31.183594 C 13.546875 31.441406 13.335938 31.648438 13.078125 31.648438 C 12.820312 31.648438 12.609375 31.441406 12.609375 31.183594 C 12.609375 30.925781 12.820312 30.710938 13.078125 30.710938 Z M 15.195312 30.839844 C 15.453125 30.839844 15.667969 31.046875 15.667969 31.3125 C 15.667969 31.570312 15.453125 31.777344 15.195312 31.777344 C 14.9375 31.777344 14.726562 31.570312 14.726562 31.3125 C 14.726562 31.050781 14.9375 30.839844 15.195312 30.839844 Z M 17.316406 30.96875 C 17.574219 30.96875 17.785156 31.179688 17.785156 31.4375 C 17.785156 31.699219 17.574219 31.90625 17.316406 31.90625 C 17.054688 31.90625 16.847656 31.699219 16.847656 31.4375 C 16.847656 31.179688 17.054688 30.96875 17.316406 30.96875 Z M 19.4375 31.097656 C 19.695312 31.097656 19.90625 31.308594 19.90625 31.566406 C 19.90625 31.824219 19.695312 32.035156 19.4375 32.035156 C 19.179688 32.035156 18.96875 31.824219 18.96875 31.566406 C 18.96875 31.308594 19.179688 31.097656 19.4375 31.097656 Z M 21.554688 31.226562 C 21.816406 31.226562 22.027344 31.4375 22.027344 31.695312 C 22.027344 31.953125 21.816406 32.160156 21.554688 32.160156 C 21.296875 32.160156 21.085938 31.953125 21.085938 31.695312 C 21.085938 31.4375 21.296875 31.226562 21.554688 31.226562 Z M 23.675781 31.355469 C 23.933594 31.355469 24.144531 31.566406 24.144531 31.824219 C 24.144531 32.082031 23.933594 32.289062 23.675781 32.289062 C 23.417969 32.289062 23.203125 32.082031 23.203125 31.824219 C 23.203125 31.566406 23.417969 31.355469 23.675781 31.355469 Z M 25.796875 31.484375 C 26.054688 31.484375 26.265625 31.695312 26.265625 31.953125 C 26.265625 32.210938 26.054688 32.417969 25.796875 32.417969 C 25.539062 32.417969 25.328125 32.210938 25.328125 31.953125 C 25.328125 31.695312 25.535156 31.484375 25.796875 31.484375 Z M 26.425781 31.019531 L 11.617188 30.210938 C 11.4375 30.210938 11.28125 30.28125 11.171875 30.402344 C 11.058594 30.523438 11.007812 30.6875 11.019531 30.863281 L 11.933594 41.695312 C 11.96875 42.089844 12.316406 42.410156 12.710938 42.417969 L 27.261719 42.671875 L 27.273438 42.769531 L 27.273438 42.671875 C 27.453125 42.671875 27.621094 42.601562 27.738281 42.472656 C 27.859375 42.34375 27.921875 42.175781 27.910156 41.988281 L 27.191406 31.773438 C 27.164062 31.378906 26.820312 31.042969 26.425781 31.019531 "/><path style=" stroke:none;fill-rule:nonzero;fill:#100f0d;fill-opacity:1;" d="M 13.078125 30.914062 C 13.226562 30.914062 13.34375 31.03125 13.34375 31.179688 C 13.34375 31.328125 13.226562 31.449219 13.078125 31.449219 C 12.929688 31.449219 12.808594 31.328125 12.808594 31.179688 C 12.808594 31.03125 12.929688 30.914062 13.078125 30.914062 "/><path style=" stroke:none;fill-rule:nonzero;fill:#100f0d;fill-opacity:1;" d="M 15.195312 31.042969 C 15.34375 31.042969 15.464844 31.160156 15.464844 31.308594 C 15.464844 31.457031 15.34375 31.578125 15.195312 31.578125 C 15.046875 31.578125 14.929688 31.457031 14.929688 31.308594 C 14.929688 31.160156 15.046875 31.042969 15.195312 31.042969 "/><path style=" stroke:none;fill-rule:nonzero;fill:#100f0d;fill-opacity:1;" d="M 15.195312 32.652344 C 15.34375 32.652344 15.464844 32.773438 15.464844 32.921875 C 15.464844 33.070312 15.34375 33.1875 15.195312 33.1875 C 15.046875 33.1875 14.929688 33.070312 14.929688 32.921875 C 14.929688 32.773438 15.046875 32.652344 15.195312 32.652344 "/><path style=" stroke:none;fill-rule:nonzero;fill:#100f0d;fill-opacity:1;" d="M 17.316406 31.171875 C 17.464844 31.171875 17.585938 31.289062 17.585938 31.4375 C 17.585938 31.585938 17.464844 31.703125 17.316406 31.703125 C 17.167969 31.703125 17.046875 31.585938 17.046875 31.4375 C 17.046875 31.289062 17.167969 31.171875 17.316406 31.171875 "/><path style=" stroke:none;fill-rule:nonzero;fill:#100f0d;fill-opacity:1;" d="M 17.316406 32.78125 C 17.464844 32.78125 17.585938 32.902344 17.585938 33.050781 C 17.585938 33.199219 17.464844 33.316406 17.316406 33.316406 C 17.167969 33.316406 17.046875 33.199219 17.046875 33.050781 C 17.046875 32.902344 17.167969 32.78125 17.316406 32.78125 "/><path style=" stroke:none;fill-rule:nonzero;fill:#100f0d;fill-opacity:1;" d="M 13.078125 32.527344 C 13.226562 32.527344 13.34375 32.644531 13.34375 32.792969 C 13.34375 32.941406 13.226562 33.058594 13.078125 33.058594 C 12.929688 33.058594 12.808594 32.941406 12.808594 32.792969 C 12.808594 32.644531 12.929688 32.527344 13.078125 32.527344 "/><path style=" stroke:none;fill-rule:nonzero;fill:#100f0d;fill-opacity:1;" d="M 19.4375 31.300781 C 19.585938 31.300781 19.703125 31.417969 19.703125 31.566406 C 19.703125 31.714844 19.585938 31.832031 19.4375 31.832031 C 19.289062 31.832031 19.167969 31.714844 19.167969 31.566406 C 19.167969 31.417969 19.289062 31.300781 19.4375 31.300781 "/><path style=" stroke:none;fill-rule:nonzero;fill:#100f0d;fill-opacity:1;" d="M 25.796875 31.683594 C 25.941406 31.683594 26.0625 31.804688 26.0625 31.953125 C 26.0625 32.097656 25.941406 32.21875 25.796875 32.21875 C 25.648438 32.21875 25.527344 32.097656 25.527344 31.953125 C 25.527344 31.804688 25.648438 31.683594 25.796875 31.683594 "/><path style=" stroke:none;fill-rule:nonzero;fill:#100f0d;fill-opacity:1;" d="M 19.4375 32.910156 C 19.585938 32.910156 19.703125 33.03125 19.703125 33.179688 C 19.703125 33.324219 19.585938 33.445312 19.4375 33.445312 C 19.289062 33.445312 19.167969 33.324219 19.167969 33.179688 C 19.167969 33.03125 19.289062 32.910156 19.4375 32.910156 "/><path style=" stroke:none;fill-rule:nonzero;fill:#100f0d;fill-opacity:1;" d="M 23.675781 31.554688 C 23.824219 31.554688 23.941406 31.675781 23.941406 31.824219 C 23.941406 31.972656 23.824219 32.089844 23.675781 32.089844 C 23.527344 32.089844 23.40625 31.972656 23.40625 31.824219 C 23.40625 31.675781 23.527344 31.554688 23.675781 31.554688 "/></g></svg>