<svg xmlns="http://www.w3.org/2000/svg" xmlns:xlink="http://www.w3.org/1999/xlink" width="247" zoomAndPan="magnify" viewBox="0 0 185.25 112.499997" height="150" preserveAspectRatio="xMidYMid meet" version="1.2"><defs><clipPath id="bbb2986c18"><path d="M 0.0351562 0 L 84.410156 0 L 84.410156 112 L 0.0351562 112 Z M 0.0351562 0 "/></clipPath><clipPath id="17917f8adb"><path d="M 0.0820312 0 L 84.367188 0 L 84.367188 112.003906 L 0.0820312 112.003906 Z M 0.0820312 0 "/></clipPath></defs><g id="1a9e5bcdee"><g clip-rule="nonzero" clip-path="url(#bbb2986c18)"><path style=" stroke:none;fill-rule:nonzero;fill:#ffffff;fill-opacity:1;" d="M 48.386719 111.722656 C 34.773438 111.722656 23.699219 109.203125 23.699219 106.105469 L 23.453125 102.488281 L 23.566406 102.402344 L 23.574219 102.246094 L 23.570312 102.1875 C 23.566406 100.332031 27.558594 98.609375 34.246094 97.566406 L 34.632812 97.503906 L 34.453125 97.160156 C 34.359375 96.976562 34.273438 96.785156 34.195312 96.582031 L 34.128906 96.410156 L 33.945312 96.402344 C 33.597656 96.390625 33.308594 96.359375 33.085938 96.3125 C 31.074219 95.761719 30.253906 95.441406 28.472656 94.625 L 28.410156 94.59375 L 28.316406 94.574219 L 28.378906 94.582031 C 27.511719 94.351562 26.863281 94.160156 26.289062 93.988281 C 24.847656 93.554688 23.832031 93.25 20.832031 92.828125 C 14.625 91.972656 3.886719 88.816406 1.765625 86.21875 C 1.1875 85.507812 0.851562 84.101562 0.671875 83.34375 C 0.5625 82.910156 0.492188 82.457031 0.453125 81.910156 L 0.449219 81.855469 L 0.433594 81.816406 C 0.167969 79.769531 0.742188 77.59375 1.304688 75.707031 C 1.972656 73.476562 2.808594 71.210938 3.855469 68.777344 C 6.589844 62.425781 9.519531 57.890625 13.074219 54.5 C 15.589844 52.101562 20.734375 48.074219 26.941406 48.023438 C 28.683594 48.003906 30.75 47.90625 32.914062 47.332031 C 33.753906 47.113281 34.59375 46.882812 35.433594 46.648438 C 36.058594 46.472656 36.074219 45.121094 35.882812 42.695312 C 35.867188 42.515625 35.839844 42.125 35.839844 42.125 L 35.730469 42.046875 C 34.957031 41.5 34.289062 40.878906 33.75 40.203125 C 32.703125 38.882812 31.914062 37.160156 31.464844 35.226562 C 31.382812 34.859375 31.304688 34.5 31.230469 34.144531 L 31.203125 34.015625 L 31.089844 33.953125 C 30.179688 33.457031 29.441406 32.632812 29.113281 31.742188 L 29.066406 31.605469 L 28.925781 31.566406 C 26.980469 31.023438 25.679688 29.472656 25.078125 28.597656 C 22.195312 24.40625 23.425781 18.265625 26.28125 14.75 C 27.859375 12.8125 30.117188 11.152344 32.996094 9.816406 L 32.863281 9.28125 C 32.71875 9.289062 32.578125 9.292969 32.433594 9.292969 C 31.3125 9.292969 30.273438 9.074219 29.339844 8.640625 C 30.242188 8.066406 32.058594 7.457031 33.710938 7.457031 C 33.894531 7.457031 34.074219 7.464844 34.253906 7.480469 L 34.839844 7.535156 L 34.511719 7.042969 C 34.378906 6.847656 34.257812 6.65625 34.148438 6.46875 C 33.289062 5.0625 32.890625 3.683594 32.96875 2.367188 C 34.414062 3.324219 35.511719 4.976562 36.054688 6.992188 L 36.601562 6.980469 C 37.40625 3.285156 41.441406 0.28125 45.59375 0.28125 C 45.835938 0.28125 46.078125 0.292969 46.316406 0.3125 C 48.332031 0.5 49.1875 1.605469 49.550781 2.5 C 50.234375 4.183594 49.734375 6.566406 48.359375 8.164062 L 48.089844 8.476562 L 48.484375 8.613281 C 52.859375 10.089844 56.148438 12.15625 58.257812 14.75 C 61.113281 18.265625 62.34375 24.40625 59.460938 28.597656 C 58.851562 29.476562 57.539062 31.03125 55.601562 31.574219 L 55.960938 31.84375 L 55.414062 31.726562 C 55.070312 32.613281 54.429688 33.359375 53.609375 33.828125 L 53.496094 33.890625 L 53.472656 34.015625 C 53.394531 34.410156 53.304688 34.8125 53.210938 35.226562 C 52.769531 37.152344 51.980469 38.875 50.925781 40.207031 C 50.546875 40.683594 50.046875 41.179688 49.429688 41.683594 L 49.328125 41.765625 L 49.3125 42.722656 C 49.304688 43.222656 49.300781 43.667969 49.273438 44.289062 C 49.265625 44.410156 49.261719 44.527344 49.25 44.640625 C 49.203125 45.335938 49.148438 46.097656 49.648438 46.585938 L 49.710938 46.644531 L 49.796875 46.660156 C 50.476562 46.78125 54.605469 47.539062 55.617188 47.742188 L 58.210938 48.019531 C 68.105469 48.648438 74.429688 56.703125 77.320312 61.449219 C 78.351562 63.195312 79.199219 64.765625 79.914062 66.246094 C 81.4375 69.425781 83.726562 76.054688 84.0625 80.230469 C 84.132812 81.15625 84.035156 81.929688 83.917969 82.820312 L 83.890625 83.058594 C 83.882812 83.097656 83.875 83.148438 83.863281 83.199219 C 83.851562 83.261719 83.839844 83.324219 83.828125 83.394531 C 83.671875 84.390625 83.199219 86.230469 81.828125 87.296875 L 81.804688 87.316406 L 81.785156 87.335938 C 80.125 89.292969 77.925781 90.554688 75.898438 90.714844 C 75.371094 90.753906 74.804688 90.773438 74.167969 90.773438 C 73.347656 90.773438 72.523438 90.738281 71.726562 90.707031 L 71.40625 90.695312 C 70.742188 90.667969 70.0625 90.644531 69.398438 90.640625 C 69.394531 90.640625 69.394531 90.640625 69.390625 90.640625 C 68.316406 90.640625 67.242188 90.644531 66.167969 90.648438 L 66.09375 90.652344 C 65.257812 90.65625 64.421875 90.65625 63.589844 90.65625 L 61.8125 90.65625 L 61.910156 91.011719 C 62.304688 92.441406 62.378906 93.703125 62.148438 94.980469 C 62.011719 95.703125 61.785156 96.410156 61.472656 97.082031 L 61.3125 97.421875 L 61.683594 97.476562 C 68.636719 98.5 72.832031 100.21875 72.960938 102.085938 L 72.957031 102.28125 L 72.738281 106.105469 C 72.738281 108.875 63.628906 111.722656 48.386719 111.722656 "/></g><path style=" stroke:none;fill-rule:nonzero;fill:#100f0d;fill-opacity:1;" d="M 45.738281 39.363281 C 46.03125 39.15625 45.75 38.667969 45.453125 38.878906 C 44.226562 39.734375 42.164062 40 41.070312 38.800781 C 40.828125 38.535156 40.429688 38.933594 40.671875 39.199219 C 41.929688 40.578125 44.308594 40.359375 45.738281 39.363281 "/><path style=" stroke:none;fill-rule:nonzero;fill:#100f0d;fill-opacity:1;" d="M 39.609375 26.617188 C 39.382812 26.46875 39.121094 26.347656 39.039062 26.3125 C 38.167969 25.933594 37.179688 25.863281 36.261719 26.109375 C 36.140625 26.144531 35.820312 26.242188 35.515625 26.386719 C 35.125 26.570312 34.769531 26.824219 34.90625 27.109375 C 35.074219 27.460938 36.039062 27.179688 36.3125 27.152344 C 37.015625 27.078125 37.714844 27.144531 38.414062 27.242188 C 38.816406 27.296875 39.582031 27.539062 39.921875 27.207031 C 40.109375 27.023438 39.882812 26.796875 39.609375 26.617188 "/><path style=" stroke:none;fill-rule:nonzero;fill:#100f0d;fill-opacity:1;" d="M 46.445312 27.152344 C 47.152344 27.078125 47.851562 27.144531 48.550781 27.242188 C 48.949219 27.296875 49.707031 27.535156 50.050781 27.210938 C 50.054688 27.210938 50.054688 27.207031 50.058594 27.207031 C 50.402344 26.871094 49.355469 26.390625 49.175781 26.3125 C 48.304688 25.933594 47.3125 25.863281 46.398438 26.109375 C 46.152344 26.175781 45.109375 26.507812 45.019531 26.925781 C 45.003906 26.984375 45.007812 27.046875 45.039062 27.109375 C 45.207031 27.460938 46.171875 27.179688 46.445312 27.152344 "/><path style=" stroke:none;fill-rule:nonzero;fill:#100f0d;fill-opacity:1;" d="M 37.492188 28.984375 C 37.054688 28.984375 36.699219 29.539062 36.695312 30.230469 C 36.691406 30.917969 37.042969 31.480469 37.480469 31.480469 C 37.914062 31.484375 38.269531 30.925781 38.273438 30.238281 C 38.277344 29.546875 37.925781 28.988281 37.492188 28.984375 "/><path style=" stroke:none;fill-rule:nonzero;fill:#100f0d;fill-opacity:1;" d="M 47.625 28.984375 C 47.191406 28.984375 46.835938 29.539062 46.832031 30.230469 C 46.828125 30.917969 47.179688 31.476562 47.613281 31.480469 C 48.050781 31.484375 48.40625 30.925781 48.40625 30.238281 C 48.414062 29.546875 48.0625 28.988281 47.625 28.984375 "/><g clip-rule="nonzero" clip-path="url(#17917f8adb)"><path style=" stroke:none;fill-rule:nonzero;fill:#100f0d;fill-opacity:1;" d="M 83.5625 83.253906 C 83.441406 84.089844 82.867188 86.878906 80.621094 87.625 C 78.886719 88.207031 76.496094 87.492188 73.5 85.503906 C 70.710938 83.652344 68.261719 80.957031 66.027344 78.332031 C 63.835938 75.738281 61.839844 72.5625 60.25 69.140625 C 60.195312 69.027344 60.074219 68.960938 59.957031 68.976562 C 59.839844 68.988281 59.738281 69.078125 59.714844 69.203125 C 59.546875 70.042969 57.777344 70.644531 56.828125 70.746094 C 55.808594 70.894531 54.554688 70.675781 53.441406 70.480469 C 53.246094 70.445312 53.050781 70.414062 52.863281 70.378906 C 52.789062 70.367188 52.722656 70.386719 52.660156 70.425781 C 51.703125 71.054688 51.527344 72.136719 51.371094 73.089844 C 51.28125 73.664062 51.191406 74.207031 50.960938 74.644531 L 50.734375 74.738281 C 50.386719 74.707031 50.167969 74.539062 50.054688 74.207031 C 49.664062 73.101562 50.605469 70.777344 51.203125 70.261719 C 51.320312 70.160156 51.332031 69.980469 51.230469 69.867188 C 51.128906 69.75 50.949219 69.734375 50.832031 69.835938 C 50.644531 70.003906 50.429688 70.300781 50.222656 70.675781 C 49.839844 71.390625 49.492188 72.378906 49.417969 73.257812 C 49.382812 73.675781 49.40625 74.066406 49.519531 74.390625 C 49.570312 74.539062 49.640625 74.667969 49.722656 74.777344 C 49.753906 74.757812 49.789062 74.734375 49.824219 74.699219 C 49.875 74.652344 49.933594 74.636719 49.988281 74.632812 C 49.933594 74.636719 49.875 74.65625 49.824219 74.703125 C 49.789062 74.734375 49.757812 74.757812 49.722656 74.78125 C 48.929688 75.347656 48.585938 73.648438 48.558594 73.21875 C 48.554688 73.164062 48.558594 73.109375 48.558594 73.054688 C 48.558594 72.65625 48.628906 72.261719 48.71875 71.871094 C 48.742188 71.773438 48.765625 71.675781 48.789062 71.578125 C 49.03125 70.585938 49.457031 69.640625 49.914062 68.734375 C 50.078125 68.410156 49.589844 68.125 49.425781 68.449219 C 48.808594 69.675781 48.230469 71.015625 48.058594 72.394531 C 48.039062 72.566406 48.019531 72.738281 48.011719 72.90625 C 48.003906 73.117188 48 73.328125 48.015625 73.539062 C 48.03125 73.8125 48.105469 74.101562 48.222656 74.371094 C 47.644531 74.839844 47.339844 74.222656 47.136719 73.824219 C 47.078125 73.703125 47.039062 73.578125 47.007812 73.445312 C 47.003906 73.421875 47 73.398438 46.996094 73.375 C 46.871094 72.683594 47.128906 71.910156 47.296875 71.265625 C 47.6875 69.757812 48.292969 68.429688 48.972656 67.03125 C 49.132812 66.707031 48.648438 66.421875 48.488281 66.746094 C 47.625 68.523438 46.359375 70.785156 46.421875 72.894531 C 46.425781 72.972656 46.433594 73.050781 46.441406 73.132812 C 46.433594 73.050781 46.425781 72.972656 46.421875 72.894531 C 46.125 72.546875 45.949219 72 45.898438 71.777344 C 45.652344 69.507812 46.753906 66.933594 47.722656 65.171875 C 48.386719 63.980469 49.152344 63.386719 50.285156 63.179688 C 51.867188 62.902344 60.582031 63.921875 60.660156 63.929688 C 63.949219 64.480469 64.609375 64.878906 66.566406 66.074219 C 67.109375 66.402344 67.738281 66.789062 68.542969 67.246094 C 73.816406 70.257812 82.664062 77.21875 83.628906 80.300781 C 83.875 81.09375 83.679688 82.441406 83.5625 83.253906 Z M 75.875 90.429688 C 74.507812 90.539062 73.101562 90.480469 71.738281 90.425781 C 70.972656 90.398438 70.175781 90.363281 69.398438 90.359375 C 68.320312 90.359375 67.246094 90.363281 66.164062 90.371094 C 64.945312 90.375 63.730469 90.378906 62.519531 90.375 L 62.011719 90.375 C 61.523438 88.859375 60.804688 87.390625 60.222656 85.808594 C 59.5 83.824219 59.433594 81.683594 59.851562 79.628906 C 60.222656 77.8125 60.96875 76.109375 61.308594 74.28125 C 61.308594 74.28125 61.308594 74.277344 61.308594 74.277344 C 61.324219 74.234375 61.328125 74.195312 61.335938 74.152344 C 61.335938 74.152344 61.335938 74.148438 61.335938 74.148438 C 61.335938 74.144531 61.335938 74.144531 61.335938 74.144531 C 61.339844 74.121094 61.347656 74.097656 61.347656 74.074219 C 61.347656 73.597656 60.832031 73.207031 60.039062 72.890625 C 60.082031 72.015625 60.125 71.140625 60.167969 70.265625 C 61.703125 73.394531 63.566406 76.292969 65.601562 78.691406 C 67.859375 81.355469 70.339844 84.078125 73.191406 85.96875 C 75.605469 87.574219 77.675781 88.382812 79.367188 88.382812 C 79.792969 88.382812 80.1875 88.320312 80.5625 88.21875 C 79.226562 89.421875 77.578125 90.300781 75.875 90.429688 Z M 72.683594 102.175781 C 72.683594 104.757812 62.871094 107.511719 48.261719 107.511719 C 33.65625 107.511719 23.847656 104.757812 23.847656 102.175781 C 23.847656 100.539062 27.824219 98.828125 34.472656 97.800781 C 34.644531 98.085938 34.824219 98.359375 35.027344 98.628906 C 30.796875 99.484375 28.15625 100.746094 28.15625 102.175781 C 28.15625 104.800781 36.992188 106.855469 48.261719 106.855469 C 59.535156 106.855469 68.371094 104.800781 68.371094 102.175781 C 68.371094 100.683594 65.507812 99.375 60.976562 98.527344 C 61.152344 98.257812 61.320312 97.988281 61.472656 97.710938 C 68.476562 98.726562 72.683594 100.492188 72.683594 102.175781 Z M 69.601562 107.839844 C 69.664062 107.484375 69.726562 107.121094 69.804688 106.671875 C 70.15625 106.765625 70.414062 106.839844 70.660156 106.90625 C 70.554688 108.136719 70.554688 108.136719 69.601562 107.839844 Z M 67.105469 108.136719 C 67.035156 108.089844 66.960938 108.046875 66.890625 108 C 66.933594 107.730469 66.980469 107.460938 67.03125 107.148438 C 67.261719 107.191406 67.40625 107.226562 67.789062 107.304688 C 67.492188 107.664062 67.300781 107.898438 67.105469 108.136719 Z M 62.234375 109.488281 C 62.222656 109.410156 62.210938 109.332031 62.199219 109.253906 C 62.488281 109.214844 62.769531 109.175781 63.054688 109.136719 C 63.0625 109.234375 63.070312 109.335938 63.078125 109.4375 C 62.796875 109.453125 62.515625 109.472656 62.234375 109.488281 Z M 61.011719 110.917969 C 61.054688 110.835938 61.101562 110.757812 61.152344 110.660156 C 61.175781 110.746094 61.191406 110.816406 61.214844 110.890625 C 61.144531 110.902344 61.078125 110.910156 61.011719 110.917969 Z M 54.636719 111.160156 C 54.082031 111.105469 53.523438 111.046875 52.773438 110.96875 C 53.003906 110.488281 53.167969 110.140625 53.472656 109.503906 C 54.03125 110.117188 54.378906 110.503906 54.726562 110.886719 C 54.699219 110.980469 54.664062 111.070312 54.636719 111.160156 Z M 31.714844 109.496094 C 31.914062 108.886719 32.148438 109.015625 32.40625 109.503906 C 32.203125 109.5 32.007812 109.5 31.714844 109.496094 Z M 36.175781 84.273438 C 36.128906 84.503906 36.085938 84.734375 36.027344 84.957031 C 35.792969 85.914062 35.382812 86.800781 34.96875 87.679688 C 34.851562 87.679688 34.722656 87.6875 34.605469 87.6875 C 34.1875 87.597656 33.726562 87.398438 33.476562 87.035156 C 33.074219 86.441406 33.601562 85.757812 34.113281 85.492188 C 34.113281 85.492188 34.113281 85.492188 34.113281 85.488281 L 34.222656 85.429688 C 34.847656 85.109375 35.570312 84.710938 36.175781 84.273438 Z M 33.160156 96.042969 C 31.179688 95.503906 30.363281 95.183594 28.589844 94.371094 C 28.578125 94.363281 28.566406 94.363281 28.554688 94.359375 C 28.523438 94.335938 28.488281 94.320312 28.449219 94.308594 C 28.425781 94.304688 28.40625 94.296875 28.382812 94.292969 C 28.375 94.285156 28.375 94.285156 28.371094 94.285156 C 27.53125 94.066406 26.890625 93.875 26.332031 93.707031 C 24.964844 93.296875 23.882812 92.972656 20.863281 92.550781 C 14.851562 91.722656 4.03125 88.542969 1.984375 86.042969 C 1.457031 85.402344 1.136719 84.074219 0.945312 83.28125 C 0.742188 82.457031 0.230469 79.660156 2.035156 78.128906 C 3.425781 76.945312 5.921875 76.71875 9.441406 77.457031 C 12.722656 78.140625 16 79.722656 19.050781 81.332031 C 21.144531 82.4375 23.363281 83.988281 25.675781 85.945312 C 25.738281 85.996094 25.863281 86.105469 25.863281 86.105469 L 26.445312 86.609375 C 26.960938 87.0625 27.476562 87.523438 28 88.015625 C 28.058594 88.070312 28.128906 88.09375 28.203125 88.09375 C 28.253906 88.09375 28.300781 88.070312 28.347656 88.042969 C 28.355469 88.035156 28.363281 88.03125 28.371094 88.027344 C 28.378906 88.019531 28.390625 88.015625 28.398438 88.003906 C 28.40625 88 28.40625 87.988281 28.414062 87.980469 C 28.433594 87.953125 28.453125 87.921875 28.460938 87.890625 C 28.460938 87.890625 28.460938 87.886719 28.460938 87.886719 C 28.460938 87.886719 28.464844 87.886719 28.464844 87.882812 L 28.5 87.753906 C 28.511719 87.726562 28.523438 87.695312 28.535156 87.667969 C 28.777344 87.019531 29.179688 86.40625 29.710938 85.890625 C 29.828125 85.777344 29.953125 85.664062 30.074219 85.558594 C 30.902344 84.847656 31.980469 84.191406 33.351562 83.566406 C 34.101562 83.230469 34.722656 82.921875 35.308594 82.597656 C 35.972656 82.230469 36.515625 82.113281 36.738281 82.292969 C 36.910156 82.433594 36.921875 82.550781 36.910156 82.636719 C 36.882812 82.9375 36.457031 83.644531 33.960938 84.9375 L 33.839844 84.996094 C 33.839844 84.996094 33.839844 85.003906 33.832031 85.003906 C 33.832031 85.003906 33.832031 85.003906 33.828125 85.003906 C 33.5 85.175781 33.214844 85.4375 33.023438 85.75 C 32.976562 85.824219 32.941406 85.902344 32.910156 85.972656 C 32.796875 86.25 32.757812 86.546875 32.832031 86.859375 C 33.011719 87.644531 33.734375 88.085938 34.496094 88.234375 L 34.519531 88.234375 C 34.535156 88.242188 34.546875 88.246094 34.5625 88.246094 C 35.71875 88.269531 37.144531 88.15625 38.527344 88.046875 C 39.714844 87.945312 40.84375 87.855469 41.789062 87.847656 C 42.546875 87.847656 42.847656 87.976562 42.953125 88.089844 C 42.988281 88.128906 43.019531 88.179688 43.015625 88.285156 C 42.976562 88.761719 42.253906 89.042969 42.035156 89.117188 C 41.78125 89.207031 41.519531 89.273438 41.257812 89.339844 C 40.796875 89.414062 40.339844 89.5 39.886719 89.578125 L 39.597656 89.628906 C 38.890625 89.707031 38.195312 89.746094 37.542969 89.773438 C 37.402344 89.777344 37.253906 89.777344 37.109375 89.785156 C 36.753906 89.789062 36.378906 89.796875 36.015625 89.847656 C 35.863281 89.867188 35.757812 90.007812 35.78125 90.160156 C 35.796875 90.300781 35.921875 90.402344 36.054688 90.402344 L 36.097656 90.402344 C 36.421875 90.355469 36.777344 90.351562 37.121094 90.34375 C 37.273438 90.339844 37.417969 90.339844 37.566406 90.335938 C 38.230469 90.304688 38.941406 90.265625 39.660156 90.1875 L 39.664062 90.1875 L 39.675781 90.183594 C 40.238281 90.121094 40.800781 90.027344 41.367188 89.890625 C 41.871094 89.8125 42.390625 89.738281 42.898438 89.6875 C 43.304688 89.65625 43.613281 89.890625 43.675781 90.238281 C 43.691406 90.703125 43.320312 91.046875 42.550781 91.253906 C 42.085938 91.417969 41.589844 91.539062 41.085938 91.648438 C 41.078125 91.648438 41.078125 91.648438 41.078125 91.648438 L 41.074219 91.648438 C 39.53125 91.957031 37.835938 92.046875 36.40625 92.113281 C 36.253906 92.125 36.128906 92.253906 36.140625 92.410156 C 36.148438 92.558594 36.269531 92.675781 36.421875 92.675781 C 36.421875 92.675781 36.429688 92.675781 36.433594 92.675781 C 37.898438 92.601562 39.625 92.515625 41.207031 92.191406 C 41.789062 92.109375 42.203125 92 42.542969 91.921875 C 42.808594 91.855469 43.03125 91.800781 43.257812 91.769531 C 43.5 91.738281 43.65625 91.820312 43.726562 91.910156 C 43.800781 92.007812 43.777344 92.113281 43.742188 92.1875 C 43.5625 92.601562 43.042969 92.777344 42.539062 92.945312 C 42.414062 92.988281 42.289062 93.027344 42.1875 93.066406 C 39.59375 93.914062 37.457031 94.246094 35.835938 94.050781 C 35.691406 94.03125 35.539062 94.140625 35.523438 94.289062 C 35.503906 94.449219 35.613281 94.589844 35.769531 94.605469 C 36.101562 94.644531 36.449219 94.667969 36.816406 94.667969 C 37.863281 94.667969 39.046875 94.5 40.386719 94.167969 C 40.390625 94.167969 40.390625 94.167969 40.398438 94.167969 C 40.855469 94.039062 41.214844 94.070312 41.445312 94.25 C 41.636719 94.402344 41.691406 94.628906 41.6875 94.785156 C 41.679688 94.988281 41.195312 95.210938 40.832031 95.300781 C 38.382812 96.183594 35.222656 96.117188 35.167969 96.117188 C 35.15625 96.117188 33.84375 96.1875 33.160156 96.042969 Z M 1.90625 74.699219 C 2.683594 72.265625 3.652344 69.878906 4.699219 67.550781 C 7.167969 62.070312 10.472656 56.871094 15.160156 53.027344 C 17.578125 51.046875 20.402344 49.59375 23.433594 48.808594 C 23.664062 48.746094 23.894531 48.699219 24.121094 48.648438 C 23.746094 50.273438 23.929688 52.191406 23.921875 53.796875 C 23.910156 57.425781 24.023438 61.050781 24.171875 64.679688 C 24.433594 71.511719 24.6875 78.476562 25.734375 85.257812 C 23.5 83.398438 21.347656 81.914062 19.316406 80.839844 C 16.226562 79.207031 12.910156 77.601562 9.554688 76.90625 C 5.855469 76.132812 3.203125 76.402344 1.671875 77.703125 C 1.332031 77.988281 1.046875 78.335938 0.820312 78.730469 C 1.0625 77.351562 1.507812 75.972656 1.90625 74.699219 Z M 28.464844 87.742188 C 28.453125 87.691406 28.425781 87.644531 28.386719 87.609375 C 28.335938 87.558594 28.285156 87.515625 28.234375 87.46875 C 28.285156 87.515625 28.335938 87.5625 28.386719 87.609375 C 28.425781 87.644531 28.453125 87.691406 28.464844 87.742188 Z M 45.320312 71.542969 C 40.824219 71.691406 34.210938 72.367188 34.210938 74.070312 C 34.210938 74.101562 34.222656 74.121094 34.222656 74.144531 L 34.222656 74.152344 C 34.226562 74.195312 34.238281 74.242188 34.25 74.285156 C 34.570312 75.875 35.300781 77.304688 35.859375 78.816406 C 36.195312 79.730469 36.359375 80.6875 36.394531 81.652344 C 35.945312 81.671875 35.441406 81.882812 35.039062 82.101562 C 34.464844 82.421875 33.855469 82.726562 33.117188 83.054688 C 31.480469 83.804688 30.234375 84.601562 29.316406 85.488281 C 28.777344 86.019531 28.355469 86.648438 28.074219 87.320312 C 27.503906 86.792969 26.941406 86.292969 26.382812 85.8125 C 26.398438 85.894531 26.410156 85.976562 26.421875 86.0625 C 26.410156 85.976562 26.398438 85.894531 26.382812 85.8125 C 25.273438 78.964844 25.03125 71.929688 24.746094 65.019531 C 24.671875 63.292969 24.617188 61.5625 24.570312 59.835938 C 29.976562 61.890625 36.238281 61.84375 41.921875 61.710938 C 47.964844 61.5625 54.023438 60.980469 59.996094 60.054688 C 59.96875 61.132812 59.929688 62.203125 59.890625 63.273438 C 57.628906 63.023438 51.5625 62.390625 50.191406 62.628906 C 48.886719 62.867188 47.976562 63.566406 47.226562 64.902344 C 46.265625 66.652344 45.179688 69.191406 45.320312 71.542969 Z M 38.652344 82.476562 C 38.566406 82.496094 38.484375 82.511719 38.394531 82.527344 C 38.335938 82.300781 38.273438 82.070312 38.21875 81.839844 C 38.34375 81.816406 38.472656 81.800781 38.601562 81.78125 C 38.617188 82.011719 38.636719 82.25 38.652344 82.476562 Z M 41.851562 77.484375 C 41.652344 77.847656 41.574219 78.007812 41.386719 78.347656 C 41.28125 78 41.230469 77.839844 41.179688 77.679688 C 41.332031 77.636719 41.484375 77.589844 41.851562 77.484375 Z M 58.960938 92.585938 C 58.898438 91.675781 59.535156 91.78125 59.976562 91.648438 C 59.96875 92.371094 59.582031 92.550781 58.960938 92.585938 Z M 33.445312 102.175781 C 33.445312 104.128906 39.953125 105.65625 48.261719 105.65625 C 56.574219 105.65625 63.082031 104.128906 63.082031 102.175781 C 63.082031 101.335938 61.863281 100.570312 59.804688 99.972656 C 60.160156 99.605469 60.488281 99.214844 60.785156 98.796875 C 65.210938 99.613281 68.089844 100.835938 68.089844 102.175781 C 68.089844 104.5625 59.007812 106.578125 48.261719 106.578125 C 37.519531 106.578125 28.4375 104.5625 28.4375 102.175781 C 28.4375 100.890625 31.089844 99.710938 35.222656 98.898438 C 35.554688 99.320312 35.925781 99.71875 36.316406 100.09375 C 34.507812 100.671875 33.445312 101.390625 33.445312 102.175781 Z M 58.484375 82.226562 C 58.5625 82.257812 58.625 82.300781 58.679688 82.339844 C 58.648438 82.589844 58.617188 82.84375 58.585938 83.097656 C 58.167969 82.855469 58.117188 82.601562 58.484375 82.226562 Z M 55.835938 87.417969 C 56.015625 87.726562 56.125 87.898438 56.257812 88.136719 C 56.085938 88.308594 55.921875 88.46875 55.796875 88.589844 C 55.398438 88.476562 55.402344 88.230469 55.835938 87.417969 Z M 51.535156 88.523438 C 51.421875 88.46875 51.316406 88.410156 51.203125 88.355469 C 51.292969 88.175781 51.390625 87.988281 51.484375 87.804688 C 51.5625 87.84375 51.640625 87.886719 51.726562 87.929688 C 51.660156 88.125 51.597656 88.320312 51.535156 88.523438 Z M 52.546875 100.757812 C 52.53125 100.828125 52.519531 100.898438 52.503906 100.96875 C 52.363281 100.945312 52.214844 100.917969 52.070312 100.898438 C 52.109375 100.796875 52.144531 100.6875 52.183594 100.589844 C 52.300781 100.644531 52.425781 100.699219 52.546875 100.757812 Z M 52.402344 98.511719 C 51.957031 98.574219 51.8125 98.597656 51.570312 98.628906 C 51.546875 98.355469 51.523438 98.125 51.46875 97.546875 C 51.851562 97.941406 52.03125 98.128906 52.402344 98.511719 Z M 54.890625 98.636719 C 54.203125 99.425781 53.753906 98.898438 53.308594 98.296875 C 53.839844 98.410156 54.363281 98.523438 54.890625 98.636719 Z M 53.871094 89.710938 C 53.898438 89.425781 53.871094 89.246094 53.933594 89.140625 C 54.199219 88.695312 54.503906 88.578125 54.980469 89.242188 C 54.558594 89.421875 54.277344 89.539062 53.871094 89.710938 Z M 52.75 82.550781 C 52.886719 81.855469 52.886719 81.855469 53.410156 82.230469 C 53.179688 82.34375 53 82.429688 52.75 82.550781 Z M 54.699219 94.230469 C 54.457031 94.484375 54.34375 94.601562 54.226562 94.722656 C 53.050781 94.535156 52.738281 93.515625 52.195312 92.519531 C 53.820312 92.007812 53.808594 93.667969 54.699219 94.230469 Z M 49.605469 78.804688 C 49.746094 79.078125 49.851562 79.296875 50.027344 79.628906 C 49.472656 79.492188 49.214844 79.351562 49.605469 78.804688 Z M 48.636719 76.636719 L 48.898438 76.636719 C 48.917969 76.691406 48.933594 76.75 48.949219 76.816406 C 48.820312 76.753906 48.726562 76.691406 48.636719 76.636719 Z M 46.773438 99.363281 C 47.476562 99.386719 48.042969 99.628906 48.359375 100.363281 C 47.429688 100.886719 46.855469 100.527344 46.773438 99.363281 Z M 45.503906 77.519531 C 45.582031 78.214844 45.109375 78.324219 44.621094 78.804688 C 44.566406 77.808594 44.851562 77.535156 45.503906 77.519531 Z M 43.042969 102.53125 C 43.21875 101.804688 43.484375 101.753906 43.957031 102.191406 C 43.707031 102.285156 43.460938 102.378906 43.042969 102.53125 Z M 47.796875 103.894531 C 51.027344 103.933594 54.265625 103.574219 57.132812 102.007812 C 58.023438 101.519531 58.847656 100.90625 59.574219 100.199219 C 61.636719 100.777344 62.800781 101.492188 62.800781 102.175781 C 62.800781 103.722656 56.960938 105.375 48.261719 105.375 C 39.570312 105.375 33.726562 103.726562 33.726562 102.175781 C 33.726562 101.535156 34.742188 100.875 36.558594 100.320312 C 36.996094 100.71875 37.464844 101.085938 37.9375 101.425781 C 40.847656 103.484375 44.328125 103.847656 47.796875 103.894531 Z M 61.035156 74.675781 C 60.832031 74.867188 60.535156 75.042969 60.15625 75.203125 C 60.535156 75.042969 60.832031 74.867188 61.035156 74.675781 Z M 52.324219 71.640625 C 52.457031 71.371094 52.632812 71.140625 52.878906 70.953125 L 53.347656 71.035156 C 54.496094 71.234375 55.796875 71.460938 56.898438 71.300781 C 57.566406 71.234375 58.832031 70.890625 59.613281 70.261719 C 59.574219 71.074219 59.535156 71.890625 59.492188 72.699219 C 57.394531 72.042969 54.050781 71.75 52.324219 71.640625 Z M 50.167969 75.140625 C 50.171875 75.136719 50.175781 75.136719 50.179688 75.132812 C 50.175781 75.136719 50.171875 75.140625 50.167969 75.144531 C 50.347656 75.234375 50.542969 75.296875 50.773438 75.308594 C 50.820312 75.308594 50.863281 75.300781 50.902344 75.28125 L 51.277344 75.117188 C 51.328125 75.09375 51.371094 75.054688 51.398438 75.003906 C 51.71875 74.464844 51.828125 73.816406 51.929688 73.179688 C 51.984375 72.839844 52.042969 72.5 52.125 72.191406 C 55.691406 72.40625 58.105469 72.84375 59.457031 73.28125 L 60.003906 73.476562 C 60.003906 73.476562 60.003906 73.476562 60.003906 73.480469 C 60.523438 73.695312 60.785156 73.902344 60.785156 74.074219 C 60.785156 74.277344 60.484375 74.503906 59.925781 74.726562 C 59.925781 74.726562 59.925781 74.722656 59.925781 74.722656 L 59.355469 74.921875 C 57.34375 75.539062 53.292969 76.082031 47.78125 76.082031 C 39.722656 76.082031 34.773438 74.914062 34.773438 74.074219 C 34.773438 73.382812 38.554688 72.316406 45.402344 72.101562 C 45.527344 72.523438 45.851562 73.347656 46.511719 73.652344 C 46.527344 73.738281 46.542969 73.824219 46.566406 73.910156 C 46.835938 74.929688 47.722656 75.390625 48.5 74.851562 C 48.910156 75.40625 49.527344 75.6875 50.167969 75.140625 Z M 50.140625 74.65625 C 50.28125 74.726562 50.363281 74.898438 50.261719 75.046875 C 50.363281 74.898438 50.28125 74.726562 50.140625 74.65625 Z M 24.726562 48.550781 C 25.804688 48.378906 26.878906 48.332031 27.960938 48.292969 C 31.035156 51.714844 35.460938 53.976562 40.132812 54.492188 C 40.898438 54.578125 41.648438 54.621094 42.378906 54.621094 C 45.183594 54.621094 47.757812 53.992188 50.195312 52.730469 C 52.171875 51.703125 55.769531 49.136719 56.953125 48.296875 L 57.109375 48.183594 L 58.195312 48.296875 C 58.753906 48.335938 59.292969 48.398438 59.828125 48.476562 C 60.316406 50.183594 60.082031 52.308594 60.085938 54.042969 C 60.085938 55.863281 60.058594 57.679688 60.015625 59.492188 L 59.996094 59.492188 C 54.152344 60.40625 48.242188 60.957031 42.324219 61.136719 C 36.507812 61.316406 30.066406 61.378906 24.554688 59.234375 C 24.511719 57.589844 24.492188 55.945312 24.484375 54.296875 C 24.484375 52.511719 24.242188 50.316406 24.726562 48.550781 Z M 30.066406 48.191406 C 31.84375 48.066406 33.601562 47.449219 35.308594 46.976562 C 36.703125 46.585938 36.300781 44.066406 36.164062 42.667969 C 38.082031 43.847656 40.414062 44.492188 42.671875 44.492188 C 44.34375 44.492188 45.976562 44.144531 47.378906 43.398438 C 47.875 43.132812 48.457031 42.769531 49.042969 42.34375 C 49.035156 42.472656 49.035156 42.601562 49.03125 42.722656 C 49.023438 43.21875 49.019531 43.660156 48.988281 44.273438 C 48.984375 44.386719 48.980469 44.507812 48.96875 44.625 C 48.917969 45.363281 48.851562 46.28125 49.535156 46.855469 C 49.574219 46.890625 49.621094 46.910156 49.667969 46.917969 C 49.714844 46.929688 54.453125 47.792969 55.589844 48.023438 L 56.269531 48.09375 C 54.847656 49.105469 51.710938 51.3125 49.929688 52.230469 C 46.964844 53.773438 43.78125 54.328125 40.195312 53.9375 C 35.820312 53.449219 31.664062 51.390625 28.703125 48.261719 C 29.152344 48.242188 29.609375 48.222656 30.066406 48.191406 Z M 33.96875 40.03125 C 32.949219 38.738281 32.175781 37.054688 31.738281 35.164062 C 31.683594 34.917969 31.632812 34.675781 31.578125 34.433594 C 31.800781 34.378906 31.855469 33.992188 31.578125 33.886719 C 31.535156 33.867188 31.5 33.839844 31.457031 33.824219 C 30.65625 33.46875 30.054688 32.851562 29.613281 32.101562 C 29.351562 31.640625 29.230469 31.113281 29.214844 30.589844 C 29.1875 29.695312 29.957031 28.914062 30.679688 29.832031 C 30.753906 29.925781 30.835938 29.941406 30.921875 29.917969 C 31.089844 29.875 31.230469 29.625 31.078125 29.4375 C 30.972656 29.292969 30.859375 29.195312 30.746094 29.105469 C 30.613281 29 30.480469 28.9375 30.347656 28.890625 C 30.480469 28.933594 30.613281 28.996094 30.746094 29.101562 C 30.660156 28.246094 30.601562 27.351562 30.589844 26.445312 C 31.824219 26.558594 33.097656 26.457031 34.160156 26.308594 C 34.164062 26.308594 34.171875 26.304688 34.179688 26.304688 C 39.539062 25.558594 45.496094 22.183594 48.292969 17.421875 C 48.917969 21.121094 50.265625 25.664062 53.605469 27.414062 C 53.726562 27.476562 53.855469 27.539062 53.984375 27.59375 C 53.972656 28.066406 53.949219 28.546875 53.914062 29.039062 C 53.949219 29.015625 53.988281 29 54.023438 28.980469 C 53.988281 29 53.949219 29.015625 53.910156 29.042969 C 53.789062 29.132812 53.664062 29.238281 53.542969 29.390625 C 53.394531 29.582031 53.527344 29.824219 53.703125 29.867188 C 53.78125 29.890625 53.871094 29.875 53.945312 29.78125 C 54.597656 28.976562 55.273438 29.503906 55.386719 30.332031 C 55.453125 30.847656 55.289062 31.382812 55.082031 31.847656 C 54.703125 32.699219 53.960938 33.414062 53.101562 33.773438 C 53.0625 33.789062 53.015625 33.8125 52.976562 33.824219 C 52.644531 33.945312 52.78125 34.476562 53.109375 34.367188 C 53.054688 34.632812 53 34.894531 52.9375 35.164062 C 52.503906 37.054688 51.730469 38.738281 50.707031 40.03125 C 49.726562 41.257812 48.214844 42.320312 47.113281 42.902344 C 43.042969 45.0625 36.902344 43.722656 33.96875 40.03125 Z M 28.679688 31.191406 C 27.4375 30.742188 26.226562 29.761719 25.3125 28.4375 C 22.539062 24.414062 23.769531 18.289062 26.496094 14.929688 C 28.617188 12.320312 31.945312 10.253906 36.382812 8.789062 C 39.535156 10.9375 45.003906 10.789062 48.117188 8.777344 C 52.570312 10.242188 55.914062 12.3125 58.039062 14.929688 C 60.769531 18.289062 62.003906 24.414062 59.226562 28.4375 C 58.320312 29.753906 57.109375 30.738281 55.871094 31.1875 C 55.898438 31.0625 55.925781 30.941406 55.945312 30.816406 C 56.089844 29.734375 55.339844 28.730469 54.484375 28.8125 C 54.484375 28.8125 54.488281 28.8125 54.488281 28.8125 C 54.511719 28.472656 54.527344 28.140625 54.535156 27.808594 C 55.140625 28.007812 55.796875 28.128906 56.515625 28.144531 C 56.878906 28.15625 56.878906 27.59375 56.515625 27.585938 C 50.996094 27.441406 49.386719 20.984375 48.726562 16.570312 C 48.675781 16.257812 48.261719 16.332031 48.191406 16.589844 C 48.140625 16.613281 48.09375 16.644531 48.0625 16.707031 C 45.777344 20.960938 41.085938 23.789062 36.585938 25.183594 C 34.382812 25.867188 32.003906 26.15625 29.726562 25.699219 C 26.4375 25.042969 25.382812 21.972656 27.589844 19.472656 C 27.828125 19.199219 27.429688 18.800781 27.191406 19.074219 C 25.636719 20.835938 25.171875 23.183594 26.933594 24.976562 C 27.734375 25.785156 28.84375 26.195312 30.023438 26.378906 C 30.03125 27.210938 30.082031 28.039062 30.15625 28.835938 C 29.382812 28.746094 28.703125 29.605469 28.652344 30.589844 C 28.640625 30.792969 28.652344 30.988281 28.679688 31.191406 Z M 30.003906 8.605469 C 30.90625 8.132812 31.882812 7.925781 32.910156 7.851562 C 33.726562 7.796875 35.140625 7.757812 35.863281 8.347656 C 34.023438 9.070312 31.878906 9.28125 30.003906 8.605469 Z M 34.273438 6.140625 C 33.6875 5.175781 33.304688 4.050781 33.253906 2.925781 C 34.695312 4.097656 35.589844 5.886719 35.949219 7.699219 C 35.683594 7.53125 35.382812 7.410156 35.046875 7.324219 C 34.738281 6.933594 34.480469 6.484375 34.273438 6.140625 Z M 44.976562 0.566406 C 46.921875 0.382812 48.855469 1.144531 49.523438 3.078125 C 50.160156 4.929688 49.199219 6.949219 47.910156 8.25 C 44.988281 10.179688 39.777344 10.355469 36.738281 8.351562 C 36.75 4.101562 41.003906 0.949219 44.976562 0.566406 Z M 77.074219 61.589844 C 78.117188 63.351562 78.960938 64.914062 79.660156 66.367188 C 81.039062 69.246094 83.039062 74.9375 83.640625 79.054688 C 81.417969 75.519531 73.753906 69.570312 68.820312 66.761719 C 68.019531 66.304688 67.394531 65.921875 66.863281 65.597656 C 64.890625 64.390625 64.148438 63.941406 60.742188 63.375 C 60.707031 63.371094 60.605469 63.359375 60.453125 63.34375 C 60.566406 60.246094 60.644531 57.148438 60.652344 54.042969 C 60.652344 52.34375 60.855469 50.296875 60.429688 48.582031 C 68.921875 50.160156 74.441406 57.265625 77.074219 61.589844 Z M 84.34375 80.207031 C 84.007812 76.003906 81.703125 69.332031 80.167969 66.125 C 79.460938 64.660156 78.613281 63.085938 77.558594 61.304688 C 74.640625 56.511719 68.253906 48.375 58.242188 47.742188 L 55.675781 47.464844 C 54.636719 47.257812 50.472656 46.496094 49.847656 46.382812 C 49.433594 45.984375 49.484375 45.316406 49.53125 44.667969 C 49.542969 44.542969 49.546875 44.417969 49.554688 44.300781 C 49.582031 43.679688 49.585938 43.230469 49.59375 42.730469 C 49.597656 42.476562 49.605469 42.207031 49.609375 41.898438 C 50.171875 41.4375 50.710938 40.929688 51.144531 40.378906 C 52.222656 39.019531 53.03125 37.261719 53.484375 35.289062 C 53.578125 34.871094 53.667969 34.46875 53.746094 34.070312 C 54.636719 33.566406 55.3125 32.769531 55.679688 31.824219 L 55.679688 31.84375 C 57.710938 31.277344 59.0625 29.664062 59.695312 28.753906 C 62.648438 24.457031 61.398438 18.171875 58.476562 14.574219 C 56.328125 11.933594 52.988281 9.839844 48.574219 8.347656 C 50.976562 5.550781 50.898438 0.453125 46.34375 0.0351562 C 42.097656 -0.359375 37.25 2.675781 36.328125 6.921875 C 35.816406 5.015625 34.761719 3.222656 33.117188 2.109375 C 32.925781 1.980469 32.707031 2.15625 32.691406 2.351562 C 32.601562 3.863281 33.125 5.332031 33.90625 6.613281 C 34.019531 6.800781 34.144531 7 34.277344 7.199219 C 32.480469 7.039062 30.28125 7.707031 29.222656 8.40625 C 29.058594 8.515625 29.011719 8.800781 29.222656 8.894531 C 30.371094 9.429688 31.625 9.625 32.875 9.5625 C 29.96875 10.910156 27.679688 12.589844 26.0625 14.574219 C 23.140625 18.171875 21.890625 24.457031 24.847656 28.753906 C 25.472656 29.664062 26.824219 31.269531 28.847656 31.835938 C 29.214844 32.835938 30.039062 33.699219 30.957031 34.199219 C 31.027344 34.558594 31.109375 34.917969 31.191406 35.289062 C 31.648438 37.261719 32.453125 39.019531 33.527344 40.378906 C 34.101562 41.097656 34.796875 41.730469 35.566406 42.273438 C 35.617188 43.09375 35.960938 46.207031 35.359375 46.375 C 34.519531 46.613281 33.679688 46.84375 32.84375 47.0625 C 30.871094 47.582031 28.972656 47.71875 26.941406 47.738281 C 21.621094 47.785156 16.625 50.726562 12.882812 54.292969 C 8.71875 58.261719 5.847656 63.4375 3.597656 68.667969 C 2.617188 70.9375 1.746094 73.257812 1.035156 75.625 C 0.445312 77.613281 -0.132812 79.808594 0.164062 81.886719 C 0.164062 81.90625 0.171875 81.910156 0.171875 81.929688 C 0.207031 82.40625 0.269531 82.898438 0.398438 83.410156 C 0.613281 84.308594 0.945312 85.65625 1.546875 86.394531 C 3.710938 89.042969 14.542969 92.242188 20.792969 93.105469 C 23.765625 93.523438 24.773438 93.824219 26.167969 94.246094 C 26.753906 94.421875 27.414062 94.617188 28.308594 94.851562 L 28.316406 94.851562 C 28.328125 94.859375 28.335938 94.871094 28.355469 94.878906 C 30.167969 95.710938 30.996094 96.03125 33.027344 96.585938 C 33.292969 96.640625 33.613281 96.671875 33.933594 96.679688 C 34.011719 96.890625 34.101562 97.089844 34.203125 97.289062 C 27.875 98.277344 23.285156 99.960938 23.285156 102.175781 C 23.285156 102.203125 23.292969 102.230469 23.292969 102.261719 C 23.21875 102.316406 23.167969 102.40625 23.171875 102.507812 L 23.417969 106.105469 C 23.417969 109.796875 36.113281 112.003906 48.386719 112.003906 C 62.429688 112.003906 73.023438 109.464844 73.023438 106.121094 L 73.246094 102.191406 L 73.242188 102.1875 C 73.242188 102.179688 73.246094 102.179688 73.246094 102.175781 C 73.246094 99.890625 68.367188 98.175781 61.726562 97.199219 C 62.046875 96.511719 62.285156 95.789062 62.425781 95.03125 C 62.695312 93.554688 62.539062 92.21875 62.183594 90.933594 L 62.515625 90.933594 C 63.730469 90.941406 64.953125 90.933594 66.167969 90.929688 C 67.246094 90.925781 68.320312 90.917969 69.394531 90.917969 C 70.167969 90.925781 70.957031 90.957031 71.714844 90.984375 C 72.527344 91.019531 73.347656 91.054688 74.171875 91.054688 C 74.753906 91.054688 75.339844 91.035156 75.921875 90.992188 C 78.230469 90.8125 80.441406 89.351562 82.003906 87.515625 C 83.464844 86.378906 83.949219 84.429688 84.109375 83.433594 C 84.125 83.316406 84.152344 83.203125 84.171875 83.089844 L 84.199219 82.855469 C 84.316406 81.945312 84.417969 81.160156 84.34375 80.207031 "/></g><path style=" stroke:none;fill-rule:nonzero;fill:#100f0d;fill-opacity:1;" d="M 42.710938 36.257812 C 43.074219 36.25 43.074219 35.691406 42.710938 35.695312 C 41.207031 35.71875 42.070312 33.816406 42.203125 33.101562 C 42.457031 31.71875 42.824219 30.378906 42.828125 28.964844 C 42.828125 28.601562 42.261719 28.601562 42.261719 28.964844 C 42.257812 30.902344 41.539062 32.695312 41.304688 34.59375 C 41.171875 35.671875 41.59375 36.273438 42.710938 36.257812 "/></g></svg>